<?xml version="1.0" encoding="UTF-8"?>
<!DOCTYPE svg PUBLIC "-//W3C//DTD SVG 1.1//EN" "http://www.w3.org/Graphics/SVG/1.1/DTD/svg11.dtd">
<!-- Creator: CorelDRAW (Versão OEM) -->
<svg xmlns="http://www.w3.org/2000/svg" xml:space="preserve" width="210mm" height="297mm" version="1.1" style="shape-rendering:geometricPrecision; text-rendering:geometricPrecision; image-rendering:optimizeQuality; fill-rule:evenodd; clip-rule:evenodd"
viewBox="0 0 2100 2970"
 xmlns:xlink="http://www.w3.org/1999/xlink"
 xmlns:xodm="http://www.corel.com/coreldraw/odm/2003">
 <defs>
  <style type="text/css">
   <![CDATA[
    .str0 {stroke:#373435;stroke-width:20;stroke-miterlimit:22.9256}
    .str1 {stroke:black;stroke-width:5;stroke-miterlimit:22.9256}
    .fil16 {fill:#373435;fill-rule:nonzero}
    .fil3 {fill:url(#id0)}
    .fil13 {fill:url(#id1)}
    .fil5 {fill:url(#id2)}
    .fil0 {fill:url(#id3)}
    .fil9 {fill:url(#id4)}
    .fil12 {fill:url(#id5)}
    .fil7 {fill:url(#id6)}
    .fil6 {fill:url(#id7)}
    .fil10 {fill:url(#id8)}
    .fil11 {fill:url(#id9)}
    .fil2 {fill:url(#id10)}
    .fil14 {fill:url(#id11)}
    .fil1 {fill:url(#id12)}
    .fil4 {fill:url(#id13)}
    .fil8 {fill:url(#id14)}
    .fil15 {fill:url(#id15)}
   ]]>
  </style>
  <linearGradient id="id0" gradientUnits="userSpaceOnUse" x1="278.02" y1="1517.86" x2="751.858" y2="1781.951">
   <stop offset="0" style="stop-opacity:1; stop-color:#373435"/>
   <stop offset="0.172549" style="stop-opacity:1; stop-color:#8E8D8E"/>
   <stop offset="0.521569" style="stop-opacity:1; stop-color:#E6E7E8"/>
   <stop offset="1" style="stop-opacity:1; stop-color:#665A5A"/>
  </linearGradient>
  <linearGradient id="id1" gradientUnits="userSpaceOnUse" x1="271.652" y1="2110.729" x2="577.764" y2="2140.438">
   <stop offset="0" style="stop-opacity:1; stop-color:#373435"/>
   <stop offset="0.156863" style="stop-opacity:1; stop-color:#9A9999"/>
   <stop offset="0.470588" style="stop-opacity:1; stop-color:#FEFEFE"/>
   <stop offset="1" style="stop-opacity:1; stop-color:#665A5A"/>
  </linearGradient>
  <linearGradient id="id2" gradientUnits="userSpaceOnUse" x1="533.659" y1="974.005" x2="1073.518" y2="1286.023">
   <stop offset="0" style="stop-opacity:1; stop-color:#373435"/>
   <stop offset="0.172549" style="stop-opacity:1; stop-color:#9A9999"/>
   <stop offset="0.521569" style="stop-opacity:1; stop-color:#FEFEFE"/>
   <stop offset="1" style="stop-opacity:1; stop-color:#665A5A"/>
  </linearGradient>
  <linearGradient id="id3" gradientUnits="userSpaceOnUse" xlink:href="#id2" x1="470.01" y1="1092.113" x2="1002.308" y2="1399.369">
  </linearGradient>
  <linearGradient id="id4" gradientUnits="userSpaceOnUse" xlink:href="#id1" x1="916.987" y1="1474.996" x2="961.53" y2="1388.909">
  </linearGradient>
  <linearGradient id="id5" gradientUnits="userSpaceOnUse" xlink:href="#id1" x1="1825.547" y1="1976.09" x2="1862.556" y2="1916.546">
  </linearGradient>
  <linearGradient id="id6" gradientUnits="userSpaceOnUse" xlink:href="#id0" x1="691.785" y1="808.256" x2="1157.414" y2="1086.566">
  </linearGradient>
  <linearGradient id="id7" gradientUnits="userSpaceOnUse" xlink:href="#id2" x1="610.105" y1="817.209" x2="1167.415" y2="1139.645">
  </linearGradient>
  <linearGradient id="id8" gradientUnits="userSpaceOnUse" xlink:href="#id1" x1="949.917" y1="1547.361" x2="1032.379" y2="1357.309">
  </linearGradient>
  <linearGradient id="id9" gradientUnits="userSpaceOnUse" xlink:href="#id1" x1="1462.249" y1="1818.005" x2="1540.11" y2="1681.607">
  </linearGradient>
  <linearGradient id="id10" gradientUnits="userSpaceOnUse" xlink:href="#id2" x1="244.934" y1="1442.645" x2="802.827" y2="1764.071">
  </linearGradient>
  <linearGradient id="id11" gradientUnits="userSpaceOnUse" xlink:href="#id1" x1="386.129" y1="2066.371" x2="416.505" y2="2239.3">
  </linearGradient>
  <linearGradient id="id12" gradientUnits="userSpaceOnUse" xlink:href="#id2" x1="342.501" y1="1298.043" x2="882.646" y2="1609.565">
  </linearGradient>
  <linearGradient id="id13" gradientUnits="userSpaceOnUse" x1="387.23" y1="1438.883" x2="730.803" y2="1628.217">
   <stop offset="0" style="stop-opacity:1; stop-color:#373435"/>
   <stop offset="0.160784" style="stop-opacity:1; stop-color:#9A9999"/>
   <stop offset="0.490196" style="stop-opacity:1; stop-color:#FEFEFE"/>
   <stop offset="1" style="stop-opacity:1; stop-color:#282829"/>
  </linearGradient>
  <linearGradient id="id14" gradientUnits="userSpaceOnUse" xlink:href="#id13" x1="677.995" y1="942.323" x2="1013.749" y2="1145.198">
  </linearGradient>
  <radialGradient id="id15" gradientUnits="userSpaceOnUse" gradientTransform="matrix(-1.12952 0.0694847 -0.00896288 -0.473452 926 2908)" cx="426.65" cy="1993.39" r="443.654" fx="426.65" fy="1993.39">
   <stop offset="0" style="stop-opacity:1; stop-color:#FEFEFE"/>
   <stop offset="1" style="stop-opacity:0.376471; stop-color:#373435"/>
  </radialGradient>
 </defs>
 <g id="Camada_x0020_1">
  <metadata id="CorelCorpID_0Corel-Layer"/>
  <g id="_2397584171344">
   <path class="fil0 str0" d="M547.576 1196.859c28.952,-50.147 60.03,-96.534 92.026,-138.247l344.764 199.05c-20.126,48.566 -44.759,98.673 -73.712,148.82 -29.075,50.36 -60.295,96.933 -92.437,138.783l-344.613 -198.962c20.173,-48.761 44.896,-99.084 73.972,-149.444z"/>
   <path class="fil1 str0" d="M443.7 1408.633c-10.356,-5.979 -11.036,-24.189 -1.52,-40.672 9.516,-16.483 25.627,-25 35.983,-19.021 27.533,15.896 330.854,191.011 330.851,191.017 10.356,5.979 11.036,24.19 1.519,40.673 -9.516,16.482 -25.627,24.999 -35.983,19.02 -0.001,0.001 -303.322,-175.123 -330.85,-191.017z"/>
   <path class="fil2 str0" d="M341.99 1525.012c0.024,-0.042 12.535,-5.228 16.235,-11.636 4.758,-8.241 17.011,-10.076 27.367,-4.097 0.647,0.373 2.311,1.616 2.434,1.402l328.418 189.612 -0.002 0.002c10.356,5.979 14.894,17.508 10.136,25.749 -4.758,8.242 1.325,22.439 -9.031,16.46l-375.557 -217.492z"/>
   <path class="fil3 str0" d="M314.69 1588.308c-11.458,-6.615 -13.03,-25.341 -3.514,-41.824 9.517,-16.483 26.52,-24.484 37.977,-17.87 30.46,17.586 366.031,211.32 366.027,211.326 11.457,6.615 13.03,25.341 3.513,41.824 -9.516,16.483 -26.52,24.484 -37.977,17.869 -0.003,0.005 -335.568,-193.74 -366.026,-211.325z"/>
   <polygon class="fil4 str0" points="775.868,1600.128 723.834,1704.559 373.958,1502.558 438.381,1405.28 "/>
   <path class="fil5 str0" d="M680.032 1006.352c-10.356,-5.979 -26.467,2.537 -35.983,19.02 -9.516,16.483 -8.837,34.694 1.519,40.673 27.53,15.894 330.85,191.018 330.851,191.016 10.356,5.979 26.467,-2.537 35.983,-19.02 9.516,-16.483 8.837,-34.694 -1.52,-40.673 0.001,-0.001 -303.321,-175.122 -330.85,-191.016z"/>
   <path class="fil6 str0" d="M729.964 860.079c-0.024,0.042 1.74,13.47 -1.96,19.878 -4.758,8.241 -0.22,19.77 10.136,25.75 27.531,15.895 330.85,191.017 330.85,191.016 10.356,5.979 22.609,4.144 27.367,-4.097 4.759,-8.241 20.095,-10.072 9.739,-16.051l-376.132 -216.496z"/>
   <path class="fil7 str0" d="M771.129 804.789c-11.457,-6.615 -28.46,1.386 -37.977,17.869 -9.516,16.483 -7.944,35.209 3.514,41.824 30.459,17.586 366.023,211.332 366.026,211.325 11.458,6.615 28.461,-1.386 37.977,-17.869 9.517,-16.483 7.944,-35.209 -3.513,-41.824 0.003,-0.005 -335.568,-193.74 -366.027,-211.325z"/>
   <polygon class="fil8 str0" points="1011.955,1198.271 1076.378,1100.992 726.502,898.991 674.468,1003.423 "/>
   <path class="fil9 str0" d="M906.999 1413.215c-8.5,14.723 -16.205,29.16 -22.982,42.908l50.128 28.941c8.518,-12.743 17.168,-26.634 25.668,-41.357 8.465,-14.661 16.14,-29.037 22.896,-42.732l-50.15 -28.954c-8.483,12.698 -17.095,26.533 -25.56,41.194z"/>
   <path class="fil10 str0" d="M982.709 1400.975c12.699,-11.427 27.794,-11.228 35.676,-6.678 7.882,4.551 13.201,15.973 13.989,30.314 -10.035,26.679 -29.856,63.151 -48,85.254 -10.212,13.699 -27.117,10.711 -34.999,6.16 -7.882,-4.55 -18.043,-14.7 -15.23,-30.961 6.806,-10.385 42.885,-72.84 48.564,-84.089z"/>
   <path class="fil11 str0" d="M1012.598 1470.01c-8.482,14.692 -18.995,26.897 -28.223,39.855l417.112 273.13 356.988 195.955c20.836,-5.632 45.773,-32.292 54.255,-46.984 8.482,-14.692 22.812,-57.234 17.353,-77.983l-362.454 -214.295 -435.255 -215.076c-13.142,28.875 -11.293,30.706 -19.776,45.398z"/>
   <path class="fil12 str0" d="M1758.441 1978.93l71.61 36.167c56.04,-19.707 77.732,-56.894 67.919,-117.614l-67.886 -43.5c11.829,23.289 -45.185,104.91 -71.643,124.947z"/>
   <g>
    <path class="fil13 str1" d="M745.363 2143.946c-32.793,32.877 -162.361,57.427 -317.218,57.427 -153.626,0 -282.355,-24.161 -316.412,-56.643l0 -100.38c35.852,27.336 162.873,61.801 316.412,56.642 32.615,-1.096 259.181,-4.897 318.05,-61.408l-0.832 104.362z"/>
    <path class="fil14 str1" d="M696.818 1985.404l0 0.007m1.724 4.43c2.766,5.058 8.273,13.071 13.379,22.02 10.442,18.295 21.369,9.719 34.274,27.723 -38.156,41.645 -168.61,61.408 -321.277,61.408 -152.668,0 -279.475,-24.161 -313.185,-56.642 4.237,-21.742 15.948,-24.382 33.582,-32.067l9.21 -21.275c0,34.975 123.108,65.71 272.124,65.71 149.016,0 267.535,-32.79 271.893,-66.877zm-1.724 -4.431l0 -0.006"/>
    <ellipse class="fil15 str1" cx="426.65" cy="1993.39" rx="272.314" ry="63.329"/>
   </g>
   <path class="fil16 str1" d="M747.227 2149.005c-50.397,50.528 -252.215,59.62 -322.439,59.62 -77.031,0 -268.33,-7.981 -323.799,-60.893l2.539 -115.912c6.152,-15.294 19.023,-19.432 32.949,-25.327 8.015,-16.789 7.067,-23.576 21.888,-37.141 14.466,-11.106 38.95,-20.672 70.729,-28.061 49.816,-11.585 118.486,-18.751 194.199,-18.751 75.712,0 144.383,7.166 194.198,18.751 56.443,13.126 70.907,20.257 97.478,66.8 4.114,7.209 8.475,9.055 13.093,11.007 11.843,5.006 18.797,10.015 22.861,22.408l-1.607 105.405 -2.089 2.094zm-133.024 -118.153c16.66,-3.873 71.251,-17.263 73.948,-36.473 0.043,-0.375 0.068,-0.749 0.068,-1.124 0,-13.587 -28.287,-26.962 -74.016,-37.597 -48.74,-11.335 -116.23,-18.346 -190.91,-18.346 -74.68,0 -142.17,7.011 -190.91,18.346 -263.714,61.326 202.8,116.605 381.82,75.194zm3.288 14.368c-65.044,15.125 -230.565,19.14 -350.93,0.905 -49.639,-7.519 -94.027,-15.794 -116.687,-33.422l-2.431 5.087c-12.479,5.443 -26.126,8.66 -30.699,23.298 63.074,40.949 232.383,52.532 309.459,52.377 57.201,-0.495 252.21,-6.895 306.567,-54.463 -3.617,-3.464 -7.087,-4.933 -10.422,-6.343 -6.996,-2.956 -13.6,-5.751 -20.19,-17.297 -1.642,-2.878 -3.356,-5.024 -4.973,-6.816 -15.95,20.369 -59.966,32.085 -79.694,36.674zm-191.288 63.017l-1.415 0.007c-81.056,0 -241.037,-7.454 -309.027,-49.294l0 82.361c52.566,43.869 240.996,52.542 309.027,52.542 66.958,0 259.18,-8.768 309.909,-53.286l1.224 -80.281c-58.595,39.132 -250.723,47.796 -309.718,47.951z"/>
  </g>
 </g>
</svg>
