<?xml version="1.0" encoding="UTF-8"?>
<!DOCTYPE svg PUBLIC "-//W3C//DTD SVG 1.1//EN" "http://www.w3.org/Graphics/SVG/1.1/DTD/svg11.dtd">
<!-- Creator: CorelDRAW (Versão OEM) -->
<svg xmlns="http://www.w3.org/2000/svg" xml:space="preserve" version="1.1" style="shape-rendering:geometricPrecision; text-rendering:geometricPrecision; image-rendering:optimizeQuality; fill-rule:evenodd; clip-rule:evenodd" viewBox="-135.28 -141.43 7354.46 6130.04" xmlns:xlink="http://www.w3.org/1999/xlink" xmlns:xodm="http://www.corel.com/coreldraw/odm/2003">
 <defs>
  <style type="text/css">
   <![CDATA[
    .str0 {stroke:black;stroke-width:12.18;stroke-miterlimit:22.9256}
    .fil18 {fill:#E6E7E8;fill-rule:nonzero}
    .fil1 {fill:#373435;fill-rule:nonzero}
    .fil15 {fill:black;fill-rule:nonzero}
    .fil4 {fill:url(#id0)}
    .fil3 {fill:url(#id1)}
    .fil0 {fill:url(#id2)}
    .fil7 {fill:url(#id3)}
    .fil11 {fill:url(#id4)}
    .fil10 {fill:url(#id5)}
    .fil12 {fill:url(#id6)}
    .fil13 {fill:url(#id7)}
    .fil8 {fill:url(#id8)}
    .fil14 {fill:url(#id9)}
    .fil6 {fill:url(#id10)}
    .fil2 {fill:url(#id11)}
    .fil5 {fill:url(#id12)}
    .fil16 {fill:url(#id13)}
    .fil9 {fill:url(#id14)}
    .fil17 {fill:url(#id15)}
   ]]>
  </style>
  <linearGradient id="id0" gradientUnits="userSpaceOnUse" x1="481.5" y1="2931.48" x2="2396.43" y2="3998.76">
   <stop offset="0" style="stop-opacity:1; stop-color:#373435"/>
   <stop offset="0.172549" style="stop-opacity:1; stop-color:#8E8D8E"/>
   <stop offset="0.521569" style="stop-opacity:1; stop-color:#E6E7E8"/>
   <stop offset="1" style="stop-opacity:1; stop-color:#665A5A"/>
  </linearGradient>
  <linearGradient id="id1" gradientUnits="userSpaceOnUse" x1="347.79" y1="2627.51" x2="2602.41" y2="3926.5">
   <stop offset="0" style="stop-opacity:1; stop-color:#373435"/>
   <stop offset="0.172549" style="stop-opacity:1; stop-color:#9A9999"/>
   <stop offset="0.521569" style="stop-opacity:1; stop-color:#FEFEFE"/>
   <stop offset="1" style="stop-opacity:1; stop-color:#665A5A"/>
  </linearGradient>
  <linearGradient id="id2" gradientUnits="userSpaceOnUse" xlink:href="#id1" x1="1257.39" y1="1210.9" x2="3408.58" y2="2452.62">
  </linearGradient>
  <linearGradient id="id3" gradientUnits="userSpaceOnUse" xlink:href="#id1" x1="1823.56" y1="99.92" x2="4075.83" y2="1402.99">
  </linearGradient>
  <linearGradient id="id4" gradientUnits="userSpaceOnUse" x1="3196.85" y1="3050.7" x2="3530.1" y2="2282.64">
   <stop offset="0" style="stop-opacity:1; stop-color:#373435"/>
   <stop offset="0.156863" style="stop-opacity:1; stop-color:#9A9999"/>
   <stop offset="0.470588" style="stop-opacity:1; stop-color:#FEFEFE"/>
   <stop offset="1" style="stop-opacity:1; stop-color:#665A5A"/>
  </linearGradient>
  <linearGradient id="id5" gradientUnits="userSpaceOnUse" xlink:href="#id4" x1="3063.77" y1="2758.25" x2="3243.78" y2="2410.35">
  </linearGradient>
  <linearGradient id="id6" gradientUnits="userSpaceOnUse" xlink:href="#id4" x1="5267.35" y1="4144.46" x2="5582.01" y2="3593.23">
  </linearGradient>
  <linearGradient id="id7" gradientUnits="userSpaceOnUse" xlink:href="#id4" x1="6735.55" y1="4783.33" x2="6885.11" y2="4542.7">
  </linearGradient>
  <linearGradient id="id8" gradientUnits="userSpaceOnUse" xlink:href="#id0" x1="2153.65" y1="63.74" x2="4035.41" y2="1188.48">
  </linearGradient>
  <linearGradient id="id9" gradientUnits="userSpaceOnUse" xlink:href="#id4" x1="695.86" y1="5451.55" x2="1932.95" y2="5571.61">
  </linearGradient>
  <linearGradient id="id10" gradientUnits="userSpaceOnUse" xlink:href="#id1" x1="1514.62" y1="733.59" x2="3696.36" y2="1994.55">
  </linearGradient>
  <linearGradient id="id11" gradientUnits="userSpaceOnUse" xlink:href="#id1" x1="742.09" y1="2043.13" x2="2924.98" y2="3302.09">
  </linearGradient>
  <linearGradient id="id12" gradientUnits="userSpaceOnUse" x1="922.85" y1="2612.31" x2="2311.34" y2="3377.47">
   <stop offset="0" style="stop-opacity:1; stop-color:#373435"/>
   <stop offset="0.160784" style="stop-opacity:1; stop-color:#9A9999"/>
   <stop offset="0.490196" style="stop-opacity:1; stop-color:#FEFEFE"/>
   <stop offset="1" style="stop-opacity:1; stop-color:#282829"/>
  </linearGradient>
  <linearGradient id="id13" gradientUnits="userSpaceOnUse" xlink:href="#id4" x1="1158.49" y1="5272.28" x2="1281.26" y2="5971.14">
  </linearGradient>
  <linearGradient id="id14" gradientUnits="userSpaceOnUse" xlink:href="#id12" x1="2097.92" y1="605.55" x2="3454.81" y2="1425.43">
  </linearGradient>
  <radialGradient id="id15" gradientUnits="userSpaceOnUse" gradientTransform="matrix(-1.12952 0.0385459 -0.00896294 -0.262644 2860 6234)" cx="1322.25" cy="4977.34" r="2985.5" fx="1322.25" fy="4977.34">
   <stop offset="0" style="stop-opacity:1; stop-color:#FEFEFE"/>
   <stop offset="1" style="stop-opacity:0.376471; stop-color:#373435"/>
  </radialGradient>
 </defs>
 <g id="Camada_x0020_1">
  <metadata id="CorelCorpID_0Corel-Layer"/>
  <g id="_2637727761664">
   <path class="fil0" d="M1570.85 1634.21c117,-202.67 242.61,-390.13 371.92,-558.7l1393.3 804.42c-81.34,196.27 -180.88,398.76 -297.89,601.43 -117.5,203.52 -243.67,391.74 -373.57,560.87l-1392.69 -804.07c81.52,-197.06 181.43,-400.43 298.94,-603.95z"/>
   <path class="fil1" d="M1535.97 1614.16c58.74,-101.73 119.09,-198.91 180.46,-291.12 63.39,-95.24 128.37,-186.07 194.3,-272l21.57 -28.13 1454.58 839.8 -13.55 32.7c-41.36,99.79 -87.52,201.45 -138.4,304.16 -49.64,100.21 -103.63,201.12 -161.87,301.99l-0.07 -0.04c-58.97,102.13 -119.56,199.68 -181.19,292.21 -63.67,95.6 -128.94,186.77 -195.15,272.97l-21.55 28.05c-484.65,-279.77 -969.25,-559.61 -1453.89,-839.41l13.44 -32.5c41.71,-100.81 88.02,-202.95 138.81,-305.55 49.45,-99.89 103.64,-201.18 162.5,-303.14zm247.7 -246.59c-61.48,92.37 -121,188.11 -177.92,286.69 -57.28,99.22 -110.66,199.06 -159.98,298.72 -44.77,90.45 -85.81,179.98 -123.02,268.06l1331.25 768.6c57.81,-76.48 114.84,-156.73 170.57,-240.42 61.76,-92.74 121.56,-188.89 178.73,-287.9l0 -0.16c57.41,-99.44 110.56,-198.78 159.34,-297.27 44.37,-89.55 85.22,-178.68 122.52,-266.8l-1331.79 -768.91c-57.52,76.17 -114.24,156.08 -169.69,239.39z"/>
   <path class="fil2" d="M1151.06 2490.05c-41.86,-24.16 -44.6,-97.76 -6.14,-164.37 38.46,-66.61 103.57,-101.03 145.41,-76.87 111.27,64.23 1337.09,771.94 1337.08,771.96 41.86,24.16 44.6,97.76 6.14,164.37 -38.46,66.61 -103.57,101.03 -145.42,76.87 0,0.01 -1225.81,-707.73 -1337.06,-771.96z"/>
   <path class="fil1" d="M1130.89 2524.88c-33.76,-19.55 -51.65,-56.22 -53.27,-99.67 -1.38,-36.8 9.32,-79.58 32.42,-119.57l0.07 -0.12 -0.07 -0.04c23.08,-39.98 54.85,-70.67 87.54,-87.94 38.45,-20.33 79.16,-23.15 112.97,-3.61l-0.04 0.06 147.17 84.97c119.95,69.25 1180.2,703.61 1189.79,686.93 33.84,19.53 51.77,56.22 53.39,99.73 1.38,36.81 -9.32,79.58 -32.42,119.57l-0.07 0.12 0.07 0.04c-23.08,39.97 -54.85,70.67 -87.54,87.94 -38.41,20.29 -79.05,23.1 -112.81,3.61l-0.16 0 -1337.08 -771.96 0.04 -0.06zm27.24 -102.51c0.6,15.97 4.98,28.18 12.99,32.79l0.16 0 1337.06 771.96 -0.04 0.07c8.08,4.57 20.87,2.23 35.03,-5.25 19.93,-10.54 39.96,-30.38 55.33,-57l2.66 -4.59c13.53,-25.11 19.82,-50.55 19.03,-71.9 -0.6,-15.97 -4.98,-28.18 -12.99,-32.79l-30.32 -17.5 -1159.47 -669.43 -147.29 -85.03 -0.16 0c-8.02,-4.63 -20.81,-2.31 -34.99,5.18 -19.93,10.54 -39.96,30.38 -55.33,57.01l-2.72 4.7c-13.49,25.06 -19.76,50.47 -18.97,71.77z"/>
   <path class="fil3" d="M740.02 2960.39c0.1,-0.17 50.66,-21.14 65.61,-47.03 19.22,-33.3 68.75,-40.71 110.6,-16.55 2.62,1.51 9.34,6.53 9.84,5.66l1327.23 766.28 0 0.01c41.86,24.17 60.19,70.75 40.95,104.06 -19.22,33.32 5.36,90.69 -36.5,66.52l-1517.74 -878.95z"/>
   <path class="fil1" d="M723.28 2923.76l1.16 -0.54c5.08,-2.27 38.97,-17.36 46.3,-30.06l0.07 0.04c16.16,-27.93 43.95,-44.84 75.79,-49.6 20.03,-3 41.9,-1.01 63.26,6.3l1.41 -2.42 1407.72 812.74 -6.41 6.41c9.38,11.17 16.69,23.41 21.67,36.06 11.76,29.88 10.99,62.32 -5.12,90.19l0 0.16c-2.62,4.54 -3.19,15.82 -3.67,25.33 -0.78,15.46 -1.47,28.85 -9.26,42.33l0 0.16c-15.98,27.66 -38.88,36.36 -78.66,13.39l-1585.11 -917.97 70.82 -32.5zm117.24 9.81c-5.42,9.38 -13.28,17.99 -22.06,25.65l1429.05 827.58c1.88,-11.15 5.26,-22.76 11.86,-34.19l0.07 0.05c3.06,-5.42 2.72,-12.9 -0.33,-20.61 -4.24,-10.76 -13.19,-21.09 -25.86,-28.4l-1321.78 -763.14c-2.51,-1.11 -5.06,-2.41 -7.64,-3.89l-0.16 0c-1.8,-1.05 -4.25,-2.67 -6.5,-4.18l-0.07 0.11c-1.07,-0.72 -0.24,-0.34 0.05,-0.23l0.02 -0.04 -1 -0.6c-12.73,-7.35 -26.29,-9.95 -37.88,-8.22 -8.14,1.22 -14.7,4.63 -17.77,9.94l0 0.16z"/>
   <path class="fil4" d="M629.69 3216.17c-46.3,-26.73 -52.66,-102.41 -14.2,-169.02 38.46,-66.61 107.19,-98.95 153.48,-72.21 123.11,71.07 1479.25,854 1479.24,854.03 46.3,26.74 52.66,102.41 14.2,169.03 -38.46,66.61 -107.19,98.94 -153.48,72.21 -0.01,0.02 -1356.14,-782.97 -1479.24,-854.04z"/>
   <path class="fil1" d="M609.52 3251c-35.38,-20.48 -55.32,-57.59 -58.97,-101.06 -3.2,-38.16 6.57,-82.14 30.05,-122.84l0 -0.16c23.39,-40.5 56.69,-70.93 91.64,-87.37 39.47,-18.56 81.52,-19.88 116.77,0.48l186.7 107.78c393.58,227.22 1246.41,719.53 1292.52,746.29l0.02 -0.05c35.45,20.47 55.44,57.63 59.09,101.13 3.2,38.26 -6.55,82.29 -30.06,122.99 -23.41,40.58 -56.67,70.99 -91.47,87.38l-0.16 0c-11.1,5.23 -50.29,26.69 -80.26,9.64l-1328.18 -755.76 -187.72 -108.39 0.04 -0.06zm21.55 -107.69c1.49,17.65 7.82,31.72 18.67,37.97l0.16 0 187.71 108.39 1281.96 740.12 9.57 5.52c10.96,6.33 26.32,4.87 42.28,-2.61l-0.02 -0.05c20.73,-9.77 41.09,-28.82 56.11,-54.87 14.96,-25.91 21.26,-53.04 19.33,-75.95 -1.49,-17.65 -7.83,-31.71 -18.69,-37.97l-2.05 -1.27c-1.43,-0.94 -887.04,-512.07 -1290.49,-744.99l-186.68 -107.79c-11.04,-6.36 -26.51,-4.87 -42.59,2.69 -20.59,9.68 -40.89,28.74 -55.95,54.85l-0.07 -0.04c-14.91,25.89 -21.17,53.03 -19.25,75.99z"/>
   <polygon class="fil5" points="2493.46,3263.95 2283.17,3685.99 869.21,2869.64 1129.56,2476.51 "/>
   <path class="fil1" d="M2529.61 3281.94l-229.38 460.35c-496.08,-286.4 -992.19,-572.79 -1488.26,-859.25l304.88 -460.34c476.54,275.12 953.06,550.3 1429.63,825.39l-16.87 33.85zm-263.49 347.74l174.32 -349.88 -1298.14 -749.47 -215.83 325.89 1339.66 773.46z"/>
   <path class="fil6" d="M2106.16 864.31c-41.86,-24.17 -106.97,10.26 -145.42,76.87 -38.46,66.61 -35.72,140.21 6.14,164.38 111.25,64.23 1337.06,771.96 1337.08,771.95 41.84,24.17 106.95,-10.24 145.41,-76.87 38.46,-66.61 35.72,-140.2 -6.14,-164.37 0,0 -1225.82,-707.73 -1337.06,-771.96z"/>
   <path class="fil1" d="M2086.11 899.2c-8.08,-4.65 -20.93,-2.34 -35.16,5.19 -20,10.57 -40.04,30.37 -55.33,56.84l-0.22 0.39c-15.21,26.48 -22.3,53.67 -21.46,76.24 0.6,15.98 4.98,28.18 12.99,32.81l1337.08 771.95c8.06,4.67 20.92,2.34 35.14,-5.18 20.01,-10.57 40.04,-30.37 55.33,-56.84l0.35 -0.61c15.12,-26.42 22.16,-53.53 21.33,-76.04 -0.6,-15.97 -4.97,-28.18 -12.99,-32.79l-1337.06 -771.96zm-72.72 -66.17c38.4,-20.29 79.05,-23.1 112.81,-3.61l1337.08 771.96c33.84,19.54 51.77,56.23 53.39,99.73 1.38,36.8 -9.32,79.58 -32.4,119.57l-3.02 5.21 -0.22 0.23c-22.84,37.47 -53.18,66.21 -84.31,82.65 -38.4,20.31 -79.05,23.11 -112.81,3.61l-1337.08 -771.95c-33.84,-19.54 -51.77,-56.23 -53.39,-99.73 -1.38,-36.81 9.33,-79.59 32.42,-119.59l3.01 -5.21 0.21 -0.21c22.84,-37.48 53.2,-66.22 84.32,-82.68z"/>
   <path class="fil7" d="M2307.95 273.17c-0.1,0.17 7.03,54.44 -7.92,80.34 -19.23,33.3 -0.9,79.9 40.95,104.06 111.27,64.25 1337.08,771.96 1337.08,771.96 41.84,24.17 91.36,16.75 110.6,-16.55 19.23,-33.3 81.21,-40.7 39.36,-64.87l-1520.07 -874.93z"/>
   <path class="fil1" d="M2267.93 277.7l-7.33 -78.21 1587.47 913.72 0.16 0c39.65,22.9 43.54,47.05 27.58,74.7l0 0.16c-7.72,13.36 -18.95,20.64 -31.94,29.03 -8.06,5.21 -17.63,11.41 -20.32,16.08l-0.07 -0.04c-16.16,27.92 -43.95,44.84 -75.79,49.59 -28.42,4.26 -60.57,-1.51 -89.67,-18.32l-1337.08 -771.95 -0.16 0c-29.04,-16.77 -50.13,-41.84 -60.75,-68.81 -11.76,-29.88 -10.99,-62.32 5.1,-90.19l0 -0.16c7.27,-12.58 3.39,-49.6 2.8,-55.11l0 -0.49zm78.24 63.9c-2.25,11.48 -5.81,22.66 -11.26,32.11l-0.07 -0.05c-3.06,5.42 -2.72,12.9 0.33,20.61 4.2,10.7 13.22,21.01 26.02,28.41l-0.04 0.06 1336.96 771.89c12.73,7.36 26.29,9.95 37.88,8.22 8.14,-1.22 14.7,-4.63 17.77,-9.94l0 -0.16c6.6,-11.43 14.96,-20.15 23.69,-27.32l-1431.29 -823.83z"/>
   <path class="fil8" d="M2474.31 49.73c-46.3,-26.73 -115.02,5.6 -153.48,72.22 -38.47,66.61 -32.11,142.28 14.19,169.02 123.1,71.07 1479.21,854.06 1479.24,854.03 46.3,26.74 115.02,-5.6 153.48,-72.21 38.46,-66.61 32.1,-142.29 -14.2,-169.02 0.01,-0.02 -1356.14,-782.97 -1479.22,-854.04z"/>
   <path class="fil1" d="M2454.26 84.61c-11.04,-6.36 -26.51,-4.87 -42.59,2.68 -20.6,9.7 -40.88,28.75 -55.96,54.85l-0.06 -0.04c-14.91,25.89 -21.18,53.03 -19.25,75.99 1.47,17.65 7.83,31.72 18.67,37.98l0.16 0 84.77 48.95c325.93,188.18 1389.69,802.67 1390.51,803.04l1 0.44 2.79 1.61c11.05,6.37 26.52,4.88 42.59,-2.68 20.68,-9.72 40.97,-28.74 55.96,-54.7l0 -0.16c14.95,-25.9 21.23,-53.03 19.32,-75.94 -1.47,-17.59 -7.88,-31.66 -18.84,-37.98l-0.46 -0.32c-2.72,-1.62 -1125.39,-649.79 -1418.17,-818.82l-60.43 -34.9zm-76.68 -70.24c39.47,-18.58 81.52,-19.88 116.77,0.46l1479.37 854.06c35.36,20.38 55.3,57.53 58.96,101.11 3.2,38.25 -6.55,82.29 -30.05,122.99l-0.07 -0.04c-23.46,40.59 -56.74,71.02 -91.57,87.4 -39.47,18.58 -81.52,19.88 -116.77,-0.48l0.05 -0.09c-68.4,-39.33 -1078.62,-622.52 -1394.67,-805l-84.77 -48.95 0.05 -0.07c-35.38,-20.48 -55.33,-57.59 -58.98,-101.06 -3.2,-38.16 6.57,-82.14 30.05,-122.83l0 -0.16c23.39,-40.5 56.71,-70.93 91.64,-87.37z"/>
   <polygon class="fil9" points="3447.56,1639.91 3707.92,1246.79 2293.95,430.44 2083.68,852.47 "/>
   <path class="fil1" d="M3434.83 1586.11l215.83 -325.91 -1339.65 -773.46 -174.33 349.88 1298.14 749.49zm306.71 -317.06l-281.25 424.69 -1429.63 -825.4 246.24 -494.21c496.08,286.43 992.2,572.79 1488.26,859.25l-23.62 35.67z"/>
   <path class="fil10" d="M3023.4 2508.57c-34.35,59.51 -65.49,117.84 -92.87,173.41l202.58 116.97c34.43,-51.5 69.39,-107.64 103.74,-167.14 34.21,-59.25 65.22,-117.35 92.52,-172.69l-202.67 -117.02c-34.28,51.32 -69.09,107.22 -103.3,166.47z"/>
   <path class="fil1" d="M3058.23 2528.74c-16.59,28.72 -32.55,57.46 -47.82,85.95 -9.1,16.99 -18.05,34.16 -26.85,51.43l136.79 78.97c10.39,-16.01 20.73,-32.31 31,-48.85l0 -0.15c18.05,-29.09 35,-57.3 50.6,-84.36l0 -0.16c17.32,-29.99 33.24,-58.56 47.69,-85.54 9.04,-16.87 17.94,-33.93 26.7,-51.1l-136.86 -79.01c-10.32,15.9 -20.59,32.09 -30.77,48.51 -16.27,26.21 -33.12,54.37 -50.42,84.33l-0.06 -0.04zm-118.86 48.07c15.4,-28.75 31.81,-58.24 49.14,-88.28l0 -0.16c16.52,-28.61 33.8,-57.44 51.67,-86.23 17.92,-28.87 35.64,-56.41 53.05,-82.46l20.9 -31.29 268.06 154.76 -16.68 33.8c-13.52,27.42 -28.49,56.47 -44.85,87 -16.1,30.06 -32.45,59.52 -48.93,88.06l-0.07 -0.04c-18.31,31.72 -35.61,60.65 -51.81,86.75l-0.06 -0.04c-17.98,28.96 -35.78,56.57 -53.22,82.68l-20.92 31.29 -267.95 -154.69 16.66 -33.82c13.57,-27.52 28.58,-56.69 45,-87.33z"/>
   <path class="fil11" d="M3329.37 2459.11c51.32,-46.18 112.33,-45.38 144.18,-26.99 31.85,18.39 53.36,64.55 56.53,122.51 -40.55,107.82 -120.66,255.22 -193.98,344.53 -41.27,55.37 -109.6,43.29 -141.44,24.9 -31.85,-18.38 -72.92,-59.41 -61.55,-125.12 27.51,-41.98 173.31,-294.37 196.26,-339.83z"/>
   <path class="fil1" d="M3302.37 2429.11c29.15,-26.23 61.19,-40.49 91.41,-46.14 38.48,-7.2 74.86,-0.15 99.82,14.26l0.16 0c23.3,13.46 42.27,35.89 55.5,64.55 11.78,25.52 19.21,56.56 21.09,90.64l0.46 8.47 -3 7.95c-21.7,57.7 -54.12,125.96 -90.66,190.85 -33.94,60.27 -71.91,118.43 -108.76,163.59l0.06 0.04c-24.44,32.79 -55.86,48.74 -87.4,54.31 -40.65,7.15 -81.67,-4.36 -106.44,-18.67 -23.78,-13.72 -51.59,-37.3 -68.36,-71.4l0 -0.16c-12.89,-26.21 -19.37,-57.98 -12.92,-95.25l1.45 -8.36 4.56 -6.96c13.72,-20.93 56.77,-94.04 99.1,-167.34 42.34,-73.32 83.89,-146.64 94.96,-168.54l3.46 -6.86 5.53 -4.98zm106.25 33.11c-15.19,2.84 -31.5,9.85 -47.13,22.51 -15.53,29.33 -54.2,97.5 -93.29,165.17 -39.09,67.68 -78.68,135.07 -96.3,163.27 -1.41,15.39 1.44,28.22 6.58,38.74l0.06 -0.04c8.62,17.54 23.41,29.94 36.17,37.3 11.99,6.93 32.12,12.45 52.44,8.88 13.05,-2.29 26.15,-9.05 36.58,-23.04l1.27 -1.43c33.65,-40.99 69.29,-95.72 101.74,-153.37 33.05,-58.7 62.32,-119.65 82.48,-171.61 -1.88,-20.37 -6.47,-38.41 -13.22,-53.05 -6.3,-13.63 -14.07,-23.58 -22.67,-28.55l0.05 -0.06c-10,-5.73 -26.09,-8.22 -44.77,-4.73z"/>
   <path class="fil12" d="M3450.16 2738.1c-34.28,59.37 -76.76,108.71 -114.06,161.07l1685.69 1103.81 1442.7 791.91c84.2,-22.76 184.98,-130.5 219.26,-189.87 34.28,-59.37 92.19,-231.3 70.13,-315.15l-1464.79 -866.04 -1759.01 -869.19c-53.11,116.7 -45.63,124.09 -79.92,183.47z"/>
   <path class="fil1" d="M3484.99 2758.27c-24.98,43.26 -52.48,79.52 -79.55,115.21l-11.55 15.26 1648.99 1079.79 1425.6 782.52c26.78,-10.66 55.83,-30.84 83.05,-54.42 43.14,-37.36 80.02,-81.69 97.33,-111.68 18.11,-31.37 43.61,-97.84 58.39,-164.28 8.7,-39.09 13.52,-77.11 10.37,-105.4l-1448.1 -856.17 -1719.55 -849.69c-13.49,31.22 -21.09,51.31 -27.25,67.57 -10.82,28.59 -17.68,46.69 -37.67,81.31l-0.06 -0.04zm-143.95 66.58c26.17,-34.51 52.73,-69.56 74.23,-106.8l0 -0.16c16.68,-28.88 22.61,-44.56 31.99,-69.33 9.22,-24.36 21.39,-56.52 46.03,-110.67l17.25 -37.88 1796.38 887.66 2.68 1.41 1479.04 874.46 4.23 16.04c11.18,42.53 5.83,100.78 -7,158.46 -16.51,74.23 -45.99,150.2 -67.23,187.01 -21.15,36.64 -64.65,89.44 -114.39,132.51 -40.43,35.02 -85.99,64.59 -129.34,76.31l-15.57 4.2 -1456.98 -799.75 -2.68 -1.58 -1720.75 -1126.77 24.34 -34.17c13.38,-18.8 25.53,-34.82 37.76,-50.96z"/>
   <path class="fil13" d="M6464.35 4794.81l289.4 146.15c226.48,-79.64 314.14,-229.92 274.49,-475.31l-274.35 -175.79c47.81,94.12 -182.6,423.97 -289.53,504.95z"/>
   <path class="fil1" d="M6534.84 4785.25l221.51 111.88c95.24,-36.09 161.39,-85.95 199.55,-151.87 38.29,-66.13 49.66,-150.53 35.2,-255.48l-196.51 -125.93c-10.54,49.21 -36.2,107.1 -69.65,165.45 -54.16,94.46 -129.44,194.08 -190.09,255.96zm200.75 191.71l-347.13 -175.32 51.56 -39.04c56.3,-42.64 150.37,-161.03 214.81,-273.4 46.24,-80.64 76.93,-153.88 63.05,-181.19l-67.12 -132.12 414.33 265.5 2.91 17.96c21.35,132.11 7.77,239.78 -42.34,326.33 -50.29,86.88 -135.98,150.2 -258.66,193.33l-16.13 5.68 -15.29 -7.72z"/>
   <path class="fil14" d="M2610.27 5585.79c-132.52,132.86 -656.15,232.08 -1281.97,232.08 -620.86,0 -1141.09,-97.65 -1278.73,-228.92l0 -405.66c144.89,110.46 658.22,249.75 1278.73,228.9 131.8,-4.43 1047.42,-19.78 1285.33,-248.16l-3.36 421.75z"/>
   <path class="fil15" d="M2617.42 5592.89c-68.39,68.57 -236.96,128.05 -468.13,169.9 -225.35,40.8 -510.74,65.18 -821,65.18 -307.66,0 -590.87,-23.99 -815.33,-64.16 -230.37,-41.23 -399.39,-99.88 -470.33,-167.55l-3.17 -3.01 0 -430.34 16.23 12.36c79.01,60.25 270.13,129.37 529.72,175.83 210.6,37.7 465.89,60.32 742.58,51.03l24.77 -0.76c194.08,-5.65 1030.41,-30.08 1253.9,-244.62l17.24 -16.55 -3.58 449.79 -2.89 2.89zm-471.67 150.09c223.91,-40.53 387.18,-97.03 454.5,-161.47l3.16 -395.1c-251.16,205.91 -1059.13,229.53 -1250.1,235.09l-24.69 0.76c-278.15,9.34 -534.89,-13.41 -746.76,-51.33 -246.69,-44.17 -433.08,-109.13 -522.18,-168.14l0 381.81c69.96,63.72 233.72,119.46 456.83,159.41 223.08,39.93 505.02,63.77 811.78,63.77 309.34,0 593.48,-24.24 817.46,-64.79z"/>
   <path class="fil16" d="M2414.09 4945.07l0 0.02m6.97 17.91c11.18,20.44 33.44,52.82 54.07,88.99 42.2,73.94 86.36,39.27 138.5,112.05 -154.19,168.29 -681.4,248.16 -1298.38,248.16 -616.99,0 -1129.45,-97.65 -1265.68,-228.9 17.12,-87.87 64.45,-98.54 135.72,-129.6l37.21 -85.98c0,141.34 497.52,265.56 1099.74,265.56 602.22,0 1081.2,-132.51 1098.8,-270.27zm-6.97 -17.91l0 -0.02"/>
   <path class="fil15" d="M2424.2 4945.07l-1.45 0.02 7.15 13.1c5.07,9.28 12.75,21.48 21.54,35.45 10,15.9 21.44,34.08 32.45,53.38 19.94,34.94 40.55,43.66 62.41,52.89 23.61,9.99 48.51,20.51 75.55,58.24l4.75 6.63 -5.53 6.04c-75.56,82.46 -237.31,143.85 -453.74,185.22 -233.2,44.57 -530.55,66.26 -852.07,66.26 -305.44,0 -585.53,-23.94 -807.3,-64.04 -228.1,-41.26 -395.06,-99.95 -465.37,-167.7l-3.96 -3.81 1.05 -5.35c16.38,-84.11 58.05,-101.64 120.48,-127.93l17.49 -7.43 54.98 -126.97 0 48.65c0,65.94 123.18,129.37 320.56,177.04 198.5,47.92 470.82,78.41 769.07,78.41 292.49,0 555.68,-31.29 750.65,-79.25 202.08,-49.7 329.7,-115.96 338.16,-182.18l2.13 -16.64 -9.21 0 9.22 -0.02 1.8 -14.13 7.72 14.13 1.46 0zm10.2 59.3l-10.4 -16.62c-31.33,66.56 -157.9,129.39 -346.26,175.73 -196.54,48.34 -461.44,79.89 -755.48,79.89 -299.68,0 -573.7,-30.73 -773.81,-79.05 -178.05,-43 -298.5,-101.01 -328.64,-165.05l-26.86 62.08 -3.63 1.57c-6.76,2.95 -14.18,6.08 -21.34,9.09 -55.06,23.18 -92.26,38.85 -107.37,107.78 69.78,63.42 231.01,118.88 450.9,158.65 220.4,39.86 499.23,63.65 803.75,63.65 320.42,0 616.47,-21.56 848.28,-65.87 206.9,-39.54 362.12,-96.94 436.93,-172.95 -21.93,-27.87 -42.45,-36.56 -61.99,-44.82 -25.09,-10.61 -48.79,-20.64 -72.1,-61.5 -10.81,-18.93 -22.11,-36.89 -31.98,-52.59z"/>
   <path class="fil17" d="M1322.25 4721.42c607.8,0 1100.51,114.58 1100.51,255.92 0,141.36 -492.71,255.94 -1100.51,255.94 -607.79,0 -1100.5,-114.58 -1100.5,-255.94 0,-141.34 492.71,-255.92 1100.5,-255.92z"/>
   <path class="fil15" d="M1322.25 4711.31c304.61,0 580.56,28.76 780.44,75.25 203.99,47.44 330.17,114.79 330.17,190.79 0,76.01 -126.18,143.37 -330.18,190.8 -199.88,46.48 -475.81,75.23 -780.43,75.23 -304.6,0 -580.54,-28.75 -780.43,-75.23 -203.99,-47.44 -330.18,-114.79 -330.18,-190.8 0,-76 126.19,-143.35 330.18,-190.79 199.88,-46.48 475.83,-75.25 780.43,-75.25zm775.93 94.89c-198.41,-46.14 -472.74,-74.69 -775.93,-74.69 -303.19,0 -577.51,28.54 -775.92,74.69 -194.3,45.18 -314.48,105.81 -314.48,171.14 0,65.34 120.18,125.97 314.48,171.15 198.41,46.13 472.74,74.67 775.92,74.67 303.19,0 577.51,-28.54 775.93,-74.67 194.3,-45.18 314.48,-105.81 314.48,-171.15 0,-65.33 -120.18,-125.96 -314.48,-171.14z"/>
   <path class="fil18 str0" d="M2617.81 5606.24c-203.68,204.19 -1019.28,240.94 -1303.08,240.94 -311.31,0 -1084.42,-32.26 -1308.58,-246.09l10.27 -468.43c24.86,-61.81 76.88,-78.53 133.16,-102.36 32.39,-67.85 28.55,-95.27 88.45,-150.09 58.46,-44.89 157.41,-83.55 285.84,-113.41 201.33,-46.81 478.85,-75.78 784.82,-75.78 305.98,0 583.5,28.97 784.81,75.78 228.11,53.05 286.56,81.87 393.94,269.96 16.63,29.14 34.25,36.61 52.92,44.49 47.86,20.23 75.96,40.48 92.39,90.56l-6.49 425.98 -8.44 8.47zm-537.6 -477.49c67.33,-15.65 287.95,-69.76 298.85,-147.4 0.17,-1.52 0.28,-3.03 0.28,-4.54 0,-54.91 -114.32,-108.96 -299.13,-151.94 -196.98,-45.82 -469.72,-74.15 -771.52,-74.15 -301.81,0 -574.56,28.33 -771.53,74.15 -1065.76,247.83 819.58,471.23 1543.06,303.88zm13.29 58.06c-262.87,61.13 -931.78,77.35 -1418.22,3.67 -200.61,-30.39 -379.99,-63.83 -471.57,-135.07l-9.82 20.55c-50.43,22 -105.59,35 -124.07,94.15 254.91,165.49 939.14,212.3 1250.62,211.68 231.17,-2 1019.26,-27.87 1238.93,-220.11 -14.61,-14 -28.63,-19.93 -42.11,-25.63 -28.27,-11.95 -54.96,-23.24 -81.59,-69.9 -6.64,-11.63 -13.56,-20.31 -20.1,-27.55 -64.45,82.32 -242.34,129.67 -322.07,148.21zm-773.06 254.67l-5.71 0.04c-327.58,0 -974.11,-30.13 -1248.88,-199.22l0 332.85c212.43,177.29 973.94,212.34 1248.88,212.34 270.59,0 1047.42,-35.44 1252.44,-215.35l4.95 -324.44c-236.8,158.15 -1013.25,193.16 -1251.67,193.78z"/>
  </g>
 </g>
</svg>