<?xml version="1.0" encoding="UTF-8"?>
<!DOCTYPE svg PUBLIC "-//W3C//DTD SVG 1.1//EN" "http://www.w3.org/Graphics/SVG/1.1/DTD/svg11.dtd">
<!-- Creator: CorelDRAW (Versão OEM) -->
<svg xmlns="http://www.w3.org/2000/svg" xml:space="preserve" version="1.1" style="shape-rendering:geometricPrecision; text-rendering:geometricPrecision; image-rendering:optimizeQuality; fill-rule:evenodd; clip-rule:evenodd" viewBox="88314.91 88529.16 42338.01 101628.33" xmlns:xlink="http://www.w3.org/1999/xlink" xmlns:xodm="http://www.corel.com/coreldraw/odm/2003">
 <defs>
  <style type="text/css">
   <![CDATA[
    .str0 {stroke:#1E2A50;stroke-width:200;stroke-miterlimit:22.9256}
    .fil0 {fill:#1E2A50}
    .fil2 {fill:#1E2A50;fill-rule:nonzero}
    .fil3 {fill:url(#id0)}
    .fil1 {fill:url(#id1)}
   ]]>
  </style>
  <linearGradient id="id0" gradientUnits="userSpaceOnUse" x1="113902" y1="100435.8" x2="123143.7" y2="104360.5">
   <stop offset="0" style="stop-opacity:1; stop-color:#1E2A50"/>
   <stop offset="1" style="stop-opacity:1; stop-color:white"/>
  </linearGradient>
  <linearGradient id="id1" gradientUnits="userSpaceOnUse" x1="93356.9" y1="142554.9" x2="128233.9" y2="156467.6">
   <stop offset="0" style="stop-opacity:1; stop-color:#BDBFC1"/>
   <stop offset="1" style="stop-opacity:1; stop-color:white"/>
  </linearGradient>
 </defs>
 <g id="Camada_x0020_1">
  <metadata id="CorelCorpID_0Corel-Layer"/>
  <path class="fil0 str0" d="M109222 128134.4c-4530.3,2186.2 -19810.9,3128.2 -19810.9,13623.5 0,10495.3 105,30792.6 -282,47585.4 4593,-5307.3 39863.6,-42664.2 40665.5,-46323.2 801.9,-3659 -9528.6,-8576.9 -14497.3,-13472.8l0.6 -45.4c0,-1787.1 -1426.8,-3235.9 -3186.9,-3235.9 -1278.7,0 -2381.4,764.7 -2889,1868.4z"/>
  <path class="fil1 str0" d="M90823.4 185063.6c35.1,-38.5 70.3,-77 105.5,-115.4 1682.6,-1839.8 3372.5,-3673.1 5061.5,-5507.1 4470.6,-4854.9 8940.1,-9710.7 13376.9,-14596.5 4313.7,-4750.3 8625.2,-9528.5 12795.4,-14405.1 1465.5,-1713.8 2932.3,-3451 4310.2,-5236.2 401.5,-520.2 1517.1,-1936 1758.2,-2557.1 51.9,-424.1 -630.1,-1254.8 -866.1,-1520.6 -1007.1,-1135.4 -2392.7,-2185.2 -3611,-3087.6 -1624.7,-1203.5 -3295,-2345.6 -4928.8,-3537.1 -1605.4,-1170.8 -3238.4,-2413.8 -4655,-3809.7l-487.6 -480.4 9.5 -719.4c-0.1,-869.7 -688.4,-1619.5 -1581.1,-1619.5 -622.5,0 -1172.1,372.8 -1430,933.5l-241.2 524.4 -519.8 250.8c-1556.1,751 -3608.2,1225.5 -5285.4,1679.1 -2160.3,584.3 -4331.4,1194.6 -6401.2,2053.7 -3790.8,1573.5 -7216.4,3937.1 -7216.4,8444.5 0,14435.4 68.9,28872 -193.6,43305.7z"/>
  <path class="fil2 str0" d="M113341 101902.1c2360,-6853 3295.6,-1329.5 2002.5,2615.5 -410.2,1251.4 -4490.6,12356.1 -4718.7,13227.6 -18.2,397.5 2474.2,11885.7 2458.4,12104.7 -16.3,225 -3240.8,9019 -3621.9,9903 -762.7,1768.9 -1795.8,4844.1 -2603.9,6893.2 -1086.3,2754.5 -2280.9,5466.1 -3689.3,8072.5l-114.4 -41.7c1177.7,-5740.5 2730.3,-9446.4 4574.6,-14814.5l1089.2 -3238.3c281.3,-766.1 2582.4,-6746.1 2533.5,-6987.2l-2463.2 -11909.9c-253.8,-1223.6 683.1,-3417.3 921.8,-4232 1136.9,-3881.7 2268.9,-7782.9 3631.4,-11592.9z"/>
  <path class="fil3 str0" d="M107676 112779.3c-271.7,1067.2 -289.7,1998.5 895.4,2464.4l2843.6 1118.2c1185.1,465.9 2439.4,336.6 2813.1,-904l0 -0.1c401.3,-223.8 726.5,-590.5 894.6,-1063.4l7394.1 -20795c375.8,-1056.9 -169.3,-2259.7 -1211.3,-2672.9l-3637 -1442.2c-1042,-413.2 -2202,113.4 -2577.8,1170.3l-7394 20795c-156.6,440.5 -153.1,906.2 -20.6,1329.5l-0.1 0.2z"/>
 </g>
</svg>