<?xml version="1.0" encoding="UTF-8"?>
<svg id="Camada_1" data-name="Camada 1" xmlns="http://www.w3.org/2000/svg" viewBox="0 0 269.93 664.42">
  <defs>
    <style>
      .cls-1 {
        stroke-width: 4px;
      }

      .cls-1, .cls-2, .cls-3, .cls-4 {
        fill-rule: evenodd;
        stroke-miterlimit: 22.93;
      }

      .cls-1, .cls-3 {
        fill: #00a8e8;
      }

      .cls-1, .cls-3, .cls-4 {
        stroke: #231f20;
      }

      .cls-2 {
        stroke: #00a8e8;
        stroke-width: 6px;
      }

      .cls-2, .cls-4 {
        fill: #172b54;
      }

      .cls-3, .cls-4 {
        stroke-width: .57px;
      }
    </style>
  </defs>
  <path class="cls-4" d="M133.24,258.66c-29.97,14.47-131.08,20.7-131.08,90.14s.69,203.74-1.87,314.84c30.39-35.11,263.75-282.28,269.06-306.49,5.31-24.21-63.04-56.75-95.92-89.14v-.3c0-11.82-9.44-21.41-21.08-21.41-8.46,0-15.76,5.06-19.11,12.36Z"/>
  <path class="cls-3" d="M11.51,635.32c.23-.25.47-.51.7-.76,11.13-12.17,22.31-24.3,33.49-36.44,29.58-32.12,59.15-64.25,88.51-96.58,28.54-31.43,57.07-63.04,84.66-95.31,9.7-11.34,19.4-22.83,28.52-34.64,2.66-3.44,10.04-12.81,11.63-16.92.34-2.81-4.17-8.3-5.73-10.06-6.66-7.51-15.83-14.46-23.89-20.43-10.75-7.96-21.8-15.52-32.61-23.4-10.62-7.75-21.43-15.97-30.8-25.21l-3.23-3.18.06-4.76c0-5.75-4.55-10.72-10.46-10.72-4.12,0-7.75,2.47-9.46,6.18l-1.6,3.47-3.44,1.66c-10.3,4.97-23.87,8.11-34.97,11.11-14.29,3.87-28.66,7.9-42.35,13.59-25.08,10.41-47.75,26.05-47.75,55.87,0,95.51.46,191.03-1.28,286.53Z"/>
  <path class="cls-2" d="M164.78,68.03c15.61-45.34,21.8-8.8,13.25,17.3-2.71,8.28-29.71,81.75-31.22,87.52-.12,2.63,16.37,78.64,16.27,80.09-.11,1.49-21.44,59.67-23.96,65.52-5.05,11.7-11.88,32.05-17.23,45.61-7.19,18.23-15.09,36.17-24.41,53.41l-.76-.28c7.79-37.98,18.06-62.5,30.27-98.02l7.21-21.43c1.86-5.07,17.09-44.63,16.76-46.23l-16.3-78.8c-1.68-8.1,4.52-22.61,6.1-28,7.52-25.68,15.01-51.49,24.03-76.7Z"/>
  <path class="cls-1" d="M123.01,157.06c-1.8,7.06-1.92,13.22,5.92,16.31l18.81,7.4c7.84,3.08,16.14,2.23,18.61-5.98h0c2.66-1.48,4.81-3.91,5.92-7.04L221.21,30.16c2.49-6.99-1.12-14.95-8.01-17.68l-24.06-9.54c-6.89-2.73-14.57.75-17.06,7.74l-48.92,137.59c-1.04,2.91-1.01,6-.14,8.8h0Z"/>
</svg>