<?xml version="1.0" encoding="UTF-8"?>
<svg id="Camada_1" data-name="Camada 1" xmlns="http://www.w3.org/2000/svg" viewBox="0 0 255.14 598.2">
  <defs>
    <style>
      .cls-1 {
        stroke-miterlimit: 10;
      }

      .cls-1, .cls-2, .cls-3, .cls-4, .cls-5, .cls-6, .cls-7 {
        stroke: #172b54;
      }

      .cls-1, .cls-2, .cls-3, .cls-4, .cls-7 {
        fill-rule: evenodd;
      }

      .cls-1, .cls-3, .cls-4, .cls-6 {
        fill: #172b54;
      }

      .cls-2 {
        stroke-width: 4px;
      }

      .cls-2, .cls-3, .cls-4, .cls-5, .cls-6, .cls-7 {
        stroke-miterlimit: 22.93;
      }

      .cls-2, .cls-5 {
        fill: #00a8e8;
      }

      .cls-3, .cls-5, .cls-6, .cls-7 {
        stroke-width: .57px;
      }

      .cls-4 {
        stroke-width: 5.67px;
      }

      .cls-7 {
        fill: #05080e;
      }
    </style>
  </defs>
  <path class="cls-4" d="M127.57,595.37c-68.89,0-124.74-11.48-124.74-25.63s55.85-25.63,124.74-25.63,124.74,11.48,124.74,25.63-55.85,25.63-124.74,25.63Z"/>
  <path class="cls-7" d="M120.42,40.49c61.11,0,110.95-8.57,110.95-19.08S181.52,2.33,120.42,2.33,9.47,10.9,9.47,21.41s49.84,19.08,110.95,19.08Z"/>
  <path class="cls-3" d="M129.23,582.77c61.11,0,110.95-8.57,110.95-19.08s-49.84-19.08-110.95-19.08-110.95,8.57-110.95,19.08,49.84,19.08,110.95,19.08Z"/>
  <path class="cls-2" d="M248.48,567.94c-.5,10.48-54.38,19.08-120.57,19.08s-120.49-8.54-120.49-19.08c-1.58-20.02,73.04-42,84.6-91.01,11.89-50.38,12.87-93.32,6.26-145.61-.82-6.49-12.02-8.15-13.02-14.18-1.93-11.55,1.49-10.05-1.61-20.69-3.41-11.68-26.36-28.22-33.62-39.34-30.17-46.16-13.04-109.61-21.14-181.47C24.81,39.43,10.48,27.82,11.31,21.41c.14-.29,52.33,19.98,116.89,19.98s114.75-19.48,116.4-19.98c.83,6.41-13.5,18.01-17.58,54.25-8.1,71.86,9.03,135.31-21.14,181.47-7.26,11.11-30.22,27.66-33.62,39.34-3.1,10.64.31,9.14-1.61,20.69-1.01,6.03-12.2,7.69-13.02,14.18-6.61,52.28-5.62,95.22,6.26,145.61,11.56,49.01,86.18,70.99,84.6,91.01Z"/>
  <g>
    <path class="cls-1" d="M168.07,322.47s1.89.65-8.44,2.59c-8.31,1.56-19.69,2.52-32.17,2.52s-23.86-.96-32.17-2.52c-10.33-1.94-9.38-3.03-9.38-3.03l-1.7-7.7c0,.23,7.06.67,12.76,1.74,7.72,1.45,18.49,2.35,30.48,2.35s22.76-.9,30.48-2.35c5.7-1.07,12.77-1.58,12.77-1.81l-.84,5.62-1.81,2.59Z"/>
    <path class="cls-1" d="M170.41,305.25c-18.57,8.78-66.59,6.37-85.88,1.17l-1.36-8.24c11.44.64,28.25,4.17,44.3,3.73,16.07.35,33.21-2.75,44.52-4.41l-1.57,7.74Z"/>
  </g>
  <path class="cls-1" d="M232.19,55.7c-.14,3.27-10.88,7.16-31.02,10.23-18.49,3.05-43.93,4.94-71.93,4.94s-53.44-1.89-71.93-4.94c-20.6-3.4-30.37-10.14-31.92-13.29l-.95-2.63-2.43-6.69c0,2.01,20.93,10.98,36.77,13.59,17.95,2.96,42.86,4.8,70.46,4.8s52.51-1.83,70.46-4.8c15.84-2.62,36.02-9.73,36.02-11.74l-3.53,10.53Z"/>
  <path class="cls-1" d="M227.82,80.63c.2,1.83-11.54,6.94-30.98,10.36-17.35,3.05-41.26,4.94-67.61,4.94s-50.26-1.89-67.61-4.94c-19.45-3.42-30.62-6.82-31.09-11.44l-.92-7.77c0,2.03,18.83,7.59,33.59,10.18,16.85,2.96,40.19,4.8,66.03,4.8s49.18-1.83,66.03-4.8c14.75-2.6,33.63-8.4,33.63-10.43l-1.07,9.09Z"/>
  <g>
    <path class="cls-3" d="M127.38,215.85c-3.57,8.44-8.76,16.49-10.63,32.47-1.76-3.29-3.54-5.9-5.6-8.16-1,8.08-9.05,20.86-3.14,36.91,3.96,10.76,9.2,19.44,13.7,23.4,1.67,3.87,3.61,6.09,5.68,6.09s3.83-2.03,5.45-5.59c4.63-3.69,10.17-12.66,14.31-23.91,5.91-16.05-2.15-28.83-3.14-36.91-2.21,2.42-4.1,5.24-5.98,8.88-2-16.38-7.77-24.41-10.63-33.19Z"/>
    <rect class="cls-6" x="126.59" y="236.4" width="1.96" height="49.62"/>
  </g>
  <rect class="cls-6" x="84.84" y="237.57" width="1.96" height="49.62" transform="translate(-80.34 41.93) rotate(-18.89)"/>
  <g>
    <path class="cls-3" d="M218.06,226.21c-2.19,10.65-12.85,32.02-18.52,37.33-11.74,10.99-22.26,22.47-27.86,29.6-.88,1.11-.68,4.52-1.57,5.22-2.26,1.76-6.88,1.09-6.64.81,3.61-4.19,11.66-14.54,18.05-26,6.71-12.02,8.99-22.95,11.25-26.34.89,3.16,2.94,6.57,3,10.67,9.12-13.76,15.8-24.7,22.29-31.27Z"/>
    <path class="cls-3" d="M36.71,226.21c2.19,10.65,12.85,32.02,18.52,37.33,11.74,10.99,22.26,22.47,27.86,29.6.88,1.11.68,4.52,1.57,5.22,2.26,1.76,6.88,1.09,6.64.81-3.61-4.19-11.66-14.54-18.05-26-6.71-12.02-8.99-22.95-11.25-26.34-.89,3.16-2.94,6.57-3,10.67-9.12-13.76-15.8-24.7-22.29-31.27Z"/>
  </g>
  <g>
    <path class="cls-3" d="M178.18,219.35c2.64,9.14,7.38,21.83,1.9,36.96,3.05-2.16,3.43-6.66,6.29-7.76-2.72,7.67-3.3,26.02-13.7,35.8-10.41,9.78-14.55,14.85-20.35,16.38-3.23,2.72-7.93,4.93-7.8,2.91.7-11.33-1.73-9.83.87-33.04,1.61-14.45,4.94-25.02,9.44-31.8.89,3.16,5.87,4.54,5.92,8.64,9.12-13.76,10.95-21.51,17.44-28.09Z"/>
    <path class="cls-3" d="M75.01,219.35c-2.64,9.14-7.38,21.83-1.9,36.96-3.05-2.16-3.43-6.66-6.29-7.76,2.72,7.67,3.3,26.02,13.7,35.8,10.41,9.78,14.55,14.85,20.35,16.38,3.23,2.72,7.93,4.93,7.8,2.91-.7-11.33,1.73-9.83-.87-33.04-1.61-14.45-4.94-25.02-9.44-31.8-.89,3.16-5.87,4.54-5.92,8.64-9.12-13.76-10.95-21.51-17.44-28.09Z"/>
  </g>
  <g>
    <path class="cls-3" d="M127.38,215.85c-3.57,8.44-8.76,16.49-10.63,32.47-1.76-3.29-3.54-5.9-5.6-8.16-1,8.08-9.05,20.86-3.14,36.91,3.96,10.76,9.2,19.44,13.7,23.4,1.67,3.87,3.61,6.09,5.68,6.09s3.83-2.03,5.45-5.59c4.63-3.69,10.17-12.66,14.31-23.91,5.91-16.05-2.15-28.83-3.14-36.91-2.21,2.42-4.1,5.24-5.98,8.88-2-16.38-7.77-24.41-10.63-33.19Z"/>
    <rect class="cls-5" x="126.59" y="236.4" width="1.96" height="49.62"/>
  </g>
  <path class="cls-1" d="M153.77,415.88s-.27,1.37-6.5,3.31c-5.01,1.56-11.88,2.52-19.4,2.52s-14.39-.96-19.4-2.52c-6.23-1.94-6.5-2.14-6.5-2.14l-.82-8.24c0,.23,4.89.31,8.33,1.38,4.66,1.45,11.16,2.35,18.39,2.35s13.73-.9,18.39-2.35c3.44-1.07,8.47-1.83,8.47-2.06l-.95,7.74Z"/>
  <path class="cls-1" d="M126.96,438.21c-1.63,0-29.06-1.81-27.07-5.23l.8-7.37c8.34,2.38,54.48,4.65,54.48-.52l.86,7.99c-.67,3.99-23.07,5.13-29.07,5.13Z"/>
  <path class="cls-1" d="M220.83,540.08c-.26,6.13-83.89,9.33-92.88,9.33-11.38,0-87.6-2.01-91.63-10.18l9.37-6.54c0,2.01-4.04.14,11.8,2.76,17.95,2.96,42.86,4.8,70.46,4.8,7.96,0,82.51-2.67,82.51-7.39l10.37,7.23Z"/>
  <path class="cls-4" d="M129.23,41c-61.27,0-117.92-9.05-117.92-19.58S67.96,2.83,129.23,2.83s115.37,8.04,115.37,18.58-54.1,19.58-115.37,19.58Z"/>
</svg>