<?xml version="1.0" encoding="UTF-8"?>
<svg id="Camada_1" data-name="Camada 1" xmlns="http://www.w3.org/2000/svg" viewBox="-7.48 -7.50 389.01 303.25">
  <defs>
    <style>
      .cls-1 {
        fill: #24a8e0;
      }

      .cls-2 {
        fill: #22a7e0;
      }

      .cls-3 {
        fill: #253d90;
      }

      .cls-4 {
        fill: #243d90;
      }

      .cls-5 {
        fill: #233d8f;
      }

      .cls-6 {
        fill: #22a6e0;
      }

      .cls-7 {
        fill: #233e90;
      }

      .cls-8 {
        fill: #25a8e1;
      }

      .cls-9 {
        fill: #24a8e1;
      }

      .cls-10 {
        fill: #22a8e1;
      }

      .cls-11 {
        fill: #243e91;
      }

      .cls-12 {
        fill: #27a9e2;
      }

      .cls-13 {
        fill: #1ea9e1;
      }

      .cls-14 {
        fill: #27aae2;
      }

      .cls-15 {
        fill: #23a8e1;
      }

      .cls-16 {
        fill: #22aae2;
      }

      .cls-17 {
        fill: #28a9e1;
      }

      .cls-18 {
        fill: #1ca6df;
      }

      .cls-19 {
        fill: #23aae2;
      }

      .cls-20 {
        fill: #23a7e0;
      }

      .cls-21 {
        fill: #21a8e1;
      }

      .cls-22 {
        fill: #243e90;
      }

      .cls-23 {
        fill: #28abe3;
      }
    </style>
  </defs>
  <g id="Objeto_generativo" data-name="Objeto generativo">
    <path class="cls-16" d="M200.57,195.44c-10.67.9-15.51-8.41-16.53-18.35l-.03-8.93.34-9.64c.19-5.23-.74-10.19-2.72-15.32l-15.76,68.58c-2.77,12.03-4.12,23.74-3.44,36.26.16,3.02.65,6.13-.46,8.71-2.88,6.7-13.52,8.47-20.99,9h-18.73c-16.04-1.07-31.64-3.88-46.96-8.66-14.09-4.39-36.76-12.9-45.81-24.14-2.97-3.69-3.18-8.41-.91-12.39,3.76-6.59,6.87-13.19,9.56-20.2l-14.93-8.58C4.73,181.15-1.8,160.32.42,139.36c1.63-15.42,5.26-30.14,10.84-44.39,2.67-6.82,6.11-13,10.9-18.53,8.69-10.04,21.27-12.79,34.35-9.91l12.48,2.75,2.96-13.32c-10.42-10.36-9.39-27.53,1.75-37.07,5.81-4.97,13.35-6.79,21.2-5.08,7.13-13.19,24.61-16.83,36.58-7.2,9.4-7.24,21.84-8.68,32.84-3.66,8.47,3.86,14.47,11.09,16.97,19.96,11.11-1.74,19.81,2.31,26.45,11.26,11.64-7.85,26.69-7.28,37.68,1.06,9.12-7.2,21.95-7.11,30.63.35,2.4,2.07,4.23,4.27,5.97,6.98,6.73-1.62,13.63-.44,19.28,3.61,12.56,9.01,14.11,26.77,3.57,37.86l2.43,10.37,9.87-2.44c5.6-1.38,11.18-2.02,16.86-1.31,14.13,1.76,23.2,12.77,28.44,25.39,5.9,14.23,9.62,29.18,11.19,44.81,2.02,20.08-3.63,39.54-20.81,51.23l-15.93,9.83c2.59,6.84,5.75,13.29,9.34,19.71,2.34,4.2,2.2,9.09-.81,12.79-3.85,4.73-8.43,8.04-13.66,11.1-10.85,6.34-22.35,10.85-34.36,14.53-19.9,6.11-40.68,9.1-61.65,8.01-7.38-.39-18.61-1.98-21.74-8.08-1.69-3.28-.94-6.89-.85-10.46.26-10.1-.27-19.97-2.46-29.69l-3.8-16.87-6.35-27.52ZM149.65,82.88c3.74,3.84,8.89,5.52,14.2,4.66l2.25-2.3c-4.18-12.18.99-25.16,12.23-31.33-3.05-1.24-6.19-1.3-9.24-.06-.91.37-2.64.03-2.68-1.23-.19-5.96-4.28-11.03-10.45-11.55-1.43-.12-3.08.56-4.6-.62,3.58-1.95,8-2.03,11.91.05,2.9,1.55,5.58,4.54,6.49,8.31.23.35,1.3.38,1.73.32,4.08-.5,7.77.53,11.22,2.88,4.21-1.14,8.31-1.85,12.78-.76.49-2.29,1.42-4.06,2.37-6.11-2.3-6.49-8.47-10.23-15.23-9.71-1.16.09-2.5.45-3.26-.68,7.63-3.86,16.9-.63,20.57,7.15l3.5-4.44c-4.74-7.67-13.89-11.11-22.79-8.95-1.08.26-3.53.65-3.82-1.12-1.9-11.67-10.86-20.44-22.84-21.9-7.68-.93-15.27,1.42-20.9,6.75-.57.33-.97.91-1.36.78-.5-.18-1.23-.1-1.72-.61-4.53-4.71-11.01-6.89-17.83-5.53-5.54,1.11-11.11,5.33-13.5,11.1-.78,1.88-2.42,1.96-4.16,1.38-5.56-1.88-11.49-.73-16.48,2.69-9.44,6.46-11.11,22.41-1.71,30.92,4.3,3.89,9.65,4.91,15.29,4.87,3.91,3.41,5.14,9.79,4.67,15.05-1.21,13.51-11.35,24.5-7.69,33.12.94,2.21,2.88,3.69,4.75,3.96,5.87.85,9.2-5.32,9.5-10.96l.43-8.22c.54-10.44,1.34-19.99,11.28-25.5,1.68-.93,2.99-.33,4.15,1.13,5.25,6.6,14.28,8.9,21.75,4.95.77-.41,1.68-.92,2.38-.68,3.31,1.11,1.14,6.34,6.8,12.16ZM231.82,101.42c.18-1.31,1.82-2.99,3.35-2.17,7.3,3.93,15.83,2.9,21.82-3.07.84-.83,1.76-2.76,3.24-3.01,5.96,1.77,9.73,6.81,11.44,12.55,3.36,11.31-.09,22.43,5.01,29.16,1.48,1.95,3.65,3.2,6,2.85,2.08-.31,3.99-1.36,5.16-3.43,6.13-10.81-15.44-28.68-4.46-46.64.7-1.14,1.66-1.75,3.16-1.62,5.03.45,9.67-1.23,13.4-4.55,8.67-7.71,8.87-21.57.29-29.44-4.78-4.39-11.36-6.04-17.69-4.16-1.48.44-3.43.88-4.26-.97-2.56-5.71-7.5-9.9-13.04-11.23-6.6-1.58-12.96.21-17.62,4.62-.65.62-1.15,1.16-1.9,1.19-.79.02-1.43-.3-2.09-.89-11.47-10.12-29.07-8.67-38.68,3.24-2.75,3.41-4.28,7.19-4.92,11.45-.15,1.01-1.49,2.21-2.69,1.82-7-2.28-14.38-.98-19.97,3.74-6.99,5.89-9.43,15.54-5.76,23.93.72,1.64.04,2.51-1.17,3.47-5.23,4.17-7.66,11.09-7.06,17.69s3.75,12.19,8.99,16.27c11.02,8.59,16.9,21.24,17.28,35.13l-.51,15.06c-.17,5.1.8,9.85,3.34,14.09,1.98,3.31,6.15,4.77,9.72,2.55,5.96-3.7,4.98-14.82,2.4-21.86l-7.13-19.46c-2.35-6.41-3.16-13.03-2.75-19.8.31-5.17,2.17-9.59,6.15-12.95,1-.84,2.86-2.84,4.38-2.13,3.67,1.96,7.27,3.71,11.5,3.29,7.89-.79,14-6.86,15.07-14.74ZM122.66,237.91c-17.27-1.28-34-5.03-50.15-11.05-8.47-3.16-17.64-7.18-24.11-13.66-1.98-1.98-2.49-4.32-1.37-6.87,3.3-7.5,5.49-15.23,7.31-23.3l11.71-51.99,9.93-44.7c2.24.54,4.15,1.4,6.25,2.42l-3.84,17.61c-1.83,8.38-3.57,16.49-4.44,25.02-.06.62.27,1.07.73,1.08,1.41.02,4.72-13.14,5.83-18.02l2.18-9.63.2-6.69c2.69-12.41,12.32-24.15,6.3-35.07-4.51.14-8.36-1.12-12.18-3.17-.42-.22-.68.95-.79,1.45l-27.15,121.52c-2.31,10.34-5.79,20.16-10.16,29.67,1.79,3.48,4.62,5.81,7.75,7.95,6.5,4.44,13.45,7.69,20.88,10.57,19.68,7.63,40.37,12.1,61.68,12.99,7.42.31,14.33-.21,21.27-1.83,2.3-.53,4.48-1.43,6.25-2.97l.24-2.67c.26-8.88,1.68-17.24,3.69-25.99l12.57-54.72,4.63-19.9-3.74-5c-.86.68-.94,1.59-1.21,2.77l-16.89,73.67c-1.73,7.52-3.28,14.67-3.58,22.31-.11,2.75-.73,4.78-3.48,5.86-3.61,1.42-7.6,2.39-11.7,2.38l-14.62-.05ZM18.43,127.97c2.5-12.52,6.42-28.08,13.8-38.31l4.09-4.29c4.15-4.36,12.28-4.38,18.59-2.87l10.55,2.52,2.31-10.44-7.58-1.8c-4.97-1.18-9.95-2.32-15.05-2.03-8.14.45-15.21,4.06-20.16,10.45s-7.8,12.64-10.37,19.91c-4.17,11.76-6.94,23.78-8.65,36.23-.42,3.08-.39,5.8-.46,8.84-.41,16.57,5.42,31.69,19.68,40.49l14.82,8.54c1.55-4.46,2.79-8.9,3.8-13.63-9.79-.74-18.64-6.25-23.35-14.85-6.49-11.84-4.59-25.82-1.99-38.77ZM158.29,108.45c-.72-5.1-.28-10.35,2.09-15.28-9.37-.73-17.37-6.79-19.88-15.91-9.16,3.15-18.63.52-25.03-6.47-2.25,1.85-4,3.85-4.89,6.5-1.26,3.76-1.96,7.57-1.98,11.55l-.03,8.42c16.37,4.53,32.44,8.51,49.72,11.18ZM43.41,176.32l1.81-.17,13.43-60.47,5.71-25.39-13.39-3.1c-6.06-1.4-11.49.83-14.87,6.01-7.85,12.03-12.41,32.7-14.22,46.98-.75,5.94-.63,11.56.65,17.23,2.28,10.12,10.42,17.64,20.88,18.92ZM285.48,254.61c-14.74,3.99-29.75,6.28-44.9,6.08-4.45-.5-8.6-.52-12.82-2.06-1.35-.62-4.04-1.63-4.41-3.47-.69-7.49-1.65-14.47-3.31-21.88l-10.11-45.08c-1.37,2.21-2.7,3.74-4.24,5.15l10.35,45.91c1.69,7.49,2.15,14.71,2.53,22.28,1.98,2.09,4.79,2.86,7.59,3.48,6.12,1.36,12.16,1.52,18.63,1.39,24.06-.47,53.58-7.67,74.41-18.66,5.9-3.11,14.56-8.06,16.99-13.99-4.5-9.5-7.84-19.25-10.15-29.65l-25.79-116.21c-4.14,2.43-8.32,3.58-13.09,3.65-4,8.09-.02,16.31,3.25,24.4l1.74,4.31c1.62,3.99,2.48,8.01,1.86,12.42,2.01,8.56,3.86,16.9,6.68,25.12.31.9,1.14,1.91,1.79,1.26-.17-5.93-1.2-11.27-2.42-16.9l-5.66-26.07,6.21-2.67,16.1,72.89,5.1,22.05c1.73,7.49,4.14,14.47,7.15,21.53.44,1.04-.34,2.94-1.1,3.86-8.18,9.97-29.62,17.41-42.4,20.86ZM338.2,201.6c-2.52.83-4.48,1.28-7.01,1.28l3.93,13.97,14.32-8.94c4.37-2.72,7.79-6.13,10.83-10.32,4.77-6.56,7.19-14.35,7.99-22.53,1.55-15.88-2.88-35.31-7.99-50.08-2.14-6.19-4.75-11.81-8.35-17.16-5.59-8.3-14.31-12.77-24.46-12.15-4.62.28-8.99,1.59-13.51,2.61l-5.66,1.28,2.33,10.51,11.71-2.95c9.76-2.46,17.15,1.02,22.19,9.31,7.47,12.29,12.35,33.87,13.51,48.79.53,6.77-.3,13.05-2.59,19.24-2.93,7.93-9.26,13.98-17.25,17.13ZM200,132.71l.67,5.49c23.23-1.54,45.18-6.56,67.47-13.44.21-9.19.38-19.82-6.97-25.55-6.38,7.01-15.92,9.51-24.8,6.3-1.19,3.27-2.64,6.17-4.87,8.67-6.96,7.78-17.85,9.53-26.86,4.3-4.17,3.33-5.26,9.19-4.64,14.23ZM352.49,162.85c-1.14-10.86-3.61-21.23-6.99-31.48-1.88-5.71-4.34-11.1-8.16-15.67-2.13-2.55-5.47-3.92-8.58-3.79l-5.26.39-11.73,3.02,18.22,82.25c12.74-.54,21.2-10.57,22.4-23.17.36-3.82.5-7.66.09-11.55ZM143.14,211.43c1.31,1.2,1.54,2.8,2.74,4.06l-10.35-45.33-8.38-37.82c3.09-3.77,2.55-8.75-.68-11.86s-8.47-2.98-11.93.26c-3.63,3.4-3.23,9.68.86,12.67,1.19.87,1.65.82,1.99,2.45l4.09,19.23c3.2,1.7,5.17,4.39,6.27,7.81l7.82,24.35,7.57,24.18ZM90.91,162.72c4.53-4.64,9.72-11.21,15.72-10.7l9.53-11.77-.87-3.97c-2.11-1.31-3.57-3.17-4.81-5.26l-20.82,25.23-31.33,37.97c4.65-1.4,7.6-5.78,10.81-9.12l6.28-6.54,15.49-15.85ZM71.48,146.5c2.43-3.53,3.94-9.97,2.31-10.1-2.14-.17-3.57,6.87-2.31,10.1ZM314.24,219.22l3.7,2.23-6.5-7.94-25.53-30.87-22.33-26.91c.99-4.17-1.1-8.26-4.76-9.88s-8.13-.47-10.59,3.05c-1.87,2.68-2.08,6.11-.41,9,1.42,2.46,4.4,4.35,7.81,4.21l13.37,16.44c3.29.15,6.3,1.24,8.66,3.62l17.18,17.33,10.21,10.57,9.19,9.15ZM83.3,156.4c-1.79-4.11-5.05.77-10.63-3.68-1.73-1.38-4.14-1.93-6.02-.74l9.87,16.59,8.04-9.64c-.14-.88-.64-1.77-1.27-2.54ZM248.14,189.81c1.06-3.21,3.17-5.72,6.13-7.45l3.27-14.67-2.91-3.3c-2.38-.06-4.36-1.03-6.27-2.41l-12.14,52.97-6.54,27.97c1.14-.98,1.03-2.78,2.74-3.52l11.29-36.15,4.42-13.44ZM305.2,173.44c.94-3.53-.05-6.62-.94-9.48-.6-.54-1.02-.67-1.58-.54-1.52.33.2,7.43,2.51,10.03ZM133.63,188.47l-3.81-11.92-24.91,15.61-15.02-25.1-8.88,8.94,19.63,33.07,33-20.6ZM157.25,173.52c-1.83-2.34-3.9-2.52-6.05-2.04-5.26,1.18-7.46-3.61-10.05-1.98l-3.05,1.92,2.81,12.35,16.34-10.25ZM291.16,185.69l8.02,9.53,9.99-16.91c-1.79-.43-4.05-.79-5.34.28-5.85,4.86-9.36.94-10.85,3.5-.64,1.11-1.6,2.13-1.82,3.6ZM267.04,231.41l7.93,4.86,19.87-33.68-8.74-8.87-15.25,25.54-24.87-15.63-3.99,12.06,25.05,15.71ZM234.82,210.92l2.96-12.35c-1.48-.67-2.89-2.32-4.57-2.27l-4.49,2.25c-3.61.99-6.77-1.49-10.11,2.21l16.2,10.15ZM153.47,257.74c2.68-1.09,3.92-2.96,3.77-5.74l-.36-6.5c-3.77,1.84-7.53,2.67-11.49,3.12-25.38,2.88-55.34-3.29-78.83-12.22-10.36-3.94-23.42-10.17-30.51-18.31l-3.04,5.67c-.84,1.57-.92,3.22.05,4.79,4.4,7.11,17.57,13.46,25.72,16.88,20.46,8.58,42.13,13.7,64.47,15,9.43.55,21.99.65,30.22-2.69ZM227.5,281.64c8.64,1.67,17.08,1.67,26.08,1.07,22.98-1.53,45.18-7.13,65.7-16.62,6.77-3.13,26.34-13.37,23.04-20.06l-3.25-6.59-4.73,4.77c-5.29,4.26-11.1,7.57-17.27,10.46-21.57,10.1-45.22,15.74-69.43,16.96l-6.8.14c-6.25.13-17.03-1-22.37-3.98l-.05,8.13c-.02,3.18,5.27,4.98,9.08,5.71Z"/>
    <polygon class="cls-3" points="267.04 231.41 241.99 215.7 245.98 203.64 270.85 219.27 286.1 193.72 294.84 202.59 274.97 236.27 267.04 231.41"/>
    <polygon class="cls-3" points="133.63 188.47 100.63 209.07 81 175.99 89.89 167.05 104.91 192.15 129.81 176.54 133.63 188.47"/>
    <path class="cls-4" d="M143.14,211.43l-7.57-24.18-7.82-24.35c-1.1-3.43-3.07-6.11-6.27-7.81l-4.09-19.23c-.35-1.63-.8-1.58-1.99-2.45-4.08-2.99-4.49-9.27-.86-12.67s8.72-3.34,11.93-.26,3.77,8.09.68,11.86l8.38,37.82,10.35,45.33c-1.21-1.26-1.43-2.86-2.74-4.06ZM119.02,122.16c-2.73,1.06-3.85,4.14-2.83,6.29,1.16,2.47,3.68,3.43,5.93,2.77,2.79-.82,3.88-3.66,3-6.18-.81-2.34-3.49-3.89-6.1-2.87Z"/>
    <path class="cls-11" d="M314.24,219.22l-9.19-9.15-10.21-10.57-17.18-17.33c-2.36-2.38-5.37-3.47-8.66-3.62l-13.37-16.44c-3.41.13-6.38-1.75-7.81-4.21-1.67-2.89-1.46-6.32.41-9,2.46-3.52,6.8-4.72,10.59-3.05s5.75,5.71,4.76,9.88l22.33,26.91,25.53,30.87,6.5,7.94-3.7-2.23ZM259.81,155.14c.82-3.19-1.03-5.75-3.74-6.26-2.54-.48-5.06,1.36-5.44,3.85-.41,2.7,1.12,5.3,4.01,5.5,2.21.15,4.58-.77,5.17-3.09Z"/>
    <path class="cls-7" d="M248.14,189.81l-4.42,13.44-11.29,36.15c-1.71.73-1.6,2.54-2.74,3.52l6.54-27.97,12.14-52.97c1.91,1.37,3.89,2.35,6.27,2.41l2.91,3.3-3.27,14.67c-2.97,1.73-5.08,4.24-6.13,7.45Z"/>
    <path class="cls-11" d="M90.91,162.72l-15.49,15.85-6.28,6.54c-3.21,3.34-6.16,7.72-10.81,9.12l31.33-37.97,20.82-25.23c1.24,2.09,2.7,3.95,4.81,5.26l.87,3.97-9.53,11.77c-6.01-.51-11.19,6.07-15.72,10.7Z"/>
    <path class="cls-22" d="M291.16,185.69c.22-1.47,1.18-2.49,1.82-3.6,1.49-2.56,5,1.36,10.85-3.5,1.29-1.07,3.55-.71,5.34-.28l-9.99,16.91-8.02-9.53Z"/>
    <path class="cls-3" d="M83.3,156.4c.63.77,1.13,1.66,1.27,2.54l-8.04,9.64-9.87-16.59c1.87-1.19,4.28-.64,6.02.74,5.58,4.44,8.84-.43,10.63,3.68Z"/>
    <path class="cls-4" d="M234.82,210.92l-16.2-10.15c3.34-3.7,6.5-1.22,10.11-2.21l4.49-2.25c1.67-.05,3.08,1.6,4.57,2.27l-2.96,12.35Z"/>
    <path class="cls-5" d="M157.25,173.52l-16.34,10.25-2.81-12.35,3.05-1.92c2.59-1.63,4.78,3.16,10.05,1.98,2.15-.47,4.22-.29,6.05,2.04Z"/>
    <path class="cls-17" d="M274.4,64.2c-7.45-2.08-10.28,3.31-11.96,3.18-.53-.04-1.13-.47-1.55-1.09-4.01-5.88-11.38-8.26-18.15-5.67-4.38,1.68-7.38,5.07-9.46,9.56-1.14-1.4-.31-3,.35-4.41,4.59-9.85,16.87-12.95,25.84-6.75l3.7,3.19c2.44-1.58,5.18-2.22,8.27-2.07,7.23.35,12.7,6.33,12.67,13.49-.04.17-.46.42-.58.4-.7-.13-1.68-7.75-9.12-9.83Z"/>
    <path class="cls-1" d="M193.84,84.42c-4.19,3.31-6,8.36-5.62,13.59.07.93.46,1.98-.5,2.72-2.57-5.55-1.93-11.85,1.73-16.66,4.05-5.33,10.71-7.7,17.23-6.51,1.96-8.07,11.2-12.91,18.64-8.48-3.93.43-7.53.3-10.47,2.58s-4.61,5.16-4.57,8.86c.01,1-.99,2.39-2.16,1.91-4.79-1.98-10-1.39-14.27,1.98Z"/>
    <path class="cls-9" d="M228.79,42.38c-10.33-.94-19.71,5.59-22.48,15.54-.13.46-.43.8-.77.78-.41-.03-.61-.23-.55-.94,1.13-12.85,14.18-21.58,26.47-17.74,3.91,1.22,7.92,3.02,9.98,6.94-4.48-1.98-7.99-4.16-12.65-4.58Z"/>
    <path class="cls-6" d="M180.62,119.33c.42.26.49.53.53.76.33,1.64-6.46-1.78-9.47-5.96-3.61-5.03-4.22-12.1-1.25-17.57,1.76-3.24,6.85-6.62,7.85-6.31,1.73.54-4.55,3.04-6.09,10.48-1.52,7.33,1.99,14.61,8.43,18.6Z"/>
    <path class="cls-21" d="M177.47,80.63c.1,1.03,0,1.75-.83,1.96-3.01-6.35-1.04-13.06,4.08-17.64,4.36-3.91,10.94-4.78,16.27-1.98.03.58-.6.84-1.24.73-4.83-.83-9.7.57-13.26,3.72s-5.5,8.06-5.02,13.22Z"/>
    <path class="cls-10" d="M272.46,51.47c-2.2-4.26-5.84-7.14-9.84-7.82-8.74-1.48-12.44,4.72-13.27,4.5-1.94-.51,6.03-11.59,16.8-6.56,4.64,2.17,8.16,6.54,8.04,11.77-1.07-.07-1.33-1.14-1.72-1.9Z"/>
    <path class="cls-21" d="M300.28,67.44c-1-1.11-2.62-11.29-13.32-12.89-1.5-.22-3.06.25-4.5-.87,4.59-2.13,9.53-1.35,13.4,1.57,6.28,4.73,5.7,13.59,4.42,12.18Z"/>
    <path class="cls-23" d="M235.19,92.54c1.95-.92,3.7,1.06,5.51,1.06l4.43.02c6.87-.72,9.33-6.84,10.2-7.19,1.88-.75-.53,7.63-7.38,9.54-4.6,1.28-9.41.27-12.76-3.43Z"/>
    <path class="cls-18" d="M203.6,179.04c-.28,3.99-3.55,7.66-6.99,6.03,7.2-3.29,3.45-12.53,2.15-20.39,3.86,3.7,5.21,9.3,4.85,14.36Z"/>
    <path class="cls-14" d="M112.53,37.97c-2.84-2.74-6.8-3.71-10.71-2.45-4.4,1.42-7.41,5.18-8.59,9.92-1.51-.81-.84-2.3-.56-3.53,1-4.43,4.13-7.92,7.62-9.49,4.72-2.12,9.43-1.45,13.35,1.11,6.41-7.29,17.39-8.48,24.7-2.32s5.94,12.71,4.6,9.77c-2.48-5.47-7.51-9.32-13.61-9.82-9.85-.81-13.38,6.96-14.72,7.41-.64.21-1.45.02-2.08-.59Z"/>
    <path class="cls-12" d="M170.19,28.92c-1.91-6.01-6.26-10.91-11.21-13.15-6.71-3.04-13.38-2.54-19.42.49-1.36.68-2.3,1.79-4.16,1.88,1.86-3.05,4.53-4.69,7.58-5.98,8.35-3.53,17.95-1.16,23.87,5.73,3.02,3.51,4.67,7.76,4.82,12.55-1.03,0-1.27-.85-1.48-1.52Z"/>
    <path class="cls-15" d="M127.63,19.37c-.68,1.43-4.87-6.12-13.71-4.37-4.12.81-7.86,3.79-9.81,8.11-.31.68-.68,1.68-1.8,1.53.59-8.71,9.04-14.81,17.3-12.48,5.6,1.58,8.41,6.4,8.02,7.22Z"/>
    <path class="cls-8" d="M94.32,25.46c-15.84.13-16.57,12.18-17.76,13.25-.32.29-.89.18-.93-.39-.55-7.5,4.95-13.88,12.4-14.56,2.09-.19,4.48-.14,6.29,1.71Z"/>
    <path class="cls-13" d="M141.13,64.09c.48.97-5.05,5.99-12.75,3.47-3.48-1.14-6.84-4.32-7.84-8.54-.15-.61.33-1.29.83-1.2,3.66,6.96,12.11,9.87,19.08,5.97.26-.14.62.15.69.29Z"/>
    <path class="cls-2" d="M12.93,124.53c-.86-1.79-.34-3.63-.03-5.34,2.35-12.79,7.65-30.32,17.7-38.68,3.51-2.92,7.41-4.94,11.94-5.23.93-.06,1.66-.07,2.07.87-7.03,1.29-12.33,5.39-16.3,11.25-4.64,6.85-7.68,14.4-10.35,22.25l-5.05,14.88Z"/>
    <path class="cls-20" d="M362.09,149.78c-4.99-13.48-8.47-30.64-17.94-41.33-6.13-6.91-12.59-7.1-12.94-7.83-.06-.12.19-.6.44-.6,11.7.22,19.2,10.2,23.68,20.36,3.56,9.21,6.99,18.65,6.75,29.4Z"/>
    <path class="cls-19" d="M119.02,122.16c2.61-1.01,5.29.53,6.1,2.87.88,2.52-.21,5.37-3,6.18-2.25.66-4.77-.3-5.93-2.77-1.01-2.15.1-5.23,2.83-6.29Z"/>
    <path class="cls-19" d="M259.81,155.14c-.6,2.32-2.97,3.24-5.17,3.09-2.89-.2-4.42-2.8-4.01-5.5.38-2.49,2.9-4.34,5.44-3.85,2.71.52,4.56,3.07,3.74,6.26Z"/>
  </g>
</svg>