<?xml version="1.0" encoding="UTF-8"?>
<svg id="Camada_1" data-name="Camada 1" xmlns="http://www.w3.org/2000/svg" viewBox="0 0 512 433.27">
  <defs>
    <style>
      .cls-1 {
        fill: #1e2a50;
      }

      .cls-2 {
        fill: #016aab;
      }

      .cls-3 {
        fill: #0989c9;
      }

      .cls-4 {
        fill: none;
        stroke: #016aab;
        stroke-linecap: round;
        stroke-linejoin: round;
        stroke-width: 11.02px;
      }
    </style>
  </defs>
  <path class="cls-3" d="M172.72,293.55l-.18,132.84H5.23s.17-134.04.17-134.04l167.17-.16c.07.22.15.56.15,1.36Z"/>
  <path class="cls-3" d="M437.34,69.43l-.9,105.68.54,4.21h69.51c-.62,13.94-10.11,27.59-24.78,27.68l-51.42.33-97.33-.29-84.74.57-74.7-.36c-9.92-2.35-17.75-7.47-21.48-16.81l-4.45-11.17,198.03.15c.46-1.23.55-2.97.52-4.31l-2.72-106.09c2.82,0,5.79-.91,8.76.12l10.96.74.31,56.97c.02,3.04,3.56,4.44,5.77,4.19,1.88-.22,5.03-1.92,5.04-4.76l.19-56.61,62.89-.23Z"/>
  <path class="cls-3" d="M204.47,65.85c1.81-2.61,4.78-1.04,7.29-1.19l16.79-1.05c.31-2.03,1.03-3.54,1.93-4.62.21-.25,1.52-.32,1.63,0s-.09,1.77.83-.03l5.88,3.77c1.56-.59,1.71-.02,1.82,1.31l45.77.4c2.24.02,4.56.1,6.41.96l-43.81,53.69-.51.61-44.03-53.85Z"/>
  <path class="cls-4" d="M173,294.93l-.18,132.84H5.51s.17-134.04.17-134.04l167.17-.16c.07.22.15.56.15,1.36Z"/>
  <path class="cls-4" d="M180.09,5.71l31.98,8.19,9.7,22.9c1.59,3.76,2.23,7.43,5.81,9.26-2.96-1.81-5.49-1.82-8.51-1.78l-31.84.36,17.23,21.21,44.03,53.85"/>
  <path class="cls-4" d="M346.15,175.1l-2.72-106.09-.75-28.95c-2.17-5.12-2.26-10.57.62-15.11,6.83-10.74,15.81-3.92,23.23-12.04s18.24-9.96,27.21-3.67c2.33,1.63,5.27,1.46,7.97,1.59,7.87-1.56,14.44,1.92,19.98,7.11,6.18-1.07,11.79.4,15.72,4.45,9.44,11.52-.09,17.34-.08,27.44v19.6s-.89,105.68-.89,105.68"/>
  <line class="cls-4" x1="433.43" y1="44.44" x2="347.63" y2="44.44"/>
  <path class="cls-2" d="M225.17,57.33l-3.98-11.01c-1.04-2.86.45-6.02,3.31-7.06.61-.22,1.26-.33,1.88-.33,0,0,83.3.02,83.3.02,4.54-.1,7.2,5.53,4.29,8.96,0,0-15.21,18.9-15.21,18.9-9.72,11.95-35.94,44.06-46.01,56.4-1.92,2.36-5.39,2.71-7.75.78-2.39-1.94-2.71-5.48-.72-7.83,17.34-21.31,44.16-53.94,61.11-75.16,0,0,4.29,8.96,4.29,8.96l-83.3-.02s5.18-7.38,5.18-7.38c0,0,3.98,11.01,3.98,11.01,1.12,3.71,3.22,6.98,4.55,10.6-4.18.81-7.41-.72-11.82-.73-.58-1.15-2.33-4.58-3.09-6.12h0Z"/>
  <path class="cls-4" d="M430.29,207.32l51.42-.33c14.67-.09,24.15-13.74,24.78-27.68h-69.51s-91.35.11-91.35.11l-198.03-.15,4.45,11.17c3.72,9.35,11.55,14.47,21.48,16.81l74.7.36,84.74-.57,97.33.29Z"/>
  <path class="cls-4" d="M441.3,66.48l13.63.18c11.1,1.59,15.72,11.06,15.81,21.52l.31,34.55c.1,11.3-4.89,20.9-16.95,22.66l-12.79.74"/>
  <line class="cls-4" x1="248.5" y1="119.71" x2="248.45" y2="175.1"/>
  <path class="cls-4" d="M251.55,212.1l.2,11.38c2.47,14.32-2.04,34.66-10.39,47.33-6.73,10.21-12.54,21.44-13.65,33.71-.58,6.36-3.15,11.02-9.63,12.82l-10.37,2.97"/>
  <path class="cls-4" d="M422.18,212.34l-2.24,8.74-18.99,16.6-53.35,53.61-41.25,43.49c-10.66,11.23-20.64,22.29-33.21,31.43-16.01,11.64-34.76,17.87-54.15,20.42-4.22.55-7.63,1.32-11.47.28"/>
  <path class="cls-4" d="M275.14,212.46c13.72,19.25,2.43,42.31,11.88,52.5,10.44,11.26,34.34-5.66,47.5-15.18l48.6-35.24"/>
  <path class="cls-4" d="M335.31,212.56l-3.81,6.16-11.33,29.11c-.1,2.25-.67,4.11-1.2,5.82"/>
  <line class="cls-4" x1="355.54" y1="211.4" x2="351.53" y2="230.12"/>
  <path class="cls-4" d="M202.01,309.7c1.77,3.86,1.65,7.93,1.64,12.62l-.1,86.33-26.73.23"/>
  <path class="cls-4" d="M177.62,308.04c8.37,1.84,16.94-1.83,24.4,1.66"/>
  <path class="cls-1" d="M129.13,386.66l-40.34,36.57-39.19-35.55c1.39-5.12,3.95-9.17,7.04-14.71l32.2,28.3,32.81-28.88,7.5,14.27Z"/>
  <path class="cls-1" d="M113.9,353.26c-2.62-4.58-8.82-5.94-12.31-9.6-8.21-8.6-8.98-23.11-19.64-30.04-4.36-2.84-5.38-7.43-4.09-11.25,1.51-4.47,6.49-7.62,12.48-6.92,8.24.97,12.5,8.54,9.42,15.62l48.82,95.63-1.45,1.49c-2.44-1.62-4.36-4.41-5.98-7.25l-27.25-47.68ZM88.26,309.59c-2.94-.52-3.49-4.42-1.77-6.22,2-2.1,4.06-1.66,8.15-2.1-3-3.53-10.21-2.6-12.1,1.42-1.53,3.23.26,8.12,4.83,10.03,2.79,1.17,8.15-.74,8.58-5.49.1-1.07-4.38-2.26-4.92-1.5l-2.76,3.85Z"/>
  <path class="cls-1" d="M39.21,378.31l-22.62-21.12,23.59.86c2.59.59,7.65,5.17,6.74,7.3l-3.37,7.91c.62,0,1.63.15,2.29.52l17.86-33.3,13.11-26.15,5.03,3.55c2.1,1.48,6.21,5.98,4.85,8.33l-9.84,17.14-11.2,7.95-30.19,51.57c-1.21,2.07-2.16,4.42-5.75,4.11l15.65-30.6c-1.88-1.43-4.05-.51-3.88,0s-1.73,2.41-2.25,1.92Z"/>
  <path class="cls-1" d="M137.85,378.85l-5.89-12.15c-1.64-3.38,1.75-6.24,4.08-7.93,5.06-3.65,12.87,1.03,25.87-2.18l-24.07,22.26Z"/>
  <path class="cls-1" d="M85.28,356.62c-7.8,5.61-5.21,20.58,1.09,23.16,2.73,1.12,5.78-.19,7.72-2.97,1.18-1.68,1.3-5.03-1.86-7.66,4.7-2.16,9.3-1.55,13.52-.37-5.71,2.77-2.56,7.3-3.96,12.4-.27,1-15.86,4.54-22.71.12-9.77-6.31-8.11-21.83-1.4-26.07,9.02-5.7,13.34-2.5,22.67-1.19.12,2.65.71,5.02-.24,8.24l-6.18-5.37c-1.22-1.06-6.79-.76-8.65-.3Z"/>
</svg>