<?xml version="1.0" encoding="UTF-8"?>
<svg id="Camada_1" data-name="Camada 1" xmlns="http://www.w3.org/2000/svg" viewBox="0 0 507.48 496.71">
  <defs>
    <style>
      .cls-1, .cls-2, .cls-3 {
        fill: #00a8e8;
      }

      .cls-4 {
        fill: #172b54;
      }

      .cls-2 {
        stroke: #172b54;
        stroke-width: 6px;
      }

      .cls-2, .cls-3 {
        fill-rule: evenodd;
        stroke-miterlimit: 22.93;
      }

      .cls-3 {
        stroke: #00a8e8;
        stroke-width: 2px;
      }
    </style>
  </defs>
  <path class="cls-3" d="M287.84,463.93h0c0,17.55-15.56,31.78-34.76,31.78s-34.76-14.23-34.76-31.78h0S1.14,475,1.14,475L57.5,30.23h391.15l57.68,448.46-218.5-14.76Z"/>
  <g>
    <g>
      <path class="cls-2" d="M71.59,37.19c15.34,4.52,30.09,12.2,46.02,13.56,22.61,1.93,47.06-12.45,67.97-3.83l40.7,16.77v385.82l-202.23,12.65L71.59,37.19Z"/>
      <path class="cls-2" d="M73.82,35.37c15.34,4.52,30.09,12.2,46.02,13.56,22.61,1.93,47.06-12.45,67.97-3.83l40.7,16.77v385.82l-202.23,12.65L73.82,35.37Z"/>
      <path class="cls-2" d="M76.06,33.29c15.34,4.52,30.09,12.2,46.02,13.56,22.61,1.93,47.06-12.45,67.97-3.83l40.7,16.77v385.82l-202.23,12.65L76.06,33.29Z"/>
      <path class="cls-2" d="M78.28,31.05c15.34,4.52,30.09,12.2,46.02,13.56,22.61,1.93,47.06-12.45,67.97-3.83l40.7,16.77v385.82l-202.23,12.65L78.28,31.05Z"/>
      <path class="cls-2" d="M80.17,29.18c15.34,4.52,30.09,12.2,46.02,13.56,22.61,1.93,47.06-12.45,67.97-3.83l40.7,16.77v385.82l-202.23,12.65L80.17,29.18Z"/>
      <path class="cls-2" d="M82.4,27.36c15.34,4.52,30.09,12.2,46.02,13.56,22.61,1.93,47.06-12.45,67.97-3.83l40.7,16.77v385.82l-202.23,12.65L82.4,27.36Z"/>
      <path class="cls-2" d="M84.65,25.28c15.34,4.52,30.09,12.2,46.02,13.56,22.61,1.93,47.06-12.45,67.97-3.83l40.7,16.77v385.82l-202.23,12.65L84.65,25.28Z"/>
      <path class="cls-2" d="M86.87,23.04c15.34,4.52,30.09,12.2,46.02,13.56,22.61,1.93,47.06-12.45,67.97-3.83l40.7,16.77v385.82l-202.23,12.65L86.87,23.04Z"/>
      <path class="cls-2" d="M88.92,21.14c15.34,4.52,30.09,12.2,46.02,13.56,22.61,1.93,47.06-12.45,67.97-3.83l40.7,16.77v385.82l-202.23,12.65L88.92,21.14Z"/>
      <path class="cls-2" d="M90.66,19.6c15.34,4.52,30.09,12.2,46.02,13.56,22.61,1.93,47.06-12.45,67.97-3.83l40.7,16.77v385.82l-202.23,12.65L90.66,19.6Z"/>
      <path class="cls-2" d="M92.46,17.59c15.34,4.52,30.09,12.2,46.02,13.56,22.61,1.93,47.06-12.45,67.97-3.83l40.7,16.77v385.82l-202.23,12.65L92.46,17.59Z"/>
      <path class="cls-2" d="M94.16,15.9c15.34,4.52,30.09,12.2,46.02,13.56,22.61,1.93,47.06-12.45,67.97-3.83l40.7,16.77v385.82l-202.23,12.65L94.16,15.9Z"/>
      <path class="cls-2" d="M96.3,14.1c15.34,4.52,30.09,12.2,46.02,13.56,22.61,1.93,47.06-12.45,67.97-3.83l40.7,16.77v385.82l-202.23,12.65L96.3,14.1Z"/>
      <path class="cls-2" d="M98.39,12.12c15.34,4.52,30.09,12.2,46.02,13.56,22.61,1.93,47.06-12.45,67.97-3.83l40.7,16.77v385.82l-202.23,12.65L98.39,12.12Z"/>
    </g>
    <g>
      <path class="cls-2" d="M434.57,37.19c-15.34,4.52-30.09,12.2-46.02,13.56-22.61,1.93-47.06-12.45-67.97-3.83l-40.7,16.77v385.82l202.23,12.65-47.54-424.96Z"/>
      <path class="cls-2" d="M432.34,35.37c-15.34,4.52-30.09,12.2-46.02,13.56-22.61,1.93-47.06-12.45-67.97-3.83l-40.7,16.77v385.82l202.23,12.65-47.54-424.96Z"/>
      <path class="cls-2" d="M430.09,33.29c-15.34,4.52-30.09,12.2-46.02,13.56-22.61,1.93-47.06-12.45-67.97-3.83l-40.7,16.77v385.82l202.23,12.65-47.54-424.96Z"/>
      <path class="cls-2" d="M427.87,31.05c-15.34,4.52-30.09,12.2-46.02,13.56-22.61,1.93-47.06-12.45-67.97-3.83l-40.7,16.77v385.82l202.23,12.65L427.87,31.05Z"/>
      <path class="cls-2" d="M425.99,29.18c-15.34,4.52-30.09,12.2-46.02,13.56-22.61,1.93-47.06-12.45-67.97-3.83l-40.7,16.77v385.82l202.23,12.65L425.99,29.18Z"/>
      <path class="cls-2" d="M423.76,27.36c-15.34,4.52-30.09,12.2-46.02,13.56-22.61,1.93-47.06-12.45-67.97-3.83l-40.7,16.77v385.82l202.23,12.65L423.76,27.36Z"/>
      <path class="cls-2" d="M421.51,25.28c-15.34,4.52-30.09,12.2-46.02,13.56-22.61,1.93-47.06-12.45-67.97-3.83l-40.7,16.77v385.82l202.23,12.65L421.51,25.28Z"/>
      <path class="cls-2" d="M419.29,23.04c-15.34,4.52-30.09,12.2-46.02,13.56-22.61,1.93-47.06-12.45-67.97-3.83l-40.7,16.77v385.82l202.23,12.65L419.29,23.04Z"/>
      <path class="cls-2" d="M417.24,21.14c-15.34,4.52-30.09,12.2-46.02,13.56-22.61,1.93-47.06-12.45-67.97-3.83l-40.7,16.77v385.82l202.23,12.65L417.24,21.14Z"/>
      <path class="cls-2" d="M415.5,19.6c-15.34,4.52-30.09,12.2-46.02,13.56-22.61,1.93-47.06-12.45-67.97-3.83l-40.7,16.77v385.82l202.23,12.65L415.5,19.6Z"/>
      <path class="cls-2" d="M413.7,17.59c-15.34,4.52-30.09,12.2-46.02,13.56-22.61,1.93-47.06-12.45-67.97-3.83l-40.7,16.77v385.82l202.23,12.65L413.7,17.59Z"/>
      <path class="cls-2" d="M412,15.9c-15.34,4.52-30.09,12.2-46.02,13.56-22.61,1.93-47.06-12.45-67.97-3.83l-40.7,16.77v385.82l202.23,12.65L412,15.9Z"/>
      <path class="cls-2" d="M409.86,14.1c-15.34,4.52-30.09,12.2-46.02,13.56-22.61,1.93-47.06-12.45-67.97-3.83l-40.7,16.77v385.82l202.23,12.65L409.86,14.1Z"/>
      <path class="cls-2" d="M407.77,12.12c-15.34,4.52-30.09,12.2-46.02,13.56-22.61,1.93-47.06-12.45-67.97-3.83l-40.7,16.77v385.82l202.23,12.65L407.77,12.12Z"/>
    </g>
  </g>
  <path class="cls-4" d="M135.88,392.01l30.6-41.01,33.89-45.71,59.59-80.83,72.69-97.23,25.55-33.95,54-71.02c-.76.39-1.28.22-1.65-.05l-35.02,43.34-61.79,76.97-48.41,61.64-40.68,52.26-95.78,123.1c-1.1,1.41-3.18,3.14-2.38,4.7,1.76,3.41,5.66,4.99,7.9,7.66.55.53.27.76.37.97.25.53-.15.8-.68,1.53l-65.72,90.16c-3.35,4.6-10.68,9.09-14.84,5.96-2.06-1.55-3.15-3.86-3.34-6.43-.48-6.79,3.2-11.6,7.16-16.66l31.86-40.81,34.14-42.99c-13.89-8.31-24.42-25.38-28.3-41.02,6.65,6.46,11.29,12.98,18.7,18.65-7.08-17.34-14.35-34.54-6.33-52.7,4.35-9.86,9.43-19.81,17.43-27.08l6.75-6.12c.75-5.56,3.98-9.78,7.7-13.82l8.29-9,10.28-12.04c4.13,11.02,5.83,21.39,11.84,31.45-2.29-15.71-4.47-30.63-4.64-46.7l34.53-55.56c4.6-7.4,9.07-14.32,15.09-20.99,5.19,15.46,8.99,30.05,16.55,44.39-4.06-18.63-7.99-36.97-8-56.11l15.25-15.13c5.96-5.91,12.65-10.47,20.64-13.7,7.06-14.84,19.28-26.11,34.69-31.7,2.16-.78,3.36-2.69,4.49-4.67,12.67-22.2,34.75-41.07,60.38-40,7.35-8.02,15.63-14.21,26.06-16.69,1.67-.39,3.35-.82,4.73-2.08,7.19-6.57,15.83-11.68,25.55-12.85,10.26-1.24,17.5,6.06,17.92,16.13.38,8.93-1.84,17.71-6.13,25.64-2.42,4.47-2.79,8.61-3.07,13.4-.49,8.48-4.69,15.81-9.11,23.31,1.65,9.95,2.18,19.92-1.16,29.6-5.54,16.07-15.99,29.28-29.62,39.78-1.39,17.25-10.07,31.86-24.08,42.17-4.6,17.53-13.19,32.95-25.11,46.55-3.93,4.48-9.28,7.62-12.16,12.72-12.03,21.3-24.85,41.48-40.39,60.3-3.05,3.7-5.54,6.06-10.38,7.09-17.78,3.74-35.39,3.86-54.81,3.71,15.05,6.78,30.77,8.53,47.17,10.16l-36.01,43.85-29.52,1.3c7.64,3.22,15.15,4.55,23.02,6.31l-5.45,5.31c-11.56,11.25-26.61,15.71-42.52,12.81l-14.15-2.58c5.89,5.9,12.6,9.45,19.3,14.04.51.68,0,1.41-.85,1.08-12.09-1.9-23.39-5.59-33.77-13.64l-.41,16.19-7-18.07c-.73-1.87-.58-3.62-.85-5.29h0Z"/>
  <path class="cls-1" d="M135.88,392.01c-.55-.13-1.33.06-1.48-.12-2.24-2.67-6.14-4.25-7.9-7.66-.8-1.56,1.28-3.29,2.38-4.7l95.78-123.1,40.68-52.26,48.41-61.64,61.79-76.97,35.02-43.34c.37.27.89.44,1.65.05l-54,71.02-25.55,33.95-72.69,97.23-59.59,80.83-33.89,45.71-30.6,41.01h0Z"/>
</svg>