<?xml version="1.0" encoding="UTF-8"?>
<!DOCTYPE svg PUBLIC "-//W3C//DTD SVG 1.1//EN" "http://www.w3.org/Graphics/SVG/1.1/DTD/svg11.dtd">
<!-- Creator: CorelDRAW (Versão OEM) -->
<svg xmlns="http://www.w3.org/2000/svg" xml:space="preserve" version="1.1" style="shape-rendering:geometricPrecision; text-rendering:geometricPrecision; image-rendering:optimizeQuality; fill-rule:evenodd; clip-rule:evenodd" viewBox="55803.20 97229.64 103999.90 84512.35" xmlns:xlink="http://www.w3.org/1999/xlink" xmlns:xodm="http://www.corel.com/coreldraw/odm/2003">
 <defs>
  <style type="text/css">
   <![CDATA[
    .str2 {stroke:black;stroke-width:1500;stroke-miterlimit:22.9256}
    .str1 {stroke:#222222;stroke-width:1587.5;stroke-linecap:round;stroke-linejoin:round;stroke-miterlimit:22.9256}
    .str0 {stroke:#222222;stroke-width:529.2;stroke-linecap:round;stroke-linejoin:round;stroke-miterlimit:22.9256}
    .fil29 {fill:#1E2A50}
    .fil30 {fill:#373435;fill-rule:nonzero}
    .fil10 {fill:url(#id0)}
    .fil21 {fill:url(#id1)}
    .fil5 {fill:url(#id2)}
    .fil3 {fill:url(#id3)}
    .fil1 {fill:url(#id4)}
    .fil15 {fill:url(#id5)}
    .fil28 {fill:url(#id6)}
    .fil26 {fill:url(#id7)}
    .fil18 {fill:url(#id8)}
    .fil8 {fill:url(#id9)}
    .fil0 {fill:url(#id10)}
    .fil9 {fill:url(#id11)}
    .fil11 {fill:url(#id12)}
    .fil13 {fill:url(#id13)}
    .fil6 {fill:url(#id14)}
    .fil19 {fill:url(#id15)}
    .fil16 {fill:url(#id16)}
    .fil7 {fill:url(#id17)}
    .fil22 {fill:url(#id18)}
    .fil14 {fill:url(#id19)}
    .fil23 {fill:url(#id20)}
    .fil25 {fill:url(#id21)}
    .fil24 {fill:url(#id22)}
    .fil2 {fill:url(#id23)}
    .fil27 {fill:url(#id24)}
    .fil4 {fill:url(#id25)}
    .fil17 {fill:url(#id26)}
    .fil20 {fill:url(#id27)}
    .fil12 {fill:url(#id28)}
    .fil31 {fill:url(#id29)}
   ]]>
  </style>
  <linearGradient id="id0" gradientUnits="objectBoundingBox" x1="0%" y1="23.33%" x2="123.33%" y2="76.67%">
   <stop offset="0" style="stop-opacity:1; stop-color:#E0E0E0"/>
   <stop offset="0.301961" style="stop-opacity:1; stop-color:white"/>
   <stop offset="0.701961" style="stop-opacity:1; stop-color:#999999"/>
   <stop offset="1" style="stop-opacity:1; stop-color:#555555"/>
  </linearGradient>
  <linearGradient id="id1" gradientUnits="objectBoundingBox" xlink:href="#id0" x1="0%" y1="23.33%" x2="123.33%" y2="76.67%">
  </linearGradient>
  <linearGradient id="id2" gradientUnits="objectBoundingBox" xlink:href="#id0" x1="0%" y1="23.3301%" x2="123.33%" y2="76.6699%">
  </linearGradient>
  <linearGradient id="id3" gradientUnits="objectBoundingBox" xlink:href="#id0" x1="0%" y1="23.3301%" x2="123.33%" y2="76.6699%">
  </linearGradient>
  <linearGradient id="id4" gradientUnits="objectBoundingBox" xlink:href="#id0" x1="0%" y1="23.3301%" x2="123.33%" y2="76.6699%">
  </linearGradient>
  <linearGradient id="id5" gradientUnits="objectBoundingBox" xlink:href="#id0" x1="0%" y1="23.3301%" x2="123.33%" y2="76.6699%">
  </linearGradient>
  <linearGradient id="id6" gradientUnits="objectBoundingBox" xlink:href="#id0" x1="0%" y1="23.3301%" x2="123.33%" y2="76.6699%">
  </linearGradient>
  <linearGradient id="id7" gradientUnits="objectBoundingBox" xlink:href="#id0" x1="0%" y1="23.3301%" x2="123.33%" y2="76.6699%">
  </linearGradient>
  <linearGradient id="id8" gradientUnits="objectBoundingBox" xlink:href="#id0" x1="0%" y1="23.3301%" x2="123.33%" y2="76.6699%">
  </linearGradient>
  <linearGradient id="id9" gradientUnits="objectBoundingBox" xlink:href="#id0" x1="0%" y1="23.3301%" x2="123.33%" y2="76.6699%">
  </linearGradient>
  <linearGradient id="id10" gradientUnits="objectBoundingBox" xlink:href="#id0" x1="15.4206%" y1="0%" x2="84.5794%" y2="115.421%">
  </linearGradient>
  <linearGradient id="id11" gradientUnits="objectBoundingBox" xlink:href="#id0" x1="0%" y1="23.3301%" x2="123.33%" y2="76.67%">
  </linearGradient>
  <linearGradient id="id12" gradientUnits="objectBoundingBox" xlink:href="#id0" x1="0%" y1="23.3301%" x2="123.33%" y2="76.6699%">
  </linearGradient>
  <linearGradient id="id13" gradientUnits="objectBoundingBox" xlink:href="#id0" x1="0%" y1="23.3301%" x2="123.33%" y2="76.6699%">
  </linearGradient>
  <linearGradient id="id14" gradientUnits="objectBoundingBox" xlink:href="#id0" x1="0%" y1="23.3301%" x2="123.33%" y2="76.6699%">
  </linearGradient>
  <linearGradient id="id15" gradientUnits="objectBoundingBox" xlink:href="#id0" x1="0%" y1="23.3301%" x2="123.33%" y2="76.6699%">
  </linearGradient>
  <linearGradient id="id16" gradientUnits="objectBoundingBox" xlink:href="#id0" x1="0%" y1="23.3301%" x2="123.33%" y2="76.6699%">
  </linearGradient>
  <linearGradient id="id17" gradientUnits="objectBoundingBox" xlink:href="#id0" x1="0%" y1="23.3301%" x2="123.33%" y2="76.6699%">
  </linearGradient>
  <linearGradient id="id18" gradientUnits="objectBoundingBox" xlink:href="#id0" x1="0%" y1="23.3301%" x2="123.33%" y2="76.6699%">
  </linearGradient>
  <linearGradient id="id19" gradientUnits="objectBoundingBox" xlink:href="#id0" x1="0%" y1="23.3301%" x2="123.33%" y2="76.6699%">
  </linearGradient>
  <linearGradient id="id20" gradientUnits="objectBoundingBox" xlink:href="#id0" x1="0%" y1="23.3301%" x2="123.33%" y2="76.67%">
  </linearGradient>
  <linearGradient id="id21" gradientUnits="objectBoundingBox" xlink:href="#id0" x1="0%" y1="23.3301%" x2="123.33%" y2="76.6699%">
  </linearGradient>
  <linearGradient id="id22" gradientUnits="objectBoundingBox" xlink:href="#id0" x1="0%" y1="23.3301%" x2="123.33%" y2="76.6699%">
  </linearGradient>
  <linearGradient id="id23" gradientUnits="objectBoundingBox" xlink:href="#id0" x1="0%" y1="23.3301%" x2="123.33%" y2="76.6699%">
  </linearGradient>
  <linearGradient id="id24" gradientUnits="objectBoundingBox" xlink:href="#id0" x1="0%" y1="23.3301%" x2="123.33%" y2="76.6699%">
  </linearGradient>
  <linearGradient id="id25" gradientUnits="objectBoundingBox" xlink:href="#id0" x1="0%" y1="23.3301%" x2="123.33%" y2="76.6699%">
  </linearGradient>
  <linearGradient id="id26" gradientUnits="objectBoundingBox" xlink:href="#id0" x1="0%" y1="23.3301%" x2="123.33%" y2="76.6699%">
  </linearGradient>
  <linearGradient id="id27" gradientUnits="objectBoundingBox" xlink:href="#id0" x1="0%" y1="23.3301%" x2="123.33%" y2="76.6699%">
  </linearGradient>
  <linearGradient id="id28" gradientUnits="objectBoundingBox" xlink:href="#id0" x1="0%" y1="23.3301%" x2="123.33%" y2="76.6699%">
  </linearGradient>
  <linearGradient id="id29" gradientUnits="userSpaceOnUse" xlink:href="#id0" x1="143206" y1="122253.8" x2="64570.5" y2="156579.3">
  </linearGradient>
 </defs>
 <g id="Camada_x0020_1">
  <metadata id="CorelCorpID_0Corel-Layer"/>
  <g id="_2397834936080">
   <g>
    <path class="fil0 str0" d="M114551.7 174779.1l0 0c0,2740.1 -3080,4962.9 -6880,4962.9 -3800,0 -6880,-2222.9 -6880,-4962.9l0 0c0,0 -42988.5,1728.6 -42988.5,1728.6l11157.1 -69468.5 77425.6 0.1 11417.2 70045.7 -43251.4 -2305.8 0 -0.1z"/>
    <g>
     <path class="fil1 str1" d="M71748.8 108127.8c3037.2,705.7 5954.3,1905.7 9108.6,2117.1 4474.3,300 9314.2,-1942.8 13454.2,-599.9l8057.2 2619.9 0 60260 -40028.5 1977.1 9408.5 -66374.2z"/>
     <path class="fil2 str1" d="M72188.9 107845c3037.1,705.6 5954.2,1905.7 9108.5,2117.1 4474.3,300 9314.3,-1942.9 13454.3,-599.9l8057.2 2619.9 0 60260 -40028.5 1977.1 9408.5 -66374.2z"/>
     <path class="fil3 str1" d="M72634.5 107519.3c3037.2,705.7 5954.3,1905.7 9108.6,2117.1 4474.3,300 9314.2,-1942.8 13454.2,-599.9l8057.2 2619.9 0 60260 -40028.5 1977.1 9408.5 -66374.2z"/>
     <path class="fil4 str1" d="M73074.6 107167.8c3037.1,705.7 5954.3,1905.7 9108.5,2117.2 4474.3,299.9 9314.3,-1942.9 13454.3,-600l8057.2 2619.9 0 60260 -40028.5 1977.1 9408.5 -66374.2z"/>
     <path class="fil5 str1" d="M73446 106876.3c3037.1,705.7 5954.2,1905.8 9108.5,2117.2 4474.3,300 9314.3,-1942.9 13454.2,-600l8057.2 2620 0 60260 -40028.5 1977.1 9408.6 -66374.3z"/>
     <path class="fil6 str1" d="M73888.9 106593.5c3037.1,705.7 5954.3,1905.7 9108.6,2117.2 4474.3,300 9314.2,-1942.9 13454.2,-600l8057.2 2620 0 60259.9 -40028.5 1977.2 9408.5 -66374.3z"/>
     <path class="fil7 str1" d="M74331.8 106267.8c3037.1,705.7 5954.2,1905.8 9108.5,2117.2 4474.3,300 9314.3,-1942.9 13454.2,-600l8057.2 2620 0 60260 -40028.5 1977.1 9408.6 -66374.3z"/>
     <path class="fil8 str1" d="M74771.7 105919.2c3037.1,705.7 5954.3,1905.8 9108.5,2117.2 4474.4,300 9314.3,-1942.9 13454.3,-600l8057.2 2620 0 60260 -40028.5 1977.1 9408.5 -66374.3z"/>
     <path class="fil9 str1" d="M75177.4 105619.2c3037.1,705.7 5954.3,1905.8 9108.6,2117.2 4474.3,300 9314.2,-1942.9 13454.2,-599.9l8057.2 2619.9 0 60260 -40028.5 1977.1 9408.5 -66374.3z"/>
     <path class="fil10 str1" d="M75523.2 105379.2c3037.1,705.7 5954.2,1905.7 9108.5,2117.2 4474.3,300 9314.3,-1942.9 13454.3,-600l8057.1 2620 0 60259.9 -40028.4 1977.2 9408.5 -66374.3z"/>
     <path class="fil11 str1" d="M75880.3 105067.8c3037.1,705.6 5954.3,1905.7 9108.5,2117.1 4474.3,300 9314.3,-1942.9 13454.3,-599.9l8057.2 2619.9 0 60260 -40028.5 1977.1 9408.5 -66374.2z"/>
     <path class="fil12 str1" d="M76214.6 104802.1c3037.1,705.7 5954.3,1905.8 9108.6,2117.2 4474.3,300 9314.2,-1942.9 13454.2,-600l8057.2 2620 0 60260 -40028.5 1977.1 9408.5 -66374.3z"/>
     <path class="fil13 str1" d="M76640.3 104522.1c3037.1,705.7 5954.3,1905.7 9108.5,2117.2 4474.3,300 9314.3,-1942.9 13454.3,-600l8057.2 2620 0 60260 -40028.5 1977.1 9408.5 -66374.3z"/>
     <path class="fil14 str1" d="M77054.5 104210.7c3037.2,705.7 5954.3,1905.7 9108.6,2117.2 4474.3,299.9 9314.2,-1942.9 13454.2,-600l8057.2 2619.9 0 60260 -40028.5 1977.1 9408.5 -66374.2z"/>
    </g>
    <g>
     <path class="fil15 str1" d="M143597.4 108127.8c-3037.2,705.7 -5954.3,1905.7 -9108.6,2117.1 -4474.3,300 -9314.2,-1942.8 -13454.2,-599.9l-8057.2 2619.9 0 60260 40028.5 1977.1 -9408.5 -66374.2z"/>
     <path class="fil16 str1" d="M143157.3 107845c-3037.1,705.6 -5954.3,1905.7 -9108.5,2117.1 -4474.3,300 -9314.3,-1942.9 -13454.3,-599.9l-8057.2 2619.9 0 60260 40028.5 1977.1 -9408.5 -66374.2z"/>
     <path class="fil17 str1" d="M142711.6 107519.3c-3037.1,705.7 -5954.2,1905.7 -9108.5,2117.1 -4474.3,300 -9314.2,-1942.8 -13454.2,-599.9l-8057.2 2619.9 0 60260 40028.5 1977.1 -9408.6 -66374.2z"/>
     <path class="fil18 str1" d="M142271.6 107167.8c-3037.1,705.7 -5954.3,1905.7 -9108.5,2117.2 -4474.3,299.9 -9314.3,-1942.9 -13454.3,-600l-8057.2 2619.9 0 60260 40028.5 1977.1 -9408.5 -66374.2z"/>
     <path class="fil19 str1" d="M141900.2 106876.3c-3037.1,705.7 -5954.2,1905.8 -9108.5,2117.2 -4474.3,300 -9314.3,-1942.9 -13454.2,-600l-8057.2 2620 0 60260 40028.5 1977.1 -9408.6 -66374.3z"/>
     <path class="fil20 str1" d="M141457.4 106593.5c-3037.1,705.7 -5954.3,1905.7 -9108.6,2117.2 -4474.3,300 -9314.2,-1942.9 -13454.2,-600l-8057.2 2620 0 60259.9 40028.5 1977.2 -9408.5 -66374.3z"/>
     <path class="fil21 str1" d="M141011.6 106267.8c-3037.1,705.7 -5954.2,1905.8 -9108.5,2117.2 -4474.3,300 -9314.3,-1942.9 -13454.3,-600l-8057.1 2620 0 60260 40028.4 1977.1 -9408.5 -66374.3z"/>
     <path class="fil22 str1" d="M140574.5 105919.2c-3037.1,705.7 -5954.3,1905.8 -9108.6,2117.2 -4474.3,300 -9314.2,-1942.9 -13454.2,-600l-8057.2 2620 0 60260 40028.5 1977.1 -9408.5 -66374.3z"/>
     <path class="fil23 str1" d="M140168.8 105619.2c-3037.1,705.7 -5954.3,1905.8 -9108.6,2117.2 -4474.3,300 -9314.2,-1942.9 -13454.2,-599.9l-8057.2 2619.9 0 60260 40028.5 1977.1 -9408.5 -66374.3z"/>
     <path class="fil24 str1" d="M139823 105379.2c-3037.1,705.7 -5954.2,1905.7 -9108.5,2117.2 -4474.3,300 -9314.3,-1942.9 -13454.3,-600l-8057.2 2620 0 60259.9 40028.5 1977.2 -9408.5 -66374.3z"/>
     <path class="fil25 str1" d="M139465.9 105067.8c-3037.1,705.6 -5954.3,1905.7 -9108.5,2117.1 -4474.3,300 -9314.3,-1942.9 -13454.3,-599.9l-8057.2 2619.9 0 60260 40028.5 1977.1 -9408.5 -66374.2z"/>
     <path class="fil26 str1" d="M139131.7 104802.1c-3037.1,705.7 -5954.3,1905.8 -9108.6,2117.2 -4474.3,300 -9314.2,-1942.9 -13454.2,-600l-8057.2 2620 0 60260 40028.5 1977.1 -9408.5 -66374.3z"/>
     <path class="fil27 str1" d="M138705.9 104522.1c-3037.1,705.7 -5954.3,1905.7 -9108.5,2117.2 -4474.4,300 -9314.3,-1942.9 -13454.3,-600l-8057.2 2620 0 60260 40028.5 1977.1 -9408.5 -66374.3z"/>
     <path class="fil28 str1" d="M138291.7 104210.7c-3037.2,705.7 -5954.3,1905.7 -9108.6,2117.2 -4474.3,299.9 -9314.2,-1942.9 -13454.2,-600l-8057.2 2619.9 0 60260 40028.5 1977.1 -9408.5 -66374.2z"/>
    </g>
    <path class="fil0 str0" d="M114551.7 174779.1l0 0c0,2740.1 -3080,4962.9 -6880,4962.9 -3800,0 -6880,-2222.9 -6880,-4962.9l0 0c0,0 -42988.5,1728.6 -42988.5,1728.6l11157.1 -69468.5 77425.6 0.1 11417.2 70045.7 -43251.4 -2305.8 0 -0.1z"/>
    <g>
     <path class="fil1 str1" d="M71748.8 108127.8c3037.2,705.7 5954.3,1905.7 9108.6,2117.1 4474.3,300 9314.2,-1942.8 13454.2,-599.9l8057.2 2619.9 0 60260 -40028.5 1977.1 9408.5 -66374.2z"/>
     <path class="fil2 str1" d="M72188.9 107845c3037.1,705.6 5954.2,1905.7 9108.5,2117.1 4474.3,300 9314.3,-1942.9 13454.3,-599.9l8057.2 2619.9 0 60260 -40028.5 1977.1 9408.5 -66374.2z"/>
     <path class="fil3 str1" d="M72634.5 107519.3c3037.2,705.7 5954.3,1905.7 9108.6,2117.1 4474.3,300 9314.2,-1942.8 13454.2,-599.9l8057.2 2619.9 0 60260 -40028.5 1977.1 9408.5 -66374.2z"/>
     <path class="fil4 str1" d="M73074.6 107167.8c3037.1,705.7 5954.3,1905.7 9108.5,2117.2 4474.3,299.9 9314.3,-1942.9 13454.3,-600l8057.2 2619.9 0 60260 -40028.5 1977.1 9408.5 -66374.2z"/>
     <path class="fil5 str1" d="M73446 106876.3c3037.1,705.7 5954.2,1905.8 9108.5,2117.2 4474.3,300 9314.3,-1942.9 13454.2,-600l8057.2 2620 0 60260 -40028.5 1977.1 9408.6 -66374.3z"/>
     <path class="fil6 str1" d="M73888.9 106593.5c3037.1,705.7 5954.3,1905.7 9108.6,2117.2 4474.3,300 9314.2,-1942.9 13454.2,-600l8057.2 2620 0 60259.9 -40028.5 1977.2 9408.5 -66374.3z"/>
     <path class="fil7 str1" d="M74331.8 106267.8c3037.1,705.7 5954.2,1905.8 9108.5,2117.2 4474.3,300 9314.3,-1942.9 13454.2,-600l8057.2 2620 0 60260 -40028.5 1977.1 9408.6 -66374.3z"/>
     <path class="fil8 str1" d="M74771.7 105919.2c3037.1,705.7 5954.3,1905.8 9108.5,2117.2 4474.4,300 9314.3,-1942.9 13454.3,-600l8057.2 2620 0 60260 -40028.5 1977.1 9408.5 -66374.3z"/>
     <path class="fil9 str1" d="M75177.4 105619.2c3037.1,705.7 5954.3,1905.8 9108.6,2117.2 4474.3,300 9314.2,-1942.9 13454.2,-599.9l8057.2 2619.9 0 60260 -40028.5 1977.1 9408.5 -66374.3z"/>
     <path class="fil10 str1" d="M75523.2 105379.2c3037.1,705.7 5954.2,1905.7 9108.5,2117.2 4474.3,300 9314.3,-1942.9 13454.3,-600l8057.1 2620 0 60259.9 -40028.4 1977.2 9408.5 -66374.3z"/>
     <path class="fil11 str1" d="M75880.3 105067.8c3037.1,705.6 5954.3,1905.7 9108.5,2117.1 4474.3,300 9314.3,-1942.9 13454.3,-599.9l8057.2 2619.9 0 60260 -40028.5 1977.1 9408.5 -66374.2z"/>
     <path class="fil12 str1" d="M76214.6 104802.1c3037.1,705.7 5954.3,1905.8 9108.6,2117.2 4474.3,300 9314.2,-1942.9 13454.2,-600l8057.2 2620 0 60260 -40028.5 1977.1 9408.5 -66374.3z"/>
     <path class="fil13 str1" d="M76640.3 104522.1c3037.1,705.7 5954.3,1905.7 9108.5,2117.2 4474.3,300 9314.3,-1942.9 13454.3,-600l8057.2 2620 0 60260 -40028.5 1977.1 9408.5 -66374.3z"/>
     <path class="fil14 str1" d="M77054.5 104210.7c3037.2,705.7 5954.3,1905.7 9108.6,2117.2 4474.3,299.9 9314.2,-1942.9 13454.2,-600l8057.2 2619.9 0 60260 -40028.5 1977.1 9408.5 -66374.2z"/>
    </g>
    <g>
     <path class="fil15 str1" d="M143597.4 108127.8c-3037.2,705.7 -5954.3,1905.7 -9108.6,2117.1 -4474.3,300 -9314.2,-1942.8 -13454.2,-599.9l-8057.2 2619.9 0 60260 40028.5 1977.1 -9408.5 -66374.2z"/>
     <path class="fil16 str1" d="M143157.3 107845c-3037.1,705.6 -5954.3,1905.7 -9108.5,2117.1 -4474.3,300 -9314.3,-1942.9 -13454.3,-599.9l-8057.2 2619.9 0 60260 40028.5 1977.1 -9408.5 -66374.2z"/>
     <path class="fil17 str1" d="M142711.6 107519.3c-3037.1,705.7 -5954.2,1905.7 -9108.5,2117.1 -4474.3,300 -9314.2,-1942.8 -13454.2,-599.9l-8057.2 2619.9 0 60260 40028.5 1977.1 -9408.6 -66374.2z"/>
     <path class="fil18 str1" d="M142271.6 107167.8c-3037.1,705.7 -5954.3,1905.7 -9108.5,2117.2 -4474.3,299.9 -9314.3,-1942.9 -13454.3,-600l-8057.2 2619.9 0 60260 40028.5 1977.1 -9408.5 -66374.2z"/>
     <path class="fil19 str1" d="M141900.2 106876.3c-3037.1,705.7 -5954.2,1905.8 -9108.5,2117.2 -4474.3,300 -9314.3,-1942.9 -13454.2,-600l-8057.2 2620 0 60260 40028.5 1977.1 -9408.6 -66374.3z"/>
     <path class="fil20 str1" d="M141457.4 106593.5c-3037.1,705.7 -5954.3,1905.7 -9108.6,2117.2 -4474.3,300 -9314.2,-1942.9 -13454.2,-600l-8057.2 2620 0 60259.9 40028.5 1977.2 -9408.5 -66374.3z"/>
     <path class="fil21 str1" d="M141011.6 106267.8c-3037.1,705.7 -5954.2,1905.8 -9108.5,2117.2 -4474.3,300 -9314.3,-1942.9 -13454.3,-600l-8057.1 2620 0 60260 40028.4 1977.1 -9408.5 -66374.3z"/>
     <path class="fil22 str1" d="M140574.5 105919.2c-3037.1,705.7 -5954.3,1905.8 -9108.6,2117.2 -4474.3,300 -9314.2,-1942.9 -13454.2,-600l-8057.2 2620 0 60260 40028.5 1977.1 -9408.5 -66374.3z"/>
     <path class="fil23 str1" d="M140168.8 105619.2c-3037.1,705.7 -5954.3,1905.8 -9108.6,2117.2 -4474.3,300 -9314.2,-1942.9 -13454.2,-599.9l-8057.2 2619.9 0 60260 40028.5 1977.1 -9408.5 -66374.3z"/>
     <path class="fil24 str1" d="M139823 105379.2c-3037.1,705.7 -5954.2,1905.7 -9108.5,2117.2 -4474.3,300 -9314.3,-1942.9 -13454.3,-600l-8057.2 2620 0 60259.9 40028.5 1977.2 -9408.5 -66374.3z"/>
     <path class="fil25 str1" d="M139465.9 105067.8c-3037.1,705.6 -5954.3,1905.7 -9108.5,2117.1 -4474.3,300 -9314.3,-1942.9 -13454.3,-599.9l-8057.2 2619.9 0 60260 40028.5 1977.1 -9408.5 -66374.2z"/>
     <path class="fil26 str1" d="M139131.7 104802.1c-3037.1,705.7 -5954.3,1905.8 -9108.6,2117.2 -4474.3,300 -9314.2,-1942.9 -13454.2,-600l-8057.2 2620 0 60260 40028.5 1977.1 -9408.5 -66374.3z"/>
     <path class="fil27 str1" d="M138705.9 104522.1c-3037.1,705.7 -5954.3,1905.7 -9108.5,2117.2 -4474.4,300 -9314.3,-1942.9 -13454.3,-600l-8057.2 2620 0 60260 40028.5 1977.1 -9408.5 -66374.3z"/>
     <path class="fil28 str1" d="M138291.7 104210.7c-3037.2,705.7 -5954.3,1905.7 -9108.6,2117.2 -4474.3,299.9 -9314.2,-1942.9 -13454.2,-600l-8057.2 2619.9 0 60260 40028.5 1977.1 -9408.5 -66374.2z"/>
    </g>
   </g>
   <g>
    <path class="fil29 str2" d="M92412.7 156462.7l5132.9 -7460.1 9022.6 -13190 11014 -15871.7 3872.6 -5543 8188.8 -11598.3c-118.7,66.3 -202.3,42.2 -262.7,1.4l-5325.9 7089.4 -9394.3 12588.4 -7352.5 10075.2 -6175.9 8540 -14540.7 20115.8c-1204.6,1662.2 -10455.6,13401.5 -11306.9,16107.8 -40.5,128.9 561.7,-257 997.5,-103.6 479.1,168.5 799.5,872.3 829.9,906 34.1,30.6 9285.9,-13521.9 9510,-13782 1325.5,-1538.2 5423.8,-7348.4 5790.6,-7875.3z"/>
    <path class="fil30 str2" d="M92695 156656.6l5132.9 -7460.1 1.3 0.1 9022.7 -13189.9 -0.5 -0.3 11012.9 -15870.3 -0.4 -0.3 3870.9 -5540.5 0.5 0.4 9061.4 -12834.3 -1282.1 716.7 -211.9 -143.3 -5522 7350.5c-5632.9,7548.2 -11199.3,15061.3 -16749.9,22667.3l-0.2 1.3 -6175.9 8540 -14540 20114.8 -0.5 -0.3c-226.8,312.9 -737,980.7 -1421.9,1877.2 -2976.2,3895.5 -9226.8,12076.8 -9935.2,14329 -76,241.2 10,385 233.4,455.9l1.4 0.1c129.5,40.7 240.1,3.9 392.2,-46.7 163.1,-54.2 426.5,-141.8 584.7,-86.1 283.8,99.7 528.9,544.5 609.9,691.5 28.1,50.9 46.1,83.7 79.2,120.3l16.5 18.3 6.5 5.9c173.5,158.7 334.3,145.4 490.7,-28.6 128.6,-143.4 2628.5,-3785.7 5039.4,-7298.3 2224.6,-3241.1 4373,-6371.3 4471.1,-6485.1 467.5,-542.6 1282.5,-1619.7 2158.9,-2811.6 1618.5,-2201.3 3418.1,-4753.6 3653.8,-5092.3l0.2 -1.3zm4567.9 -7847.4l-5131.8 7458.6 -0.6 -0.4c-239.8,344.6 -2054.8,2919.8 -3641.3,5077.6 -860.8,1170.6 -1662.9,2230.5 -2127.1,2769.2 -115.3,133.8 -2277.2,3283.6 -4515.7,6544.9 -1964.9,2862.9 -3989,5811.9 -4711.8,6845.5 -173.3,-238.7 -422.2,-503 -739,-614.4 -182.9,-64.4 -371,-66.7 -544.4,-42.5 1338.9,-2751.6 6853.8,-9970.1 9586.4,-13546.8 690.3,-903.6 1204.5,-1576.7 1431.4,-1889.7l0.1 -1.3 14540.7 -20115.8 6175.2 -8539 0.6 0.4 7352.5 -10075.2 4899.9 -6566.3 -2536.5 3630.5 -1.4 1.2 -11014 15871.7 -1.5 1.2 -9022.7 13189.9 1 0.7z"/>
    <path class="fil31 str2" d="M87776.7 163265.5c-3556.1,4841.7 -6844.5,9997.2 -10218.2,14986.5 -507,750.4 -1647.4,1505.6 -2326.6,1031.1 -336.3,-234.8 -522.7,-596.1 -567.3,-1003.8 -114.5,-1077.1 443.7,-1862.8 1045.1,-2689.8l4837.5 -6669.4 5187.9 -7028.7c-2255.8,-1243.7 -4026.4,-3899.2 -4731.4,-6364.9 1094.1,990.1 1868.5,2001 3078.9,2861.1 -1223.6,-2717.9 -2476.4,-5412.5 -1303.1,-8345.7 636.6,-1592.6 1388.5,-3203.6 2620,-4404.6l1039.1 -1011.4c88,-888.5 578,-1577.6 1146.9,-2241.1l1267.9 -1478 1567.1 -1972.6c718.8,1729.3 1047.4,3369 2059.8,4935.2 -452.5,-2485.7 -882.9,-4846.3 -1000.3,-7401l5179.2 -9030.2c690,-1202.8 1362,-2328.4 2281.9,-3423.1 912.3,2429.6 1598.7,4728.6 2881.7,6966.8 -750.5,-2940 -1478.6,-5834.8 -1587.8,-8878.7l2340.3 -2491.9c914.6,-973.4 1953,-1736.2 3205.6,-2294.8 1039.4,-2399.8 2919.5,-4260.9 5338.8,-5236.5 339.1,-136.2 519.2,-446.7 687.8,-768 1890.4,-3601.8 5295.7,-6726.9 9377.7,-6700.8 1124,-1316.8 2406,-2347.7 4050.8,-2800.8 263.5,-71.4 528.2,-149.3 740.7,-357.3 1106.5,-1085.4 2451.9,-1946.6 3991.1,-2187.3 1624.7,-254.8 2817.2,865.5 2940.6,2464.6 110.5,1418.1 -193.1,2826.9 -830.9,4112.1 -359.6,724.7 -395.3,1385.1 -412.8,2148.4 -30.3,1351.4 -657.1,2540.8 -1317.8,3758.4 318.3,1573.1 458.6,3155.7 -18.2,4714 -709.7,2321.8 -2061.4,4299.4 -3855.3,5943 -204.9,187.6 -4119.2,1202.2 -4335.4,1381.2 -7.7,172.3 3683.4,-488 3666.5,-318.7 -253.2,2533.2 -1521.3,4718.6 -3555.4,6329.5 -633.2,2813.7 -1912.7,5314.4 -3731.9,7544.3 -511,625.8 -1191.4,1102.8 -1647.2,1741.7 -79.1,111.1 -5255.6,671.2 -5319.1,793.9 -112.1,215.8 4879,-12.7 4765.9,201.8 -1697.8,3218.6 -3528.9,6283.1 -5746.6,9171 -464.3,605.5 -847,994.9 -1610.9,1185.9 -2806.7,694.7 -5606.7,812.8 -8696.1,898.1 2431.8,993.6 4941.6,1183.6 7558.9,1350.7l-5480.3 7176.2 -4687.6 372.7c1233.2,469.1 2435,638.5 3696.5,874.1l-836.9 875.2c-1775.2,1854.1 -4143.7,2647.9 -6690.3,2276.2l-2264.8 -330.8c969.8,905.2 2056.9,1432.1 3148.3,2124.5 84.9,105.1 7.9,224.2 -129.1,176.4 -1933.4,-234.2 -3751.3,-757.5 -5447.5,-1979.3l25.9 2577.1 -1214.8 -2834.5c-126.6,-293.2 -112.4,-464 -164.8,-728z"/>
    <path class="fil29" d="M92412.7 156462.7l5132.9 -7460.1 9022.6 -13190 11014 -15871.7 3872.6 -5543 8188.8 -11598.3c-118.7,66.3 -202.3,42.2 -262.7,1.4l-5325.9 7089.4 -9394.3 12588.4 -7352.5 10075.2 -6175.9 8540 -14540.7 20115.8c-1204.6,1662.2 -10455.6,13401.5 -11306.9,16107.8 -40.5,128.9 561.7,-257 997.5,-103.6 479.1,168.5 799.5,872.3 829.9,906 34.1,30.6 9285.9,-13521.9 9510,-13782 1325.5,-1538.2 5423.8,-7348.4 5790.6,-7875.3z"/>
   </g>
  </g>
 </g>
</svg>