<?xml version="1.0" encoding="UTF-8"?>
<svg id="Camada_1" xmlns="http://www.w3.org/2000/svg" version="1.1" viewBox="0 0 330.8 361.9">
  <!-- Generator: Adobe Illustrator 30.6.0, SVG Export Plug-In . SVG Version: 2.1.4 Build 109)  -->
  <defs>
    <style>
      .st0 {
        fill: none;
        stroke: #000;
        stroke-linecap: round;
        stroke-linejoin: round;
        stroke-width: 18.5px;
      }
    </style>
  </defs>
  <g id="Objeto_generativo">
    <g>
      <path d="M101.3,227c1.6-1.6,3.7-2.2,5.9-1.8s3.4,1.6,4.5,3.2l8.2,12.5c3.5,5.3,8.5,8.7,14.5,9.2,6.4.5,12.8-2,16.5-7.3l9.7-14.1c1.2-1.7,2.7-2.8,4.6-2.9s3.9.9,5.1,2.8l9.5,13.8c1.3,1.8,2.8,3.1,4.5,4.3,9.1,6.4,20.4,3.8,26.5-5.4l8.6-13c2.2-3.3,6.2-4.2,9.6-1.9,5.9,3.9,9.9,11.4,17.2,15.8s21.9,1.8,26.5-8.8l5.1-14.6,10.3,10.2c4.2,3.3,9.1,4.5,14.4,2.4l-.2,68.5c0,2.7-3.1,4.9-5.1,6.3-13.2,9-42.4,14.2-58.5,16.1-48.3,5.7-97.7,5.7-146.4,0-13.6-1.6-26.8-4.1-39.8-7.9s-22-7-24.3-14.3l-.2-68.9c5.6,2.4,10.9.9,15.2-2.7l9.2-8.9c.4-.4,1.1,0,1.2.4l3.7,11.2c2.3,6.8,7.5,11.8,14.6,13.3s11.9-.7,16.4-5l12.8-12.6Z"/>
      <path d="M145.7,236.5c-2.4,3.5-5.9,5.8-9.7,5.7s-7.4-2.5-9.7-6l-9.2-14.1c-4.8-6.3-13.1-7-19.4-2.4-10.7,7.8-15,20.4-26.4,16.2s-5.2-4.2-6.3-7.8l-3.9-12.8c-.8-2.6-2.9-4.5-4.8-4.9-3-.7-5.6,0-7.6,1.9l-10.1,9.6c-3,2.9-7.2,3.1-10.2,0s-3.2-5.2-3.6-8.4c-1-8.7-.7-17.7,1.4-26.3,3.4-13.9,44-21.5,57.9-23.9,21.1-3.6,42.3-5.5,63.9-6.2l.5,13.5c1.1,8.7,8.3,14.2,16.7,14.3,9.9.1,17.5-7.3,17.1-17.3l.3-10.6c23.8.8,46.5,3,69.4,7.2,14.7,2.7,35.1,7.3,47.1,15.7s5.3,5.1,6.1,9c2.4,11,.8,22.9-4.6,32.7-5,9-14.5-7.9-21-11s-8.5.1-9.7,4.3l-3.8,12.9c-1.1,3.6-2.9,6.6-6.1,8-11.5,4.8-17.1-9.8-27.1-16.5-7-4.7-15.3-2.9-19.9,4.1l-9.1,13.8c-2,3-5.1,4.9-8.4,5s-7-1.2-9.1-4.3l-9.5-13.8c-2.5-3.6-6.1-6.1-10.2-6.4s-8.6,1.5-11.4,4.8l-9.7,13.9Z"/>
      <path d="M326.6,308.7c5.5,6.1,5.6,14.2.4,20.2-15.4,18-64.4,25.9-87.8,28.7-50.8,6.2-112,5.8-163.1-2.2-19.8-3.1-69.6-12.6-75.6-32.8-3.4-11.6,10-20.8,20.6-25.6,0,5.4,2.1,9.9,6.2,13.1,18,14.2,63.3,19.6,86.8,21.4,49.5,3.7,112,2.9,159.1-8.4l10.3-3.1c11.1-3.3,27.5-10.3,26.3-23.2,6.5,3.1,12.2,6.5,16.9,11.7Z"/>
      <path d="M180.5,35c4.6,14.1,2.4,34.4-9.3,44.2l-.4.8c-.2.4-.3,0-.7-.2s6.9-8.4,3.8-21.4-4.8-13.6-8.4-20.2c-7.8,14.3-13.6,28-4.4,41.8-2.6-1.6-4.8-3.6-6.4-6.3-7.1-11.8-8.2-25.8-4.2-38.8,3.7-12,8.6-23.4,15-34.9,6.5,11.6,11.5,22.9,15,35Z"/>
    </g>
    <line class="st0" x1="164.9" y1="169.4" x2="165.4" y2="95.7"/>
  </g>
</svg>