<?xml version="1.0" encoding="UTF-8"?>
<svg id="Camada_1" data-name="Camada 1" xmlns="http://www.w3.org/2000/svg" viewBox="0 0 348.73 675.77">
  <defs>
    <style>
      .cls-1 {
        stroke-width: .5px;
      }

      .cls-1, .cls-2, .cls-3, .cls-4, .cls-5, .cls-6, .cls-7 {
        stroke-miterlimit: 22.93;
      }

      .cls-1, .cls-2, .cls-4, .cls-5, .cls-6, .cls-7 {
        fill-rule: evenodd;
      }

      .cls-1, .cls-2, .cls-5, .cls-6 {
        fill: #172b54;
      }

      .cls-1, .cls-6 {
        stroke: #35a6de;
      }

      .cls-2, .cls-3, .cls-4, .cls-5, .cls-7 {
        stroke: #172b54;
      }

      .cls-2, .cls-3, .cls-7 {
        stroke-width: .22px;
      }

      .cls-3 {
        fill: #00a8e8;
      }

      .cls-4 {
        fill: #35a6de;
      }

      .cls-5 {
        stroke-width: 2px;
      }

      .cls-6 {
        stroke-width: .25px;
      }

      .cls-7 {
        fill: #fff;
      }
    </style>
  </defs>
  <path class="cls-4" d="M76.48,157.72c-12.78-50.08,44.95-93.59,100.4-93.59s113.18,43.51,100.4,93.59l-50.2,196.79-23.08,90.49,30.61,71.75,7.65,17.92c31.16,5.66,54.99,33.1,54.99,65.83h-26.9l21.99,51.56H61.43l21.99-51.56h-30.92c0-34.22,26.04-62.65,59.28-66.46l7.38-17.29,30.61-71.75-23.08-90.49-50.2-196.79Z"/>
  <path class="cls-2" d="M76.21,157.82c-1.25-4.9-1.84-9.74-1.84-14.48,0-18.23,8.73-35.03,22.53-48.55,13.71-13.44,32.43-23.65,52.53-28.77,9.37-2.39,19.05-3.68,28.66-3.68s19.29,1.29,28.66,3.68c20.1,5.13,38.82,15.33,52.53,28.77,13.8,13.52,22.53,30.33,22.53,48.55,0,4.74-.59,9.58-1.84,14.48l-73.16,286.79,37.74,88.46c15.74,3.06,29.6,11.55,39.51,23.42,9.92,11.88,15.92,27.15,15.92,43.75v1.52h-26.13l21.99,51.56H60.34l21.99-51.56h-30.15v-1.52c0-17.4,6.58-33.34,17.38-45.44,10.73-12.03,25.63-20.28,42.37-22.42l37.44-87.76L76.21,157.82h0ZM77.41,143.34c0,4.5.56,9.09,1.75,13.73,24.47,95.92,48.87,191.87,73.41,287.77-12.84,30.11-25.7,60.22-38.54,90.33l-.88.1c-16.33,1.87-30.89,9.83-41.32,21.53-10,11.21-16.22,25.87-16.59,41.9h31.69l-22,51.56h226.31l-22-51.56h27.66c-.35-15.27-6.01-29.29-15.18-40.28-9.65-11.55-23.18-19.75-38.53-22.54l-.81-.15c-12.91-30.31-25.85-60.6-38.78-90.9,24.54-95.91,48.94-191.85,73.41-287.77,1.19-4.65,1.75-9.23,1.75-13.73,0-17.35-8.38-33.42-21.61-46.39-13.32-13.06-31.56-22.99-51.15-27.99-9.13-2.33-18.55-3.58-27.91-3.58s-18.78,1.26-27.91,3.58c-19.6,5-37.83,14.93-51.15,27.99-13.24,12.97-21.61,29.04-21.61,46.39Z"/>
  <path class="cls-2" d="M142.43,421.46h67.29c7.9,0,14.36,6.46,14.36,14.36h0c0,7.9-6.46,14.36-14.36,14.36h-67.29c-7.9,0-14.36-6.46-14.36-14.36h0c0-7.9,6.46-14.36,14.36-14.36Z"/>
  <path class="cls-2" d="M142.43,419.18h67.29c4.57,0,8.73,1.87,11.75,4.89h0c3.01,3.01,4.89,7.18,4.89,11.75s-1.87,8.74-4.89,11.75-7.18,4.89-11.75,4.89h-67.29c-4.58,0-8.74-1.87-11.75-4.89s-4.89-7.18-4.89-11.75,1.87-8.74,4.89-11.75h0c3.01-3.01,7.17-4.89,11.75-4.89h0ZM209.72,423.74h-67.29c-3.32,0-6.34,1.36-8.53,3.54-2.18,2.19-3.54,5.21-3.54,8.53s1.36,6.34,3.55,8.53c2.19,2.19,5.21,3.55,8.53,3.55h67.29c3.32,0,6.34-1.36,8.53-3.55,2.19-2.19,3.55-5.21,3.55-8.53s-1.36-6.34-3.55-8.53c-2.18-2.19-5.21-3.55-8.53-3.55Z"/>
  <path class="cls-7" d="M114.14,504.83h123.87c7.9,0,14.36,6.46,14.36,14.36h0c0,7.9-6.46,14.36-14.36,14.36h-123.87c-7.9,0-14.36-6.46-14.36-14.36h0c0-7.9,6.46-14.36,14.36-14.36Z"/>
  <path class="cls-7" d="M114.14,502.55h123.87c4.58,0,8.74,1.87,11.75,4.89,3.01,3.01,4.89,7.18,4.89,11.75s-1.87,8.74-4.89,11.75c-3.01,3.01-7.18,4.89-11.75,4.89h-123.87c-4.58,0-8.74-1.87-11.75-4.89-3.01-3.01-4.89-7.18-4.89-11.75s1.87-8.74,4.89-11.75c3.01-3.01,7.18-4.89,11.75-4.89h0ZM238.01,507.11h-123.87c-3.32,0-6.34,1.36-8.53,3.55-2.19,2.19-3.55,5.21-3.55,8.53s1.36,6.34,3.55,8.53,5.21,3.55,8.53,3.55h123.87c3.32,0,6.34-1.36,8.53-3.55s3.55-5.21,3.55-8.53-1.36-6.34-3.55-8.53c-2.19-2.19-5.21-3.55-8.53-3.55Z"/>
  <path class="cls-5" d="M114.14,504.83h123.87c7.9,0,14.36,6.46,14.36,14.36h0c0,7.9-6.46,14.36-14.36,14.36h-123.87c-7.9,0-14.36-6.46-14.36-14.36h0c0-7.9,6.46-14.36,14.36-14.36Z"/>
  <path class="cls-2" d="M114.14,502.55h123.87c4.58,0,8.74,1.87,11.75,4.89,3.01,3.01,4.89,7.18,4.89,11.75s-1.87,8.74-4.89,11.75c-3.01,3.01-7.18,4.89-11.75,4.89h-123.87c-4.58,0-8.74-1.87-11.75-4.89-3.01-3.01-4.89-7.18-4.89-11.75s1.87-8.74,4.89-11.75c3.01-3.01,7.18-4.89,11.75-4.89h0ZM238.01,507.11h-123.87c-3.32,0-6.34,1.36-8.53,3.55-2.19,2.19-3.55,5.21-3.55,8.53s1.36,6.34,3.55,8.53,5.21,3.55,8.53,3.55h123.87c3.32,0,6.34-1.36,8.53-3.55s3.55-5.21,3.55-8.53-1.36-6.34-3.55-8.53c-2.19-2.19-5.21-3.55-8.53-3.55Z"/>
  <path class="cls-2" d="M38.27,600.36h276.19c7.9,0,14.36,6.46,14.36,14.36h0c0,7.9-6.46,14.36-14.36,14.36H38.27c-7.9,0-14.36-6.46-14.36-14.36h0c0-7.9,6.46-14.36,14.36-14.36Z"/>
  <path class="cls-2" d="M38.27,598.08h276.19c4.58,0,8.74,1.87,11.75,4.89,3.01,3.01,4.89,7.18,4.89,11.75s-1.87,8.74-4.89,11.75c-3.01,3.01-7.18,4.89-11.75,4.89H38.27c-4.58,0-8.74-1.87-11.75-4.89-3.01-3.01-4.89-7.18-4.89-11.75s1.87-8.74,4.89-11.75c3.01-3.01,7.18-4.89,11.75-4.89h0ZM314.47,602.64H38.27c-3.32,0-6.34,1.36-8.53,3.55-2.19,2.19-3.55,5.21-3.55,8.53s1.36,6.34,3.55,8.53,5.21,3.55,8.53,3.55h276.19c3.32,0,6.34-1.36,8.53-3.55,2.19-2.19,3.55-5.21,3.55-8.53s-1.36-6.34-3.55-8.53c-2.19-2.19-5.21-3.55-8.53-3.55Z"/>
  <path class="cls-2" d="M14.56,626.68h319.61c3.97,0,7.58,1.63,10.2,4.25,2.62,2.61,4.25,6.23,4.25,10.2v34.53H.11v-34.53c0-3.98,1.63-7.59,4.24-10.21,2.63-2.62,6.24-4.24,10.21-4.24h0ZM334.17,631.24H14.56c-2.72,0-5.2,1.11-6.98,2.9h0c-1.79,1.8-2.91,4.27-2.91,6.99v29.97h339.38v-29.97c0-2.72-1.11-5.19-2.91-6.98h0c-1.79-1.8-4.26-2.91-6.98-2.91Z"/>
  <path class="cls-6" d="M176.97,229.04c-9.46-5.34-18.76-13.92-23.33-24.02-3.78-8.35-4.37-17.71.68-27.15,2.41-4.51,5.55-12.23,7.99-18.51-3.01,5.34-5.81,12.38-7.32,16.18-.85,2.15-1.4,3.52-2.17,3.99l-.05.04c-1.28.72-2.28.44-3.05-.76l-.04-.06c-13.31-22.19-2.22-36.18,8.42-49.59,6.71-8.46,13.22-16.67,12.2-26.34-.09-.81-.3-1.4-.62-1.77-.27-.31-.67-.49-1.15-.52-.7-.05-1.56.16-2.52.61-2.07.99-4.36,3.05-6.37,6.15-4.33,6.7-7.52,16.45-9.01,21.01-.74,2.28-1.2,3.68-2.43,4.06h-.03c-1.46.44-2.38-.07-2.84-1.52-6.48-20.72-.96-36.54,3.23-48.56,1.85-5.31,3.43-9.82,3.43-13.42v-2.28l50.8-1.5,9.25,2.42c0,3.6-6.31,9.48-4.46,14.79,4.19,12.02,9.72,27.84,3.23,48.56-.46,1.45-1.38,1.96-2.84,1.53h-.03c-1.22-.39-1.68-1.79-2.42-4.07-1.49-4.56-4.67-14.31-9.01-21.01-2-3.1-4.29-5.16-6.37-6.15-.96-.46-1.82-.66-2.52-.61-.48.03-.88.21-1.15.52-.32.37-.53.96-.62,1.77-1.02,9.66,5.49,17.88,12.2,26.34,10.63,13.4,21.72,27.38,8.44,49.55-.73,1.28-1.89,1.59-3.16.83-.77-.46-1.32-1.84-2.17-3.99-1.51-3.81-4.3-10.84-7.32-16.18,2.44,6.28,5.58,13.99,7.99,18.5,5.05,9.44,4.45,18.8.68,27.15-4.57,10.1-13.86,18.69-23.33,24.02l-1.11-1.98-1.11,1.98h0ZM157.8,203.15c3.97,8.78,11.97,16.35,20.29,21.29,8.32-4.94,16.32-12.51,20.29-21.29,3.23-7.14,3.75-15.12-.53-23.14-3.82-7.15-9.27-21.69-11.3-27.09-.06-.17.55-.3,1.07-.4l.29-.11c-.13-.05-.27-.08-.4-.1l-2.61-.45,1.36-4.08h1.63c.25,0,.48.03.68.1,6.69,1.56,13.09,16.65,16.21,24.43,8.05-17.21-1.29-28.99-10.27-40.31-7.3-9.2-14.38-18.13-13.17-29.63.19-1.78.79-3.21,1.69-4.27,1.1-1.29,2.58-1.99,4.28-2.11,1.49-.11,3.13.24,4.81,1.04,2.76,1.32,5.73,3.93,8.22,7.79,3.44,5.32,6.14,12.22,7.95,17.38,2.89-15.83-1.53-28.49-4.99-38.41-1.65-4.74-3.1-8.89-3.55-12.64h-43.32c-.45,3.75-1.9,7.9-3.55,12.64-3.46,9.92-7.88,22.58-4.99,38.41,1.8-5.16,4.5-12.05,7.95-17.38,2.49-3.85,5.46-6.47,8.22-7.79,1.67-.8,3.32-1.15,4.8-1.04,1.71.12,3.19.82,4.28,2.11.9,1.06,1.5,2.48,1.69,4.27,1.22,11.5-5.87,20.43-13.16,29.63-8.98,11.33-18.32,23.1-10.27,40.31,3.09-7.71,9.41-22.61,16.04-24.39.24-.09.52-.14.85-.14h1.63l1.36,4.08-2.61.45c-.13.02-.27.06-.4.1l.33.12c.52.1,1.08.23,1.03.38-2.02,5.4-7.47,19.94-11.3,27.09-4.28,8.01-3.76,15.99-.53,23.14h0ZM168.15,152.45l.45.08-.33-.12-.12.04h0ZM188.01,152.45l-.1-.04-.29.11.39-.07Z"/>
  <path class="cls-5" d="M158.71,1h38.76c9.25,0,17.67,3.79,23.77,9.88,6.1,6.1,9.88,14.51,9.88,23.77s-3.79,17.67-9.88,23.77c-6.1,6.1-14.51,9.88-23.77,9.88h-38.76c-9.25,0-17.67-3.79-23.77-9.88-6.1-6.1-9.88-14.51-9.88-23.77s3.79-17.67,9.88-23.77c6.1-6.1,14.51-9.88,23.77-9.88h0ZM197.47,4.04h-38.76c-8.41,0-16.07,3.44-21.61,8.99-5.55,5.55-8.99,13.2-8.99,21.61s3.44,16.07,8.99,21.62c5.55,5.55,13.2,8.99,21.61,8.99h38.76c8.41,0,16.07-3.44,21.61-8.99,5.55-5.55,8.99-13.2,8.99-21.61s-3.44-16.07-8.99-21.62c-5.55-5.55-13.2-8.99-21.61-8.99Z"/>
  <path class="cls-1" d="M230.14,112.46l-.22,3.01c-.4,1.85-.81,3.69-1.22,5.54l-2.82-2.78c-27.06-26.67,6.06-20.3-19.49-43.97l-4.51-6.54,10.17-.22c27.99,6.83,61.8,31.43,67.71,60.68,9.17,16.27-14.34,86.58-19.38,106.38l-4.64-4.08c-21.86-21.76-12.16-45.43-4.21-64.85,2.94-7.17,5.62-13.73,6.2-19.13.44-4.14.16-6.49-.57-7.52-.15-.21-.35-.29-.59-.27-.63.06-1.44.47-2.36,1.12-3.46,2.48-7.28,7.82-8.66,12.32-3.69,12.04-6.4,14.53-9.84,17.69-1.19,1.1-2.49,2.29-3.92,4.06l-2.57,3.17-1.21-3.9c-.55-1.78-1.01-3.2-1.4-4.4-2.08-6.47-2.38-7.41-2.91-18.02-.54-10.82,4.41-19.42,8.98-27.38,5.44-9.47,10.31-17.94,2.85-27.79-4.38,2.22-4.9,9.81-5.4,16.88h0ZM225.8,111.87c.64-9.15,1.41-18.93,9.96-21l1.31-.32.87,1.03c10.76,12.69,5,22.71-1.47,33.96-4.27,7.42-8.88,15.44-8.4,25.01.5,10.04.78,10.91,2.71,16.89l.26.82c.6-.59,1.17-1.12,1.72-1.62,2.96-2.72,5.28-4.85,8.62-15.76,1.63-5.31,6.18-11.64,10.3-14.6,1.51-1.08,3.04-1.77,4.48-1.91,1.83-.18,3.41.44,4.58,2.1,1.3,1.85,1.9,5.19,1.34,10.5-.64,6-3.44,12.84-6.5,20.32-7.14,17.42-13.33,41.84,3.3,60.9,6.28-36.31,23.78-70.78,18.31-97.79-5.27-26.04-26.46-49.8-69.24-59.6,13.88,13.97,11.26,21.32,10.89,26.34-.25,3.4-.49,6.68,6.95,14.74Z"/>
  <path class="cls-3" d="M158.71,2.52h38.76c17.73,0,32.13,14.4,32.13,32.13h0c0,17.73-14.4,32.13-32.13,32.13h-38.76c-17.73,0-32.13-14.4-32.13-32.13h0c0-17.73,14.4-32.13,32.13-32.13Z"/>
  <path class="cls-1" d="M127.5,112.02l.22,3.01c.4,1.85.81,3.69,1.22,5.54l2.82-2.78c27.06-26.67-6.06-20.3,19.49-43.97l4.51-6.54-8.01-.83c-54.15,18.89-72.86,44.51-73.34,74.79-.3,19.08,12.77,58.39,21.51,93.82l5.98-5.02c21.86-21.76,12.16-45.43,4.21-64.85-2.94-7.17-5.62-13.73-6.2-19.13-.44-4.14-.16-6.49.57-7.52.15-.21.35-.29.59-.27.63.06,1.44.47,2.36,1.12,3.46,2.48,7.28,7.82,8.66,12.32,3.69,12.04,6.4,14.53,9.84,17.69,1.19,1.1,2.49,2.29,3.92,4.06l2.57,3.17,1.21-3.9c.55-1.78,1.01-3.2,1.4-4.4,2.08-6.47,2.38-7.41,2.91-18.02.54-10.82-4.41-19.42-8.98-27.38-5.44-9.47-10.31-17.94-2.85-27.79,4.38,2.22,4.9,9.81,5.4,16.88h0ZM131.85,111.43c-.64-9.15-1.41-18.93-9.96-21l-1.31-.32-.87,1.03c-10.76,12.69-5,22.71,1.47,33.96,4.27,7.42,8.88,15.44,8.4,25.01-.5,10.04-.78,10.91-2.71,16.9l-.26.82c-.6-.59-1.17-1.12-1.72-1.62-2.96-2.72-5.28-4.85-8.62-15.76-1.63-5.31-6.18-11.64-10.3-14.6-1.51-1.08-3.04-1.77-4.48-1.91-1.83-.18-3.41.45-4.58,2.1-1.3,1.85-1.91,5.19-1.34,10.5.64,6,3.44,12.84,6.5,20.32,7.14,17.42,13.33,41.84-3.3,60.9-6.28-36.31-23.78-70.78-18.31-97.79,5.27-26.04,26.46-49.8,69.23-59.6-13.88,13.97-11.26,21.32-10.89,26.34.25,3.4.49,6.68-6.95,14.74Z"/>
  <path class="cls-4" d="M14.56,628.96h319.61c6.69,0,12.17,5.48,12.17,12.17v32.25H2.39v-32.25c0-6.69,5.48-12.17,12.17-12.17Z"/>
</svg>