<?xml version="1.0" encoding="UTF-8"?>
<svg id="Camada_1" xmlns="http://www.w3.org/2000/svg" version="1.1" viewBox="0 0 279.07 521.12">
  <!-- Generator: Adobe Illustrator 30.6.0, SVG Export Plug-In . SVG Version: 2.1.4 Build 109)  -->
  <defs>
    <style>
      .st0 {
        fill: none;
        stroke: #00B0FF;
        stroke-linecap: round;
        stroke-linejoin: round;
        stroke-width: 12px;
      }
    </style>
  </defs>
  <g id="Objeto_generativo">
    <path class="st0" d="M168.88,54.46c15.24,3.49,28.56,12.19,39.95,23.59,9.68,9.68,14.8,21.91,13.64,35.37l-.74,8.63-11.95,46.17-38.62,154.92"/>
    <path class="st0" d="M116.46,323.23l-38.13-149.28-12.57-49.7c-4.18-16.55-.37-33,11.66-45.48,10.14-10.52,22.39-18.58,36.32-22.94l7.38-1.41c-1.39-1.77-3.67-2.88-5.83-4.09-9.84-5.49-13.97-15.52-11.88-26.01,1.96-9.83,11.16-18.35,21.9-18.32l37.32.11c12.47.04,21.63,11.76,21.44,23.36-.19,11.55-8.71,23.56-20.89,23.62l-40.04.2c-2.95.02,2.41,7.32-1.59,16.22-5.51,12.28-6.9,29.7-2.39,29.77,3.69.06,2.93-15,14-20.9,1.32-.7,2.83-1.17,3.99-.77s1.58,1.93,1.66,3.41c.81,14.25-12.11,22.32-18.25,33.78s-.52,22.63,2.27,18.07c4.38-7.16,9.19-17.79,12.59-14.62.9.84.82,2.59.16,3.8l-9.84,18.08c-6.67,12.25,3.13,29.27,17.47,34.05,4.57.08,8.37-4.74,11.51-7.47,7.96-6.91,10.58-17.09,6.36-26.72l-9.91-18.59c-.59-1.11-.41-2.46.07-3.2.61-.94,2.77-.83,3.65.48l12.19,18.1,2.13-11.93c-.8-17.03-21.68-25.97-21-42.36.06-1.54-.11-3.08.58-4.02,2.47-3.33,11.41,1.59,15.51,14.96l2.55,20.65,3.33-22.3c2.06-13.79-12.03-29.73-4.56-35.48"/>
    <path class="st0" d="M121.11,57.83c-12.28,9.49-5.41,23.31-12.7,31.36-.77.85-1.98,1.68-2.71,1.39-3.23-1.28.59-17.02-5.95-17.57-4.47-.37-8.74,13.31-1.51,22.38,6.62,8.31,10.08,17.47,7.99,28.2l-2.57,13.17-7.87-12.57c-2.56-6.45-4.8-12.76-10.85-16.84-1.27-.85-2.81-1.53-3.93-.62-3.18,2.62-.26,13.64,2.89,19.7,7.19,13.85,9.4,29.93,2.9,44.51-1.13,2.53-3.58,4.7-5.74,4.97"/>
    <path class="st0" d="M166.04,58.71c4.03,1.65,5.81,5.81,7.28,10.11l2.6,15.66,9.45,14.96-2.22-10.84c-1.43-6.97-.63-14.2,3.67-15.72s9.62,13.43,1.58,23.23c-7.37,8.98-9.8,19.63-6.87,31.05.56,2.18.11,5.11,2.81,6.22,4.43-3.72,7.03-8.74,8.92-14.2,2.46-7.1,9.98-14.33,12.84-12.18,3.77,2.83-1.07,15.77-4.85,23.7-5.45,11.43-6.43,23.89-2.71,35.99,1.24,4.05,3.23,7.74,6.89,9.37"/>
    <path class="st0" d="M167.08,324.64c1.82,0,2.86-1.44,4.05-1.04,3.1,1.04,9.04,6.81,8.19,13.55-.57,4.55-4.49,8.96-9.48,8.98l-52.07.12c-6.01.01-10.92-3.16-11.9-8.66-1.19-5.8,2.42-10.56,8.3-13.01l52.92.06Z"/>
    <line class="st0" x1="118.72" y1="348.51" x2="103.04" y2="385.1"/>
    <line class="st0" x1="167.83" y1="348.5" x2="182.78" y2="384.39"/>
    <path class="st0" d="M87.82,407.99c-4.76-3.74-6.3-10.4-3.18-15.66s9.57-7.59,15.68-4.6l85.55-.4c6.07-1.91,11.77,1.18,14.1,6.38s.34,11.3-4.33,14.57"/>
    <path class="st0" d="M45.73,457.87c3.14-22.36,17.73-41.85,40.72-46.88l101.17-.89c27.51-.24,46.08,21.96,50.32,47.77"/>
    <path class="st0" d="M26.67,478.64c-1.87-2.54-3.17-6-2.85-9.68.48-5.64,6.01-8.9,11.44-9.14l9.59-.42,193.68.63c6.1.02,16.99-2.9,21.07,7.15,1.51,3.73.49,8.2-2.66,11.44"/>
    <path class="st0" d="M15.75,481.63h247.53c5.1.8,9.22,4,9.32,9.07l.47,24.42-267.07-.22.5-22.11c.12-5.37,2.97-9.96,9.26-11.16Z"/>
  </g>
</svg>