<?xml version="1.0" encoding="UTF-8"?>
<!DOCTYPE svg PUBLIC "-//W3C//DTD SVG 1.1//EN" "http://www.w3.org/Graphics/SVG/1.1/DTD/svg11.dtd">
<!-- Creator: CorelDRAW (Versão OEM) -->
<svg xmlns="http://www.w3.org/2000/svg" xml:space="preserve" version="1.1" style="shape-rendering:geometricPrecision; text-rendering:geometricPrecision; image-rendering:optimizeQuality; fill-rule:evenodd; clip-rule:evenodd" viewBox="780.67 974.72 537.23 1020.66" xmlns:xlink="http://www.w3.org/1999/xlink" xmlns:xodm="http://www.corel.com/coreldraw/odm/2003" data-name="Camada 1">
 <defs>
  <style type="text/css">
   <![CDATA[
    .str0 {stroke:#1A1A1A;stroke-width:0.762;stroke-linecap:round;stroke-linejoin:round;stroke-miterlimit:22.9256}
    .str1 {stroke:#999999;stroke-width:0.762;stroke-linecap:round;stroke-linejoin:round;stroke-miterlimit:22.9256}
    .fil10 {fill:url(#id0)}
    .fil16 {fill:url(#id1)}
    .fil11 {fill:url(#id2)}
    .fil9 {fill:url(#id3)}
    .fil12 {fill:url(#id4)}
    .fil15 {fill:url(#id5)}
    .fil5 {fill:url(#id6)}
    .fil7 {fill:url(#id7)}
    .fil8 {fill:url(#id8)}
    .fil2 {fill:url(#id9)}
    .fil0 {fill:url(#id10)}
    .fil4 {fill:url(#id11)}
    .fil6 {fill:url(#id12)}
    .fil13 {fill:url(#id13)}
    .fil14 {fill:url(#id14)}
    .fil1 {fill:url(#id15)}
    .fil3 {fill:url(#id16)}
   ]]>
  </style>
  <linearGradient id="id0" gradientUnits="userSpaceOnUse" x1="791.002" y1="1985.052" x2="1307.572" y2="1985.052">
   <stop offset="0" style="stop-opacity:1; stop-color:#333333"/>
   <stop offset="0.25098" style="stop-opacity:1; stop-color:#666666"/>
   <stop offset="0.501961" style="stop-opacity:1; stop-color:#AAAAAA"/>
   <stop offset="0.8" style="stop-opacity:1; stop-color:#222222"/>
   <stop offset="1" style="stop-opacity:1; stop-color:#111111"/>
  </linearGradient>
  <linearGradient id="id1" gradientUnits="userSpaceOnUse" x1="794.382" y1="1981.673" x2="1304.192" y2="1981.673">
   <stop offset="0" style="stop-opacity:1; stop-color:#999999"/>
   <stop offset="0.301961" style="stop-opacity:1; stop-color:white"/>
   <stop offset="0.701961" style="stop-opacity:1; stop-color:#D4D4D4"/>
   <stop offset="1" style="stop-opacity:1; stop-color:#777777"/>
  </linearGradient>
  <linearGradient id="id2" gradientUnits="userSpaceOnUse" xlink:href="#id0" x1="1001.842" y1="1323.074" x2="1107.722" y2="1323.074">
  </linearGradient>
  <linearGradient id="id3" gradientUnits="userSpaceOnUse" xlink:href="#id0" x1="822.899" y1="1919.39" x2="1281.604" y2="1919.39">
  </linearGradient>
  <linearGradient id="id4" gradientUnits="userSpaceOnUse" xlink:href="#id0" x1="976.206" y1="1084.807" x2="1133.411" y2="1084.807">
  </linearGradient>
  <linearGradient id="id5" gradientUnits="userSpaceOnUse" xlink:href="#id0" x1="901.123" y1="1331.983" x2="1021.71" y2="1331.983">
  </linearGradient>
  <linearGradient id="id6" gradientUnits="userSpaceOnUse" x1="935.356" y1="1777.793" x2="1168.288" y2="1777.793">
   <stop offset="0" style="stop-opacity:1; stop-color:#888888"/>
   <stop offset="0.501961" style="stop-opacity:1; stop-color:#EEEEEE"/>
   <stop offset="1" style="stop-opacity:1; stop-color:#666666"/>
  </linearGradient>
  <linearGradient id="id7" gradientUnits="userSpaceOnUse" xlink:href="#id0" x1="935.356" y1="1777.793" x2="1168.288" y2="1777.793">
  </linearGradient>
  <linearGradient id="id8" gradientUnits="userSpaceOnUse" xlink:href="#id0" x1="826.279" y1="1916.01" x2="1278.223" y2="1916.01">
  </linearGradient>
  <linearGradient id="id9" gradientUnits="userSpaceOnUse" xlink:href="#id0" x1="980.668" y1="1650.84" x2="1122.976" y2="1650.84">
  </linearGradient>
  <linearGradient id="id10" gradientUnits="userSpaceOnUse" xlink:href="#id1" x1="868.655" y1="1950.072" x2="1231.43" y2="1950.072">
  </linearGradient>
  <linearGradient id="id11" gradientUnits="userSpaceOnUse" xlink:href="#id6" x1="938.735" y1="1774.413" x2="1164.907" y2="1774.413">
  </linearGradient>
  <linearGradient id="id12" gradientUnits="userSpaceOnUse" xlink:href="#id0" x1="938.735" y1="1774.413" x2="1164.907" y2="1774.413">
  </linearGradient>
  <linearGradient id="id13" gradientUnits="userSpaceOnUse" xlink:href="#id0" x1="1090.071" y1="1331.242" x2="1208.62" y2="1331.242">
  </linearGradient>
  <linearGradient id="id14" gradientUnits="userSpaceOnUse" x1="978.459" y1="1082.555" x2="1131.158" y2="1082.555">
   <stop offset="0" style="stop-opacity:1; stop-color:#CCCCCC"/>
   <stop offset="0.501961" style="stop-opacity:1; stop-color:white"/>
   <stop offset="1" style="stop-opacity:1; stop-color:#AAAAAA"/>
  </linearGradient>
  <linearGradient id="id15" gradientUnits="userSpaceOnUse" xlink:href="#id0" x1="868.181" y1="1951.939" x2="1235.478" y2="1951.939">
  </linearGradient>
  <linearGradient id="id16" gradientUnits="userSpaceOnUse" xlink:href="#id0" x1="977.287" y1="1654.219" x2="1126.355" y2="1654.219">
  </linearGradient>
 </defs>
 <g id="Camada_x0020_1">
  <metadata id="CorelCorpID_0Corel-Layer"/>
  <g id="_2353019138656" filter="url(#drop-shadow)">
   <path class="fil0 str0" d="M904.199 1217.348c-18.943,-74.23 66.626,-138.722 148.816,-138.722 82.189,0 167.757,64.491 148.815,138.722l-74.408 291.687 -34.209 134.127 45.37 106.35 11.34 26.561c46.186,8.389 81.507,49.062 81.507,97.575l-39.872 0 32.594 76.424 -342.26 0 32.594 -76.424 -45.83 0c0,-50.721 38.597,-92.861 87.866,-98.508l10.938 -25.628 45.371 -106.35 -34.21 -134.126 -74.407 -291.688 -0.015 0z"/>
   <path class="fil1 str0" d="M903.799 1217.496c-1.852,-7.263 -2.727,-14.437 -2.727,-21.463 0,-27.021 12.94,-51.922 33.395,-71.962 20.321,-19.921 48.068,-35.054 77.861,-42.644 13.888,-3.542 28.237,-5.454 42.481,-5.454 14.244,0 28.592,1.912 42.481,5.454 29.792,7.604 57.54,22.723 77.861,42.644 20.455,20.04 33.395,44.956 33.395,71.962 0,7.026 -0.875,14.2 -2.727,21.463l-108.44 425.088 55.94 131.118c23.33,4.535 43.874,17.119 58.562,34.713 14.704,17.609 23.598,40.242 23.598,64.847l0 2.254 -38.733 0 32.594 76.423 -349.063 0 32.594 -76.423 -44.689 0 0 -2.254c0,-25.791 9.753,-49.417 25.761,-67.352 15.904,-17.831 37.989,-30.06 62.802,-33.232l55.494 -130.08 -108.44 -425.102 0 0zm1.779 -21.463c0,6.67 0.83,13.474 2.594,20.351 36.27,142.175 72.436,284.395 108.81,426.54 -19.032,44.63 -38.093,89.26 -57.125,133.89l-1.304 0.148c-24.204,2.772 -45.786,14.571 -61.245,31.913 -14.823,16.615 -24.042,38.345 -24.59,62.105l46.97 0 -32.608 76.424 335.442 0 -32.609 -76.424 40.998 0c-0.519,-22.634 -8.908,-43.414 -22.5,-59.704 -14.303,-17.119 -34.358,-29.274 -57.11,-33.409l-1.201 -0.223c-19.135,-44.926 -38.315,-89.823 -57.48,-134.734 36.374,-142.16 72.54,-284.365 108.81,-426.54 1.764,-6.892 2.594,-13.681 2.594,-20.351 0,-25.716 -12.421,-49.536 -32.031,-68.76 -19.743,-19.358 -46.779,-34.077 -75.815,-41.488 -13.533,-3.453 -27.495,-5.306 -41.369,-5.306 -13.874,0 -27.836,1.868 -41.369,5.306 -29.051,7.411 -56.072,22.13 -75.815,41.488 -19.625,19.224 -32.031,43.044 -32.031,68.76l-0.016 0.014z"/>
   <path class="fil2 str0" d="M1001.952 1608.271l99.739 0c11.709,0 21.284,9.575 21.284,21.284l0.001 0c0,11.71 -9.575,21.285 -21.285,21.285l-99.739 0c-11.709,0 -21.285,-9.575 -21.285,-21.285l0 0c0,-11.709 9.576,-21.284 21.285,-21.284z"/>
   <path class="fil3 str0" d="M1001.952 1604.891l99.739 0c6.773,0 12.939,2.772 17.416,7.248l0 0c4.462,4.461 7.248,10.642 7.248,17.416 0,6.774 -2.772,12.955 -7.248,17.417 -4.476,4.461 -10.642,7.248 -17.416,7.248l-99.739 -0.001c-6.789,0 -12.955,-2.772 -17.416,-7.248 -4.462,-4.476 -7.248,-10.642 -7.248,-17.416 0,-6.774 2.772,-12.955 7.248,-17.417l0 0.001c4.462,-4.462 10.628,-7.248 17.417,-7.248l-0.001 0zm99.739 6.759l-99.739 0c-4.921,0 -9.398,2.015 -12.643,5.247 -3.232,3.246 -5.247,7.722 -5.247,12.643 0,4.921 2.015,9.398 5.262,12.644 3.246,3.245 7.722,5.262 12.643,5.262l99.739 0c4.921,0 9.397,-2.016 12.643,-5.262 3.246,-3.246 5.262,-7.723 5.262,-12.644 0,-4.921 -2.015,-9.397 -5.262,-12.643 -3.231,-3.246 -7.722,-5.262 -12.643,-5.262l-0.015 0.015z"/>
   <path class="fil4 str0" d="M960.02 1731.844l183.603 0c11.71,0 21.285,9.575 21.285,21.284l0 0c0,11.71 -9.575,21.285 -21.285,21.285l-183.603 0c-11.709,0 -21.284,-9.575 -21.284,-21.285l-0.001 0c0,-11.709 9.575,-21.284 21.285,-21.284l0 0z"/>
   <path class="fil5 str0" d="M960.02 1728.464l183.603 0c6.789,0 12.955,2.772 17.416,7.248 4.462,4.462 7.248,10.642 7.248,17.416 0,6.774 -2.771,12.955 -7.248,17.417 -4.461,4.461 -10.642,7.248 -17.416,7.248l-183.603 0c-6.788,0 -12.955,-2.772 -17.416,-7.248 -4.462,-4.462 -7.248,-10.643 -7.248,-17.417 0,-6.774 2.772,-12.954 7.248,-17.416 4.461,-4.462 10.642,-7.248 17.416,-7.248l0 0zm183.603 6.759l-183.603 0c-4.921,0 -9.397,2.016 -12.643,5.262 -3.246,3.246 -5.262,7.723 -5.262,12.643 0,4.921 2.015,9.398 5.262,12.644 3.246,3.246 7.722,5.262 12.643,5.262l183.603 0c4.921,0 9.398,-2.016 12.643,-5.262 3.246,-3.247 5.263,-7.723 5.263,-12.644 0,-4.92 -2.016,-9.397 -5.263,-12.643 -3.245,-3.246 -7.722,-5.262 -12.643,-5.262z"/>
   <path class="fil6 str0" d="M960.02 1731.844l183.603 0c11.71,0 21.285,9.575 21.285,21.284l0 0c0,11.71 -9.575,21.285 -21.285,21.285l-183.603 0c-11.709,0 -21.284,-9.575 -21.284,-21.285l-0.001 0c0,-11.709 9.575,-21.284 21.285,-21.284l0 0z"/>
   <path class="fil7 str0" d="M960.02 1728.464l183.603 0c6.789,0 12.955,2.772 17.416,7.248 4.462,4.462 7.248,10.642 7.248,17.416 0,6.774 -2.771,12.955 -7.248,17.417 -4.461,4.461 -10.642,7.248 -17.416,7.248l-183.603 0c-6.788,0 -12.955,-2.772 -17.416,-7.248 -4.462,-4.462 -7.248,-10.643 -7.248,-17.417 0,-6.774 2.772,-12.954 7.248,-17.416 4.461,-4.462 10.642,-7.248 17.416,-7.248l0 0zm183.603 6.759l-183.603 0c-4.921,0 -9.397,2.016 -12.643,5.262 -3.246,3.246 -5.262,7.723 -5.262,12.643 0,4.921 2.015,9.398 5.262,12.644 3.246,3.246 7.722,5.262 12.643,5.262l183.603 0c4.921,0 9.398,-2.016 12.643,-5.262 3.246,-3.247 5.263,-7.723 5.263,-12.644 0,-4.92 -2.016,-9.397 -5.263,-12.643 -3.245,-3.246 -7.722,-5.262 -12.643,-5.262z"/>
   <path class="fil8 str0" d="M847.564 1873.441l409.375 0c11.71,0 21.285,9.575 21.285,21.284l0 0c0,11.71 -9.575,21.285 -21.285,21.285l-409.375 0.001c-11.71,0 -21.285,-9.576 -21.285,-21.285l0 -0.001c0,-11.709 9.575,-21.284 21.285,-21.284z"/>
   <path class="fil9 str0" d="M847.564 1870.061l409.375 0c6.789,0 12.955,2.772 17.416,7.248 4.462,4.462 7.248,10.643 7.248,17.417 0,6.774 -2.771,12.955 -7.248,17.416 -4.461,4.462 -10.642,7.248 -17.416,7.248l-409.375 0c-6.789,0 -12.955,-2.772 -17.417,-7.248 -4.461,-4.462 -7.248,-10.643 -7.248,-17.417 0,-6.774 2.772,-12.955 7.248,-17.416 4.462,-4.462 10.643,-7.248 17.417,-7.248l0 0zm409.39 6.759l-409.39 0c-4.921,0 -9.398,2.016 -12.644,5.262 -3.246,3.246 -5.262,7.723 -5.262,12.644 0,4.921 2.016,9.397 5.262,12.643 3.247,3.246 7.723,5.262 12.644,5.262l409.375 0c4.921,0 9.398,-2.016 12.643,-5.262 3.246,-3.246 5.263,-7.723 5.263,-12.644 0,-4.921 -2.016,-9.397 -5.263,-12.643 -3.245,-3.246 -7.722,-5.262 -12.643,-5.262l0.015 0z"/>
   <path class="fil10 str0" d="M812.42 1912.453l473.733 0c5.885,0 11.235,2.416 15.119,6.299 3.884,3.869 6.3,9.235 6.3,15.119l0 51.182 -516.57 -0.001 0 -51.181c0,-5.899 2.416,-11.251 6.284,-15.134 3.899,-3.883 9.25,-6.284 15.134,-6.284l0 0zm473.733 6.759l-473.733 0c-4.032,0 -7.707,1.645 -10.346,4.299l0.001 -0.001c-2.654,2.668 -4.314,6.329 -4.314,10.361l0 44.422 503.037 0 0 -44.422c0,-4.032 -1.645,-7.693 -4.313,-10.346l0 0c-2.653,-2.668 -6.314,-4.313 -10.346,-4.313l0.014 0z"/>
   <path class="fil11 str1" d="M1053.148 1323.06c-14.022,-7.915 -27.807,-20.633 -34.58,-35.603 -5.603,-12.377 -6.477,-26.25 1.008,-40.242 3.572,-6.685 8.226,-18.128 11.843,-27.436 -4.462,7.915 -8.612,18.35 -10.851,23.983 -1.26,3.187 -2.075,5.217 -3.216,5.914l-0.074 0.059c-1.897,1.067 -3.379,0.652 -4.521,-1.127l-0.059 -0.089c-19.728,-32.89 -3.291,-53.626 12.48,-73.503 9.946,-12.54 19.595,-24.709 18.083,-39.042 -0.133,-1.201 -0.444,-2.075 -0.918,-2.623 -0.4,-0.46 -0.994,-0.726 -1.705,-0.771 -1.038,-0.074 -2.313,0.237 -3.736,0.904 -3.068,1.467 -6.462,4.521 -9.441,9.116 -6.418,9.931 -11.147,24.382 -13.355,31.141 -1.097,3.38 -1.779,5.455 -3.602,6.018l-0.044 -0.001c-2.164,0.653 -3.528,-0.103 -4.209,-2.253 -9.605,-30.712 -1.423,-54.16 4.787,-71.977 2.742,-7.87 5.084,-14.555 5.084,-19.891l0 -3.38 75.297 -2.223 13.71 3.587c0,5.336 -9.352,14.051 -6.61,21.922 6.21,17.816 14.407,41.265 4.787,71.977 -0.681,2.149 -2.045,2.905 -4.209,2.268l-0.044 0c-1.809,-0.578 -2.49,-2.653 -3.587,-6.033 -2.209,-6.759 -6.922,-21.21 -13.355,-31.141 -2.965,-4.595 -6.359,-7.649 -9.442,-9.116 -1.423,-0.682 -2.697,-0.978 -3.735,-0.904 -0.712,0.044 -1.305,0.311 -1.705,0.771 -0.475,0.548 -0.786,1.422 -0.919,2.623 -1.512,14.318 8.138,26.503 18.083,39.042 15.756,19.861 32.194,40.583 12.51,73.444 -1.082,1.897 -2.801,2.357 -4.684,1.23 -1.141,-0.682 -1.957,-2.727 -3.216,-5.914 -2.238,-5.647 -6.373,-16.067 -10.85,-23.983 3.617,9.309 8.271,20.737 11.843,27.422 7.485,13.992 6.596,27.866 1.008,40.242 -6.774,14.97 -20.544,27.703 -34.58,35.603l-3.276 -0.014zm-28.414 -38.374c5.885,13.013 17.743,24.234 30.074,31.556 12.332,-7.322 24.19,-18.542 30.075,-31.556 4.787,-10.583 5.558,-22.412 -0.786,-34.299 -5.662,-10.598 -13.74,-32.15 -16.749,-40.154 -0.089,-0.252 0.815,-0.445 1.586,-0.593l0.43 -0.163c-0.193,-0.074 -0.4,-0.119 -0.593,-0.148l-3.869 -0.668 2.016 -6.047 2.416 0.001c0.37,0 0.712,0.044 1.008,0.148 9.916,2.313 19.402,24.679 24.027,36.211 11.932,-25.509 -1.912,-42.97 -15.223,-59.749 -10.82,-13.637 -21.314,-26.873 -19.521,-43.918 0.282,-2.639 1.171,-4.758 2.505,-6.329 1.63,-1.912 3.824,-2.95 6.344,-3.128 2.208,-0.163 4.639,0.356 7.129,1.542 4.091,1.956 8.493,5.825 12.184,11.546 5.099,7.886 9.101,18.113 11.783,25.761 4.284,-23.463 -2.267,-42.228 -7.396,-56.932 -2.446,-7.025 -4.595,-13.176 -5.262,-18.735l-64.209 0c-0.667,5.558 -2.816,11.709 -5.262,18.735 -5.128,14.704 -11.68,33.469 -7.396,56.932 2.668,-7.649 6.67,-17.861 11.783,-25.761 3.691,-5.707 8.093,-9.591 12.184,-11.547 2.476,-1.186 4.921,-1.705 7.115,-1.542 2.534,0.178 4.728,1.216 6.344,3.128 1.334,1.571 2.223,3.676 2.504,6.329 1.809,17.046 -8.7,30.282 -19.505,43.919 -13.311,16.793 -27.155,34.239 -15.223,59.748 4.58,-11.427 13.947,-33.513 23.775,-36.151 0.355,-0.133 0.771,-0.207 1.26,-0.207l2.416 0 2.016 6.047 -3.869 0.667c-0.193,0.03 -0.4,0.089 -0.593,0.149l0.49 0.178c0.77,0.148 1.601,0.341 1.526,0.563 -2.994,8.004 -11.072,29.556 -16.749,40.154 -6.344,11.872 -5.573,23.7 -0.785,34.299l0 0.014z"/>
   <path class="fil12 str0" d="M1026.083 985.053l57.451 0c13.71,0 26.191,5.618 35.232,14.644 9.042,9.042 14.644,21.508 14.644,35.233 0,13.725 -5.617,26.191 -14.644,35.232 -9.042,9.042 -21.507,14.645 -35.232,14.645l-57.451 0c-13.711,0 -26.191,-5.618 -35.233,-14.644 -9.041,-9.042 -14.644,-21.507 -14.644,-35.233 0,-13.725 5.618,-26.191 14.644,-35.232 9.042,-9.042 21.507,-14.644 35.233,-14.644l0 -0.001zm57.451 4.506l-57.451 0c-12.466,0 -23.82,5.099 -32.031,13.326 -8.226,8.226 -13.325,19.565 -13.325,32.03 0,12.465 5.099,23.82 13.325,32.046 8.226,8.226 19.565,13.325 32.031,13.325l57.451 0c12.465,0 23.819,-5.099 32.03,-13.325 8.226,-8.226 13.326,-19.565 13.326,-32.031 0,-12.465 -5.1,-23.819 -13.326,-32.045 -8.226,-8.227 -19.565,-13.326 -32.03,-13.326z"/>
   <path class="fil13 str1" d="M1131.958 1150.262l-0.326 4.462c-0.593,2.742 -1.201,5.469 -1.809,8.211l-4.179 -4.12c-40.109,-39.531 8.982,-30.089 -28.889,-65.173l-6.685 -9.694 15.074 -0.326c41.488,10.123 91.602,46.586 100.362,89.941 13.591,24.116 -21.255,128.331 -28.726,157.68l-6.877 -6.048c-32.402,-32.253 -18.024,-67.337 -6.241,-96.122 4.358,-10.628 8.331,-20.351 9.19,-28.355 0.652,-6.137 0.237,-9.62 -0.845,-11.147 -0.222,-0.311 -0.519,-0.43 -0.874,-0.4 -0.934,0.089 -2.135,0.697 -3.498,1.66 -5.129,3.676 -10.791,11.591 -12.836,18.261 -5.47,17.846 -9.486,21.537 -14.585,26.221 -1.764,1.63 -3.691,3.394 -5.811,6.018l-3.809 4.698 -1.794 -5.781c-0.815,-2.638 -1.496,-4.743 -2.075,-6.522 -3.082,-9.59 -3.527,-10.983 -4.313,-26.709 -0.8,-16.038 6.537,-28.785 13.311,-40.584 8.063,-14.036 15.282,-26.591 4.225,-41.191 -6.493,3.291 -7.264,14.541 -8.005,25.02l0.015 0zm-6.433 -0.874c0.948,-13.562 2.09,-28.059 14.763,-31.127l1.942 -0.475 1.289 1.527c15.949,18.809 7.411,33.661 -2.178,50.336 -6.329,10.999 -13.162,22.886 -12.451,37.071 0.741,14.881 1.156,16.171 4.017,25.035l0.385 1.215c0.89,-0.874 1.735,-1.66 2.55,-2.401 4.387,-4.032 7.826,-7.189 12.776,-23.36 2.417,-7.87 9.16,-17.253 15.267,-21.64 2.238,-1.601 4.506,-2.623 6.64,-2.831 2.713,-0.267 5.055,0.652 6.789,3.112 1.927,2.742 2.816,7.693 1.986,15.563 -0.948,8.894 -5.099,19.033 -9.634,30.119 -10.583,25.82 -19.758,62.017 4.891,90.268 9.308,-53.82 35.247,-104.912 27.139,-144.947 -7.811,-38.598 -39.22,-73.816 -102.629,-88.341 20.573,20.706 16.69,31.601 16.141,39.041 -0.37,5.04 -0.726,9.902 10.302,21.849l0.015 -0.014z"/>
   <path class="fil14 str0" d="M1026.083 987.306l57.451 0c26.28,0 47.624,21.344 47.624,47.624l0 0c0,26.28 -21.344,47.624 -47.624,47.624l-57.451 0c-26.281,0 -47.625,-21.344 -47.625,-47.624l0.001 0c0,-26.28 21.344,-47.624 47.624,-47.624l0 0z"/>
   <path class="fil15 str1" d="M979.823 1149.61l0.326 4.462c0.592,2.742 1.2,5.469 1.808,8.211l4.18 -4.12c40.109,-39.531 -8.983,-30.089 28.888,-65.173l6.685 -9.694 -11.872 -1.231c-80.263,28 -107.995,65.974 -108.706,110.856 -0.445,28.281 18.927,86.547 31.882,139.063l8.864 -7.441c32.401,-32.253 18.024,-67.337 6.24,-96.122 -4.358,-10.628 -8.33,-20.351 -9.19,-28.355 -0.652,-6.137 -0.237,-9.62 0.845,-11.147 0.223,-0.311 0.519,-0.43 0.875,-0.4 0.934,0.089 2.134,0.697 3.498,1.66 5.128,3.676 10.79,11.591 12.836,18.261 5.469,17.846 9.486,21.537 14.585,26.221 1.764,1.63 3.69,3.394 5.81,6.018l3.81 4.698 1.793 -5.781c0.815,-2.638 1.497,-4.743 2.075,-6.522 3.083,-9.59 3.528,-10.983 4.313,-26.709 0.801,-16.038 -6.537,-28.785 -13.311,-40.584 -8.063,-14.036 -15.282,-26.591 -4.224,-41.191 6.492,3.291 7.263,14.541 8.004,25.02l-0.014 0zm6.447 -0.874c-0.948,-13.563 -2.09,-28.059 -14.763,-31.127l-1.942 -0.475 -1.289 1.527c-15.949,18.809 -7.411,33.661 2.178,50.336 6.329,10.998 13.162,22.886 12.451,37.071 -0.741,14.881 -1.156,16.171 -4.017,25.05l-0.385 1.215c-0.89,-0.874 -1.735,-1.66 -2.55,-2.401 -4.387,-4.032 -7.826,-7.188 -12.777,-23.36 -2.416,-7.87 -9.16,-17.253 -15.266,-21.64 -2.238,-1.601 -4.506,-2.623 -6.641,-2.831 -2.712,-0.267 -5.054,0.667 -6.788,3.112 -1.927,2.743 -2.831,7.693 -1.986,15.564 0.948,8.893 5.099,19.032 9.634,30.118 10.583,25.82 19.758,62.017 -4.891,90.268 -9.308,-53.82 -35.247,-104.912 -27.139,-144.947 7.811,-38.598 39.22,-73.815 102.614,-88.341 -20.573,20.706 -16.69,31.601 -16.141,39.042 0.37,5.039 0.726,9.901 -10.302,21.848l0 -0.029z"/>
   <path class="fil16 str0" d="M812.42 1915.832l473.733 0c9.917,0 18.039,8.123 18.039,18.039l0 47.802 -509.81 0 0 -47.802c0,-9.916 8.122,-18.039 18.039,-18.039l-0.001 0z"/>
  </g>
 </g>
</svg>