<?xml version="1.0" encoding="UTF-8"?>
<svg id="Camada_1" xmlns="http://www.w3.org/2000/svg" version="1.1" viewBox="-10.25 -10.25 532.48 419.33">
  <!-- Generator: Adobe Illustrator 30.6.0, SVG Export Plug-In . SVG Version: 2.1.4 Build 109)  -->
  <defs>
    <style>
      .st0 {
        fill: #2968b1;
      }

      .st1 {
        fill: #3c5070;
      }

      .st2 {
        fill: #1e4479;
      }

      .st3 {
        fill: #a7cfea;
      }

      .st4 {
        fill: #1c3661;
      }

      .st5 {
        fill: #81b2d8;
      }

      .st6 {
        fill: #758394;
      }

      .st7 {
        fill: #2d96d1;
      }

      .st8 {
        fill: #9cb9d2;
      }

      .st9 {
        fill: #afcee5;
      }

      .st10 {
        fill: #36a1d2;
      }

      .st11 {
        fill: #a6bed7;
      }

      .st12 {
        fill: #3c7cb5;
      }

      .st13 {
        fill: #accae2;
      }

      .st14 {
        fill: #2b5b9a;
      }

      .st15 {
        fill: #78a2c2;
      }

      .st16 {
        fill: #a3c1d8;
      }

      .st17 {
        fill: #6089b1;
      }

      .st18 {
        fill: #558fbd;
      }

      .st19 {
        fill: #2a71b8;
      }

      .st20 {
        fill: #92b0cd;
      }

      .st21 {
        fill: #3b82c1;
      }

      .st22 {
        fill: #43b6e6;
      }

      .st23 {
        stroke: #5887b6;
      }

      .st23, .st24, .st25 {
        fill: none;
        stroke-linecap: round;
        stroke-linejoin: round;
        stroke-width: 1.25px;
      }

      .st26 {
        fill: #e9eef1;
      }

      .st27 {
        fill: #a9d8ef;
      }

      .st28 {
        fill: #2e7dc1;
      }

      .st29 {
        fill: #eaf0f5;
      }

      .st30 {
        fill: #438aca;
      }

      .st31 {
        fill: #c6e0f4;
      }

      .st32 {
        fill: #4e5e80;
      }

      .st33 {
        fill: #3d7ebc;
      }

      .st34 {
        fill: #24395e;
      }

      .st35 {
        fill: #3bbde3;
      }

      .st36 {
        fill: #5582b0;
      }

      .st37 {
        fill: #e8f2f8;
      }

      .st38 {
        fill: #57687f;
      }

      .st39 {
        fill: #2a6ab2;
      }

      .st40 {
        fill: #808c9a;
      }

      .st41 {
        fill: #32496c;
      }

      .st42 {
        fill: #a6bdd4;
      }

      .st43 {
        fill: #3ea4d4;
      }

      .st44 {
        fill: #98b4ce;
      }

      .st45 {
        fill: #304568;
      }

      .st46 {
        fill: #273b5c;
      }

      .st47 {
        fill: #2b67af;
      }

      .st48 {
        fill: #2d4061;
      }

      .st49 {
        fill: #2f9fd7;
      }

      .st50 {
        fill: #e2eff6;
      }

      .st51 {
        fill: #add7f1;
      }

      .st52 {
        fill: #8ba8c7;
      }

      .st53 {
        fill: #b3c7da;
      }

      .st24 {
        stroke: #4173a7;
      }

      .st54 {
        fill: #a9bfd4;
      }

      .st55 {
        fill: #294264;
      }

      .st56 {
        fill: #3f84c0;
      }

      .st57 {
        fill: #5b87b3;
      }

      .st58 {
        fill: #3382c4;
      }

      .st59 {
        fill: #b1cbe1;
      }

      .st60 {
        fill: #1e426d;
      }

      .st61 {
        fill: #1a3055;
      }

      .st62 {
        fill: #307ec1;
      }

      .st63 {
        fill: #317fc3;
      }

      .st64 {
        fill: #25b4df;
      }

      .st65 {
        fill: #7ac6e3;
      }

      .st66 {
        fill: #374b69;
      }

      .st67 {
        fill: #82b4d9;
      }

      .st68 {
        fill: #2d76b6;
      }

      .st69 {
        fill: #81a0c0;
      }

      .st70 {
        fill: #97b2cd;
      }

      .st71 {
        fill: #6d91b5;
      }

      .st72 {
        fill: #9fc0da;
      }

      .st73 {
        fill: #2d5f9f;
      }

      .st74 {
        fill: #304368;
      }

      .st75 {
        fill: #68798d;
      }

      .st76 {
        fill: #a4bcd5;
      }

      .st77 {
        fill: #f0f6fa;
      }

      .st78 {
        fill: #53c1e0;
      }

      .st79 {
        fill: #2d5fa0;
      }

      .st80 {
        fill: #2e7bbf;
      }

      .st81 {
        fill: #3e4e6b;
      }

      .st82 {
        fill: #324563;
      }

      .st83 {
        fill: #3766a8;
      }

      .st84 {
        fill: #5689b6;
      }

      .st85 {
        fill: #e5ecf3;
      }

      .st86 {
        fill: #9ebbd4;
      }

      .st87 {
        fill: #2c9bd0;
      }

      .st88 {
        fill: #93b4ce;
      }

      .st89 {
        fill: #124071;
      }

      .st90 {
        fill: #ebf0f3;
      }

      .st91 {
        fill: #27abdb;
      }

      .st92 {
        fill: #9bb5cc;
      }

      .st93 {
        fill: #6a7f94;
      }

      .st94 {
        fill: #307bbf;
      }

      .st95 {
        fill: #1f375a;
      }

      .st96 {
        fill: #1c446f;
      }

      .st97 {
        fill: #4c86b8;
      }

      .st98 {
        fill: #80afcd;
      }

      .st99 {
        fill: #2cb8e2;
      }

      .st100 {
        fill: #2f88c9;
      }

      .st101 {
        fill: #779dc1;
      }

      .st102 {
        fill: #39bee6;
      }

      .st103 {
        fill: #e0e8f5;
      }

      .st104 {
        fill: #8dadcb;
      }

      .st105 {
        fill: #2dbce4;
      }

      .st106 {
        fill: #689ec6;
      }

      .st107 {
        fill: #374c6e;
      }

      .st108 {
        fill: #e4f1f9;
      }

      .st109 {
        fill: #9db1c5;
      }

      .st25 {
        stroke: #377ebf;
      }

      .st110 {
        fill: #b8cfe4;
      }
    </style>
  </defs>
  <g id="Objeto_generativo">
    <g>
      <path class="st89" d="M493.83,167.86c0,1.19-.92,2.95-.26,4.29.75,1.51,10.88,3.95,10.96,9.89l.39,32.16c1.24,2.82,6.59,4.48,6.97,9.05.3,3.68.14,8.24-3.21,10.76l-110.76,83.23-105.18,78.32c-6.02,4.48-16.05,4.12-22.73.45l-196.43-108.03L7.11,251.59c-4.51-2.46-6.8-5.86-7.1-10.58s3.88-7.73,7.05-10.49l.4-27.9c.05-3.38.74-5.51,3.64-7.66l170.26-126.11,36.89-27.18c-.13-6.61,0-12.66.76-18.94-2.52-13.51,9-19.65,21.46-22.34,6.81-1.47,14.2,1.3,20.14,4.84,1.88,1.12,2.45,3.37,3.72,4.4,4.24,3.42,6.4,6.99,6.27,12.52s.32,11.23-1.29,16.59c6.86,4.74,4.29,10.71,5.54,16.29,2.65-3.08,5.87-5.25,9.91-5.98,2.86-1.32,5.67,1.06,7.95,2.59,4.63.82,7.47,4.68,8.11,9.08l.14,8.03c3.59-3.45,7.07-5.11,11.09-6.06,3.19-.75,5.3,1.44,8.12,2.3,8.57,2.63,8.86,7.79,8.39,17.61,3.01-2.21,5.62-4.65,9.27-5.4,3.48-1.01,7.12-.28,9.53,2.69,5.37.4,8.49,4.97,8.95,10.13l.44,5.93c2.56-2.21,4.89-3.71,7.78-4.39,3.48-1.62,7.41-.52,10.04,2.21,5.04.41,8.39,4.41,8.61,9.42l-.13,8.25c7.37-6.32,11.57-7.99,19.57-3.35,2.28,1.32,4.87,1.65,6.36,4.54,1.98,3.85,2.14,8.38,1.38,12.89,2.01-1.62,3.21-3.2,5.31-4,4.42-3.21,10.25-3.32,14.23.62,4.43.65,7.48,3.62,8.24,7.93l.08,9.68c3.27-4.52,7.79-5.92,12.95-6.28,2.77-.19,4.16,2.13,6.19,2.69,8.21,2.27,10.62,9.92,8.46,17.95,2.94-1.99,4.67-4.03,7.51-4.99,4.06-2.08,8.7-1.4,11.68,1.91,4.53.38,7.93,3.95,8.87,8.1l-.06,8.76ZM253.65,27.09c-.86,6.61,3.62,8.5,3.38,14.23,2.17-.5,1.71-4.71,4.71-5.71,2.04-.68,3.79-.66,6.23.5,1.14-9.92,2.57-20.19-6.18-25.06-1.39-3.32-4.43-4.59-7.55-6.52-10.03-4.17-22.48-1.65-30.3,6.21-1.61,1.61-3,4.95-2,6.17,11.75,13.45,33.3-2,31.71,10.19ZM256.84,43.67c-2.51.03-.9-6.15-5.31-10.89l.59-7c.14-1.65-2.34-2.98-3.75-2.39-8.4,1.93-17.83,2.81-25.47-2.4-2.96,12.96-2.43,26.77,2.34,38.94,2.16,5.51,6.83,8.08,12.42,7.72,9.89-.64,18.01-7.08,20.45-17.02.84-1.24,3.6-.37,4.51-.93,4.9-2.89,5.13-11.26,3.19-12.43-1.33-.8-2.58-.82-3.89.41-2.42,2.25-.9,5.95-5.08,6ZM269.92,42.64c-1.67,2.39.28,3.95.36,5.85l.26,6.04c.03.72.13,1.44.55,1.29.21-.07,1.04-.03,1.13-.49.83-4.41.94-10.14-2.31-12.69ZM210.88,69.35c2.1-2.68,3.76-3.57,6.09-4.53l6.26-2.56c-2.72-5.03-3.49-10.55-4.72-16.49l-21.68,15.56c.82,1.73,2.38,2.09,3.76,2.79l10.29,5.23ZM267.69,55.97c.54-2.61,1.02-5.01-.37-7.4-1.16,1.86-2.56,2.47-3.58,3.58.34,1.55,2.1,3.17,3.95,3.82ZM286.28,53.08c.8-.21,1.76.48,1.81-.74.02-.58-.56-.67-.91-.75-5.75-1.32-15.5,7.33-18.76,14.68.88.79.9,1.45,1.67,1.62,3.98-7.51,8.4-12.78,16.19-14.81ZM291.63,56.78c1.19.13,2.01.11,2.48.98.4.75,1.07,1.82,1.11,2.95l.36,9.85c.69.4,1.35.79,1.71.81.63.02,1.02-.96,1.07-1.66l.55-6.97c.24-3.05-.76-6.72-3.81-7.97-.8-.33-1.99.99-2.64.4,0-.34.04-.75-.22-.72l-1.91.21c-11.32,2.68-17.13,17.42-16.83,18.25.21.58.96,1.7,2.06,1.41,1.77-7.52,10.96-18.1,16.07-17.54ZM268.83,60.73l-6.23-3.14c-1.15-.58-2.06-1.85-3.64-.53,2.06,2.84,4.19,5.6,7.53,6.82.94-.03,1.66-1.66,2.34-3.15ZM293.48,68.91c-.01-4.14.28-8.61-1.96-9.41-.91-.33-1.52.26-1.88.64-.62.67-1.53,8.1,3.83,8.77ZM190.38,162.52l2.37-24.14c.64-6.55,4.77-2.88,5.94-8.84l2.94-15.01c1.04-5.31.99-10.6,2.73-15.85.2-3.36-.14-7.06,1.6-10.46-.48-4.8,1.27-10.95,3.01-16.2l-15.11-7.89c-.74-.39-2.38.93-2.66,1.7-.22.6,1.19.7.62,1.28-.19.19-.17.63-.68.57-.23-.03-.51-.3-1.3-1.13L38.03,179.51l-23.83,17.47c-1.71,1.25-2.73,2.71-2.5,4.43.25,1.89,1.11,2.96,2.83,3.9l17.86,9.69,146.21,80.28,95.7,52.72c6.21,3.42,12.13.55,17.11-3.18l157.85-118.45,23.82-17.66-97.41-51.14-82.8-43.61c-1.15.45-.43,1.89-.13,3.18.37,1.63,3.86,2.03,3.8,2.72s-.2,1.13-.56,1.09l-2.59-.34c1.92,9.05,2.02,18.1,2.09,27.58l-.61,8.3c3.08,1.33,4.35,3.63,3.62,6.65l-5.08,20.81-2.38,5.52c-.33,5.2,1.06,10.25-.67,14.97-1.34,3.67-3.76,6.96-7.36,9.17-.55.34-.6.92.09,1.34l-9.71,2.3c-.24,1.75-1.57,6.16.5,7.28-1.53.91-1.14,9.24-.46,11.01.29.75,1.66,1.17,1.06,2.2l-.91-.22-.54.29.15,12.31,9.6-7.13.74.11c.4.06-.07.35-.22.83l-1.25,4.04c-1.43-.7-3.45-.68-4.2.52-.86,1.38-.88,2.07-.11,2.94,1.36,1.55,1.64,1.09,3.66,1.15l13.82.46c.23,1.29-.98,1.07-1.38,1.74.99.6,1.76.08,2.59.4l-8.42,7.12c-1.43,1.21-2.37,2.8-1.26,4.77,1.56,2.77,4.32,4.82,7.11,6.89-1.19,1.83-3.04,2.88-5.09,4.06l-15.2-8.38c-.26,5.29.64,9.75-.48,14.13-1.29,5.02.53,11.94-2.82,20.71-2.58,6.76-9.31,10.57-16.49,7.67-9.84-3.97-1.7-21.16-2.54-27.57l-1.76-13.39-5.64-47.13c-.46-3.86.35-7.96-1.61-11.63l-.43,11.93-1.56,45.46-.12,10.32c-1.04,4.49-9.26,3.52-18.47,7.48-8.1,3.49-19.98,4.15-22.15-.64-2.57-5.67,6.13-10.09,11.13-13.98l3.97-3.08,2.98-2.55-.21-6.87c-.12-3.78-1.43-7.65-.06-11.75-1.59-3.81-1.39-7.84-1.09-11.75-1.27-4.01-.56-7.94-.76-11.86l-1.57-30.6c-2.27-1-3.6-2.86-5.34-4.18-1.84,3.48-4.27,5.96-6.95,6.4-6.72,1.11-11.75-4.44-12.96-9.24-1.79-7.1-.32-14.83,2.84-21.64.68-1.47-.41-2.52-1.11-3.33ZM252.21,80.1l5.83-14.23c1.39-.14.61-1.02-.36-.61-4.13,5.27-9.5,8.27-15.99,10.32l4.83,9.09,5.69-4.56ZM316.21,65.49c-3.96-1.26-7.02-.34-9.94,1.56-13.86,9.04-16.09,25.54-13.91,26.11.52.14,1.52-.11,1.63-1.05,1.17-9.82,6.17-19.57,15.28-24.01l6.93-2.61ZM231.96,109.63c.62.46.88,1.59,1.65,1.21l1.52-.75c17.77-2.29,31.4-17.9,34.73-35.79-.04-2.43-3.12-4.81-5.29-6.31-2.48,16.84-13.49,30.72-29.96,35.44-5.28-3.5-6.81-9.14-8.19-14.59-1.87-7.42-1.54-14.36.53-21.83.35-1.26-3.02-1.62-3.98-1.24-1.14.45-1.36,2.51-1.77,3.65-4.43,12.3.13,32.23,10.77,40.21ZM247.35,94.67c9.52-6.39,13.29-16.45,14.93-26.45.38-.75-.53-1.46-1.44-1.21-.28,3.16-2.25,5.67-3.44,8.56-2.82,6.84-6.36,13.01-10.04,19.1ZM300.06,96.11c1.42-.51,2.39-17.17,14.72-24.27,2-1.38,4.07-2.1,6.51-.86,6.29,4.02.4,13.08,2.96,14,2.2.79,3.3-7.25,2.16-11.82-1.06-4.28-5.18-6.34-9.51-5.16-13.91,3.79-22.58,30.16-16.84,28.1ZM202.38,138.41c3.08,2.06,6.77,2.37,10.65,2.13,2.3-14.27-.19-29-.93-42.55l-.14-2.51c-.04-.69.73-1.89,2.11-1.54l1.26,14.77.53,8.79.46,17.68c.06,2.44,2.56,4.37,4.61,5.37l8.2,4.01.5-10.29c.13-2.61-.84-5.73-2.73-7.76-.54-.58-2.23,0-2.69-.74-.35-.55-1.62-1.35-.9-2.52.79-1.28,1.52-2.53,2.91-3.81l-3.6-13.13-2.22-9.63c-3.48-9.14-4.54-18.72-1.69-28.12.27-.88-1.86-.11-2.42.23-3.35,2.06-5.34,6.81-5.99,10.78l-1.04,6.27-1.4,10.04-3.94,25.43-2.63,13.19-.64,2.15c-.24.79.98,1.23,1.75,1.74ZM284.49,68.8c-1.16-.6-2.02-1.3-3.27-.35-.57.43-.69,1.42-1.31,2.34-4.62,6.89,6.14,10.49,7.06,18.83,3.94-1.16,4.27-9.19,8.52-15.11l-11-5.71ZM232.56,69.88c-1.73,3.07-1.32,5.8-1.37,8.74l6.28-4.57c-2.02-1.66-2.56-3.4-4.9-4.17ZM316.98,74.15c-2.1,1.35-2,6.02-.89,6.57.71.35,1.8.32,1.67-.79-.24-2.07.58-4.01-.79-5.78ZM238.6,76.87l-1.81.85c-2.04.96-1.46,5.28.38,6.49,1.71,1.13,3.08-.55,3.89-1.6,1.19-1.54-1.98-5.97-2.47-5.74ZM271.96,78.28c-.73-.04-.84.7-1.06,1.35-3.08,9.18-7.7,17.36-15.36,23.38l-15.18,20.67,1.58,5.02c-1.03,1.71-3.57.51-4.81,1.3-5.9,5.66-6.25,6.97-5.99,15.42,12.79,4.34,27.58,7.3,38.8.3-.26-5.68,1.44-11.17.31-16.96l-3.53-17.99c-.12-.59.12-1.52.32-1.91.17-.34,1.04-.36,1.46-.06s.74.99.95,1.87l3.59,14.46c2.33,9.37,3.67,18.65,2.83,28.22-.09,1-.45,3.16.63,4.53,3.27,2.64,9.09,3.17,13.3,2.13.9-.22,1.4-.41,1.55-.92.13-.45.62-1.55.58-2.14-.49-6.24,1.89-13.53-.44-27.62l-2.58-15.63-5.45-24.07c-1.29-5.7-6.44-8.87-10.86-12.58l-.77-.04.14,1.26ZM344.12,79.98c-4.07-2.86-8.12-.35-11.69,2.11-12.82,8.86-15.92,28.81-11.39,25.01,1.04-.87,1.25-21.53,23.08-27.12ZM230.57,83.45l.86,9.19c.22.65.74.77,1,.64.5-.24.16-.92.04-1.91-.28-2.49,2-4.74,1.48-6.83l-.9-3.6c-.38.84-2.6,1.37-2.5,2.51ZM315.23,103.72c4.21-5,4.1-10.2,7.95-14.76l-14.42-7.17c-5.9,4.76-.78,9.91-3.55,13.41-3.77,4.77-9.38,5.76-15.58,3.2l2.36,12.27,21.32,10.86,162.43,85.02,21.25-15.59c2.04-1.5,3.72-3.01,3.94-5.05.24-2.27.15-4.87-2.13-6.02l-24.85-12.55c-1.21,2.05-2.51,3.38-3.07,5.22-.47,1.54,1.69,2.25,1.83,3.35.3,2.26-.6,5.45-2.7,6.77-4.66,2.95-11.39,3.12-16.01.47-2-1.15-2.89-3.46-2.89-5.23,0-3.25,3.4-3.75,5.74-9.04l3.85-8.73c-4.83-2.98-9.13-5.43-14.71-7.34l-2.85,5.67c.97,1.66,2,3.75,1.23,5.67-.69,1.73-1.99,2.99-3.59,4.31-4.73,3.9-15.06,2.88-16.93-2.24-.77-2.1-.33-5.21,1.44-6.34,3.99-2.54,3.19-9,7.6-14.11l-14.38-7.59c-6.07,5.39-.67,8.64-1.85,12.07-1.7,4.95-9.83,7.87-17.89,4.73-1.96-.76-2.7-2.6-3.16-4.07s.27-3.8,1.48-4.94c2.44-2.31,3.32-4.62,4.77-7.73l3.18-6.82c-4.4-2.46-8.5-5.2-13.33-6.76-2.33.66-3.79,4.81-2.78,7.15,1.83,4.22-1.53,8.09-5.75,9.79-3.74,1.5-8.78.93-12.63-1.79-2.62-1.84-1.64-7.76,1.1-9.41,1.8-1.09.99-3.51,1.95-5.37l3.76-7.28c-2-2.36-5.14-3.22-7.76-4.65l-5.91-3.23c-6.27,6.83-.06,9.13-2.24,12.59-3.54,5.62-11.71,7.37-17.43,3.83-1.59-.99-2.61-2.85-2.99-4.05-1.14-3.55,4.47-6.53,5.35-10.11.74-3.02,1.94-6.26,4.24-8.75l-13.75-7.42c-2.08,1.19-3.96,3.78-3.59,5.76.23,1.2,1.74,2.38,1.55,3.45-1.06,6.03-6.6,8.91-12.22,8.61-3.22-.17-5.18-.47-7.16-2.76-1.39-1.62-2.14-5.02-.24-7.29ZM352.78,85.51c-2.6-4.67-8.81-4.06-12.84-.96-7.44,5.3-12.34,13.87-14.31,22.41,1.04.56,0,1.97.49,2.76.21.35.16.53,1.12.49.66-.02.99-.11,1.08-1.02,1.39-13.88,14.18-26.66,20.16-23.6,5.25,2.69,1.86,12.88,3.33,13.51,3.34,1.42,3.01-9.94.98-13.6ZM243.29,84.49c-.68.34-2.02,1.5-2.13,1.94l.33,11.76c3.49-4.08,5.63-8.2,7.91-12.6-1.99-.15-2.36,1.47-3.45,1.86-1.44-.33-1.64-2.16-2.66-2.96ZM238.71,98.85l-.26-11.24c-.02-1.07-1.79-1.32-2.29-.95-.43.32-.46,1.43-.64,1.9l-2.01,5.34c-.77,2.05-1.23,5.55.85,7.02,1.06.44,4.38-.78,4.35-2.08ZM343.76,88.2c-1.22.24-1.76,6.1.25,6.18s1.98-6.62-.25-6.18ZM349.23,96.07l-.08-5.3c-.07-4.42-3.19-2.09-1.61,5.46l.97.73c.15.11.73-.32.72-.9ZM370.13,94.31c-3.58-2.64-6.72-.17-9.39,1.47-4.44,2.74-7.08,6.14-9.5,10.6s-4.98,8.98-4.41,14.59c.43.59,1.62-.21,2.16-.58.98-.68,1.11-20.66,21.14-26.08ZM380.46,100.47c-1.41-3.94-5.05-4.83-8.72-3.81-6.12,1.69-10.17,6.78-13.58,12.24-2.95,4.73-5.43,10.02-4.35,15.24.71.36,1.62-.11,2.01-.54.66-.74,1.53-17.05,15.67-23.82,1.6-.77,3.68-.88,4.97.23.84.72,1.98,1.77,2.04,3.49l.22,7.37-.52,1.45c-.14.4.6.84.95.93,1.53.38,2.83-8.56,1.31-12.78ZM370.99,109.32c1.85,1.44,2.19-1.71,1.39-5.87-2.34-1.57-1.78,5.56-1.39,5.87ZM224.55,105.8c-.58.45.95,6.54,2.62,10.76,1.42-1.15,2.1-3.07,2.18-4.81.08-1.63-4.04-6.54-4.8-5.96ZM374.92,106.24l-.68,3.28c-.2.95-.24,1.75.68,2.11.46.18,1.28.37,1.61-.28.49-.96.45-5.14-1.6-5.12ZM240.38,111.56c-1.37,3.33-3.14,7.24-2.08,10.91l10.63-13.42c1.38-2.95-3.44.63-8.55,2.51ZM398.38,108.73c-2.13-2.06-5.88-1.61-8.54.03-9.23,5.68-14.95,15.64-16.51,26.25-.12.78,2.26,1.89,2.33,1.34,1.62-13,8.97-24.71,22.73-27.62ZM403.07,114c.99.61,2.55,1.81,2.57,3.65l.12,7.8c.01.79-.1,1.65.51,1.83.34.1,1.38.6,1.51,0,1.37-6.4,1.49-13.96-3.67-16.2-13.35-5.8-29.57,30.41-21.32,27.21.54-.21.95-8.87,7.58-17.76,3.57-4.79,9.66-8.39,12.69-6.53ZM240.3,127.66c-2.42-1.57-2.46-3.72-3.19-5.7l-3.36-9.12c-1.29-3.51-5.51,6.61-8.96,11.01,2.92,2.65,2.81-3.69,7.64-8.04,3.85,5.87,3.53,13.41,7.87,11.86ZM403.36,125.52c1.48-2.54,1.16-5.84-.79-8.33-1.74.83-.96,7.22.79,8.33ZM231.72,128.12l.73-.42c-.57.33,3.23-5.51-.43-8.99-.83.09-1.02.8-.95,1.18.1.57.1,1.33,1.02,1.79-2.78,1.58-.29,6.4-.37,6.45ZM426.32,122.51c-2.67-2.14-6.04-1.46-8.93.21-8.9,5.17-14.11,14.81-16.15,24.8-.15.72.45,1.5.57,1.89.11.35,1.05.06,1.3-.22,1.67-1.9,2.85-22.45,23.21-26.69ZM430.46,127.68c6.51,3.09,1.95,12.02,2.84,13.08,2.8,3.34,5.84-12.52-.9-15.65-3.32-1.54-7.04-.06-10,1.87-11.25,7.32-14.91,23.53-13.97,24.07.48.28,1.78,1.33,2.08.17,2-7.67,5.02-15.2,11.3-20.51,2.28-1.93,5.84-4.37,8.66-3.03ZM426.04,137.66c1.76-2.3,1.55-4.96.28-7.07-1.85,2.4-1.19,4.94-.28,7.07ZM431.4,163.15c.25-6.09,2.88-10.73,5.96-15.62,3.74-5.94,9.28-9.66,16.55-10.5.38-1.04-.67-1.69-1.21-1.58-.43.08-1.73-.08-2.13.05l-6.75,2.2c-5.65,3.78-9.68,9.39-12.23,15.49-5.14,10.79-.3,12.92-.18,9.96ZM194.67,160.59l-.12,2.64c4.61,2.15,9.38,3.82,14.47,2.36-2.88-1.02-5.39-.15-7.84-1.67l7.87.53,2.08-8.12,1.33-12.66c-4.55.62-8.64-1.04-12.61-3.07-.99-.51-2.16-1.63-3.38-1.9l-1.02,7.18-.62,6.35c-.27,2.73-.03,5.51-.16,8.37ZM438.37,165.59c2.55-17.4,18.4-28.88,22.24-21.19,2.24,4.49-.58,11.53,2.1,11.8.72.07,1.14-.77,1.15-1.43.12-5.86,1.18-12.47-3.61-14.9-5.55-2.82-13.79,3.06-18.03,9.41-10.58,15.85-4.59,21.41-3.84,16.31ZM219.59,146.17c12.51,7.89,27.4,11.29,41.92,9.66l5.94-2.15c.79-.29,1.84-1.14,2.31-1.64.37-.39.44-1.54-.29-2.48-4.28,2.52-9.08,2.54-13.39,3.37-3.81.74-7.1-.32-10.98-.95-10.8-1.75-21.2-5.41-29.79-12.04.01,2.6,1.73,4.62,4.28,6.22ZM455.65,150.54l.06-4.95c0-.61-1.52-.82-1.71-.39-.11.25-.42.49-.43,1.15l-.09,4.94c-.01.77,1.22,1.27,1.58,1.02.31-.21.59-.99.6-1.78ZM251.72,158.32l-11.64,7.16c-2.79,1.71-5.71,3.52-8.96,3.24l-1.93-2.93c-3.56-5.41-6.84-11.14-9.12-17.33-1.26-.71-2.17-2.2-4.24-2.86l3.21,9.46c1.55,4.56,3.66,9.14,6.49,12.63l6.16,7.61c10.45-4.09,20.01-9.81,28.45-17.6l-8.41.62ZM248.89,157.57c-9.81-1.37-17.89-3.25-26.54-7.81,2,6.73,6.15,11.9,9.82,18.01,6.07-3.12,11.55-6.05,16.71-10.2ZM459.44,176.8c2.46-11.68,8.32-21.48,20.04-25.14,1.28.98,1.49-.51.8-1.22-16.3-2.22-26.07,27.25-22.48,27.77.52.07,1.4-.3,1.64-1.41ZM215.16,191.5c8.93,5.98,19.06,10.35,30.02,12.74,5.19,1.13,10.27,2.48,15.75,1.59l.71-34.21-.19-5.25c-.09-2.42,1.02-4.49-.19-7.1-1.43,1.51-4.35,2.58-4.69,4.48l-.97,13.95-.61,17.44c-.05,1.49.12,3.39-.98,4.19l-10.93-1.35-9.93-2.83c-6.74-1.93-12.75-5.19-18.25-10.08l1.95-24.95c.23-2.91.55-5.95-1.54-8.36l-2.24,18.37c-.65,5.36-.96,10.74-1.4,15.78-.28,3.18,1.17,4.05,3.49,5.6ZM487.67,157.86c4.87,5.06-1.3,12.38,3.24,12.63,2.32-5.32,1.69-13.77-2.73-16.09-3.01-1.58-6.23-1.19-9.04.54-11.95,7.33-16.67,24.15-15.23,25.71.32.35.89.57,1.68.37,1.52-.37,1-13.08,13.44-22.52,2.47-1.87,6.26-3.13,8.65-.65ZM269.99,185.92c.26-.66-.65-1.4-.64-2.1l.16-25.34c0-.78.75-1.74.46-2.71-1.26-.87-2.48.44-3.65.79-1.42.42-1.8,1.88-1.81,3.61l-.25,27.84c2.4-.12,5.39-1.23,5.73-2.09ZM481.69,158.83c-.97,2.57-.99,4.75-.54,6.66.17.73,1.79.99,1.92.57.62-1.96.49-6.76-1.38-7.23ZM216.2,184.64c11.01,7.78,23.43,11.78,36.69,13.11l1.89-33.28c-7.93,5.13-15.05,10.07-23.74,12.39-5.49-4.74-8.53-10.5-12.5-17.22l-2.34,25ZM286.98,184.79c-4.68-.14-8.92.11-13.65-1.66,1.47,5.34,13.88,4.82,15.21,3.23.64-.76.88-1.81,1.29-3.24l2.67-9.4c.96-3.37,2.39-7,1.66-10.7-7.37.78-14.93,1.22-20.91-2.68l-.2,20.99c4.95,2.33,9.99,3.04,15.2,1.86-.13,1.03-.27,1.62-1.27,1.59ZM194.57,166.73c-2.05,3.03-1.91,6.26-2.8,9.27-1.31,4.45-.89,9.42,1.6,13.31,1.87,2.94,4.57,5.19,8.18,3.9-.44-1.63-1.76-2.75-2.98-3.42-5.66-3.12-4.16-13.51-4.07-13.63.3-.43,1.31.17,1.9.44,1.1.5-.32,7.1,2.13,9.31,1.02.91,2.17-1.19,2.29-2l1.01-7.01c.36-2.53,5.22-4.26,3.67-6.82-.67-1.09-5.64-.47-10.92-3.35ZM210.34,171.32c.09-.58.3-1.36-1.16-1.67l-1.54,14.18c1.25.44,1.06-.98,1.61-1.32,1.14-.71-.31-1.8-.22-2.37l1.31-8.82ZM204.69,190.2c1.01-2.12-.22-4.06.06-6.09-1.91,1.09-1.64,2.55-2.91,4.35-.58.83,2.3,2.89,2.85,1.73ZM267.29,200.18c-.74,1.68-.88,3.69,1.12,4.45l3.54-5.52c4.99,3.85-1.89,9.8-1.09,14.65,2.24-.33,4.92.17,6.81-.54,9.28-3.5,12.5-13.74,9.66-23.08-4.72.94-9.93.65-14.8-1.84l-5.23,11.87ZM477.12,214.03l23.83-17.88c-.16-1.48.55-2.7-.33-4.23l-23.92,17.85c.34,1.67-.6,3.23.41,4.26ZM500.62,198.56l-23.55,18.14c-.25,1.75-.53,3.21-.18,4.93l24.16-17.9c-.31-1.85.76-3.82-.43-5.17ZM223.09,268.55c4.59,1.97,9.65,3.22,13.84.09l.28-6.61.61-20.63.75-25.82-6.16-5.9-11.32-6.86c-1.45.91-1.91-1.7-3.3-1.62-.78.97.29,2.23.41,2.85l.22,11.52.88,13.11,1.28,23.36.47,10.18c.23,4.9-.74,5.11,2.05,6.31ZM477.45,228.68l23.34-17.22c.38-1.79.58-3.68-.09-5.66l-23.68,18.48c.03,1.66-.31,3.08.42,4.4ZM11.57,227.14l27.65,15.34,109.01,60.23,53.19,29.17,70.55,38.56c4.36,2.38,10.8,4,14.73,1.1l20.94-15.43,89.16-65.32c-.1,1.36-1.2,2.43-2.11,3.11l-10.91,8.13-1.78.74c-.61.25-.98.96-1.43,1.29l-67.33,50.12c-9.02,6.71-16.78,13.57-26.45,19.18-3.09,1.79-9.06,1.75-12.11.11l-23.31-12.48-107.12-59.42c-.9.52-.91-.56-1.15-.69l-8.03-4.19L11.14,229.1l.13,5.62,59.2,32.64,68.2,37.89,137.22,74.87c2.9,1.58,7.76.58,10.13-.43,3.67-1.56,6.56-4.38,9.72-6.71l43.91-32.28,99.93-72.76.15.53c-.74.35-1.55,1.36-2.26,2.24l-34.34,25.23-13.24,9.62-3.1,2.13-72.14,53.53-27.18,19.86c-4.75,1.34-9.6,1.42-14.49-.43l-113.72-62.95L11.58,236.76c-1.11,2.55.18,4.88,2.82,6.33l118.85,65.11,139.22,76.64c4.34,2.39,9.93,4.12,13.89,1.29l17.53-12.55,169.37-126.1-.02-34.85-54.51,40.55-129.36,96.98c-5.18,3.88-12.12,3.31-17.44.37l-85.97-47.61-117.98-64.86-56.24-30.63c-.97.52-1.18,4.16-.13,4.79l42.58,23.37,149.72,82.46,69.16,37.57c3.53,1.92,8.9,3.66,12.21,1.28l19.3-13.89,102.21-76c-.31,2.38-2.68,3.51-4.32,4.76l-21.64,16.37c-2.43,1.84-5.17,3.12-6.13,4.79-1.66-.12-2.04,1.35-2.65,1.8l-7.8,5.69-76.75,57.41c-3.35,2.5-10.65,2.06-14.22.08l-125.42-69.53-6.38-3.49-27.83-15.22-93.79-50.92c-3.21-1.74-5.45-3.5-8.83-4.72-.17,2.08-.48,4.01.57,6.01l51.38,27.95,76.44,42.34,7.78,4.19,97.41,53.33,27.6,15.04c11.9,6.48,18.1-1.47,26.45-7.63l92.85-68.5.36,1.01-6.66,4.91-25.29,18.91-71.07,53.16c-5.07,3.79-12.1,2.67-17.23-.18l-133.11-73.73c-.68.81-.88-.19-1.06-.6-.61,1.04-.7.06-1-.54L11.15,221.52c-.24,1.4-.79,4.3.42,5.62ZM256.65,283.91c4.09,2.24,10.53,2.5,13.48-2.02,1.11-2.61.21-6.65.14-9.56l-.62-27.47-.57-24.91c-.09-3.99-3.72-4.57-7.13-5.12l-12.88-2.08c-.86-.14-1.61-.65-2.41-.15l7.41,66.87.63,2.99c.23,1.07.97.91,1.95,1.45ZM500.18,213.72l-23.02,18.05c-.65,1.16-.79,3.87.15,4.9l20.84-15.84c1.99-1.51,3.58-3.16,2.79-5.89.04-.37,1.02-.66.83-.84-.2-.2-.76-1.03-1.59-.37ZM505.18,219.68c.32,6.27-2.3,9.48-6.7,12.78l-65.31,48.91-123.91,92.51-18.56,13.55c-5.2,3.8-11.44,4.62-17.72,1.2l-87.89-47.98-92.25-50.79L11.22,245.32c-3.65-1.99-3.9-5.89-3.7-10.16-3.12,1.22-3.85,3.71-3.76,6.4.07,2.13.83,4.37,3.1,5.64l18.06,10.14,94.77,51.96,112.97,62.25,37.48,20.63c5.98,3.29,12.03,3.41,18.94,1.89l109.75-81.99,14.14-10.52,64.22-48.59,29.51-22.2c1.62-1.22,2.58-4.45,2.33-5.93-.31-1.85-1.09-4.05-3.85-5.15ZM477.54,243.62l19.76-14.91c2.62-1.98,4.52-4.5,3.39-7.77l-23.73,18.22c.12,1.85-.01,3.08.58,4.46ZM217.1,272.17l-11.82,8.5c-1.09.78-2.13,1.75-2.5,3-.28.94-1.38,1.11-.43,1.88,6.27,5.12,17.11-.66,23.23-2.74l11.17-3.8c.49-2.27.21-4.35.1-6.93-5.16,2.6-10.06,1.34-15.3-.52l-2.32-1.11c-.81-.39-1.44,1.21-2.14,1.72ZM253.84,308.43c4.16,3.88,11.12.64,13.16-4.03,2.39-5.47,2.5-11.19,2.13-17.37-4.97,1.97-9.2,1.85-14.01.03l-2.1,8.12c-.94,3.63-2.63,10.03.83,13.26Z"/>
      <path class="st26" d="M190.38,162.52l-35.91,26.73c-4.16,3.13-13.1-1.11-20.66-3.49-1.91-.6-4.49,1.66-6.23,3.36l49.84,27.5c1.65-.92,3.36-2.23,4.62-3.87l-6.73-5.99c-1.49-1.33-2.97-3.13-2.7-5.12.24-1.71,1.15-3.38,2.7-4.62l11.84-9.43c.38-.3.89.04,1.47-.12,1.21,4.81,6.24,10.35,12.96,9.24,2.68-.44,5.1-2.92,6.95-6.4,1.75,1.32,3.08,3.18,5.34,4.18l1.57,30.6c.2,3.92-.51,7.85.76,11.86-.3,3.91-.49,7.94,1.09,11.75-1.37,4.1-.06,7.97.06,11.75l.21,6.87-2.98,2.55c-.02-.13-.11-.41-.28-.79-9.59,1.47-22.3,8-20.9,16.66,1.84,11.33,19.46,12.26,31.05,11.51,12.17-.78,10.87,10.55,14.92,13.92,10.92,9.08,36.62,6.76,40.46-9.85,1.65-7.11-1.1-14.12-6.77-17.6,1.12-4.38.22-8.84.48-14.13l15.2,8.38c2.04-1.18,3.9-2.24,5.09-4.06-2.8-2.06-5.56-4.12-7.11-6.89-1.11-1.97-.17-3.56,1.26-4.77l8.42-7.12c1.07-.91,2.73-1.95,4.23-2.54l15.21,7.56,11.42-6.26-16.25-9.58,40.83-31.82,16.2-12.4c-2.42-2.74-5.83-3.39-8.57-5.21s-5.17-2.15-8.37-1.56l-60.77,11.06c1.73-4.72.33-9.76.67-14.97l2.38-5.52,5.08-20.81c.74-3.02-.53-5.32-3.62-6.65l.61-8.3c-.07-9.48-.18-18.53-2.09-27.58l2.59.34c.36.05.51-.39.56-1.09s-3.43-1.09-3.8-2.72c-.3-1.3-1.02-2.73.13-3.18l82.8,43.61,97.41,51.14-23.82,17.66-157.85,118.45c-4.98,3.73-10.89,6.61-17.11,3.18l-95.7-52.72L32.39,214.99l-17.86-9.69c-1.72-.93-2.58-2.01-2.83-3.9-.23-1.72.79-3.17,2.5-4.43l23.83-17.47,151.81-112.96c.79.83,1.07,1.11,1.3,1.13.51.06.49-.38.68-.57.57-.57-.84-.67-.62-1.28.28-.77,1.92-2.09,2.66-1.7l15.11,7.89c-1.74,5.25-3.49,11.4-3.01,16.2-1.73,3.4-1.4,7.1-1.6,10.46-1.74,5.25-1.69,10.54-2.73,15.85l-2.94,15.01c-1.17,5.95-5.3,2.28-5.94,8.84l-2.37,24.14ZM302.58,123c-1.49-.74-2.32-1.96-3.86-1.38,1.11,2.15,4.51,3.66,4.88,2.93.15-.3.34-.86.15-.96l-1.18-.58ZM312.1,128.34c-2-1.42-3.45-2.59-6.13-2.88,1.46,2.05,3.35,4.01,6.13,2.88ZM314.04,129.88c2.09,2.35,3.35,2.52,5.24,2.82-1.28-2.03-3.53-2.89-5.24-2.82ZM326.47,136.49c-1.2-2.31-2.87-2.3-5.01-2.91.73,1.52,2.99,3.46,5.01,2.91ZM334.01,140.32c-1.59-1.86-3.49-2.86-5.72-3.02,1.32,2.05,3.11,3.19,5.72,3.02ZM341.31,143.89c-1.72-1.53-3.46-2.71-5.66-2.84,1.16,2.12,3.07,3.88,5.66,2.84ZM342.71,145.07c1.58,2.3,3.66,3.36,5.91,2.8-2.16-1.4-3.68-3.21-5.91-2.8ZM356.42,151.54c-1.77-1.32-3.76-2.35-5.71-3.02-.49.26-.23,1.39.19,1.62l1.46.81c1.25.69,2.63,2.59,4.05.59ZM363.05,155.25c-.89-1.45-3.12-1.98-4.45-2.2.52,2.57,5.33,3.64,4.45,2.2ZM371.39,159.59c-1.7-1.44-3.2-2.13-5.39-2.8.33,2.04,2.74,3.73,5.39,2.8ZM377.41,162.51c-1.96-.74-2.83-2.64-4.8-2.06.98,2.17,3.04,2.96,4.78,3.38.6-.35.93-1.29.03-1.32ZM385.58,166.87c-1.61-1.05-2.88-2.28-5.39-2.48.77,1.85,2.87,3.7,5.39,2.48ZM395.18,172.74c1.34,1.4,2.66,2.02,4.22,3.02.5.32,1.21-.67,1.21-1,0-.09-3.03-2.65-5.44-2.02ZM403.04,176.19c.3,2.16,4.24,3.78,4.49,3.59.53-.41.83-.84.54-1.23-.11-.15-3.13-2.18-5.03-2.36ZM421.81,185.58c-2-.58-2.99-2.17-4.85-1.25,1.43,1.84,3.01,2.01,4.56,2.99.52.33,1.24-1.46.28-1.74ZM430.17,190.58c-1.53-1.43-3.4-2.67-5.6-2.46,1.15,1.93,3.34,3.53,5.6,2.46ZM437.66,194.61c-1.62-1.9-3.55-3.12-5.89-2.96,1.62,1.82,3.21,3.64,5.89,2.96ZM452.95,202.23c-1.83-1.03-3.57-2.3-5.95-2.42,1.17,2.29,3.35,2.23,4.71,3.68.67-.45.88-.74,1.24-1.25ZM460.2,206.39c-1.51-1.91-3.56-2.78-5.81-2.74,1.18,2.08,3.54,3.17,5.81,2.74ZM462.33,207.73c.85,1.9,3.45,3.17,4.23,2.39,1.03-1.04-1.14-2.16-4.23-2.39Z"/>
      <path class="st44" d="M11.57,227.14c-1.2-1.33-.66-4.22-.42-5.62l125.28,68.18c.3.6.39,1.58,1,.54.18.41.38,1.42,1.06.6l133.11,73.73c5.14,2.85,12.17,3.97,17.23.18l71.07-53.16,25.29-18.91,6.66-4.91-.36-1.01-92.85,68.5c-8.34,6.16-14.55,14.11-26.45,7.63l-27.6-15.04-97.41-53.33-7.78-4.19-76.44-42.34-51.38-27.95c-1.05-2-.74-3.93-.57-6.01,3.39,1.22,5.62,2.98,8.83,4.72l93.79,50.92,27.83,15.22,6.38,3.49,125.42,69.53c3.56,1.98,10.87,2.42,14.22-.08l76.75-57.41,7.8-5.69c.61-.44.99-1.91,2.65-1.8.95-1.67,3.69-2.95,6.13-4.79l21.64-16.37c1.65-1.25,4.01-2.38,4.32-4.76l-102.21,76-19.3,13.89c-3.3,2.38-8.68.63-12.21-1.28l-69.16-37.57L54.19,235.58l-42.58-23.37c-1.04-.63-.84-4.27.13-4.79l56.24,30.63,117.98,64.86,85.97,47.61c5.31,2.94,12.25,3.52,17.44-.37l129.36-96.98,54.51-40.55.02,34.85-169.37,126.1-17.53,12.55c-3.96,2.83-9.55,1.1-13.89-1.29l-139.22-76.64L14.4,243.08c-2.65-1.45-3.94-3.78-2.82-6.33l147.68,80.98,113.72,62.95c4.89,1.85,9.74,1.76,14.49.43l27.18-19.86,72.14-53.53,3.1-2.13,13.24-9.62,34.34-25.23c.71-.88,1.52-1.89,2.26-2.24l-.15-.53-99.93,72.76-43.91,32.28c-3.16,2.32-6.05,5.15-9.72,6.71-2.36,1-7.23,2.01-10.13.43l-137.22-74.87-68.2-37.89-59.2-32.64-.13-5.62,123.95,67.61,8.03,4.19c.24.12.24,1.21,1.15.69l107.12,59.42,23.31,12.48c3.05,1.63,9.03,1.68,12.11-.11,9.68-5.61,17.44-12.47,26.45-19.18l67.33-50.12c.45-.33.83-1.04,1.43-1.29l1.78-.74,10.91-8.13c.91-.68,2.01-1.75,2.11-3.11l-89.16,65.32-20.94,15.43c-3.93,2.9-10.36,1.28-14.73-1.1l-70.55-38.56-53.19-29.17-109.01-60.23-27.65-15.34Z"/>
      <path class="st21" d="M315.23,103.72c-1.9,2.26-1.15,5.67.24,7.29,1.98,2.3,3.93,2.59,7.16,2.76,5.61.3,11.16-2.57,12.22-8.61.19-1.07-1.32-2.25-1.55-3.45-.37-1.98,1.51-4.57,3.59-5.76l13.75,7.42c-2.3,2.5-3.5,5.73-4.24,8.75-.88,3.59-6.49,6.56-5.35,10.11.38,1.19,1.4,3.06,2.99,4.05,5.72,3.54,13.89,1.79,17.43-3.83,2.18-3.46-4.03-5.76,2.24-12.59l5.91,3.23c2.61,1.43,5.76,2.28,7.76,4.65l-3.76,7.28c-.96,1.87-.15,4.29-1.95,5.37-2.74,1.65-3.72,7.57-1.1,9.41,3.86,2.72,8.89,3.29,12.63,1.79,4.22-1.69,7.58-5.57,5.75-9.79-1.01-2.34.44-6.49,2.78-7.15,4.83,1.56,8.93,4.3,13.33,6.76l-3.18,6.82c-1.45,3.11-2.33,5.42-4.77,7.73-1.21,1.14-1.96,3.41-1.48,4.94s1.2,3.31,3.16,4.07c8.06,3.13,16.18.22,17.89-4.73,1.18-3.43-4.21-6.68,1.85-12.07l14.38,7.59c-4.41,5.11-3.61,11.57-7.6,14.11-1.77,1.13-2.21,4.24-1.44,6.34,1.88,5.12,12.2,6.14,16.93,2.24,1.61-1.32,2.91-2.59,3.59-4.31.77-1.93-.26-4.01-1.23-5.67l2.85-5.67c5.57,1.91,9.88,4.36,14.71,7.34l-3.85,8.73c-2.34,5.29-5.75,5.79-5.74,9.04,0,1.77.89,4.08,2.89,5.23,4.62,2.65,11.34,2.47,16.01-.47,2.1-1.33,3-4.51,2.7-6.77-.15-1.1-2.3-1.81-1.83-3.35.56-1.85,1.86-3.17,3.07-5.22l24.85,12.55c2.28,1.15,2.37,3.75,2.13,6.02-.22,2.04-1.9,3.55-3.94,5.05l-21.25,15.59-162.43-85.02-21.32-10.86-2.36-12.27c6.2,2.56,11.81,1.57,15.58-3.2,2.77-3.5-2.35-8.65,3.55-13.41l14.42,7.17c-3.85,4.56-3.74,9.75-7.95,14.76Z"/>
      <path class="st28" d="M289.78,160.02c-4.2,1.04-10.03.5-13.3-2.13-1.08-1.37-.71-3.53-.63-4.53.84-9.57-.51-18.85-2.83-28.22l-3.59-14.46c-.22-.87-.54-1.57-.95-1.87s-1.29-.28-1.46.06c-.2.39-.43,1.32-.32,1.91l3.53,17.99c1.14,5.79-.57,11.28-.31,16.96-11.22,7.01-26,4.04-38.8-.3-.26-8.45.09-9.76,5.99-15.42,1.24-.79,3.78.41,4.81-1.3l-1.58-5.02,15.18-20.67c7.66-6.02,12.29-14.2,15.36-23.38.22-.65.33-1.4,1.06-1.35,1.24-.16,1.34,1.66,2.18,2.39,3.75,3.29,7.45,7.32,8.25,12.53l1.27,8.27c2.02,2.25,2.93,5.06,1.81,8.05l4,21.31.37,19.98-.05,9.21Z"/>
      <path class="st14" d="M296.43,255.16c-.83-.31-1.61.2-2.59-.4.4-.68,1.61-.45,1.38-1.74l-13.82-.46c-2.02-.07-2.3.4-3.66-1.15-.77-.88-.75-1.57.11-2.94.76-1.21,2.77-1.22,4.2-.52l1.25-4.04c.15-.49.62-.78.22-.83l-.74-.11-8.29-5.24c.6-1.04-.77-1.45-1.06-2.2-.68-1.77-1.07-10.1.46-11.01l19.19,10.42,26.21-20.01,13.13-9.96-49.33,9.96c-.69-.41-.64-1-.09-1.34,3.6-2.21,6.01-5.5,7.36-9.17l60.77-11.06c3.2-.59,5.68-.23,8.37,1.56s6.14,2.47,8.57,5.21l-16.2,12.4-40.83,31.82,16.25,9.58-11.42,6.26-15.21-7.56c-1.5.59-3.15,1.63-4.23,2.54Z"/>
      <path class="st83" d="M505.18,219.68c2.76,1.1,3.53,3.3,3.85,5.15.25,1.48-.71,4.72-2.33,5.93l-29.51,22.2-64.22,48.59-14.14,10.52-109.75,81.99c-6.91,1.52-12.97,1.4-18.94-1.89l-37.48-20.63-112.97-62.25-94.77-51.96-18.06-10.14c-2.27-1.27-3.03-3.51-3.1-5.64-.08-2.69.64-5.18,3.76-6.4-.2,4.27.05,8.17,3.7,10.16l81.63,44.54,92.25,50.79,87.89,47.98c6.27,3.42,12.52,2.6,17.72-1.2l18.56-13.55,123.91-92.51,65.31-48.91c4.4-3.29,7.02-6.51,6.7-12.78Z"/>
      <path class="st27" d="M256.84,43.67c4.18-.06,2.66-3.75,5.08-6,1.31-1.22,2.56-1.21,3.89-.41,1.94,1.17,1.71,9.54-3.19,12.43-.92.57-3.68-.3-4.51.93-2.45,9.94-10.56,16.38-20.45,17.02-5.59.36-10.26-2.21-12.42-7.72-4.77-12.17-5.3-25.98-2.34-38.94,7.63,5.21,17.07,4.33,25.47,2.4,1.41-.59,3.89.74,3.75,2.39l-.59,7c4.41,4.73,2.8,10.92,5.31,10.89ZM224.66,35.23c-1.6.73-1.09,5.16.4,5.59,1.95.57,2.18-1.88,2.15-2.84-.04-1.18.21-4-2.54-2.75ZM241.55,43.99c.63-1.07.83-4.09-.02-5.01-1.05-1.15-2.19-.12-2.42.45-.77,1.89-.64,4.07.37,4.82.42.31,1.52.68,2.07-.26ZM227.21,49.18c-.02,2.92,5.35,2.96,5.79,2.28,1.53-2.37-3.08-.56-4.3-2.24s3.39-7.66,1.26-10.57c-1.24,3.69-2.72,7.28-2.74,10.53ZM236.4,57.25c-3.92-.4-6.46-.98-9.58-1.72,2.25,3.28,7.03,4.06,9.58,1.72Z"/>
      <path class="st53" d="M214.61,269.89l-3.97,3.08c-5,3.89-13.7,8.31-11.13,13.98,2.17,4.79,14.05,4.13,22.15.64,9.21-3.97,17.43-3,18.47-7.48l.12-10.32,9.23,1.38,1.76,13.39c.84,6.41-7.3,23.6,2.54,27.57,7.19,2.9,13.91-.91,16.49-7.67,3.35-8.77,1.53-15.69,2.82-20.71,5.67,3.48,8.42,10.49,6.77,17.6-3.85,16.61-29.55,18.93-40.46,9.85-4.06-3.37-2.76-14.7-14.92-13.92-11.59.74-29.21-.18-31.05-11.51-1.4-8.66,11.31-15.19,20.9-16.66.17.38.26.66.28.79Z"/>
      <path class="st39" d="M256.65,283.91l-2.35-23.95-4.44-39.82-.79-7.4,12.88,2.08c3.4.55,7.04,1.13,7.13,5.12l.57,24.91.62,27.47c.07,2.92.97,6.95-.14,9.56-2.95,4.53-9.39,4.26-13.48,2.02Z"/>
      <path class="st79" d="M188.65,187.49c-.59.16-1.09-.18-1.47.12l-11.84,9.43c-1.55,1.24-2.47,2.9-2.7,4.62-.27,1.99,1.2,3.79,2.7,5.12l6.73,5.99c-1.27,1.64-2.97,2.95-4.62,3.87l-49.84-27.5c1.74-1.7,4.31-3.96,6.23-3.36,7.56,2.38,16.5,6.61,20.66,3.49l35.91-26.73c.7.81,1.79,1.86,1.11,3.33-3.16,6.82-4.63,14.54-2.84,21.64Z"/>
      <path class="st39" d="M223.09,268.55l1.13-1.1-.41-1.78-.28-7.8-.66-12.36-.7-11.88-.61-10.61-.57-9.37c-.22-3.58-.32-6.96.08-10.83l11.32,6.86,6.16,5.9-.75,25.82-.61,20.63-.28,6.61c-4.19,3.14-9.25,1.89-13.84-.09Z"/>
      <path class="st58" d="M253.65,27.09c1.59-12.19-19.97,3.26-31.71-10.19-.99-1.21.39-4.55,2-6.17,7.82-7.86,20.27-10.38,30.3-6.21,3.12,1.94,6.16,3.2,7.55,6.52,8.76,4.87,7.32,15.14,6.18,25.06-2.44-1.16-4.19-1.18-6.23-.5-3,1-2.55,5.21-4.71,5.71.24-5.73-4.24-7.62-3.38-14.23Z"/>
      <path class="st63" d="M216.28,68.8c.56-.34,2.69-1.12,2.42-.23-2.86,9.41-1.8,18.98,1.69,28.12l2.22,9.63,3.6,13.13c-1.4,1.29-2.13,2.53-2.91,3.81-.72,1.17.56,1.96.9,2.52.46.73,2.15.16,2.69.74,1.89,2.03,2.86,5.15,2.73,7.76l-.5,10.29-8.2-4.01c-2.05-1-4.55-2.93-4.61-5.37l-.46-17.68-.53-8.79-1.26-14.77c-1.38-.35-2.15.86-2.11,1.54l.14,2.51c.74,13.55,3.24,28.28.93,42.55-3.88.24-7.57-.08-10.65-2.13,1.99-2.75,1.83-6.11,2.38-9.21l3.36-19.04,4.19-29.15c.53-3.72,1-7.39,4.25-10.19l.43-1.03c.16-.39.17-1.18-.71-.99Z"/>
      <path class="st50" d="M216.2,184.64l2.34-25c3.96,6.72,7,12.48,12.5,17.22,8.69-2.32,15.81-7.26,23.74-12.39l-1.89,33.28c-13.26-1.33-25.68-5.33-36.69-13.11Z"/>
      <path class="st90" d="M273.9,224.52c-2.07-1.12-.75-5.53-.5-7.28l9.71-2.3,49.33-9.96-13.13,9.96-26.21,20.01-19.19-10.42Z"/>
      <path class="st87" d="M231.96,109.63c-10.63-7.99-15.2-27.91-10.77-40.21.41-1.14.64-3.2,1.77-3.65.96-.38,4.33-.03,3.98,1.24-2.07,7.47-2.39,14.41-.53,21.83,1.37,5.45,2.91,11.09,8.19,14.59,16.47-4.72,27.48-18.6,29.96-35.44,2.17,1.5,5.25,3.88,5.29,6.31-3.34,17.9-16.96,33.5-34.73,35.79l-1.52.75c-.76.38-1.03-.75-1.65-1.21Z"/>
      <path class="st64" d="M286.98,184.79c1.01.03,1.15-.56,1.27-1.59-5.22,1.18-10.25.47-15.2-1.86l.2-20.99c5.97,3.9,13.54,3.46,20.91,2.68.74,3.7-.7,7.34-1.66,10.7l-2.67,9.4c-.41,1.43-.64,2.47-1.29,3.24-1.34,1.59-13.75,2.11-15.21-3.23,4.73,1.77,8.97,1.51,13.65,1.66Z"/>
      <path class="st100" d="M215.16,191.5l.53-2.53c2.47-.14,3.02,2.07,4.68,2.8l6.7,2.93c2,.88,2.95,2.4,5.68,2.48,3.89.11,9.77,5.51,10.33.79l10.93,1.35.85.38c.23.1.99-.26,1.01-.55l1.81-33.79c-1.09-.41-.28-1.6-1.1-1.63.34-1.9,3.26-2.97,4.69-4.48,1.22,2.61.1,4.68.19,7.1l.19,5.25-.71,34.21c-5.48.89-10.55-.45-15.75-1.59-10.97-2.39-21.09-6.75-30.02-12.74Z"/>
      <path class="st35" d="M267.29,200.18l5.23-11.87c4.87,2.5,10.08,2.79,14.8,1.84,2.84,9.34-.38,19.58-9.66,23.08-1.9.72-4.58.22-6.81.54-.79-4.86,6.09-10.81,1.09-14.65l-3.54,5.52c-2-.76-1.86-2.77-1.12-4.45Z"/>
      <path class="st0" d="M253.84,308.43c-3.46-3.23-1.77-9.63-.83-13.26l2.1-8.12c4.81,1.82,9.05,1.94,14.01-.03.37,6.18.26,11.91-2.13,17.37-2.04,4.67-9,7.91-13.16,4.03Z"/>
      <path class="st91" d="M199.84,140.6c3.97,2.04,8.07,3.7,12.61,3.07l-1.33,12.66-2.08,8.12-7.87-.53c2.45,1.52,4.96.65,7.84,1.67-5.1,1.46-9.86-.21-14.47-2.36l.12-2.64c.85-.13,1.12.95,1.59.55.3-.26,1.01-.85,1.06-1.56l.59-8.66.76-7.91c.04-.38.22-1.01.12-1.33-.22-.7.27-1,1.05-1.08Z"/>
      <path class="st33" d="M210.88,69.35l-10.29-5.23c-1.38-.7-2.94-1.06-3.76-2.79l21.68-15.56c1.24,5.94,2.01,11.46,4.72,16.49l-6.26,2.56c-2.33.95-3.99,1.85-6.09,4.53Z"/>
      <path class="st47" d="M217.1,272.17c.71-.51,1.33-2.1,2.14-1.72l2.32,1.11c5.23,1.86,10.14,3.12,15.3.52.11,2.58.38,4.66-.1,6.93l-11.17,3.8c-6.13,2.08-16.96,7.87-23.23,2.74-.95-.78.16-.94.43-1.88.38,0,.69.69.88.51l10.54-7.75c1.59-.72,3.2-2.35,2.9-4.25Z"/>
      <path class="st85" d="M243.85,224.04l5.64,47.13-9.23-1.38,1.56-45.46c.8.12,1.34.01,2.03-.29Z"/>
      <path class="st7" d="M251.72,158.32l8.41-.62c-8.43,7.79-18,13.51-28.45,17.6l-6.16-7.61c-2.82-3.49-4.94-8.07-6.49-12.63l-3.21-9.46c2.07.66,2.98,2.15,4.24,2.86,2.29,6.18,5.57,11.91,9.12,17.33l1.93,2.93c3.25.28,6.17-1.53,8.96-3.24l11.64-7.16Z"/>
      <path class="st78" d="M194.57,166.73c5.28,2.89,10.25,2.26,10.92,3.35,1.55,2.55-3.31,4.29-3.67,6.82l-1.01,7.01c-.12.81-1.27,2.91-2.29,2-2.46-2.21-1.04-8.81-2.13-9.31-.59-.27-1.6-.86-1.9-.44-.09.12-1.59,10.51,4.07,13.63,1.22.67,2.54,1.79,2.98,3.42-3.61,1.29-6.31-.96-8.18-3.9-2.48-3.9-2.91-8.87-1.6-13.31.89-3.01.75-6.24,2.8-9.27Z"/>
      <path class="st56" d="M284.49,68.8l11,5.71c-4.25,5.92-4.58,13.94-8.52,15.11-.93-8.34-11.69-11.94-7.06-18.83.62-.92.73-1.91,1.31-2.34,1.25-.94,2.11-.25,3.27.35Z"/>
      <path class="st108" d="M248.89,157.57c-5.17,4.15-10.64,7.08-16.71,10.2-3.68-6.11-7.82-11.29-9.82-18.01,8.65,4.56,16.73,6.44,26.54,7.81Z"/>
      <path class="st105" d="M289.78,160.02l.05-9.21-.37-19.98-4-21.31c1.12-2.98.2-5.8-1.81-8.05l-1.27-8.27c-.8-5.21-4.5-9.24-8.25-12.53-.83-.73-.94-2.55-2.18-2.39l-.14-1.26c-.02-.21.45-.23.77.04,4.41,3.72,9.57,6.88,10.86,12.58l5.45,24.07,2.58,15.63c2.32,14.09-.05,21.38.44,27.62.05.59-.44,1.69-.58,2.14-.15.51-.65.7-1.55.92Z"/>
      <path class="st49" d="M219.59,146.17c-2.55-1.61-4.27-3.62-4.28-6.22,8.59,6.63,19,10.29,29.79,12.04,3.88.63,7.17,1.69,10.98.95,4.3-.83,9.1-.85,13.39-3.37.73.94.66,2.09.29,2.48-.47.5-1.52,1.35-2.31,1.64l-5.94,2.15c-14.51,1.62-29.4-1.77-41.92-9.66Z"/>
      <path class="st99" d="M221.09,202.82c-.4,3.86-.3,7.24-.08,10.83l.57,9.37.61,10.61.7,11.88.66,12.36.28,7.8.41,1.78-1.13,1.1c-2.79-1.2-1.83-1.41-2.05-6.31l-.47-10.18-1.28-23.36-.88-13.11-.22-11.52c-.12-.62-1.18-1.88-.41-2.85,1.39-.08,1.85,2.53,3.3,1.62Z"/>
      <path class="st64" d="M249.07,212.74l.79,7.4,4.44,39.82,2.35,23.95c-.98-.54-1.72-.38-1.95-1.45l-.63-2.99-7.41-66.87c.8-.51,1.55,0,2.41.15Z"/>
      <path class="st10" d="M243.08,197.96c-.56,4.72-6.45-.67-10.33-.79-2.73-.08-3.68-1.61-5.68-2.48l-6.7-2.93c-1.66-.73-2.21-2.94-4.68-2.8l-.53,2.53c-2.32-1.55-3.76-2.42-3.49-5.6.44-5.04.74-10.42,1.4-15.78l2.24-18.37c2.09,2.41,1.77,5.45,1.54,8.36l-1.95,24.95c5.5,4.89,11.5,8.15,18.25,10.08l9.93,2.83Z"/>
      <path class="st99" d="M202.38,138.41c-.77-.52-1.99-.95-1.75-1.74l.64-2.15,2.63-13.19,3.94-25.43,1.4-10.04,1.04-6.27c.66-3.97,2.64-8.73,5.99-10.78.87-.19.87.61.71.99l-.43,1.03c-3.25,2.8-3.72,6.47-4.25,10.19l-4.19,29.15-3.36,19.04c-.55,3.1-.39,6.45-2.38,9.21Z"/>
      <path class="st19" d="M269.99,185.92c-.34.86-3.33,1.97-5.73,2.09l.25-27.84c.02-1.73.39-3.19,1.81-3.61,1.17-.35,2.39-1.66,3.65-.79.29.97-.46,1.93-.46,2.71l-.16,25.34c0,.7.91,1.43.64,2.1Z"/>
      <path class="st70" d="M300.06,96.11c-5.74,2.06,2.93-24.31,16.84-28.1,4.33-1.18,8.45.88,9.51,5.16,1.14,4.57.04,12.62-2.16,11.82-2.56-.92,3.33-9.98-2.96-14-2.44-1.25-4.51-.52-6.51.86-12.32,7.1-13.3,23.76-14.72,24.27Z"/>
      <path class="st16" d="M487.67,157.86c-2.39-2.48-6.18-1.23-8.65.65-12.44,9.44-11.92,22.15-13.44,22.52-.79.19-1.35-.02-1.68-.37-1.44-1.56,3.28-18.38,15.23-25.71,2.82-1.73,6.03-2.12,9.04-.54,4.43,2.32,5.06,10.77,2.73,16.09-4.54-.24,1.63-7.56-3.24-12.63Z"/>
      <path class="st8" d="M352.78,85.51c2.04,3.66,2.36,15.02-.98,13.6-1.46-.62,1.92-10.82-3.33-13.51-5.98-3.06-18.77,9.71-20.16,23.6-.09.91-.42.99-1.08,1.02-.97.03-.91-.14-1.12-.49-.48-.79.56-2.2-.49-2.76,1.97-8.54,6.87-17.12,14.31-22.41,4.03-3.1,10.23-3.71,12.84.96Z"/>
      <path class="st92" d="M380.46,100.47c1.51,4.22.22,13.16-1.31,12.78-.35-.09-1.09-.53-.95-.93l.52-1.45-.22-7.37c-.05-1.73-1.19-2.77-2.04-3.49-1.29-1.11-3.37-1-4.97-.23-14.14,6.78-15.01,23.08-15.67,23.82-.39.43-1.3.9-2.01.54-1.08-5.22,1.4-10.51,4.35-15.24,3.41-5.46,7.46-10.55,13.58-12.24,3.67-1.01,7.3-.12,8.72,3.81Z"/>
      <path class="st76" d="M403.07,114c-3.04-1.87-9.12,1.73-12.69,6.53-6.62,8.89-7.04,17.55-7.58,17.76-8.25,3.2,7.97-33.01,21.32-27.21,5.16,2.24,5.04,9.8,3.67,16.2-.13.6-1.17.1-1.51,0-.61-.18-.5-1.04-.51-1.83l-.12-7.8c-.03-1.84-1.59-3.04-2.57-3.65Z"/>
      <path class="st86" d="M438.37,165.59c-.75,5.1-6.74-.46,3.84-16.31,4.24-6.35,12.48-12.22,18.03-9.41,4.79,2.43,3.73,9.04,3.61,14.9-.01.65-.43,1.5-1.15,1.43-2.68-.27.14-7.31-2.1-11.8-3.84-7.7-19.68,3.79-22.24,21.19Z"/>
      <path class="st72" d="M430.46,127.68c-2.83-1.34-6.38,1.1-8.66,3.03-6.28,5.31-9.29,12.84-11.3,20.51-.3,1.17-1.6.11-2.08-.17-.94-.55,2.72-16.75,13.97-24.07,2.96-1.93,6.68-3.41,10-1.87,6.75,3.12,3.7,18.98.9,15.65-.88-1.06,3.67-9.99-2.84-13.08Z"/>
      <path class="st88" d="M500.62,198.56c1.19,1.35.12,3.32.43,5.17l-24.16,17.9c-.35-1.72-.07-3.18.18-4.93l23.55-18.14Z"/>
      <path class="st52" d="M500.18,213.72c.84-.66,1.39.17,1.59.37.19.18-.79.47-.83.84.8,2.73-.8,4.38-2.79,5.89l-20.84,15.84c-.95-1.03-.8-3.74-.15-4.9l23.02-18.05Z"/>
      <path class="st20" d="M477.45,228.68c-.74-1.32-.4-2.74-.42-4.4l23.68-18.48c.67,1.98.47,3.87.09,5.66l-23.34,17.22Z"/>
      <path class="st69" d="M477.54,243.62c-.59-1.37-.46-2.6-.58-4.46l23.73-18.22c1.13,3.27-.77,5.79-3.39,7.77l-19.76,14.91Z"/>
      <path class="st108" d="M252.21,80.1l-5.69,4.56-4.83-9.09c6.49-2.05,11.86-5.05,15.99-10.32.97-.41,1.75.47.36.61l-5.83,14.23Z"/>
      <path class="st104" d="M477.12,214.03c-1.01-1.03-.08-2.59-.41-4.26l23.92-17.85c.88,1.54.17,2.75.33,4.23l-23.83,17.88Z"/>
      <path class="st59" d="M344.12,79.98c-21.83,5.59-22.04,26.25-23.08,27.12-4.53,3.8-1.43-16.15,11.39-25.01,3.57-2.46,7.61-4.97,11.69-2.11Z"/>
      <path class="st9" d="M426.32,122.51c-20.36,4.24-21.54,24.79-23.21,26.69-.25.28-1.19.57-1.3.22-.12-.39-.72-1.17-.57-1.89,2.04-9.99,7.26-19.63,16.15-24.8,2.89-1.68,6.26-2.36,8.93-.21Z"/>
      <path class="st54" d="M398.38,108.73c-13.76,2.91-21.11,14.62-22.73,27.62-.07.55-2.44-.56-2.33-1.34,1.56-10.6,7.28-20.57,16.51-26.25,2.67-1.64,6.41-2.09,8.54-.03Z"/>
      <path class="st110" d="M459.44,176.8c-.23,1.11-1.12,1.48-1.64,1.41-3.6-.52,6.17-29.99,22.48-27.77.69.71.48,2.2-.8,1.22-11.72,3.66-17.58,13.46-20.04,25.14Z"/>
      <path class="st13" d="M316.21,65.49l-6.93,2.61c-9.11,4.44-14.11,14.2-15.28,24.01-.11.94-1.11,1.19-1.63,1.05-2.17-.57.05-17.07,13.91-26.11,2.91-1.9,5.98-2.83,9.94-1.56Z"/>
      <path class="st11" d="M370.13,94.31c-20.03,5.42-20.16,25.41-21.14,26.08-.54.37-1.73,1.17-2.16.58-.57-5.61,1.98-10.11,4.41-14.59s5.06-7.86,9.5-10.6c2.67-1.65,5.81-4.11,9.39-1.47Z"/>
      <path class="st42" d="M431.4,163.15c-.12,2.96-4.96.84.18-9.96,2.56-6.1,6.58-11.71,12.23-15.49l6.75-2.2c.4-.13,1.7.03,2.13-.05.55-.1,1.6.54,1.21,1.58-7.27.84-12.81,4.56-16.55,10.5-3.08,4.89-5.72,9.53-5.96,15.62Z"/>
      <path class="st80" d="M247.35,94.67c3.68-6.1,7.22-12.27,10.04-19.1,1.2-2.9,3.17-5.41,3.44-8.56.91-.25,1.82.47,1.44,1.21-1.64,10-5.4,20.06-14.93,26.45Z"/>
      <path class="st80" d="M238.71,98.85c.03,1.3-3.29,2.51-4.35,2.08-2.08-1.47-1.62-4.97-.85-7.02l2.01-5.34c.18-.48.2-1.58.64-1.9.51-.38,2.27-.13,2.29.95l.26,11.24Z"/>
      <path class="st109" d="M292.47,55.16c-.15.59-.09,1.21-.83,1.61-5.11-.56-14.3,10.02-16.07,17.54-1.1.29-1.85-.83-2.06-1.41-.3-.82,5.5-15.57,16.83-18.25l1.91-.21c.26-.03.22.38.22.72Z"/>
      <path class="st102" d="M199.84,140.6c-.78.07-1.28.37-1.05,1.08.1.32-.08.95-.12,1.33l-.76,7.91-.59,8.66c-.05.71-.76,1.3-1.06,1.56-.47.4-.74-.68-1.59-.55.13-2.86-.11-5.65.16-8.37l.62-6.35,1.02-7.18c1.22.27,2.39,1.39,3.38,1.9Z"/>
      <path class="st29" d="M282.79,242.97l-9.6,7.13-.15-12.31c0-.37.28-.57.54-.29l.91.22,8.29,5.24Z"/>
      <path class="st15" d="M291.63,56.78c.74-.4.68-1.02.83-1.61.65.59,1.84-.73,2.64-.4,3.05,1.25,4.05,4.93,3.81,7.97l-.55,6.97c-.05.7-.45,1.68-1.07,1.66-.36-.01-1.02-.41-1.71-.81l-.36-9.85c-.04-1.13-.71-2.2-1.11-2.95-.47-.87-1.29-.85-2.48-.98Z"/>
      <path class="st31" d="M240.3,127.66c-4.34,1.55-4.02-5.98-7.87-11.86-4.83,4.35-4.72,10.69-7.64,8.04,3.45-4.4,7.67-14.51,8.96-11.01l3.36,9.12c.73,1.98.76,4.13,3.19,5.7Z"/>
      <path class="st62" d="M240.38,111.56c5.11-1.88,9.93-5.46,8.55-2.51l-10.63,13.42c-1.06-3.67.71-7.58,2.08-10.91Z"/>
      <path class="st77" d="M243.29,84.49c1.02.8,1.22,2.63,2.66,2.96,1.09-.39,1.47-2.01,3.45-1.86-2.28,4.4-4.42,8.51-7.91,12.6l-.33-11.76c.1-.44,1.45-1.6,2.13-1.94Z"/>
      <path class="st53" d="M286.28,53.08c-7.8,2.02-12.22,7.3-16.19,14.81-.77-.18-.79-.83-1.67-1.62,3.26-7.34,13.01-15.99,18.76-14.68.35.08.93.18.91.75-.05,1.22-1.01.53-1.81.74Z"/>
      <path class="st22" d="M256.58,163.73c.82.03.02,1.22,1.1,1.63l-1.81,33.79c-.02.29-.78.65-1.01.55l-.85-.38c1.11-.8.93-2.7.98-4.19l.61-17.44.97-13.95Z"/>
      <path class="st106" d="M293.48,68.91c-5.37-.67-4.45-8.09-3.83-8.77.35-.39.97-.97,1.88-.64,2.24.8,1.94,5.28,1.96,9.41Z"/>
      <path class="st68" d="M238.6,76.87c.49-.23,3.66,4.2,2.47,5.74-.81,1.05-2.19,2.73-3.89,1.6-1.84-1.21-2.42-5.53-.38-6.49l1.81-.85Z"/>
      <path class="st43" d="M202.79,283.66c.36-1.25,1.41-2.22,2.5-3l11.82-8.5c.31,1.9-1.31,3.53-2.9,4.25l-10.54,7.75c-.18.18-.49-.5-.88-.51Z"/>
      <path class="st12" d="M268.83,60.73c-.68,1.49-1.4,3.12-2.34,3.15-3.34-1.22-5.47-3.98-7.53-6.82,1.58-1.32,2.49-.05,3.64.53l6.23,3.14Z"/>
      <path class="st37" d="M232.56,69.88c2.35.78,2.89,2.52,4.9,4.17l-6.28,4.57c.05-2.94-.35-5.67,1.37-8.74Z"/>
      <path class="st30" d="M224.55,105.8c.76-.59,4.88,4.32,4.8,5.96-.08,1.73-.76,3.66-2.18,4.81-1.67-4.23-3.21-10.31-2.62-10.76Z"/>
      <path class="st103" d="M230.57,83.45c-.11-1.14,2.12-1.68,2.5-2.51l.9,3.6c.52,2.09-1.76,4.34-1.48,6.83.11.99.46,1.67-.04,1.91-.27.13-.78,0-1-.64l-.86-9.19Z"/>
      <path class="st98" d="M269.92,42.64c3.25,2.55,3.13,8.28,2.31,12.69-.09.46-.92.42-1.13.49-.42.15-.52-.58-.55-1.29l-.26-6.04c-.08-1.9-2.03-3.46-.36-5.85Z"/>
      <path class="st84" d="M267.69,55.97c-1.85-.65-3.61-2.27-3.95-3.82,1.02-1.11,2.42-1.72,3.58-3.58,1.38,2.39.91,4.79.37,7.4Z"/>
      <path class="st73" d="M243.85,224.04c-.69.3-1.23.41-2.03.29l.43-11.93c1.96,3.68,1.15,7.78,1.61,11.63Z"/>
      <path class="st18" d="M210.34,171.32l-1.31,8.82c-.09.57,1.37,1.67.22,2.37-.55.34-.36,1.76-1.61,1.32l1.54-14.18c1.46.31,1.24,1.08,1.16,1.67Z"/>
      <path class="st94" d="M231.72,128.12c.08-.04-2.41-4.87.37-6.45-.92-.46-.93-1.22-1.02-1.79-.07-.38.12-1.09.95-1.18,3.66,3.49-.13,9.32.43,8.99l-.73.42Z"/>
      <path class="st17" d="M455.65,150.54c0,.79-.29,1.57-.6,1.78-.37.25-1.6-.25-1.58-1.02l.09-4.94c.01-.66.32-.9.43-1.15.19-.43,1.72-.23,1.71.39l-.06,4.95Z"/>
      <path class="st71" d="M481.69,158.83c1.87.47,2,5.26,1.38,7.23-.13.42-1.75.16-1.92-.57-.44-1.91-.43-4.09.54-6.66Z"/>
      <path class="st65" d="M204.69,190.2c-.55,1.16-3.43-.9-2.85-1.73,1.27-1.8,1-3.26,2.91-4.35-.28,2.03.95,3.96-.06,6.09Z"/>
      <path class="st97" d="M403.36,125.52c-1.75-1.11-2.53-7.49-.79-8.33,1.95,2.49,2.27,5.79.79,8.33Z"/>
      <path class="st67" d="M349.23,96.07c0,.57-.57,1.01-.72.9l-.97-.73c-1.58-7.55,1.54-9.87,1.61-5.46l.08,5.3Z"/>
      <path class="st57" d="M316.98,74.15c1.36,1.77.54,3.71.79,5.78.13,1.11-.97,1.13-1.67.79-1.12-.54-1.21-5.22.89-6.57Z"/>
      <path class="st101" d="M343.76,88.2c2.23-.44,2.17,6.26.25,6.18s-1.48-5.94-.25-6.18Z"/>
      <path class="st36" d="M370.99,109.32c-.39-.31-.95-7.43,1.39-5.87.8,4.15.46,7.31-1.39,5.87Z"/>
      <path class="st5" d="M374.92,106.24c2.05-.02,2.09,4.16,1.6,5.12-.33.65-1.15.46-1.61.28-.91-.36-.87-1.17-.68-2.11l.68-3.28Z"/>
      <path class="st51" d="M426.04,137.66c-.91-2.13-1.56-4.67.28-7.07,1.27,2.11,1.48,4.77-.28,7.07Z"/>
      <path class="st93" d="M356.42,151.54c-1.42,2-2.81.1-4.05-.59l-1.46-.81c-.42-.23-.68-1.37-.19-1.62,1.95.67,3.93,1.7,5.71,3.02Z"/>
      <path class="st1" d="M452.95,202.23c-.36.52-.56.8-1.24,1.25-1.36-1.44-3.54-1.38-4.71-3.68,2.38.13,4.12,1.39,5.95,2.42Z"/>
      <path class="st34" d="M403.04,176.19c1.9.18,4.92,2.2,5.03,2.36.29.39-.02.83-.54,1.23-.25.19-4.19-1.42-4.49-3.59Z"/>
      <path class="st45" d="M312.1,128.34c-2.78,1.13-4.67-.83-6.13-2.88,2.68.29,4.13,1.46,6.13,2.88Z"/>
      <path class="st55" d="M421.81,185.58c.96.28.23,2.07-.28,1.74-1.56-.99-3.13-1.15-4.56-2.99,1.86-.91,2.85.67,4.85,1.25Z"/>
      <path class="st48" d="M377.41,162.51c.9.03.57.97-.03,1.32-1.73-.42-3.79-1.21-4.78-3.38,1.97-.58,2.84,1.32,4.8,2.06Z"/>
      <path class="st95" d="M430.17,190.58c-2.27,1.06-4.45-.53-5.6-2.46,2.2-.21,4.08,1.03,5.6,2.46Z"/>
      <path class="st41" d="M437.66,194.61c-2.68.68-4.27-1.14-5.89-2.96,2.35-.16,4.28,1.05,5.89,2.96Z"/>
      <path class="st40" d="M395.18,172.74c2.41-.63,5.44,1.93,5.44,2.02,0,.34-.71,1.32-1.21,1-1.57-1-2.89-1.63-4.22-3.02Z"/>
      <path class="st61" d="M460.2,206.39c-2.28.43-4.64-.67-5.81-2.74,2.25-.04,4.3.84,5.81,2.74Z"/>
      <path class="st74" d="M341.31,143.89c-2.59,1.04-4.5-.73-5.66-2.84,2.2.13,3.94,1.32,5.66,2.84Z"/>
      <path class="st75" d="M342.71,145.07c2.23-.41,3.75,1.4,5.91,2.8-2.25.56-4.33-.5-5.91-2.8Z"/>
      <path class="st107" d="M302.58,123l1.18.58c.19.09,0,.66-.15.96-.37.73-3.77-.77-4.88-2.93,1.53-.57,2.37.65,3.86,1.38Z"/>
      <path class="st82" d="M385.58,166.87c-2.52,1.22-4.62-.62-5.39-2.48,2.52.2,3.78,1.42,5.39,2.48Z"/>
      <path class="st46" d="M334.01,140.32c-2.61.17-4.4-.96-5.72-3.02,2.23.16,4.13,1.16,5.72,3.02Z"/>
      <path class="st66" d="M371.39,159.59c-2.65.93-5.06-.76-5.39-2.8,2.19.67,3.69,1.37,5.39,2.8Z"/>
      <path class="st81" d="M326.47,136.49c-2.03.55-4.28-1.39-5.01-2.91,2.15.61,3.82.6,5.01,2.91Z"/>
      <path class="st38" d="M363.05,155.25c.88,1.43-3.93.37-4.45-2.2,1.33.22,3.55.75,4.45,2.2Z"/>
      <path class="st6" d="M314.04,129.88c1.71-.07,3.97.79,5.24,2.82-1.89-.31-3.15-.48-5.24-2.82Z"/>
      <path class="st32" d="M462.33,207.73c3.08.23,5.26,1.36,4.23,2.39-.77.78-3.37-.49-4.23-2.39Z"/>
      <path class="st96" d="M227.21,49.18c.02-3.24,1.5-6.84,2.74-10.53,2.13,2.91-2.49,8.88-1.26,10.57s5.83-.13,4.3,2.24c-.44.68-5.81.64-5.79-2.28Z"/>
      <path class="st2" d="M224.66,35.23c2.76-1.25,2.51,1.57,2.54,2.75.03.96-.19,3.41-2.15,2.84-1.49-.43-2-4.87-.4-5.59Z"/>
      <path class="st4" d="M241.55,43.99c-.55.93-1.65.57-2.07.26-1.01-.74-1.14-2.93-.37-4.82.23-.57,1.37-1.6,2.42-.45.85.92.65,3.94.02,5.01Z"/>
      <path class="st60" d="M236.4,57.25c-2.56,2.34-7.34,1.56-9.58-1.72,3.12.74,5.66,1.32,9.58,1.72Z"/>
    </g>
    <g>
      <path class="st25" d="M228.29,69.55c-1.45,3.65-.94,7.39-.62,11.24"/>
      <path class="st3" d="M255.54,63.16c-4.54,3.88-9.65,8.19-16.01,8.27-.6-.31-1.06-.66-1.27-1.31.42.03.83.05,1.25.06,2.87-.03,5.66-1.08,8.16-2.59,3.59-2.25,6.95-4.99,9.71-8.3-.48,1.2-1.28,2.87-1.85,3.87h0Z"/>
      <path class="st23" d="M288.23,93.28c.98,2.98,4.24,2.54,6.87,2.5"/>
      <path class="st24" d="M398.13,149.48c1.3,2.66,4.23,2.82,6.87,3.12"/>
    </g>
  </g>
</svg>