<?xml version="1.0" encoding="UTF-8"?>
<svg id="Camada_1" data-name="Camada 1" xmlns="http://www.w3.org/2000/svg" viewBox="0 0 587.33 422.25">
  <defs>
    <style>
      .cls-1 {
        stroke-width: 21.19px;
      }

      .cls-1, .cls-2, .cls-3, .cls-4 {
        stroke: #1e2a50;
        stroke-linecap: round;
        stroke-linejoin: round;
      }

      .cls-1, .cls-2, .cls-4 {
        fill: none;
      }

      .cls-5, .cls-6 {
        fill: #1e2a50;
      }

      .cls-2 {
        stroke-width: 15.66px;
      }

      .cls-3 {
        fill: #009ee1;
      }

      .cls-4 {
        stroke-width: 16.58px;
      }

      .cls-6 {
        stroke: #009ee1;
        stroke-miterlimit: 22.93;
        stroke-width: 6px;
      }
    </style>
  </defs>
  <rect class="cls-3" x="14.31" y="22.93" width="550.94" height="378.24"/>
  <g>
    <path class="cls-6" d="M455.63,400.79l18.01,18.38-440.88.08c-14.43,0-29.76-9.62-29.76-25.45V27.36c0-13.36,12.58-22.03,24.75-24.36l531.84.3c11.8,0,24.29,12.36,24.3,23.78l.44,369.04c-3.58,12.69-13.39,22-26.58,22.99l-18.72.02c5.74-6.25,11.07-10.59,13.06-18.49,6.41.78,10.91-1.95,13.18-7.52l-.03-313.75h-170.08c-53.88-40.76-129.85-41.47-183.92-.08l-189.56.09-.02,312.49c1.51,3.7,4.14,8.88,8.75,8.88l425.22.05ZM55.58,30.59c-7.03,3.41-8.3,11.66-4.78,17.44,3.51,5.77,10.93,7.9,16.99,4.64s8.67-10.63,5.98-15.98c-3.31-6.56-11.41-9.39-18.19-6.1ZM102.45,30.23c-7.12,2.83-9.47,11.09-6.01,17.32,3.14,5.65,10.3,8.39,16.67,5.43s9.47-9.82,7.05-15.57c-2.8-6.65-10.48-10.06-17.71-7.18ZM149.54,30.27c-7.15,2.87-9.62,10.88-6.14,17.32,2.99,5.52,10.26,8.28,16.75,5.42,6.08-2.68,9.32-9.83,6.98-15.39-2.9-6.87-10.29-10.28-17.59-7.35Z"/>
    <path class="cls-6" d="M102.45,30.23c7.23-2.88,14.91.53,17.71,7.18,2.42,5.75-.85,12.7-7.05,15.57s-13.53.22-16.67-5.43c-3.46-6.22-1.11-14.48,6.01-17.32Z"/>
    <path class="cls-6" d="M55.58,30.59c6.78-3.29,14.88-.46,18.19,6.1,2.7,5.35.13,12.7-5.98,15.98s-13.48,1.13-16.99-4.64c-3.52-5.78-2.25-14.03,4.78-17.44Z"/>
    <path class="cls-6" d="M149.54,30.27c7.29-2.93,14.69.48,17.59,7.35,2.35,5.56-.9,12.71-6.98,15.39-6.49,2.86-13.77.1-16.75-5.42-3.48-6.44-1-14.44,6.14-17.32Z"/>
  </g>
  <g>
    <path class="cls-5" d="M152.88,258.6h-80.54c-10.36-.4-10.41-15.24,0-15.66,0,0,80.54,0,80.54,0,1.16,0,3.72-.02,4.59.02,1.27,3.09,4.94,11.68,6.6,15.68-2.43-.01-8.12-.02-11.19-.04h0Z"/>
    <path class="cls-5" d="M72.34,296.84h111.93c1.8-.02,4.76,0,6.16,0,5.53,6.32,11.43,11.09,18,15.67-14.83-.02-118.84,0-136.09,0-10.35-.39-10.42-15.24,0-15.66h0Z"/>
    <line class="cls-2" x1="72.34" y1="353.49" x2="224.01" y2="353.49"/>
    <path class="cls-1" d="M388.35,280.35c-47.28,45.32-123.44,45.37-171.02.44-47.86-45.18-49.69-119.69-3.71-167.07,45.38-46.76,121.35-50.07,170.86-6.75,49.15,43.01,54.64,116.95,10.47,166.65-1.41,1.59-3.09,3.85-3.47,6.16l24.74,25.56,88.83,86.44"/>
    <path class="cls-5" d="M243.89,242.94c12.59-.01,126.14.01,135.59,0-1.52,1.97-5.25,7.26-6.09,7.94-1.95,1.98-5.97,6.09-7.56,7.71-1.5.07-2.68,0-4.78.02h-117.16c-2.1-.02-3.27.04-4.78-.02-1.59-1.62-5.62-5.73-7.56-7.71-.84-.68-4.57-5.97-6.09-7.94,3.92,0,13.47,0,18.43,0h0Z"/>
    <path class="cls-4" d="M381.2,167.83c-5.4-12.82-12.64-24.87-24.34-33.01"/>
    <path class="cls-5" d="M443.21,162.03s-4.18-42.7-4.18-42.7c-.42-4.3,2.73-8.14,7.03-8.56,1.24-.4,68.63.35,69.78.1,4.32,0,7.82,3.51,7.81,7.83v71.84c0,4.32-3.48,7.83-7.8,7.83l-52.26.21s-7.83.03-7.83.03c0,0-.06-15.66-.06-15.66,3.04-.02,55.3-.22,60.09-.24,0,0-7.8,7.83-7.8,7.83,0,0,0-71.84,0-71.84,0,0,7.81,7.83,7.81,7.83,0,0-69-.14-69-.14,0,0,7.81-8.59,7.81-8.59l4.18,42.7c.42,4.3-2.73,8.14-7.03,8.56-4.3.42-8.14-2.73-8.56-7.03h0Z"/>
    <path class="cls-5" d="M456.31,242.94h57.45c10.37.4,10.4,15.24,0,15.66-10.46.01-62.23-.06-71.52.11.92-2.18,2.24-5.35,3.31-7.91,1.48-3.53,2.66-6.37,3.3-7.89,0-.06,2.91.02,7.45.03h0Z"/>
    <path class="cls-5" d="M491.8,296.84h23.01c10.38.41,10.39,15.25,0,15.66-3.23,0-25.9-.05-28.22.1-6.52-4.03-9.99-11.61-16.51-15.96,4.26.04,16.08.14,21.72.19h0Z"/>
  </g>
  <path class="cls-5" d="M134.9,174.17l-40.6,36.95-39.45-35.92c1.4-5.18,3.98-9.27,7.08-14.86l32.4,28.59,33.02-29.18,7.55,14.41Z"/>
  <path class="cls-5" d="M119.57,140.42c-2.63-4.62-8.87-6-12.39-9.7-8.27-8.69-9.04-23.35-19.76-30.35-4.39-2.87-5.41-7.51-4.12-11.37,1.52-4.51,6.53-7.7,12.56-6.99,8.29.98,12.58,8.62,9.48,15.78l49.13,96.62-1.45,1.51c-2.46-1.63-4.38-4.46-6.02-7.33l-27.43-48.17ZM93.76,96.3c-2.95-.52-3.51-4.46-1.78-6.28,2.01-2.12,4.09-1.68,8.2-2.12-3.02-3.56-10.27-2.63-12.18,1.43-1.54,3.27.27,8.2,4.86,10.14,2.81,1.18,8.2-.74,8.64-5.55.1-1.09-4.4-2.28-4.96-1.51l-2.78,3.89Z"/>
  <path class="cls-5" d="M48.75,160.63c.63,0,1.64.15,2.3.52l17.98-33.65,13.2-26.42,5.06,3.59c2.11,1.5,6.25,6.04,4.89,8.42l-9.9,17.32-11.27,8.03-30.39,52.11c-1.22,2.09-2.17,4.47-5.79,4.16l15.75-30.92c-1.9-1.45-4.07-.51-3.9,0,.17.5-1.74,2.44-2.27,1.94l-22.77-21.34,23.74.87c2.6.6,7.69,5.23,6.78,7.38l-3.4,7.99"/>
  <path class="cls-5" d="M143.67,166.28l-5.93-12.28c-1.65-3.42,1.76-6.31,4.11-8.01,5.1-3.69,12.95,1.04,26.04-2.21l-24.22,22.49Z"/>
  <path class="cls-5" d="M90.76,143.81c-7.85,5.67-5.24,20.8,1.09,23.4,2.75,1.13,5.82-.2,7.77-3,1.18-1.7,1.31-5.08-1.87-7.74,4.73-2.18,9.36-1.57,13.61-.37-5.74,2.8-2.58,7.37-3.99,12.53-.27,1.01-15.96,4.59-22.85.12-9.83-6.38-8.16-22.06-1.41-26.34,9.08-5.76,13.43-2.53,22.81-1.2.13,2.68.72,5.07-.24,8.33l-6.22-5.42c-1.23-1.07-6.83-.77-8.71-.31Z"/>
</svg>