<?xml version="1.0" encoding="UTF-8"?>
<!DOCTYPE svg PUBLIC "-//W3C//DTD SVG 1.1//EN" "http://www.w3.org/Graphics/SVG/1.1/DTD/svg11.dtd">
<!-- Creator: CorelDRAW (Versão OEM) -->
<svg xmlns="http://www.w3.org/2000/svg" xml:space="preserve" version="1.1" style="shape-rendering:geometricPrecision; text-rendering:geometricPrecision; image-rendering:optimizeQuality; fill-rule:evenodd; clip-rule:evenodd" viewBox="-2724.63 -2724.63 141680.76 176345.96" xmlns:xlink="http://www.w3.org/1999/xlink" xmlns:xodm="http://www.corel.com/coreldraw/odm/2003">
 <defs>
  <style type="text/css">
   <![CDATA[
    .str0 {stroke:#009EE1;stroke-width:2000;stroke-miterlimit:22.9256}
    .fil0 {fill:#009EE1}
    .fil2 {fill:#373435;fill-rule:nonzero}
    .fil3 {fill:#009EE1;fill-rule:nonzero}
    .fil1 {fill:#1E2A50;fill-rule:nonzero}
    .fil4 {fill:#AF7104;fill-rule:nonzero}
   ]]>
  </style>
 </defs>
 <g id="Camada_x0020_1">
  <metadata id="CorelCorpID_0Corel-Layer"/>
  <g id="_2397884132352">
   <rect class="fil0" x="26208.7" y="92948.7" width="108259.1" height="76646.7" rx="4874" ry="4728.5"/>
   <path class="fil1 str0" d="M31308.3 91464.9l98802.2 0c1684.7,0 3215.4,688.3 4324.1,1796.9 1108.6,1108.7 1796.9,2639.3 1796.9,4324.1l0 67189.8c0,1684.8 -688.3,3215.4 -1796.9,4324.1 -1108.7,1108.6 -2639.4,1796.9 -4324.1,1796.9l-98802.2 0c-1684.8,0 -3215.4,-688.3 -4324.1,-1796.9 -1108.6,-1108.7 -1796.9,-2639.3 -1796.9,-4324.1l0 -67189.8c0,-1684.8 688.3,-3215.4 1796.9,-4324.1 1108.7,-1108.6 2639.3,-1796.9 4324.1,-1796.9zm102138.1 12513.8c-45.4,5.3 -91.4,8.1 -138,8.1l-34878.3 0c-3532.7,-2434.6 -7813.7,-3861.2 -12428.5,-3861.2 -4614.8,0 -8895.7,1426.6 -12428.4,3861.2l-45600.8 0 0 60788.9c0,915.9 375.8,1749.6 981,2354.9 605.3,605.2 1439,981 2354.9,981l98802.2 0c915.8,0 1749.6,-375.8 2354.9,-981 605.2,-605.3 981,-1439 981,-2354.9l0 -60797z"/>
   <path class="fil1" d="M51816.1 126752.3c0,388 55.2,676 265.9,775.7 33.3,44.3 33.3,133.1 -10.9,166.5 -122.2,0 -321.7,44.2 -532.4,88.4 -686.9,166.2 -1518.4,299.6 -2149.8,299.6 -1330.3,0 -2582.2,-354.7 -3413.1,-1218.9 -653.8,-676 -975.5,-1607 -975.5,-2537.9 0,-930.9 321.7,-1883.7 1019.8,-2603.9 786.6,-831.6 1994.6,-1307.8 3534.9,-1307.8 520.7,0 1085.8,88.9 1473.8,166.2 254.6,55.1 576.3,99.7 709.4,99.7 11.2,332.5 88.5,897.6 143.9,1762.1 -55.4,110.7 -299.2,121.9 -354.3,22.2 -244.1,-1075 -1030.7,-1607 -2128.1,-1607 -1950.3,0 -2892.2,1407.5 -2892.2,3291.5 0,886.4 199.5,1839.8 797.5,2548.8 598.4,709.3 1485.1,941.8 2139,941.8 531.7,0 853.3,-88.1 986.4,-254.6 66.7,-99.7 99.7,-299.2 99.7,-698.1l0 -398.9c0,-786.7 -10.9,-853.4 -753.6,-975.2l-398.9 -66.4c-77.6,-77.6 -77.6,-265.5 11.2,-321.3 432.3,22.4 964,33.3 1728.5,33.3 499,0 875.5,-10.9 1352.3,-33.3 110.7,55.8 121.9,243.7 22.2,321.3l-199.5 33.4c-410.2,66.3 -476.6,154.8 -476.6,830.8l0 643 0.4 -1z"/>
   <path class="fil2" d="M51862 126752.3c0,189.9 13.4,354.8 51.9,482.9 36.3,120.4 95.4,207.8 187.6,251.4l7.5 3.6c3.5,3.5 6.6,6.3 9.6,10.2 22.9,30.5 34.5,75 32.8,116.7 -1.9,44.7 -18.8,88.3 -52.7,113.9l-12.3 9.4 -15.3 0c-108.4,0 -284.3,37 -473.9,77l-49.2 10.4c-363.4,87.7 -767,166.5 -1160.1,221.3 -353.7,49.3 -699.1,79.3 -999.1,79.3 -699.3,0 -1377.7,-97.5 -1985.9,-314.8 -558.3,-199.4 -1057.7,-499.8 -1460,-918.3 -323.4,-334.3 -566.6,-730.2 -730.9,-1157.5 -172.2,-448.1 -257.6,-930.3 -257.6,-1412.1 0,-486.2 86.8,-978.5 268.1,-1441.3 169.8,-433.7 422.7,-841.6 764.8,-1194.5 403.4,-426.2 915.9,-760.2 1525.3,-985.6 592.4,-219.2 1277,-336.2 2042.3,-336.2 227.9,0 464.8,17.1 692,42.6 294.2,33.2 571.1,80.7 790.9,124.5l0.7 0.1c126,27.3 267.5,51.9 393.8,69.6 127.6,17.9 240.4,29.1 305.9,29.1l44.2 0 1.5 44.5c5.1,153.4 24.7,358.3 49.6,620.4 28.8,302.3 64.8,680.3 94.4,1140.3l0.7 12.1 -5.6 11.2c-16.6,33.2 -44.6,59.3 -78.7,78.1 -41.3,22.8 -93,35.5 -143.7,37.4 -51,1.9 -102.4,-7.2 -142.7,-27.4 -30.1,-15 -54.6,-36.5 -70.1,-64.4l-3.3 -6 -1.4 -6c-117.2,-516.5 -362,-904.7 -707.4,-1165.4 -358.7,-270.9 -827.4,-405.7 -1376,-405.7 -921.3,0 -1613.3,318 -2083.4,852.9 -511.6,582.3 -762.9,1423.2 -762.9,2392.7 0,472.1 57,963 201.4,1424.6 124,396.3 312.7,771.5 585.2,1094.6 263.1,311.9 583.3,530 914.3,675.8 408.7,179.9 834.1,249.7 1189.7,249.7 259.8,0 467.8,-21.1 626.5,-62 154.6,-39.9 261.3,-98 322.4,-172.9 29.3,-44.2 51.6,-112.8 67.1,-217.3 16.1,-109.7 24.2,-257.1 24.2,-454.6l0 -399c0,-383.5 -2.4,-591.4 -89.3,-709.7 -85.8,-117.1 -267,-161.5 -625.7,-220.3l-413.8 -68.8 -10.2 -10.3c-10.4,-10.3 -19.8,-22.3 -28.1,-35.6 -29.9,-47.8 -44.2,-111.7 -41.8,-172 2.4,-62.9 22.7,-124 61.9,-163.1 8,-8.1 17.2,-15.5 27.5,-21.9l12 -7.5 14.5 0.7c216.7,11.2 457.4,19.6 738,25 276.4,5.5 600.2,8.1 988.1,8.1 253.7,0 472.2,-2.6 683.4,-8.1 214.3,-5.4 427.5,-13.8 666.8,-25l12 -0.6 10.7 5.4c26.1,13.1 48.1,32 65.6,54.4 28.9,37 45.4,84.1 49.3,132.1 3.7,47.4 -4.9,96.9 -26.2,139.3 -14,27.7 -33.7,52.7 -59,72.4l-9.3 7.3 -210.8 35.2c-191.2,30.9 -301.5,65.6 -360.2,165 -62.6,106.1 -78,291.1 -78,620.7l0 371.9 0.4 -1.1 0 271.2zm-35.9 509c-23.4,-77.6 -38.2,-166.4 -46.6,-264.6l-9.7 27.8 0 -914.2c0,-346.3 17.9,-543.6 91,-667.3 77,-130.3 205.1,-173.2 424,-208.7l187 -31.3c10.3,-9.8 18.7,-21.6 25.3,-34.6 13.6,-27 19,-59.3 16.5,-90.8 -2.4,-30.9 -12.6,-60.5 -30.1,-83 -6.9,-9.2 -15.4,-17.2 -25,-23.5 -232.2,10.9 -442,19 -655.7,24.5 -220.8,5.6 -440.2,8.4 -685.5,8.4 -376.6,0 -701,-2.8 -989.8,-8.4 -276.6,-5.4 -512.9,-13.5 -724.1,-24.2l-1.3 1.3c-22.2,22.1 -33.9,60.4 -35.4,101.4 -1.7,43.4 7.9,88.1 28.1,120.3l6.4 9.2 382.9 63.7c383.8,62.9 579.5,113 684.7,256.4 104.2,142 107.2,361 107.2,763.9l0 399c0,201.4 -8.5,353.3 -25.4,467.9 -17.6,119.2 -45.1,200.2 -82.2,255.7l-2.3 3c-73.6,91.9 -196.9,161.3 -372.7,206.7 -167.1,43.1 -382.7,65.3 -649.4,65.3 -366.4,0 -805,-72 -1226.6,-257.6 -342.7,-151 -674.4,-377 -947.3,-700.5 -281,-333.2 -475.3,-719.1 -602.8,-1126.6 -147.5,-471.4 -205.7,-971.6 -205.7,-1451.8 0,-991.1 258.9,-1853 785.9,-2452.9 487.5,-554.7 1202.6,-884.5 2152.2,-884.5 568.6,0 1056.1,141 1431.3,424.3 360.9,272.5 616.8,675.9 739.8,1211.2 6.2,8.6 15.9,16 27.9,22 26.5,13.3 62.1,19.1 98.7,17.8 36.8,-1.4 73.9,-10.3 102.9,-26.3 14.7,-8.1 26.9,-18 35.2,-29.4 -29.5,-456.5 -64.7,-826.7 -93,-1123.4 -22.9,-239.9 -41.2,-432.3 -48.3,-582.9 -69.6,-3.5 -167.1,-13.9 -274.5,-29 -129.9,-18.2 -274.1,-43.2 -400.6,-70.6 -218.3,-43.5 -492.5,-90.6 -782.2,-123.2 -223.3,-25.2 -456.6,-41.9 -682,-41.9 -754.5,0 -1428.3,115 -2010.7,330.5 -596.6,220.7 -1097.5,546.9 -1490.9,962.8l-0.4 0.5c-333,343.6 -579.4,741.1 -745,1164 -176.9,451.7 -261.7,932.7 -261.7,1408 0,471.5 83.2,942.7 251.2,1379.5 159.8,415.9 396.6,801.2 711.4,1126.6 391.9,407.6 879.3,700.6 1425,895.5 597.7,213.4 1265.6,309.3 1955,309.3 296.7,0 637.7,-29.6 986.6,-78.2 390.8,-54.4 791.9,-132.7 1152.6,-219.9l50.6 -10.8c184,-38.7 355.6,-74.9 472.5,-78.8 5.3,-9.1 8.2,-21.9 8.8,-35.6 0.8,-18.2 -2.6,-36.4 -9.6,-49.9 -111.3,-57.5 -181.9,-161.8 -224.2,-302.1z"/>
   <polygon class="fil1" points="48784.3,138782.4 33024,123153.4 33024,122913.5 48646.1,132246 64773.4,122550.6 64766.9,122789.2 "/>
   <path class="fil2" d="M48752.1 138814.8l-15774 -15642.4 0 -339.6 15668 9359.9 16175.3 -9724.3 -9.3 340.3c-5344.3,5344.3 -10683.3,10693.9 -16027.6,16038.2l-32.4 -32.1zm-15682.2 -15680.3l15714.3 15583.3 15937.5 -15948.1 3.7 -136.9 -16079.2 9666.5 -15576.3 -9305.1 0 140.3z"/>
   <path class="fil1" d="M48784.3 138541.7l-15766.4 -15631 2639.6 -12.6c0,0 931,-654.2 1591.3,-697.8 423.8,-28.2 788,281.5 788,281.5l815.6 -478.9 9793.4 9842.1 10517.4 -10111 741.4 265.2c0,0 328.8,-100.4 890.1,-31.3 561.3,69.4 1300.2,711.4 1898.3,680.4 369.3,38.1 2093.3,-108.6 2093.3,-108.6l-16002 16002.4 0 -0.4z"/>
   <path class="fil3" d="M48738.4 138560.7l-15831.1 -15695.1 2735.7 -13.1c109.2,-75.1 972.2,-656.2 1602.8,-697.9 375.5,-25 703.7,202.1 795,271.9l819.1 -481 9786.6 9835.4 10505.5 -10099.6 754.4 269.8c69.6,-18.2 390.7,-90.7 893.8,-28.7 257.7,31.8 546.4,178 842.1,327.8 358.9,181.7 728.7,369 1048.3,352.4l7.1 0.2c364.3,37.5 2080,-108.4 2084.9,-108.8l124.7 -10.4 -16168.9 16169.2 0 -92.1zm-15609.9 -15604.8l15655.7 15521.3 15881.3 -15881.5c-401.5,32.6 -1654.2,129.7 -1973.6,98.4 -343.1,16.4 -722.6,-175.7 -1090.8,-362.1 -288.5,-146.1 -570,-288.7 -812,-318.6 -551.8,-67.9 -871.1,29.7 -872,29.9l-14.1 4 -728.6 -260.6 -10529.3 10122.5 -9800.2 -9848.9 -812.6 477.3 -24.7 -20.4c-1,-0.8 -350.7,-298.1 -755.8,-271.2 -647.3,42.8 -1565.4,687.9 -1568.1,689.8l-11.5 8 -2543.7 12.1z"/>
   <polygon class="fil1" points="48811.9,134763.1 36411.2,122461.8 36561.6,122394 48811.6,134536.8 61241.3,122108.5 61394.1,122176.2 48811.9,134763.1 "/>
   <path class="fil2" d="M48779.7 134795.6l-12448 -12348.2 239.8 -108.1 12239.8 12132.8 12419.7 -12418.3 242.6 107.6c-4221.2,4221.2 -8437.3,8448 -12661.6,12666.3l-32.3 -32.1zm-12289 -12319.4l12321.1 12222.4 12502.8 -12507.5 -63.1 -28 -12439.7 12438.3 -12260 -12152.7 -61.1 27.5z"/>
   <rect class="fil3" transform="matrix(0.0910314 -0.0909043 0.0909043 0.0910314 35317.9 125112)" width="18184.8" height="1928.8"/>
   <path class="fil2" d="M35493.3 125223.2l1590.6 -1588.4 -110.7 -110.8 -1590.6 1588.4 110.7 110.8zm1687.6 -1555.9l-1687.7 1685.4 -240 -240.4c573,-572.9 1146.4,-1145.5 1720.1,-1717.7l240.1 240.3 -32.5 32.4z"/>
   <polygon class="fil3" points="40772.8,130569 40597.5,130393.3 42251.1,128739.4 42427,128914.7 "/>
   <path class="fil2" d="M40740.3 130601.2l-207.5 -207.9c572.8,-572.8 1145,-1146.1 1718.2,-1718.5l240.9 240c-573.3,572.6 -1146,1145.9 -1719,1718.9l-32.6 -32.5zm-78.1 -207.8l110.5 110.7 1589.5 -1589.4 -111.1 -110.6 -1588.9 1589.3z"/>
   <polygon class="fil3" points="38133.5,127929.3 37957.5,127753.7 39611.4,126099.4 39787,126275.1 "/>
   <path class="fil2" d="M38101.2 127961.7l-208.5 -208.1c572.6,-573.3 1145.7,-1146.1 1718.7,-1719.1l240.4 240.5 -1718.3 1719 -32.3 -32.3zm-78.9 -208l111.2 110.9 1588.7 -1589.4 -110.8 -110.9 -1589.1 1589.4z"/>
   <rect class="fil3" transform="matrix(0.0909679 -0.0909679 0.0909679 0.0909679 43237.2 133033)" width="18182.2" height="1931.5"/>
   <path class="fil2" d="M43412.9 133143.8l1589.1 -1589.1 -110.7 -110.8 -1589.2 1589.2 110.8 110.7zm1686.5 -1556.6l-1686.5 1686.4 -240.5 -240.5 1718.9 -1718.9 240.5 240.5 -32.4 32.5z"/>
   <rect class="fil3" transform="matrix(0.0909996 -0.0909361 0.0909361 0.0909996 45877.3 135672)" width="18465.3" height="1931.5"/>
   <path class="fil2" d="M46053 135782.6l1615.5 -1614.5 -110.9 -111 -1615.6 1614.5 111 111zm1712.5 -1582l-1712.6 1711.4 -240.3 -240.5 1745.1 -1743.8 240.3 240.4 -32.5 32.5z"/>
   <rect class="fil3" transform="matrix(0.0909679 -0.0909679 0.0909679 0.0909679 36637.5 126434)" width="9093.7" height="1931.5"/>
   <path class="fil2" d="M36813.1 126544.3l762.5 -762.4 -110.8 -110.8 -762.4 762.4 110.7 110.8zm859.8 -729.9l-859.8 859.7 -240.5 -240.6 892 -891.9 240.7 240.5 -32.4 32.3z"/>
   <rect class="fil3" transform="matrix(0.0908249 -0.0911107 0.0911107 0.0908249 39278.4 129073)" width="9091.1" height="1928.8"/>
   <path class="fil2" d="M39454 129183.9l761.1 -763.5 -110.9 -110.6 -761.1 763.5 110.9 110.6zm858.2 -731.4l-858 860.8 -240.5 -239.7c296.4,-298.1 593.4,-595.6 890.3,-893.2l240.5 239.8 -32.3 32.3z"/>
   <polygon class="fil3" points="42092.8,131889 41917.2,131713.3 42744.3,130886.2 42919.9,131061.8 "/>
   <path class="fil2" d="M42060.4 131921.4l-208.1 -208.1 892 -892 240.5 240.5 -891.9 892.1 -32.5 -32.5zm-78.3 -208.1l110.7 110.8 762.2 -762.3 -110.7 -110.7 -762.2 762.2z"/>
   <polygon class="fil3" points="44732.8,134528.6 44556.8,134353.3 45383.9,133525.9 45559.6,133701.8 "/>
   <path class="fil2" d="M44700.5 134561.1l-208.4 -207.7 891.9 -892.3 240.4 240.8 -891.4 891.4 -32.5 -32.2zm-78.9 -207.8l111 110.6 762.2 -762.2 -110.9 -111.1 -762.3 762.7z"/>
   <polygon class="fil1" points="47372.4,137168.6 47196.8,136993 48023.9,136165.5 48199.2,136341.5 "/>
   <path class="fil1" d="M47340 137201l-208 -207.9 892 -892.4 239.9 240.9 -891.5 891.8 -32.4 -32.4zm-78.4 -208.1l110.9 110.9 762.1 -762.3 -110.7 -111.2 -762.3 762.6z"/>
   <polygon class="fil3" points="62054.8,125289.6 62230.4,125114 60576.5,123459.8 60400.9,123635.4 "/>
   <path class="fil2" d="M62054.8 125224.8l110.8 -110.9 -1589.1 -1589.4 -110.8 110.8 1589.1 1589.5zm208.1 -78.3l-208.2 208.1c-572.1,-573.7 -1145.3,-1146.5 -1718.6,-1719l240.4 -240.6c573.3,572.6 1146.6,1145.4 1718.7,1719.2l-32.3 32.3z"/>
   <polygon class="fil3" points="56775.5,130569 56950.8,130393.3 55297.2,128739.4 55121.6,128914.7 "/>
   <path class="fil2" d="M56775.5 130504.1l110.5 -110.7 -1588.9 -1589.2 -110.7 110.5 1589.1 1589.4zm207.7 -78.5l-207.8 208.1c-572.9,-572.9 -1145.3,-1146.4 -1718.7,-1718.9l240.6 -240.1c573.2,572.3 1145.5,1145.7 1718.2,1718.5l-32.3 32.4z"/>
   <polygon class="fil3" points="59414.8,127929.3 59590.8,127753.7 57936.5,126099.4 57761.2,126275.1 "/>
   <path class="fil2" d="M59414.9 127864.6l111 -110.9 -1589.5 -1589.4 -110.5 110.7 1589 1589.6zm208.1 -78.5l-208.2 207.9c-572.5,-573.2 -1145,-1146.5 -1718.3,-1718.9l240 -240.5c573.4,572.6 1146.5,1145.6 1719.1,1719l-32.6 32.5z"/>
   <rect class="fil3" transform="matrix(0.0909361 -0.0909996 0.0909996 0.0909361 52481 131556)" width="1931.5" height="18182.2"/>
   <path class="fil2" d="M54135.5 133145l111 -111 -1589.8 -1588.8 -111 111.1 1589.8 1588.7zm208.1 -78.8l-208 208.3 -1719.3 -1718.2 240.3 -240.5 1719.3 1718.1 -32.3 32.3z"/>
   <rect class="fil3" transform="matrix(0.0909361 -0.0909996 0.0909996 0.0909361 49815.4 134170)" width="1931.5" height="18465.3"/>
   <path class="fil2" d="M51495.7 135784.2l111 -111 -1615.6 -1614.5 -111 111 1615.6 1614.5zm208.1 -78.8l-208 208.2 -1745.1 -1743.8 240.3 -240.5 1745.1 1743.8 -32.3 32.3z"/>
   <polygon class="fil3" points="60734.8,126609.7 60910.8,126433.7 60083.6,125606.2 59908,125782.2 "/>
   <path class="fil2" d="M60734.7 126544.8l111.2 -111.2 -762.2 -762.6 -111 111.2 762 762.6zm208.5 -78.7l-208.4 208.4 -891.4 -892.3 240.2 -240.7c297.5,297.2 595,594.6 891.9,892.3l-32.3 32.3z"/>
   <rect class="fil3" transform="matrix(0.0910314 -0.0909043 0.0909043 0.0910314 57268.6 128419)" width="1928.8" height="9091.1"/>
   <path class="fil2" d="M58095.1 129182.3l110.8 -110.6 -761.8 -762.9 -110.8 110.7 761.8 762.8zm207.8 -78.1l-208 207.5 -891.1 -892.2 240.3 -240.1 891.2 892.4 -32.4 32.4z"/>
   <rect class="fil3" transform="matrix(0.0909679 -0.0909679 0.0909679 0.0909679 54628.3 131062)" width="1931.5" height="9093.7"/>
   <path class="fil2" d="M55455.7 131824.3l110.8 -110.9 -762.6 -762.5 -110.7 110.8 762.5 762.6zm208 -78.7l-208.2 208.3 -891.9 -892 240.5 -240.6 891.9 891.9 -32.3 32.4z"/>
   <polygon class="fil3" points="52815.8,134528.6 52991.4,134353.3 52164.3,133525.9 51988.7,133701.8 "/>
   <path class="fil2" d="M52815.8 134464l110.9 -110.7 -762.3 -762.7 -111 111.2 762.4 762.2zm207.9 -78.2l-207.9 207.5 -891.8 -891.4 240.3 -240.8 891.8 892.2 -32.4 32.5z"/>
   <rect class="fil1" transform="matrix(0.0909679 -0.0909679 0.0909679 0.0909679 49349 136341)" width="1931.5" height="9093.7"/>
   <path class="fil1" d="M50176.3 137103.7l110.9 -110.8 -762.6 -762.5 -110.8 110.8 762.5 762.5zm207.9 -78.4l-208.1 208 -891.9 -892 240.6 -240.5 892 891.9 -32.6 32.6z"/>
   <path class="fil1" d="M38026.3 122477.4l10693.4 10749.3 11360.5 -11244.9c-103.4,15.3 -161,31.7 -161,31.7l-741.3 -264.8 -10517.1 10110.6 -9794.1 -9841.7 -815.6 478.9c0,0 -10.2,-7.9 -24.8,-19.1l0 0z"/>
   <path class="fil3" d="M38121.4 122508.2l10598.5 10653.9 11221.2 -11106.9 -24.3 6.2 -727.7 -260.1 -10529.1 10122.2 -9800.8 -9848.6 -737.8 433.3zm10565.8 10750.7l-10706.8 -10762.7 0 -111.7 74.2 57 819.5 -481.3 9787.3 9835 10505.2 -10099.2 754.8 269.6c22.9,-5.7 75.2,-17.7 152.2,-29.1l138.1 -20.5c-3830.7,3791.8 -7659.4,7585.7 -11492.3,11375.3l-32.2 -32.4z"/>
   <polygon class="fil3" points="48817,134861.2 36341,122499.5 36491.5,122426.4 48816.3,134634.5 61314.1,122138.4 61464.2,122210.9 48817,134861.2 "/>
   <path class="fil2" d="M48784.8 134893.6l-12521.9 -12407 237.7 -115.6 12315.5 12198.8 12488.5 -12486.8 237.5 114.7c-4242.1,4242.1 -8479.8,8488.9 -12724.9,12728l-32.4 -32.1zm-12365.6 -12381.1l12397.7 12284.1 12569.4 -12572.5 -62.7 -30.3 -12507 12505.3 -12334.2 -12217.3 -63.2 30.7z"/>
   <path class="fil4" d="M47485.1 108138.5l4251.7 11156c0,0 2728.5,695.8 4251.4,3783.7l5989.7 12258.1 -10943.3 -27938.5c0,0 -507.2,2262.6 -3549.5,741.1l0 -0.4z"/>
   <path class="fil2" d="M47569.3 108230.8l4202.1 11025.6c264,74.2 2804.4,854.4 4257.9,3801.5l5494.3 11244.4 -10483.7 -26765.4c-163.5,458.6 -907.3,1926.7 -3470.6,693.9zm4124.6 11080l-4245.2 -11139 -9.5 -4.7 0 -277.7 82.5 216.5c2975.7,1479.2 3466.9,-712.6 3468.4,-718.8l34.3 -141 10996.1 28073.6 -83.9 36.8 -5989.6 -12258.2c-1513.5,-3068.8 -4214.2,-3757.4 -4222,-3759.5l-22.7 -6.1 -8.4 -21.9z"/>
   <path class="fil1" d="M47588.2 108035.7l4251.7 11155.7c0,0 2728.5,695.7 4251.7,3783.7l5889.7 12364.6 -10843.6 -28045c0,0 -506.8,2262.2 -3549.5,741l0 0z"/>
   <path class="fil2" d="M47672.3 108127.5l4202.2 11025.8c264.1,74.2 2804.4,854.4 4258.2,3801.5l5369 11271.5 -10358.9 -26791.7c-164,459.3 -908.2,1925 -3470.5,692.9zm4124.8 11080.2l-4245.4 -11139.1 -40.8 -20.4 95 -95 18.9 49.5c2976.1,1479 3467,-712.5 3468.5,-718.7l34.4 -142 10896.2 28181.3 -84 36.2 -5889.6 -12364.7c-1513.9,-3068.6 -4214.4,-3757.1 -4222.2,-3759.1l-22.6 -6.1 -8.4 -21.9z"/>
   <path class="fil1" d="M48407.5 108464.9l4056.4 10258.5c0,0 2457.2,936 3198.5,2223.3l-4993 -12832.7c0,0 -506.8,936 -2261.9,350.9z"/>
   <path class="fil2" d="M48485.8 108538.1l4013.3 10149.8c209.1,81.8 2109,845.8 2981.7,1918.3l-4822.8 -12395.3c-165,210.5 -756.9,767.3 -2172.2,327.2zm3935.4 10202.1l-4092.4 -10349.6 93.1 31c1719,573.1 2206.3,-327.6 2207.7,-330.2l47.5 -83.5c1750.3,4494 3498,8989 5246.4,13483.8l-300.7 -522.2c-733,-1272.9 -3168.3,-2200.6 -3175.3,-2203.3l-19 -7.2 -7.3 -18.8z"/>
   <path class="fil1" d="M49382.7 109585.5c72.5,177.3 -63.6,426.5 120.5,554.8 513.3,358.1 611.3,-738.6 339.7,-1030.7 -16.7,-17.7 -34.7,-33 -54.1,-44.2 -58.6,-34.1 -158.6,-67.1 -215.1,-8.9 -56.2,58.2 -14,109.6 5.8,177.4 28.2,97 27.2,243.7 -121.6,181 -151.8,-63.3 -6.1,-205.2 -88.8,-289.3 -76.6,-77.9 -183.8,-16.3 -272.3,0 -35.8,198.1 219.5,298.9 285.6,459.5l0.3 0.4zm135.2 34l0 -17c5.4,16.3 124.9,221.3 168.5,237.2 125.6,47.4 194.3,-139.8 189.9,-233.1 44.2,131.7 4.1,471.1 -175.3,456.4 -240,-19 -176.7,-298.1 -183.1,-443.5z"/>
   <path class="fil2" d="M49425.1 109568.3c32.5,79.5 28.3,165.7 24.2,251.2 -5.3,110.6 -10.5,220 80.1,283.2 87.4,61.1 158.2,74.2 213.7,54 44.9,-16.3 82.8,-55.1 113,-108.3 12.2,-21.4 23.1,-44.9 32.7,-70.2 -27.7,58.3 -68.2,103.9 -123.3,122.4 -21.2,7.2 -43.9,10.1 -68.1,8.2 -240.2,-19.1 -232.5,-233.9 -226.4,-401.2 1.1,-31.7 2.2,-61.4 1.1,-86.1 -4.1,-45 -0.1,-106.3 -0.1,-153 -10.1,-2.8 -20.7,-6.6 -31.8,-11.2 -118.7,-49.7 -106.8,-128.2 -94.9,-207.2 5.5,-36 11,-72.3 -8.8,-92.4 -39.6,-40.3 -102.9,-22 -162.5,-4.7l-34.7 9.8c0.9,83.3 70.6,151.5 139.7,219.4 55.7,54.6 111.4,109.3 141.8,176.5l4.3 9.6zm-67.2 246.8c3.4,-72 6.9,-144.6 -14.1,-203.6l-3.7 -9c-22.2,-54 -73.7,-104.5 -125.3,-155.1 -94.2,-92.3 -189.1,-185.4 -163,-329.8l5.6 -31.2 31.1 -5.7c18.4,-3.4 39.1,-9.4 60.1,-15.5 85.1,-24.7 175.4,-50.8 253.1,28.4 52.1,52.9 43.1,111.7 34.3,170.1 -6.4,42.6 -12.8,85 36,107.4l0 -51.9 19.7 59.4c12.4,4.1 22.5,5.9 30.5,5.6 7.2,-0.1 12,-2.6 14.9,-6.2 5.5,-7.2 8.7,-19.2 10.1,-33.3 3,-30.3 -2.6,-67 -11.7,-98.1 -3.6,-12.7 -8.9,-26.3 -13.9,-39.2 -24.1,-62.6 -44.9,-116.4 19.1,-182.6 34.6,-35.7 78.9,-47.5 124.3,-45.7 53.3,2.2 108.2,24.3 146.8,46.7 11.4,6.6 22.5,14.5 33.2,23.1 11.2,9.2 21.6,19.1 31.3,29.3 140.9,151.6 190.1,499 141,773 -16.3,91.2 -43.4,175.3 -81.6,242.3 -40.7,71.7 -94.5,125 -161.4,149.3 -82.9,30.1 -182.2,15.1 -297.2,-65 -132.2,-91.9 -125.7,-226.5 -119.2,-362.7zm580.1 -54.5c25.5,-234.7 -18.3,-501 -128.4,-619.6 -7.5,-7.9 -15.1,-15.1 -22.5,-21.2 -6.8,-5.5 -13.9,-10.6 -21.2,-14.8 -28.6,-16.6 -68.3,-33 -104.5,-34.4 -21.2,-0.9 -41.1,3.7 -54.7,17.6 -23.6,24.4 -12.5,53 0.3,86.3 5.5,14.3 11.4,29.4 16.4,46.6 11.8,40.8 19.1,90.1 14.9,132.6 -3,30.2 -11.8,58.2 -28.4,79.8 -19.4,25.1 -47.1,41 -85.2,42.2l-0.8 0 37.3 112.4c2.9,8.7 48.8,87.2 93.3,150 22.3,31.4 41.6,56.4 47.7,58.6 9.7,3.7 18.2,5.1 25.7,4.8 16,-0.8 31,-10.2 44.2,-24.3 16.5,-17.7 29.9,-42.3 39.8,-68.5 13.5,-35.8 19.9,-73.1 18.7,-99.9l-15.7 -328 104.8 311.3c14.4,43 21,104.2 18.3,168.5zm-358.1 30.6l-19 -27.7c-1.9,117.3 11.2,243.3 143.7,253.8 11.9,1 22.6,-0.3 31.9,-3.4 30,-10.1 53.9,-40 71.7,-79.2 12.6,-27.5 21.9,-59.3 28.3,-92.3 -28.1,29.1 -63,48.5 -104.3,50.5 -19.7,0.9 -40.4,-2.2 -61.6,-10.2 -25.9,-9.4 -59,-47 -90.7,-91.5z"/>
   <path class="fil4" d="M51285.8 108138.5l-4251.7 11156c0,0 -2728.5,695.8 -4251.7,3783.7l-5989.3 12258.1 10943.2 -27938.5c0,0 506.8,2262.6 3549.5,741.1l0 -0.4z"/>
   <path class="fil2" d="M51322.2 108171.8l-4253.6 11160.9 -22.7 6.1c-7.8,2.1 -2708.5,690.7 -4222.3,3759.4l-5989.3 12258.3 -83.9 -36.8 10996.2 -28073.6 34.2 141c1.5,6.2 492.3,2198.1 3468.4,718.8l82.5 -216.5 0 277.7 -9.5 4.7zm-4322.7 11084.6l4202.1 -11025.6c-2563.6,1232.8 -3307.2,-235.2 -3470.6,-693.9l-10483.6 26765.1 5493.8 -11243.9c1453.9,-2947.3 3994.3,-3727.5 4258.3,-3801.7z"/>
   <path class="fil1" d="M51182.7 108035.7l-4251.7 11155.7c0,0 -2728.5,695.7 -4251.7,3783.7l-5890 12364.6 10843.5 -28045c0,0 507.2,2262.2 3549.9,741l0 0z"/>
   <path class="fil2" d="M51219.2 108068.6l-4253.7 11161 -22.7 6.1c-7.8,2 -2708.3,690.6 -4222.2,3759l-5889.9 12364.8 -84.1 -36.2 10896.2 -28181.3 34.5 142c1.5,6.2 492.7,2197.7 3468.9,718.7l82.4 -216.1 0 277.3 -9.4 4.7zm-4322.8 11084.7l4202.2 -11025.8c-2562.4,1232.1 -3306.8,-233.6 -3470.8,-693l-10359.1 26792.2 5369.5 -11271.9c1453.8,-2947.1 3994.2,-3727.3 4258.2,-3801.5z"/>
   <path class="fil1" d="M50363.4 108464.9l-4056.7 10258.5c0,0 -2457.2,936 -3198.2,2223.3l4992.7 -12832.7c0,0 507.2,936.1 2262.2,351l0 -0.1z"/>
   <path class="fil1" d="M50406.1 108481.8l-4064.1 10277.2 -19 7.2c-6.9,2.7 -2442.2,930.5 -3174.9,2203.3l-300.9 522.8c1748.3,-4494.9 3497.9,-8989.5 5246.2,-13484.4l47.6 83.5c1.4,2.6 489,903.3 2208,330.2l93.1 -31 -36 91.2zm-4134.7 10206.1l4013.7 -10149.8c-1415.3,440.1 -2007.4,-116.8 -2172.5,-327.2l-4822.5 12395.1c872.5,-1072.3 2772.3,-1836.3 2981.3,-1918.1z"/>
   <path class="fil1" d="M51728.6 107027.2c0,1213.4 -983.7,2196.8 -2196.8,2196.8 -1213.1,0 -2197.1,-983.4 -2197.1,-2196.8 0,-1213.5 983.3,-2197.2 2196.8,-2197.2 1213.4,0 2196.8,983.4 2196.8,2197.2l0.3 0z"/>
   <path class="fil2" d="M51774.5 107027.2c0,619.3 -251.1,1180 -656.8,1585.8 -405.8,405.8 -966.7,656.9 -1585.9,656.9 -619.2,0 -1180.1,-251.1 -1586.1,-657 -405.8,-406 -656.9,-966.6 -656.9,-1585.7 0,-619.4 251,-1180.2 656.8,-1586.2 405.8,-405.8 966.5,-656.9 1585.9,-656.9 619.2,0 1179.9,251.1 1585.8,657 394.3,394.2 642.4,934.8 656.3,1533.4l0.9 -0.2 0 52.9zm-721.7 1520.9c381.4,-381.4 620.3,-905.6 629.6,-1485.5l0 -35.4c0,-594.2 -240.7,-1132.1 -629.9,-1521.3 -389,-389.3 -926.8,-630 -1521,-630 -594,0 -1131.8,240.8 -1521,630 -389.2,389.3 -629.9,927.2 -629.9,1521.3 0,594 240.7,1131.8 629.8,1520.8 389.5,389.3 927.5,630.1 1521.4,630.1 594,0 1131.8,-240.8 1521,-630z"/>
   <path class="fil1" d="M51728.6 106941.4c0,1213.1 -983.7,2196.8 -2196.8,2196.8 -1213.1,0 -2197.1,-983.7 -2197.1,-2196.8 0,-1213.1 983.3,-2197.2 2196.8,-2197.2 1213.4,0 2196.8,983.7 2196.8,2197.2l0.3 0z"/>
   <path class="fil2" d="M51774.5 106941.4c0,619.1 -251.1,1179.9 -656.9,1585.8 -405.8,405.8 -966.6,656.9 -1585.8,656.9 -619.1,0 -1179.9,-251.1 -1585.8,-657 -406.1,-405.8 -657.2,-966.5 -657.2,-1585.7 0,-619.3 251,-1180.2 656.9,-1586.1 406,-405.8 966.6,-657 1585.8,-657 619.4,0 1180,251.1 1585.8,657 395.8,395.8 644.3,939 656.4,1540.2l0.8 0 0 45.9zm-721.8 1520.9c381.5,-381.5 620.4,-905.6 629.7,-1485.5l0 -35.4c0,-594.1 -240.7,-1132 -630,-1521.2 -389.1,-389.3 -926.9,-630.1 -1520.9,-630.1 -594.1,0 -1131.8,240.8 -1520.9,629.9 -389.2,389.5 -630,927.4 -630,1521.4 0,593.8 240.8,1131.6 630.1,1520.8 389.2,389.3 927.2,630.1 1521.1,630.1 593.9,0 1131.7,-240.8 1520.9,-630z"/>
   <path class="fil1" d="M49537.6 107986.4c-600.4,0 -1088.9,-488.8 -1088.9,-1089.2 0,-600.5 488.5,-1089.3 1088.9,-1089.3 600.4,0 1089.2,488.8 1089.2,1089.3 0,600.4 -488.8,1089.2 -1089.2,1089.2l0 0z"/>
   <path class="fil3" d="M49537.6 108032.3c-312.7,0 -596.4,-127.4 -802,-333.1 -205.5,-205.5 -332.8,-489.3 -332.8,-802.1 0,-312.7 127.3,-596.5 332.8,-802 205.6,-205.7 489.3,-333.1 802,-333.1 312.9,0 596.7,127.4 802.2,332.9 205.5,205.5 332.9,489.3 332.9,802.2 0,312.9 -127.3,596.7 -332.8,802.3 -205.6,205.5 -489.4,332.9 -802.3,332.9zm-737.1 -397.6c188.7,188.8 449.5,305.8 737.1,305.8 287.6,0 548.5,-117.1 737.4,-306 188.9,-188.9 305.9,-449.8 305.9,-737.4 0,-287.5 -117.1,-548.4 -306,-737.3 -188.9,-188.9 -449.8,-306 -737.3,-306 -287.6,0 -548.4,117 -737.1,305.8 -188.9,188.9 -305.9,449.9 -305.9,737.5 0,287.7 117,548.7 305.9,737.6z"/>
   <path class="fil1" d="M49531.5 108030.3c-600.5,0 -1089.3,-488.8 -1089.3,-1089.2 0,-600.5 488.8,-1089.3 1089.3,-1089.3 600.4,0 1089.2,488.8 1089.2,1089.3 0,600.4 -488.5,1089.2 -1089.2,1089.2l0 0z"/>
   <path class="fil3" d="M49531.5 108076.2c-312.9,0 -596.7,-127.4 -802.2,-332.9 -205.5,-205.5 -332.9,-489.3 -332.9,-802.2 0,-312.9 127.4,-596.7 332.9,-802.3 205.5,-205.5 489.3,-332.9 802.2,-332.9 312.9,0 596.7,127.4 802.2,332.9 205.5,205.6 332.9,489.4 332.9,802.3 0,312.8 -127.3,596.8 -332.9,802.3 -205.4,205.4 -489.2,332.8 -802.2,332.8zm-737.3 -397.8c188.9,188.9 449.8,306 737.3,306 287.6,0 548.5,-117 737.4,-305.9 188.9,-188.9 305.9,-449.9 305.9,-737.4 0,-287.6 -117.1,-548.5 -306,-737.4 -188.9,-188.9 -449.8,-306 -737.3,-306 -287.5,0 -548.4,117.1 -737.3,306 -188.9,188.9 -306.1,449.8 -306.1,737.4 0,287.5 117.2,548.4 306.1,737.3z"/>
   <path class="fil1" d="M49531.5 106050.3c-491.2,0 -891.1,399.9 -891.1,891.1 0,491.2 399.9,891.1 891.1,891.1 491.1,0 891.1,-399.9 891.1,-891.1 0,-491.2 -400,-891.1 -891.1,-891.1l0 0z"/>
   <path class="fil3" d="M49531.5 106096.2c-232.9,0 -444.3,94.9 -597.3,247.9 -153.1,152.9 -247.9,364.3 -247.9,597.3 0,233 94.8,444.4 247.8,597.4 153.1,152.9 364.5,247.8 597.4,247.8 232.9,0 444.3,-94.8 597.4,-247.8 152.9,-153 247.8,-364.5 247.8,-597.4 0,-233 -94.9,-444.4 -247.8,-597.4 -153.1,-153 -364.5,-247.8 -597.4,-247.8zm-662.2 183.1c169.6,-169.7 404,-274.9 662.2,-274.9 258.1,0 492.3,105.2 662,274.8 169.8,169.8 275,404.1 275,662.2 0,258.1 -105.2,492.4 -274.8,662 -169.9,169.8 -404.1,275 -662.2,275 -258.2,0 -492.6,-105.2 -662.2,-274.8 -169.6,-169.8 -274.8,-404.1 -274.8,-662.2 0,-258.1 105.2,-492.4 274.8,-662.1z"/>
   <rect class="fil1" transform="matrix(0.0908885 -0.0910472 0.0910472 0.0908885 48765 106333)" width="1733" height="15105.1"/>
   <path class="fil3" d="M50140.2 107641.2l92.9 -93.1 -1310.6 -1308.2 -92.8 93 1310.5 1308.3zm190 -60.8l-189.9 190.2c-479.6,-479.6 -959.8,-958.6 -1440,-1437.5l222.1 -222.6c480.3,478.9 960.4,958 1440,1437.5l-32.2 32.4z"/>
   <path class="fil1" d="M51837.6 126619.2c0,387.7 55.1,676 265.8,775.7 33.4,44.3 33.4,133.1 -10.9,166.5 -121.8,0 -321.7,44.2 -532,88.5 -687.2,166.1 -1518.4,299.5 -2149.9,299.5 -1329.8,0 -2582.1,-355 -3413,-1219.3 -653.8,-675.9 -975.5,-1606.6 -975.5,-2537.5 0,-930.9 321.7,-1883.7 1019.4,-2603.9 787,-831.6 1995,-1308.1 3535.2,-1308.1 520.8,0 1085.9,88.9 1473.9,166.5 254.6,55.1 575.9,99.7 709,99.7 11.2,332.2 88.5,897.6 144,1762.1 -55.5,110.7 -299.2,121.9 -354.3,22.2 -244.1,-1075 -1030.7,-1607 -2127.8,-1607 -1950.7,0 -2892.2,1407.5 -2892.2,3291.5 0,886.7 199.5,1839.4 797.9,2549.1 598.4,709 1484.7,941.8 2138.9,941.8 532,0 853.4,-88.8 986.5,-254.9 66.7,-99.7 99.7,-299.2 99.7,-698.1l0 -398.9c0,-786.7 -10.9,-853.4 -753.6,-974.9l-398.9 -66.7c-77.3,-77.6 -77.3,-265.9 11.2,-321.3 432.3,22.1 963.9,33.3 1728.4,33.3 499,0 875.8,-11.2 1352.4,-33.3 110.6,55.1 121.8,243.7 22.1,321.3l-199.5 33.3c-410.1,66.4 -476.5,155.3 -476.5,831.3l0 642.6 -0.3 -1z"/>
   <path class="fil2" d="M51883.8 126668.8c2.2,169 16.4,316.4 51.6,433.2 36.4,120.5 95.3,207.9 187.5,251.5l10.4 4.9 6.7 8.9c23.8,31.6 35.4,78.3 32.6,121.3 -2.8,42.9 -19.7,84.7 -52.5,109.3l-12.3 9.4 -15.3 0c-108.5,0 -285.7,37.4 -476,77.6l-46.7 9.8c-363.7,87.8 -767.3,166.6 -1160.3,221.3 -353.7,49.3 -699,79.3 -998.9,79.3 -699,0 -1377.4,-97.6 -1985.7,-314.9 -558.4,-199.4 -1057.9,-500 -1460.2,-918.5 -323.4,-334.3 -566.6,-730.2 -730.9,-1157.5 -172.2,-447.9 -257.6,-930 -257.6,-1411.8 0,-486.1 86.8,-978.4 268.1,-1441.3 169.7,-433.6 422.5,-841.6 764.5,-1194.5 403.6,-426.3 916.2,-760.3 1525.8,-985.9 592.5,-219.2 1276.9,-336.2 2042.1,-336.2 228.2,0 465.4,17.1 692.7,42.7 294,33.2 570.6,80.8 790.2,124.7l0.7 0.1c126.1,27.3 267.6,51.9 393.7,69.7 127.5,17.9 240.1,29 305.6,29l44.2 0 1.5 44.5c5.2,153.1 24.7,357.8 49.6,619.4 28.8,302.5 64.9,680.8 94.4,1141.2l0.8 12.2 -5.6 11.1c-16.6,33.2 -44.6,59.4 -78.8,78.2 -41.3,22.9 -93,35.5 -143.7,37.4 -51,1.9 -102.3,-7.2 -142.7,-27.4 -30,-15 -54.5,-36.5 -70,-64.4l-3.3 -6 -1.4 -6c-117.2,-516.5 -362,-904.6 -707.3,-1165.4 -358.7,-270.9 -827.4,-405.7 -1375.8,-405.7 -921.4,0 -1613.4,318 -2083.4,852.9 -511.7,582.3 -762.9,1423.2 -762.9,2392.7 0,472.2 57,962.9 201.4,1424.4 124.1,396.4 312.9,771.6 585.6,1095.1 263.1,311.9 583.4,530.1 914.4,675.8 408.6,179.9 833.9,249.7 1189.5,249.7 259.6,0 467.5,-21.2 626.1,-62.2 155.3,-40.1 262.3,-98.6 323.6,-174.1 28.9,-44.2 51,-112.5 66.3,-216.2 16.2,-109.7 24.3,-257.1 24.3,-454.6l0 -398.9c0,-383.6 -2.5,-591.6 -89.4,-709.8 -85.8,-117 -267,-161.3 -625.7,-220l-413.6 -69 -10.4 -10.5c-10.5,-10.6 -19.8,-22.5 -27.8,-35.2 -29.8,-48 -44.2,-112.1 -41.8,-172.5 2.4,-62.9 22.8,-124.2 62.1,-163.3 8.3,-8.2 17.3,-15.5 27,-21.6l12 -7.5 14.5 0.7c216.7,11.1 457.4,19.5 738.2,25 276.3,5.5 600.1,8.2 988,8.2 253.6,0 472.1,-2.7 683.5,-8.2 214.5,-5.5 427.9,-13.9 666.8,-25l11.9 -0.5 10.5 5.2c26.2,13 48.2,31.9 65.8,54.5 28.7,36.9 45.3,83.8 49.2,131.7 3.7,47.3 -4.7,96.6 -25.7,138.8 -14,28.2 -33.8,53.4 -59.5,73.4l-9.3 7.3 -210.8 35.2c-191.2,30.9 -301.4,65.7 -360.1,165.2 -62.6,106.1 -78,291.2 -78,620.8l0 691.3zm-36.3 459.3c-41.5,-137.8 -55.8,-311.1 -55.8,-508.9l0 -294.9 0.3 1 0 -347.8c0,-346.2 17.9,-543.7 90.9,-667.5 76.9,-130.3 205.1,-173.3 424,-208.7l187 -31.4c10.4,-9.9 18.9,-21.8 25.5,-35.1 13.5,-27.2 18.9,-59.5 16.4,-90.9 -2.5,-30.9 -12.6,-60.4 -29.9,-82.5 -7,-9.1 -15.5,-17.1 -25.4,-23.4 -232.2,10.7 -441.9,18.9 -655.4,24.3 -220.8,5.7 -440.3,8.6 -685.6,8.6 -376.7,0 -701.2,-2.9 -989.8,-8.6 -276.8,-5.4 -513.1,-13.5 -724.4,-24.1l-1 1c-22,21.9 -33.7,60.4 -35.2,101.6 -1.7,43.7 7.9,88.7 28.1,120.9l6.2 8.9 382.8 63.9c383.8,62.8 579.5,112.7 684.7,256.1 104.3,142 107.3,361 107.3,764l0 398.9c0,201.4 -8.5,353.2 -25.4,467.9 -17.6,119.2 -45.1,200.1 -82.2,255.7l-2.4 3.2c-73.4,91.7 -196.9,161.2 -373,206.7 -166.9,43.1 -382.4,65.4 -649.1,65.4 -366.5,0 -804.9,-72 -1226.4,-257.6 -342.8,-150.9 -674.5,-377 -947.5,-700.5 -281.1,-333.5 -475.5,-719.6 -603.1,-1127 -147.5,-471.4 -205.7,-971.4 -205.7,-1451.7 0,-991.2 258.8,-1853.1 785.9,-2453 487.4,-554.7 1202.5,-884.4 2152.2,-884.4 568.5,0 1055.9,141 1431,424.3 360.8,272.5 616.7,675.9 739.7,1211.2 6.3,8.6 16,16 28,22 26.5,13.3 62,19.2 98.6,17.8 36.8,-1.4 73.9,-10.3 102.9,-26.3 14.7,-8.1 27,-18 35.3,-29.4 -29.6,-457 -64.9,-827.6 -93.1,-1124.4 -22.8,-239.5 -41.1,-431.6 -48.3,-581.9 -69.5,-3.4 -166.9,-13.9 -274.2,-29 -129.8,-18.2 -273.9,-43.2 -400.5,-70.6 -218.1,-43.6 -492,-90.8 -781.5,-123.4 -223.4,-25.2 -457,-42 -682.7,-42 -754.3,0 -1428.1,115 -2010.6,330.5 -596.7,220.8 -1097.7,547.1 -1491.4,963.1l-0.3 0.5c-332.9,343.6 -579.3,741.2 -744.8,1164 -176.8,451.8 -261.6,932.7 -261.6,1408 0,471.5 83.3,942.5 251.2,1379.2 159.8,415.8 396.6,801.1 711.4,1126.6 391.9,407.6 879.4,700.7 1425.2,895.6 597.7,213.6 1265.7,309.5 1954.8,309.5 296.7,0 637.6,-29.6 986.3,-78.2 390.7,-54.4 791.9,-132.7 1152.8,-219.9l48.1 -10.2c184.8,-39 357.5,-75.5 474.8,-79.4 4.9,-8.4 7.8,-20.2 8.5,-33 1.3,-18.9 -2.1,-38.4 -9.5,-52.5 -111.2,-57.5 -181.7,-161.9 -224.1,-302.2z"/>
   <path class="fil1" d="M129586.2 105821.4l-21174.6 0 0 25359.4 21174.6 0.1 0 -25359.5zm-1072.5 22855.2l-19029.7 0 0 -20379.7 19017.2 0 0 20379.7 12.5 0z"/>
   <path class="fil1" d="M92606.9 152413.3l-20581.2 0c-546.9,0 -1007.4,460.6 -1007.4,1007.5 0,546.8 460.6,1007.4 1007.4,1007.4l20581.2 0.1c547,0 1007.5,-460.6 1007.5,-1007.5 0,-546.8 -460.5,-1007.5 -1007.5,-1007.5z"/>
   <path class="fil1" d="M93499.2 141532.6l-723.6 0c-76,0 -139.9,460.6 -139.9,1007.4 0,546.9 63.9,1007.5 139.9,1007.5l727.6 0.1c76,0 139.9,-460.6 139.9,-1007.5 0,-546.8 -67.9,-1007.5 -143.9,-1007.5z"/>
   <path class="fil1" d="M71606.1 143547.6l5995.3 0c319.1,0 587.8,-460.6 587.8,-1007.5 0,-546.8 -268.7,-1007.4 -587.8,-1007.4l-5995.3 -0.1c-319.1,0 -587.8,460.6 -587.8,1007.4 0,546.9 268.7,1007.6 587.8,1007.6z"/>
   <path class="fil1" d="M59079.9 152413.3l-4576.8 0c-546.9,0 -1007.4,460.6 -1007.4,1007.5 0,546.8 460.6,1007.4 1007.4,1007.4l4576.8 0.1c546.9,0 1007.5,-460.6 1007.5,-1007.5 0,-546.8 -460.6,-1007.5 -1007.5,-1007.5z"/>
   <path class="fil1" d="M38498.7 154428.3l11773 0c547,0 1007.5,-460.6 1007.5,-1007.5 0,-546.8 -460.6,-1007.4 -1007.5,-1007.4l-11773 -0.1c-546.9,0 -1007.4,460.6 -1007.4,1007.5 0,546.8 460.5,1007.5 1007.4,1007.5z"/>
   <path class="fil1" d="M59079.9 141532.6l-20581.2 0c-546.9,0 -1007.4,460.6 -1007.4,1007.4 0,546.9 460.6,1007.5 1007.4,1007.5l20581.2 0.1c546.9,0 1007.5,-460.6 1007.5,-1007.5 0,-546.8 -460.6,-1007.5 -1007.5,-1007.5z"/>
   <path class="fil1" d="M92606.9 157652.2l-6534.2 0c-546.9,0 -1007.4,460.6 -1007.4,1007.4 0,546.9 460.6,1007.5 1007.4,1007.5l6534.2 0c547,0 1007.5,-460.5 1007.5,-1007.4 0,-546.9 -460.5,-1007.5 -1007.5,-1007.5z"/>
   <path class="fil1" d="M72025.7 159667.1l8174.9 0c546.9,0 1007.4,-460.5 1007.4,-1007.4 0,-546.9 -460.6,-1007.4 -1007.4,-1007.4l-8174.9 -0.1c-546.9,0 -1007.4,460.6 -1007.4,1007.4 0,546.9 460.5,1007.5 1007.4,1007.5z"/>
   <path class="fil1" d="M92606.9 146742.7l-20581.2 0c-546.9,0 -1007.4,460.6 -1007.4,1007.4 0,546.9 460.6,1007.5 1007.4,1007.5l20581.2 0.1c547,0 1007.5,-460.6 1007.5,-1007.5 0,-546.8 -460.5,-1007.5 -1007.5,-1007.5z"/>
   <path class="fil1" d="M59079.9 157652.2l-20581.2 0c-546.9,0 -1007.4,460.6 -1007.4,1007.4 0,546.9 460.6,1007.5 1007.4,1007.5l20581.2 0c546.9,0 1007.5,-460.5 1007.5,-1007.4 0,-546.9 -460.6,-1007.5 -1007.5,-1007.5z"/>
   <path class="fil1" d="M59079.9 146742.7l-20581.2 0c-546.9,0 -1007.4,460.6 -1007.4,1007.4 0,546.9 460.6,1007.5 1007.4,1007.5l20581.2 0.1c546.9,0 1007.5,-460.6 1007.5,-1007.5 0,-546.8 -460.6,-1007.5 -1007.5,-1007.5z"/>
   <path class="fil1" d="M85946.6 105767.7c-4594.9,0 -8755,1862.4 -11766,4873.4 -3011,3011.1 -4873.5,7171 -4873.5,11766 0,4595 1862.5,8754.9 4873.5,11766 3011,3011.1 7171.1,4873.4 11766,4873.4 4595,0 8754.9,-1862.3 11766,-4873.4 3011,-3011.1 4873.4,-7171 4873.4,-11766 0,-4595 -1862.4,-8754.9 -4873.4,-11766 -3011.1,-3011 -7171,-4873.4 -11766,-4873.4zm-14094.3 2545.1c3607.1,-3607.1 8590.4,-5838.3 14094.3,-5838.3 5503.9,0 10487.2,2231.2 14094.3,5838.3 3607.1,3607.1 5838.3,8590.2 5838.3,14094.3 0,4302.5 -1363.4,8286.8 -3681.7,11544.3l18032 14575.5c489.1,395.3 369.4,1688.8 -36,2144.7 -405.4,455.9 -1572.3,733.6 -1923.5,468.6l-18190.8 -14677.5 -38.3 38.7c-3607.1,3607.2 -8590.4,5838.2 -14094.3,5838.2 -5504.1,0 -10487.2,-2231.1 -14094.3,-5838.2 -3607.1,-3607 -5838.3,-8590.2 -5838.3,-14094.3 0,-5504.1 2231.2,-10487.2 5838.3,-14094.3zm6695.4 5280.1c-1299.1,1090 -2325.4,2443.1 -3028.4,3950.7 -701.7,1504.8 -1077.9,3162.2 -1077.9,4863.5l-3293.2 0c0,-2186.2 483.9,-4317 1386.7,-6252.9 901.4,-1933.1 2224.2,-3673.8 3903.1,-5082.6l2109.7 2521.3z"/>
   <path class="fil1" d="M59079.9 152413.3l-4576.8 0c-546.9,0 -1007.4,460.6 -1007.4,1007.5 0,546.8 460.6,1007.4 1007.4,1007.4l4576.8 0.1c546.9,0 1007.5,-460.6 1007.5,-1007.5 0,-546.8 -460.6,-1007.5 -1007.5,-1007.5z"/>
   <path class="fil1" d="M38498.7 154428.3l11773 0c547,0 1007.5,-460.6 1007.5,-1007.5 0,-546.8 -460.6,-1007.4 -1007.5,-1007.4l-11773 -0.1c-546.9,0 -1007.4,460.6 -1007.4,1007.5 0,546.8 460.5,1007.5 1007.4,1007.5z"/>
   <path class="fil1" d="M59079.9 141532.6l-20581.2 0c-546.9,0 -1007.4,460.6 -1007.4,1007.4 0,546.9 460.6,1007.5 1007.4,1007.5l20581.2 0.1c546.9,0 1007.5,-460.6 1007.5,-1007.5 0,-546.8 -460.6,-1007.5 -1007.5,-1007.5z"/>
   <path class="fil1" d="M59079.9 157652.2l-20581.2 0c-546.9,0 -1007.4,460.6 -1007.4,1007.4 0,546.9 460.6,1007.5 1007.4,1007.5l20581.2 0c546.9,0 1007.5,-460.5 1007.5,-1007.4 0,-546.9 -460.6,-1007.5 -1007.5,-1007.5z"/>
   <path class="fil1" d="M59079.9 146742.7l-20581.2 0c-546.9,0 -1007.4,460.6 -1007.4,1007.4 0,546.9 460.6,1007.5 1007.4,1007.5l20581.2 0.1c546.9,0 1007.5,-460.6 1007.5,-1007.5 0,-546.8 -460.6,-1007.5 -1007.5,-1007.5z"/>
   <g>
    <path class="fil1" d="M127036.6 148786.4l-4576.8 0c-546.9,0 -1007.4,-460.6 -1007.4,-1007.4 0,-546.9 460.6,-1007.5 1007.4,-1007.5l4576.8 0c546.9,0 1007.4,460.5 1007.4,1007.4 0,546.9 -460.5,1007.5 -1007.4,1007.5z"/>
    <path class="fil1" d="M106455.4 146771.5l11773 0c546.9,0 1007.4,460.5 1007.4,1007.4 0,546.9 -460.5,1007.4 -1007.4,1007.4l-11773 0.1c-546.9,0 -1007.5,-460.6 -1007.5,-1007.4 0,-546.9 460.6,-1007.5 1007.5,-1007.5z"/>
    <path class="fil1" d="M127036.6 159667.1l-20581.2 0c-546.9,0 -1007.5,-460.5 -1007.5,-1007.4 0,-546.9 460.6,-1007.4 1007.5,-1007.4l20581.2 -0.1c546.9,0 1007.4,460.6 1007.4,1007.4 0,546.9 -460.5,1007.5 -1007.4,1007.5z"/>
    <path class="fil1" d="M127036.6 143547.6l-20581.2 0c-546.9,0 -1007.5,-460.6 -1007.5,-1007.5 0,-546.8 460.6,-1007.4 1007.5,-1007.4l20581.2 -0.1c546.9,0 1007.4,460.6 1007.4,1007.4 0,546.9 -460.5,1007.6 -1007.4,1007.6z"/>
    <path class="fil1" d="M127036.6 154457l-20581.2 0c-546.9,0 -1007.5,-460.6 -1007.5,-1007.4 0,-546.9 460.6,-1007.5 1007.5,-1007.5l20581.2 0c546.9,0 1007.4,460.6 1007.4,1007.4 0,546.9 -460.5,1007.5 -1007.4,1007.5z"/>
   </g>
   <path class="fil3" d="M37937.9 94084.2c990.3,0 1886.9,401.4 2535.9,1050.4 648.9,648.9 1050.4,1545.6 1050.4,2535.9 0,990.2 -401.5,1886.9 -1050.4,2535.8 -648.9,648.9 -1545.6,1050.4 -2535.9,1050.4 -990.2,0 -1886.9,-401.5 -2535.8,-1050.4 -649,-649 -1050.4,-1545.6 -1050.4,-2535.8 0,-990.3 401.5,-1887 1050.4,-2535.9 648.9,-648.9 1545.6,-1050.4 2535.8,-1050.4zm1797.4 1788.9c-459.9,-459.9 -1095.4,-744.5 -1797.4,-744.5 -701.9,0 -1337.4,284.5 -1797.3,744.5 -460,459.9 -744.5,1095.5 -744.5,1797.4 0,701.9 284.6,1337.5 744.5,1797.3 459.9,459.9 1095.4,744.5 1797.3,744.5 702,0 1337.5,-284.6 1797.4,-744.5 459.9,-459.9 744.5,-1095.4 744.5,-1797.3 0,-701.9 -284.6,-1337.5 -744.5,-1797.4z"/>
   <path class="fil3" d="M47685.8 94084.2c990.3,0 1886.9,401.4 2535.9,1050.4 648.8,648.9 1050.4,1545.6 1050.4,2535.9 0,990.2 -401.6,1886.9 -1050.4,2535.8 -649,648.9 -1545.6,1050.4 -2535.9,1050.4 -990.2,0 -1887,-401.5 -2535.8,-1050.4 -649,-649 -1050.4,-1545.6 -1050.4,-2535.8 0,-990.3 401.5,-1887 1050.4,-2535.9 648.8,-648.9 1545.6,-1050.4 2535.8,-1050.4zm1797.4 1788.9c-459.9,-459.9 -1095.5,-744.5 -1797.4,-744.5 -701.9,0 -1337.4,284.5 -1797.3,744.5 -460,459.9 -744.5,1095.5 -744.5,1797.4 0,701.9 284.6,1337.5 744.5,1797.3 459.9,459.9 1095.4,744.5 1797.3,744.5 701.9,0 1337.4,-284.6 1797.4,-744.5 459.9,-459.9 744.5,-1095.4 744.5,-1797.3 0,-701.9 -284.6,-1337.5 -744.5,-1797.4z"/>
   <path class="fil3" d="M57433.7 94084.2c990.3,0 1886.9,401.4 2535.9,1050.4 648.8,648.9 1050.4,1545.6 1050.4,2535.9 0,990.2 -401.6,1886.9 -1050.4,2535.8 -649,648.9 -1545.6,1050.4 -2535.9,1050.4 -990.2,0 -1887,-401.5 -2535.8,-1050.4 -649,-649 -1050.4,-1545.6 -1050.4,-2535.8 0,-990.3 401.4,-1887 1050.4,-2535.9 648.8,-648.9 1545.6,-1050.4 2535.8,-1050.4zm1797.4 1788.9c-459.9,-459.9 -1095.5,-744.5 -1797.4,-744.5 -701.9,0 -1337.5,284.5 -1797.4,744.5 -459.9,459.9 -744.4,1095.5 -744.4,1797.4 0,701.9 284.6,1337.5 744.4,1797.3 459.9,459.9 1095.5,744.5 1797.4,744.5 701.9,0 1337.4,-284.6 1797.4,-744.5 459.9,-459.9 744.4,-1095.4 744.4,-1797.3 0,-701.9 -284.5,-1337.5 -744.4,-1797.4z"/>
  </g>
 </g>
</svg>