<?xml version="1.0" encoding="UTF-8"?>
<!DOCTYPE svg PUBLIC "-//W3C//DTD SVG 1.1//EN" "http://www.w3.org/Graphics/SVG/1.1/DTD/svg11.dtd">
<!-- Creator: CorelDRAW (Versão OEM) -->
<svg xmlns="http://www.w3.org/2000/svg" xml:space="preserve" version="1.1" style="shape-rendering:geometricPrecision; text-rendering:geometricPrecision; image-rendering:optimizeQuality; fill-rule:evenodd; clip-rule:evenodd" viewBox="-3200.43 -3200.43 166422.36 208238.16" xmlns:xlink="http://www.w3.org/1999/xlink" xmlns:xodm="http://www.corel.com/coreldraw/odm/2003">
 <defs>
  <style type="text/css">
   <![CDATA[
    .str0 {stroke:#3E4095;stroke-width:5000;stroke-miterlimit:22.9256}
    .str1 {stroke:#3E4095;stroke-width:200;stroke-miterlimit:22.9256}
    .fil1 {fill:#373435;fill-rule:nonzero}
    .fil0 {fill:#00A859;fill-rule:nonzero}
   ]]>
  </style>
 </defs>
 <g id="Camada_x0020_1">
  <metadata id="CorelCorpID_0Corel-Layer"/>
  <path class="fil0 str0" d="M67439.4 184612.5c10497.1,11410.9 24889.2,17224.8 39250.1,17224.8 29446.8,0 53332,-23885.2 53332,-53332 0,-29446.8 -23885.2,-53332 -53332,-53332 -29446.8,0 -53332,23885.2 -53332,53332 0,6580.3 1071,12382.3 3252,18338.3 -2257.9,10926.6 -4515.7,21853.2 -6773.6,32779.8 17603.5,-15010.9 11735.7,-10007.3 17603.5,-15010.9z"/>
  <g id="_2193163957184">
   <path class="fil1 str1" d="M111266.8 159355.7c0,845.5 120.2,1473 579.3,1690.3 72.7,96.4 72.7,290 -23.8,362.7 -266.2,0 -700.8,96.4 -1159.9,192.8 -1496.8,362 -3308.7,652.7 -4684.5,652.7 -2898.5,0 -5626.4,-772.9 -7436.8,-2656 -1424.8,-1472.9 -2125.7,-3501.4 -2125.7,-5529.9 0,-2028.5 700.9,-4104.4 2222.1,-5673.8 1714,-1812 4346.2,-2849.6 7702.3,-2849.6 1134.8,0 2366,193.6 3211.5,362 554.8,120.1 1255.7,217.3 1545.7,217.3 24.4,724.6 192.8,1955.8 313.7,3839.7 -120.9,241 -651.9,265.5 -772.1,48.2 -531.8,-2342.2 -2245.8,-3501.5 -4637,-3501.5 -4249.8,0 -6302,3066.8 -6302,7172 0,1931.4 434.6,4008.8 1737.8,5553.7 1303.8,1545.7 3235.9,2052.2 4660.7,2052.2 1158.5,0 1859.3,-192.1 2149.3,-554.7 145.4,-217.3 217.3,-652 217.3,-1521.2l0 -869.3c0,-1714 -23.7,-1859.4 -1642,-2124.9l-869.3 -144.6c-169.1,-169.1 -169.1,-578.5 24.5,-700.1 941.9,48.9 2100.4,72.6 3766.2,72.6 1087.3,0 1907.6,-23.7 2946.7,-72.6 241.1,121.6 265.5,531 48.2,700.1l-434.6 72.7c-893.7,144.6 -1038.4,337.5 -1038.4,1810.4l0 1401.1 0.8 -2.3z"/>
   <path class="fil1 str1" d="M111366.8 159355.7c0,413.9 29.1,773.2 113.2,1052.2 79.1,262.5 207.8,452.8 408.7,547.9l16.3 7.8c7.7,7.6 14.3,13.7 20.9,22.3 50,66.4 75.1,163.3 71.4,254.2 -4.1,97.4 -40.8,192.4 -114.7,248.3l-26.9 20.3 -33.3 0c-236.1,0 -619.4,80.8 -1032.5,167.9l-107.2 22.6c-791.9,191.2 -1671.4,362.9 -2527.8,482.2 -770.9,107.4 -1523.5,172.8 -2177,172.8 -1523.9,0 -3002,-212.5 -4327.2,-685.8 -1216.7,-434.5 -2304.8,-1089.1 -3181.5,-2001.1 -704.5,-728.3 -1234.6,-1591 -1592.5,-2522.2 -375.2,-976.2 -561.3,-2027 -561.3,-3076.8 0,-1059.4 189.2,-2132.1 584.2,-3140.6 370,-944.9 921.1,-1833.8 1666.4,-2602.7 879.1,-928.7 1995.7,-1656.4 3323.6,-2147.7 1290.9,-477.6 2782.5,-732.4 4450.2,-732.4 496.6,0 1012.8,37.1 1507.7,92.8 641.2,72.3 1244.5,175.9 1723.3,271.2l1.6 0.3c274.6,59.4 583,113 858,151.6 278.2,39.1 523.9,63.4 666.6,63.4l96.3 0 3.3 96.9c11.2,334.4 53.8,780.9 108.2,1351.8 62.7,658.8 141.2,1482.4 205.5,2484.7l1.7 26.5 -12.2 24.3c-36.3,72.3 -97.2,129.3 -171.5,170.2 -90,49.7 -202.7,77.4 -313.2,81.5 -111.1,4.1 -223,-15.6 -311,-59.7 -65.4,-32.7 -118.9,-79.5 -152.6,-140.3l-7.3 -13 -2.9 -13.1c-255.5,-1125.5 -788.9,-1971.3 -1541.5,-2539.5 -781.5,-590.2 -1802.9,-883.9 -2998.2,-883.9 -2007.5,0 -3515.3,692.9 -4539.6,1858.5 -1114.9,1268.8 -1662.4,3101 -1662.4,5213.5 0,1028.6 124.1,2098.3 438.8,3104.1 270.3,863.7 681.4,1681.1 1275.2,2385.1 573.2,679.7 1271,1155 1992.2,1472.6 890.5,392 1817.5,544.1 2592.3,544.1 566,0 1019.3,-46 1365.1,-135.1 336.8,-87 569.4,-213.5 702.5,-376.8 63.8,-96.2 112.4,-245.8 146.1,-473.4 35.2,-239 52.9,-560.3 52.9,-990.6l0 -869.3c0,-835.8 -5.4,-1288.8 -194.6,-1546.6 -187,-255 -581.8,-351.8 -1363.4,-479.9l-901.7 -149.9 -22.3 -22.4c-22.5,-22.5 -43.1,-48.7 -61.1,-77.6 -65.2,-104.2 -96.3,-243.4 -91.2,-374.9 5.3,-136.9 49.6,-270.1 134.9,-355.4 17.6,-17.6 37.6,-33.8 59.9,-47.7l26.2 -16.4 31.6 1.6c472.3,24.4 996.6,42.7 1608.1,54.6 602.2,11.8 1307.8,17.6 2153,17.6 552.8,0 1028.9,-5.8 1489.1,-17.6 466.9,-11.8 931.6,-30.2 1452.9,-54.6l26.2 -1.2 23.4 11.7c56.8,28.6 104.8,69.8 142.8,118.6 63,80.5 99.1,183.1 107.4,287.8 8.1,103.3 -10.6,211.1 -57.1,303.4 -30.5,60.5 -73.4,115 -128.5,157.9l-20.3 15.8 -459.2 76.8c-416.7,67.3 -656.9,142.9 -784.8,359.5 -136.5,231.1 -170,634.3 -170,1352.5l0 810.3 0.8 -2.3 0 590.8zm-78.2 1109.2c-51,-169.1 -83.2,-362.6 -101.6,-576.5l-21 60.5 0 -1992c0,-754.5 39,-1184.6 198.2,-1454.1 167.7,-283.9 447,-377.4 923.8,-454.6l407.5 -68.3c22.4,-21.3 40.8,-47 55.1,-75.3 29.7,-58.9 41.5,-129.4 36.1,-198 -5.3,-67.2 -27.5,-131.8 -65.6,-180.8 -15.2,-20 -33.6,-37.4 -54.6,-51.1 -506,23.6 -963,41.4 -1428.7,53.2 -481.2,12.3 -959.2,18.4 -1493.7,18.4 -820.5,0 -1527.4,-6.1 -2156.6,-18.4 -602.9,-11.7 -1117.8,-29.4 -1577.9,-52.7l-2.9 2.8c-48.2,48.2 -73.7,131.7 -77.1,221 -3.6,94.5 17.2,192.1 61.2,262.1l14.1 20.1 834.2 138.8c836.3,137.1 1262.8,246.3 1492,558.7 227.1,309.4 233.6,786.5 233.6,1664.6l0 869.3c0,438.9 -18.5,769.8 -55.3,1019.6 -38.4,259.7 -98.3,436.1 -179.2,557.1l-5.1 6.6c-160.2,200.2 -428.9,351.5 -811.9,450.4 -364.2,93.9 -834,142.2 -1415.1,142.2 -798.3,0 -1754,-156.9 -2672.7,-561.3 -746.8,-328.9 -1469.6,-821.4 -2064.2,-1526.4 -612.3,-725.9 -1035.6,-1566.9 -1313.4,-2454.7 -321.4,-1027.2 -448.2,-2117.2 -448.2,-3163.5 0,-2159.6 564,-4037.7 1712.4,-5344.7 1062.2,-1208.8 2620.3,-1927.3 4689.6,-1927.3 1238.9,0 2301.1,307.2 3118.6,924.5 786.5,593.8 1344,1472.8 1612,2639.2 13.6,18.7 34.8,34.8 60.9,47.9 57.7,28.9 135.3,41.7 215,38.7 80.3,-3 161.1,-22.4 224.2,-57.3 32,-17.6 58.7,-39.1 76.8,-63.9 -64.4,-994.9 -141.1,-1801.5 -202.7,-2448 -49.8,-522.7 -89.7,-942 -105.2,-1270.1 -151.7,-7.5 -364.1,-30.3 -598.2,-63.2 -283.1,-39.7 -597.1,-94.1 -872.8,-153.8 -475.7,-94.7 -1073.2,-197.4 -1704.5,-268.5 -486.4,-54.8 -994.8,-91.2 -1485.9,-91.2 -1644,0 -3112.3,250.5 -4381.4,720 -1299.9,480.9 -2391.3,1191.7 -3248.6,2098l-0.8 1.1c-725.7,748.7 -1262.6,1614.9 -1623.4,2536.3 -385.5,984.3 -570.2,2032.3 -570.2,3068 0,1027.3 181.4,2054 547.3,3005.8 348.3,906.2 864.3,1745.9 1550.3,2455 853.8,888.1 1915.8,1526.5 3104.9,1951.1 1302.4,465.1 2757.7,674 4260,674 646.5,0 1389.4,-64.5 2149.6,-170.4 851.6,-118.6 1725.5,-289.2 2511.5,-479.2l110.3 -23.4c400.9,-84.5 774.8,-163.3 1029.6,-171.7 11.6,-19.8 17.9,-47.7 19.2,-77.6 1.6,-39.6 -5.8,-79.4 -21.1,-108.8 -242.5,-125.3 -396.2,-352.5 -488.4,-658.2z"/>
   <polygon class="fil1 str1" points="104660.7,185568.8 70319.5,151513.9 70319.5,150991.1 104359.6,171326.4 139500.3,150200.4 139486.2,150720.3 "/>
   <path class="fil1 str1" d="M104590.4 185639.5l-34370.9 -34084.3 0 -739.9 34139.9 20394.9 35245.4 -21188.9 -20.1 741.5c-11645.1,11645.1 -23278.6,23301.6 -34923.7,34946.7l-70.6 -70zm-34170.9 -34166.8l34240.9 33955.4 34727.3 -34750.3 8.1 -298.3 -35036.1 21063 -33940.2 -20275.6 0 305.8z"/>
   <path class="fil1 str1" d="M104660.7 185044.5l-34354.5 -34059.4 5751.7 -27.4c0,0 2028.5,-1425.5 3467.3,-1520.5 923.4,-61.5 1717,613.4 1717,613.4l1777.1 -1043.6 21339.5 21445.7 22917.1 -22031.6 1615.4 577.8c0,0 716.5,-218.8 1939.5,-68.2 1223,151.3 2833.2,1550.1 4136.3,1482.6 804.8,83 4561.4,-236.6 4561.4,-236.6l-34867.8 34868.5 0 -0.7z"/>
   <path class="fil1 str1" d="M104560.7 185085.8l-34495.4 -34199.1 5960.8 -28.5c238,-163.7 2118.4,-1429.8 3492.5,-1520.6 818.2,-54.5 1533.4,440.3 1732.4,592.4l1784.6 -1048 21324.7 21430.9 22891.1 -22006.6 1643.8 587.9c151.7,-39.7 851.4,-197.7 1947.7,-62.7 561.4,69.4 1190.4,388 1834.8,714.3 782,395.9 1587.9,804 2284.3,767.9l15.3 0.4c793.9,81.8 4532.3,-236.2 4543,-237l271.8 -22.6 -35231.4 35232.1 0 -200.8zm-34013.6 -34002.2l34113.4 33820.4 34604.6 -34605.3c-874.7,71 -3604.3,282.7 -4300.3,214.5 -747.6,35.7 -1574.6,-382.9 -2376.9,-789.2 -628.5,-318.3 -1241.9,-629 -1769.2,-694.1 -1202.4,-148 -1898.1,64.6 -1900.1,65.1l-30.8 8.8 -1587.5 -567.8 -22943.1 22056.5 -21354.1 -21460.5 -1770.8 1040 -53.8 -44.4c-2.1,-1.7 -764,-649.5 -1646.7,-590.8 -1410.5,93.1 -3411.1,1498.9 -3416.9,1502.9l-25.1 17.5 -5542.7 26.4z"/>
   <polygon class="fil1 str1" points="104720.8,176811.1 77700,150006.9 78027.8,149859.2 104720,176317.9 131803.9,149237 132136.9,149384.6 104720.8,176811.1 "/>
   <path class="fil1 str1" d="M104650.5 176881.8l-27123.7 -26906.3 522.5 -235.4 26670.2 26436.9 27062.1 -27059.1 528.6 234.4c-9198,9198 -18384.7,18408 -27589.2,27599.5l-70.5 -70zm-26777.3 -26843.5l26847.3 26632.1 27243.1 -27253.4 -137.4 -60.9 -27105.7 27102.6 -26714.1 -26480.4 -133.2 60z"/>
   <rect class="fil1 str1" transform="matrix(0.198354 -0.198077 0.198077 0.198354 75317.8 155782)" width="18184.8" height="1928.8"/>
   <path class="fil1 str1" d="M75699.9 156024l3466 -3461.1 -241.2 -241.5 -3465.9 3461.1 241.1 241.5zm3677.3 -3390.3l-3677.5 3672.4 -522.8 -523.8c1248.4,-1248.4 2497.8,-2496.1 3748,-3742.8l523.1 523.6 -70.8 70.6z"/>
   <polygon class="fil1 str1" points="87203.8,167672.1 86821.9,167289.4 90424.9,163685.6 90808.4,164067.6 "/>
   <path class="fil1 str1" d="M87133.1 167742.4l-452.1 -453.1c1248,-1248 2494.9,-2497.3 3743.8,-3744.5l525 522.9c-1249.4,1247.7 -2497.2,2497 -3745.8,3745.6l-70.9 -70.9zm-170.3 -452.9l240.9 241.3 3463.4 -3463.3 -242.1 -241 -3462.2 3463z"/>
   <polygon class="fil1 str1" points="81452.9,161920.4 81069.4,161537.7 84673.2,157933.2 85055.9,158315.9 "/>
   <path class="fil1 str1" d="M81382.6 161991.1l-454.4 -453.5c1247.6,-1249.3 2496.5,-2497.3 3745,-3745.8l523.9 523.9 -3744.1 3745.7 -70.4 -70.3zm-171.9 -453.3l242.1 241.7 3461.9 -3463.4 -241.5 -241.5 -3462.5 3463.2z"/>
   <rect class="fil1 str1" transform="matrix(0.198216 -0.198216 0.198216 0.198216 92573.8 173041)" width="18182.2" height="1931.5"/>
   <path class="fil1 str1" d="M92956.6 173282.7l3462.6 -3462.6 -241.4 -241.4 -3462.6 3462.6 241.4 241.4zm3674.7 -3391.9l-3674.7 3674.7 -524.2 -524.2 3745.4 -3745.4 524.2 524.2 -70.7 70.7z"/>
   <rect class="fil1 str1" transform="matrix(0.198285 -0.198147 0.198147 0.198285 98326.3 178791)" width="18465.3" height="1931.5"/>
   <path class="fil1 str1" d="M98709.1 179032.5l3520.3 -3517.9 -241.7 -241.9 -3520.4 3517.9 241.8 241.9zm3731.6 -3447.2l-3731.7 3729.2 -523.6 -524.1 3802.4 -3799.7 523.7 523.9 -70.8 70.7z"/>
   <rect class="fil1 str1" transform="matrix(0.198216 -0.198216 0.198216 0.198216 78193.1 158661)" width="9093.7" height="1931.5"/>
   <path class="fil1 str1" d="M78575.9 158902.6l1661.4 -1661.3 -241.5 -241.4 -1661.3 1661.3 241.4 241.4zm1873.3 -1590.4l-1873.3 1873.2 -524.2 -524.2 1943.7 -1943.6 524.4 524.1 -70.6 70.5z"/>
   <rect class="fil1 str1" transform="matrix(0.197904 -0.198527 0.198527 0.197904 83947.5 164413)" width="9091.1" height="1928.8"/>
   <path class="fil1 str1" d="M84330.2 164654.1l1658.4 -1663.7 -241.7 -240.9 -1658.4 1663.7 241.7 240.9zm1870.1 -1593.6l-1869.6 1875.7 -524.1 -522.5c645.8,-649.5 1293.1,-1297.6 1939.9,-1946.2l524.1 522.5 -70.3 70.5z"/>
   <polygon class="fil1 str1" points="90080.1,170548.4 89697.4,170165.7 91499.6,168363.4 91882.3,168746.1 "/>
   <path class="fil1 str1" d="M90009.4 170619.1l-453.3 -453.4 1943.5 -1943.8 524.1 524.1 -1943.5 1943.8 -70.8 -70.7zm-170.6 -453.4l241.3 241.3 1660.8 -1660.9 -241.3 -241.3 -1660.8 1660.9z"/>
   <polygon class="fil1 str1" points="95832.5,176300.1 95449.1,175918.1 97251.3,174115.1 97634,174498.6 "/>
   <path class="fil1 str1" d="M95762.2 176370.8l-454.2 -452.6 1943.4 -1944.2 523.8 524.8 -1942.3 1942.3 -70.7 -70.3zm-172 -452.8l242 241 1660.7 -1660.7 -241.7 -242.1 -1661 1661.8z"/>
   <polygon class="fil1 str1" points="101584.2,182052.5 101201.5,181669.8 103003.8,179866.8 103385.8,180250.3 "/>
   <path class="fil1 str1" d="M101513.5 182123.2l-453.1 -453.2 1943.5 -1944.4 522.7 524.8 -1942.5 1943.3 -70.6 -70.5zm-170.8 -453.6l241.7 241.7 1660.5 -1661.1 -241.2 -242.2 -1661 1661.6z"/>
   <polygon class="fil1 str1" points="133576.5,156168.7 133959.2,155786 130355.4,152181.4 129972.7,152564.2 "/>
   <path class="fil1 str1" d="M133576.5 156027.3l241.5 -241.5 -3462.6 -3463.4 -241.5 241.6 3462.6 3463.3zm453.4 -170.6l-453.5 453.5c-1246.6,-1250.1 -2495.7,-2498.2 -3744.9,-3745.7l523.8 -524.1c1249.3,1247.5 2498.4,2495.7 3745,3745.9l-70.4 70.4z"/>
   <polygon class="fil1 str1" points="122073.1,167672.1 122455.1,167289.4 118852,163685.6 118469.3,164067.6 "/>
   <path class="fil1 str1" d="M122073.2 167530.8l240.8 -241.1 -3462.3 -3463 -241.1 240.8 3462.6 3463.3zm452.6 -171.1l-452.9 453.6c-1248.4,-1248.4 -2495.6,-2498 -3744.9,-3745.5l524.2 -523.3c1249,1247.2 2495.9,2496.5 3744,3744.6l-70.4 70.6z"/>
   <polygon class="fil1 str1" points="127824.1,161920.4 128207.5,161537.7 124602.9,157933.2 124221,158315.9 "/>
   <path class="fil1 str1" d="M127824.2 161779.5l242 -241.7 -3463.4 -3463.3 -240.9 241.3 3462.3 3463.7zm453.6 -171.1l-453.8 453c-1247.3,-1249.1 -2494.9,-2498.1 -3744,-3745.4l523 -524c1249.4,1247.6 2498.1,2496.2 3745.7,3745.6l-70.9 70.8z"/>
   <rect class="fil1 str1" transform="matrix(0.198147 -0.198285 0.198285 0.198147 112716 169824)" width="1931.5" height="18182.2"/>
   <path class="fil1 str1" d="M116320.7 173285.3l241.8 -241.9 -3464.1 -3461.9 -241.8 241.9 3464.1 3461.9zm453.5 -171.7l-453.4 453.7 -3746.2 -3743.8 523.6 -524.1 3746.2 3743.8 -70.2 70.4z"/>
   <rect class="fil1 str1" transform="matrix(0.198147 -0.198285 0.198285 0.198147 106907 175518)" width="1931.5" height="18465.3"/>
   <path class="fil1 str1" d="M110568.7 179036l241.8 -241.9 -3520.3 -3517.9 -241.8 241.9 3520.3 3517.9zm453.5 -171.7l-453.4 453.7 -3802.4 -3799.8 523.6 -524.1 3802.4 3799.8 -70.2 70.4z"/>
   <polygon class="fil1 str1" points="130700.3,159044.9 131083.7,158661.5 129281.4,156858.5 128898.8,157241.9 "/>
   <path class="fil1 str1" d="M130700.1 158903.7l242.4 -242.4 -1661 -1661.7 -241.8 242.3 1660.4 1661.8zm454.3 -171.5l-454 454 -1942.5 -1944.2 523.4 -524.5c648.4,647.5 1296.5,1295.5 1943.5,1944.3l-70.4 70.4z"/>
   <rect class="fil1 str1" transform="matrix(0.198354 -0.198077 0.198077 0.198354 123148 162988)" width="1928.8" height="9091.1"/>
   <path class="fil1 str1" d="M124948.4 164650.7l241.5 -241.1 -1659.9 -1662.2 -241.5 241.2 1659.9 1662.1zm452.8 -170.3l-453.1 452.3 -1941.6 -1944.2 523.6 -523.1 1941.8 1944.5 -70.7 70.5z"/>
   <rect class="fil1 str1" transform="matrix(0.198216 -0.198216 0.198216 0.198216 117395 168746)" width="1931.5" height="9093.7"/>
   <path class="fil1 str1" d="M119197.3 170407.4l241.4 -241.5 -1661.5 -1661.5 -241.4 241.5 1661.5 1661.5zm453.3 -171.4l-453.7 453.8 -1943.5 -1943.5 524.1 -524.4 1943.5 1943.5 -70.4 70.6z"/>
   <polygon class="fil1 str1" points="113445.1,176300.1 113827.8,175918.1 112025.6,174115.1 111642.9,174498.6 "/>
   <path class="fil1 str1" d="M113445.2 176159.2l241.6 -241.2 -1661.1 -1661.8 -241.9 242.3 1661.4 1660.7zm452.9 -170.4l-453.1 452.2 -1943.1 -1942.4 523.6 -524.6 1943.3 1944.1 -70.7 70.7z"/>
   <rect class="fil1 str1" transform="matrix(0.198216 -0.198216 0.198216 0.198216 105891 180250)" width="1931.5" height="9093.7"/>
   <path class="fil1 str1" d="M107693.8 181911.1l241.5 -241.4 -1661.5 -1661.5 -241.5 241.4 1661.5 1661.5zm453 -170.9l-453.5 453.2 -1943.5 -1943.5 524.4 -524.1 1943.5 1943.5 -70.9 70.9z"/>
   <path class="fil1 str1" d="M81219.2 150041l23300.6 23422.2 24754.2 -24502.1c-225.4,33.4 -350.8,69 -350.8,69l-1615.4 -577.1 -22916.4 22030.8 -21341 -21444.9 -1777 1043.6c0,0 -22.3,-17.1 -54.2,-41.6l0 0.1z"/>
   <path class="fil1 str1" d="M81426.5 150108.1l23093.8 23214.3 24450.6 -24201.5 -52.9 13.5 -1585.8 -566.6 -22942.4 22055.8 -21355.6 -21459.7 -1607.7 944.2zm23022.6 23425.4l-23329.9 -23451.6 0 -243.4 161.8 124.1 1785.7 -1048.7 21326.2 21430.1 22890.4 -22005.8 1644.6 587.5c50,-12.5 163.8,-38.5 331.6,-63.4l301.1 -44.6c-8347,8262.1 -16689.7,16528.9 -25041.4,24786.3l-70.1 -70.5z"/>
   <polygon class="fil1 str1" points="104731.9,177024.7 77547.2,150089.2 77875,149929.7 104730.4,176530.7 131962.6,149302.2 132289.7,149460.2 104731.9,177024.7 "/>
   <path class="fil1 str1" d="M104661.6 177095.4l-27284.6 -27034.4 517.8 -252 26835.1 26580.8 27212 -27208.3 517.5 250c-9243.4,9243.4 -18477.2,18497 -27727.2,27733.8l-70.6 -69.9zm-26944.2 -26977.9l27014.2 26766.5 27388.4 -27395 -136.7 -66.1 -27252.4 27248.6 -26875.7 -26621.1 -137.8 67.1z"/>
   <path class="fil1 str1" d="M101829.7 118797l9264.3 24308.5c0,0 5945.3,1516 9263.6,8244.5l13051.3 26710.1 -23845 -60877c0,0 -1105.1,4930 -7734.2,1614.7l0 -0.8z"/>
   <path class="fil1 str1" d="M102013.2 118998l9156.1 24024.5c575.4,161.7 6110.8,1861.6 9277.8,8283.4l11972 24501 -22843.7 -58320.8c-356.1,999.3 -1976.9,4198.3 -7562.2,1511.9zm8987.4 24143l-9250.2 -24271.5 -20.7 -10.3 0 -605.1 179.8 471.8c6484,3223.2 7554.2,-1552.6 7557.5,-1566.2l74.6 -307.2 23960.3 61171.3 -182.8 80.1 -13051.3 -26710.1c-3297.7,-6686.8 -9182.6,-8187.3 -9199.6,-8191.8l-49.4 -13.2 -18.2 -47.8z"/>
   <path class="fil1 str1" d="M102054.5 118573l9264.3 24307.8c0,0 5945.2,1516 9264.3,8244.5l12833.2 26942.2 -23627.6 -61109.1c0,0 -1104.4,4929.2 -7734.3,1614.7l0.1 -0.1z"/>
   <path class="fil1 str1" d="M102237.7 118773.1l9156.4 24024.7c575.4,161.7 6110.7,1861.7 9278.5,8283.4l11698.8 24560.2 -22571.8 -58378.3c-357.2,1000.9 -1978.8,4194.6 -7561.9,1510zm8987.7 24143.2l-9250.5 -24271.6 -89 -44.4 207.1 -207.1 41.1 107.9c6484.8,3222.6 7554.4,-1552.5 7557.7,-1566.1l75.1 -309.3 23742.4 61405.9 -183.2 78.9 -12833.2 -26942.2c-3298.7,-6686.3 -9182.9,-8186.5 -9199.9,-8191l-49.4 -13.2 -18.2 -47.8z"/>
   <path class="fil1 str1" d="M103839.7 119508.3l8838.5 22352.7c0,0 5354.2,2039.6 6969.6,4844.6l-10879.7 -27962c0,0 -1104.3,2039.6 -4928.4,764.7z"/>
   <path class="fil1 str1" d="M104010.2 119667.6l8744.9 22116.1c455.6,178.3 4595.4,1843.1 6497,4179.9l-10508.8 -27008.8c-359.5,458.5 -1649.2,1671.8 -4733.1,712.8zm8575 22230.1l-8917.2 -22551.5 203 67.6c3745.6,1248.7 4807.3,-713.9 4810.4,-719.4l103.6 -182.1c3813.7,9792.3 7621.9,19586.9 11431.7,29380.8l-655.2 -1137.9c-1597.2,-2773.5 -6903.6,-4795 -6918.8,-4800.8l-41.4 -15.8 -16.1 -40.9z"/>
   <path class="fil1 str1" d="M105964.6 121949.9c158,386.4 -138.7,929.3 262.5,1208.9 1118.5,780.3 1332.1,-1609.4 740.2,-2245.8 -36.3,-38.6 -75.7,-71.9 -117.9,-96.4 -127.6,-74.2 -345.7,-146.1 -468.8,-19.3 -122.4,126.8 -30.4,238.8 12.6,386.4 61.6,211.4 59.4,531.1 -264.8,394.6 -330.7,-137.9 -13.3,-447.2 -193.5,-630.4 -166.9,-169.9 -400.6,-35.6 -593.4,0 -77.9,431.6 478.4,651.1 622.3,1001.2l0.8 0.8zm294.4 74.2l0 -37.1c11.9,35.6 272.2,482.1 367.2,516.9 273.6,103.1 423.5,-304.8 413.8,-508 96.4,287 8.9,1026.4 -381.9,994.6 -522.9,-41.6 -385,-649.8 -399.1,-966.4z"/>
   <path class="fil1 str1" d="M106056.8 121912.4c70.8,173.2 61.8,361.2 52.8,547.3 -11.5,241.2 -22.9,479.5 174.5,617.1 190.4,133.2 344.8,161.7 465.7,117.8 97.9,-35.5 180.4,-120.2 246.3,-236.1 26.5,-46.5 50.2,-97.8 71.2,-152.8 -60.4,127 -148.6,226.4 -268.6,266.7 -46.2,15.5 -95.7,21.9 -148.4,17.7 -523.4,-41.6 -506.6,-509.6 -493.4,-874.1 2.5,-69 4.9,-133.9 2.5,-187.6 -9.1,-98.1 -0.4,-231.6 -0.4,-333.5 -22,-6.1 -45.1,-14.2 -69.3,-24.4 -258.6,-108.1 -232.7,-279.3 -206.6,-451.4 11.8,-78.4 23.8,-157.5 -19.3,-201.3 -86.2,-87.8 -224.1,-47.9 -354.1,-10.2l-75.6 21.3c2,181.4 153.8,330.2 304.4,478 121.5,119.1 242.8,238.1 309,384.6l9.3 20.9zm-146.4 537.9c7.5,-156.9 15.1,-315.2 -30.7,-443.8l-8.1 -19.5c-48.3,-117.7 -160.5,-227.7 -272.9,-337.9 -205.2,-201.3 -412,-404 -355.2,-718.8l12.2 -67.9 67.8 -12.5c40.1,-7.4 85.1,-20.5 130.8,-33.7 185.6,-53.8 382.3,-110.6 551.7,61.8 113.4,115.3 93.9,243.5 74.7,370.7 -14.1,92.9 -27.9,185.3 78.3,234l0 -113 43 129.5c27.1,8.9 49.1,12.7 66.5,12.2 15.6,-0.4 26.2,-5.7 32.4,-13.7 12,-15.7 19.1,-41.7 22.1,-72.5 6.5,-65.9 -5.7,-145.9 -25.5,-213.8 -8,-27.6 -19.5,-57.2 -30.3,-85.3 -52.6,-136.4 -97.8,-253.6 41.5,-397.9 75.5,-77.8 172.1,-103.5 270.9,-99.5 116.2,4.7 235.8,52.8 319.8,101.6 24.9,14.4 49.1,31.6 72.4,50.5 24.4,20 47.2,41.5 68.2,63.8 307,330.3 414.2,1087.2 307.3,1684.3 -35.6,198.8 -94.7,381.9 -177.8,528 -88.8,156.2 -205.9,272.4 -351.7,325.3 -180.7,65.6 -397.1,32.9 -647.5,-141.7 -288.1,-200.3 -274.1,-493.5 -259.9,-790.2zm1264.1 -118.9c55.5,-511.4 -39.9,-1091.6 -279.9,-1350 -16.2,-17.3 -32.7,-33 -49,-46.3 -14.8,-12 -30.3,-23 -46.2,-32.2 -62.3,-36.2 -148.7,-71.8 -227.6,-75 -46.2,-1.9 -89.5,8.1 -119.3,38.5 -51.3,53.1 -27.2,115.5 0.7,187.9 12,31.3 24.8,64.2 35.7,101.7 25.9,88.9 41.7,196.2 32.5,288.8 -6.5,65.8 -25.7,126.8 -61.9,173.9 -42.1,54.8 -102.5,89.4 -185.6,91.9l-1.7 0 81.3 245.1c6.2,18.8 106.2,190 203.3,326.8 48.6,68.3 90.7,122.8 103.8,127.6 21.2,8.1 39.7,11.1 56,10.4 34.9,-1.6 67.7,-22.1 96.3,-52.8 36,-38.6 65.3,-92.2 86.8,-149.3 29.4,-78 43.4,-159.3 40.7,-217.8l-34.2 -714.6 228.3 678.3c31.5,93.6 45.8,227.1 40,367.1zm-780.3 66.7l-41.4 -60.3c-4.2,255.6 24.3,530.1 313.1,553.1 26,2.1 49.3,-0.7 69.6,-7.5 65.3,-21.9 117.3,-87.2 156.2,-172.6 27.3,-60 47.7,-129.1 61.6,-201.2 -61.3,63.5 -137.3,105.8 -227.3,110.1 -42.8,2 -87.9,-4.7 -134.2,-22.1 -56.4,-20.6 -128.6,-102.5 -197.6,-199.5z"/>
   <path class="fil1 str1" d="M110111.3 118797l-9264.3 24308.5c0,0 -5945.3,1516 -9264.3,8244.5l-13050.6 26710.1 23845 -60877c0,0 1104.3,4930 7734.2,1614.7l0 -0.8z"/>
   <path class="fil1 str1" d="M110190.6 118869.5l-9268.4 24319.3 -49.4 13.2c-17,4.5 -5901.9,1505.1 -9200.4,8191.7l-13050.5 26710.2 -182.8 -80.1 23960.3 -61171.3 74.6 307.2c3.3,13.6 1072.7,4789.5 7557.5,1566.2l179.8 -471.8 0 605.1 -20.7 10.3zm-9418.9 24153l9156.1 -24024.5c-5585.9,2686.4 -7206.2,-512.5 -7562.2,-1511.8l-22843.5 58320.1 11970.8 -24500.1c3168,-6422 8703.4,-8122 9278.8,-8283.7z"/>
   <path class="fil1 str1" d="M109886.6 118573l-9264.3 24307.8c0,0 -5945.3,1516 -9264.3,8244.5l-12834 26942.2 23627.6 -61109.1c0,0 1105.1,4929.2 7735,1614.7l0 -0.1z"/>
   <path class="fil1 str1" d="M109966.2 118644.7l-9268.7 24319.4 -49.4 13.2c-17,4.5 -5901.4,1504.9 -9200,8190.9l-12833.9 26942.3 -183.2 -78.9 23742.4 -61405.9 75.1 309.3c3.3,13.6 1073.5,4788.8 7558.6,1566.1l179.5 -471 0 604.4 -20.4 10.2zm-9419.2 24153.1l9156.4 -24024.7c-5583.3,2684.7 -7205.4,-509.2 -7562.7,-1510.1l-22572.1 58379.2 11699.9 -24561c3167.7,-6421.7 8703.1,-8121.7 9278.5,-8283.4z"/>
   <path class="fil1 str1" d="M108101.4 119508.3l-8839.3 22352.7c0,0 -5354.2,2039.6 -6968.9,4844.6l10879 -27962c0,0 1105.1,2039.6 4929.2,764.7l0 0z"/>
   <path class="fil1 str1" d="M108194.4 119545l-8855.4 22393.6 -41.4 15.8c-15.2,5.8 -5321.6,2027.4 -6918.1,4800.8l-655.7 1139.3c3809.6,-9794.4 7621.9,-19587.8 11431.4,-29382.2l103.7 182.1c3.1,5.5 1065.6,1968.1 4811.2,719.4l202.9 -67.6 -78.6 198.8zm-9009.2 22238.7l8745.7 -22116c-3084,958.9 -4374.2,-254.5 -4733.9,-712.9l-10508 27008.5c1901.2,-2336.7 6040.6,-4001.3 6496.2,-4179.6z"/>
   <path class="fil1 str1" d="M111076.2 116375.4c0,2644.1 -2143.4,4786.8 -4786.8,4786.8 -2643.3,0 -4787.5,-2142.7 -4787.5,-4786.8 0,-2644 2142.7,-4787.5 4786.8,-4787.5 2644.1,0 4786.8,2142.7 4786.8,4787.6l0.7 -0.1z"/>
   <path class="fil1 str1" d="M111176.2 116375.4c0,1349.6 -547.1,2571.3 -1431.3,3455.5 -884.2,884.3 -2106.2,1431.3 -3455.5,1431.3 -1349.3,0 -2571.5,-547.1 -3456,-1431.5 -884.3,-884.6 -1431.5,-2106.2 -1431.5,-3455.3 0,-1349.6 547,-2571.6 1431.3,-3456.1 884.2,-884.3 2105.9,-1431.4 3455.5,-1431.4 1349.3,0 2571.1,547.1 3455.5,1431.6 859.2,858.8 1399.8,2036.9 1429.9,3341.1l2.1 -0.3 0 115.1zm-1572.7 3314.1c831.1,-831.1 1351.6,-1973.2 1372,-3236.9l0 -77.1c0,-1294.8 -524.5,-2466.8 -1372.5,-3314.8 -847.7,-848.3 -2019.6,-1372.8 -3314.3,-1372.8 -1294.3,0 -2466.1,524.7 -3314.1,1372.8 -848.1,848.2 -1372.7,2020.2 -1372.7,3314.7 0,1294.5 524.6,2466.2 1372.5,3313.9 848.7,848.2 2020.8,1372.9 3315,1372.9 1294.2,0 2466.1,-524.6 3314.1,-1372.7z"/>
   <path class="fil1 str1" d="M111076.2 116188.5c0,2643.4 -2143.4,4786.8 -4786.8,4786.8 -2643.3,0 -4787.5,-2143.4 -4787.5,-4786.8 0,-2643.3 2142.7,-4787.5 4786.8,-4787.5 2644.1,0 4786.8,2143.5 4786.8,4787.5l0.7 0z"/>
   <path class="fil1 str1" d="M111176.2 116188.5c0,1349.1 -547.1,2571.1 -1431.4,3455.4 -884.3,884.2 -2106.1,1431.4 -3455.4,1431.4 -1349,0 -2570.9,-547.2 -3455.4,-1431.5 -884.9,-884.3 -1432.1,-2106.1 -1432.1,-3455.3 0,-1349.3 547.1,-2571.5 1431.5,-3456 884.6,-884.3 2106.2,-1431.5 3455.3,-1431.5 1349.6,0 2571.3,547.1 3455.5,1431.4 862.4,862.6 1403.9,2046.2 1430.2,3356.1l1.8 0 0 100zm-1572.8 3314c831.2,-831.2 1351.7,-1973.3 1372.1,-3236.8l0 -77.2c0,-1294.5 -524.6,-2466.5 -1372.7,-3314.7 -848,-848.1 -2019.8,-1372.8 -3314.1,-1372.8 -1294.5,0 -2466.2,524.6 -3313.9,1372.5 -848.2,848.7 -1372.9,2020.8 -1372.9,3315 0,1294 524.9,2465.8 1373.1,3313.9 848.1,848.2 2020.2,1372.9 3314.4,1372.9 1294,0 2465.9,-524.8 3314,-1372.8z"/>
   <path class="fil1 str1" d="M106302 118465.5c-1308.3,0 -2372.6,-1065 -2372.6,-2373.4 0,-1308.3 1064.3,-2373.4 2372.6,-2373.4 1308.4,0 2373.4,1065.1 2373.4,2373.4 0,1308.4 -1065,2373.4 -2373.4,2373.4l0 0z"/>
   <path class="fil1 str1" d="M106302 118565.5c-681.4,0 -1299.6,-277.6 -1747.5,-725.7 -447.7,-447.8 -725.1,-1066.2 -725.1,-1747.7 0,-681.5 277.4,-1299.9 725.1,-1747.7 447.9,-448.1 1066.1,-725.7 1747.5,-725.7 681.8,0 1300.2,277.6 1748,725.4 447.8,447.8 725.4,1066.2 725.4,1748 0,681.8 -277.5,1300.2 -725.3,1748 -447.8,447.8 -1066.3,725.4 -1748.1,725.4zm-1606.1 -866.3c411.2,411.4 979.4,666.3 1606.1,666.3 626.6,0 1195.1,-255.2 1606.7,-666.8 411.6,-411.6 666.7,-980 666.7,-1606.6 0,-626.5 -255.2,-1195 -666.8,-1606.6 -411.6,-411.6 -980.1,-666.8 -1606.6,-666.8 -626.7,0 -1194.9,254.9 -1606.1,666.3 -411.5,411.6 -666.5,980.3 -666.5,1607.1 0,626.8 255,1195.5 666.5,1607.1z"/>
   <path class="fil1 str1" d="M106288.7 118561.2c-1308.4,0 -2373.4,-1065.1 -2373.4,-2373.4 0,-1308.3 1065,-2373.4 2373.4,-2373.4 1308.3,0 2373.4,1065.1 2373.4,2373.4 0,1308.3 -1064.4,2373.4 -2373.4,2373.4l0 0z"/>
   <path class="fil1 str1" d="M106288.7 118661.2c-681.8,0 -1300.2,-277.6 -1748,-725.4 -447.8,-447.8 -725.4,-1066.2 -725.4,-1748 0,-681.8 277.6,-1300.2 725.4,-1748 447.8,-447.8 1066.2,-725.4 1748,-725.4 681.8,0 1300.2,277.6 1748,725.4 447.8,447.8 725.4,1066.2 725.4,1748 0,681.7 -277.5,1300.4 -725.3,1748.2 -447.7,447.7 -1066.1,725.2 -1748.1,725.2zm-1606.6 -866.8c411.6,411.6 980.1,666.8 1606.6,666.8 626.7,0 1195.1,-255 1606.7,-666.6 411.6,-411.6 666.7,-980.2 666.7,-1606.8 0,-626.5 -255.2,-1195 -666.8,-1606.6 -411.6,-411.6 -980.1,-666.8 -1606.6,-666.8 -626.5,0 -1195,255.2 -1606.6,666.8 -411.6,411.6 -666.8,980.1 -666.8,1606.6 0,626.5 255.2,1195 666.8,1606.6z"/>
   <path class="fil1 str1" d="M106288.7 114246.8c-1070.3,0 -1941.7,871.5 -1941.7,1941.7 0,1070.3 871.4,1941.8 1941.7,1941.8 1070.2,0 1941.7,-871.5 1941.7,-1941.8 0,-1070.2 -871.5,-1941.7 -1941.7,-1941.7l0 0z"/>
   <path class="fil1 str1" d="M106288.7 114346.8c-507.5,0 -968.1,206.8 -1301.5,540.2 -333.5,333.3 -540.2,793.9 -540.2,1301.5 0,507.7 206.7,968.3 540,1301.8 333.6,333.2 794.2,540 1301.7,540 507.6,0 968.2,-206.7 1301.7,-540 333.3,-333.5 540,-794.2 540,-1301.8 0,-507.6 -206.7,-968.2 -540,-1301.7 -333.5,-333.3 -794.1,-540 -1301.7,-540zm-1442.9 399c369.6,-369.8 880.3,-599 1442.9,-599 562.4,0 1072.8,229.2 1442.5,598.8 370,370.1 599.2,880.5 599.2,1442.9 0,562.4 -229.2,1072.9 -598.8,1442.6 -370.1,370 -880.5,599.2 -1442.9,599.2 -562.6,0 -1073.3,-229.2 -1442.9,-598.8 -369.6,-370.1 -598.8,-880.6 -598.8,-1443 0,-562.4 229.2,-1072.8 598.8,-1442.7z"/>
   <rect class="fil1 str1" transform="matrix(0.198043 -0.198389 0.198389 0.198043 104619 114863)" width="1733" height="15105.1"/>
   <path class="fil1 str1" d="M107615.1 117713.3l202.3 -202.7 -2855.6 -2850.6 -202.3 202.7 2855.6 2850.6zm414 -132.5l-413.8 414.6c-1045,-1045 -2091.3,-2088.9 -3137.8,-3132.4l484 -485c1046.5,1043.5 2092.8,2087.4 3137.8,3132.4l-70.2 70.4z"/>
   <path class="fil1 str1" d="M111313.6 159065.7c0,844.8 120.1,1473 579.2,1690.3 72.7,96.4 72.7,290 -23.7,362.7 -265.5,0 -700.9,96.4 -1159.3,192.8 -1497.4,362 -3308.6,652.7 -4684.4,652.7 -2897.7,0 -5626.4,-773.6 -7436.8,-2656.7 -1424.8,-1473 -2125.7,-3500.7 -2125.7,-5529.2 0,-2028.5 700.9,-4104.5 2221.4,-5673.9 1714.7,-1811.9 4346.9,-2850.2 7703,-2850.2 1134.8,0 2366,193.6 3211.5,362.7 554.8,120.1 1254.9,217.3 1544.9,217.3 24.5,723.8 192.9,1955.8 313.8,3839.6 -120.9,241.1 -652,265.6 -772.1,48.3 -531.8,-2342.3 -2245.8,-3501.5 -4636.3,-3501.5 -4250.5,0 -6302,3066.8 -6302,7172 0,1932.1 434.7,4008 1738.5,5554.4 1303.9,1545 3235.2,2052.2 4660.7,2052.2 1159.2,0 1859.4,-193.5 2149.4,-555.5 145.4,-217.3 217.3,-651.9 217.3,-1521.1l0 -869.3c0,-1714 -23.8,-1859.4 -1642.1,-2124.2l-869.2 -145.3c-168.4,-169.2 -168.4,-579.3 24.4,-700.2 942,48.2 2100.5,72.7 3766.3,72.7 1087.3,0 1908.3,-24.5 2946.6,-72.7 241.1,120.2 265.6,531 48.3,700.2l-434.7 72.7c-893.7,144.6 -1038.3,338.2 -1038.3,1811.1l0 1400.3 -0.7 -2.2z"/>
   <path class="fil1 str1" d="M111414.3 159173.9c4.8,368.2 35.7,689.3 112.4,943.8 79.3,262.6 207.8,453 408.7,548.1l22.5 10.7 14.6 19.3c51.9,68.9 77.1,170.6 71,264.4 -6,93.5 -42.8,184.4 -114.2,238.2l-27 20.3 -33.2 0c-236.4,0 -622.6,81.5 -1037.3,169.1l-101.7 21.4c-792.4,191.4 -1672,363 -2528.3,482.3 -770.7,107.3 -1523.1,172.7 -2176.4,172.7 -1523.2,0 -3001.5,-212.7 -4326.8,-686.1 -1216.7,-434.6 -2305.2,-1089.5 -3181.9,-2001.5 -704.5,-728.4 -1234.6,-1591 -1592.5,-2522.1 -375.2,-975.9 -561.3,-2026.4 -561.3,-3076.2 0,-1059.3 189.2,-2132 584.1,-3140.5 369.8,-944.9 920.8,-1833.9 1665.8,-2602.9 879.5,-928.8 1996.5,-1656.7 3324.7,-2148.1 1291,-477.7 2782.3,-732.6 4449.8,-732.6 497.2,0 1014,37.2 1509.4,93 640.6,72.4 1243.1,176.1 1721.6,271.7l1.6 0.3c274.7,59.4 583.1,113 857.9,151.7 277.9,39 523.2,63.3 665.9,63.3l96.3 0 3.3 96.9c11.2,333.7 53.8,779.7 108.1,1349.7 62.7,659.1 141.4,1483.4 205.7,2486.7l1.6 26.5 -12.1 24.3c-36.3,72.3 -97.3,129.4 -171.7,170.4 -90.1,49.8 -202.7,77.3 -313.1,81.4 -111.1,4.1 -222.9,-15.6 -310.9,-59.7 -65.4,-32.7 -118.9,-79.5 -152.6,-140.3l-7.3 -13 -2.9 -13.1c-255.5,-1125.5 -788.9,-1971.2 -1541.3,-2539.5 -781.6,-590.3 -1802.7,-883.9 -2997.7,-883.9 -2007.8,0 -3515.6,692.8 -4539.7,1858.3 -1114.9,1268.9 -1662.3,3101.1 -1662.3,5213.7 0,1028.9 124.1,2098.1 438.8,3103.7 270.4,863.7 681.7,1681.4 1275.9,2386.2 573.5,679.7 1271.3,1155 1992.6,1472.6 890.2,391.9 1816.9,544.1 2591.9,544.1 565.6,0 1018.5,-46.2 1364.2,-135.5 338.4,-87.4 571.6,-215 705,-379.4 63,-96.3 111.2,-245.2 144.6,-471.2 35.2,-239 52.9,-560.2 52.9,-990.5l0 -869.3c0,-835.8 -5.5,-1288.9 -194.7,-1546.6 -187,-254.9 -581.8,-351.4 -1363.4,-479.2l-901.3 -150.5 -22.6 -22.9c-22.9,-23 -43.2,-48.9 -60.6,-76.7 -65,-104.6 -96.3,-244.1 -91.2,-375.9 5.3,-136.9 49.8,-270.5 135.4,-355.7 18,-17.8 37.7,-33.9 58.8,-47l26.2 -16.4 31.6 1.6c472.1,24.1 996.6,42.4 1608.6,54.4 602,11.9 1307.4,17.9 2152.6,17.9 552.7,0 1028.8,-6 1489.4,-17.9 467.5,-12 932.3,-30.3 1452.9,-54.4l26 -1.2 22.8 11.3c57.1,28.4 105,69.6 143.4,118.8 62.6,80.3 98.7,182.6 107.2,286.9 8.2,103.2 -10.1,210.5 -55.9,302.6 -30.5,61.3 -73.6,116.3 -129.6,159.9l-20.3 15.8 -459.3 76.8c-416.8,67.3 -656.9,143 -784.8,359.8 -136.4,231.3 -169.9,634.6 -169.9,1352.9l0 1506.3zm-79 1000.8c-90.5,-300.4 -121.7,-677.9 -121.7,-1109l0 -642.6 0.7 2.2 0 -757.7c0,-754.5 39,-1184.8 198.1,-1454.5 167.6,-284 446.9,-377.7 923.8,-454.9l407.6 -68.3c22.5,-21.5 41,-47.6 55.4,-76.5 29.5,-59.2 41.2,-129.6 35.7,-198 -5.4,-67.3 -27.4,-131.7 -65,-179.9 -15.4,-19.7 -33.9,-37.2 -55.3,-51 -506,23.4 -962.9,41.2 -1428.2,53.1 -481.2,12.4 -959.5,18.7 -1494,18.7 -820.6,0 -1527.7,-6.3 -2156.6,-18.7 -603.1,-11.8 -1118,-29.5 -1578.4,-52.6l-2.2 2.2c-48,47.8 -73.4,131.5 -76.8,221.3 -3.6,95.2 17.2,193.3 61.2,263.5l13.6 19.3 834.1 139.4c836.2,136.8 1262.8,245.6 1492,558 227.2,309.4 233.7,786.5 233.7,1664.6l0 869.3c0,438.9 -18.5,769.7 -55.3,1019.5 -38.4,259.7 -98.3,436 -179.2,557.1l-5.1 7c-160,199.8 -429.1,351.3 -812.9,450.5 -363.5,93.9 -833.1,142.5 -1414.2,142.5 -798.6,0 -1753.9,-157 -2672.3,-561.3 -746.9,-328.9 -1469.8,-821.6 -2064.6,-1526.4 -612.6,-726.6 -1036.2,-1567.9 -1314.1,-2455.8 -321.4,-1027 -448.2,-2116.5 -448.2,-3163.1 0,-2159.8 563.8,-4037.8 1712.3,-5344.9 1062.1,-1208.7 2620.2,-1927.1 4689.7,-1927.1 1238.6,0 2300.7,307.2 3118.1,924.5 786.2,593.8 1343.8,1472.8 1611.8,2639.2 13.6,18.7 34.8,34.8 60.9,47.9 57.7,28.9 135.2,41.7 214.9,38.7 80.2,-3 161,-22.3 224.1,-57.2 32.2,-17.7 58.9,-39.3 77,-64.1 -64.4,-995.9 -141.3,-1803.3 -202.9,-2450 -49.7,-521.9 -89.6,-940.5 -105.1,-1268 -151.5,-7.5 -363.7,-30.3 -597.5,-63.1 -283,-39.8 -596.9,-94.2 -872.7,-153.9 -475.3,-95 -1072.1,-197.8 -1702.8,-269 -486.9,-54.9 -995.9,-91.4 -1487.6,-91.4 -1643.7,0 -3111.9,250.6 -4381,720.2 -1300.2,481 -2392,1192 -3249.7,2098.4l-0.8 1.1c-725.4,748.8 -1262.2,1615.1 -1622.8,2536.5 -385.4,984.3 -570.1,2032.3 -570.1,3067.9 0,1027.3 181.5,2053.7 547.3,3005.2 348.2,906.1 864.3,1745.6 1550.3,2454.9 853.8,888.1 1916.1,1526.7 3105.3,1951.5 1302.5,465.3 2757.9,674.3 4259.6,674.3 646.4,0 1389.1,-64.5 2149,-170.3 851.4,-118.6 1725.5,-289.2 2512,-479.3l104.8 -22.2c402.5,-84.9 778.9,-164.4 1034.4,-172.9 10.8,-18.5 17,-44.2 18.7,-71.9 2.7,-41.3 -4.6,-83.7 -20.7,-114.6 -242.4,-125.2 -396,-352.6 -488.3,-658.3z"/>
  </g>
 </g>
</svg>