<?xml version="1.0" encoding="UTF-8"?>
<svg id="Camada_1" data-name="Camada 1" xmlns="http://www.w3.org/2000/svg" viewBox="0 0 580.17 547.43">
  <defs>
    <style>
      .cls-1 {
        fill: #1e2a50;
      }

      .cls-2 {
        fill: #009ee1;
        stroke: #1e2a50;
        stroke-linecap: round;
        stroke-linejoin: round;
        stroke-width: 22.43px;
      }
    </style>
  </defs>
  <path class="cls-2" d="M568.96,324.97l-.03-232.96c-7.47-48.23-47.06-80.84-95.97-80.62l-50.04.22H116.82C63.4,7.14,18.83,40.67,11.21,93.31l.02,230.9c6.66,43.43,39.74,75.6,83.89,79.86l24.65,1.08-.82,131.06,31.41-35.37,76.56-80.5c4.41-4.64,10.34-14.71,17.53-14.77l79.31-.58,76.47-.35,59.29-.54,16.04.59c47.33-.68,86.34-32.37,93.4-79.73Z"/>
  <path class="cls-1" d="M376.88,282.07l-87.19,95.84-84.71-93.17c3.01-13.43,8.54-24.04,15.21-38.54l69.58,74.16,70.9-75.68,16.21,37.38Z"/>
  <path class="cls-1" d="M343.97,194.53c-5.65-11.99-19.06-15.56-26.61-25.15-17.75-22.53-19.41-60.56-42.44-78.72-9.43-7.44-11.63-19.48-8.84-29.49,3.26-11.7,14.02-19.98,26.97-18.13,17.81,2.54,27.01,22.37,20.37,40.93l105.5,250.6-3.12,3.91c-5.28-4.24-9.42-11.56-12.93-19.01l-58.9-124.94ZM288.54,80.11c-6.35-1.36-7.54-11.57-3.83-16.29,4.32-5.5,8.77-4.35,17.61-5.5-6.49-9.24-22.06-6.82-26.16,3.72-3.3,8.47.57,21.27,10.44,26.29,6.03,3.07,17.6-1.93,18.55-14.38.21-2.82-9.46-5.92-10.64-3.93l-5.97,10.09Z"/>
  <path class="cls-1" d="M182.55,260.18l-48.9-55.34,50.98,2.25c5.59,1.55,16.52,13.56,14.56,19.13l-7.29,20.72c1.35-.02,3.53.39,4.95,1.36l38.6-87.27,28.34-68.53,10.87,9.31c4.53,3.88,13.41,15.67,10.49,21.84l-21.26,44.93-24.21,20.83-65.26,135.14c-2.62,5.43-4.67,11.58-12.43,10.78l33.82-80.2c-4.07-3.75-8.75-1.32-8.38.01s-3.74,6.32-4.87,5.03Z"/>
  <path class="cls-1" d="M395.73,261.59l-12.73-31.84c-3.54-8.86,3.78-16.36,8.82-20.77,10.94-9.57,27.81,2.71,55.91-5.72l-52.01,58.33Z"/>
  <path class="cls-1" d="M282.1,203.33c-16.86,14.71-11.25,53.94,2.35,60.7,5.9,2.93,12.5-.51,16.69-7.77,2.54-4.42,2.82-13.18-4.02-20.08,10.16-5.65,20.1-4.07,29.22-.97-12.33,7.26-5.54,19.13-8.57,32.5-.59,2.61-34.28,11.91-49.08.32-21.11-16.54-17.52-57.21-3.03-68.32,19.5-14.94,28.83-6.55,48.99-3.12.27,6.94,1.54,13.14-.51,21.59l-13.35-14.06c-2.63-2.77-14.67-2-18.69-.8Z"/>
</svg>