<?xml version="1.0" encoding="UTF-8"?>
<svg id="Camada_1" xmlns="http://www.w3.org/2000/svg" version="1.1" viewBox="0 0 403.15 507.22">
  <!-- Generator: Adobe Illustrator 30.6.0, SVG Export Plug-In . SVG Version: 2.1.4 Build 109)  -->
  <defs>
    <style>
      .st0 {
        fill: #00B0FF;
      }
    </style>
  </defs>
  <path class="st0" d="M205.91,381.55l-62.57-.26-25.57.17c-31.08.21-59.51-18.73-65.83-51.05-7.32-37.42,7.64-75.21,36.57-100.06,2.69-2.31,4.02-5.11,4.23-7.87.26-3.39-1.03-6.62-3.95-9.14l-13.43-11.58c-3.94-3.39-7.84-9.05-5.31-14.84,8.94-20.46,18.76-40.29,24.72-62.06,8.77-32.04,12.25-73.87-7.49-101.33C75.69,7.42,56.12-2.53,36.76,1.69c-12.78,2.79-19.23,15.46-16.14,27.51,2.07,8.07,9.01,14.71,17.45,16.69,7.38,1.74,15.58.23,22.37-5.11,7.55-5.93,19.79,13.52,21.49,35.51,2.47,32.07-15.02,62.18-34.3,87.59C20.03,200.29,2.08,239.31.13,285.05c-3.19,75.24,50.77,125.36,118.35,148.92,2.91,1.01,4.83,2.84,5.28,5.39.51,2.88-.75,5.68-3.6,7.59l-20.75,13.91c-15.34,10.28-25.3,27.36-25.46,45.92l256.57.44-3.11-13.22c-3.78-16.04-15.37-28.35-29.4-37.07l-16.77-11.55c-2.21-1.52-2.19-4.22-1.96-6.04.32-2.58,2.56-4.37,5.15-5.26,32.73-11.27,63.45-29.58,86.49-55.7,41.02-46.49,39.23-109.68,15.01-164.29-8.29-18.7-18.98-35.41-31.37-51.76-20.57-27.13-37.18-56.49-32.67-90.91,2.29-17.52,12.03-37.67,24.04-28.92,6.24,4.55,15.13,4.77,21.27,2.78,8.43-2.73,14.55-9.48,15.59-17.53.95-7.35-.21-13.59-4.1-18.35-4.69-5.72-11.07-8.69-18.57-8.83-22.75-.4-42.07,13.89-51.04,34.96-5.43,12.75-7.58,25.92-7.67,39.89-.26,39.54,14.4,74.63,31.52,110.11,1.22,2.54,1.07,8.58-.38,10.79-6.91,10.51-22.42,15.79-22.3,25.44.04,3.69,2.15,6.48,5.21,9.17,27.98,24.54,41.84,59.96,36.51,96.39-3.8,25.99-22.04,45.44-47.7,51.67-11.3,2.74-22.47,2.45-34.2,2.47l-64.16.08Z"/>
  <path class="st0" d="M123.25,62.96l157.03.03c9.06,0,6.12-11.71,11.03-22.31l-178.54.07c4.28,10.6,2.11,22.21,10.47,22.22Z"/>
  <path class="st0" d="M151.86,14.82c-.3-5.36,1.13-13.85-8.18-14.76-4.3-.42-9.32,2.64-9.54,7.51l-.84,18.92,19.22.2-.66-11.87Z"/>
  <polygon class="st0" points="132.66 76.06 134.35 365.12 152.02 367.25 152.82 76.11 132.66 76.06"/>
  <path class="st0" d="M182.77.06c-13.16-1.14-8.84,15.44-10.64,28.51,7.46-1.13,13.46-1.79,19.88-.02-2.06-13.13,2.32-27.49-9.24-28.49Z"/>
  <path class="st0" d="M178.89,366.4l6.64-.02c1.78,0,3.18.22,4.29-.62,1.77-1.34,1.3-2.73,1.3-5.05l-.07-129.02.12-78.17c0-3.85-.01-7.26-.02-11.21l-.16-49.32-.19-17.24-19.78.35c2.95,5.17,1.81,9.58,1.79,14.4l-.1,23.98c-.05,11.99.21,22.93.2,35.18l-.12,210.21c0,2.47-.66,3.67.71,5.26s2.66,1.28,5.4,1.27Z"/>
  <path class="st0" d="M211.81,10.4l-.12,15.9,20.21,2c-4.28-12,2.48-27.19-9.99-28.24-5.93-.5-10.05,3.91-10.1,10.34Z"/>
  <path class="st0" d="M212.58,365.09c1.17,1.5,14.02,3.19,17.47-.3l.21-220.69-.08-23.3-.24-12.73c-.13-6.83.15-13.17.46-19.96.18-3.92-1.56-7.67,1.29-12.33l-20.47.09.85,9.87-.29,28.73c-.12,12.27.07,23.45.07,35.96v210.26c0,2.06-.24,3.17.72,4.39Z"/>
  <path class="st0" d="M250.88,10.4l-.12,15.9,20.21,2c-4.28-12,2.48-27.19-9.99-28.24-5.93-.5-10.05,3.91-10.1,10.34Z"/>
  <path class="st0" d="M251.65,365.09c1.17,1.5,14.02,3.19,17.47-.3l.21-220.69-.08-23.3-.24-12.73c-.13-6.83.15-13.17.46-19.96.18-3.92-1.56-7.67,1.29-12.33l-20.47.09.85,9.87-.29,28.73c-.12,12.27.07,23.45.07,35.96v210.26c0,2.06-.24,3.17.72,4.39Z"/>
</svg>