<?xml version="1.0" encoding="UTF-8"?>
<!DOCTYPE svg PUBLIC "-//W3C//DTD SVG 1.1//EN" "http://www.w3.org/Graphics/SVG/1.1/DTD/svg11.dtd">
<!-- Creator: CorelDRAW (Versão OEM) -->
<svg xmlns="http://www.w3.org/2000/svg" xml:space="preserve" version="1.1" style="shape-rendering:geometricPrecision; text-rendering:geometricPrecision; image-rendering:optimizeQuality; fill-rule:evenodd; clip-rule:evenodd" viewBox="82823.89 86940.09 89159.62 119449.52" xmlns:xlink="http://www.w3.org/1999/xlink" xmlns:xodm="http://www.corel.com/coreldraw/odm/2003">
 <defs>
  <style type="text/css">
   <![CDATA[
    .str0 {stroke:#1E2A50;stroke-width:1500;stroke-linejoin:round;stroke-miterlimit:22.9256}
    .fil0 {fill:#D2D3D5}
   ]]>
  </style>
 </defs>
 <g id="Camada_x0020_1">
  <metadata id="CorelCorpID_0Corel-Layer"/>
  <g id="gemini-svg_x0020__x0028_12_x0029_.svg">
   <g>
    <polygon class="fil0 str0" points="93598.4,91359.8 92786.7,91359.8 92786.7,91494.9 92516.6,91494.9 92516.6,91629.9 91975.5,91629.9 91975.5,91765.4 91704.9,91765.4 91704.9,91900.5 91434.8,91900.5 91434.8,92036 91299.3,92036 91299.3,92171 91028.8,92171 91028.8,92306.1 90893.7,92306.1 90893.7,92441.2 90623.1,92441.2 90623.1,92576.7 90488.1,92576.7 90488.1,92711.7 90353,92711.7 90353,92847.2 90217.5,92847.2 90217.5,93117.3 90082.5,93117.3 90082.5,93252.8 89947,93252.8 89947,93387.9 89811.9,93387.9 89811.9,93522.9 89676.9,93522.9 89676.9,93793.5 89541.4,93793.5 89541.4,94064 89406.3,94064 89406.3,94469.7 89271.2,94469.7 89271.2,95010.8 89135.7,95010.8 89135.7,97174.3 89271.2,97174.3 89271.2,97715 89406.3,97715 89406.3,98120.6 89541.4,98120.6 89541.4,98256.1 89676.9,98256.1 89676.9,98661.7 89811.9,98661.7 89811.9,98796.8 89947,98796.8 89947,99067.3 90082.5,99067.3 90082.5,99202.4 90217.5,99202.4 90217.5,99473 90353,99473 90353,99608 90488.1,99608 90488.1,99743.5 90623.1,99743.5 90623.1,99878.6 90758.6,99878.6 90758.6,100013.6 90893.7,100013.6 90893.7,100149.1 91028.8,100149.1 91028.8,100284.2 91164.2,100284.2 91164.2,100419.7 91299.3,100419.7 91299.3,100554.7 91569.9,100554.7 91569.9,100689.8 91704.9,100689.8 91704.9,100825.3 91975.5,100825.3 91975.5,100960.3 92246,100960.3 92246,101095.4 92516.6,101095.4 92516.6,101230.9 93192.3,101230.9 93192.3,101366 95220.8,101366 95220.8,101230.9 95761.9,101230.9 95761.9,101095.4 96032,101095.4 96032,100960.3 96437.7,100960.3 96437.7,100825.3 96708.2,100825.3 96708.2,100689.8 96843.7,100689.8 96843.7,100554.7 97113.8,100554.7 97113.8,100419.7 97249.3,100419.7 97249.3,100284.2 97519.4,100284.2 97519.4,100149.1 97654.9,100149.1 97654.9,100013.6 97790,100013.6 97790,99878.6 98195.6,99878.6 98195.6,99743.5 98736.7,99743.5 98736.7,99878.6 99142.3,99878.6 99142.3,100013.6 99412.4,100013.6 99412.4,100149.1 99547.9,100149.1 99547.9,100419.7 99683.4,100419.7 99683.4,100554.7 99818.5,100554.7 99818.5,100689.8 99953.6,100689.8 99953.6,100825.3 100088.6,100825.3 100088.6,100960.3 100224.1,100960.3 100224.1,101230.9 100359.2,101230.9 100359.2,101366 100494.2,101366 100494.2,101636.5 100629.7,101636.5 100629.7,101771.6 100764.8,101771.6 100764.8,102042.1 100900.3,102042.1 100900.3,102177.2 101035.3,102177.2 101035.3,102447.7 101170.4,102447.7 101170.4,102718.3 101305.9,102718.3 101305.9,102988.4 101441,102988.4 101441,103259 101576,103259 101576,103394.5 101711.5,103394.5 101711.5,103800.1 101846.6,103800.1 101846.6,104205.7 101982.1,104205.7 101982.1,104476.2 102117.1,104476.2 102117.1,104881.9 102252.2,104881.9 102252.2,105558 102387.7,105558 102387.7,106098.7 102522.7,106098.7 102522.7,106639.8 102658.2,106639.8 102658.2,107180.5 102793.3,107180.5 102793.3,111507.6 102658.2,111507.6 102658.2,112318.8 102522.7,112318.8 102522.7,112859.9 102387.7,112859.9 102387.7,113536.1 102252.2,113536.1 102252.2,113941.7 102117.1,113941.7 102117.1,114482.4 101982.1,114482.4 101982.1,115023.5 101846.6,115023.5 101846.6,115293.6 101711.5,115293.6 101711.5,115834.7 101576,115834.7 101576,116375.4 101441,116375.4 101441,116510.9 101305.9,116510.9 101305.9,116916.5 101170.4,116916.5 101170.4,117457.2 101035.3,117457.2 101035.3,117727.7 100900.3,117727.7 100900.3,118133.4 100764.8,118133.4 100764.8,118268.9 100629.7,118268.9 100629.7,118674.5 100494.2,118674.5 100494.2,118944.6 100359.2,118944.6 100359.2,119080.1 100224.1,119080.1 100224.1,119350.6 100088.6,119350.6 100088.6,119756.2 99953.6,119756.2 99953.6,120161.9 99818.5,120161.9 99818.5,120432.4 99683.4,120432.4 99683.4,120567.5 99547.9,120567.5 99547.9,120838 99412.4,120838 99412.4,121108.1 99277.4,121108.1 99277.4,121378.7 99142.3,121378.7 99142.3,121514.2 99007.3,121514.2 99007.3,121784.3 98871.8,121784.3 98871.8,122054.9 98736.7,122054.9 98736.7,122325.4 98601.2,122325.4 98601.2,122460.5 98466.2,122460.5 98466.2,122731 98331.1,122731 98331.1,123001.6 98195.6,123001.6 98195.6,123136.7 98060.5,123136.7 98060.5,123407.2 97925.5,123407.2 97925.5,123677.8 97790,123677.8 97790,123812.8 97654.9,123812.8 97654.9,124083.4 97519.4,124083.4 97519.4,124218.4 97384.4,124218.4 97384.4,124489 97249.3,124489 97249.3,124624 97113.8,124624 97113.8,124759.5 96978.8,124759.5 96978.8,125029.7 96843.7,125029.7 96843.7,125300.2 96708.2,125300.2 96708.2,125435.3 96573.2,125435.3 96573.2,125705.8 96437.7,125705.8 96437.7,125840.9 96302.6,125840.9 96302.6,125976.4 96167.5,125976.4 96167.5,126246.9 96032,126246.9 96032,126382 95897,126382 95897,126652.5 95761.9,126652.5 95761.9,126787.6 95626.4,126787.6 95626.4,127058.2 95491.4,127058.2 95491.4,127193.2 95355.9,127193.2 95355.9,127328.3 95220.8,127328.3 95220.8,127598.8 95085.8,127598.8 95085.8,127734.3 94950.3,127734.3 94950.3,127869.4 94815.2,127869.4 94815.2,128139.9 94680.1,128139.9 94680.1,128275 94544.7,128275 94544.7,128410.1 94409.6,128410.1 94409.6,128680.6 94274.5,128680.6 94274.5,128816.1 94139,128816.1 94139,129086.2 94004,129086.2 94004,129221.7 93868.5,129221.7 93868.5,129491.8 93733.4,129491.8 93733.4,129627.3 93598.4,129627.3 93598.4,129762.4 93462.9,129762.4 93462.9,130033 93327.8,130033 93327.8,130168 93192.3,130168 93192.3,130438.6 93057.3,130438.6 93057.3,130573.6 92922.2,130573.6 92922.2,130844.2 92786.7,130844.2 92786.7,130979.7 92651.6,130979.7 92651.6,131249.8 92516.6,131249.8 92516.6,131520.3 92381.1,131520.3 92381.1,131655.8 92246,131655.8 92246,131926 92110.5,131926 92110.5,132061.5 91975.5,132061.5 91975.5,132331.6 91840.4,132331.6 91840.4,132467.1 91704.9,132467.1 91704.9,132737.2 91569.9,132737.2 91569.9,133007.7 91434.8,133007.7 91434.8,133143.2 91299.3,133143.2 91299.3,133413.4 91164.2,133413.4 91164.2,133683.9 91028.8,133683.9 91028.8,133954.5 90893.7,133954.5 90893.7,134089.5 90758.6,134089.5 90758.6,134495.1 90488.1,134495.1 90488.1,134900.8 90353,134900.8 90353,135036.2 90217.5,135036.2 90217.5,135306.8 90082.5,135306.8 90082.5,135576.9 89947,135576.9 89947,135847.5 89811.9,135847.5 89811.9,136118 89676.9,136118 89676.9,136388.1 89541.4,136388.1 89541.4,136658.7 89406.3,136658.7 89406.3,136929.3 89271.2,136929.3 89271.2,137199.8 89135.7,137199.8 89135.7,137469.9 89000.7,137469.9 89000.7,137740.5 88865.2,137740.5 88865.2,138146.1 88730.1,138146.1 88730.1,138281.6 88595.1,138281.6 88595.1,138551.7 88460,138551.7 88460,138822.3 88324.5,138822.3 88324.5,139092.8 88189.5,139092.8 88189.5,139633.5 88054,139633.5 88054,139904 87918.9,139904 87918.9,140039.1 87783.8,140039.1 87783.8,140445.2 87648.3,140445.2 87648.3,140715.3 87513.3,140715.3 87513.3,141256.4 87378.2,141256.4 87378.2,141391.4 87242.7,141391.4 87242.7,141797.1 87107.7,141797.1 87107.7,142338.2 86972.6,142338.2 86972.6,142743.8 86837.1,142743.8 86837.1,142878.8 86702.1,142878.8 86702.1,143419.9 86566.6,143419.9 86566.6,143690.5 86431.5,143690.5 86431.5,144231.2 86296.4,144231.2 86296.4,144636.8 86161,144636.8 86161,145042.4 86025.9,145042.4 86025.9,145583.5 85890.4,145583.5 85890.4,145989.1 85755.3,145989.1 85755.3,146665.3 85620.3,146665.3 85620.3,147206 85484.8,147206 85484.8,147747.1 85349.7,147747.1 85349.7,148558.3 85214.7,148558.3 85214.7,148963.9 85079.2,148963.9 85079.2,150045.7 84944.1,150045.7 84944.1,151127.5 84808.6,151127.5 84808.6,151803.6 84673.6,151803.6 84673.6,152885.4 84538.5,152885.4 84538.5,158294.3 84673.6,158294.3 84673.6,159376.1 84808.6,159376.1 84808.6,160457.9 84944.1,160457.9 84944.1,161269.1 85079.2,161269.1 85079.2,162215.4 85214.7,162215.4 85214.7,162621.5 85349.7,162621.5 85349.7,163432.7 85484.8,163432.7 85484.8,163973.4 85620.3,163973.4 85620.3,164379.4 85755.3,164379.4 85755.3,164785 85890.4,164785 85890.4,165325.7 86025.9,165325.7 86025.9,165596.2 86161,165596.2 86161,166136.9 86296.4,166136.9 86296.4,166407.5 86431.5,166407.5 86431.5,166948.6 86566.6,166948.6 86566.6,167218.7 86702.1,167218.7 86702.1,167489.3 86837.1,167489.3 86837.1,167759.8 86972.6,167759.8 86972.6,168300.5 87107.7,168300.5 87107.7,168436 87242.7,168436 87242.7,168841.6 87378.2,168841.6 87378.2,169111.7 87513.3,169111.7 87513.3,169517.8 87648.3,169517.8 87648.3,169652.8 87783.8,169652.8 87783.8,169923.4 87918.9,169923.4 87918.9,170193.5 88054,170193.5 88054,170464 88189.5,170464 88189.5,170734.6 88324.5,170734.6 88324.5,171005.2 88460,171005.2 88460,171275.3 88595.1,171275.3 88595.1,171410.8 88730.1,171410.8 88730.1,171681.3 88865.2,171681.3 88865.2,171951.4 89000.7,171951.4 89000.7,172086.9 89135.7,172086.9 89135.7,172357.1 89271.2,172357.1 89271.2,172492.5 89406.3,172492.5 89406.3,172763.1 89541.4,172763.1 89541.4,172898.2 89676.9,172898.2 89676.9,173168.7 89811.9,173168.7 89811.9,173303.8 89947,173303.8 89947,173574.3 90082.5,173574.3 90082.5,173709.4 90217.5,173709.4 90217.5,173979.9 90353,173979.9 90353,174115 90488.1,174115 90488.1,174250.5 90623.1,174250.5 90623.1,174520.6 90758.6,174520.6 90758.6,174656.1 90893.7,174656.1 90893.7,174926.7 91028.8,174926.7 91028.8,175061.7 91164.2,175061.7 91164.2,175196.8 91299.3,175196.8 91299.3,175332.3 91434.8,175332.3 91434.8,175602.4 91569.9,175602.4 91569.9,175737.9 91704.9,175737.9 91704.9,175873 91840.4,175873 91840.4,176008.4 91975.5,176008.4 91975.5,176143.5 92110.5,176143.5 92110.5,176414.1 92246,176414.1 92246,176549.1 92381.1,176549.1 92381.1,176684.2 92516.6,176684.2 92516.6,176819.7 92651.6,176819.7 92651.6,176954.7 92786.7,176954.7 92786.7,177090.2 92922.2,177090.2 92922.2,177225.3 93057.3,177225.3 93057.3,177360.3 93192.3,177360.3 93192.3,177495.8 93327.8,177495.8 93327.8,177766 93598.4,177766 93598.4,178036.5 93733.4,178036.5 93733.4,178172 94004,178172 94004,178307.1 94139,178307.1 94139,178577.6 94274.5,178577.6 94274.5,178712.7 94544.7,178712.7 94544.7,178847.7 94680.1,178847.7 94680.1,178983.2 94815.2,178983.2 94815.2,179118.3 94950.3,179118.3 94950.3,179253.8 95085.8,179253.8 95085.8,179388.9 95220.8,179388.9 95220.8,179523.9 95355.9,179523.9 95355.9,179659 95491.4,179659 95491.4,179794.5 95626.4,179794.5 95626.4,179929.5 95761.9,179929.5 95761.9,180065 96032,180065 96032,180200.1 96167.5,180200.1 96167.5,180335.1 96302.6,180335.1 96302.6,180470.6 96437.7,180470.6 96437.7,180605.7 96573.2,180605.7 96573.2,180740.7 96708.2,180740.7 96708.2,180876.2 96978.8,180876.2 96978.8,181011.3 97113.8,181011.3 97113.8,181146.8 97249.3,181146.8 97249.3,181281.9 97519.4,181281.9 97519.4,181416.9 97654.9,181416.9 97654.9,181552.4 97790,181552.4 97790,181687.5 97925.5,181687.5 97925.5,181822.5 98195.6,181822.5 98195.6,181958 98331.1,181958 98331.1,182093.1 98466.2,182093.1 98466.2,182228.6 98736.7,182228.6 98736.7,182363.6 99007.3,182363.6 99007.3,182634.2 99277.4,182634.2 99277.4,182769.3 99412.4,182769.3 99412.4,182904.3 99683.4,182904.3 99683.4,183039.8 99818.5,183039.8 99818.5,183174.9 100088.6,183174.9 100088.6,183310.4 100224.1,183310.4 100224.1,183445.4 100494.2,183445.4 100494.2,183580.5 100629.7,183580.5 100629.7,183716 100900.3,183716 100900.3,183851 101035.3,183851 101035.3,183986.1 101305.9,183986.1 101305.9,184121.6 101576,184121.6 101576,184256.6 101711.5,184256.6 101711.5,184392.1 101982.1,184392.1 101982.1,184527.2 102252.2,184527.2 102252.2,184662.3 102387.7,184662.3 102387.7,184797.8 102658.2,184797.8 102658.2,184932.8 102928.3,184932.8 102928.3,185067.9 103198.9,185067.9 103198.9,185203.4 103334,185203.4 103334,185338.4 103604.5,185338.4 103604.5,185473.9 103875.1,185473.9 103875.1,185609 104145.6,185609 104145.6,185744 104415.7,185744 104415.7,185879.5 104686.3,185879.5 104686.3,186014.6 104956.9,186014.6 104956.9,186149.7 105227.4,186149.7 105227.4,186285.2 105497.5,186285.2 105497.5,186420.2 105633,186420.2 105633,186555.7 106038.6,186555.7 106038.6,186690.8 106309.2,186690.8 106309.2,186825.8 106579.3,186825.8 106579.3,186961.3 106849.9,186961.3 106849.9,187096.4 107120.4,187096.4 107120.4,187231.4 107391,187231.4 107391,187366.9 107661.1,187366.9 107661.1,187502 108066.7,187502 108066.7,187637.5 108202.2,187637.5 108202.2,187772.5 108742.9,187772.5 108742.9,187907.6 109013.4,187907.6 109013.4,188043.1 109419,188043.1 109419,188178.2 109554.5,188178.2 109554.5,188313.2 110095.2,188313.2 110095.2,188448.7 110230.3,188448.7 110230.3,188583.8 110365.8,188583.8 110365.8,188719.3 110500.8,188719.3 110500.8,188854.3 110635.9,188854.3 110635.9,188989.4 110771.4,188989.4 110771.4,189259.9 110906.4,189259.9 110906.4,190071.2 110771.4,190071.2 110771.4,190341.7 110635.9,190341.7 110635.9,190476.8 110500.8,190476.8 110500.8,190612.3 110365.8,190612.3 110365.8,190747.3 110230.3,190747.3 110230.3,190882.4 110095.2,190882.4 110095.2,191017.9 109824.6,191017.9 109824.6,191153 109689.6,191153 109689.6,191288 109554.5,191288 109554.5,191423.5 109284,191423.5 109284,191558.6 109148.5,191558.6 109148.5,191694.1 109013.4,191694.1 109013.4,191829.1 108742.9,191829.1 108742.9,191964.2 108607.8,191964.2 108607.8,192099.7 108337.3,192099.7 108337.3,192234.7 108202.2,192234.7 108202.2,192369.8 108066.7,192369.8 108066.7,192505.3 107796.6,192505.3 107796.6,192640.3 107661.1,192640.3 107661.1,192775.8 107526,192775.8 107526,192910.9 107255.5,192910.9 107255.5,193046 107120.4,193046 107120.4,193181.5 106985.4,193181.5 106985.4,193316.5 106714.8,193316.5 106714.8,193451.6 106579.3,193451.6 106579.3,193587.1 106309.2,193587.1 106309.2,193722.1 106173.7,193722.1 106173.7,193857.6 106038.6,193857.6 106038.6,193992.7 105903.1,193992.7 105903.1,194127.7 105633,194127.7 105633,194263.2 105497.5,194263.2 105497.5,194398.3 105362.5,194398.3 105362.5,194533.4 105227.4,194533.4 105227.4,194668.8 105091.9,194668.8 105091.9,194803.9 104956.9,194803.9 104956.9,194939.4 104821.4,194939.4 104821.4,195074.5 104551.2,195074.5 104551.2,195209.5 104415.7,195209.5 104415.7,195480.1 104280.7,195480.1 104280.7,195615.1 104145.6,195615.1 104145.6,195750.6 104010.1,195750.6 104010.1,195885.7 103875.1,195885.7 103875.1,196021.2 103739.6,196021.2 103739.6,196156.2 103604.5,196156.2 103604.5,196291.3 103469.5,196291.3 103469.5,196561.9 103334,196561.9 103334,196696.9 103198.9,196696.9 103198.9,196832.4 103063.8,196832.4 103063.8,197103 102928.3,197103 102928.3,197238 102793.3,197238 102793.3,197373.1 102658.2,197373.1 102658.2,197643.6 102522.7,197643.6 102522.7,197778.7 102387.7,197778.7 102387.7,198049.3 102252.2,198049.3 102252.2,198319.8 102117.1,198319.8 102117.1,198454.9 101982.1,198454.9 101982.1,198725.4 101846.6,198725.4 101846.6,198996 101711.5,198996 101711.5,199401.6 101576,199401.6 101576,199672.1 101441,199672.1 101441,199942.3 101305.9,199942.3 101305.9,200212.8 101170.4,200212.8 101170.4,200483.4 101035.3,200483.4 101035.3,200753.5 100900.3,200753.5 100900.3,201159.5 100764.8,201159.5 100764.8,201565.2 100629.7,201565.2 100629.7,202105.8 100494.2,202105.8 100494.2,202646.9 100359.2,202646.9 100359.2,203458.2 100224.1,203458.2 100224.1,204675 154582.9,204675 154582.9,203458.2 154447.8,203458.2 154447.8,202646.9 154312.7,202646.9 154312.7,201970.8 154177.3,201970.8 154177.3,201565.2 154042.2,201565.2 154042.2,201159.5 153906.7,201159.5 153906.7,200889 153771.6,200889 153771.6,200483.4 153636.6,200483.4 153636.6,200077.8 153501.5,200077.8 153501.5,199807.2 153366,199807.2 153366,199536.6 153231,199536.6 153231,199131 152960.4,199131 152960.4,198725.4 152825.4,198725.4 152825.4,198454.9 152689.9,198454.9 152689.9,198319.8 152554.8,198319.8 152554.8,198049.3 152419.7,198049.3 152419.7,197778.7 152284.2,197778.7 152284.2,197643.6 152149.2,197643.6 152149.2,197373.1 152013.7,197373.1 152013.7,197238 151878.6,197238 151878.6,196967.5 151743.6,196967.5 151743.6,196832.4 151608.1,196832.4 151608.1,196696.9 151473,196696.9 151473,196561.9 151338,196561.9 151338,196291.3 151202.5,196291.3 151202.5,196156.2 151067.4,196156.2 151067.4,196021.2 150931.9,196021.2 150931.9,195885.7 150796.9,195885.7 150796.9,195750.6 150661.8,195750.6 150661.8,195615.1 150526.3,195615.1 150526.3,195480.1 150391.2,195480.1 150391.2,195345 150255.7,195345 150255.7,195209.5 150120.7,195209.5 150120.7,195074.5 149985.6,195074.5 149985.6,194939.4 149850.1,194939.4 149850.1,194803.9 149715.1,194803.9 149715.1,194668.8 149580,194668.8 149580,194533.4 149444.5,194533.4 149444.5,194398.3 149309.5,194398.3 149309.5,194263.2 149174.4,194263.2 149174.4,194127.7 149038.9,194127.7 149038.9,193992.7 148768.3,193992.7 148768.3,193857.6 148633.3,193857.6 148633.3,193722.1 148498.2,193722.1 148498.2,193587.1 148227.7,193587.1 148227.7,193451.6 148092.6,193451.6 148092.6,193316.5 147822.1,193316.5 147822.1,193181.5 147686.6,193181.5 147686.6,193046 147551.5,193046 147551.5,192910.9 147281,192910.9 147281,192775.8 147145.9,192775.8 147145.9,192640.3 147010.8,192640.3 147010.8,192505.3 146740.3,192505.3 146740.3,192369.8 146604.8,192369.8 146604.8,192234.7 146469.7,192234.7 146469.7,192099.7 146199.2,192099.7 146199.2,191964.2 146064.1,191964.2 146064.1,191829.1 145929.1,191829.1 145929.1,191694.1 145658.5,191694.1 145658.5,191558.6 145523,191558.6 145523,191423.5 145252.9,191423.5 145252.9,191288 145117.4,191288 145117.4,191153 144982.3,191153 144982.3,191017.9 144711.8,191017.9 144711.8,190882.4 144576.7,190882.4 144576.7,190747.3 144441.2,190747.3 144441.2,190612.3 144306.2,190612.3 144306.2,190476.8 144171.1,190476.8 144171.1,190341.7 144035.6,190341.7 144035.6,190071.2 143900.5,190071.2 143900.5,189259.9 144035.6,189259.9 144035.6,188989.4 144171.1,188989.4 144171.1,188854.3 144306.2,188854.3 144306.2,188719.3 144441.2,188719.3 144441.2,188583.8 144576.7,188583.8 144576.7,188448.7 144982.3,188448.7 144982.3,188313.2 145252.9,188313.2 145252.9,188178.2 145523,188178.2 145523,188043.1 145929.1,188043.1 145929.1,187907.6 146064.1,187907.6 146064.1,187772.5 146604.8,187772.5 146604.8,187637.5 146740.3,187637.5 146740.3,187502 147145.9,187502 147145.9,187366.9 147281,187366.9 147281,187231.4 147686.6,187231.4 147686.6,187096.4 147957.1,187096.4 147957.1,186961.3 148227.7,186961.3 148227.7,186825.8 148498.2,186825.8 148498.2,186690.8 148768.3,186690.8 148768.3,186555.7 149038.9,186555.7 149038.9,186420.2 149444.5,186420.2 149444.5,186285.2 149715.1,186285.2 149715.1,186149.7 149850.1,186149.7 149850.1,186014.6 150120.7,186014.6 150120.7,185879.5 150391.2,185879.5 150391.2,185744 150661.8,185744 150661.8,185609 150931.9,185609 150931.9,185473.9 151202.5,185473.9 151202.5,185338.4 151473,185338.4 151473,185203.4 151743.6,185203.4 151743.6,185067.9 152013.7,185067.9 152013.7,184932.8 152149.2,184932.8 152149.2,184797.8 152419.7,184797.8 152419.7,184662.3 152554.8,184662.3 152554.8,184527.2 152825.4,184527.2 152825.4,184392.1 153095.5,184392.1 153095.5,184256.6 153231,184256.6 153231,184121.6 153501.5,184121.6 153501.5,183986.1 153771.6,183986.1 153771.6,183851 153906.7,183851 153906.7,183716 154177.3,183716 154177.3,183580.5 154312.7,183580.5 154312.7,183445.4 154582.9,183445.4 154582.9,183310.4 154718.4,183310.4 154718.4,183174.9 154988.5,183174.9 154988.5,183039.8 155124,183039.8 155124,182904.3 155394.5,182904.3 155394.5,182769.3 155529.6,182769.3 155529.6,182634.2 155800.1,182634.2 155800.1,182498.7 155935.2,182498.7 155935.2,182363.6 156070.3,182363.6 156070.3,182228.6 156340.8,182228.6 156340.8,182093.1 156476.3,182093.1 156476.3,181958 156611.4,181958 156611.4,181822.5 156881.9,181822.5 156881.9,181687.5 157017,181687.5 157017,181552.4 157152,181552.4 157152,181416.9 157422.6,181416.9 157422.6,181281.9 157557.7,181281.9 157557.7,181146.8 157693.2,181146.8 157693.2,181011.3 157828.2,181011.3 157828.2,180876.2 158098.8,180876.2 158098.8,180740.7 158233.8,180740.7 158233.8,180605.7 158369.3,180605.7 158369.3,180470.6 158504.4,180470.6 158504.4,180335.1 158639.9,180335.1 158639.9,180200.1 158910,180200.1 158910,180065 159045.5,180065 159045.5,179929.5 159180.5,179929.5 159180.5,179794.5 159315.6,179794.5 159315.6,179659 159451.1,179659 159451.1,179523.9 159586.2,179523.9 159586.2,179388.9 159721.7,179388.9 159721.7,179253.8 159856.7,179253.8 159856.7,179118.3 159991.8,179118.3 159991.8,178983.2 160262.3,178983.2 160262.3,178847.7 160397.4,178847.7 160397.4,178712.7 160532.9,178712.7 160532.9,178577.6 160667.9,178577.6 160667.9,178442.1 160803.4,178442.1 160803.4,178307.1 160938.5,178307.1 160938.5,178172 161073.6,178172 161073.6,178036.5 161209.1,178036.5 161209.1,177901.5 161344.1,177901.5 161344.1,177766 161479.2,177766 161479.2,177495.8 161614.7,177495.8 161614.7,177360.3 161749.7,177360.3 161749.7,177225.3 161885.2,177225.3 161885.2,177090.2 162020.3,177090.2 162020.3,176954.7 162155.3,176954.7 162155.3,176819.7 162290.8,176819.7 162290.8,176684.2 162425.9,176684.2 162425.9,176549.1 162561,176549.1 162561,176414.1 162696.4,176414.1 162696.4,176143.5 162831.5,176143.5 162831.5,176008.4 162966.6,176008.4 162966.6,175873 163102.1,175873 163102.1,175737.9 163237.1,175737.9 163237.1,175602.4 163372.6,175602.4 163372.6,175332.3 163507.7,175332.3 163507.7,175196.8 163642.7,175196.8 163642.7,175061.7 163778.2,175061.7 163778.2,174926.7 163913.3,174926.7 163913.3,174656.1 164048.8,174656.1 164048.8,174520.6 164183.8,174520.6 164183.8,174385.6 164318.9,174385.6 164318.9,174115 164454,174115 164454,173979.9 164589.5,173979.9 164589.5,173709.4 164724.5,173709.4 164724.5,173574.3 164860,173574.3 164860,173303.8 164995.1,173303.8 164995.1,173168.7 165130.1,173168.7 165130.1,172898.2 165265.6,172898.2 165265.6,172763.1 165400.7,172763.1 165400.7,172492.5 165535.7,172492.5 165535.7,172357.1 165671.2,172357.1 165671.2,172086.9 165806.3,172086.9 165806.3,171951.4 165941.8,171951.4 165941.8,171681.3 166076.8,171681.3 166076.8,171410.8 166211.9,171410.8 166211.9,171140.2 166347.4,171140.2 166347.4,171005.2 166482.5,171005.2 166482.5,170734.6 166617.5,170734.6 166617.5,170464 166753,170464 166753,170193.5 166888.1,170193.5 166888.1,169923.4 167023.6,169923.4 167023.6,169652.8 167158.6,169652.8 167158.6,169382.3 167293.7,169382.3 167293.7,169111.7 167429.2,169111.7 167429.2,168706.1 167564.2,168706.1 167564.2,168571 167699.3,168571 167699.3,168300.5 167834.8,168300.5 167834.8,167759.8 167969.9,167759.8 167969.9,167489.3 168105.4,167489.3 168105.4,167083.6 168240.4,167083.6 168240.4,166948.6 168375.5,166948.6 168375.5,166407.5 168511,166407.5 168511,166136.9 168646,166136.9 168646,165596.2 168781.1,165596.2 168781.1,165325.7 168916.6,165325.7 168916.6,164785 169051.6,164785 169051.6,164514.5 169187.1,164514.5 169187.1,163973.4 169322.2,163973.4 169322.2,163432.7 169457.3,163432.7 169457.3,162621.5 169592.7,162621.5 169592.7,162215.4 169727.8,162215.4 169727.8,161539.7 169862.9,161539.7 169862.9,160457.9 169998.4,160457.9 169998.4,159781.7 170133.4,159781.7 170133.4,157753.2 170268.9,157753.2 170268.9,153967.2 170133.4,153967.2 170133.4,151533.1 169998.4,151533.1 169998.4,150721.9 169862.9,150721.9 169862.9,149910.6 169727.8,149910.6 169727.8,148963.9 169592.7,148963.9 169592.7,148558.3 169457.3,148558.3 169457.3,147747.1 169322.2,147747.1 169322.2,147206 169187.1,147206 169187.1,146665.3 169051.6,146665.3 169051.6,146124.2 168916.6,146124.2 168916.6,145583.5 168781.1,145583.5 168781.1,145042.4 168646,145042.4 168646,144772.3 168511,144772.3 168511,144231.2 168375.5,144231.2 168375.5,143960.6 168240.4,143960.6 168240.4,143284.9 168105.4,143284.9 168105.4,142878.8 167969.9,142878.8 167969.9,142743.8 167834.8,142743.8 167834.8,142202.7 167699.3,142202.7 167699.3,141797.1 167564.2,141797.1 167564.2,141391.4 167429.2,141391.4 167429.2,141256.4 167293.7,141256.4 167293.7,140715.3 167158.6,140715.3 167158.6,140445.2 167023.6,140445.2 167023.6,140309.7 166888.1,140309.7 166888.1,139904 166753,139904 166753,139498.4 166617.5,139498.4 166617.5,139227.9 166482.5,139227.9 166482.5,138957.8 166347.4,138957.8 166347.4,138551.7 166211.9,138551.7 166211.9,138281.6 166076.8,138281.6 166076.8,138011 165941.8,138011 165941.8,137740.5 165806.3,137740.5 165806.3,137605.4 165671.2,137605.4 165671.2,137064.3 165535.7,137064.3 165535.7,136929.3 165400.7,136929.3 165400.7,136658.7 165265.6,136658.7 165265.6,136388.1 165130.1,136388.1 165130.1,136118 164995.1,136118 164995.1,135847.5 164860,135847.5 164860,135576.9 164724.5,135576.9 164724.5,135306.8 164589.5,135306.8 164589.5,135036.2 164454,135036.2 164454,134900.8 164318.9,134900.8 164318.9,134630.6 164183.8,134630.6 164183.8,134360.1 164048.8,134360.1 164048.8,134089.5 163913.3,134089.5 163913.3,133954.5 163778.2,133954.5 163778.2,133683.9 163642.7,133683.9 163642.7,133413.4 163507.7,133413.4 163507.7,133143.2 163372.6,133143.2 163372.6,133007.7 163237.1,133007.7 163237.1,132737.2 163102.1,132737.2 163102.1,132602.1 162966.6,132602.1 162966.6,132331.6 162831.5,132331.6 162831.5,132061.5 162696.4,132061.5 162696.4,131926 162561,131926 162561,131655.8 162425.9,131655.8 162425.9,131385.3 162290.8,131385.3 162290.8,131249.8 162155.3,131249.8 162155.3,131114.7 162020.3,131114.7 162020.3,130844.2 161885.2,130844.2 161885.2,130573.6 161749.7,130573.6 161749.7,130438.6 161614.7,130438.6 161614.7,130168 161479.2,130168 161479.2,130033 161344.1,130033 161344.1,129762.4 161209.1,129762.4 161209.1,129627.3 161073.6,129627.3 161073.6,129491.8 160938.5,129491.8 160938.5,129221.7 160803.4,129221.7 160803.4,129086.2 160667.9,129086.2 160667.9,128816.1 160532.9,128816.1 160532.9,128680.6 160397.4,128680.6 160397.4,128410.1 160262.3,128410.1 160262.3,128275 160127.3,128275 160127.3,128139.9 159991.8,128139.9 159991.8,127869.4 159856.7,127869.4 159856.7,127734.3 159721.7,127734.3 159721.7,127598.8 159586.2,127598.8 159586.2,127328.3 159451.1,127328.3 159451.1,127193.2 159315.6,127193.2 159315.6,126922.7 159180.5,126922.7 159180.5,126787.6 159045.5,126787.6 159045.5,126652.5 158910,126652.5 158910,126382 158774.9,126382 158774.9,126246.9 158639.9,126246.9 158639.9,126111.4 158504.4,126111.4 158504.4,125840.9 158369.3,125840.9 158369.3,125705.8 158233.8,125705.8 158233.8,125435.3 158098.8,125435.3 158098.8,125300.2 157963.7,125300.2 157963.7,125029.7 157828.2,125029.7 157828.2,124894.6 157693.2,124894.6 157693.2,124759.5 157557.7,124759.5 157557.7,124489 157422.6,124489 157422.6,124218.4 157287.5,124218.4 157287.5,124083.4 157152,124083.4 157152,123812.8 157017,123812.8 157017,123677.8 156881.9,123677.8 156881.9,123407.2 156746.4,123407.2 156746.4,123136.7 156611.4,123136.7 156611.4,123001.6 156476.3,123001.6 156476.3,122731 156340.8,122731 156340.8,122460.5 156205.8,122460.5 156205.8,122325.4 156070.3,122325.4 156070.3,122054.9 155935.2,122054.9 155935.2,121784.3 155800.1,121784.3 155800.1,121514.2 155664.6,121514.2 155664.6,121378.7 155529.6,121378.7 155529.6,121108.1 155394.5,121108.1 155394.5,120838 155259,120838 155259,120432.4 155124,120432.4 155124,120161.9 154988.5,120161.9 154988.5,120026.4 154853.4,120026.4 154853.4,119620.8 154582.9,119620.8 154582.9,119080.1 154447.8,119080.1 154447.8,118944.6 154312.7,118944.6 154312.7,118674.5 154177.3,118674.5 154177.3,118268.9 154042.2,118268.9 154042.2,117998.3 153906.7,117998.3 153906.7,117727.7 153771.6,117727.7 153771.6,117457.2 153636.6,117457.2 153636.6,117051.6 153501.5,117051.6 153501.5,116781 153366,116781 153366,116375.4 153231,116375.4 153231,115834.7 153095.5,115834.7 153095.5,115429.1 152960.4,115429.1 152960.4,115023.5 152825.4,115023.5 152825.4,114753 152689.9,114753 152689.9,114211.8 152554.8,114211.8 152554.8,113400.6 152419.7,113400.6 152419.7,113130.5 152284.2,113130.5 152284.2,112318.8 152149.2,112318.8 152149.2,111507.6 152013.7,111507.6 152013.7,107180.5 152149.2,107180.5 152149.2,106369.3 152284.2,106369.3 152284.2,105828.1 152419.7,105828.1 152419.7,105287.5 152554.8,105287.5 152554.8,105016.9 152689.9,105016.9 152689.9,104476.2 152825.4,104476.2 152825.4,104205.7 152960.4,104205.7 152960.4,103800.1 153095.5,103800.1 153095.5,103664.6 153231,103664.6 153231,103123.9 153366,103123.9 153366,102988.4 153501.5,102988.4 153501.5,102718.3 153636.6,102718.3 153636.6,102447.7 153771.6,102447.7 153771.6,102177.2 153906.7,102177.2 153906.7,102042.1 154042.2,102042.1 154042.2,101771.6 154177.3,101771.6 154177.3,101636.5 154312.7,101636.5 154312.7,101366 154447.8,101366 154447.8,101230.9 154582.9,101230.9 154582.9,100960.3 154718.4,100960.3 154718.4,100825.3 154853.4,100825.3 154853.4,100689.8 154988.5,100689.8 154988.5,100554.7 155124,100554.7 155124,100284.2 155259,100284.2 155259,100149.1 155394.5,100149.1 155394.5,100013.6 155664.6,100013.6 155664.6,99878.6 155935.2,99878.6 155935.2,99743.5 156881.9,99743.5 156881.9,99878.6 157017,99878.6 157017,100013.6 157152,100013.6 157152,100149.1 157287.5,100149.1 157287.5,100284.2 157557.7,100284.2 157557.7,100419.7 157693.2,100419.7 157693.2,100554.7 157963.7,100554.7 157963.7,100689.8 158098.8,100689.8 158098.8,100825.3 158369.3,100825.3 158369.3,100960.3 158774.9,100960.3 158774.9,101095.4 159180.5,101095.4 159180.5,101230.9 159586.2,101230.9 159586.2,101366 161749.7,101366 161749.7,101230.9 162290.8,101230.9 162290.8,101095.4 162425.9,101095.4 162425.9,100960.3 162831.5,100960.3 162831.5,100825.3 163102.1,100825.3 163102.1,100689.8 163237.1,100689.8 163237.1,100554.7 163507.7,100554.7 163507.7,100419.7 163642.7,100419.7 163642.7,100284.2 163778.2,100284.2 163778.2,100149.1 163913.3,100149.1 163913.3,100013.6 164048.8,100013.6 164048.8,99878.6 164183.8,99878.6 164183.8,99743.5 164318.9,99743.5 164318.9,99608 164454,99608 164454,99473 164589.5,99473 164589.5,99202.4 164724.5,99202.4 164724.5,99067.3 164860,99067.3 164860,98796.8 164995.1,98796.8 164995.1,98526.2 165130.1,98526.2 165130.1,98256.1 165265.6,98256.1 165265.6,98120.6 165400.7,98120.6 165400.7,97715 165535.7,97715 165535.7,97174.3 165671.2,97174.3 165671.2,95010.8 165535.7,95010.8 165535.7,94469.7 165400.7,94469.7 165400.7,94064 165265.6,94064 165265.6,93793.5 165130.1,93793.5 165130.1,93658.4 164995.1,93658.4 164995.1,93387.9 164860,93387.9 164860,93252.8 164724.5,93252.8 164724.5,93117.3 164589.5,93117.3 164589.5,92847.2 164454,92847.2 164454,92711.7 164318.9,92711.7 164318.9,92576.7 164183.8,92576.7 164183.8,92441.2 163913.3,92441.2 163913.3,92306.1 163778.2,92306.1 163778.2,92171 163507.7,92171 163507.7,92036 163237.1,92036 163237.1,91900.5 163102.1,91900.5 163102.1,91765.4 162831.5,91765.4 162831.5,91629.9 162425.9,91629.9 162425.9,91494.9 162020.3,91494.9 162020.3,91359.8 161479.2,91359.8 161479.2,91224.3 159315.6,91224.3 159315.6,91359.8 158504.4,91359.8 158504.4,91494.9 158098.8,91494.9 158098.8,91629.9 157828.2,91629.9 157828.2,91765.4 157152,91765.4 157152,91900.5 156881.9,91900.5 156881.9,92036 156611.4,92036 156611.4,92171 156340.8,92171 156340.8,92306.1 155935.2,92306.1 155935.2,92441.2 155664.6,92441.2 155664.6,92576.7 155394.5,92576.7 155394.5,92711.7 155124,92711.7 155124,92847.2 154988.5,92847.2 154988.5,92982.3 154718.4,92982.3 154718.4,93117.3 154582.9,93117.3 154582.9,93252.8 154312.7,93252.8 154312.7,93387.9 154177.3,93387.9 154177.3,93522.9 153906.7,93522.9 153906.7,93658.4 153771.6,93658.4 153771.6,93793.5 153636.6,93793.5 153636.6,93929 153501.5,93929 153501.5,94064 153231,94064 153231,94199.1 153095.5,94199.1 153095.5,94334.6 152960.4,94334.6 152960.4,94469.7 152825.4,94469.7 152825.4,94604.7 152689.9,94604.7 152689.9,94740.2 152554.8,94740.2 152554.8,94875.3 152419.7,94875.3 152419.7,95010.8 152284.2,95010.8 152284.2,95145.8 152149.2,95145.8 152149.2,95416.4 152013.7,95416.4 152013.7,95551.4 151878.6,95551.4 151878.6,95686.5 151743.6,95686.5 151743.6,95822 151608.1,95822 151608.1,95957.1 151473,95957.1 151473,96227.6 151338,96227.6 151338,96362.7 151202.5,96362.7 151202.5,96633.2 151067.4,96633.2 151067.4,96768.3 150931.9,96768.3 150931.9,97038.8 150796.9,97038.8 150796.9,97174.3 150661.8,97174.3 150661.8,97444.4 150526.3,97444.4 150526.3,97715 150391.2,97715 150391.2,97985.6 150255.7,97985.6 150255.7,98256.1 150120.7,98256.1 150120.7,98526.2 149985.6,98526.2 149985.6,98796.8 149850.1,98796.8 149850.1,99337.9 149715.1,99337.9 149715.1,99473 149580,99473 149580,99878.6 149444.5,99878.6 149444.5,100419.7 149309.5,100419.7 149309.5,100960.3 149174.4,100960.3 149174.4,101230.9 149038.9,101230.9 149038.9,102042.1 148903.8,102042.1 148903.8,102718.3 148768.3,102718.3 148768.3,104476.2 148633.3,104476.2 148633.3,108532.8 148768.3,108532.8 148768.3,111102 148903.8,111102 148903.8,112859.9 149038.9,112859.9 149038.9,113941.7 149174.4,113941.7 149174.4,115023.5 149309.5,115023.5 149309.5,116105.3 149444.5,116105.3 149444.5,117187.1 149580,117187.1 149580,117727.7 149715.1,117727.7 149715.1,118268.9 149850.1,118268.9 149850.1,118809.5 149985.6,118809.5 149985.6,119620.8 150120.7,119620.8 150120.7,120161.9 150255.7,120161.9 150255.7,120432.4 150391.2,120432.4 150391.2,120973.1 150526.3,120973.1 150526.3,121514.2 150661.8,121514.2 150661.8,121784.3 150796.9,121784.3 150796.9,122189.9 150931.9,122189.9 150931.9,122596 151067.4,122596 151067.4,123136.7 151202.5,123136.7 151202.5,123542.3 151338,123542.3 151338,123812.8 151473,123812.8 151473,124218.4 151608.1,124218.4 151608.1,124489 151743.6,124489 151743.6,124759.5 151878.6,124759.5 151878.6,125029.7 152013.7,125029.7 152013.7,125300.2 152149.2,125300.2 152149.2,125705.8 152284.2,125705.8 152284.2,125976.4 152419.7,125976.4 152419.7,126246.9 152554.8,126246.9 152554.8,126652.5 152689.9,126652.5 152689.9,126922.7 152825.4,126922.7 152825.4,127193.2 152960.4,127193.2 152960.4,127598.8 153095.5,127598.8 153095.5,128004.4 153231,128004.4 153231,128275 153366,128275 153366,128545.6 153501.5,128545.6 153501.5,128816.1 153636.6,128816.1 153636.6,129356.8 153771.6,129356.8 153771.6,129627.3 153906.7,129627.3 153906.7,129897.9 154042.2,129897.9 154042.2,130168 154177.3,130168 154177.3,130573.6 154312.7,130573.6 154312.7,130979.7 154447.8,130979.7 154447.8,131249.8 154582.9,131249.8 154582.9,131655.8 154718.4,131655.8 154718.4,132061.5 154853.4,132061.5 154853.4,132602.1 154988.5,132602.1 154988.5,133143.2 155124,133143.2 155124,134225 154988.5,134225 154988.5,134765.7 154853.4,134765.7 154853.4,135036.2 154718.4,135036.2 154718.4,135306.8 154582.9,135306.8 154582.9,135576.9 154447.8,135576.9 154447.8,135712 154312.7,135712 154312.7,135847.5 154177.3,135847.5 154177.3,135982.5 154042.2,135982.5 154042.2,136118 153906.7,136118 153906.7,136253.1 153771.6,136253.1 153771.6,136388.1 153501.5,136388.1 153501.5,136523.6 153366,136523.6 153366,136658.7 153231,136658.7 153231,136793.8 153095.5,136793.8 153095.5,136929.3 152960.4,136929.3 152960.4,137064.3 152825.4,137064.3 152825.4,137199.8 152554.8,137199.8 152554.8,137334.9 152419.7,137334.9 152419.7,137469.9 152284.2,137469.9 152284.2,137605.4 152149.2,137605.4 152149.2,137740.5 152013.7,137740.5 152013.7,137875.5 151878.6,137875.5 151878.6,138011 151743.6,138011 151743.6,138146.1 151608.1,138146.1 151608.1,138281.6 151473,138281.6 151473,138416.6 151338,138416.6 151338,138551.7 151202.5,138551.7 151202.5,138687.2 151067.4,138687.2 151067.4,138822.3 150931.9,138822.3 150931.9,138957.8 150796.9,138957.8 150796.9,139092.8 150661.8,139092.8 150661.8,139227.9 150526.3,139227.9 150526.3,139363.4 150391.2,139363.4 150391.2,139633.5 150255.7,139633.5 150255.7,139769 150120.7,139769 150120.7,139904 149985.6,139904 149985.6,140174.6 149850.1,140174.6 149850.1,141256.4 149985.6,141256.4 149985.6,141391.4 150120.7,141391.4 150120.7,141526.9 150255.7,141526.9 150255.7,141797.1 150391.2,141797.1 150391.2,141932.5 150661.8,141932.5 150661.8,142067.6 150796.9,142067.6 150796.9,142202.7 150931.9,142202.7 150931.9,142338.2 151067.4,142338.2 151067.4,142473.2 151202.5,142473.2 151202.5,142608.7 151338,142608.7 151338,142743.8 151473,142743.8 151473,142878.8 151608.1,142878.8 151608.1,143014.3 151743.6,143014.3 151743.6,143149.4 151878.6,143149.4 151878.6,143284.9 152013.7,143284.9 152013.7,143419.9 152149.2,143419.9 152149.2,143555 152284.2,143555 152284.2,143690.5 152419.7,143690.5 152419.7,143825.6 152554.8,143825.6 152554.8,143960.6 152689.9,143960.6 152689.9,144096.1 152825.4,144096.1 152825.4,144231.2 152960.4,144231.2 152960.4,144366.7 153095.5,144366.7 153095.5,144636.8 153231,144636.8 153231,144772.3 153366,144772.3 153366,144907.3 153501.5,144907.3 153501.5,145042.4 153636.6,145042.4 153636.6,145177.9 153771.6,145177.9 153771.6,145448 153906.7,145448 153906.7,145583.5 154042.2,145583.5 154042.2,145718.6 154177.3,145718.6 154177.3,145989.1 154312.7,145989.1 154312.7,146124.2 154447.8,146124.2 154447.8,146394.7 154718.4,146394.7 154718.4,146665.3 154853.4,146665.3 154853.4,146800.3 154988.5,146800.3 154988.5,147070.9 155124,147070.9 155124,147206 155259,147206 155259,147476.5 155394.5,147476.5 155394.5,147611.6 155529.6,147611.6 155529.6,147882.1 155664.6,147882.1 155664.6,148017.2 155800.1,148017.2 155800.1,148287.7 155935.2,148287.7 155935.2,148558.3 156070.3,148558.3 156070.3,148693.4 156205.8,148693.4 156205.8,148963.9 156340.8,148963.9 156340.8,149234.5 156476.3,149234.5 156476.3,149504.6 156611.4,149504.6 156611.4,149775.1 156746.4,149775.1 156746.4,150045.7 156881.9,150045.7 156881.9,150316.2 157017,150316.2 157017,150586.8 157152,150586.8 157152,150721.9 157287.5,150721.9 157287.5,151262.5 157422.6,151262.5 157422.6,151398 157557.7,151398 157557.7,151803.6 157693.2,151803.6 157693.2,152074.2 157828.2,152074.2 157828.2,152344.3 157963.7,152344.3 157963.7,152885.4 158098.8,152885.4 158098.8,153156 158233.8,153156 158233.8,153696.6 158369.3,153696.6 158369.3,153967.2 158504.4,153967.2 158504.4,154507.9 158639.9,154507.9 158639.9,155049 158774.9,155049 158774.9,155454.6 158910,155454.6 158910,156130.8 159045.5,156130.8 159045.5,156671.4 159180.5,156671.4 159180.5,158023.8 159315.6,158023.8 159315.6,158835 159451.1,158835 159451.1,162621.5 159315.6,162621.5 159315.6,164514.5 159180.5,164514.5 159180.5,165325.7 159045.5,165325.7 159045.5,165866.8 158910,165866.8 158910,166407.5 158774.9,166407.5 158774.9,166678 158639.9,166678 158639.9,167354.2 158504.4,167354.2 158504.4,167759.8 158369.3,167759.8 158369.3,168030.4 158233.8,168030.4 158233.8,168300.5 158098.8,168300.5 158098.8,168571 157963.7,168571 157963.7,168841.6 157828.2,168841.6 157828.2,169111.7 157693.2,169111.7 157693.2,169382.3 157557.7,169382.3 157557.7,169652.8 157422.6,169652.8 157422.6,169923.4 157287.5,169923.4 157287.5,170193.5 157152,170193.5 157152,170329 157017,170329 157017,170599.5 156881.9,170599.5 156881.9,170734.6 156746.4,170734.6 156746.4,170869.7 156611.4,170869.7 156611.4,171140.2 156476.3,171140.2 156476.3,171275.3 156340.8,171275.3 156340.8,171545.8 156205.8,171545.8 156205.8,171681.3 156070.3,171681.3 156070.3,171816.4 155935.2,171816.4 155935.2,171951.4 155800.1,171951.4 155800.1,172086.9 155664.6,172086.9 155664.6,172222 155529.6,172222 155529.6,172357.1 155394.5,172357.1 155394.5,172492.5 155259,172492.5 155259,172627.6 155124,172627.6 155124,172763.1 154988.5,172763.1 154988.5,172898.2 154853.4,172898.2 154853.4,173033.2 154718.4,173033.2 154718.4,173168.7 154582.9,173168.7 154582.9,173303.8 154312.7,173303.8 154312.7,173438.8 154177.3,173438.8 154177.3,173574.3 154042.2,173574.3 154042.2,173709.4 153771.6,173709.4 153771.6,173844.9 153636.6,173844.9 153636.6,173979.9 153366,173979.9 153366,174115 153231,174115 153231,174250.5 153095.5,174250.5 153095.5,174385.6 152825.4,174385.6 152825.4,174520.6 152554.8,174520.6 152554.8,174656.1 152284.2,174656.1 152284.2,174791.2 152013.7,174791.2 152013.7,174926.7 151743.6,174926.7 151743.6,175061.7 151338,175061.7 151338,175196.8 151202.5,175196.8 151202.5,175332.3 150931.9,175332.3 150931.9,175467.3 150391.2,175467.3 150391.2,175602.4 149985.6,175602.4 149985.6,175737.9 149850.1,175737.9 149850.1,175873 149038.9,175873 149038.9,176008.4 148768.3,176008.4 148768.3,176143.5 147957.1,176143.5 147957.1,176278.6 147416.4,176278.6 147416.4,176414.1 146199.2,176414.1 146199.2,176549.1 108742.9,176549.1 108742.9,176414.1 107391,176414.1 107391,176278.6 106579.3,176278.6 106579.3,176143.5 106173.7,176143.5 106173.7,176008.4 105497.5,176008.4 105497.5,175873 105227.4,175873 105227.4,175737.9 104821.4,175737.9 104821.4,175602.4 104415.7,175602.4 104415.7,175467.3 103875.1,175467.3 103875.1,175332.3 103604.5,175332.3 103604.5,175196.8 103334,175196.8 103334,175061.7 103063.8,175061.7 103063.8,174926.7 102793.3,174926.7 102793.3,174791.2 102522.7,174791.2 102522.7,174656.1 102252.2,174656.1 102252.2,174520.6 101982.1,174520.6 101982.1,174385.6 101846.6,174385.6 101846.6,174250.5 101576,174250.5 101576,174115 101441,174115 101441,173979.9 101170.4,173979.9 101170.4,173844.9 101035.3,173844.9 101035.3,173709.4 100764.8,173709.4 100764.8,173574.3 100629.7,173574.3 100629.7,173438.8 100494.2,173438.8 100494.2,173303.8 100224.1,173303.8 100224.1,173168.7 100088.6,173168.7 100088.6,173033.2 99953.6,173033.2 99953.6,172898.2 99818.5,172898.2 99818.5,172763.1 99683.4,172763.1 99683.4,172627.6 99547.9,172627.6 99547.9,172492.5 99412.4,172492.5 99412.4,172357.1 99277.4,172357.1 99277.4,172222 99142.3,172222 99142.3,172086.9 99007.3,172086.9 99007.3,171951.4 98871.8,171951.4 98871.8,171816.4 98736.7,171816.4 98736.7,171681.3 98601.2,171681.3 98601.2,171410.8 98466.2,171410.8 98466.2,171275.3 98331.1,171275.3 98331.1,171140.2 98195.6,171140.2 98195.6,170869.7 98060.5,170869.7 98060.5,170734.6 97925.5,170734.6 97925.5,170599.5 97790,170599.5 97790,170329 97654.9,170329 97654.9,170193.5 97519.4,170193.5 97519.4,169923.4 97384.4,169923.4 97384.4,169652.8 97249.3,169652.8 97249.3,169382.3 97113.8,169382.3 97113.8,169111.7 96978.8,169111.7 96978.8,168841.6 96843.7,168841.6 96843.7,168571 96708.2,168571 96708.2,168300.5 96573.2,168300.5 96573.2,168030.4 96437.7,168030.4 96437.7,167624.8 96302.6,167624.8 96302.6,167083.6 96167.5,167083.6 96167.5,166948.6 96032,166948.6 96032,166407.5 95897,166407.5 95897,165866.8 95761.9,165866.8 95761.9,165055.1 95626.4,165055.1 95626.4,164243.9 95491.4,164243.9 95491.4,162621.5 95355.9,162621.5 95355.9,158835 95491.4,158835 95491.4,158294.3 95626.4,158294.3 95626.4,156806.9 95761.9,156806.9 95761.9,156130.8 95897,156130.8 95897,155860.2 96032,155860.2 96032,155049 96167.5,155049 96167.5,154507.9 96302.6,154507.9 96302.6,153967.2 96437.7,153967.2 96437.7,153561.6 96573.2,153561.6 96573.2,153156 96708.2,153156 96708.2,152885.4 96843.7,152885.4 96843.7,152344.3 96978.8,152344.3 96978.8,152074.2 97113.8,152074.2 97113.8,151803.6 97249.3,151803.6 97249.3,151533.1 97384.4,151533.1 97384.4,151127.5 97519.4,151127.5 97519.4,150856.9 97654.9,150856.9 97654.9,150451.3 97790,150451.3 97790,150180.7 97925.5,150180.7 97925.5,150045.7 98060.5,150045.7 98060.5,149640.1 98195.6,149640.1 98195.6,149504.6 98331.1,149504.6 98331.1,149234.5 98466.2,149234.5 98466.2,148963.9 98601.2,148963.9 98601.2,148693.4 98736.7,148693.4 98736.7,148558.3 98871.8,148558.3 98871.8,148287.7 99007.3,148287.7 99007.3,148152.7 99142.3,148152.7 99142.3,147882.1 99277.4,147882.1 99277.4,147611.6 99412.4,147611.6 99412.4,147476.5 99547.9,147476.5 99547.9,147206 99683.4,147206 99683.4,147070.9 99818.5,147070.9 99818.5,146800.3 99953.6,146800.3 99953.6,146665.3 100088.6,146665.3 100088.6,146529.8 100224.1,146529.8 100224.1,146259.7 100359.2,146259.7 100359.2,146124.2 100494.2,146124.2 100494.2,145989.1 100629.7,145989.1 100629.7,145718.6 100764.8,145718.6 100764.8,145583.5 100900.3,145583.5 100900.3,145448 101035.3,145448 101035.3,145313 101170.4,145313 101170.4,145042.4 101305.9,145042.4 101305.9,144907.3 101441,144907.3 101441,144772.3 101576,144772.3 101576,144636.8 101711.5,144636.8 101711.5,144501.7 101846.6,144501.7 101846.6,144231.2 101982.1,144231.2 101982.1,144096.1 102117.1,144096.1 102117.1,143960.6 102252.2,143960.6 102252.2,143825.6 102387.7,143825.6 102387.7,143690.5 102522.7,143690.5 102522.7,143555 102658.2,143555 102658.2,143419.9 102793.3,143419.9 102793.3,143284.9 102928.3,143284.9 102928.3,143149.4 103063.8,143149.4 103063.8,143014.3 103198.9,143014.3 103198.9,142878.8 103334,142878.8 103334,142743.8 103469.5,142743.8 103469.5,142608.7 103604.5,142608.7 103604.5,142473.2 103739.6,142473.2 103739.6,142338.2 103875.1,142338.2 103875.1,142202.7 104010.1,142202.7 104010.1,142067.6 104145.6,142067.6 104145.6,141932.5 104415.7,141932.5 104415.7,141797.1 104551.2,141797.1 104551.2,141662 104686.3,141662 104686.3,141391.4 104821.4,141391.4 104821.4,140985.8 104956.9,140985.8 104956.9,140309.7 104821.4,140309.7 104821.4,139904 104686.3,139904 104686.3,139769 104551.2,139769 104551.2,139633.5 104415.7,139633.5 104415.7,139363.4 104280.7,139363.4 104280.7,139227.9 104145.6,139227.9 104145.6,139092.8 104010.1,139092.8 104010.1,138957.8 103875.1,138957.8 103875.1,138822.3 103739.6,138822.3 103739.6,138687.2 103604.5,138687.2 103604.5,138551.7 103469.5,138551.7 103469.5,138416.6 103334,138416.6 103334,138281.6 103198.9,138281.6 103198.9,138146.1 103063.8,138146.1 103063.8,138011 102928.3,138011 102928.3,137875.5 102793.3,137875.5 102793.3,137740.5 102658.2,137740.5 102658.2,137605.4 102522.7,137605.4 102522.7,137469.9 102387.7,137469.9 102387.7,137334.9 102117.1,137334.9 102117.1,137199.8 101982.1,137199.8 101982.1,137064.3 101846.6,137064.3 101846.6,136929.3 101711.5,136929.3 101711.5,136793.8 101576,136793.8 101576,136658.7 101441,136658.7 101441,136523.6 101170.4,136523.6 101170.4,136388.1 101035.3,136388.1 101035.3,136253.1 100900.3,136253.1 100900.3,136118 100764.8,136118 100764.8,135982.5 100629.7,135982.5 100629.7,135847.5 100494.2,135847.5 100494.2,135712 100359.2,135712 100359.2,135576.9 100224.1,135576.9 100224.1,135306.8 100088.6,135306.8 100088.6,135036.2 99953.6,135036.2 99953.6,134630.6 99818.5,134630.6 99818.5,134225 99683.4,134225 99683.4,133143.2 99818.5,133143.2 99818.5,132602.1 99953.6,132602.1 99953.6,132061.5 100088.6,132061.5 100088.6,131926 100224.1,131926 100224.1,131520.3 100359.2,131520.3 100359.2,130979.7 100494.2,130979.7 100494.2,130573.6 100629.7,130573.6 100629.7,130438.6 100764.8,130438.6 100764.8,129897.9 100900.3,129897.9 100900.3,129627.3 101035.3,129627.3 101035.3,129221.7 101170.4,129221.7 101170.4,128816.1 101305.9,128816.1 101305.9,128545.6 101441,128545.6 101441,128275 101576,128275 101576,128004.4 101711.5,128004.4 101711.5,127598.8 101846.6,127598.8 101846.6,127193.2 101982.1,127193.2 101982.1,126922.7 102117.1,126922.7 102117.1,126517.1 102252.2,126517.1 102252.2,126382 102387.7,126382 102387.7,126111.4 102522.7,126111.4 102522.7,125570.8 102658.2,125570.8 102658.2,125300.2 102793.3,125300.2 102793.3,125164.7 102928.3,125164.7 102928.3,124759.5 103063.8,124759.5 103063.8,124489 103198.9,124489 103198.9,124218.4 103334,124218.4 103334,123677.8 103469.5,123677.8 103469.5,123407.2 103604.5,123407.2 103604.5,123136.7 103739.6,123136.7 103739.6,122596 103875.1,122596 103875.1,122189.9 104010.1,122189.9 104010.1,121784.3 104145.6,121784.3 104145.6,121514.2 104280.7,121514.2 104280.7,120838 104415.7,120838 104415.7,120432.4 104551.2,120432.4 104551.2,120161.9 104686.3,120161.9 104686.3,119350.6 104821.4,119350.6 104821.4,118944.6 104956.9,118944.6 104956.9,118268.9 105091.9,118268.9 105091.9,117457.2 105227.4,117457.2 105227.4,116916.5 105362.5,116916.5 105362.5,116105.3 105497.5,116105.3 105497.5,114753 105633,114753 105633,113941.7 105768.1,113941.7 105768.1,112318.8 105903.1,112318.8 105903.1,110696.4 106038.6,110696.4 106038.6,107991.7 106173.7,107991.7 106173.7,104205.7 106038.6,104205.7 106038.6,102853.4 105903.1,102853.4 105903.1,102042.1 105768.1,102042.1 105768.1,101230.9 105633,101230.9 105633,100960.3 105497.5,100960.3 105497.5,100419.7 105362.5,100419.7 105362.5,99878.6 105227.4,99878.6 105227.4,99473 105091.9,99473 105091.9,99337.9 104956.9,99337.9 104956.9,98796.8 104821.4,98796.8 104821.4,98526.2 104686.3,98526.2 104686.3,98256.1 104551.2,98256.1 104551.2,97985.6 104415.7,97985.6 104415.7,97715 104280.7,97715 104280.7,97444.4 104145.6,97444.4 104145.6,97174.3 104010.1,97174.3 104010.1,97038.8 103875.1,97038.8 103875.1,96768.3 103739.6,96768.3 103739.6,96633.2 103604.5,96633.2 103604.5,96362.7 103469.5,96362.7 103469.5,96227.6 103334,96227.6 103334,95957.1 103198.9,95957.1 103198.9,95822 103063.8,95822 103063.8,95686.5 102928.3,95686.5 102928.3,95551.4 102793.3,95551.4 102793.3,95416.4 102658.2,95416.4 102658.2,95145.8 102522.7,95145.8 102522.7,95010.8 102387.7,95010.8 102387.7,94875.3 102252.2,94875.3 102252.2,94740.2 102117.1,94740.2 102117.1,94604.7 101982.1,94604.7 101982.1,94469.7 101846.6,94469.7 101846.6,94334.6 101711.5,94334.6 101711.5,94199.1 101576,94199.1 101576,94064 101305.9,94064 101305.9,93929 101170.4,93929 101170.4,93793.5 101035.3,93793.5 101035.3,93658.4 100900.3,93658.4 100900.3,93522.9 100629.7,93522.9 100629.7,93387.9 100494.2,93387.9 100494.2,93252.8 100224.1,93252.8 100224.1,93117.3 100088.6,93117.3 100088.6,92982.3 99818.5,92982.3 99818.5,92847.2 99683.4,92847.2 99683.4,92711.7 99412.4,92711.7 99412.4,92576.7 99142.3,92576.7 99142.3,92441.2 98871.8,92441.2 98871.8,92306.1 98601.2,92306.1 98601.2,92171 98195.6,92171 98195.6,92036 97925.5,92036 97925.5,91900.5 97654.9,91900.5 97654.9,91765.4 97249.3,91765.4 97249.3,91629.9 96573.2,91629.9 96573.2,91494.9 96032,91494.9 96032,91359.8 95355.9,91359.8 95355.9,91224.3 93598.4,91224.3 "/>
    <path class="fil0 str0" d="M137274.8 173438.8l4732.7 0 0 -68016.3 -4732.7 0 0 68016.3zm-24475.4 0l4732.8 0 0 -68016.3 -4732.8 0 0 68016.3zm16361.8 0l4597.7 0 0 -67881.2 -4597.7 0 0 67881.2zm-8113.1 0l4597.7 0 0 -67881.2 -4597.7 0 0 67881.2zm-13251.5 -75453.2l135.5 0 0 270.5 135 0 0 405.6 135.5 0 0 405.6 135.1 0 0 405.7 135.5 0 0 405.6 135 0 0 405.6 135.5 0 0 676.1 135.5 0 0 811.3 135.1 0 0 676.1 36780.1 0 0 -540.6 135.1 0 0 -946.3 135.5 0 0 -540.7 135.5 0 0 -540.7 135 0 0 -541.1 135.5 0 0 -270.5 135.1 0 0 -540.7 135.5 0 0 -405.6 135.1 0 0 -270.6 135.4 0 0 -135 135.1 0 0 -270.6 -39349.3 0 0 540.7 -1.3 -0.4zm6760.8 -9195l-405.6 0 0 135.1 -270.6 0 0 135.5 -135.5 0 0 135 -135 0 0 135.5 -135.5 0 0 135.1 -135.1 0 0 135.5 -135.5 0 0 270.6 -135 0 0 270.5 -135.5 0 0 270.6 -135.5 0 0 4056.5 4732.7 0 0 -4056.5 -135.5 0 0 -405.6 -135.1 0 0 -270.6 -135.5 0 0 -270.6 -135 0 0 -135 -135.5 0 0 -135.5 -135.1 0 0 -135.1 -270.5 0 0 -135.5 -135.1 0 0 -135 -270.5 0 0 -135.5 -1487.4 0 0 135.5 1.3 -0.5zm24204.8 0l-270.6 0 0 135.1 -135 0 0 135.5 -270.6 0 0 135 -135 0 0 135.5 -135.5 0 0 135.1 -135.1 0 0 270.6 -135.5 0 0 270.5 -135 0 0 540.7 -135.5 0 0 3921.5 4732.7 0 0 -4056.6 -135.5 0 0 -270.5 -135.5 0 0 -270.6 -135.1 0 0 -270.5 -135.4 0 0 -135.5 -135.1 0 0 -135.1 -135.5 0 0 -135.5 -135.1 0 0 -135 -135.5 0 0 -135.5 -270.5 0 0 -135.1 -405.6 0 0 -135.5 -1487.4 0 0 135.5 1.3 0.4zm-16226.7 0l-270.6 0 0 135.1 -270.5 0 0 135.5 -135.5 0 0 135 -135.1 0 0 135.5 -135.5 0 0 135.1 -135 0 0 270.6 -135.5 0 0 135.5 -135.1 0 0 270.5 -135.5 0 0 4191.6 4597.7 0 0 -4191.6 -135.5 0 0 -135 -135.1 0 0 -270.6 -135.5 0 0 -270.6 -135 0 0 -135 -135.5 0 0 -135.5 -135.1 0 0 -135.1 -270.5 0 0 -135.5 -135.1 0 0 -135 -270.6 0 0 -135.5 -1622.4 0 0 135.5 0.9 -0.5zm8113.6 0l-270.6 0 0 135.1 -135.1 0 0 135.5 -270.5 0 0 135 -135.1 0 0 135.5 -135.5 0 0 135.1 -135 0 0 270.6 -135.5 0 0 270.5 -135.1 0 0 405.6 -135.5 0 0 3921.5 4597.7 0 0 -4191.6 -135.5 0 0 -270.5 -135.1 0 0 -270.6 -135.5 0 0 -135.5 -135 0 0 -135.1 -135.5 0 0 -135.5 -135.1 0 0 -135 -135.5 0 0 -135.5 -270.5 0 0 -135.1 -270.6 0 0 -135.5 -1622.4 0 0 135.5 0.9 0z"/>
   </g>
  </g>
 </g>
</svg>