<?xml version="1.0" encoding="UTF-8"?>
<!DOCTYPE svg PUBLIC "-//W3C//DTD SVG 1.1//EN" "http://www.w3.org/Graphics/SVG/1.1/DTD/svg11.dtd">
<!-- Creator: CorelDRAW (Versão OEM) -->
<svg xmlns="http://www.w3.org/2000/svg" xml:space="preserve" version="1.1" style="shape-rendering:geometricPrecision; text-rendering:geometricPrecision; image-rendering:optimizeQuality; fill-rule:evenodd; clip-rule:evenodd" viewBox="-276.83 -276.84 15938.23 14850.95" xmlns:xlink="http://www.w3.org/1999/xlink" xmlns:xodm="http://www.corel.com/coreldraw/odm/2003">
 <defs>
  <style type="text/css">
   <![CDATA[
    .str1 {stroke:#FEFEFE;stroke-width:74.16;stroke-miterlimit:22.9256}
    .str2 {stroke:#FEFEFE;stroke-width:59.32;stroke-miterlimit:22.9256}
    .str0 {stroke:#373435;stroke-width:59.32;stroke-miterlimit:22.9256}
    .fil2 {fill:none}
    .fil6 {fill:#FEFEFE}
    .fil7 {fill:#373435}
    .fil3 {fill:#1E2A50}
    .fil8 {fill:#D2AE38}
    .fil1 {fill:#FEFEFE;fill-rule:nonzero}
    .fil0 {fill:#373435;fill-rule:nonzero}
    .fil5 {fill:#373435;fill-rule:nonzero}
    .fil4 {fill:#1E2A50;fill-rule:nonzero}
   ]]>
  </style>
 </defs>
 <g id="Camada_x0020_1">
  <metadata id="CorelCorpID_0Corel-Layer"/>
  <polygon class="fil0" points="15132.42,1440.02 6442.89,1440.02 6442.89,8526.5 15132.42,8526.5 "/>
  <path class="fil1 str0" d="M14909.95 1662.46l-8244.62 0 0 6641.54 8244.62 0 0 -6641.54zm-8467.09 -444.94l8912.03 0 0 7531.42 -9134.49 0 0 -7531.42 222.47 0z"/>
  <polyline class="fil2 str1" points="10492.53,4116.47 11119.74,2616.64 11634.68,3582.9 12322.97,2538.6 12871.1,3273.9 13454.48,2507.96 "/>
  <rect class="fil3 str2" x="7312.41" y="2075.14" width="1378.65" height="5284.75"/>
  <path id="person_add_24dp_E3E3E3_FILL0_wght400_GRAD0_opsz24.svg" class="fil4 str2" d="M5753.24 3307.99c237.15,-237.15 355.74,-522.39 355.74,-855.47 0,-333.29 -118.59,-618.31 -355.74,-855.7 -237.18,-237.15 -522.39,-355.74 -855.47,-355.74 -333.32,0 -618.31,118.59 -855.7,355.74 -237.15,237.39 -355.74,522.42 -355.74,855.7 0,333.08 118.59,618.31 355.74,855.47 237.15,237.18 522.39,355.74 855.7,355.74 333.08,0 618.08,-118.56 855.47,-355.74z"/>
  <path id="person_add_24dp_E3E3E3_FILL0_wght400_GRAD0_opsz24.svg_8" class="fil5 str2" d="M29.75 9376.12c0,-527.1 88.78,-1011.31 266.1,-1453.05 177.53,-441.7 413.26,-778.7 707.42,-1010.96 628.76,-480.35 1267.65,-840.55 1916.88,-1080.87 649.01,-240.03 1308.14,-360.22 1977.63,-360.22 669.24,0 1328.37,120.19 1977.36,360.22 649.25,240.33 1288.15,600.52 1916.91,1080.87 294.16,232.26 529.86,569.25 707.42,1010.96 177.32,441.73 266.1,925.94 266.1,1452.69 0,1630.75 -0.12,3261.12 -0.12,4891.84l-9735.78 0c0,-1630.6 0.09,-3260.85 0.09,-4891.49z"/>
  <path id="person_add_24dp_E3E3E3_FILL0_wght400_GRAD0_opsz24.svg_9" class="fil5 str2" d="M3186.61 4163.45c-474.54,-474.3 -711.72,-1044.77 -711.72,-1710.93 0,-666.37 237.18,-1236.6 711.72,-1711.17 474.54,-474.3 1044.77,-711.69 1711.17,-711.69 666.13,0 1236.39,237.39 1710.93,711.69 474.54,474.57 711.72,1044.8 711.72,1711.17 0,666.16 -237.18,1236.63 -711.72,1710.93 -474.54,474.57 -1044.8,711.72 -1710.93,711.72 -666.4,0 -1236.63,-237.15 -1711.17,-711.72z"/>
  <polygon class="fil6 str2" points="4897.6,9400.15 5904.22,7815.82 6647.45,5901.67 4955.47,5687.57 3147.78,5901.67 3833.13,7700.14 "/>
  <polygon class="fil7 str2" points="4891.93,6202.81 5142.55,5913.45 5405.78,5609.5 4879.33,5609.5 4352.88,5609.5 4616.07,5913.45 4866.69,6202.81 4526.46,8807.38 4759.31,9429.13 4999.31,9429.13 5318.48,8737.76 "/>
  <g id="_2637731554176">
   <polygon class="fil3 str2" points="2279.2,9924.55 7602.4,9924.55 7602.4,13856.52 2279.2,13856.52 "/>
   <path class="fil4 str2" d="M2194.37 9754.88l5576.13 0 0 4271.3 -5745.8 0 0 -4271.3 169.67 0zm2703.23 1767.56l1822.49 -1340.42 -3644.98 0 1822.49 1340.42zm1269.55 -513.46l-1269.55 933.71 -2513.27 -1848.45 -20.26 0 0 3592.57 5067.09 0 0 -3592.57 -20.26 0 -1243.75 914.73z"/>
  </g>
  <g id="_2637731556768">
   <path class="fil6 str2" d="M3599.57 12309.59c-236.17,0 -427.64,173.23 -427.64,386.92 0,213.66 191.47,386.89 427.64,386.89 236.17,0 427.61,-173.23 427.61,-386.89 0,-213.69 -191.44,-386.92 -427.61,-386.92z"/>
   <path class="fil6 str2" d="M6195.66 12309.59c-236.17,0 -427.64,173.23 -427.64,386.92 0,213.66 191.47,386.89 427.64,386.89 236.17,0 427.61,-173.23 427.61,-386.89 0,-213.69 -191.44,-386.92 -427.61,-386.92z"/>
  </g>
  <path class="fil6 str2" d="M4897.6 10392.24c-236.17,0 -427.61,173.2 -427.61,386.89 0,213.69 191.44,386.92 427.61,386.92 236.17,0 427.64,-173.23 427.64,-386.92 0,-213.69 -191.47,-386.89 -427.64,-386.89z"/>
  <rect class="fil3 str2" x="9859.14" y="4966.54" width="4476.33" height="366.94" rx="470.26" ry="470.26"/>
  <rect class="fil3 str2" x="9859.14" y="5907.05" width="4476.33" height="366.94" rx="470.26" ry="470.26"/>
  <rect class="fil8 str2" x="9859.14" y="6847.52" width="4476.33" height="366.94" rx="470.26" ry="470.26"/>
  <rect class="fil2 str2" x="9105.48" y="2105.71" width="5177.48" height="2437.81"/>
  <circle class="fil2 str2" cx="9275.76" cy="5150.05" r="254.97"/>
  <circle class="fil3 str2" cx="9275.76" cy="6090.57" r="254.97"/>
  <circle class="fil8 str2" cx="9275.76" cy="7031.08" r="254.97"/>
 </g>
</svg>