<?xml version="1.0" encoding="UTF-8"?>
<!DOCTYPE svg PUBLIC "-//W3C//DTD SVG 1.1//EN" "http://www.w3.org/Graphics/SVG/1.1/DTD/svg11.dtd">
<!-- Creator: CorelDRAW (Versão OEM) -->
<svg xmlns="http://www.w3.org/2000/svg" xml:space="preserve" width="210mm" height="297mm" version="1.1" style="shape-rendering:geometricPrecision; text-rendering:geometricPrecision; image-rendering:optimizeQuality; fill-rule:evenodd; clip-rule:evenodd"
viewBox="0 0 210000 297000"
 xmlns:xlink="http://www.w3.org/1999/xlink"
 xmlns:xodm="http://www.corel.com/coreldraw/odm/2003">
 <defs>
  <style type="text/css">
   <![CDATA[
    .fil3 {fill:#373435;fill-rule:nonzero}
    .fil1 {fill:black;fill-rule:nonzero}
    .fil0 {fill:#009EE1;fill-rule:nonzero}
    .fil2 {fill:#1E2A50;fill-rule:nonzero}
    .fil4 {fill:#AF7104;fill-rule:nonzero}
   ]]>
  </style>
 </defs>
 <g id="Camada_x0020_1">
  <metadata id="CorelCorpID_0Corel-Layer"/>
  <g id="_2193197300800">
   <path class="fil0" d="M138669.7 83080l44349.6 0 0 -4927.7 -44349.6 0 0 4927.7zm4927.5 2956.6l34494.4 0c1355.1,0 2463.9,-1108.7 2463.9,-2463.8l-39421.9 0c0,1355.1 1108.5,2463.8 2463.6,2463.8zm5377.2 5323l24638.6 0c2710.3,0 4927.8,-2217.5 4927.8,-4927.8l-34494.2 0c0,2710.3 2217.5,4927.8 4927.8,4927.8zm-10304.7 87811.2l44349.6 0 0 4927.7 -44349.6 0 0 -4927.7zm4927.5 -2956.6l34494.4 0c1355.1,0 2463.9,1108.7 2463.9,2463.8l-39421.9 0c0,-1355.1 1108.5,-2463.8 2463.6,-2463.8zm5377.2 -5323l24638.6 0c2710.3,0 4927.8,2217.5 4927.8,4927.7l-34494.2 0c0,-2710.2 2217.5,-4927.7 4927.8,-4927.7zm9543.3 -74039.2l-5338.5 0 0 68546.8 5338.5 0 0 -68546.8zm9992.2 0l-5338.5 0 0 68546.8 5338.5 0 0 -68546.8zm-17657.8 -5148.5l22311.8 0 0 78843.8 -24638.7 0 0 -78843.8 2326.9 0zm-125273.8 -8623.5l44349.6 0 0 -4927.7 -44349.6 0 0 4927.7zm4927.4 2956.6l34494.4 0c1355.1,0 2463.9,-1108.7 2463.9,-2463.8l-39421.9 0c0,1355.1 1108.5,2463.8 2463.6,2463.8zm5377.2 5323l24638.7 0c2710.2,0 4927.7,-2217.5 4927.7,-4927.8l-34494.1 0c0,2710.3 2217.4,4927.8 4927.7,4927.8zm-10304.6 87811.2l44349.6 0 0 4927.7 -44349.6 0 0 -4927.7zm4927.4 -2956.6l34494.4 0c1355.1,0 2463.9,1108.7 2463.9,2463.8l-39421.9 0c0,-1355.1 1108.5,-2463.8 2463.6,-2463.8zm5377.2 -5323l24638.7 0c2710.2,0 4927.7,2217.5 4927.7,4927.7l-34494.1 0c0,-2710.2 2217.4,-4927.7 4927.7,-4927.7zm9543.3 -74039.2l-5338.5 0 0 68546.8 5338.5 0 0 -68546.8zm9992.2 0l-5338.5 0 0 68546.8 5338.5 0 0 -68546.8zm-17657.8 -5148.5l22311.8 0 0 78843.8 -24638.7 0 0 -78843.8 2326.9 0zm-25857.1 92641.4l184790 0 0 14783.2 -184790 0 0 -14783.2zm92395.3 -136601.7l46197.7 14783.2 46197.3 14783.2 -92395 0 -92395 0 46197.2 -14783.2 46197.8 -14783.2z"/>
   <path class="fil1" d="M138916.1 82833.6l43856.8 0 0 -4435 -43856.8 0 0 4435zm44103.2 492.8l-2217.4 0 0 246.4c0,745.5 -305.1,1423.3 -795.9,1914.1 -332.8,332.9 -751.5,580.3 -1218.9,705l0 239.9c0,1423.2 -582.2,2716.9 -1519.7,3654.4 -937.5,937.5 -2231.2,1519.8 -3654.4,1519.8l-202.7 0 0 79038.8 202.7 0c1423.2,0 2716.9,582.2 3654.4,1519.7 937.5,937.5 1519.7,2231.3 1519.7,3654.4l0 240c467.4,124.7 886.1,372.1 1218.9,704.9 490.8,490.8 795.9,1168.7 795.9,1914.2l0 246.4 2463.8 0 0 5174.1 13674.2 0 0 15276 -185282.7 0 0 -15276 13674.7 0 0 -5174.1 2463.8 0 0 -246.4c0,-744.6 305.1,-1422.4 795.9,-1913.4 490.8,-491.8 1168.6,-796.8 1914.1,-796.8l203.1 0 0 -148.9c0,-1423.1 582.2,-2716.9 1519.7,-3654.4 782.3,-782.2 1812.4,-1316.9 2958.8,-1472.6l0 -79133c-1146.4,-155.7 -2176.5,-690.4 -2958.8,-1472.7 -937.5,-937.5 -1519.7,-2231.2 -1519.7,-3654.4l0 -148.8 -203.1 0c-745.5,0 -1423.3,-305 -1914.1,-795.8 -490.8,-492 -795.9,-1169.9 -795.9,-1914.4l0 -246.4 -2463.8 0 0 -5420.5 44842.3 0 0 5420.5 -2463.8 0 0 246.4c0,744.1 -304.8,1421.9 -796.1,1913.2 -333.6,333.6 -752,580.9 -1218.6,705.6l0 240.2c0,1423.2 -582.2,2716.9 -1519.7,3654.4 -937.5,937.5 -2231.3,1519.8 -3654.4,1519.8l-202.8 0 0 79038.8 202.8 0c1423.1,0 2716.9,582.2 3654.4,1519.7 937.5,937.5 1519.7,2231.3 1519.7,3654.4l0 240.3c466.6,124.6 885,372 1217.6,704.6 492.3,492.3 797.1,1170.1 797.1,1914.2l0 246.4 2463.8 0 0 5174.1 68249.1 0 0 -5174.1 2463.9 0 0 -246.4c0,-744.6 305,-1422.4 795.8,-1913.4 490.8,-491.8 1168.7,-796.8 1914.2,-796.8l203 0 0 -148.9c0,-1423.1 582.3,-2716.9 1519.8,-3654.4 782.2,-782.2 1812.4,-1316.9 2958.8,-1472.6l0 -79133c-1146.4,-155.7 -2176.6,-690.4 -2958.8,-1472.7 -937.5,-937.5 -1519.8,-2231.2 -1519.8,-3654.4l0 -148.8 -203 0c-745.5,0 -1423.4,-305 -1914.2,-795.8 -490.8,-492 -795.8,-1169.9 -795.8,-1914.4l0 -246.4 -2463.9 0 0 -5420.5 44842.4 0 0 5420.5 -246.4 0zm-39422.1 2463.8l34494.4 0c609.6,0 1163.9,-249.5 1566,-651.6 346.7,-346.7 580.3,-807.7 637.7,-1319.4l-38901.5 0c57.1,511.9 290.7,973.2 637.1,1320.1 402.1,401.1 956.8,650.9 1566.3,650.9zm5377.2 5323l24638.6 0c1287.2,0 2457.7,-527 3306,-1375.3 793.9,-793.9 1306.4,-1869.9 1369,-3059.7l-33988.6 0c62.6,1189.8 575.1,2265.8 1368.9,3059.7 848.4,848.3 2018.9,1375.3 3306.1,1375.3zm33798.5 88304l-43856.8 0 0 4434.9 43856.8 0 0 -4434.9zm-4681.3 -2956.7l-34494.4 0c-609.5,0 -1164.2,249.9 -1565.8,651.5 -346.9,346.4 -580.5,807.6 -637.6,1319.6l38901.5 0c-57.4,-511.7 -291,-972.7 -637.7,-1319.4 -402.1,-402.1 -956.4,-651.7 -1566,-651.7zm-4478.6 -5322.9l-24638.6 0c-1287.2,0 -2457.7,527 -3306.1,1375.3 -793.8,793.9 -1306.3,1869.9 -1368.9,3059.7l33988.6 0c-62.6,-1189.8 -575.1,-2265.8 -1369,-3059.7 -848.3,-848.3 -2018.8,-1375.3 -3306,-1375.3zm-15341.7 -74039.2l-4845.7 0 0 68054 4845.7 0 0 -68054zm-5092.1 -492.8l5584.8 0 0 69039.6 -5831.2 0 0 -69039.6 246.4 0zm15084.3 492.8l-4845.7 0 0 68054 4845.7 0 0 -68054zm-5092.1 -492.8l5584.9 0 0 69039.6 -5831.3 0 0 -69039.6 246.4 0zm9746.1 -4655.7l-24145.9 0 0 78351 24145.9 0 0 -78351zm-147092.9 -9116.3l43856.9 0 0 -4435 -43856.9 0 0 4435zm4681.1 2956.6l34494.4 0c610.1,0 1164.7,-249.3 1565.8,-650.7 347.7,-347.4 580.7,-808.1 637.9,-1320.3l-38901.5 0c57.2,511.9 290.7,973.2 637.2,1320.1 402.1,401.1 956.7,650.9 1566.2,650.9zm5377.2 5323l24638.7 0c1287.1,0 2457.7,-527 3306,-1375.3 793.8,-793.9 1306.3,-1869.9 1368.9,-3059.7l-33988.6 0c62.6,1189.8 575.1,2265.8 1369,3059.7 848.3,848.3 2018.9,1375.3 3306,1375.3zm33798.6 88304l-43856.9 0 0 4434.9 43856.9 0 0 -4434.9zm-4681.4 -2956.7l-34494.4 0c-609.5,0 -1164.1,249.9 -1565.7,651.5 -347,346.4 -580.5,807.6 -637.7,1319.6l38901.5 0c-57.2,-512.2 -290.2,-972.9 -636.9,-1319.4 -402.1,-402.3 -956.7,-651.7 -1566.8,-651.7zm-4478.5 -5322.9l-24638.7 0c-1287.1,0 -2457.7,527 -3306,1375.3 -793.9,793.9 -1306.4,1869.9 -1369,3059.7l33988.6 0c-62.6,-1189.8 -575.1,-2265.8 -1368.9,-3059.7 -848.3,-848.3 -2018.9,-1375.3 -3306,-1375.3zm-15341.8 -74039.2l-4845.7 0 0 68054 4845.7 0 0 -68054zm-5092.1 -492.8l5584.9 0 0 69039.6 -5831.3 0 0 -69039.6 246.4 0zm15084.3 492.8l-4845.7 0 0 68054 4845.7 0 0 -68054zm-5092.1 -492.8l5584.9 0 0 69039.6 -5831.3 0 0 -69039.6 246.4 0zm9746.1 -4655.7l-24145.9 0 0 78351 24145.9 0 0 -78351zm136621.2 92641.4l-184297.3 0 0 14290.4 184297.3 0 0 -14290.4zm-92073.3 -137081.9l93895.5 30046.6 -187941.2 0c31321.9,-10024 62631.2,-20103.4 93970.6,-30070.5l75.1 23.9zm46047.5 15250.8l-46122.6 -14759 -90819.1 29062 181638.2 0 -44696.5 -14303z"/>
   <path class="fil2" d="M111544.2 135839.4c0,966.5 137.3,1683.8 662.2,1932.2 83,110.3 83,331.5 -27.2,414.6 -304.4,0 -801.2,110.2 -1326,220.4 -1711,413.8 -3782.3,746.1 -5355.1,746.1 -3313.3,0 -6431.7,-883.4 -8501.3,-3036.1 -1628.8,-1683.8 -2430,-4002.7 -2430,-6321.5 0,-2318.9 801.2,-4692 2540.2,-6486.1 1959.3,-2071.3 4968.4,-3257.4 8804.9,-3257.4 1297.2,0 2704.6,221.3 3671.2,413.7 634.2,137.4 1435.4,248.4 1766.9,248.4 28,828.4 220.4,2235.8 358.6,4389.4 -138.2,275.5 -745.2,303.5 -882.6,55.1 -607.9,-2677.5 -2567.3,-4002.7 -5300.7,-4002.7 -4858.2,0 -7204.2,3505.8 -7204.2,8198.7 0,2207.8 496.8,4582.6 1986.5,6348.7 1490.5,1766.9 3699.2,2346 5327.9,2346 1324.3,0 2125.5,-219.6 2457,-634.2 166.2,-248.4 248.5,-745.3 248.5,-1739l0 -993.6c0,-1959.4 -27.2,-2125.6 -1877.2,-2429.1l-993.7 -165.3c-193.3,-193.4 -193.3,-661.4 28,-800.4 1076.8,55.9 2401.1,83.1 4305.4,83.1 1242.9,0 2180.7,-27.2 3368.5,-83.1 275.5,139 303.5,607 55.1,800.4l-496.9 83c-1021.6,165.4 -1187,385.8 -1187,2069.7l0 1601.5 1 -2.5z"/>
   <path class="fil3" d="M111658.4 135839.3c0,473.2 33.3,883.9 129.5,1202.9 90.4,300 237.5,517.6 467.2,626.3l18.6 8.9c8.8,8.7 16.3,15.7 23.9,25.5 57.1,75.9 85.8,186.7 81.6,290.6 -4.7,111.3 -46.6,219.9 -131.1,283.8l-30.8 23.2 -38 0c-269.9,0 -708.1,92.4 -1180.3,192l-122.6 25.8c-905.2,218.6 -1910.6,414.9 -2889.6,551.2 -881.3,122.8 -1741.6,197.6 -2488.7,197.6 -1742,0 -3431.7,-242.9 -4946.6,-784 -1390.9,-496.7 -2634.7,-1245 -3636.9,-2287.5 -805.4,-832.6 -1411.4,-1818.8 -1820.5,-2883.3 -428.9,-1115.9 -641.7,-2317.2 -641.7,-3517.2 0,-1211.1 216.3,-2437.4 667.9,-3590.2 422.9,-1080.2 1052.9,-2096.3 1904.9,-2975.3 1005,-1061.6 2281.4,-1893.5 3799.4,-2455.1 1475.7,-546 3180.8,-837.3 5087.2,-837.3 567.7,0 1157.8,42.4 1723.6,106.1 733,82.7 1422.6,201.1 1970,310l1.8 0.4c313.9,67.9 666.4,129.1 980.8,173.3 318,44.7 598.9,72.4 762,72.4l110.1 0 3.8 110.8c12.8,382.3 61.5,892.7 123.7,1545.3 71.6,753.1 161.4,1694.6 234.9,2840.4l1.9 30.3 -13.9 27.8c-41.5,82.6 -111.1,147.8 -196.1,194.5 -102.8,56.9 -231.7,88.5 -358,93.2 -127,4.7 -254.9,-17.8 -355.5,-68.2 -74.8,-37.4 -135.9,-90.9 -174.5,-160.4l-8.3 -14.9 -3.3 -15c-292.1,-1286.6 -901.9,-2253.4 -1762.2,-2903 -893.4,-674.7 -2061,-1010.4 -3427.4,-1010.4 -2294.8,0 -4018.5,792.1 -5189.4,2124.5 -1274.5,1450.5 -1900.4,3544.9 -1900.4,5959.8 0,1175.9 141.9,2398.7 501.6,3548.5 309,987.3 779,1921.7 1457.8,2726.5 655.2,777 1452.9,1320.4 2277.4,1683.4 1017.9,448.1 2077.6,622 2963.3,622 647.1,0 1165.2,-52.6 1560.6,-154.4 385,-99.5 650.9,-244.1 803,-430.8 72.9,-109.9 128.5,-281 167,-541.1 40.3,-273.2 60.5,-640.5 60.5,-1132.4l0 -993.8c0,-955.4 -6.2,-1473.3 -222.5,-1768 -213.7,-291.5 -665,-402.1 -1558.5,-548.6l-1030.8 -171.3 -25.5 -25.6c-25.7,-25.8 -49.3,-55.7 -69.8,-88.7 -74.6,-119.2 -110.1,-278.3 -104.3,-428.6 6.1,-156.5 56.7,-308.8 154.2,-406.3 20.1,-20.1 43,-38.6 68.5,-54.5l29.9 -18.8 36.2 1.9c539.9,27.9 1139.2,48.8 1838.3,62.4 688.4,13.5 1495,20.1 2461.2,20.1 631.9,0 1176.1,-6.6 1702.2,-20.1 533.8,-13.5 1065,-34.5 1660.9,-62.4l30 -1.4 26.7 13.4c64.9,32.7 119.8,79.8 163.2,135.5 72.1,92.1 113.3,209.4 122.8,329 9.3,118.1 -12.1,241.4 -65.3,346.9 -34.8,69.1 -83.9,131.4 -146.8,180.5l-23.3 18 -524.9 87.8c-476.3,77 -750.9,163.4 -897.1,411 -156.1,264.2 -194.4,725.1 -194.4,1546.1l0 926.3 0.9 -2.6 0 675.3zm-89.3 1268c-58.3,-193.3 -95.2,-414.5 -116.2,-659l-24 69.2 0 -2277.2c0,-862.5 44.6,-1354.2 226.6,-1662.2 191.7,-324.6 511,-431.5 1056,-519.7l465.9 -78.1c25.6,-24.3 46.6,-53.7 62.9,-86.1 34,-67.3 47.5,-147.9 41.3,-226.3 -6.1,-76.8 -31.4,-150.7 -75,-206.7 -17.4,-22.9 -38.4,-42.8 -62.4,-58.4 -578.4,27 -1100.9,47.3 -1633.2,60.8 -550.1,14.1 -1096.5,21 -1707.5,21 -938,0 -1746.1,-6.9 -2465.4,-21 -689.2,-13.4 -1277.8,-33.6 -1803.7,-60.2l-3.3 3.2c-55.1,55.1 -84.3,150.5 -88.2,252.6 -4.1,108 19.7,219.6 70,299.6l16.1 23 953.6 158.7c956,156.7 1443.6,281.5 1705.6,638.6 259.6,353.7 267,899.1 267,1902.9l0 993.8c0,501.7 -21.1,880 -63.2,1165.5 -43.9,296.9 -112.4,498.5 -204.8,636.9l-5.9 7.5c-183.1,228.9 -490.3,401.8 -928.1,514.9 -416.3,107.3 -953.4,162.5 -1617.7,162.5 -912.5,0 -2005,-179.3 -3055.3,-641.6 -853.7,-376 -1679.9,-939 -2359.6,-1744.9 -700,-829.8 -1183.9,-1791.2 -1501.5,-2806.1 -367.4,-1174.2 -512.3,-2420.3 -512.3,-3616.4 0,-2468.7 644.7,-4615.7 1957.5,-6109.7 1214.3,-1381.9 2995.4,-2203.2 5360.9,-2203.2 1416.3,0 2630.5,351.1 3565,1056.8 899.1,678.8 1536.4,1683.6 1842.8,3017 15.6,21.4 39.8,39.8 69.6,54.8 66,33 154.7,47.6 245.8,44.2 91.8,-3.4 184.2,-25.6 256.3,-65.5 36.6,-20.1 67.1,-44.7 87.8,-73.1 -73.6,-1137.3 -161.3,-2059.3 -231.7,-2798.4 -57,-597.5 -102.6,-1076.8 -120.3,-1451.9 -173.4,-8.6 -416.2,-34.6 -683.8,-72.2 -323.6,-45.4 -682.6,-107.6 -997.8,-175.9 -543.8,-108.2 -1226.8,-225.6 -1948.5,-306.9 -556,-62.6 -1137.2,-104.2 -1698.6,-104.2 -1879.3,0 -3557.8,286.3 -5008.6,823 -1485.9,549.8 -2733.6,1362.3 -3713.6,2398.3l-0.9 1.3c-829.6,855.9 -1443.4,1846.1 -1855.8,2899.4 -440.7,1125.2 -651.8,2323.2 -651.8,3507.2 0,1174.3 207.3,2348 625.6,3436 398.2,1036 988,1995.9 1772.2,2806.5 976.1,1015.2 2190.1,1745 3549.4,2230.4 1488.9,531.6 3152.5,770.5 4869.8,770.5 739.1,0 1588.3,-73.8 2457.3,-194.8 973.6,-135.6 1972.5,-330.6 2871.1,-547.8l126.1 -26.8c458.2,-96.6 885.7,-186.7 1176.9,-196.3 13.3,-22.6 20.5,-54.5 22,-88.7 1.8,-45.2 -6.6,-90.7 -24.1,-124.4 -277.2,-143.2 -452.9,-402.9 -558.3,-752.4z"/>
   <polygon class="fil2" points="103992.4,165804.9 64735.3,126875 64735.3,126277.3 103648.1,149523.6 143819.2,125373.5 143803.1,125967.8 "/>
   <path class="fil3" d="M103912 165885.7l-39291.1 -38963.5 0 -845.8 39027 23314.4 40290.8 -24222.1 -23 847.7c-13312.1,13312.1 -26610.9,26637.2 -39923,39949.3l-80.7 -80zm-39062.4 -39057.8l39142.4 38816.1 39698.5 -39724.8 9.3 -341 -40051.5 24078.2 -38798.7 -23178.1 0 349.6z"/>
   <path class="fil0" d="M103992.4 165205.5l-39272.4 -38935 6575 -31.4c0,0 2318.9,-1629.5 3963.8,-1738.1 1055.5,-70.3 1962.7,701.2 1962.7,701.2l2031.5 -1192.9 24394.3 24515.6 26197.7 -25185.4 1846.6 660.5c0,0 819,-250.1 2217.1,-78 1398.1,172.9 3238.8,1772 4728.5,1694.8 919.9,95 5214.2,-270.4 5214.2,-270.4l-39859 39859.9 0 -0.8z"/>
   <path class="fil0" d="M103878.1 165252.7l-39433.4 -39094.7 6814 -32.6c272.1,-187.1 2421.7,-1634.4 3992.5,-1738.2 935.3,-62.3 1752.9,503.3 1980.4,677.2l2040 -1198.1 24377.4 24498.8 26167.9 -25156.9 1879.1 672.1c173.4,-45.4 973.3,-226 2226.5,-71.7 641.8,79.3 1360.9,443.6 2097.5,816.6 893.9,452.5 1815.2,919.1 2611.3,877.8l17.5 0.4c907.5,93.6 5181.1,-270 5193.3,-270.9l310.7 -25.8 -40274.7 40275.5 0 -229.5zm-38882.7 -38869.6l38996.7 38661.8 39558.3 -39559.1c-999.9,81.2 -4120.3,323.2 -4915.9,245.2 -854.6,40.9 -1800,-437.7 -2717.2,-902.1 -718.4,-363.9 -1419.6,-719.1 -2022.4,-793.5 -1374.5,-169.2 -2169.8,73.9 -2172.1,74.4l-35.2 10.1 -1814.8 -649.1 -26227.4 25213.9 -24410.9 -24532.6 -2024.3 1188.9 -61.5 -50.8c-2.4,-1.9 -873.4,-742.4 -1882.4,-675.3 -1612.4,106.4 -3899.4,1713.4 -3906,1718l-28.7 20 -6336.2 30.2z"/>
   <polygon class="fil2" points="104061.1,155793.5 73172.2,125152.2 73547,124983.5 104060.2,155229.7 135021.1,124272.1 135401.8,124440.9 104061.1,155793.5 "/>
   <path class="fil3" d="M103980.7 155874.3l-31006.4 -30757.9 597.3 -269.1 30488 30221.3 30936 -30932.6 604.3 268c-10514.7,10514.7 -21016.5,21043.1 -31538.6,31550.3l-80.6 -80zm-30610.4 -30686.1l30690.4 30444.4 31143 -31154.7 -157.1 -69.6 -30985.9 30982.3 -30538.2 -30271 -152.2 68.6z"/>
   <rect class="fil0" transform="matrix(0.226748 -0.226432 0.226432 0.226748 70449 131755)" width="18184.8" height="1928.8"/>
   <path class="fil3" d="M70885.8 132030.7l3962.2 -3956.5 -275.7 -276.1 -3962.1 3956.5 275.6 276.1zm4203.7 -3875.6l-4203.9 4198.1 -597.6 -598.8c1427.1,-1427.1 2855.3,-2853.4 4284.5,-4278.6l598 598.6 -81 80.7z"/>
   <polygon class="fil0" points="84036.6,145346.3 83599.9,144908.8 87718.8,140789.1 88157.1,141225.7 "/>
   <path class="fil3" d="M83955.7 145426.6l-516.8 -518c1426.6,-1426.6 2852,-2854.7 4279.7,-4280.5l600.2 597.8c-1428.3,1426.3 -2854.7,2854.4 -4282,4281.7l-81.1 -81zm-194.7 -517.7l275.4 275.8 3959.2 -3959.1 -276.8 -275.5 -3957.8 3958.8z"/>
   <polygon class="fil0" points="77462.3,138771.2 77024,138333.7 81143.7,134213.2 81581.2,134650.7 "/>
   <path class="fil3" d="M77382 138852l-519.4 -518.4c1426.2,-1428.2 2853.8,-2854.8 4281.1,-4282l598.9 598.9 -4280.1 4281.9 -80.5 -80.4zm-196.5 -518.2l276.8 276.3 3957.4 -3959.2 -276 -276 -3958.2 3958.9z"/>
   <rect class="fil0" transform="matrix(0.22659 -0.22659 0.22659 0.22659 90175.2 151484)" width="18182.2" height="1931.5"/>
   <path class="fil3" d="M90612.8 151760l3958.3 -3958.3 -276 -275.9 -3958.2 3958.2 275.9 276zm4200.8 -3877.5l-4200.8 4200.8 -599.2 -599.3 4281.5 -4281.5 599.3 599.2 -80.8 80.8z"/>
   <rect class="fil0" transform="matrix(0.226669 -0.226511 0.226511 0.226669 96751.2 158056)" width="18465.3" height="1931.5"/>
   <path class="fil3" d="M97188.8 158332.9l4024.2 -4021.5 -276.3 -276.5 -4024.3 4021.4 276.4 276.6zm4265.8 -3940.7l-4265.9 4263 -598.6 -599.1 4346.7 -4343.6 598.7 598.9 -80.9 80.8z"/>
   <rect class="fil0" transform="matrix(0.22659 -0.22659 0.22659 0.22659 73735.9 135045)" width="9093.7" height="1931.5"/>
   <path class="fil3" d="M74173.5 135321.4l1899.3 -1899.1 -276.1 -276 -1899.1 1899.1 275.9 276zm2141.5 -1818.1l-2141.5 2141.4 -599.2 -599.3 2221.9 -2221.8 599.5 599.1 -80.7 80.6z"/>
   <rect class="fil0" transform="matrix(0.226234 -0.226946 0.226946 0.226234 80314.1 141621)" width="9091.1" height="1928.8"/>
   <path class="fil3" d="M80751.6 141896.2l1895.8 -1901.8 -276.3 -275.4 -1895.8 1901.8 276.3 275.4zm2137.8 -1821.7l-2137.3 2144.2 -599.1 -597.3c738.3,-742.5 1478.2,-1483.4 2217.6,-2224.8l599.1 597.3 -80.3 80.6z"/>
   <polygon class="fil0" points="87324.5,148634.3 86887,148196.7 88947.3,146136.5 89384.8,146574 "/>
   <path class="fil3" d="M87243.7 148715.1l-518.1 -518.3 2221.7 -2222.1 599.1 599.2 -2221.7 2222 -81 -80.8zm-195 -518.3l275.9 275.8 1898.5 -1898.6 -275.8 -275.9 -1898.6 1898.7z"/>
   <polygon class="fil0" points="93900.4,155209.3 93462.1,154772.7 95522.4,152711.6 95959.9,153149.9 "/>
   <path class="fil3" d="M93820.1 155290.2l-519.3 -517.4 2221.6 -2222.5 598.8 599.9 -2220.3 2220.3 -80.8 -80.3zm-196.7 -517.7l276.7 275.5 1898.4 -1898.4 -276.3 -276.8 -1898.8 1899.7z"/>
   <polygon class="fil0" points="100475.5,161785.2 100038,161347.7 102098.3,159286.6 102534.9,159725 "/>
   <path class="fil3" d="M100394.7 161866l-518 -518.1 2221.7 -2222.7 597.5 599.9 -2220.5 2221.5 -80.7 -80.6zm-195.3 -518.5l276.3 276.3 1898.2 -1898.9 -275.7 -276.9 -1898.8 1899.5z"/>
   <polygon class="fil0" points="137047.5,132196.1 137485,131758.7 133365.3,127638.1 132927.8,128075.6 "/>
   <path class="fil3" d="M137047.5 132034.5l276 -276.1 -3958.2 -3959.2 -276.1 276.2 3958.3 3959.1zm518.3 -195l-518.5 518.4c-1425,-1429.1 -2852.9,-2855.8 -4280.9,-4281.9l598.7 -599.1c1428.2,1426 2856.1,2852.9 4281.1,4282.1l-80.4 80.5z"/>
   <polygon class="fil0" points="123897.3,145346.3 124334,144908.8 120215.1,140789.1 119777.6,141225.7 "/>
   <path class="fil3" d="M123897.5 145184.7l275.2 -275.6 -3957.9 -3958.7 -275.6 275.2 3958.3 3959.1zm517.4 -195.6l-517.8 518.5c-1427.1,-1427.1 -2852.8,-2855.5 -4281,-4281.6l599.3 -598.2c1427.8,1425.7 2853.2,2853.8 4279.9,4280.6l-80.4 80.7z"/>
   <polygon class="fil0" points="130471.6,138771.2 130909.9,138333.7 126789.3,134213.2 126352.7,134650.7 "/>
   <path class="fil3" d="M130471.7 138610.1l276.7 -276.3 -3959.2 -3959.1 -275.4 275.9 3957.9 3959.5zm518.6 -195.6l-518.8 517.9c-1425.9,-1427.9 -2852.1,-2855.7 -4280,-4281.6l597.9 -599c1428.3,1426.2 2855.7,2853.5 4281.9,4281.8l-81 80.9z"/>
   <rect class="fil0" transform="matrix(0.226511 -0.226669 0.226669 0.226511 113200 147806)" width="1931.5" height="18182.2"/>
   <path class="fil3" d="M117321.5 151763l276.4 -276.6 -3960 -3957.4 -276.4 276.5 3960 3957.5zm518.4 -196.3l-518.3 518.6 -4282.5 -4279.7 598.6 -599.1 4282.5 4279.7 -80.3 80.5z"/>
   <rect class="fil0" transform="matrix(0.226511 -0.226669 0.226669 0.226511 106561 154315)" width="1931.5" height="18465.3"/>
   <path class="fil3" d="M110746.1 158336.9l276.4 -276.6 -4024.2 -4021.4 -276.4 276.5 4024.2 4021.5zm518.4 -196.3l-518.3 518.6 -4346.7 -4343.7 598.6 -599.1 4346.7 4343.7 -80.3 80.5z"/>
   <polygon class="fil0" points="133759.5,135484.1 134197.9,135045.8 132137.6,132984.7 131700.1,133423 "/>
   <path class="fil3" d="M133759.3 135322.6l277.1 -277.1 -1898.8 -1899.5 -276.4 277 1898.1 1899.6zm519.3 -196l-519 519 -2220.5 -2222.5 598.3 -599.6c741.2,740.2 1482.1,1480.9 2221.7,2222.6l-80.5 80.5z"/>
   <rect class="fil0" transform="matrix(0.226748 -0.226432 0.226432 0.226748 125126 139992)" width="1928.8" height="9091.1"/>
   <path class="fil3" d="M127184.3 141892.3l276 -275.6 -1897.5 -1900.1 -276.1 275.7 1897.6 1900zm517.6 -194.7l-518 517.1 -2219.5 -2222.5 598.5 -598 2219.8 2222.9 -80.8 80.5z"/>
   <rect class="fil0" transform="matrix(0.22659 -0.22659 0.22659 0.22659 118549 146574)" width="1931.5" height="9093.7"/>
   <path class="fil3" d="M120609.9 148473.1l275.9 -276.1 -1899.3 -1899.3 -276 276.1 1899.4 1899.3zm518.2 -195.9l-518.7 518.7 -2221.7 -2221.7 599.1 -599.5 2221.8 2221.8 -80.5 80.7z"/>
   <polygon class="fil0" points="114034.3,155209.3 114471.8,154772.7 112411.5,152711.6 111974,153149.9 "/>
   <path class="fil3" d="M114034.4 155048.3l276.2 -275.8 -1898.9 -1899.7 -276.6 277 1899.3 1898.5zm517.7 -194.8l-518 516.9 -2221.2 -2220.5 598.5 -599.6 2221.5 2222.3 -80.8 80.9z"/>
   <rect class="fil0" transform="matrix(0.22659 -0.22659 0.22659 0.22659 105399 159724)" width="1931.5" height="9093.7"/>
   <path class="fil3" d="M107459.7 161623.5l276 -275.9 -1899.3 -1899.4 -276.1 276 1899.4 1899.3zm517.8 -195.3l-518.4 518.1 -2221.7 -2221.8 599.4 -599.1 2221.8 2221.7 -81.1 81.1z"/>
   <path class="fil2" d="M77195.2 125191.2l26636.1 26775.1 28297.8 -28009.6c-257.8,38.2 -401.1,78.9 -401.1,78.9l-1846.6 -659.6 -26196.8 25184.5 -24396 -24514.7 -2031.4 1192.9c0,0 -25.5,-19.5 -61.9,-47.5l-0.1 0z"/>
   <path class="fil0" d="M77432.2 125268l26399.7 26537.4 27950.7 -27666 -60.5 15.5 -1812.8 -647.7 -26226.6 25213 -24412.7 -24531.6 -1837.8 1079.4zm26318.3 26778.7l-26669.6 -26808.7 0 -278.2 185 141.8 2041.3 -1198.8 24379 24497.8 26167.2 -25155.9 1880 671.6c57.2,-14.3 187.3,-44 379.1,-72.5l344.2 -51c-9541.9,9444.9 -19078.8,18895 -28626.1,28334.5l-80.1 -80.6z"/>
   <polygon class="fil0" points="104073.8,156037.7 72997.6,125246.3 73372.3,125064 104072.1,155473 135202.6,124346.7 135576.5,124527.4 104073.8,156037.7 "/>
   <path class="fil3" d="M103993.4 156118.5l-31190.4 -30904.4 591.9 -288.1 30676.6 30385.9 31107.4 -31103.2 591.5 285.8c-10566.5,10566.6 -21122.2,21144.8 -31696.3,31703.9l-80.7 -79.9zm-30801.3 -30839.8l30881.3 30598.1 31309.1 -31316.6 -156.3 -75.5 -31153.6 31149.2 -30722.9 -30431.9 -157.6 76.7z"/>
   <path class="fil4" d="M100756.1 89474.7l10590.5 27788.3c0,0 6796.4,1733 10589.7,9424.7l14919.6 30533.6 -27258.4 -69591.5c0,0 -1263.3,5635.6 -8841.4,1845.7l0 -0.8z"/>
   <path class="fil3" d="M100965.9 89704.5l10466.8 27463.6c657.7,184.8 6985.5,2128 10605.9,9469.1l13685.8 28008.3 -26113.8 -66669.4c-407.1,1142.4 -2259.9,4799.3 -8644.7,1728.4zm10273.9 27599l-10574.3 -27745.9 -23.7 -11.8 0 -691.7 205.5 539.3c7412.2,3684.6 8635.6,-1774.8 8639.4,-1790.4l85.3 -351.2 27390.2 69928 -209 91.5 -14919.6 -30533.6c-3769.7,-7644 -10497.1,-9359.3 -10516.5,-9364.4l-56.5 -15.1 -20.8 -54.7z"/>
   <path class="fil2" d="M101013 89218.6l10590.5 27787.4c0,0 6796.4,1733.1 10590.5,9424.7l14670.4 30799 -27010 -69856.8c0,0 -1262.4,5634.8 -8841.4,1845.8l0 -0.1z"/>
   <path class="fil3" d="M101222.5 89447.4l10467.2 27463.8c657.7,184.8 6985.4,2128.2 10606.7,9469.2l13373.5 28075.9 -25803 -66735.1c-408.3,1144.2 -2262.1,4795.1 -8644.4,1726.2zm10274.3 27599.3l-10574.7 -27746.1 -101.7 -50.8 236.7 -236.7 47 123.3c7413.1,3683.9 8635.8,-1774.7 8639.6,-1790.3l85.8 -353.5 27141.1 70196.1 -209.4 90.2 -14670.3 -30799c-3770.9,-7643.4 -10497.4,-9358.4 -10516.8,-9363.5l-56.5 -15.1 -20.8 -54.6z"/>
   <path class="fil0" d="M103053.8 90287.8l10103.8 25552.5c0,0 6120.7,2331.5 7967.3,5538.1l-12437.1 -31964.8c0,0 -1262.5,2331.6 -5634,874.2z"/>
   <path class="fil3" d="M103248.8 90469.9l9996.7 25282c520.8,203.8 5253.2,2107 7427,4778.3l-12013.1 -30875.1c-411,524.1 -1885.3,1911.1 -5410.6,814.8zm9802.5 25412.3l-10193.7 -25779.7 232 77.3c4281.8,1427.4 5495.5,-816.1 5499,-822.4l118.5 -208.2c4359.6,11194.1 8712.9,22390.8 13068.1,33586.7l-749 -1300.8c-1825.8,-3170.5 -7891.8,-5481.4 -7909.2,-5488l-47.3 -18.1 -18.4 -46.8z"/>
   <path class="fil2" d="M105482.9 93078.9c180.6,441.7 -158.6,1062.4 300.1,1382 1278.6,891.9 1522.8,-1839.8 846.2,-2567.3 -41.6,-44.1 -86.5,-82.2 -134.8,-110.2 -145.9,-84.8 -395.2,-167 -535.9,-22.1 -139.9,145 -34.8,273.1 14.4,441.8 70.4,241.6 67.9,607 -302.7,451 -378.1,-157.7 -15.2,-511.2 -221.3,-720.7 -190.7,-194.1 -457.8,-40.7 -678.3,0 -89,493.5 546.9,744.4 711.4,1144.6l0.9 0.9zm336.6 84.8l0 -42.4c13.5,40.7 311.1,551.1 419.7,590.9 312.8,117.9 484.1,-348.4 473.1,-580.7 110.2,328.1 10.2,1173.4 -436.7,1136.9 -597.7,-47.4 -440,-742.7 -456.1,-1104.7z"/>
   <path class="fil3" d="M105588.3 93036.1c81,197.9 70.7,412.9 60.4,625.6 -13.2,275.7 -26.2,548.1 199.5,705.4 217.6,152.3 394.1,184.9 532.3,134.7 111.9,-40.6 206.3,-137.4 281.6,-269.9 30.3,-53.2 57.4,-111.8 81.4,-174.7 -69.1,145.2 -169.9,258.8 -307.1,304.9 -52.8,17.7 -109.4,25 -169.6,20.2 -598.3,-47.5 -579.1,-582.5 -564,-999.2 2.8,-78.9 5.6,-153.1 2.8,-214.4 -10.4,-112.2 -0.4,-264.8 -0.4,-381.3 -25.2,-7 -51.6,-16.2 -79.3,-27.9 -295.6,-123.6 -266,-319.3 -236.1,-516 13.4,-89.6 27.2,-180 -22.1,-230.1 -98.5,-100.4 -256.2,-54.8 -404.8,-11.7l-86.4 24.4c2.3,207.3 175.8,377.4 348,546.4 138.9,136.2 277.5,272.2 353.2,439.7l10.6 23.9zm-167.3 614.9c8.5,-179.4 17.2,-360.4 -35.1,-507.4l-9.3 -22.3c-55.2,-134.5 -183.5,-260.3 -312,-386.2 -234.5,-230.2 -470.9,-461.9 -406,-821.7l13.9 -77.7 77.6 -14.2c45.8,-8.5 97.2,-23.5 149.5,-38.6 212.1,-61.5 437,-126.4 630.7,70.7 129.6,131.8 107.3,278.3 85.3,423.7 -16.1,106.2 -31.8,211.9 89.6,267.5l0 -129.1 49.1 148c31,10.2 56.1,14.5 76,13.9 17.9,-0.4 30,-6.5 37.1,-15.6 13.7,-18 21.8,-47.7 25.2,-82.9 7.5,-75.3 -6.5,-166.8 -29.1,-244.4 -9.2,-31.5 -22.3,-65.4 -34.7,-97.5 -60.1,-155.9 -111.8,-289.9 47.5,-454.9 86.3,-88.9 196.7,-118.3 309.7,-113.7 132.8,5.4 269.5,60.3 365.5,116.1 28.5,16.5 56.2,36.2 82.8,57.8 27.9,22.8 54,47.4 78,72.9 350.9,377.6 473.5,1242.8 351.3,1925.4 -40.7,227.3 -108.3,436.6 -203.3,603.6 -101.5,178.5 -235.4,311.4 -402,371.9 -206.6,74.9 -454,37.6 -740.2,-162 -329.4,-229 -313.4,-564.2 -297.1,-903.3zm1445 -136c63.5,-584.6 -45.6,-1247.8 -319.9,-1543.2 -18.6,-19.8 -37.4,-37.7 -56.1,-52.9 -16.9,-13.8 -34.6,-26.3 -52.8,-36.9 -71.2,-41.3 -170,-82 -260.2,-85.7 -52.8,-2.2 -102.3,9.3 -136.3,44 -58.7,60.7 -31.1,132.1 0.8,214.8 13.7,35.8 28.3,73.4 40.8,116.3 29.6,101.6 47.6,224.3 37.1,330.1 -7.4,75.2 -29.3,145 -70.7,198.8 -48.2,62.7 -117.2,102.2 -212.2,105.1l-1.9 0 92.9 280.1c7.1,21.5 121.4,217.2 232.4,373.6 55.6,78.1 103.7,140.4 118.7,145.9 24.2,9.3 45.3,12.7 64,11.9 39.9,-1.8 77.4,-25.3 110.1,-60.4 41.1,-44.1 74.6,-105.4 99.2,-170.6 33.6,-89.2 49.6,-182.1 46.5,-249l-39.1 -816.9 261 775.4c36,107 52.4,259.6 45.7,419.6zm-892 76.3l-47.3 -69c-4.8,292.2 27.8,606 357.9,632.3 29.7,2.4 56.4,-0.8 79.6,-8.6 74.6,-25 134.1,-99.6 178.5,-197.3 31.2,-68.5 54.6,-147.5 70.5,-230 -70.1,72.6 -157,121 -259.9,125.9 -48.9,2.3 -100.5,-5.4 -153.4,-25.3 -64.5,-23.5 -147,-117.1 -225.9,-228z"/>
   <path class="fil4" d="M110223.2 89474.7l-10590.5 27788.3c0,0 -6796.3,1733 -10590.4,9424.7l-14918.8 30533.6 27258.3 -69591.5c0,0 1262.5,5635.6 8841.4,1845.7l0 -0.8z"/>
   <path class="fil3" d="M110313.9 89557.6l-10595.2 27800.6 -56.5 15.1c-19.4,5.1 -6746.7,1720.5 -10517.4,9364.3l-14918.7 30533.7 -208.9 -91.5 27390.2 -69928 85.2 351.2c3.8,15.6 1226.3,5475.1 8639.4,1790.4l205.5 -539.3 0 691.7 -23.6 11.8zm-10767.2 27610.5l10466.8 -27463.6c-6385.6,3070.9 -8237.8,-585.9 -8644.8,-1728.3l-26113.5 66668.6 13684.4 -28007.2c3621.5,-7341.3 9949.3,-9284.7 10607.1,-9469.5z"/>
   <path class="fil2" d="M109966.3 89218.6l-10590.5 27787.4c0,0 -6796.3,1733.1 -10590.4,9424.7l-14671.2 30799 27009.9 -69856.8c0,0 1263.3,5634.8 8842.2,1845.8l0 -0.1z"/>
   <path class="fil3" d="M110057.4 89300.6l-10595.6 27800.7 -56.4 15.1c-19.5,5.1 -6746.2,1720.3 -10517,9363.4l-14671.1 30799.1 -209.4 -90.2 27141.1 -70196.1 85.9 353.5c3.7,15.6 1227.1,5474.4 8640.6,1790.3l205.2 -538.4 0 690.9 -23.3 11.7zm-10767.6 27610.6l10467.1 -27463.8c-6382.5,3069 -8236.8,-582.1 -8645.3,-1726.3l-25803.3 66736.2 13374.8 -28076.9c3621.1,-7341 9948.9,-9284.4 10606.7,-9469.2z"/>
   <path class="fil0" d="M107925.6 90287.8l-10104.7 25552.5c0,0 -6120.6,2331.5 -7966.4,5538.1l12436.3 -31964.7c0,0 1263.3,2331.5 5634.8,874.1l0 0z"/>
   <path class="fil3" d="M108031.9 90329.8l-10123 25599.2 -47.4 18.1c-17.3,6.6 -6083.3,2317.6 -7908.4,5488l-749.5 1302.4c4354.9,-11196.5 8712.9,-22391.8 13067.8,-33588.3l118.5 208.2c3.6,6.3 1218.1,2249.8 5499.9,822.4l232 -77.3 -89.9 227.3zm-10298.8 25422.1l9997.6 -25281.9c-3525.5,1096.2 -5000.4,-290.9 -5411.6,-814.9l-12012.2 30874.7c2173.4,-2671.2 6905.3,-4574.1 7426.2,-4777.9z"/>
   <path class="fil2" d="M111326.3 86706.5c0,3022.6 -2450.3,5472 -5472,5472 -3021.8,0 -5472.9,-2449.4 -5472.9,-5472 0,-3022.6 2449.4,-5472.9 5472,-5472.9 3022.6,0 5472,2449.5 5472,5472.9l0.9 0z"/>
   <path class="fil3" d="M111440.6 86706.4c0,1542.8 -625.5,2939.4 -1636.2,3950.2 -1010.8,1010.9 -2407.7,1636.2 -3950.2,1636.2 -1542.4,0 -2939.6,-625.4 -3950.7,-1636.4 -1010.9,-1011.3 -1636.4,-2407.7 -1636.4,-3950 0,-1542.8 625.3,-2939.7 1636.2,-3950.8 1010.7,-1010.9 2407.3,-1636.3 3950.1,-1636.3 1542.5,0 2939.2,625.4 3950.2,1636.5 982.2,981.8 1600.2,2328.5 1634.6,3819.4l2.4 -0.3 0 131.5zm-1797.9 3788.5c950.1,-950 1545.1,-2255.6 1568.4,-3700.2l0 -88.2c0,-1480.1 -599.5,-2819.9 -1568.9,-3789.3 -969.1,-969.7 -2308.7,-1569.3 -3788.8,-1569.3 -1479.6,0 -2819.1,599.8 -3788.5,1569.3 -969.5,969.7 -1569.2,2309.4 -1569.2,3789.2 0,1479.8 599.7,2819.3 1569,3788.3 970.2,969.6 2310.1,1569.4 3789.5,1569.4 1479.5,0 2819.1,-599.7 3788.5,-1569.2z"/>
   <path class="fil2" d="M111326.3 86492.8c0,3021.8 -2450.3,5472 -5472,5472 -3021.8,0 -5472.9,-2450.3 -5472.9,-5472 0,-3021.7 2449.4,-5472.9 5472,-5472.9 3022.6,0 5472,2450.3 5472,5472.9l0.9 0z"/>
   <path class="fil3" d="M111440.6 86492.8c0,1542.2 -625.5,2939.1 -1636.3,3950 -1010.9,1010.8 -2407.6,1636.3 -3950.1,1636.3 -1542.1,0 -2938.9,-625.5 -3950,-1636.4 -1011.6,-1010.9 -1637.1,-2407.6 -1637.1,-3949.9 0,-1542.5 625.4,-2939.6 1636.4,-3950.7 1011.2,-1010.9 2407.7,-1636.5 3949.9,-1636.5 1542.8,0 2939.4,625.5 3950.2,1636.3 985.8,986.1 1604.8,2339.2 1634.9,3836.6l2.1 0 0 114.3zm-1798 3788.4c950.2,-950.2 1545.2,-2255.8 1568.5,-3700.2l0 -88.2c0,-1479.8 -599.7,-2819.6 -1569.2,-3789.2 -969.4,-969.5 -2308.9,-1569.3 -3788.5,-1569.3 -1479.8,0 -2819.2,599.7 -3788.3,1568.9 -969.6,970.2 -1569.4,2310.1 -1569.4,3789.6 0,1479.2 600,2818.8 1569.7,3788.3 969.5,969.6 2309.4,1569.4 3788.8,1569.4 1479.3,0 2818.9,-599.9 3788.4,-1569.3z"/>
   <path class="fil2" d="M105868.7 89095.7c-1495.6,0 -2712.3,-1217.5 -2712.3,-2713.1 0,-1495.6 1216.7,-2713.1 2712.3,-2713.1 1495.6,0 2713.1,1217.5 2713.1,2713.1 0,1495.6 -1217.5,2713.1 -2713.1,2713.1l0 0z"/>
   <path class="fil0" d="M105868.6 89210c-778.9,0 -1485.6,-317.3 -1997.6,-829.5 -511.8,-511.9 -828.9,-1218.9 -828.9,-1997.9 0,-779.1 317.1,-1486 828.9,-1997.9 512,-512.3 1218.7,-829.6 1997.6,-829.6 779.4,0 1486.3,317.3 1998.3,829.3 511.9,511.9 829.2,1218.8 829.2,1998.2 0,779.4 -317.2,1486.3 -829.1,1998.2 -511.9,511.9 -1219,829.2 -1998.4,829.2zm-1836 -990.3c470.1,470.3 1119.6,761.7 1836,761.7 716.3,0 1366.2,-291.7 1836.7,-762.2 470.5,-470.6 762.2,-1120.3 762.2,-1836.6 0,-716.2 -291.8,-1366.1 -762.3,-1836.6 -470.5,-470.5 -1120.4,-762.3 -1836.6,-762.3 -716.4,0 -1365.9,291.4 -1836,761.7 -470.4,470.5 -761.9,1120.7 -761.9,1837.2 0,716.5 291.5,1366.6 761.9,1837.1z"/>
   <path class="fil2" d="M105853.4 89205.1c-1495.6,0 -2713.1,-1217.5 -2713.1,-2713.1 0,-1495.7 1217.5,-2713.2 2713.1,-2713.2 1495.6,0 2713.1,1217.5 2713.1,2713.2 0,1495.6 -1216.7,2713.1 -2713.1,2713.1l0 0z"/>
   <path class="fil0" d="M105853.4 89319.4c-779.4,0 -1486.3,-317.3 -1998.2,-829.2 -511.9,-511.9 -829.2,-1218.8 -829.2,-1998.2 0,-779.4 317.3,-1486.3 829.2,-1998.2 511.9,-512 1218.8,-829.3 1998.2,-829.3 779.4,0 1486.3,317.3 1998.2,829.3 511.9,511.9 829.3,1218.8 829.3,1998.2 0,779.3 -317.2,1486.5 -829.1,1998.4 -511.8,511.8 -1218.8,829 -1998.4,829zm-1836.6 -990.8c470.6,470.5 1120.4,762.2 1836.6,762.2 716.4,0 1366.2,-291.5 1836.7,-762 470.5,-470.5 762.2,-1120.5 762.2,-1836.8 0,-716.2 -291.8,-1366.1 -762.3,-1836.6 -470.5,-470.5 -1120.4,-762.3 -1836.6,-762.3 -716.2,0 -1366,291.8 -1836.6,762.3 -470.5,470.5 -762.2,1120.4 -762.2,1836.6 0,716.2 291.7,1366 762.2,1836.6z"/>
   <path class="fil2" d="M105853.4 84273.2c-1223.4,0 -2219.7,996.2 -2219.7,2219.6 0,1223.5 996.3,2219.7 2219.7,2219.7 1223.4,0 2219.7,-996.2 2219.7,-2219.7 0,-1223.4 -996.3,-2219.6 -2219.7,-2219.6l0 0z"/>
   <path class="fil0" d="M105853.4 84387.4c-580.1,0 -1106.7,236.4 -1487.8,617.6 -381.2,381 -617.5,907.5 -617.5,1487.8 0,580.4 236.3,1106.9 617.3,1488.1 381.3,380.9 907.9,617.3 1488,617.3 580.3,0 1106.8,-236.3 1488.1,-617.3 381,-381.2 617.3,-907.9 617.3,-1488.1 0,-580.3 -236.3,-1106.8 -617.3,-1488.1 -381.3,-381 -907.8,-617.3 -1488.1,-617.3zm-1649.4 456.2c422.5,-422.8 1006.3,-684.8 1649.4,-684.8 642.9,0 1226.4,262 1649,684.5 423,423.1 685,1006.6 685,1649.5 0,642.9 -262,1226.5 -684.5,1649.1 -423.1,423 -1006.6,685 -1649.5,685 -643.1,0 -1226.9,-262 -1649.4,-684.6 -422.5,-423 -684.5,-1006.6 -684.5,-1649.5 0,-642.9 262,-1226.4 684.5,-1649.2z"/>
   <rect class="fil2" transform="matrix(0.226392 -0.226788 0.226788 0.226392 103944 84977.4)" width="1733" height="15105.1"/>
   <path class="fil0" d="M107369.7 88235.9l231.3 -231.8 -3264.4 -3258.6 -231.3 231.7 3264.4 3258.7zm473.3 -151.5l-473.1 473.9c-1194.6,-1194.6 -2390.6,-2387.9 -3587,-3580.8l553.3 -554.4c1196.3,1192.9 2392.4,2386.2 3587,3580.8l-80.2 80.5z"/>
   <path class="fil2" d="M111597.6 135507.9c0,965.7 137.3,1683.8 662.2,1932.2 83.1,110.2 83.1,331.5 -27.2,414.6 -303.5,0 -801.2,110.2 -1325.1,220.4 -1711.8,413.8 -3782.3,746.1 -5355.1,746.1 -3312.5,0 -6431.8,-884.3 -8501.4,-3037 -1628.7,-1683.8 -2429.9,-4001.8 -2429.9,-6320.7 0,-2318.9 801.2,-4692 2539.3,-6486 1960.2,-2071.3 4969.2,-3258.3 8805.8,-3258.3 1297.2,0 2704.6,221.3 3671.2,414.6 634.2,137.3 1434.5,248.4 1766,248.4 28,827.5 220.5,2235.8 358.7,4389.3 -138.2,275.6 -745.3,303.6 -882.6,55.1 -607.9,-2677.4 -2567.3,-4002.7 -5299.9,-4002.7 -4859.1,0 -7204.2,3505.9 -7204.2,8198.7 0,2208.7 496.9,4581.8 1987.4,6349.6 1490.5,1766.1 3698.3,2346 5327.8,2346 1325.2,0 2125.6,-221.3 2457.1,-635.1 166.2,-248.4 248.4,-745.2 248.4,-1738.9l0 -993.7c0,-1959.3 -27.1,-2125.5 -1877.1,-2428.2l-993.7 -166.2c-192.5,-193.3 -192.5,-662.2 28,-800.4 1076.7,55.1 2401.1,83.1 4305.3,83.1 1243,0 2181.5,-28 3368.5,-83.1 275.6,137.4 303.6,607.1 55.2,800.4l-496.9 83.1c-1021.7,165.3 -1187,386.6 -1187,2070.4l0 1600.8 -0.8 -2.5z"/>
   <path class="fil3" d="M111712.7 135631.5c5.5,420.9 40.9,788 128.5,1078.9 90.7,300.2 237.6,517.9 467.2,626.6l25.8 12.2 16.7 22.1c59.3,78.7 88.1,195 81.1,302.2 -6.8,106.9 -48.9,210.8 -130.5,272.3l-30.9 23.2 -37.9 0c-270.3,0 -711.8,93.2 -1185.8,193.3l-116.3 24.5c-905.8,218.8 -1911.3,415 -2890.2,551.3 -881,122.7 -1741.2,197.5 -2488,197.5 -1741.2,0 -3431.1,-243.2 -4946.1,-784.3 -1390.9,-496.9 -2635.2,-1245.5 -3637.4,-2288.1 -805.4,-832.6 -1411.4,-1818.7 -1820.5,-2883.1 -428.9,-1115.6 -641.7,-2316.5 -641.7,-3516.6 0,-1210.9 216.3,-2437.2 667.8,-3590 422.7,-1080.2 1052.6,-2096.4 1904.2,-2975.5 1005.4,-1061.8 2282.3,-1893.9 3800.6,-2455.6 1475.9,-546.1 3180.6,-837.5 5086.8,-837.5 568.4,0 1159.2,42.5 1725.5,106.3 732.3,82.8 1421.1,201.3 1968.1,310.6l1.8 0.4c314,67.9 666.6,129.1 980.7,173.4 317.7,44.6 598.1,72.3 761.2,72.3l110.1 0 3.8 110.8c12.8,381.5 61.5,891.3 123.5,1542.9 71.7,753.5 161.7,1695.8 235.2,2842.7l1.8 30.3 -13.8 27.8c-41.5,82.6 -111.2,147.9 -196.3,194.7 -103,57 -231.7,88.4 -357.9,93.1 -127,4.7 -254.8,-17.8 -355.4,-68.2 -74.8,-37.4 -135.9,-90.9 -174.5,-160.4l-8.3 -14.9 -3.3 -15c-292.1,-1286.6 -901.9,-2253.3 -1762,-2903 -893.4,-674.8 -2060.7,-1010.4 -3426.8,-1010.4 -2295.2,0 -4018.8,792 -5189.5,2124.3 -1274.5,1450.5 -1900.3,3545 -1900.3,5960 0,1176.2 141.9,2398.5 501.6,3548 309.1,987.4 779.3,1922.1 1458.6,2727.8 655.6,777 1453.3,1320.3 2277.8,1683.4 1017.6,448 2077,622 2962.9,622 646.6,0 1164.3,-52.8 1559.5,-154.9 386.9,-99.9 653.4,-245.8 805.9,-433.7 72.1,-110.1 127.2,-280.3 165.3,-538.7 40.3,-273.2 60.5,-640.4 60.5,-1132.3l0 -993.7c0,-955.4 -6.3,-1473.4 -222.6,-1768 -213.7,-291.4 -665,-401.7 -1558.5,-547.8l-1030.3 -172 -25.9 -26.2c-26.2,-26.3 -49.4,-55.9 -69.3,-87.7 -74.3,-119.6 -110,-279 -104.2,-429.7 6,-156.5 56.9,-309.2 154.8,-406.6 20.5,-20.4 43.1,-38.8 67.2,-53.7l29.9 -18.8 36.2 1.8c539.6,27.6 1139.2,48.5 1838.8,62.2 688.2,13.6 1494.6,20.5 2460.8,20.5 631.8,0 1176,-6.9 1702.6,-20.5 534.4,-13.7 1065.7,-34.6 1660.9,-62.2l29.7 -1.3 26 12.9c65.3,32.5 120.1,79.5 164,135.8 71.5,91.8 112.8,208.7 122.5,328 9.4,117.9 -11.5,240.6 -63.9,345.9 -34.8,70.1 -84.1,132.9 -148.1,182.8l-23.2 18 -525.1 87.8c-476.5,77 -750.9,163.5 -897.1,411.3 -156,264.4 -194.3,725.5 -194.3,1546.6l0 1721.9zm-90.3 1144.1c-103.4,-343.4 -139.1,-775 -139.1,-1267.8l0 -734.6 0.8 2.6 0 -866.2c0,-862.5 44.6,-1354.4 226.5,-1662.7 191.6,-324.7 510.9,-431.8 1056,-520l466 -78.1c25.7,-24.6 46.8,-54.4 63.3,-87.5 33.7,-67.6 47.1,-148.1 40.8,-226.3 -6.2,-76.9 -31.3,-150.6 -74.3,-205.7 -17.6,-22.5 -38.7,-42.5 -63.2,-58.3 -578.4,26.8 -1100.8,47.1 -1632.7,60.7 -550,14.2 -1096.8,21.4 -1707.8,21.4 -938.1,0 -1746.4,-7.2 -2465.3,-21.4 -689.5,-13.4 -1278.1,-33.7 -1804.4,-60.1l-2.5 2.5c-54.9,54.7 -83.9,150.4 -87.8,253 -4.1,108.8 19.7,221 70,301.2l15.5 22.1 953.5 159.3c955.9,156.4 1443.6,280.8 1705.6,637.9 259.7,353.7 267.1,899.1 267.1,1902.9l0 993.7c0,501.8 -21.1,879.9 -63.2,1165.5 -43.9,296.9 -112.3,498.4 -204.8,636.8l-5.9 8c-182.9,228.4 -490.5,401.6 -929.2,515 -415.6,107.4 -952.4,162.9 -1616.7,162.9 -912.9,0 -2004.9,-179.4 -3054.8,-641.6 -853.8,-376 -1680.2,-939.2 -2360.1,-1744.9 -700.3,-830.6 -1184.6,-1792.4 -1502.3,-2807.4 -367.4,-1174 -512.3,-2419.4 -512.3,-3615.9 0,-2468.9 644.5,-4615.8 1957.4,-6110 1214.1,-1381.7 2995.3,-2203 5361,-2203 1415.9,0 2630.1,351.2 3564.5,1056.9 898.7,678.8 1536.1,1683.6 1842.5,3017 15.6,21.4 39.8,39.8 69.6,54.7 66,33.1 154.6,47.7 245.7,44.3 91.7,-3.4 184,-25.5 256.2,-65.4 36.8,-20.2 67.3,-44.9 88,-73.3 -73.6,-1138.4 -161.5,-2061.4 -232,-2800.7 -56.8,-596.6 -102.4,-1075.1 -120.1,-1449.5 -173.2,-8.6 -415.8,-34.6 -683,-72.1 -323.5,-45.5 -682.4,-107.7 -997.7,-176 -543.3,-108.6 -1225.5,-226.1 -1946.5,-307.5 -556.6,-62.7 -1138.5,-104.5 -1700.6,-104.5 -1879,0 -3557.3,286.5 -5008.1,823.3 -1486.3,549.9 -2734.4,1362.7 -3714.9,2398.8l-0.9 1.3c-829.3,856 -1442.9,1846.3 -1855.1,2899.6 -440.6,1125.2 -651.7,2323.2 -651.7,3507 0,1174.4 207.5,2347.7 625.6,3435.4 398.1,1035.8 988,1995.5 1772.2,2806.4 976.1,1015.2 2190.4,1745.2 3549.9,2230.8 1488.9,531.9 3152.7,770.8 4869.3,770.8 739,0 1588,-73.7 2456.7,-194.6 973.2,-135.6 1972.5,-330.6 2871.6,-548l119.8 -25.3c460.1,-97.1 890.4,-188 1182.4,-197.7 12.4,-21.1 19.5,-50.5 21.4,-82.2 3.1,-47.2 -5.3,-95.7 -23.7,-131 -277.1,-143.1 -452.6,-403.1 -558.2,-752.5z"/>
  </g>
 </g>
</svg>
