<?xml version="1.0" encoding="UTF-8"?>
<svg id="Camada_1" xmlns="http://www.w3.org/2000/svg" version="1.1" viewBox="0 0 407.5 361.9">
  <!-- Generator: Adobe Illustrator 30.6.0, SVG Export Plug-In . SVG Version: 2.1.4 Build 109)  -->
  <defs>
    <style>
      .st0 {
        fill: #fff;
      }

      .st1 {
        fill: none;
        stroke: #000;
        stroke-linecap: round;
        stroke-linejoin: round;
        stroke-width: 20.3px;
      }
    </style>
  </defs>
  <g id="Objeto_generativo">
    <g>
      <path d="M134,301.7c-25.7-2.3-68-7.9-90.4-20.2s-7.9-4.4-8.8-8.6l-.2-77.1c6.9,2.5,13.6,1,18.7-3.7l12.3-11.4,6.9,18c2.6,6.8,9.2,10.6,15.3,12.1s15.2-.2,20.9-5.5l15.7-14.6c4.3-4,10.1-3,13.3,1.6l11.1,15.9c4.5,6.5,12,9.9,19.6,9.7,7.8-.2,14.3-4.6,19.1-11l11.8-15.6c2.6-3.4,8.4-1.7,10.7,1.3l12.4,16.6c4.3,5.7,11.3,8.7,18.3,8.6s13.7-3.1,17.9-9l12-16.9c2.6-3.7,7-4.7,11.1-2.3,10.6,6.3,21.2,28.3,42,20.2s10.8-7.7,13.4-15.1l4.9-13.9,12.9,11.8c4.9,4.5,11.4,5.7,18.2,3.3l-.2,77.4c-1.4,3.9-5.6,6.6-9.3,8.5-24.5,12.5-62.1,17.1-90,20l14.5-14.8-5.9-5.3c-4.4-3.9-10.2-4.5-15.4-1.6s-10.4-4.9-18.3,2.6l-3.3,3.1-22.5-46.4c2.1-8.1-1-16.2-7.5-21-6.8-4.9-15.8-4.8-22.6,0-6.6,4.8-9.7,12.9-7.7,21.1l-22.4,46.4c-4.5-4.4-8.2-8.5-14.7-5.7s-4.8,1.1-7.1-.2c-7.8-4.4-14.8.3-21,6.9l14.3,14.9Z"/>
      <path d="M251,203.2c-4.6,6.7-15.4,7-20.6,1l-12.5-16.6c-3.4-4.5-8-7.4-13.5-7.5s-10.8,2.4-14.3,7.1l-12.6,16.9c-2.8,3.8-7.4,4.6-12,4.1s-7.4-2.8-10-6.5l-11.3-16.1c-5.6-8-16.5-8.6-24.5-3.1s-11.8,12.5-19.3,17.4c-5.8,3.8-14.9,2.8-18.6-3.8s-4.9-12.7-7.3-19.2-7.2-7.1-12.3-4.6-11.7,11.3-17.2,14.3c-14.1,7.7-19.9-23.2-12.4-42.7s56.1-24,73-26.6v9.3c1,9.8,9.4,16.8,19.2,16.7s17.5-6.7,18.5-16.2l.3-14.1,19.3-1.4,21.7-.9.2,15.8c0,7.5,5.6,13.4,12.7,15.8,11.1,3.7,23.5-3.1,24.9-14.9l.3-16.8,27.5,1.3,13.6,1,.2,13.7c0,6.9,5,12.7,11.4,15.2s11.6,2.2,17.1-1,8.2-7.2,9-13.2l.4-10.3c19.9,3.2,50.9,8.7,67.1,19.8,3.5,2.4,6.1,5.6,7.1,9.8,5.5,22.2-2.2,46.6-13.9,39.6s-12-12.6-18.2-14.8c-4.1-1.4-9,0-10.6,4.4l-5.6,16.1c-1.4,4-3.5,7-6.8,8.5-14.6,6.4-22-10.8-33.9-18.6-8.9-5.9-19.3-3.1-25.2,5.4l-11,15.9Z"/>
      <path d="M135.6,341c-22.7-1.9-44.8-4.7-66.7-9.4C49.9,327.6-.4,315.3,0,293.3c.2-11.8,15.7-20.6,26.1-25.3-1.5,12.2,7.5,18.4,17.8,23.3,10.2,4.6,20.6,7.7,31.5,10.2,22.5,5.1,45.1,8.2,68.3,9.8l4.4,4-12.5,25.7Z"/>
      <path d="M272.1,341.1l-12.4-25.4c1.2-1.9,2.4-3.1,4-4.4,27.7-1.8,96.1-9.7,113.7-29.4s4.8-8.5,4-13.9c7.8,3.4,15.3,7.7,21.1,13.9s6.6,16.5-.2,23.5c-19.5,20.2-78.6,30.2-107,33.2l-23.3,2.4Z"/>
      <polygon points="244.4 321.5 203.7 361.9 164.3 322.6 163.5 321.1 172.6 304.9 203.8 336 235.2 304.9 244.4 321.5"/>
      <path d="M264,348.7l-31.1-56.5c-3.4-6.2-8.4-10.8-15.1-12.9l-16.6-32.3c-7.6-1.9-11.9-9.1-10.1-16.2s9.6-11.5,16.9-9,10.8,10.3,7.6,17.6l54.5,112.3c.9.2.8.4.5,1.1s-.3.5-.8.1l-5.8-4.2ZM201.6,228.3c-3.5,1.3-4.7,5.1-3.4,8.2s4.7,4.6,7.9,3.4,4.7-4.6,3.8-7.5-4.6-5.4-8.2-4.1Z"/>
      <path d="M189.8,279.4c-7.8,2.2-12.4,7.7-16.2,14.5l-29.8,54.4c-2.4,1.8-4.4,3.6-7,4.7l52.9-109c2.8,3.3,5.4,5.3,9.1,6.4l2.9,5.8-11.8,23.1Z"/>
      <path d="M124.4,23.3c-6.4,9.3-10.6,16.4-3.6,25.9-9.4-5-12.5-15.9-9.4-25.7S118.7,7.6,124.5,0c5.6,7.3,10.5,14.9,13.2,23.3,3.1,9.8,0,20.7-9.1,25.8,6.7-10.1,2.3-17.2-4.1-25.9Z"/>
      <path d="M287,49c6.6-9.5,2.4-16.7-4-25.7-2.7,3.4-4.7,7-6.3,10.9-3.7,9,3,14.9,2.7,14,1.5,3.9-15.5-6.8-9.3-25.2,2.8-8.3,7.5-15.6,13-22.8,6.5,8.8,13.7,19.8,14.2,29.8.3,7.8-3,15.5-10.3,19.2Z"/>
      <path d="M199.7,49.1c-9.3-5.4-12.3-16.3-9-26s7.5-15.6,13-22.9c5.5,7.2,10.1,14.3,13,22.5s.5,21.2-9.1,26.6c6.8-9.7,2.8-16.5-3.9-26-2.7,3.4-4.5,6.7-6,10.3-2.6,5.1-1.3,10.2,1.9,15.5Z"/>
      <path d="M154.5,287.1l6.5,6.4-8.5,17.2-23.5-23.4c2-1.6,4.7-3.4,7.1-2.2,12.1,5.8,14.1-1.7,18.5,2Z"/>
      <path d="M247.5,295c-.3-.6-.6-1.4-.1-1.9l6.2-6.5c2.9-3.1,6.9,4.2,17.9-1.5s5.3.5,7.3,2.1l-23.6,23.4-7.7-15.6Z"/>
      <polygon points="253.2 342.2 231.7 343.2 245.9 328.9 253.2 342.2"/>
      <polygon points="175.9 343.2 154.5 342.2 161.7 329 175.9 343.2"/>
      <path class="st0" d="M201.6,228.3c3.6-1.3,7.1.6,8.2,4.1s-.7,6.3-3.8,7.5-6.6-.3-7.9-3.4,0-7,3.4-8.2Z"/>
    </g>
    <g>
      <line class="st1" x1="124.4" y1="125.4" x2="124.4" y2="62.9"/>
      <line class="st1" x1="203.5" y1="64.9" x2="203.5" y2="123.9"/>
      <line class="st1" x1="282.6" y1="66.4" x2="282.6" y2="121.9"/>
    </g>
  </g>
</svg>