<?xml version="1.0" encoding="UTF-8"?>
<!DOCTYPE svg PUBLIC "-//W3C//DTD SVG 1.1//EN" "http://www.w3.org/Graphics/SVG/1.1/DTD/svg11.dtd">
<!-- Creator: CorelDRAW (Versão OEM) -->
<svg xmlns="http://www.w3.org/2000/svg" xml:space="preserve" width="58.1719mm" height="48mm" version="1.1" style="shape-rendering:geometricPrecision; text-rendering:geometricPrecision; image-rendering:optimizeQuality; fill-rule:evenodd; clip-rule:evenodd"
viewBox="0 0 5409.75 4463.8"
 xmlns:xlink="http://www.w3.org/1999/xlink"
 xmlns:xodm="http://www.corel.com/coreldraw/odm/2003">
 <defs>
  <style type="text/css">
   <![CDATA[
    .str0 {stroke:#FEFEFE;stroke-width:46.5;stroke-miterlimit:22.9256}
    .str2 {stroke:#373435;stroke-width:46.5;stroke-miterlimit:22.9256}
    .str1 {stroke:#373435;stroke-width:18.6;stroke-miterlimit:22.9256}
    .fil6 {fill:none}
    .fil3 {fill:#FEFEFE}
    .fil5 {fill:#E6E7E8}
    .fil9 {fill:#373435}
    .fil2 {fill:#ED3237}
    .fil10 {fill:#1E2A50}
    .fil4 {fill:#D2AE38}
    .fil7 {fill:#FEFEFE;fill-rule:nonzero}
    .fil1 {fill:#373435;fill-rule:nonzero}
    .fil8 {fill:#373435;fill-rule:nonzero}
    .fil0 {fill:#1E2A50;fill-rule:nonzero}
   ]]>
  </style>
 </defs>
 <g id="Camada_x0020_1">
  <metadata id="CorelCorpID_0Corel-Layer"/>
  <g id="_2777375346864">
   <polygon class="fil0" points="5314.78,388.34 2513.53,388.34 2513.53,2672.82 5314.78,2672.82 "/>
   <path class="fil1 str0" d="M5243.06 460.05l-2657.82 0 0 2141.04 2657.82 0 0 -2141.04zm-2729.54 -143.43l2872.98 0 0 2427.9 -2944.7 0 0 -2427.9 71.72 0z"/>
   <rect class="fil2" x="3312.42" y="792.29" width="1808.95" height="148.29" rx="190.04" ry="190.04"/>
   <rect class="fil3" x="3312.42" y="1172.36" width="1808.95" height="148.29" rx="190.04" ry="190.04"/>
   <rect class="fil4" x="3312.42" y="1552.42" width="1808.95" height="148.29" rx="190.04" ry="190.04"/>
   <rect class="fil5 str1" x="3558.59" y="1945.33" width="1382.04" height="561.58"/>
   <polyline class="fil6 str2" points="3576.34,2491.06 4006.97,2183.14 4188.07,2332.27 4455.26,2080.58 4688.59,2219.45 4876.66,1972.54 "/>
   <g>
    <path id="person_add_24dp_E3E3E3_FILL0_wght400_GRAD0_opsz24.svg" class="fil0" d="M1868.95 1080.74c76.45,-76.45 114.68,-168.4 114.68,-275.78 0,-107.45 -38.23,-199.33 -114.68,-275.84 -76.45,-76.46 -168.4,-114.68 -275.77,-114.68 -107.46,0 -199.33,38.22 -275.85,114.68 -76.46,76.52 -114.68,168.4 -114.68,275.84 0,107.38 38.22,199.33 114.68,275.78 76.45,76.45 168.4,114.68 275.85,114.68 107.37,0 199.24,-38.23 275.77,-114.68z"/>
    <path class="fil7" d="M1862.38 1074.18c37.36,-37.38 65.38,-78.49 84,-123.28 18.63,-44.81 27.95,-93.45 27.95,-145.93 0,-52.51 -9.33,-101.17 -27.95,-145.96 -18.65,-44.84 -46.66,-85.97 -84.01,-123.35 -37.32,-37.33 -78.43,-65.33 -123.27,-83.98 -44.81,-18.63 -93.46,-27.95 -145.93,-27.95 -52.51,0 -101.18,9.32 -145.97,27.95 -44.82,18.64 -85.95,46.65 -123.33,83.99 -37.35,37.38 -65.35,78.5 -83.99,123.33 -18.62,44.79 -27.95,93.45 -27.95,145.96 0,52.48 9.32,101.13 27.95,145.94 18.64,44.83 46.65,85.95 83.98,123.27 37.36,37.35 78.48,65.37 123.32,84.01 44.81,18.62 93.49,27.95 145.99,27.95 52.47,0 101.11,-9.33 145.89,-27.95 44.82,-18.65 85.95,-46.66 123.31,-84zm101.15 -116.16c-19.59,47.11 -48.94,90.23 -88.01,129.3 -39.16,39.09 -82.27,68.44 -129.33,88.01 -47.11,19.58 -98.12,29.4 -153.02,29.4 -54.93,0 -105.99,-9.81 -153.12,-29.4 -47.07,-19.58 -90.18,-48.93 -129.27,-88.01 -39.12,-39.11 -68.48,-82.24 -88.05,-129.29 -19.58,-47.12 -29.4,-98.16 -29.4,-153.06 0,-54.93 9.81,-105.97 29.4,-153.08 19.57,-47.07 48.93,-90.19 88.01,-129.3 39.17,-39.13 82.28,-68.48 129.34,-88.05 47.12,-19.59 98.16,-29.4 153.09,-29.4 54.9,0 105.93,9.81 153.05,29.4 47.07,19.58 90.19,48.93 129.29,88.05 39.09,39.11 68.44,82.23 88.01,129.3 19.58,47.11 29.4,98.15 29.4,153.08 0,54.9 -9.81,105.93 -29.4,153.05z"/>
    <path id="person_add_24dp_E3E3E3_FILL0_wght400_GRAD0_opsz24.svg_0" class="fil8" d="M23.87 2863.02c0,-169.92 28.61,-326.02 85.77,-468.42 57.24,-142.39 133.24,-251.02 228.05,-325.9 202.69,-154.86 408.66,-270.96 617.95,-348.45 209.22,-77.37 421.71,-116.11 637.53,-116.11 215.74,0 428.23,38.74 637.44,116.11 209.3,77.48 415.25,193.59 617.95,348.45 94.83,74.88 170.82,183.52 228.06,325.9 57.16,142.4 85.78,298.5 85.78,468.31 0,525.71 -0.04,1051.28 -0.04,1576.98l-3138.54 0c0,-525.66 0.04,-1051.2 0.04,-1576.87z"/>
    <path class="fil7" d="M0.01 2863.02c-0.05,-86.12 7.26,-169.07 21.88,-248.82 14.58,-79.68 36.46,-155.84 65.63,-228.46 29.26,-72.79 63.46,-137.17 102.56,-193.04 39.34,-56.22 83.63,-103.79 132.87,-142.68l0.28 -0.28c102,-77.92 205.1,-146.26 309.3,-205.02 104.03,-58.75 209.02,-107.68 314.89,-146.89 105.64,-39.06 212.43,-68.44 320.32,-88.09 107.97,-19.66 216.46,-29.5 325.44,-29.5 108.95,0 217.42,9.84 325.38,29.5 107.88,19.65 214.65,49.03 320.28,88.09 105.89,39.21 210.89,88.14 314.92,146.79 104.18,58.85 207.31,127.19 309.3,205.11l0.28 0.28c49.25,38.89 93.54,86.47 132.88,142.68 39.08,55.87 73.28,120.24 102.55,193.04 29.14,72.65 51.05,148.83 65.63,228.52 14.59,79.73 21.9,162.62 21.9,248.65l-0.13 1600.9 -3186.13 0 -0.02 -1600.78zm68.75 -240.24c-13.99,76.36 -20.99,156.43 -20.99,240.24l-0.12 1552.98 3090.89 0 0.03 -1553.09c-0.09,-83.72 -7.1,-163.75 -21.06,-240.07 -14,-76.46 -35.01,-149.59 -63,-219.36 -27.97,-69.57 -60.43,-130.75 -97.33,-183.51 -36.58,-52.29 -77.61,-96.44 -123.04,-132.37 -100.71,-76.86 -201.94,-144.02 -303.7,-201.4 -101.97,-57.39 -204.65,-105.26 -308.03,-143.54 -103.55,-38.3 -207.67,-66.99 -312.25,-86.04 -104.53,-19.05 -210.2,-28.57 -316.99,-28.57 -106.82,0 -212.51,9.52 -317.04,28.57 -104.6,19.05 -208.71,47.74 -312.29,86.04 -103.36,38.28 -206.04,86.15 -307.97,143.61 -101.8,57.3 -203.03,124.46 -303.7,201.36 -45.46,35.9 -86.49,80.04 -123.07,132.33 -36.91,52.76 -69.37,113.94 -97.34,183.51 -27.99,69.76 -49.01,142.85 -63,219.3z"/>
    <path id="person_add_24dp_E3E3E3_FILL0_wght400_GRAD0_opsz24.svg_1" class="fil8" d="M1041.54 1356.52c-152.98,-152.9 -229.43,-336.81 -229.43,-551.56 0,-214.82 76.45,-398.65 229.43,-551.62 152.98,-152.9 336.8,-229.44 551.63,-229.44 214.75,0 398.57,76.54 551.55,229.44 152.98,152.98 229.44,336.8 229.44,551.62 0,214.75 -76.46,398.65 -229.44,551.56 -152.98,152.98 -336.8,229.43 -551.55,229.43 -214.83,0 -398.65,-76.45 -551.63,-229.43z"/>
    <path class="fil7" d="M1024.72 1373.44c-78.76,-78.74 -137.87,-165.52 -177.29,-260.31 -39.49,-94.92 -59.23,-197.65 -59.23,-308.16 0,-110.52 19.74,-213.25 59.21,-308.15 39.47,-94.92 98.56,-181.72 177.21,-260.39 78.81,-78.67 165.59,-137.75 260.38,-177.19 94.92,-39.48 197.63,-59.23 308.16,-59.23 110.48,0 213.2,19.75 308.1,59.23 94.79,39.45 181.56,98.52 260.27,177.19 78.76,78.67 137.84,165.47 177.32,260.39 39.47,94.91 59.22,197.63 59.22,308.15 0,110.49 -19.75,213.22 -59.23,308.14 -39.42,94.77 -98.52,181.56 -177.26,260.28 -78.61,78.7 -165.41,137.78 -260.31,177.26 -94.9,39.48 -197.63,59.23 -308.1,59.23 -221.37,0 -410.79,-78.82 -568.45,-236.43zm-133.21 -278.62c37.02,89.02 92.65,170.66 166.83,244.81 148.31,148.28 326.53,222.44 534.82,222.44 104.27,0 200.87,-18.52 289.8,-55.5 88.92,-36.98 170.55,-92.65 244.85,-166.94 74.29,-74.15 129.91,-155.8 166.94,-244.82 36.99,-88.93 55.5,-185.57 55.5,-289.84 0,-104.29 -18.5,-200.92 -55.49,-289.85 -36.98,-88.93 -92.64,-170.57 -166.95,-244.88 -74.2,-74.25 -155.83,-129.89 -244.85,-166.93 -88.93,-36.98 -185.54,-55.5 -289.8,-55.5 -104.29,0 -200.93,18.52 -289.86,55.5 -89.02,37.04 -170.67,92.69 -244.91,166.88 -74.26,74.35 -129.92,155.99 -166.9,244.92 -36.99,88.94 -55.48,185.56 -55.48,289.85 0,104.28 18.5,200.91 55.5,289.85z"/>
    <polygon class="fil3" points="1582.23,2985.11 1790.18,2341.3 1910.15,1656.62 1814.33,1641.87 1593.17,1628.05 1404.01,1638.13 1263.07,1659.05 1381.06,2304 "/>
    <path class="fil7" d="M1582.63 2953.72l198.48 -614.52 118.25 -674.84 -86.16 -13.26 -220.11 -13.75 -188.02 10.02 -131.16 19.45 116.16 634.94 192.56 651.96zm216.37 -609.58l-217.17 672.36c-176,-595.78 -219.55,-764.06 -329.61,-1365.23 252.49,-37.59 413.48,-41.77 668.71,-2.39 -31.66,181.64 -72.69,537.68 -121.93,695.26z"/>
    <polygon class="fil9" points="1620.45,1858.06 1758.79,1669.19 1419.37,1669.19 1551.79,1851.9 1491.55,2692.21 1582.23,2985.11 1685.06,2692.36 "/>
    <path class="fil7" d="M1612.97 1852.57l127.51 -174.08 -302.9 0 123.7 170.69 -60.35 841.98 81.85 264.39 92.86 -264.38 -64.73 -835.82 2.05 -2.79zm153.31 -177.89l-136.3 186.08 64.48 832.78c-37.31,107.12 -75.18,214.09 -112.79,321.11 -33.17,-107.12 -66,-214.4 -99.51,-321.41l60.12 -838.63 -141.13 -194.72 375.95 0 -10.82 14.79z"/>
    <polygon class="fil3" points="749.03,3039.81 2465.06,3039.81 2465.06,4307.36 749.03,4307.36 "/>
    <path class="fil7" d="M749.03 3030.51l1725.33 0 0 1286.15 -1734.63 0 0 -1286.15 9.3 0zm1706.73 18.6l-1697.44 0 0 1248.95 1697.44 0 0 -1248.95z"/>
    <path class="fil0" d="M721.68 2985.11l1797.58 0 0 1376.94 -1852.28 0 0 -1376.94 54.7 0zm871.45 569.8l587.51 -432.11 -1175.03 0 587.52 432.11zm409.26 -165.51l-409.26 301 -810.21 -595.89 -6.54 0 0 1158.15 1633.48 0 0 -1158.15 -6.53 0 -400.95 294.89z"/>
    <path class="fil7" d="M721.68 2975.81l1806.88 0 0 1395.54 -1870.88 0 0 -1395.54 64 0zm1788.28 18.6l-1833.68 0 0 1358.34 1833.68 0 0 -1358.34zm-916.84 548.98l559.2 -411.28 -1118.41 0 559.21 411.28zm593 -413.1l-593 436.13c-205.43,-150.76 -410.54,-301.98 -615.84,-452.92l1231.66 0 -22.82 16.79zm-178.25 266.59l-414.74 305.03 -807.45 -593.85 0 1135.3 1614.88 0 0 -1135.29 -392.69 288.82zm-414.74 281.99l807.19 -593.67 18.85 0 0 1176.75 -1652.08 0 0 -1176.75 18.85 0 807.19 593.67z"/>
    <path class="fil10" d="M1174.67 3808.68c-76.14,0 -137.86,55.84 -137.86,124.73 0,68.88 61.72,124.73 137.86,124.73 76.14,0 137.86,-55.84 137.86,-124.73 0,-68.88 -61.72,-124.73 -137.86,-124.73z"/>
    <path class="fil7" d="M1174.67 3817.98c-35.72,0 -67.99,13.04 -91.27,34.09 -23.04,20.84 -37.29,49.6 -37.29,81.33 0,31.73 14.26,60.49 37.29,81.33 23.28,21.05 55.55,34.09 91.27,34.09 35.71,0 67.99,-13.04 91.27,-34.09 23.04,-20.84 37.29,-49.6 37.29,-81.33 0,-31.73 -14.26,-60.49 -37.29,-81.33 -23.28,-21.05 -55.56,-34.09 -91.27,-34.09zm-103.69 20.37c26.61,-24.07 63.28,-38.97 103.69,-38.97 40.41,0 77.08,14.9 103.69,38.97 26.85,24.29 43.47,57.91 43.47,95.06 0,37.15 -16.62,70.77 -43.47,95.06 -26.61,24.07 -63.28,38.97 -103.69,38.97 -40.41,0 -77.08,-14.9 -103.69,-38.97 -26.85,-24.29 -43.47,-57.91 -43.47,-95.06 0,-37.15 16.62,-70.77 43.47,-95.06z"/>
    <path class="fil10" d="M2011.57 3808.68c-76.13,0 -137.85,55.84 -137.85,124.73 0,68.88 61.72,124.73 137.85,124.73 76.15,0 137.86,-55.84 137.86,-124.73 0,-68.88 -61.71,-124.73 -137.86,-124.73z"/>
    <path class="fil7" d="M2011.57 3817.98c-35.71,0 -67.98,13.03 -91.26,34.09 -23.04,20.84 -37.29,49.61 -37.29,81.33 0,31.72 14.26,60.49 37.29,81.33 23.28,21.06 55.55,34.09 91.26,34.09 35.72,0 67.99,-13.03 91.27,-34.09 23.04,-20.84 37.29,-49.6 37.29,-81.33 0,-31.73 -14.26,-60.49 -37.29,-81.33 -23.28,-21.06 -55.55,-34.09 -91.27,-34.09zm-103.68 20.37c26.6,-24.07 63.28,-38.97 103.68,-38.97 40.42,0 77.09,14.9 103.69,38.97 26.85,24.29 43.47,57.91 43.47,95.06 0,37.15 -16.62,70.77 -43.47,95.06 -26.6,24.07 -63.27,38.97 -103.69,38.97 -40.4,0 -77.08,-14.9 -103.68,-38.97 -26.85,-24.29 -43.47,-57.91 -43.47,-95.06 0,-37.14 16.61,-70.76 43.47,-95.06z"/>
    <path class="fil10" d="M1593.12 3190.58c-76.14,0 -137.86,55.84 -137.86,124.73 0,68.88 61.72,124.73 137.86,124.73 76.14,0 137.85,-55.84 137.85,-124.73 0,-68.88 -61.71,-124.73 -137.85,-124.73z"/>
    <path class="fil7" d="M1593.12 3199.88c-35.72,0 -67.99,13.04 -91.27,34.09 -23.04,20.84 -37.29,49.6 -37.29,81.33 0,31.73 14.26,60.49 37.29,81.33 23.28,21.05 55.55,34.09 91.27,34.09 35.71,0 67.98,-13.03 91.26,-34.09 23.04,-20.84 37.29,-49.6 37.29,-81.33 0,-31.73 -14.26,-60.49 -37.29,-81.33 -23.28,-21.06 -55.55,-34.09 -91.26,-34.09zm-103.69 20.37c26.61,-24.07 63.28,-38.97 103.69,-38.97 40.4,0 77.08,14.9 103.68,38.97 26.85,24.29 43.47,57.91 43.47,95.06 0,37.15 -16.62,70.77 -43.47,95.06 -26.6,24.07 -63.28,38.97 -103.68,38.97 -40.41,0 -77.08,-14.9 -103.69,-38.97 -26.85,-24.29 -43.47,-57.91 -43.47,-95.06 0,-37.15 16.62,-70.77 43.47,-95.06z"/>
   </g>
  </g>
 </g>
</svg>
