<?xml version="1.0" encoding="UTF-8"?>
<!DOCTYPE svg PUBLIC "-//W3C//DTD SVG 1.1//EN" "http://www.w3.org/Graphics/SVG/1.1/DTD/svg11.dtd">
<!-- Creator: CorelDRAW (Versão OEM) -->
<svg xmlns="http://www.w3.org/2000/svg" xml:space="preserve" width="74.0176mm" height="48mm" version="1.1" style="shape-rendering:geometricPrecision; text-rendering:geometricPrecision; image-rendering:optimizeQuality; fill-rule:evenodd; clip-rule:evenodd"
viewBox="0 0 7402.72 4800.62"
 xmlns:xlink="http://www.w3.org/1999/xlink"
 xmlns:xodm="http://www.corel.com/coreldraw/odm/2003">
 <defs>
  <style type="text/css">
   <![CDATA[
    .fil3 {fill:#FEFEFE}
    .fil4 {fill:#373435}
    .fil5 {fill:#1E2A50}
    .fil1 {fill:#FEFEFE;fill-rule:nonzero}
    .fil2 {fill:#373435;fill-rule:nonzero}
    .fil0 {fill:#1E2A50;fill-rule:nonzero}
   ]]>
  </style>
 </defs>
 <g id="Camada_x0020_1">
  <metadata id="CorelCorpID_0Corel-Layer"/>
  <g id="_2777380537712">
   <g>
    <path id="person_add_24dp_E3E3E3_FILL0_wght400_GRAD0_opsz24.svg" class="fil0" d="M1607.99 1821.67c65.77,-65.78 98.66,-144.89 98.66,-237.26 0,-92.45 -32.89,-171.5 -98.66,-237.34 -65.78,-65.78 -144.89,-98.66 -237.27,-98.66 -92.44,0 -171.49,32.88 -237.33,98.66 -65.78,65.84 -98.67,144.89 -98.67,237.34 0,92.37 32.89,171.48 98.67,237.26 65.77,65.78 144.89,98.67 237.33,98.67 92.38,0 171.42,-32.89 237.27,-98.67z"/>
    <path class="fil1" d="M1602.34 1816.02c32.13,-32.15 56.25,-67.53 72.27,-106.06 16.02,-38.56 24.04,-80.4 24.04,-125.56 0,-45.18 -8.02,-87.04 -24.04,-125.58 -16.04,-38.58 -40.15,-73.97 -72.28,-106.12 -32.11,-32.11 -67.48,-56.21 -106.05,-72.25 -38.56,-16.02 -80.41,-24.04 -125.56,-24.04 -45.18,0 -87.05,8.02 -125.59,24.04 -38.57,16.03 -73.94,40.14 -106.1,72.27 -32.13,32.15 -56.23,67.53 -72.27,106.1 -16.01,38.53 -24.04,80.4 -24.04,125.58 0,45.16 8.02,87.01 24.04,125.57 16.03,38.57 40.14,73.94 72.25,106.05 32.14,32.12 67.52,56.24 106.1,72.28 38.54,16.01 80.43,24.04 125.61,24.04 45.15,0 86.99,-8.03 125.53,-24.04 38.57,-16.04 73.94,-40.15 106.09,-72.28zm87.02 -99.93c-16.85,40.53 -42.11,77.63 -75.72,111.24 -33.69,33.62 -70.79,58.88 -111.27,75.72 -40.53,16.85 -84.41,25.29 -131.65,25.29 -47.26,0 -91.18,-8.44 -131.74,-25.29 -40.5,-16.84 -77.58,-42.1 -111.22,-75.72 -33.65,-33.65 -58.92,-70.76 -75.75,-111.24 -16.85,-40.54 -25.29,-84.45 -25.29,-131.69 0,-47.26 8.44,-91.17 25.29,-131.71 16.83,-40.5 42.1,-77.59 75.72,-111.24 33.7,-33.66 70.8,-58.92 111.28,-75.75 40.54,-16.86 84.45,-25.29 131.71,-25.29 47.24,0 91.14,8.44 131.69,25.29 40.49,16.84 77.59,42.1 111.23,75.75 33.62,33.65 58.89,70.75 75.72,111.24 16.85,40.54 25.29,84.45 25.29,131.71 0,47.24 -8.44,91.14 -25.29,131.69z"/>
    <path id="person_add_24dp_E3E3E3_FILL0_wght400_GRAD0_opsz24.svg_2" class="fil2" d="M20.54 3355.08c0,-146.2 24.62,-280.5 73.8,-403.01 49.25,-122.51 114.62,-215.98 196.21,-280.4 174.39,-133.23 351.6,-233.13 531.66,-299.79 180.01,-66.57 362.83,-99.9 548.51,-99.9 185.61,0 368.43,33.33 548.44,99.9 180.06,66.66 357.27,166.56 531.66,299.79 81.58,64.42 146.97,157.89 196.22,280.4 49.18,122.52 73.8,256.81 73.8,402.91 0,452.3 -0.03,904.49 -0.03,1356.79l-2700.29 0c0,-452.26 0.03,-904.43 0.03,-1356.69z"/>
    <path class="fil1" d="M0.01 3355.08c-0.04,-74.1 6.25,-145.46 18.82,-214.08 12.55,-68.55 31.38,-134.08 56.47,-196.57 25.17,-62.62 54.6,-118.01 88.23,-166.07 33.84,-48.38 71.96,-89.31 114.32,-122.77l0.24 -0.24c87.76,-67.05 176.46,-125.85 266.1,-176.39 89.5,-50.55 179.83,-92.64 270.93,-126.38 90.89,-33.6 182.76,-58.88 275.6,-75.78 92.89,-16.92 186.22,-25.38 279.99,-25.38 93.74,0 187.06,8.46 279.96,25.38 92.8,16.9 184.67,42.18 275.56,75.78 91.1,33.73 181.44,75.83 270.95,126.3 89.64,50.63 178.36,109.42 266.11,176.47l0.24 0.24c42.38,33.45 80.48,74.39 114.32,122.77 33.62,48.07 63.05,103.44 88.23,166.07 25.07,62.51 43.92,128.06 56.46,196.62 12.55,68.6 18.85,139.92 18.85,213.94l-0.12 1377.35 -2741.24 0 -0.02 -1377.26zm59.16 -206.69c-12.04,65.69 -18.06,134.59 -18.06,206.69l-0.11 1336.12 2659.3 0 0.03 -1336.21c-0.08,-72.04 -6.1,-140.89 -18.12,-206.55 -12.05,-65.79 -30.13,-128.71 -54.21,-188.73 -24.07,-59.86 -51.99,-112.49 -83.74,-157.88 -31.47,-45 -66.78,-82.97 -105.86,-113.89 -86.64,-66.13 -173.74,-123.91 -261.29,-173.27 -87.72,-49.38 -176.06,-90.56 -265.01,-123.5 -89.09,-32.95 -178.67,-57.64 -268.65,-74.03 -89.92,-16.38 -180.84,-24.57 -272.73,-24.57 -91.9,0 -182.83,8.19 -272.77,24.57 -90,16.39 -179.56,41.08 -268.68,74.03 -88.93,32.93 -177.27,74.12 -264.96,123.56 -87.59,49.31 -174.68,107.07 -261.28,173.25 -39.12,30.88 -74.42,68.86 -105.89,113.85 -31.75,45.39 -59.68,98.02 -83.74,157.88 -24.09,60.02 -42.17,122.91 -54.21,188.68z"/>
    <path id="person_add_24dp_E3E3E3_FILL0_wght400_GRAD0_opsz24.svg_3" class="fil2" d="M896.12 2058.94c-131.62,-131.56 -197.4,-289.78 -197.4,-474.53 0,-184.83 65.78,-342.98 197.4,-474.61 131.62,-131.55 289.78,-197.4 474.6,-197.4 184.75,0 342.91,65.85 474.54,197.4 131.62,131.63 197.4,289.78 197.4,474.61 0,184.75 -65.78,342.97 -197.4,474.53 -131.63,131.62 -289.79,197.4 -474.54,197.4 -184.82,0 -342.98,-65.78 -474.6,-197.4z"/>
    <path class="fil1" d="M881.64 2073.49c-67.77,-67.74 -118.62,-142.41 -152.54,-223.97 -33.97,-81.66 -50.96,-170.05 -50.96,-265.12 0,-95.08 16.98,-183.47 50.94,-265.12 33.96,-81.66 84.8,-156.35 152.48,-224.02 67.8,-67.69 142.47,-118.53 224.02,-152.46 81.66,-33.96 170.04,-50.96 265.12,-50.96 95.06,0 183.43,16.99 265.08,50.96 81.56,33.93 156.21,84.76 223.93,152.46 67.76,67.67 118.6,142.36 152.55,224.02 33.96,81.66 50.96,170.04 50.96,265.12 0,95.06 -16.99,183.45 -50.97,265.12 -33.9,81.53 -84.76,156.19 -152.5,223.93 -67.64,67.71 -142.31,118.55 -223.97,152.5 -81.65,33.96 -170.02,50.97 -265.08,50.97 -190.45,0 -353.43,-67.82 -489.06,-203.43zm-114.61 -239.71c31.85,76.59 79.71,146.82 143.54,210.62 127.61,127.58 280.94,191.38 460.14,191.38 89.71,0 172.83,-15.93 249.34,-47.76 76.5,-31.82 146.74,-79.71 210.66,-143.63 63.91,-63.8 111.76,-134.03 143.63,-210.63 31.82,-76.52 47.76,-159.66 47.76,-249.37 0,-89.73 -15.92,-172.86 -47.75,-249.37 -31.82,-76.52 -79.71,-146.76 -143.64,-210.68 -63.84,-63.89 -134.08,-111.76 -210.66,-143.63 -76.51,-31.81 -159.63,-47.75 -249.34,-47.75 -89.73,0 -172.86,15.93 -249.38,47.75 -76.58,31.86 -146.83,79.75 -210.72,143.58 -63.88,63.97 -111.77,134.21 -143.59,210.73 -31.82,76.52 -47.74,159.65 -47.74,249.37 0,89.72 15.92,172.85 47.75,249.38z"/>
    <polygon class="fil3" points="1361.31,3460.12 1540.21,2906.21 1643.43,2317.13 1560.99,2304.44 1370.71,2292.56 1207.97,2301.23 1086.71,2319.22 1188.22,2874.12 "/>
    <path class="fil1" d="M1361.65 3433.11l170.76 -528.71 101.74 -580.61 -74.13 -11.41 -189.37 -11.83 -161.76 8.62 -112.85 16.74 99.94 546.28 165.67 560.91zm186.16 -524.46l-186.85 578.48c-151.43,-512.59 -188.89,-657.38 -283.58,-1174.59 217.24,-32.33 355.74,-35.93 575.32,-2.05 -27.23,156.27 -62.53,462.6 -104.89,598.17z"/>
    <polygon class="fil4" points="1394.18,2490.44 1513.21,2327.95 1221.18,2327.95 1335.1,2485.15 1283.29,3208.13 1361.31,3460.12 1449.77,3208.25 "/>
    <path class="fil1" d="M1387.75 2485.72l109.69 -149.77 -260.59 0 106.42 146.86 -51.92 724.41 70.43 227.47 79.89 -227.46 -55.69 -719.11 1.76 -2.4zm131.9 -153.05l-117.27 160.1 55.48 716.49c-32.1,92.16 -64.68,184.19 -97.03,276.28 -28.54,-92.16 -56.79,-184.46 -85.62,-276.54l51.73 -721.52 -121.43 -167.53 323.46 0 -9.32 12.72z"/>
    <polygon class="fil3" points="644.44,3507.18 2120.86,3507.18 2120.86,4597.74 644.44,4597.74 "/>
    <path class="fil1" d="M644.44 3499.18l1484.41 0 0 1106.55 -1492.41 0 0 -1106.55 8 0zm1468.41 16l-1460.41 0 0 1074.55 1460.41 0 0 -1074.55z"/>
    <path class="fil0" d="M620.91 3460.12l1546.58 0 0 1184.68 -1593.64 0 0 -1184.68 47.06 0zm749.76 490.24l505.49 -371.77 -1010.96 0 505.48 371.77zm352.12 -142.4l-352.12 258.96 -697.07 -512.68 -5.62 0 0 996.43 1405.39 0 0 -996.43 -5.62 0 -344.96 253.71z"/>
    <path class="fil1" d="M620.91 3452.12l1554.58 0 0 1200.68 -1609.65 0 0 -1200.68 55.07 0zm1538.58 16l-1577.64 0 0 1168.67 1577.64 0 0 -1168.67zm-788.82 472.33l481.12 -353.86 -962.24 0 481.12 353.86zm510.2 -355.42l-510.2 375.23c-176.74,-129.71 -353.21,-259.8 -529.84,-389.67l1059.67 0 -19.63 14.44zm-153.36 229.36l-356.84 262.43 -694.7 -510.93 0 976.78 1389.4 0 0 -976.77 -337.86 248.48zm-356.84 242.62l694.48 -510.78 16.22 0 0 1012.44 -1421.4 0 0 -1012.44 16.22 0 694.48 510.78z"/>
    <path class="fil5" d="M1010.65 4168.69c-65.51,0 -118.61,48.05 -118.61,107.31 0,59.26 53.1,107.3 118.61,107.3 65.5,0 118.61,-48.05 118.61,-107.3 0,-59.27 -53.11,-107.31 -118.61,-107.31z"/>
    <path class="fil1" d="M1010.65 4176.69c-30.73,0 -58.5,11.22 -78.52,29.33 -19.82,17.93 -32.08,42.68 -32.08,69.98 0,27.29 12.26,52.05 32.08,69.98 20.02,18.11 47.79,29.32 78.52,29.32 30.72,0 58.5,-11.21 78.52,-29.32 19.82,-17.93 32.08,-42.69 32.08,-69.98 0,-27.3 -12.26,-52.05 -32.08,-69.98 -20.02,-18.11 -47.8,-29.33 -78.52,-29.33zm-89.21 17.52c22.89,-20.7 54.45,-33.52 89.21,-33.52 34.76,0 66.32,12.82 89.21,33.52 23.09,20.9 37.39,49.83 37.39,81.79 0,31.96 -14.3,60.89 -37.39,81.78 -22.89,20.71 -54.45,33.52 -89.21,33.52 -34.76,0 -66.32,-12.81 -89.21,-33.52 -23.1,-20.89 -37.39,-49.82 -37.39,-81.78 0,-31.96 14.29,-60.89 37.39,-81.79z"/>
    <path class="fil5" d="M1730.69 4168.69c-65.51,0 -118.61,48.05 -118.61,107.31 0,59.26 53.1,107.3 118.61,107.3 65.5,0 118.61,-48.05 118.61,-107.3 0,-59.27 -53.11,-107.31 -118.61,-107.31z"/>
    <path class="fil1" d="M1730.68 4176.69c-30.72,0 -58.49,11.21 -78.51,29.33 -19.82,17.93 -32.08,42.69 -32.08,69.98 0,27.29 12.26,52.05 32.08,69.98 20.02,18.12 47.79,29.32 78.51,29.32 30.73,0 58.5,-11.2 78.52,-29.32 19.82,-17.93 32.08,-42.69 32.08,-69.98 0,-27.3 -12.26,-52.05 -32.08,-69.98 -20.02,-18.12 -47.79,-29.33 -78.52,-29.33zm-89.2 17.52c22.88,-20.7 54.45,-33.52 89.2,-33.52 34.77,0 66.33,12.82 89.21,33.52 23.1,20.9 37.39,49.83 37.39,81.79 0,31.96 -14.29,60.89 -37.39,81.78 -22.88,20.71 -54.44,33.52 -89.21,33.52 -34.75,0 -66.32,-12.81 -89.2,-33.52 -23.1,-20.89 -37.39,-49.82 -37.39,-81.78 0,-31.95 14.29,-60.88 37.39,-81.79z"/>
    <path class="fil5" d="M1370.67 3636.9c-65.5,0 -118.61,48.04 -118.61,107.3 0,59.27 53.11,107.31 118.61,107.31 65.51,0 118.61,-48.05 118.61,-107.31 0,-59.27 -53.1,-107.3 -118.61,-107.3z"/>
    <path class="fil1" d="M1370.67 3644.89c-30.72,0 -58.49,11.22 -78.52,29.33 -19.81,17.93 -32.08,42.68 -32.08,69.98 0,27.3 12.27,52.05 32.08,69.98 20.03,18.11 47.8,29.33 78.52,29.33 30.72,0 58.49,-11.21 78.52,-29.33 19.81,-17.93 32.08,-42.68 32.08,-69.98 0,-27.3 -12.27,-52.05 -32.08,-69.98 -20.03,-18.12 -47.8,-29.33 -78.52,-29.33zm-89.21 17.52c22.89,-20.7 54.45,-33.52 89.21,-33.52 34.76,0 66.33,12.82 89.21,33.52 23.09,20.9 37.39,49.83 37.39,81.79 0,31.96 -14.3,60.89 -37.39,81.79 -22.88,20.7 -54.45,33.52 -89.21,33.52 -34.76,0 -66.32,-12.82 -89.21,-33.52 -23.09,-20.9 -37.39,-49.83 -37.39,-81.79 0,-31.96 14.3,-60.89 37.39,-81.79z"/>
   </g>
   <g>
    <path id="person_add_24dp_E3E3E3_FILL0_wght400_GRAD0_opsz24.svg_4" class="fil0" d="M6269.33 1831.67c65.77,-65.78 98.66,-144.89 98.66,-237.26 0,-92.45 -32.89,-171.5 -98.66,-237.34 -65.78,-65.78 -144.89,-98.66 -237.27,-98.66 -92.44,0 -171.49,32.88 -237.33,98.66 -65.78,65.84 -98.67,144.89 -98.67,237.34 0,92.37 32.89,171.48 98.67,237.26 65.77,65.78 144.89,98.67 237.33,98.67 92.38,0 171.42,-32.89 237.27,-98.67z"/>
    <path class="fil1" d="M6263.68 1826.02c32.13,-32.15 56.25,-67.53 72.27,-106.06 16.02,-38.56 24.04,-80.4 24.04,-125.56 0,-45.18 -8.02,-87.04 -24.04,-125.58 -16.04,-38.58 -40.15,-73.97 -72.28,-106.12 -32.11,-32.11 -67.48,-56.21 -106.05,-72.25 -38.56,-16.02 -80.41,-24.04 -125.56,-24.04 -45.18,0 -87.05,8.02 -125.59,24.04 -38.57,16.03 -73.94,40.14 -106.1,72.27 -32.13,32.15 -56.23,67.53 -72.27,106.1 -16.01,38.53 -24.04,80.4 -24.04,125.58 0,45.16 8.02,87.01 24.04,125.57 16.03,38.57 40.14,73.94 72.25,106.05 32.14,32.12 67.52,56.24 106.1,72.28 38.54,16.01 80.43,24.04 125.61,24.04 45.15,0 86.99,-8.03 125.53,-24.04 38.57,-16.04 73.94,-40.15 106.09,-72.28zm87.02 -99.93c-16.85,40.53 -42.11,77.63 -75.72,111.24 -33.69,33.62 -70.79,58.88 -111.27,75.72 -40.53,16.85 -84.41,25.29 -131.65,25.29 -47.26,0 -91.18,-8.44 -131.74,-25.29 -40.5,-16.84 -77.58,-42.1 -111.22,-75.72 -33.65,-33.65 -58.92,-70.76 -75.75,-111.24 -16.85,-40.54 -25.29,-84.45 -25.29,-131.69 0,-47.26 8.44,-91.17 25.29,-131.71 16.83,-40.5 42.1,-77.59 75.72,-111.24 33.7,-33.66 70.8,-58.92 111.28,-75.75 40.54,-16.86 84.45,-25.29 131.71,-25.29 47.24,0 91.14,8.44 131.69,25.29 40.49,16.84 77.59,42.1 111.23,75.75 33.62,33.65 58.89,70.75 75.72,111.24 16.85,40.54 25.29,84.45 25.29,131.71 0,47.24 -8.44,91.14 -25.29,131.69z"/>
    <path id="person_add_24dp_E3E3E3_FILL0_wght400_GRAD0_opsz24.svg_5" class="fil2" d="M4681.89 3365.08c0,-146.2 24.62,-280.5 73.8,-403.01 49.25,-122.51 114.62,-215.98 196.21,-280.4 174.39,-133.23 351.6,-233.13 531.66,-299.79 180.01,-66.57 362.83,-99.9 548.51,-99.9 185.61,0 368.43,33.33 548.44,99.9 180.06,66.66 357.27,166.56 531.66,299.79 81.58,64.42 146.97,157.89 196.22,280.4 49.18,122.52 73.8,256.81 73.8,402.91 0,452.3 -0.03,904.49 -0.03,1356.79l-2700.29 0c0,-452.26 0.03,-904.43 0.03,-1356.69z"/>
    <path class="fil1" d="M4661.35 3365.08c-0.04,-74.1 6.25,-145.46 18.82,-214.08 12.55,-68.55 31.38,-134.08 56.47,-196.57 25.17,-62.62 54.6,-118.01 88.23,-166.07 33.84,-48.38 71.96,-89.31 114.32,-122.77l0.24 -0.24c87.76,-67.05 176.46,-125.85 266.1,-176.39 89.5,-50.55 179.83,-92.64 270.93,-126.38 90.89,-33.6 182.76,-58.88 275.6,-75.78 92.89,-16.92 186.22,-25.38 279.99,-25.38 93.74,0 187.06,8.46 279.96,25.38 92.8,16.9 184.67,42.18 275.56,75.78 91.1,33.73 181.44,75.83 270.95,126.3 89.64,50.63 178.36,109.42 266.11,176.47l0.24 0.24c42.38,33.45 80.48,74.39 114.32,122.77 33.62,48.07 63.05,103.44 88.23,166.07 25.07,62.51 43.92,128.06 56.46,196.62 12.55,68.6 18.85,139.92 18.85,213.94l-0.12 1377.35 -2741.24 0 -0.02 -1377.26zm59.16 -206.69c-12.04,65.69 -18.06,134.59 -18.06,206.69l-0.11 1336.12 2659.3 0 0.03 -1336.21c-0.08,-72.04 -6.1,-140.89 -18.12,-206.55 -12.05,-65.79 -30.13,-128.71 -54.21,-188.73 -24.07,-59.86 -51.99,-112.49 -83.74,-157.88 -31.47,-45 -66.78,-82.97 -105.86,-113.89 -86.64,-66.13 -173.74,-123.91 -261.29,-173.27 -87.72,-49.38 -176.06,-90.56 -265.01,-123.5 -89.09,-32.95 -178.67,-57.64 -268.65,-74.03 -89.92,-16.38 -180.84,-24.57 -272.73,-24.57 -91.9,0 -182.83,8.19 -272.77,24.57 -90,16.39 -179.56,41.08 -268.68,74.03 -88.93,32.93 -177.27,74.12 -264.96,123.56 -87.59,49.31 -174.68,107.07 -261.28,173.25 -39.12,30.88 -74.42,68.86 -105.89,113.85 -31.75,45.39 -59.68,98.02 -83.74,157.88 -24.09,60.02 -42.17,122.91 -54.21,188.68z"/>
    <path id="person_add_24dp_E3E3E3_FILL0_wght400_GRAD0_opsz24.svg_6" class="fil2" d="M5557.46 2068.94c-131.62,-131.56 -197.4,-289.78 -197.4,-474.53 0,-184.83 65.78,-342.98 197.4,-474.61 131.62,-131.55 289.78,-197.4 474.6,-197.4 184.75,0 342.91,65.85 474.54,197.4 131.62,131.63 197.4,289.78 197.4,474.61 0,184.75 -65.78,342.97 -197.4,474.53 -131.63,131.62 -289.79,197.4 -474.54,197.4 -184.82,0 -342.98,-65.78 -474.6,-197.4z"/>
    <path class="fil1" d="M5542.99 2083.49c-67.77,-67.74 -118.62,-142.41 -152.54,-223.97 -33.97,-81.66 -50.96,-170.05 -50.96,-265.12 0,-95.08 16.98,-183.47 50.94,-265.12 33.96,-81.66 84.8,-156.35 152.48,-224.02 67.8,-67.69 142.47,-118.53 224.02,-152.46 81.66,-33.96 170.04,-50.96 265.12,-50.96 95.06,0 183.43,16.99 265.08,50.96 81.56,33.93 156.21,84.76 223.93,152.46 67.76,67.67 118.6,142.36 152.55,224.02 33.96,81.66 50.96,170.04 50.96,265.12 0,95.06 -16.99,183.45 -50.97,265.12 -33.9,81.53 -84.76,156.19 -152.5,223.93 -67.64,67.71 -142.31,118.55 -223.97,152.5 -81.65,33.96 -170.02,50.97 -265.08,50.97 -190.45,0 -353.43,-67.82 -489.06,-203.43zm-114.61 -239.71c31.85,76.59 79.71,146.82 143.54,210.62 127.61,127.58 280.94,191.38 460.14,191.38 89.71,0 172.83,-15.93 249.34,-47.76 76.5,-31.82 146.74,-79.71 210.66,-143.63 63.91,-63.8 111.76,-134.03 143.63,-210.63 31.82,-76.52 47.76,-159.66 47.76,-249.37 0,-89.73 -15.92,-172.86 -47.75,-249.37 -31.82,-76.52 -79.71,-146.76 -143.64,-210.68 -63.84,-63.89 -134.08,-111.76 -210.66,-143.63 -76.51,-31.81 -159.63,-47.75 -249.34,-47.75 -89.73,0 -172.86,15.93 -249.38,47.75 -76.58,31.86 -146.83,79.75 -210.72,143.58 -63.88,63.97 -111.77,134.21 -143.59,210.73 -31.82,76.52 -47.74,159.65 -47.74,249.37 0,89.72 15.92,172.85 47.75,249.38z"/>
    <polygon class="fil3" points="6022.65,3470.12 6201.55,2916.21 6304.78,2327.13 6222.34,2314.44 6032.05,2302.56 5869.31,2311.23 5748.06,2329.22 5849.57,2884.12 "/>
    <path class="fil1" d="M6022.99 3443.11l170.76 -528.71 101.74 -580.61 -74.13 -11.41 -189.37 -11.83 -161.76 8.62 -112.85 16.74 99.94 546.28 165.67 560.91zm186.16 -524.46l-186.85 578.48c-151.43,-512.59 -188.89,-657.38 -283.58,-1174.59 217.24,-32.33 355.74,-35.93 575.32,-2.05 -27.23,156.27 -62.53,462.6 -104.89,598.17z"/>
    <polygon class="fil4" points="6055.53,2500.44 6174.55,2337.95 5882.52,2337.95 5996.45,2495.15 5944.63,3218.13 6022.65,3470.12 6111.11,3218.25 "/>
    <path class="fil1" d="M6049.09 2495.72l109.69 -149.77 -260.59 0 106.42 146.86 -51.92 724.41 70.43 227.47 79.89 -227.46 -55.69 -719.11 1.76 -2.4zm131.9 -153.05l-117.27 160.1 55.48 716.49c-32.1,92.16 -64.68,184.19 -97.03,276.28 -28.54,-92.16 -56.79,-184.46 -85.62,-276.54l51.73 -721.52 -121.43 -167.53 323.46 0 -9.32 12.72z"/>
    <polygon class="fil3" points="5305.79,3517.19 6782.2,3517.19 6782.2,4607.74 5305.79,4607.74 "/>
    <path class="fil1" d="M5305.79 3509.19l1484.41 0 0 1106.55 -1492.41 0 0 -1106.55 8 0zm1468.41 16l-1460.41 0 0 1074.55 1460.41 0 0 -1074.55z"/>
    <path class="fil0" d="M5282.26 3470.12l1546.58 0 0 1184.68 -1593.64 0 0 -1184.68 47.06 0zm749.76 490.24l505.49 -371.77 -1010.96 0 505.48 371.77zm352.12 -142.4l-352.12 258.96 -697.07 -512.68 -5.62 0 0 996.43 1405.39 0 0 -996.43 -5.62 0 -344.96 253.71z"/>
    <path class="fil1" d="M5282.26 3462.12l1554.58 0 0 1200.68 -1609.65 0 0 -1200.68 55.07 0zm1538.58 16l-1577.64 0 0 1168.67 1577.64 0 0 -1168.67zm-788.82 472.33l481.12 -353.86 -962.24 0 481.12 353.86zm510.2 -355.42l-510.2 375.23c-176.74,-129.71 -353.21,-259.8 -529.84,-389.67l1059.67 0 -19.63 14.44zm-153.36 229.36l-356.84 262.43 -694.7 -510.93 0 976.78 1389.4 0 0 -976.77 -337.86 248.48zm-356.84 242.62l694.48 -510.78 16.22 0 0 1012.44 -1421.4 0 0 -1012.44 16.22 0 694.48 510.78z"/>
    <path class="fil5" d="M5672 4178.69c-65.51,0 -118.61,48.05 -118.61,107.31 0,59.26 53.1,107.3 118.61,107.3 65.5,0 118.61,-48.05 118.61,-107.3 0,-59.27 -53.11,-107.31 -118.61,-107.31z"/>
    <path class="fil1" d="M5672 4186.69c-30.73,0 -58.5,11.22 -78.52,29.33 -19.82,17.93 -32.08,42.68 -32.08,69.98 0,27.29 12.26,52.05 32.08,69.98 20.02,18.11 47.79,29.32 78.52,29.32 30.72,0 58.5,-11.21 78.52,-29.32 19.82,-17.93 32.08,-42.69 32.08,-69.98 0,-27.3 -12.26,-52.05 -32.08,-69.98 -20.02,-18.11 -47.8,-29.33 -78.52,-29.33zm-89.21 17.52c22.89,-20.7 54.45,-33.52 89.21,-33.52 34.76,0 66.32,12.82 89.21,33.52 23.09,20.9 37.39,49.83 37.39,81.79 0,31.96 -14.3,60.89 -37.39,81.78 -22.89,20.71 -54.45,33.52 -89.21,33.52 -34.76,0 -66.32,-12.81 -89.21,-33.52 -23.1,-20.89 -37.39,-49.82 -37.39,-81.78 0,-31.96 14.29,-60.89 37.39,-81.79z"/>
    <path class="fil5" d="M6392.04 4178.69c-65.51,0 -118.61,48.05 -118.61,107.31 0,59.26 53.1,107.3 118.61,107.3 65.5,0 118.61,-48.05 118.61,-107.3 0,-59.27 -53.11,-107.31 -118.61,-107.31z"/>
    <path class="fil1" d="M6392.03 4186.69c-30.72,0 -58.49,11.21 -78.51,29.33 -19.82,17.93 -32.08,42.69 -32.08,69.98 0,27.29 12.26,52.05 32.08,69.98 20.02,18.12 47.79,29.32 78.51,29.32 30.73,0 58.5,-11.2 78.52,-29.32 19.82,-17.93 32.08,-42.69 32.08,-69.98 0,-27.3 -12.26,-52.05 -32.08,-69.98 -20.02,-18.12 -47.79,-29.33 -78.52,-29.33zm-89.2 17.52c22.88,-20.7 54.45,-33.52 89.2,-33.52 34.77,0 66.33,12.82 89.21,33.52 23.1,20.9 37.39,49.83 37.39,81.79 0,31.96 -14.29,60.89 -37.39,81.78 -22.88,20.71 -54.44,33.52 -89.21,33.52 -34.75,0 -66.32,-12.81 -89.2,-33.52 -23.1,-20.89 -37.39,-49.82 -37.39,-81.78 0,-31.95 14.29,-60.88 37.39,-81.79z"/>
    <path class="fil5" d="M6032.01 3646.9c-65.5,0 -118.61,48.04 -118.61,107.3 0,59.27 53.11,107.31 118.61,107.31 65.51,0 118.61,-48.05 118.61,-107.31 0,-59.27 -53.1,-107.3 -118.61,-107.3z"/>
    <path class="fil1" d="M6032.01 3654.89c-30.72,0 -58.49,11.22 -78.52,29.33 -19.81,17.93 -32.08,42.68 -32.08,69.98 0,27.3 12.27,52.05 32.08,69.98 20.03,18.11 47.8,29.33 78.52,29.33 30.72,0 58.49,-11.21 78.52,-29.33 19.81,-17.93 32.08,-42.68 32.08,-69.98 0,-27.3 -12.27,-52.05 -32.08,-69.98 -20.03,-18.12 -47.8,-29.33 -78.52,-29.33zm-89.21 17.52c22.89,-20.7 54.45,-33.52 89.21,-33.52 34.76,0 66.33,12.82 89.21,33.52 23.09,20.9 37.39,49.83 37.39,81.79 0,31.96 -14.3,60.89 -37.39,81.79 -22.88,20.7 -54.45,33.52 -89.21,33.52 -34.76,0 -66.32,-12.82 -89.21,-33.52 -23.09,-20.9 -37.39,-49.83 -37.39,-81.79 0,-31.96 14.3,-60.89 37.39,-81.79z"/>
   </g>
   <g>
    <path id="person_add_24dp_E3E3E3_FILL0_wght400_GRAD0_opsz24.svg_7" class="fil0" d="M3992.97 1162.29c82.22,-82.22 123.34,-181.1 123.34,-296.59 0,-115.55 -41.12,-214.37 -123.34,-296.66 -82.22,-82.23 -181.1,-123.34 -296.58,-123.34 -115.56,0 -214.37,41.11 -296.67,123.34 -82.23,82.29 -123.34,181.1 -123.34,296.66 0,115.48 41.11,214.37 123.34,296.59 82.22,82.22 181.1,123.34 296.67,123.34 115.47,0 214.28,-41.12 296.58,-123.34z"/>
    <path class="fil1" d="M3985.91 1155.23c40.18,-40.2 70.31,-84.41 90.34,-132.59 20.03,-48.19 30.05,-100.5 30.05,-156.94 0,-56.47 -10.03,-108.8 -30.05,-156.97 -20.05,-48.23 -50.18,-92.46 -90.35,-132.66 -40.14,-40.15 -84.35,-70.26 -132.57,-90.31 -48.19,-20.03 -100.51,-30.05 -156.94,-30.05 -56.48,0 -108.81,10.02 -156.98,30.05 -48.21,20.04 -92.43,50.17 -132.64,90.33 -40.17,40.2 -70.28,84.42 -90.33,132.64 -20.02,48.17 -30.05,100.5 -30.05,156.97 0,56.44 10.02,108.76 30.05,156.95 20.04,48.22 50.17,92.43 90.31,132.57 40.18,40.17 84.4,70.3 132.63,90.35 48.19,20.02 100.54,30.05 157.01,30.05 56.43,0 108.73,-10.03 156.9,-30.05 48.21,-20.05 92.43,-50.18 132.62,-90.34zm108.78 -124.93c-21.07,50.67 -52.64,97.04 -94.65,139.06 -42.12,42.04 -88.48,73.6 -139.09,94.65 -50.67,21.06 -105.52,31.61 -164.56,31.61 -59.08,0 -113.98,-10.55 -164.67,-31.61 -50.63,-21.05 -96.98,-52.62 -139.03,-94.65 -42.08,-42.07 -73.65,-88.44 -94.69,-139.05 -21.06,-50.68 -31.61,-105.56 -31.61,-164.61 0,-59.08 10.55,-113.96 31.61,-164.63 21.04,-50.63 52.62,-96.99 94.65,-139.06 42.13,-42.09 88.49,-73.65 139.1,-94.69 50.68,-21.07 105.56,-31.61 164.64,-31.61 59.04,0 113.92,10.55 164.6,31.61 50.62,21.05 96.99,52.63 139.05,94.69 42.04,42.07 73.61,88.43 94.65,139.06 21.06,50.67 31.61,105.55 31.61,164.63 0,59.05 -10.55,113.92 -31.61,164.6z"/>
    <path id="person_add_24dp_E3E3E3_FILL0_wght400_GRAD0_opsz24.svg_8" class="fil2" d="M2008.67 3079.05c0,-182.74 30.77,-350.62 92.24,-503.77 61.56,-153.13 143.29,-269.97 245.26,-350.5 217.99,-166.54 439.5,-291.41 664.58,-374.74 225.01,-83.21 453.53,-124.88 685.64,-124.88 232.02,0 460.54,41.67 685.54,124.88 225.09,83.33 446.59,208.2 664.58,374.74 101.98,80.53 183.71,197.37 245.27,350.5 61.47,153.15 92.25,321.02 92.25,503.65 0,565.37 -0.04,1130.61 -0.04,1695.97l-3375.36 0c0,-565.32 0.04,-1130.52 0.04,-1695.85z"/>
    <path class="fil1" d="M1983.01 3079.05c-0.05,-92.62 7.81,-181.82 23.53,-267.59 15.68,-85.69 39.22,-167.6 70.58,-245.7 31.46,-78.28 68.25,-147.52 110.29,-207.61 42.31,-60.46 89.94,-111.62 142.9,-153.45l0.3 -0.3c109.69,-83.8 220.58,-157.3 332.63,-220.49 111.87,-63.18 224.79,-115.81 338.65,-157.97 113.61,-42.01 228.46,-73.6 344.48,-94.73 116.12,-21.14 232.79,-31.72 350,-31.72 117.18,0 233.83,10.58 349.94,31.72 116.02,21.13 230.85,52.73 344.44,94.73 113.88,42.17 226.8,94.79 338.68,157.87 112.04,63.29 222.95,136.79 332.64,220.59l0.3 0.3c52.97,41.83 100.6,92.99 142.91,153.45 42.03,60.09 78.81,129.32 110.28,207.61 31.34,78.13 54.9,160.06 70.58,245.76 15.69,85.74 23.55,174.89 23.55,267.41l-0.14 1721.69 -3426.54 0 -0.02 -1721.57zm73.94 -258.36c-15.04,82.12 -22.57,168.23 -22.57,258.36l-0.13 1670.16 3324.12 0 0.03 -1670.28c-0.1,-90.04 -7.63,-176.1 -22.65,-258.18 -15.05,-82.23 -37.65,-160.88 -67.76,-235.91 -30.08,-74.82 -64.99,-140.62 -104.67,-197.36 -39.35,-56.24 -83.47,-103.71 -132.33,-142.36 -108.3,-82.66 -217.18,-154.89 -326.61,-216.6 -109.66,-61.72 -220.09,-113.2 -331.27,-154.37 -111.36,-41.19 -223.34,-72.05 -335.81,-92.53 -112.41,-20.48 -226.06,-30.72 -340.9,-30.72 -114.88,0 -228.55,10.24 -340.96,30.72 -112.49,20.48 -224.46,51.35 -335.85,92.53 -111.16,41.17 -221.59,92.65 -331.2,154.45 -109.48,61.63 -218.35,133.85 -326.61,216.56 -48.89,38.61 -93.01,86.08 -132.36,142.32 -39.7,56.74 -74.6,122.54 -104.68,197.36 -30.1,75.02 -52.71,153.63 -67.76,235.85z"/>
    <path id="person_add_24dp_E3E3E3_FILL0_wght400_GRAD0_opsz24.svg_9" class="fil2" d="M3103.13 1458.88c-164.52,-164.44 -246.74,-362.23 -246.74,-593.18 0,-231.03 82.22,-428.73 246.74,-593.25 164.52,-164.44 362.22,-246.75 593.26,-246.75 230.95,0 428.65,82.31 593.17,246.75 164.52,164.52 246.75,362.22 246.75,593.25 0,230.95 -82.23,428.74 -246.75,593.18 -164.52,164.52 -362.22,246.74 -593.17,246.74 -231.04,0 -428.74,-82.22 -593.26,-246.74z"/>
    <path class="fil1" d="M3085.04 1477.07c-84.7,-84.68 -148.27,-178.01 -190.66,-279.96 -42.47,-102.08 -63.7,-212.57 -63.7,-331.41 0,-118.86 21.23,-229.34 63.68,-331.4 42.45,-102.08 105.99,-195.44 190.58,-280.04 84.76,-84.6 178.08,-148.14 280.03,-190.56 102.08,-42.46 212.55,-63.7 331.41,-63.7 118.82,0 229.29,21.24 331.35,63.7 101.94,42.43 195.26,105.95 279.91,190.56 84.7,84.6 148.24,177.95 190.69,280.04 42.45,102.07 63.69,212.55 63.69,331.4 0,118.83 -21.24,229.31 -63.7,331.39 -42.4,101.92 -105.95,195.26 -190.63,279.92 -84.54,84.64 -177.89,148.18 -279.96,190.63 -102.06,42.46 -212.54,63.7 -331.35,63.7 -238.07,0 -441.79,-84.77 -611.34,-254.27zm-143.26 -299.65c39.82,95.74 99.64,183.53 179.42,263.28 159.5,159.47 351.17,239.22 575.17,239.22 112.13,0 216.03,-19.91 311.67,-59.69 95.63,-39.78 183.42,-99.64 263.32,-179.53 79.89,-79.75 139.71,-167.55 179.53,-263.29 39.79,-95.64 59.69,-199.58 59.69,-311.71 0,-112.16 -19.89,-216.08 -59.68,-311.72 -39.78,-95.64 -99.63,-183.44 -179.54,-263.35 -79.8,-79.85 -167.59,-139.69 -263.32,-179.52 -95.64,-39.78 -199.54,-59.69 -311.67,-59.69 -112.16,0 -216.09,19.91 -311.73,59.69 -95.73,39.84 -183.54,99.68 -263.39,179.47 -79.86,79.96 -139.72,167.76 -179.49,263.4 -39.79,95.65 -59.67,199.57 -59.67,311.72 0,112.14 19.89,216.07 59.69,311.72z"/>
    <polygon class="fil3" points="3684.62,3210.36 3908.26,2517.97 4037.28,1781.62 3934.23,1765.76 3696.38,1750.9 3492.95,1761.74 3341.37,1784.23 3468.27,2477.85 "/>
    <path class="fil1" d="M3685.05 3176.59l213.46 -660.89 127.18 -725.76 -92.66 -14.26 -236.72 -14.79 -202.21 10.78 -141.06 20.92 124.93 682.85 207.09 701.15zm232.7 -655.58l-233.56 723.09c-189.28,-640.73 -236.12,-821.72 -354.48,-1468.24 271.55,-40.43 444.68,-44.93 719.16,-2.57 -34.04,195.35 -78.17,578.25 -131.13,747.72z"/>
    <polygon class="fil4" points="3725.72,1998.26 3874.5,1795.14 3509.47,1795.14 3651.87,1991.64 3587.1,2895.36 3684.62,3210.36 3795.2,2895.52 "/>
    <path class="fil1" d="M3717.67 1992.36l137.13 -187.21 -325.75 0 133.04 183.57 -64.9 905.52 88.03 284.34 99.86 -284.33 -69.61 -898.89 2.2 -3zm164.88 -191.31l-146.59 200.13 69.35 895.62c-40.13,115.2 -80.85,230.24 -121.3,345.34 -35.67,-115.2 -70.98,-230.58 -107.02,-345.66l64.66 -901.91 -151.78 -209.42 404.32 0 -11.64 15.9z"/>
    <polygon class="fil3" points="2788.54,3269.18 4634.06,3269.18 4634.06,4632.38 2788.54,4632.38 "/>
    <path class="fil1" d="M2788.54 3259.18l1855.52 0 0 1383.2 -1865.52 0 0 -1383.2 10 0zm1835.52 20l-1825.52 0 0 1343.19 1825.52 0 0 -1343.19z"/>
    <path class="fil0" d="M2759.13 3210.36l1933.22 0 0 1480.84 -1992.05 0 0 -1480.84 58.83 0zm937.2 612.8l631.84 -464.71 -1263.69 0 631.85 464.71zm440.14 -178l-440.14 323.71 -871.34 -640.85 -7.03 0 0 1245.54 1756.74 0 0 -1245.54 -7.02 0 -431.21 317.14z"/>
    <path class="fil1" d="M2759.13 3200.36l1943.22 0 0 1500.84 -2012.05 0 0 -1500.84 68.83 0zm1923.22 20l-1972.05 0 0 1460.84 1972.05 0 0 -1460.84zm-986.02 590.41l601.4 -442.32 -1202.81 0 601.41 442.32zm637.74 -444.27l-637.74 469.04c-220.93,-162.14 -441.52,-324.76 -662.31,-487.09l1324.59 0 -24.54 18.05zm-191.7 286.71l-446.04 328.04 -868.37 -638.66 0 1220.97 1736.74 0 0 -1220.96 -422.32 310.61zm-446.04 303.27l868.09 -638.46 20.27 0 0 1265.54 -1776.74 0 0 -1265.54 20.27 0 868.1 638.46z"/>
    <path class="fil5" d="M3246.3 4096.07c-81.88,0 -148.26,60.06 -148.26,134.14 0,74.08 66.38,134.14 148.26,134.14 81.88,0 148.26,-60.06 148.26,-134.14 0,-74.08 -66.38,-134.14 -148.26,-134.14z"/>
    <path class="fil1" d="M3246.3 4106.07c-38.41,0 -73.12,14.02 -98.15,36.66 -24.77,22.41 -40.11,53.35 -40.11,87.47 0,34.12 15.33,65.06 40.11,87.47 25.03,22.64 59.74,36.66 98.15,36.66 38.4,0 73.12,-14.02 98.15,-36.66 24.77,-22.41 40.11,-53.35 40.11,-87.47 0,-34.12 -15.33,-65.06 -40.11,-87.47 -25.03,-22.64 -59.75,-36.66 -98.15,-36.66zm-111.51 21.9c28.61,-25.88 68.06,-41.91 111.51,-41.91 43.46,0 82.9,16.02 111.51,41.91 28.87,26.12 46.75,62.28 46.75,102.23 0,39.96 -17.87,76.11 -46.75,102.23 -28.61,25.88 -68.06,41.91 -111.51,41.91 -43.46,0 -82.9,-16.02 -111.51,-41.91 -28.87,-26.12 -46.75,-62.28 -46.75,-102.23 0,-39.96 17.87,-76.11 46.75,-102.23z"/>
    <path class="fil5" d="M4146.35 4096.07c-81.87,0 -148.25,60.06 -148.25,134.14 0,74.08 66.38,134.14 148.25,134.14 81.89,0 148.26,-60.06 148.26,-134.14 0,-74.08 -66.37,-134.14 -148.26,-134.14z"/>
    <path class="fil1" d="M4146.35 4106.07c-38.4,0 -73.11,14.01 -98.14,36.66 -24.77,22.41 -40.11,53.36 -40.11,87.47 0,34.11 15.33,65.06 40.11,87.47 25.03,22.65 59.74,36.66 98.14,36.66 38.41,0 73.12,-14.01 98.15,-36.66 24.77,-22.41 40.11,-53.35 40.11,-87.47 0,-34.12 -15.33,-65.06 -40.11,-87.47 -25.03,-22.65 -59.74,-36.66 -98.15,-36.66zm-111.5 21.9c28.6,-25.88 68.06,-41.91 111.5,-41.91 43.47,0 82.91,16.02 111.51,41.91 28.87,26.12 46.75,62.28 46.75,102.23 0,39.96 -17.87,76.11 -46.75,102.23 -28.6,25.88 -68.05,41.91 -111.51,41.91 -43.45,0 -82.9,-16.02 -111.5,-41.91 -28.87,-26.12 -46.75,-62.28 -46.75,-102.23 0,-39.95 17.86,-76.1 46.75,-102.23z"/>
    <path class="fil5" d="M3696.33 3431.33c-81.88,0 -148.26,60.06 -148.26,134.14 0,74.08 66.38,134.14 148.26,134.14 81.88,0 148.25,-60.06 148.25,-134.14 0,-74.08 -66.37,-134.14 -148.25,-134.14z"/>
    <path class="fil1" d="M3696.33 3441.33c-38.41,0 -73.12,14.02 -98.15,36.66 -24.77,22.41 -40.11,53.35 -40.11,87.47 0,34.12 15.33,65.06 40.11,87.47 25.03,22.64 59.74,36.66 98.15,36.66 38.4,0 73.11,-14.01 98.14,-36.66 24.77,-22.41 40.11,-53.35 40.11,-87.47 0,-34.12 -15.33,-65.06 -40.11,-87.47 -25.03,-22.65 -59.74,-36.66 -98.14,-36.66zm-111.51 21.9c28.61,-25.88 68.06,-41.91 111.51,-41.91 43.45,0 82.9,16.02 111.5,41.91 28.87,26.12 46.75,62.28 46.75,102.23 0,39.96 -17.87,76.11 -46.75,102.23 -28.6,25.88 -68.06,41.91 -111.5,41.91 -43.46,0 -82.9,-16.02 -111.51,-41.91 -28.87,-26.12 -46.75,-62.28 -46.75,-102.23 0,-39.96 17.87,-76.11 46.75,-102.23z"/>
   </g>
  </g>
 </g>
</svg>
