<?xml version="1.0" encoding="UTF-8"?>
<!DOCTYPE svg PUBLIC "-//W3C//DTD SVG 1.1//EN" "http://www.w3.org/Graphics/SVG/1.1/DTD/svg11.dtd">
<!-- Creator: CorelDRAW (Versão OEM) -->
<svg xmlns="http://www.w3.org/2000/svg" xml:space="preserve" width="210mm" height="297mm" version="1.1" style="shape-rendering:geometricPrecision; text-rendering:geometricPrecision; image-rendering:optimizeQuality; fill-rule:evenodd; clip-rule:evenodd"
viewBox="0 0 210000 297000"
 xmlns:xlink="http://www.w3.org/1999/xlink"
 xmlns:xodm="http://www.corel.com/coreldraw/odm/2003">
 <defs>
  <style type="text/css">
   <![CDATA[
    .fil3 {fill:#FEFEFE}
    .fil5 {fill:#E6E7E8}
    .fil6 {fill:#009EE1}
    .fil4 {fill:#1E2A50}
    .fil0 {fill:#373435;fill-rule:nonzero}
    .fil1 {fill:#009EE1;fill-rule:nonzero}
    .fil2 {fill:#1E2A50;fill-rule:nonzero}
   ]]>
  </style>
 </defs>
 <g id="Camada_x0020_1">
  <metadata id="CorelCorpID_0Corel-Layer"/>
  <path id="person_add_24dp_E3E3E3_FILL0_wght400_GRAD0_opsz24.svg" class="fil0" d="M162233.4 102474c2070.5,-2070.6 3105.8,-4560.8 3105.8,-7468.8 0,-2910 -1035.3,-5398.3 -3105.8,-7470.8 -2070.6,-2070.6 -4560.8,-3105.9 -7468.8,-3105.9 -2910,0 -5398.3,1035.3 -7470.8,3105.9 -2070.6,2072.5 -3105.9,4560.8 -3105.9,7470.8 0,2908 1035.3,5398.2 3105.9,7468.8 2070.5,2070.6 4560.8,3105.8 7470.8,3105.8 2908,0 5396.2,-1035.2 7468.8,-3105.8z"/>
  <path class="fil1" d="M162162.8 102403.4c1025.8,-1026.1 1795.2,-2155.6 2307.7,-3387.9 512.4,-1232.2 768.7,-2569.2 768.7,-4010.3 0,-1441.9 -256.3,-2779 -768.7,-4011.2 -512.6,-1232.7 -1281.8,-2362.4 -2307.6,-3389.1 -1026.1,-1025.7 -2155.6,-1795.2 -3388,-2307.6 -1232.3,-512.4 -2569.3,-768.8 -4010.3,-768.8 -2882.5,0 -5347.6,1025.6 -7400.4,3076.5 -1025.7,1026.7 -1795,2156.3 -2307.6,3389 -512.4,1232.2 -768.7,2569.3 -768.7,4011.2 0,2880.4 1025.6,5347.1 3076.6,7398.1 1026,1026.1 2155.5,1795.4 3388.1,2307.8 1232.7,512.5 2570.1,768.7 4012,768.7 1440.9,0 2777.4,-256.2 4009.4,-768.6 1232.4,-512.6 2362.1,-1281.9 3388.8,-2307.8zm2492.1 -3311.3c-522.8,1257.2 -1306.5,2408.2 -2350.8,3452.6 -1046,1044.5 -2197,1828.3 -3453.5,2350.9 -1257.1,522.8 -2619,784.2 -4086,784.2 -1467.9,0 -2830.9,-261.4 -4088.6,-784.3 -1257.4,-522.7 -2408.6,-1306.4 -3452.9,-2350.8 -2090,-2090 -3135.2,-4604 -3135.2,-7539.5 0,-1468 261.5,-2830.5 784.3,-4087.8 522.5,-1256.7 1306.3,-2407.8 2350.9,-3453.3 2092.4,-2090.4 4604.2,-3135.6 7541.5,-3135.6 1467.1,0 2829.5,261.5 4086.9,784.4 1257.2,522.7 2408.3,1306.5 3452.6,2350.8 1044.6,1045.9 1828.3,2197 2350.8,3453.7 522.8,1257.3 784.3,2619.8 784.3,4087.8 0,1467.1 -261.5,2829.6 -784.3,4086.9z"/>
  <path id="person_add_24dp_E3E3E3_FILL0_wght400_GRAD0_opsz24.svg_0" class="fil2" d="M112263.6 155452.9c0,-4602 775.1,-8829.5 2323.1,-12686 1550.1,-3856.4 3608.2,-6798.6 6176.3,-8826.5 5489.5,-4193.8 11067.5,-7338.5 16735.7,-9436.8 5666.3,-2095.6 11420.9,-3144.8 17265.9,-3144.8 5842.9,0 11597.6,1049.2 17263.8,3144.8 5668.3,2098.3 11246.2,5243 16735.7,9436.8 2568.2,2027.9 4626.2,4970.1 6176.4,8826.5 1548,3856.5 2323.1,8084 2323.1,12682.9 0,14237.5 -0.9,28471.6 -0.9,42708.9l-85000 0c0,-14236.2 0.9,-28469.4 0.9,-42705.8z"/>
  <path class="fil1" d="M112163.8 155452.9c-0.2,-2305.6 194.3,-4519.1 582.8,-6640.6 388.5,-2121 971.3,-4148.5 1747.5,-6082.5 777.6,-1934.6 1683.5,-3641.1 2717.4,-5118.8 1034.8,-1479 2198.1,-2728.8 3489.8,-3748.7l1.2 -1.2c2747.3,-2098.9 5518.3,-3936.1 8312.5,-5511.6 2795.2,-1576.1 5611.8,-2889.4 8449.3,-3939.7 2837,-1049.2 5698.1,-1837 8582.7,-2362.5 2884.9,-525.5 5790.7,-788.5 8717.6,-788.5 2925.2,0 5830,262.9 8713.9,788.2 2885,525.5 5746.6,1313.4 8584.3,2362.8 2837.6,1050.3 5654.1,2363.6 8449.3,3939.7 2794.2,1575.5 5565.2,3412.7 8312.5,5511.6l1.2 1.2c1291.7,1019.9 2455.1,2269.7 3489.9,3748.7 1033.9,1477.7 1939.7,3184.1 2717.4,5118.8 776.5,1934.4 1359.2,3962.4 1747.7,6083.6 388.4,2120.5 582.8,4332.8 582.8,6636.4 -0.6,14269.5 12.9,28539.5 -1.4,42808.9l-85199.1 0 0.7 -42805.8zm778.8 -6604.6c-385.8,2106.8 -579,4308.4 -579,6604.6l-1.3 42605.8 84800.8 0 0.9 -42608.9c-0.4,-2294.1 -193.5,-4494.5 -579.2,-6600.4 -386,-2107.3 -965.1,-4122.6 -1736.9,-6045.4 -772.4,-1921.6 -1670.9,-3614.7 -2695.4,-5079 -1023.2,-1462.5 -2173,-2697.8 -3448.8,-3705.5 -2742.1,-2094.6 -5505.2,-3926.9 -8289.2,-5496.6 -2783,-1569.2 -5589.9,-2877.8 -8420.5,-3925.5 -2829.5,-1046.4 -5680,-1831.5 -8550.7,-2354.4 -2869.2,-522.6 -5762.4,-784.2 -8678.7,-784.2 -2918,0 -5812.2,261.7 -8682.4,784.5 -2870.3,522.9 -5720.1,1307.9 -8549.1,2354.1 -2830.4,1047.7 -5637.5,2356.3 -8420.5,3925.5 -2784,1569.7 -5547.1,3402 -8289.1,5496.8 -1275.9,1007.5 -2425.6,2242.8 -3448.8,3705.3 -1024.5,1464.3 -1923.1,3157.5 -2695.4,5079 -771.6,1922.4 -1350.7,3937.2 -1736.7,6044.3z"/>
  <path id="person_add_24dp_E3E3E3_FILL0_wght400_GRAD0_opsz24.svg_1" class="fil2" d="M139825 109942.8c-4143.1,-4141.1 -6213.7,-9121.7 -6213.7,-14937.6 0,-5818 2070.6,-10796.5 6213.7,-14939.6 4143.1,-4141.1 9121.6,-6213.7 14939.6,-6213.7 5815.9,0 10794.5,2072.6 14937.6,6213.7 4143.1,4143.1 6213.7,9121.6 6213.7,14939.6 0,5815.9 -2070.6,10796.5 -6213.7,14937.6 -4143.1,4143.1 -9121.7,6213.7 -14937.6,6213.7 -5818,0 -10796.5,-2070.6 -14939.6,-6213.7z"/>
  <path class="fil1" d="M139754.4 110013.4c-2080.6,-2079.8 -3641.3,-4370.9 -4681.7,-6872.1 -1041,-2502.5 -1561.4,-5214.9 -1561.4,-8136.1 0,-2921.9 520.3,-5634.1 1561,-8136.2 1040.6,-2502.1 2601.3,-4793.5 4682,-6874.1 2081.2,-2079.9 4372.4,-3640.6 6874.1,-4681.3 2502.2,-1041 5214.3,-1561.7 8136.2,-1561.7 2921,0 5632.6,520.8 8134.4,1561.7 2501.4,1040.7 4792.7,2601.4 6873.5,4681.3 2081.1,2080.6 3641.8,4372 4682.4,6874.1 1040.7,2502.1 1561,5214.3 1561,8136.2 0,2921.2 -520.4,5633.6 -1561.4,8136.1 -1040.4,2501.2 -2601.1,4792.3 -4681.8,6872 -2080.3,2080.7 -4371.8,3641.6 -6873.7,4682.2 -2501.9,1040.6 -5213.4,1561 -8134.4,1561 -2921.9,0 -5633.9,-520.3 -8136.2,-1561 -2502.2,-1040.6 -4793.6,-2601.5 -6874,-4682.1zm-4497.3 -6948.7c1030.5,2477.4 2576.7,4746.9 4638.2,6807.4 2062.6,2062.2 4332.4,3608.7 6809.7,4639 2477.2,1030.2 5163.7,1545.4 8059.6,1545.4 2894.9,0 5580.9,-515.2 8057.8,-1545.4 2476.9,-1030.2 4746.8,-2576.7 6809.1,-4639 2061.9,-2060.5 3608.1,-4330 4638.6,-6807.4 1030.5,-2477.4 1545.8,-5164.3 1545.8,-8059.5 0,-2896 -515.1,-5582.4 -1545.4,-8059.6 -1030.2,-2477.2 -2576.7,-4747.1 -4639,-6809.3 -2061.8,-2061.3 -4331.8,-3607.6 -6809.1,-4638.3 -2476.9,-1030.5 -5162.9,-1546.1 -8057.8,-1546.1 -2895.9,0 -5582.4,515.6 -8059.6,1546.1 -2477.6,1030.7 -4747.6,2577.1 -6809.5,4638.1 -2062.1,2062.4 -3608.6,4332.3 -4638.8,6809.5 -1030.3,2477.2 -1545.4,5163.6 -1545.4,8059.6 0,2895.2 515.3,5582.1 1545.8,8059.5z"/>
  <polygon class="fil3" points="154763.2,155662.7 163551.6,141830.4 170040.4,125118.6 155268.4,123249.3 139486,125118.6 145469.6,140820.2 "/>
  <path class="fil1" d="M154763.6 155475.8l8699.1 -13691.8 6438.6 -16582.6 -14632.1 -1851.6 -15644.2 1852.9 5935.2 15574.8 9203.4 14698.3zm8872.4 -13591.9l-8873.1 13965.7c-10418.1,-16624.4 -8527,-12707.4 -15415.8,-30815.1 5302.3,-629.4 10615.1,-1296.1 15920.4,-1885.6 4969.2,593.3 9946,1255 14911.9,1887 -1319.5,3401.9 -5069.5,14489.8 -6543.4,16848z"/>
  <polygon class="fil4" points="154713.6,127747.7 156901.7,125221.3 159199.8,122567.6 154603.5,122567.6 150007.2,122567.6 152305.3,125221.3 154493.3,127747.7 151522.7,150487.3 153555.7,155915.7 155651.2,155915.7 158437.7,149879.5 "/>
  <path class="fil1" d="M154638.2 127682.5l4343.1 -5014.9 -8755.6 0c1457.4,1682.9 2916.9,3364.1 4372.2,5048.7l-2973.2 22759.2 2000 5340.2 1962.8 0 2746.7 -5950.1 -3726.7 -22147.5 30.7 -35.6zm2338.9 -2396l-2157.3 2490.9 3721.3 22115.9c-934.2,2043.6 -1883.4,4082.6 -2826.2,6122.4l-2228.1 0c-690.6,-1837.9 -1381.1,-3676.7 -2066.1,-5516.7l2968 -22719.8 -4599.9 -5311.6 9629.4 0 -2441.1 2818.9z"/>
  <rect class="fil5" x="131902.9" y="160240.9" width="46474.8" height="34328.6"/>
  <path class="fil1" d="M131902.9 160141l46574.8 0 0 34528.6 -46674.8 0 0 -34528.6 100 0zm46374.8 200l-46274.8 0 0 34128.6 46274.8 0 0 -34128.6z"/>
  <path class="fil2" d="M131162.2 158759.6l48683.3 0 0 37291.4 -50164.7 0 0 -37291.4 1481.4 0zm23601 15431.9l15911.5 -11702.7 -31823.1 0 15911.6 11702.7zm11083.9 -4482.6l-11083.9 8151.9 -21942.6 -16138.4 -177 0 0 31365.8 44239.1 0 0 -31365.8 -176.9 0 -10858.7 7986.5z"/>
  <path class="fil1" d="M131162.2 158659.6l48783.3 0c0,12497 12.4,24994.5 -0.1,37491.4l-50364.6 0 0 -37491.4 1581.4 0zm48583.3 200l-49964.7 0 0 37091.4 49964.7 0 0 -37091.4zm-24982.3 15208l15607.1 -11478.8 -31214.3 0 15607.2 11478.8zm15970.5 -11498.3l-15970.4 11746c-5412.3,-3965.3 -10811.2,-7951 -16216.1,-11926.5l32431.9 0 -245.4 180.5zm-4827.6 7220.1l-11142.9 8195.2 -21975.1 -16162.2 -44.5 0 0 31165.8 44039.1 0 0 -31165.8 -44.4 0 -10832.2 7967zm-11142.9 7947.5c7303.4,-5371.4 14608,-10741.3 21910.1,-16114.5l309.4 0 0 31565.8 -44439.1 0 0 -31565.8 309.5 0 21910.1 16114.5z"/>
  <ellipse class="fil4" cx="143430.4" cy="184441.9" rx="3733.5" ry="3377.9"/>
  <path class="fil1" d="M143430.4 181164c-1005.7,0 -1915.5,368.2 -2573.2,963.2 -655,592.7 -1060.3,1411.1 -1060.3,2314.7 0,903.6 405.3,1722.1 1060.3,2314.8 657.6,594.9 1567.5,963.1 2573.2,963.1 1005.7,0 1915.4,-368.1 2573.1,-963.2 655,-592.5 1060.3,-1411.1 1060.3,-2314.7 0,-903.6 -405.3,-1722 -1060.3,-2314.7 -657.7,-595.1 -1567.5,-963.2 -2573.1,-963.2zm-2706.8 815.6c693.5,-627.4 1650.6,-1015.6 2706.8,-1015.6 1056,0 2013.3,388.2 2706.7,1015.6 696,629.8 1126.7,1500.3 1126.7,2462.3 0,962 -430.7,1832.7 -1126.7,2462.3 -693.4,627.4 -1650.5,1015.6 -2706.7,1015.6 -1056.2,0 -2013.4,-388.2 -2706.8,-1015.5 -696,-629.8 -1126.7,-1500.4 -1126.7,-2462.4 0,-962 430.7,-1832.5 1126.7,-2462.3z"/>
  <ellipse class="fil4" cx="166095.9" cy="184441.9" rx="3733.5" ry="3377.9"/>
  <path class="fil1" d="M166095.9 181164c-1005.6,0 -1915.4,368.1 -2573.1,963.2 -655,592.7 -1060.3,1411.1 -1060.3,2314.7 0,903.6 405.3,1722.2 1060.3,2314.7 657.7,595.1 1567.4,963.2 2573.1,963.2 1005.7,0 1915.6,-368.2 2573.2,-963.1 655,-592.7 1060.3,-1411.2 1060.3,-2314.8 0,-903.6 -405.3,-1722 -1060.3,-2314.7 -657.7,-595 -1567.5,-963.2 -2573.2,-963.2zm-2706.7 815.6c693.4,-627.4 1650.7,-1015.6 2706.7,-1015.6 1056.2,0 2013.3,388.2 2706.8,1015.6 696,629.8 1126.7,1500.3 1126.7,2462.3 0,962 -430.7,1832.6 -1126.7,2462.4 -693.4,627.3 -1650.6,1015.5 -2706.8,1015.5 -1056.2,0 -2013.3,-388.2 -2706.7,-1015.6 -696,-629.6 -1126.7,-1500.3 -1126.7,-2462.3 0,-962 430.7,-1832.5 1126.7,-2462.3z"/>
  <ellipse class="fil4" cx="154763.2" cy="167702" rx="3733.5" ry="3377.9"/>
  <path class="fil1" d="M154763.2 164424.1c-1005.7,0 -1915.6,368.2 -2573.2,963.1 -655,592.7 -1060.3,1411.2 -1060.3,2314.8 0,903.6 405.3,1722 1060.3,2314.7 657.7,595 1567.5,963.2 2573.2,963.2 1005.6,0 1915.4,-368.1 2573.1,-963.2 655,-592.7 1060.3,-1411.1 1060.3,-2314.7 0,-903.6 -405.3,-1722.2 -1060.3,-2314.7 -657.7,-595.1 -1567.4,-963.2 -2573.1,-963.2zm-2706.8 815.5c693.4,-627.3 1650.6,-1015.5 2706.8,-1015.5 1056.2,0 2013.3,388.2 2706.7,1015.6 696,629.6 1126.7,1500.4 1126.7,2462.3 0,962 -430.7,1832.5 -1126.7,2462.3 -693.4,627.4 -1650.7,1015.6 -2706.7,1015.6 -1056.2,0 -2013.3,-388.2 -2706.8,-1015.6 -696,-629.8 -1126.7,-1500.3 -1126.7,-2462.3 0,-962 430.7,-1832.6 1126.7,-2462.4z"/>
  <circle class="fil6" cx="154763.2" cy="167702" r="660.1"/>
  <path class="fil1" d="M154763.2 166941.9c209.6,0 399.6,85.2 537.1,222.6 137.8,137.9 223,327.9 223,537.5 0,209.6 -85.2,399.6 -222.6,537.1 -137.9,137.8 -327.9,223 -537.5,223 -209.6,0 -399.6,-85.2 -537.1,-222.6 -137.8,-137.9 -223,-327.9 -223,-537.5 0,-209.6 85.2,-399.6 222.6,-537.1 137.9,-137.8 327.9,-223 537.5,-223zm396.3 363.8c-101.3,-101.1 -241.5,-163.8 -396.3,-163.8 -154.8,0 -295,62.7 -396.3,163.8 -101.1,101.3 -163.8,241.5 -163.8,396.3 0,154.8 62.7,295 163.8,396.3 101.3,101.1 241.5,163.8 396.3,163.8 154.8,0 295,-62.7 396.3,-163.8 101.1,-101.3 163.8,-241.5 163.8,-396.3 0,-154.8 -62.7,-295 -163.8,-396.3z"/>
  <circle class="fil6" cx="143430.4" cy="184441.9" r="660.1"/>
  <path class="fil1" d="M143430.4 183681.8c209.6,0 399.6,85.2 537.1,222.6 137.8,137.9 223,327.9 223,537.5 0,209.6 -85.2,399.6 -222.6,537.1 -137.9,137.8 -327.9,223 -537.5,223 -209.6,0 -399.6,-85.2 -537.1,-222.6 -137.8,-137.9 -223,-327.9 -223,-537.5 0,-209.6 85.2,-399.6 222.6,-537.1 137.9,-137.8 327.9,-223 537.5,-223zm396.3 363.8c-101.3,-101.1 -241.5,-163.8 -396.3,-163.8 -154.8,0 -295,62.7 -396.3,163.8 -101.1,101.3 -163.8,241.5 -163.8,396.3 0,154.8 62.7,295 163.8,396.3 101.3,101.1 241.5,163.8 396.3,163.8 154.8,0 295,-62.7 396.3,-163.8 101.1,-101.3 163.8,-241.5 163.8,-396.3 0,-154.8 -62.7,-295 -163.8,-396.3z"/>
  <circle class="fil6" cx="166095.9" cy="184441.9" r="660.1"/>
  <path class="fil1" d="M166095.9 183681.8c209.6,0 399.6,85.2 537.1,222.6 137.8,137.9 223,327.9 223,537.5 0,209.6 -85.2,399.6 -222.6,537.1 -137.9,137.8 -327.9,223 -537.5,223 -209.6,0 -399.6,-85.2 -537.1,-222.6 -137.8,-137.9 -223,-327.9 -223,-537.5 0,-209.6 85.2,-399.6 222.6,-537.1 137.9,-137.8 327.9,-223 537.5,-223zm396.3 363.8c-101.3,-101.1 -241.5,-163.8 -396.3,-163.8 -154.8,0 -295,62.7 -396.3,163.8 -101.1,101.3 -163.8,241.5 -163.8,396.3 0,154.8 62.7,295 163.8,396.3 101.3,101.1 241.5,163.8 396.3,163.8 154.8,0 295,-62.7 396.3,-163.8 101.1,-101.3 163.8,-241.5 163.8,-396.3 0,-154.8 -62.7,-295 -163.8,-396.3z"/>
  <path id="person_add_24dp_E3E3E3_FILL0_wght400_GRAD0_opsz24.svg_2" class="fil0" d="M63656.1 101341.2c2070.5,-2070.6 3105.8,-4560.8 3105.8,-7468.8 0,-2910 -1035.3,-5398.3 -3105.8,-7470.8 -2070.6,-2070.6 -4560.8,-3105.9 -7468.8,-3105.9 -2910,0 -5398.3,1035.3 -7470.8,3105.9 -2070.6,2072.5 -3105.9,4560.8 -3105.9,7470.8 0,2908 1035.3,5398.2 3105.9,7468.8 2070.5,2070.6 4560.8,3105.8 7470.8,3105.8 2908,0 5396.2,-1035.2 7468.8,-3105.8z"/>
  <path class="fil1" d="M63585.5 101270.6c1025.8,-1026.1 1795.2,-2155.6 2307.7,-3387.9 512.4,-1232.2 768.7,-2569.2 768.7,-4010.3 0,-1441.9 -256.3,-2779 -768.7,-4011.2 -512.6,-1232.7 -1281.8,-2362.4 -2307.6,-3389.1 -1026.1,-1025.7 -2155.6,-1795.2 -3388,-2307.6 -1232.3,-512.4 -2569.3,-768.8 -4010.3,-768.8 -2882.5,0 -5347.6,1025.6 -7400.4,3076.5 -1025.7,1026.7 -1795,2156.3 -2307.6,3389 -512.4,1232.2 -768.7,2569.3 -768.7,4011.2 0,2880.4 1025.6,5347.1 3076.6,7398.1 1026,1026.1 2155.5,1795.4 3388.1,2307.8 1232.7,512.5 2570.1,768.7 4012,768.7 1440.9,0 2777.4,-256.2 4009.4,-768.6 1232.4,-512.6 2362.1,-1281.9 3388.8,-2307.8zm2492.1 -3311.3c-522.8,1257.2 -1306.5,2408.2 -2350.8,3452.6 -1046,1044.5 -2197,1828.3 -3453.5,2350.9 -1257.1,522.8 -2619,784.2 -4086,784.2 -1467.9,0 -2830.9,-261.4 -4088.6,-784.3 -1257.4,-522.7 -2408.6,-1306.4 -3452.9,-2350.8 -2090,-2090 -3135.2,-4604 -3135.2,-7539.5 0,-1468 261.5,-2830.5 784.3,-4087.8 522.5,-1256.7 1306.3,-2407.8 2350.9,-3453.3 2092.4,-2090.4 4604.2,-3135.6 7541.5,-3135.6 1467.1,0 2829.5,261.5 4086.9,784.4 1257.2,522.7 2408.3,1306.5 3452.6,2350.8 1044.6,1045.9 1828.3,2197 2350.8,3453.7 522.8,1257.3 784.3,2619.8 784.3,4087.8 0,1467.1 -261.5,2829.6 -784.3,4086.9z"/>
  <path id="person_add_24dp_E3E3E3_FILL0_wght400_GRAD0_opsz24.svg_3" class="fil2" d="M13686.3 154320.1c0,-4602 775.1,-8829.5 2323.1,-12686 1550.1,-3856.4 3608.2,-6798.6 6176.3,-8826.5 5489.5,-4193.8 11067.5,-7338.5 16735.7,-9436.8 5666.3,-2095.6 11420.9,-3144.8 17265.9,-3144.8 5842.9,0 11597.6,1049.2 17263.8,3144.8 5668.3,2098.3 11246.2,5243 16735.7,9436.8 2568.2,2027.9 4626.2,4970.1 6176.4,8826.5 1548,3856.5 2323.1,8084 2323.1,12682.9 0,14237.5 -0.9,28471.6 -0.9,42708.9l-85000 0c0,-14236.2 0.9,-28469.4 0.9,-42705.8z"/>
  <path class="fil1" d="M13586.5 154320.1c-0.2,-2305.6 194.3,-4519.1 582.8,-6640.6 388.5,-2121 971.3,-4148.5 1747.5,-6082.5 777.6,-1934.6 1683.5,-3641.1 2717.4,-5118.8 1034.8,-1479 2198.1,-2728.8 3489.8,-3748.7l1.2 -1.2c2747.3,-2098.9 5518.3,-3936.1 8312.5,-5511.6 2795.2,-1576.1 5611.8,-2889.4 8449.3,-3939.7 2837,-1049.2 5698.1,-1837 8582.7,-2362.5 2884.9,-525.5 5790.7,-788.5 8717.6,-788.5 2925.2,0 5830,262.9 8713.9,788.2 2885,525.5 5746.6,1313.4 8584.3,2362.8 2837.6,1050.3 5654.1,2363.6 8449.3,3939.7 2794.2,1575.5 5565.2,3412.7 8312.5,5511.6l1.2 1.2c1291.7,1019.9 2455.1,2269.7 3489.9,3748.7 1033.9,1477.7 1939.7,3184.1 2717.4,5118.8 776.5,1934.4 1359.2,3962.4 1747.7,6083.6 388.4,2120.5 582.8,4332.8 582.8,6636.4 -0.6,14269.5 12.9,28539.5 -1.4,42808.9l-85199.1 0 0.7 -42805.8zm778.8 -6604.6c-385.8,2106.8 -579,4308.4 -579,6604.6l-1.3 42605.8 84800.8 0 0.9 -42608.9c-0.4,-2294.1 -193.5,-4494.5 -579.2,-6600.4 -386,-2107.3 -965.1,-4122.6 -1736.9,-6045.4 -772.4,-1921.6 -1670.9,-3614.7 -2695.4,-5079 -1023.2,-1462.5 -2173,-2697.8 -3448.8,-3705.5 -2742.1,-2094.6 -5505.2,-3926.9 -8289.2,-5496.6 -2783,-1569.2 -5589.9,-2877.8 -8420.5,-3925.5 -2829.5,-1046.4 -5680,-1831.5 -8550.7,-2354.4 -2869.2,-522.6 -5762.4,-784.2 -8678.7,-784.2 -2918,0 -5812.2,261.7 -8682.4,784.5 -2870.3,522.9 -5720.1,1307.9 -8549.1,2354.1 -2830.4,1047.7 -5637.5,2356.3 -8420.5,3925.5 -2784,1569.7 -5547.1,3402 -8289.1,5496.8 -1275.9,1007.5 -2425.6,2242.8 -3448.8,3705.3 -1024.5,1464.3 -1923.1,3157.5 -2695.4,5079 -771.6,1922.4 -1350.7,3937.2 -1736.7,6044.3z"/>
  <path id="person_add_24dp_E3E3E3_FILL0_wght400_GRAD0_opsz24.svg_4" class="fil2" d="M41247.7 108810c-4143.1,-4141.1 -6213.7,-9121.7 -6213.7,-14937.6 0,-5818 2070.6,-10796.5 6213.7,-14939.6 4143.1,-4141.1 9121.6,-6213.7 14939.6,-6213.7 5815.9,0 10794.5,2072.6 14937.6,6213.7 4143.1,4143.1 6213.7,9121.6 6213.7,14939.6 0,5815.9 -2070.6,10796.5 -6213.7,14937.6 -4143.1,4143.1 -9121.7,6213.7 -14937.6,6213.7 -5818,0 -10796.5,-2070.6 -14939.6,-6213.7z"/>
  <path class="fil1" d="M41177.1 108880.6c-2080.6,-2079.8 -3641.3,-4370.9 -4681.7,-6872.1 -1041,-2502.5 -1561.4,-5214.9 -1561.4,-8136.1 0,-2921.9 520.3,-5634.1 1561,-8136.2 1040.6,-2502.1 2601.3,-4793.5 4682,-6874.1 2081.2,-2079.9 4372.4,-3640.6 6874.1,-4681.3 2502.2,-1041 5214.3,-1561.7 8136.2,-1561.7 2921,0 5632.6,520.8 8134.4,1561.7 2501.4,1040.7 4792.7,2601.4 6873.5,4681.3 2081.1,2080.6 3641.8,4372 4682.4,6874.1 1040.7,2502.1 1561,5214.3 1561,8136.2 0,2921.2 -520.4,5633.6 -1561.4,8136.1 -1040.4,2501.2 -2601.1,4792.3 -4681.8,6872 -2080.3,2080.7 -4371.8,3641.6 -6873.7,4682.2 -2501.9,1040.6 -5213.4,1561 -8134.4,1561 -2921.9,0 -5633.9,-520.3 -8136.2,-1561 -2502.2,-1040.6 -4793.6,-2601.5 -6874,-4682.1zm-4497.3 -6948.7c1030.5,2477.4 2576.7,4746.9 4638.2,6807.4 2062.6,2062.2 4332.4,3608.7 6809.7,4639 2477.2,1030.2 5163.7,1545.4 8059.6,1545.4 2894.9,0 5580.9,-515.2 8057.8,-1545.4 2476.9,-1030.2 4746.8,-2576.7 6809.1,-4639 2061.9,-2060.5 3608.1,-4330 4638.6,-6807.4 1030.5,-2477.4 1545.8,-5164.3 1545.8,-8059.5 0,-2896 -515.1,-5582.4 -1545.4,-8059.6 -1030.2,-2477.2 -2576.7,-4747.1 -4639,-6809.3 -2061.8,-2061.3 -4331.8,-3607.6 -6809.1,-4638.3 -2476.9,-1030.5 -5162.9,-1546.1 -8057.8,-1546.1 -2895.9,0 -5582.4,515.6 -8059.6,1546.1 -2477.6,1030.7 -4747.6,2577.1 -6809.5,4638.1 -2062.1,2062.4 -3608.6,4332.3 -4638.8,6809.5 -1030.3,2477.2 -1545.4,5163.6 -1545.4,8059.6 0,2895.2 515.3,5582.1 1545.8,8059.5z"/>
  <polygon class="fil3" points="56185.9,154529.9 64974.3,140697.6 71463.1,123985.8 56691.1,122116.5 40908.7,123985.8 46892.3,139687.4 "/>
  <path class="fil1" d="M56186.3 154343l8699.1 -13691.8 6438.6 -16582.6 -14632.1 -1851.6 -15644.2 1852.9 5935.2 15574.8 9203.4 14698.3zm8872.4 -13591.9l-8873.1 13965.7c-10418.1,-16624.4 -8527,-12707.4 -15415.8,-30815.1 5302.3,-629.4 10615.1,-1296.1 15920.4,-1885.6 4969.2,593.3 9946,1255 14911.9,1887 -1319.5,3401.9 -5069.5,14489.8 -6543.4,16848z"/>
  <polygon class="fil4" points="56136.3,126614.9 58324.4,124088.5 60622.5,121434.8 56026.2,121434.8 51429.9,121434.8 53728,124088.5 55916,126614.9 52945.4,149354.5 54978.4,154782.9 57073.9,154782.9 59860.4,148746.7 "/>
  <path class="fil1" d="M56060.9 126549.7l4343.1 -5014.9 -8755.6 0c1457.4,1682.9 2916.9,3364.1 4372.2,5048.7l-2973.2 22759.2 2000 5340.2 1962.8 0 2746.7 -5950.1 -3726.7 -22147.5 30.7 -35.6zm2338.9 -2396l-2157.3 2490.9 3721.3 22115.9c-934.2,2043.6 -1883.4,4082.6 -2826.2,6122.4l-2228.1 0c-690.6,-1837.9 -1381.1,-3676.7 -2066.1,-5516.7l2968 -22719.8 -4599.9 -5311.6 9629.4 0 -2441.1 2818.9z"/>
  <rect class="fil5" x="33325.6" y="159108.1" width="46474.8" height="34328.6"/>
  <path class="fil1" d="M33325.6 159008.2l46574.8 0 0 34528.6 -46674.8 0 0 -34528.6 100 0zm46374.8 200l-46274.8 0 0 34128.6 46274.8 0 0 -34128.6z"/>
  <path class="fil2" d="M32584.9 157626.8l48683.3 0 0 37291.4 -50164.7 0 0 -37291.4 1481.4 0zm23601 15431.9l15911.5 -11702.7 -31823.1 0 15911.6 11702.7zm11083.9 -4482.6l-11083.9 8151.9 -21942.6 -16138.4 -177 0 0 31365.8 44239.1 0 0 -31365.8 -176.9 0 -10858.7 7986.5z"/>
  <path class="fil1" d="M32584.9 157526.8l48783.3 0c0,12497 12.4,24994.5 -0.1,37491.4l-50364.6 0 0 -37491.4 1581.4 0zm48583.3 200l-49964.7 0 0 37091.4 49964.7 0 0 -37091.4zm-24982.3 15208l15607.1 -11478.8 -31214.3 0 15607.2 11478.8zm15970.5 -11498.3l-15970.4 11746c-5412.3,-3965.3 -10811.2,-7951 -16216.1,-11926.5l32431.9 0 -245.4 180.5zm-4827.6 7220.1l-11142.9 8195.2 -21975.1 -16162.2 -44.5 0 0 31165.8 44039.1 0 0 -31165.8 -44.4 0 -10832.2 7967zm-11142.9 7947.5c7303.4,-5371.4 14608,-10741.3 21910.1,-16114.5l309.4 0 0 31565.8 -44439.1 0 0 -31565.8 309.5 0 21910.1 16114.5z"/>
  <ellipse class="fil4" cx="44853.1" cy="183309.1" rx="3733.5" ry="3377.9"/>
  <path class="fil1" d="M44853.1 180031.2c-1005.7,0 -1915.5,368.2 -2573.2,963.2 -655,592.7 -1060.3,1411.1 -1060.3,2314.7 0,903.6 405.3,1722.1 1060.3,2314.8 657.6,594.9 1567.5,963.1 2573.2,963.1 1005.7,0 1915.4,-368.1 2573.1,-963.2 655,-592.5 1060.3,-1411.1 1060.3,-2314.7 0,-903.6 -405.3,-1722 -1060.3,-2314.7 -657.7,-595.1 -1567.5,-963.2 -2573.1,-963.2zm-2706.8 815.6c693.5,-627.4 1650.6,-1015.6 2706.8,-1015.6 1056,0 2013.3,388.2 2706.7,1015.6 696,629.8 1126.7,1500.3 1126.7,2462.3 0,962 -430.7,1832.7 -1126.7,2462.3 -693.4,627.4 -1650.5,1015.6 -2706.7,1015.6 -1056.2,0 -2013.4,-388.2 -2706.8,-1015.5 -696,-629.8 -1126.7,-1500.4 -1126.7,-2462.4 0,-962 430.7,-1832.5 1126.7,-2462.3z"/>
  <ellipse class="fil4" cx="67518.6" cy="183309.1" rx="3733.5" ry="3377.9"/>
  <path class="fil1" d="M67518.6 180031.2c-1005.6,0 -1915.4,368.1 -2573.1,963.2 -655,592.7 -1060.3,1411.1 -1060.3,2314.7 0,903.6 405.3,1722.2 1060.3,2314.7 657.7,595.1 1567.4,963.2 2573.1,963.2 1005.7,0 1915.6,-368.2 2573.2,-963.1 655,-592.7 1060.3,-1411.2 1060.3,-2314.8 0,-903.6 -405.3,-1722 -1060.3,-2314.7 -657.7,-595 -1567.5,-963.2 -2573.2,-963.2zm-2706.7 815.6c693.4,-627.4 1650.7,-1015.6 2706.7,-1015.6 1056.2,0 2013.3,388.2 2706.8,1015.6 696,629.8 1126.7,1500.3 1126.7,2462.3 0,962 -430.7,1832.6 -1126.7,2462.4 -693.4,627.3 -1650.6,1015.5 -2706.8,1015.5 -1056.2,0 -2013.3,-388.2 -2706.7,-1015.6 -696,-629.6 -1126.7,-1500.3 -1126.7,-2462.3 0,-962 430.7,-1832.5 1126.7,-2462.3z"/>
  <ellipse class="fil4" cx="56185.9" cy="166569.2" rx="3733.5" ry="3377.9"/>
  <path class="fil1" d="M56185.9 163291.3c-1005.7,0 -1915.6,368.2 -2573.2,963.1 -655,592.7 -1060.3,1411.2 -1060.3,2314.8 0,903.6 405.3,1722 1060.3,2314.7 657.7,595 1567.5,963.2 2573.2,963.2 1005.6,0 1915.4,-368.1 2573.1,-963.2 655,-592.7 1060.3,-1411.1 1060.3,-2314.7 0,-903.6 -405.3,-1722.2 -1060.3,-2314.7 -657.7,-595.1 -1567.4,-963.2 -2573.1,-963.2zm-2706.8 815.5c693.4,-627.3 1650.6,-1015.5 2706.8,-1015.5 1056.2,0 2013.3,388.2 2706.7,1015.6 696,629.6 1126.7,1500.4 1126.7,2462.3 0,962 -430.7,1832.5 -1126.7,2462.3 -693.4,627.4 -1650.7,1015.6 -2706.7,1015.6 -1056.2,0 -2013.3,-388.2 -2706.8,-1015.6 -696,-629.8 -1126.7,-1500.3 -1126.7,-2462.3 0,-962 430.7,-1832.6 1126.7,-2462.4z"/>
  <circle class="fil6" cx="56185.9" cy="166569.2" r="660.1"/>
  <path class="fil1" d="M56185.9 165809.1c209.6,0 399.6,85.2 537.1,222.6 137.8,137.9 223,327.9 223,537.5 0,209.6 -85.2,399.6 -222.6,537.1 -137.9,137.8 -327.9,223 -537.5,223 -209.6,0 -399.6,-85.2 -537.1,-222.6 -137.8,-137.9 -223,-327.9 -223,-537.5 0,-209.6 85.2,-399.6 222.6,-537.1 137.9,-137.8 327.9,-223 537.5,-223zm396.3 363.8c-101.3,-101.1 -241.5,-163.8 -396.3,-163.8 -154.8,0 -295,62.7 -396.3,163.8 -101.1,101.3 -163.8,241.5 -163.8,396.3 0,154.8 62.7,295 163.8,396.3 101.3,101.1 241.5,163.8 396.3,163.8 154.8,0 295,-62.7 396.3,-163.8 101.1,-101.3 163.8,-241.5 163.8,-396.3 0,-154.8 -62.7,-295 -163.8,-396.3z"/>
  <circle class="fil6" cx="44853.1" cy="183309.1" r="660.1"/>
  <path class="fil1" d="M44853.1 182549c209.6,0 399.6,85.2 537.1,222.6 137.8,137.9 223,327.9 223,537.5 0,209.6 -85.2,399.6 -222.6,537.1 -137.9,137.8 -327.9,223 -537.5,223 -209.6,0 -399.6,-85.2 -537.1,-222.6 -137.8,-137.9 -223,-327.9 -223,-537.5 0,-209.6 85.2,-399.6 222.6,-537.1 137.9,-137.8 327.9,-223 537.5,-223zm396.3 363.8c-101.3,-101.1 -241.5,-163.8 -396.3,-163.8 -154.8,0 -295,62.7 -396.3,163.8 -101.1,101.3 -163.8,241.5 -163.8,396.3 0,154.8 62.7,295 163.8,396.3 101.3,101.1 241.5,163.8 396.3,163.8 154.8,0 295,-62.7 396.3,-163.8 101.1,-101.3 163.8,-241.5 163.8,-396.3 0,-154.8 -62.7,-295 -163.8,-396.3z"/>
  <circle class="fil6" cx="67518.6" cy="183309.1" r="660.1"/>
  <path class="fil1" d="M67518.6 182549c209.6,0 399.6,85.2 537.1,222.6 137.8,137.9 223,327.9 223,537.5 0,209.6 -85.2,399.6 -222.6,537.1 -137.9,137.8 -327.9,223 -537.5,223 -209.6,0 -399.6,-85.2 -537.1,-222.6 -137.8,-137.9 -223,-327.9 -223,-537.5 0,-209.6 85.2,-399.6 222.6,-537.1 137.9,-137.8 327.9,-223 537.5,-223zm396.3 363.8c-101.3,-101.1 -241.5,-163.8 -396.3,-163.8 -154.8,0 -295,62.7 -396.3,163.8 -101.1,101.3 -163.8,241.5 -163.8,396.3 0,154.8 62.7,295 163.8,396.3 101.3,101.1 241.5,163.8 396.3,163.8 154.8,0 295,-62.7 396.3,-163.8 101.1,-101.3 163.8,-241.5 163.8,-396.3 0,-154.8 -62.7,-295 -163.8,-396.3z"/>
  <g id="_2193151141040">
   <path id="person_add_24dp_E3E3E3_FILL0_wght400_GRAD0_opsz24.svg_5" class="fil0" d="M112398.9 114974c2070.5,-2070.6 3105.8,-4560.8 3105.8,-7468.8 0,-2910 -1035.3,-5398.3 -3105.8,-7470.8 -2070.6,-2070.6 -4560.8,-3105.9 -7468.8,-3105.9 -2910,0 -5398.3,1035.3 -7470.8,3105.9 -2070.6,2072.5 -3105.9,4560.8 -3105.9,7470.8 0,2908 1035.3,5398.2 3105.9,7468.8 2070.5,2070.6 4560.8,3105.8 7470.8,3105.8 2908,0 5396.2,-1035.2 7468.8,-3105.8z"/>
   <path class="fil1" d="M112328.3 114903.4c1025.8,-1026.1 1795.2,-2155.6 2307.7,-3387.9 512.4,-1232.2 768.7,-2569.2 768.7,-4010.3 0,-1441.9 -256.3,-2779 -768.7,-4011.2 -512.6,-1232.7 -1281.8,-2362.4 -2307.6,-3389.1 -1026.1,-1025.7 -2155.6,-1795.2 -3388,-2307.6 -1232.3,-512.4 -2569.3,-768.8 -4010.3,-768.8 -2882.5,0 -5347.6,1025.6 -7400.4,3076.5 -1025.7,1026.7 -1795,2156.3 -2307.6,3389 -512.4,1232.2 -768.7,2569.3 -768.7,4011.2 0,2880.4 1025.6,5347.1 3076.6,7398.1 1026,1026.1 2155.5,1795.4 3388.1,2307.8 1232.7,512.5 2570.1,768.7 4012,768.7 1440.9,0 2777.4,-256.2 4009.4,-768.6 1232.4,-512.6 2362.1,-1281.9 3388.8,-2307.8zm2492.1 -3311.3c-522.8,1257.2 -1306.5,2408.2 -2350.8,3452.6 -1046,1044.5 -2197,1828.3 -3453.5,2350.9 -1257.1,522.8 -2619,784.2 -4086,784.2 -1467.9,0 -2830.9,-261.4 -4088.6,-784.3 -1257.4,-522.7 -2408.6,-1306.4 -3452.9,-2350.8 -2090,-2090 -3135.2,-4604 -3135.2,-7539.5 0,-1468 261.5,-2830.5 784.3,-4087.8 522.5,-1256.7 1306.3,-2407.8 2350.9,-3453.3 2092.4,-2090.4 4604.2,-3135.6 7541.5,-3135.6 1467.1,0 2829.5,261.5 4086.9,784.4 1257.2,522.7 2408.3,1306.5 3452.6,2350.8 1044.6,1045.9 1828.3,2197 2350.8,3453.7 522.8,1257.3 784.3,2619.8 784.3,4087.8 0,1467.1 -261.5,2829.6 -784.3,4086.9z"/>
   <path id="person_add_24dp_E3E3E3_FILL0_wght400_GRAD0_opsz24.svg_6" class="fil2" d="M62429.1 167952.9c0,-4602 775.1,-8829.5 2323.1,-12686 1550.1,-3856.4 3608.2,-6798.6 6176.3,-8826.5 5489.5,-4193.8 11067.5,-7338.5 16735.7,-9436.8 5666.3,-2095.6 11420.9,-3144.8 17265.9,-3144.8 5842.9,0 11597.6,1049.2 17263.8,3144.8 5668.3,2098.3 11246.2,5243 16735.7,9436.8 2568.2,2027.9 4626.2,4970.1 6176.4,8826.5 1548,3856.5 2323.1,8084 2323.1,12682.9 0,14237.5 -0.9,28471.6 -0.9,42708.9l-85000 0c0,-14236.2 0.9,-28469.4 0.9,-42705.8z"/>
   <path class="fil1" d="M62329.3 167952.9c-0.2,-2305.6 194.3,-4519.1 582.8,-6640.6 388.5,-2121 971.3,-4148.5 1747.5,-6082.5 777.6,-1934.6 1683.5,-3641.1 2717.4,-5118.8 1034.8,-1479 2198.1,-2728.8 3489.8,-3748.7l1.2 -1.2c2747.3,-2098.9 5518.3,-3936.1 8312.5,-5511.6 2795.2,-1576.1 5611.8,-2889.4 8449.3,-3939.7 2837,-1049.2 5698.1,-1837 8582.7,-2362.5 2884.9,-525.5 5790.7,-788.5 8717.6,-788.5 2925.2,0 5830,262.9 8713.9,788.2 2885,525.5 5746.6,1313.4 8584.3,2362.8 2837.6,1050.3 5654.1,2363.6 8449.3,3939.7 2794.2,1575.5 5565.2,3412.7 8312.5,5511.6l1.2 1.2c1291.7,1019.9 2455.1,2269.7 3489.9,3748.7 1033.9,1477.7 1939.7,3184.1 2717.4,5118.8 776.5,1934.4 1359.2,3962.4 1747.7,6083.6 388.4,2120.5 582.8,4332.8 582.8,6636.4 -0.6,14269.5 12.9,28539.5 -1.4,42808.9l-85199.1 0 0.7 -42805.8zm778.8 -6604.6c-385.8,2106.8 -579,4308.4 -579,6604.6l-1.3 42605.8 84800.8 0 0.9 -42608.9c-0.4,-2294.1 -193.5,-4494.5 -579.2,-6600.4 -386,-2107.3 -965.1,-4122.6 -1736.9,-6045.4 -772.4,-1921.6 -1670.9,-3614.7 -2695.4,-5079 -1023.2,-1462.5 -2173,-2697.8 -3448.8,-3705.5 -2742.1,-2094.6 -5505.2,-3926.9 -8289.2,-5496.6 -2783,-1569.2 -5589.9,-2877.8 -8420.5,-3925.5 -2829.5,-1046.4 -5680,-1831.5 -8550.7,-2354.4 -2869.2,-522.6 -5762.4,-784.2 -8678.7,-784.2 -2918,0 -5812.2,261.7 -8682.4,784.5 -2870.3,522.9 -5720.1,1307.9 -8549.1,2354.1 -2830.4,1047.7 -5637.5,2356.3 -8420.5,3925.5 -2784,1569.7 -5547.1,3402 -8289.1,5496.8 -1275.9,1007.5 -2425.6,2242.8 -3448.8,3705.3 -1024.5,1464.3 -1923.1,3157.5 -2695.4,5079 -771.6,1922.4 -1350.7,3937.2 -1736.7,6044.3z"/>
   <path id="person_add_24dp_E3E3E3_FILL0_wght400_GRAD0_opsz24.svg_7" class="fil2" d="M89990.5 122442.8c-4143.1,-4141.1 -6213.7,-9121.7 -6213.7,-14937.6 0,-5818 2070.6,-10796.5 6213.7,-14939.6 4143.1,-4141.1 9121.6,-6213.7 14939.6,-6213.7 5815.9,0 10794.5,2072.6 14937.6,6213.7 4143.1,4143.1 6213.7,9121.6 6213.7,14939.6 0,5815.9 -2070.6,10796.5 -6213.7,14937.6 -4143.1,4143.1 -9121.7,6213.7 -14937.6,6213.7 -5818,0 -10796.5,-2070.6 -14939.6,-6213.7z"/>
   <path class="fil1" d="M89919.9 122513.4c-2080.6,-2079.8 -3641.3,-4370.9 -4681.7,-6872.1 -1041,-2502.5 -1561.4,-5214.9 -1561.4,-8136.1 0,-2921.9 520.3,-5634.1 1561,-8136.2 1040.6,-2502.1 2601.3,-4793.5 4682,-6874.1 2081.2,-2079.9 4372.4,-3640.6 6874.1,-4681.3 2502.2,-1041 5214.3,-1561.7 8136.2,-1561.7 2921,0 5632.6,520.8 8134.4,1561.7 2501.4,1040.7 4792.7,2601.4 6873.5,4681.3 2081.1,2080.6 3641.8,4372 4682.4,6874.1 1040.7,2502.1 1561,5214.3 1561,8136.2 0,2921.2 -520.4,5633.6 -1561.4,8136.1 -1040.4,2501.2 -2601.1,4792.3 -4681.8,6872 -2080.3,2080.7 -4371.8,3641.6 -6873.7,4682.2 -2501.9,1040.6 -5213.4,1561 -8134.4,1561 -2921.9,0 -5633.9,-520.3 -8136.2,-1561 -2502.2,-1040.6 -4793.6,-2601.5 -6874,-4682.1zm-4497.3 -6948.7c1030.5,2477.4 2576.7,4746.9 4638.2,6807.4 2062.6,2062.2 4332.4,3608.7 6809.7,4639 2477.2,1030.2 5163.7,1545.4 8059.6,1545.4 2894.9,0 5580.9,-515.2 8057.8,-1545.4 2476.9,-1030.2 4746.8,-2576.7 6809.1,-4639 2061.9,-2060.5 3608.1,-4330 4638.6,-6807.4 1030.5,-2477.4 1545.8,-5164.3 1545.8,-8059.5 0,-2896 -515.1,-5582.4 -1545.4,-8059.6 -1030.2,-2477.2 -2576.7,-4747.1 -4639,-6809.3 -2061.8,-2061.3 -4331.8,-3607.6 -6809.1,-4638.3 -2476.9,-1030.5 -5162.9,-1546.1 -8057.8,-1546.1 -2895.9,0 -5582.4,515.6 -8059.6,1546.1 -2477.6,1030.7 -4747.6,2577.1 -6809.5,4638.1 -2062.1,2062.4 -3608.6,4332.3 -4638.8,6809.5 -1030.3,2477.2 -1545.4,5163.6 -1545.4,8059.6 0,2895.2 515.3,5582.1 1545.8,8059.5z"/>
   <polygon class="fil3" points="104928.7,168162.7 113717.1,154330.4 120205.9,137618.6 105433.9,135749.3 89651.5,137618.6 95635.1,153320.2 "/>
   <path class="fil1" d="M104929.1 167975.8l8699.1 -13691.8 6438.6 -16582.6 -14632.1 -1851.6 -15644.2 1852.9 5935.2 15574.8 9203.4 14698.3zm8872.4 -13591.9l-8873.1 13965.7c-10418.1,-16624.4 -8527,-12707.4 -15415.8,-30815.1 5302.3,-629.4 10615.1,-1296.1 15920.4,-1885.6 4969.2,593.3 9946,1255 14911.9,1887 -1319.5,3401.9 -5069.5,14489.8 -6543.4,16848z"/>
   <polygon class="fil4" points="104879.1,140247.7 107067.2,137721.3 109365.3,135067.6 104769,135067.6 100172.7,135067.6 102470.8,137721.3 104658.8,140247.7 101688.2,162987.3 103721.2,168415.7 105816.7,168415.7 108603.2,162379.5 "/>
   <path class="fil1" d="M104803.7 140182.5l4343.1 -5014.9 -8755.6 0c1457.4,1682.9 2916.9,3364.1 4372.2,5048.7l-2973.2 22759.2 2000 5340.2 1962.8 0 2746.7 -5950.1 -3726.7 -22147.5 30.7 -35.6zm2338.9 -2396l-2157.3 2490.9 3721.3 22115.9c-934.2,2043.6 -1883.4,4082.6 -2826.2,6122.4l-2228.1 0c-690.6,-1837.9 -1381.1,-3676.7 -2066.1,-5516.7l2968 -22719.8 -4599.9 -5311.6 9629.4 0 -2441.1 2818.9z"/>
   <rect class="fil5" x="82068.4" y="172740.9" width="46474.8" height="34328.6"/>
   <path class="fil1" d="M82068.4 172641l46574.8 0 0 34528.6 -46674.8 0 0 -34528.6 100 0zm46374.8 200l-46274.8 0 0 34128.6 46274.8 0 0 -34128.6z"/>
   <path class="fil2" d="M81327.7 171259.6l48683.3 0 0 37291.4 -50164.7 0 0 -37291.4 1481.4 0zm23601 15431.9l15911.5 -11702.7 -31823.1 0 15911.6 11702.7zm11083.9 -4482.6l-11083.9 8151.9 -21942.6 -16138.4 -177 0 0 31365.8 44239.1 0 0 -31365.8 -176.9 0 -10858.7 7986.5z"/>
   <path class="fil1" d="M81327.7 171159.6l48783.3 0c0,12497 12.4,24994.5 -0.1,37491.4l-50364.6 0 0 -37491.4 1581.4 0zm48583.3 200l-49964.7 0 0 37091.4 49964.7 0 0 -37091.4zm-24982.3 15208l15607.1 -11478.8 -31214.3 0 15607.2 11478.8zm15970.5 -11498.3l-15970.4 11746c-5412.3,-3965.3 -10811.2,-7951 -16216.1,-11926.5l32431.9 0 -245.4 180.5zm-4827.6 7220.1l-11142.9 8195.2 -21975.1 -16162.2 -44.5 0 0 31165.8 44039.1 0 0 -31165.8 -44.4 0 -10832.2 7967zm-11142.9 7947.5c7303.4,-5371.4 14608,-10741.3 21910.1,-16114.5l309.4 0 0 31565.8 -44439.1 0 0 -31565.8 309.5 0 21910.1 16114.5z"/>
   <ellipse class="fil4" cx="93595.9" cy="196941.9" rx="3733.5" ry="3377.9"/>
   <path class="fil1" d="M93595.9 193664c-1005.7,0 -1915.5,368.2 -2573.2,963.2 -655,592.7 -1060.3,1411.1 -1060.3,2314.7 0,903.6 405.3,1722.1 1060.3,2314.8 657.6,594.9 1567.5,963.1 2573.2,963.1 1005.7,0 1915.4,-368.1 2573.1,-963.2 655,-592.5 1060.3,-1411.1 1060.3,-2314.7 0,-903.6 -405.3,-1722 -1060.3,-2314.7 -657.7,-595.1 -1567.5,-963.2 -2573.1,-963.2zm-2706.8 815.6c693.5,-627.4 1650.6,-1015.6 2706.8,-1015.6 1056,0 2013.3,388.2 2706.7,1015.6 696,629.8 1126.7,1500.3 1126.7,2462.3 0,962 -430.7,1832.7 -1126.7,2462.3 -693.4,627.4 -1650.5,1015.6 -2706.7,1015.6 -1056.2,0 -2013.4,-388.2 -2706.8,-1015.5 -696,-629.8 -1126.7,-1500.4 -1126.7,-2462.4 0,-962 430.7,-1832.5 1126.7,-2462.3z"/>
   <ellipse class="fil4" cx="116261.4" cy="196941.9" rx="3733.5" ry="3377.9"/>
   <path class="fil1" d="M116261.4 193664c-1005.6,0 -1915.4,368.1 -2573.1,963.2 -655,592.7 -1060.3,1411.1 -1060.3,2314.7 0,903.6 405.3,1722.2 1060.3,2314.7 657.7,595.1 1567.4,963.2 2573.1,963.2 1005.7,0 1915.6,-368.2 2573.2,-963.1 655,-592.7 1060.3,-1411.2 1060.3,-2314.8 0,-903.6 -405.3,-1722 -1060.3,-2314.7 -657.7,-595 -1567.5,-963.2 -2573.2,-963.2zm-2706.7 815.6c693.4,-627.4 1650.7,-1015.6 2706.7,-1015.6 1056.2,0 2013.3,388.2 2706.8,1015.6 696,629.8 1126.7,1500.3 1126.7,2462.3 0,962 -430.7,1832.6 -1126.7,2462.4 -693.4,627.3 -1650.6,1015.5 -2706.8,1015.5 -1056.2,0 -2013.3,-388.2 -2706.7,-1015.6 -696,-629.6 -1126.7,-1500.3 -1126.7,-2462.3 0,-962 430.7,-1832.5 1126.7,-2462.3z"/>
   <ellipse class="fil4" cx="104928.7" cy="180202" rx="3733.5" ry="3377.9"/>
   <path class="fil1" d="M104928.7 176924.1c-1005.7,0 -1915.6,368.2 -2573.2,963.1 -655,592.7 -1060.3,1411.2 -1060.3,2314.8 0,903.6 405.3,1722 1060.3,2314.7 657.7,595 1567.5,963.2 2573.2,963.2 1005.6,0 1915.4,-368.1 2573.1,-963.2 655,-592.7 1060.3,-1411.1 1060.3,-2314.7 0,-903.6 -405.3,-1722.2 -1060.3,-2314.7 -657.7,-595.1 -1567.4,-963.2 -2573.1,-963.2zm-2706.8 815.5c693.4,-627.3 1650.6,-1015.5 2706.8,-1015.5 1056.2,0 2013.3,388.2 2706.7,1015.6 696,629.6 1126.7,1500.4 1126.7,2462.3 0,962 -430.7,1832.5 -1126.7,2462.3 -693.4,627.4 -1650.7,1015.6 -2706.7,1015.6 -1056.2,0 -2013.3,-388.2 -2706.8,-1015.6 -696,-629.8 -1126.7,-1500.3 -1126.7,-2462.3 0,-962 430.7,-1832.6 1126.7,-2462.4z"/>
   <circle class="fil6" cx="104928.7" cy="180202" r="660.1"/>
   <path class="fil1" d="M104928.7 179441.9c209.6,0 399.6,85.2 537.1,222.6 137.8,137.9 223,327.9 223,537.5 0,209.6 -85.2,399.6 -222.6,537.1 -137.9,137.8 -327.9,223 -537.5,223 -209.6,0 -399.6,-85.2 -537.1,-222.6 -137.8,-137.9 -223,-327.9 -223,-537.5 0,-209.6 85.2,-399.6 222.6,-537.1 137.9,-137.8 327.9,-223 537.5,-223zm396.3 363.8c-101.3,-101.1 -241.5,-163.8 -396.3,-163.8 -154.8,0 -295,62.7 -396.3,163.8 -101.1,101.3 -163.8,241.5 -163.8,396.3 0,154.8 62.7,295 163.8,396.3 101.3,101.1 241.5,163.8 396.3,163.8 154.8,0 295,-62.7 396.3,-163.8 101.1,-101.3 163.8,-241.5 163.8,-396.3 0,-154.8 -62.7,-295 -163.8,-396.3z"/>
   <circle class="fil6" cx="93595.9" cy="196941.9" r="660.1"/>
   <path class="fil1" d="M93595.9 196181.8c209.6,0 399.6,85.2 537.1,222.6 137.8,137.9 223,327.9 223,537.5 0,209.6 -85.2,399.6 -222.6,537.1 -137.9,137.8 -327.9,223 -537.5,223 -209.6,0 -399.6,-85.2 -537.1,-222.6 -137.8,-137.9 -223,-327.9 -223,-537.5 0,-209.6 85.2,-399.6 222.6,-537.1 137.9,-137.8 327.9,-223 537.5,-223zm396.3 363.8c-101.3,-101.1 -241.5,-163.8 -396.3,-163.8 -154.8,0 -295,62.7 -396.3,163.8 -101.1,101.3 -163.8,241.5 -163.8,396.3 0,154.8 62.7,295 163.8,396.3 101.3,101.1 241.5,163.8 396.3,163.8 154.8,0 295,-62.7 396.3,-163.8 101.1,-101.3 163.8,-241.5 163.8,-396.3 0,-154.8 -62.7,-295 -163.8,-396.3z"/>
   <circle class="fil6" cx="116261.4" cy="196941.9" r="660.1"/>
   <path class="fil1" d="M116261.4 196181.8c209.6,0 399.6,85.2 537.1,222.6 137.8,137.9 223,327.9 223,537.5 0,209.6 -85.2,399.6 -222.6,537.1 -137.9,137.8 -327.9,223 -537.5,223 -209.6,0 -399.6,-85.2 -537.1,-222.6 -137.8,-137.9 -223,-327.9 -223,-537.5 0,-209.6 85.2,-399.6 222.6,-537.1 137.9,-137.8 327.9,-223 537.5,-223zm396.3 363.8c-101.3,-101.1 -241.5,-163.8 -396.3,-163.8 -154.8,0 -295,62.7 -396.3,163.8 -101.1,101.3 -163.8,241.5 -163.8,396.3 0,154.8 62.7,295 163.8,396.3 101.3,101.1 241.5,163.8 396.3,163.8 154.8,0 295,-62.7 396.3,-163.8 101.1,-101.3 163.8,-241.5 163.8,-396.3 0,-154.8 -62.7,-295 -163.8,-396.3z"/>
  </g>
 </g>
</svg>
