<?xml version="1.0" encoding="UTF-8"?>
<!DOCTYPE svg PUBLIC "-//W3C//DTD SVG 1.1//EN" "http://www.w3.org/Graphics/SVG/1.1/DTD/svg11.dtd">
<!-- Creator: CorelDRAW (Versão OEM) -->
<svg xmlns="http://www.w3.org/2000/svg" xml:space="preserve" width="48mm" height="48mm" version="1.1" style="shape-rendering:geometricPrecision; text-rendering:geometricPrecision; image-rendering:optimizeQuality; fill-rule:evenodd; clip-rule:evenodd"
viewBox="0 0 48000 48000"
 xmlns:xlink="http://www.w3.org/1999/xlink"
 xmlns:xodm="http://www.corel.com/coreldraw/odm/2003">
 <defs>
  <style type="text/css">
   <![CDATA[
    .str0 {stroke:#E6E7E8;stroke-width:200;stroke-miterlimit:22.9256}
    .fil1 {fill:#FEFEFE}
    .fil2 {fill:#373435}
    .fil0 {fill:#373435;fill-rule:nonzero}
   ]]>
  </style>
 </defs>
 <g id="Camada_x0020_1">
  <metadata id="CorelCorpID_0Corel-Layer"/>
  <g id="_2193206844960">
   <path id="person_add_24dp_E3E3E3_FILL0_wght400_GRAD0_opsz24.svg" class="fil0 str0" d="M26760.2 11452.6c777.5,-777.7 1166.3,-1712.9 1166.3,-2805 0,-1092.8 -388.8,-2027.3 -1166.3,-2805.6 -777.7,-777.6 -1712.9,-1166.4 -2805,-1166.4 -1092.8,0 -2027.3,388.8 -2805.6,1166.4 -777.6,778.3 -1166.4,1712.8 -1166.4,2805.6 0,1092.1 388.8,2027.3 1166.4,2805 777.6,777.6 1712.8,1166.4 2805.6,1166.4 1092.1,0 2026.6,-388.8 2805,-1166.4z"/>
   <path id="person_add_24dp_E3E3E3_FILL0_wght400_GRAD0_opsz24.svg_8" class="fil0 str0" d="M7993.9 31348.8c0,-1728.2 291.1,-3315.9 872.5,-4764.2 582.1,-1448.3 1355,-2553.2 2319.5,-3314.8 2061.6,-1575 4156.4,-2756 6285.1,-3544 2128,-787 4289.1,-1181 6484.2,-1181 2194.4,0 4355.5,394 6483.5,1181 2128.7,788 4223.5,1969 6285.1,3544 964.5,761.6 1737.4,1866.5 2319.6,3314.8 581.3,1448.3 872.4,3036 872.4,4763.1 0,5346.9 -0.3,10692.5 -0.3,16039.4l-31921.9 0c0,-5346.5 0.3,-10691.8 0.3,-16038.3z"/>
   <path id="person_add_24dp_E3E3E3_FILL0_wght400_GRAD0_opsz24.svg_9" class="fil0 str0" d="M18344.7 14257.5c-1556,-1555.2 -2333.6,-3425.7 -2333.6,-5609.9 0,-2184.9 777.6,-4054.6 2333.6,-5610.5 1555.9,-1555.2 3425.6,-2333.6 5610.5,-2333.6 2184.2,0 4053.9,778.4 5609.9,2333.6 1555.9,1555.9 2333.5,3425.6 2333.5,5610.5 0,2184.2 -777.6,4054.7 -2333.5,5609.9 -1556,1555.9 -3425.7,2333.5 -5609.9,2333.5 -2184.9,0 -4054.6,-777.6 -5610.5,-2333.5z"/>
   <polygon class="fil1 str0" points="23954.7,31427.7 27255.2,26232.9 29692.1,19956.8 24144.4,19254.8 18217.3,19956.8 20464.5,25853.5 "/>
   <polygon class="fil2 str0" points="23936.1,20944.1 24757.8,19995.3 25620.9,18998.7 23894.7,18998.7 22168.6,18998.7 23031.7,19995.3 23853.4,20944.1 22737.7,29484 23501.2,31522.7 24288.2,31522.7 25334.7,29255.8 "/>
   <g>
    <g>
     <polygon class="fil2 str0" points="15369.5,33147 32823.2,33147 32823.2,46039.2 15369.5,46039.2 "/>
     <path class="fil0 str0" d="M15091.3 32590.7l18283.1 0 0 14004.8 -18839.4 0 0 -14004.8 556.3 0zm8863.4 5795.4l5975.6 -4394.9 -11951.2 0 5975.6 4394.9zm4162.6 -1683.4l-4162.6 3061.5 -8240.5 -6060.8 -66.5 0 0 11779.4 16614 0 0 -11779.4 -66.4 0 -4078 2999.3z"/>
    </g>
    <g>
     <g>
      <path class="fil1 str0" d="M19698.7 40967.1c-774.4,0 -1402.2,568 -1402.2,1268.6 0,700.6 627.8,1268.6 1402.2,1268.6 774.3,0 1402.1,-568 1402.1,-1268.6 0,-700.6 -627.8,-1268.6 -1402.1,-1268.6z"/>
      <path class="fil1 str0" d="M28210.7 40967.1c-774.3,0 -1402.1,568 -1402.1,1268.6 0,700.6 627.8,1268.6 1402.1,1268.6 774.4,0 1402.2,-568 1402.2,-1268.6 0,-700.6 -627.8,-1268.6 -1402.2,-1268.6z"/>
     </g>
     <path class="fil1 str0" d="M23954.7 34680.5c-774.4,0 -1402.1,567.9 -1402.1,1268.5 0,700.6 627.7,1268.6 1402.1,1268.6 774.4,0 1402.1,-568 1402.1,-1268.6 0,-700.6 -627.7,-1268.5 -1402.1,-1268.5z"/>
    </g>
   </g>
  </g>
 </g>
</svg>
