<?xml version="1.0" encoding="UTF-8"?>
<!DOCTYPE svg PUBLIC "-//W3C//DTD SVG 1.1//EN" "http://www.w3.org/Graphics/SVG/1.1/DTD/svg11.dtd">
<!-- Creator: CorelDRAW (Versão OEM) -->
<svg xmlns="http://www.w3.org/2000/svg" xml:space="preserve" width="34.2627mm" height="48mm" version="1.1" style="shape-rendering:geometricPrecision; text-rendering:geometricPrecision; image-rendering:optimizeQuality; fill-rule:evenodd; clip-rule:evenodd"
viewBox="0 0 3417.24 4787.35"
 xmlns:xlink="http://www.w3.org/1999/xlink"
 xmlns:xodm="http://www.corel.com/coreldraw/odm/2003">
 <defs>
  <style type="text/css">
   <![CDATA[
    .fil3 {fill:#FEFEFE}
    .fil4 {fill:#373435}
    .fil5 {fill:#1E2A50}
    .fil1 {fill:#FEFEFE;fill-rule:nonzero}
    .fil2 {fill:#373435;fill-rule:nonzero}
    .fil0 {fill:#1E2A50;fill-rule:nonzero}
   ]]>
  </style>
 </defs>
 <g id="Camada_x0020_1">
  <metadata id="CorelCorpID_0Corel-Layer"/>
  <g id="_2777280712352">
   <path id="person_add_24dp_E3E3E3_FILL0_wght400_GRAD0_opsz24.svg" class="fil0" d="M2004.42 1159.08c81.99,-81.99 123,-180.6 123,-295.77 0,-115.24 -41,-213.78 -123,-295.84 -81.99,-82 -180.6,-123 -295.76,-123 -115.25,0 -213.78,40.99 -295.85,123 -82,82.06 -123,180.6 -123,295.84 0,115.17 40.99,213.78 123,295.77 81.99,81.99 180.6,123 295.85,123 115.16,0 213.69,-41 295.76,-123z"/>
   <path class="fil1" d="M1997.37 1152.04c40.06,-40.08 70.11,-84.18 90.09,-132.22 19.98,-48.05 29.97,-100.23 29.97,-156.51 0,-56.31 -10,-108.5 -29.97,-156.54 -20,-48.09 -50.04,-92.21 -90.1,-132.29 -40.02,-40.03 -84.12,-70.06 -132.2,-90.06 -48.05,-19.98 -100.24,-29.97 -156.51,-29.97 -56.32,0 -108.51,9.99 -156.55,29.97 -48.07,19.99 -92.18,50.03 -132.27,90.08 -40.05,40.08 -70.08,84.19 -90.08,132.27 -19.97,48.03 -29.97,100.23 -29.97,156.54 0,56.28 9.99,108.46 29.97,156.52 19.99,48.08 50.03,92.18 90.06,132.2 40.06,40.05 84.17,70.1 132.26,90.1 48.05,19.97 100.27,29.97 156.58,29.97 56.27,0 108.43,-10 156.47,-29.97 48.07,-20 92.18,-50.04 132.25,-90.09zm108.48 -124.58c-21.01,50.53 -52.49,96.77 -94.39,138.67 -42,41.92 -88.24,73.4 -138.7,94.39 -50.53,21 -105.23,31.53 -164.11,31.53 -58.91,0 -113.67,-10.52 -164.22,-31.53 -50.49,-20.99 -96.71,-52.47 -138.64,-94.39 -41.96,-41.95 -73.45,-88.2 -94.43,-138.66 -21,-50.54 -31.53,-105.27 -31.53,-164.16 0,-58.91 10.52,-113.65 31.53,-164.18 20.98,-50.49 52.47,-96.72 94.39,-138.67 42.01,-41.97 88.25,-73.45 138.71,-94.43 50.54,-21.01 105.27,-31.53 164.19,-31.53 58.87,0 113.61,10.52 164.15,31.53 50.48,20.99 96.72,52.48 138.66,94.43 41.92,41.95 73.41,88.19 94.39,138.67 21,50.53 31.53,105.26 31.53,164.18 0,58.88 -10.52,113.61 -31.53,164.15z"/>
   <path id="person_add_24dp_E3E3E3_FILL0_wght400_GRAD0_opsz24.svg_10" class="fil2" d="M25.6 3070.54c0,-182.24 30.69,-349.65 91.99,-502.37 61.39,-152.71 142.89,-269.22 244.58,-349.53 217.39,-166.08 438.28,-290.6 662.74,-373.7 224.39,-82.98 452.28,-124.53 683.74,-124.53 231.38,0 459.27,41.55 683.64,124.53 224.47,83.1 445.35,207.62 662.74,373.7 101.7,80.31 183.21,196.82 244.59,349.53 61.3,152.73 92,320.13 92,502.25 0,563.81 -0.04,1127.48 -0.04,1691.28l-3366.03 0c0,-563.76 0.04,-1127.39 0.04,-1691.16z"/>
   <path class="fil1" d="M0.01 3070.54c-0.05,-92.37 7.79,-181.32 23.47,-266.86 15.64,-85.45 39.11,-167.14 70.38,-245.02 31.38,-78.06 68.06,-147.11 109.99,-207.03 42.19,-60.29 89.69,-111.32 142.5,-153.03l0.3 -0.3c109.39,-83.57 219.97,-156.87 331.71,-219.88 111.57,-63 224.17,-115.48 337.72,-157.53 113.3,-41.89 227.83,-73.4 343.53,-94.47 115.79,-21.08 232.15,-31.64 349.03,-31.64 116.85,0 233.18,10.55 348.97,31.64 115.69,21.07 230.21,52.58 343.49,94.47 113.57,42.05 226.17,94.53 337.75,157.43 111.73,63.11 222.33,136.41 331.72,219.98l0.3 0.3c52.82,41.71 100.33,92.74 142.51,153.03 41.91,59.92 78.59,128.96 109.98,207.03 31.26,77.91 54.75,159.62 70.38,245.08 15.65,85.5 23.49,174.41 23.49,266.68l-0.14 1716.93 -3417.07 0 -0.02 -1716.82zm73.74 -257.65c-15,81.89 -22.51,167.77 -22.51,257.65l-0.13 1665.54 3314.93 0 0.03 -1665.66c-0.1,-89.79 -7.61,-175.62 -22.59,-257.47 -15.01,-82 -37.55,-160.44 -67.57,-235.26 -30,-74.61 -64.81,-140.23 -104.38,-196.81 -39.24,-56.08 -83.24,-103.43 -131.96,-141.97 -108,-82.43 -216.58,-154.46 -325.71,-216 -109.36,-61.55 -219.48,-112.89 -330.36,-153.94 -111.06,-41.07 -222.72,-71.85 -334.89,-92.28 -112.1,-20.43 -225.43,-30.64 -339.96,-30.64 -114.57,0 -227.92,10.21 -340.02,30.64 -112.18,20.43 -223.84,51.2 -334.93,92.28 -110.86,41.05 -220.98,92.4 -330.29,154.02 -109.18,61.46 -217.74,133.48 -325.71,215.96 -48.75,38.5 -92.76,85.84 -131.99,141.93 -39.59,56.58 -74.39,122.2 -104.39,196.81 -30.02,74.81 -52.56,153.21 -67.57,235.2z"/>
   <path id="person_add_24dp_E3E3E3_FILL0_wght400_GRAD0_opsz24.svg_11" class="fil2" d="M1117.04 1454.85c-164.07,-163.99 -246.06,-361.23 -246.06,-591.54 0,-230.39 81.99,-427.54 246.06,-591.61 164.07,-163.99 361.22,-246.07 591.62,-246.07 230.31,0 427.46,82.08 591.53,246.07 164.07,164.07 246.07,361.22 246.07,591.61 0,230.31 -82,427.55 -246.07,591.54 -164.07,164.07 -361.22,246.06 -591.53,246.06 -230.4,0 -427.55,-81.99 -591.62,-246.06z"/>
   <path class="fil1" d="M1099 1472.99c-84.47,-84.45 -147.86,-177.52 -190.14,-279.18 -42.35,-101.8 -63.52,-211.98 -63.52,-330.5 0,-118.53 21.17,-228.71 63.5,-330.49 42.33,-101.8 105.7,-194.9 190.06,-279.26 84.53,-84.37 177.59,-147.73 279.25,-190.04 101.8,-42.34 211.96,-63.52 330.5,-63.52 118.49,0 228.66,21.18 330.44,63.52 101.66,42.31 194.72,105.66 279.13,190.04 84.47,84.37 147.83,177.46 190.17,279.26 42.33,101.79 63.51,211.96 63.51,330.49 0,118.5 -21.18,228.68 -63.52,330.48 -42.28,101.64 -105.66,194.72 -190.11,279.14 -84.31,84.41 -177.4,147.77 -279.18,190.11 -101.78,42.34 -211.95,63.52 -330.44,63.52 -237.41,0 -440.57,-84.54 -609.65,-253.57zm-142.86 -298.82c39.71,95.48 99.37,183.03 178.93,262.56 159.06,159.03 350.2,238.56 573.58,238.56 111.82,0 215.43,-19.86 310.81,-59.52 95.37,-39.67 182.92,-99.37 262.6,-179.04 79.67,-79.53 139.32,-167.09 179.04,-262.57 39.68,-95.38 59.52,-199.02 59.52,-310.85 0,-111.85 -19.84,-215.48 -59.51,-310.86 -39.67,-95.38 -99.36,-182.94 -179.05,-262.63 -79.58,-79.63 -167.13,-139.3 -262.6,-179.03 -95.38,-39.67 -198.98,-59.52 -310.81,-59.52 -111.85,0 -215.49,19.86 -310.87,59.52 -95.47,39.73 -183.04,99.41 -262.67,178.98 -79.64,79.74 -139.33,167.3 -179,262.68 -39.68,95.39 -59.5,199.01 -59.5,310.86 0,111.83 19.84,215.47 59.52,310.86z"/>
   <polygon class="fil3" points="1696.92,3201.48 1919.94,2511.01 2048.61,1776.7 1945.84,1760.88 1708.65,1746.06 1505.78,1756.87 1354.62,1779.3 1481.17,2471 "/>
   <path class="fil1" d="M1697.35 3167.81l212.87 -659.06 126.83 -723.76 -92.41 -14.22 -236.07 -14.75 -201.65 10.75 -140.67 20.86 124.58 680.96 206.51 699.21zm232.06 -653.76l-232.91 721.1c-188.76,-638.96 -235.47,-819.45 -353.5,-1464.18 270.79,-40.31 443.45,-44.8 717.18,-2.56 -33.95,194.81 -77.95,576.66 -130.76,745.65z"/>
   <polygon class="fil4" points="1737.91,1992.74 1886.28,1790.18 1522.25,1790.18 1664.26,1986.13 1599.66,2887.35 1696.92,3201.48 1807.2,2887.51 "/>
   <path class="fil1" d="M1729.88 1986.85l136.75 -186.7 -324.85 0 132.67 183.07 -64.72 903.01 87.79 283.55 99.59 -283.54 -69.42 -896.4 2.19 -2.99zm164.43 -190.79l-146.18 199.57 69.16 893.14c-40.01,114.89 -80.63,229.6 -120.96,344.39 -35.58,-114.89 -70.78,-229.94 -106.73,-344.71l64.48 -899.41 -151.36 -208.84 403.2 0 -11.61 15.86z"/>
   <polygon class="fil3" points="803.32,3260.15 2643.74,3260.15 2643.74,4619.58 803.32,4619.58 "/>
   <path class="fil1" d="M803.32 3250.18l1850.39 0 0 1379.38 -1860.37 0 0 -1379.38 9.97 0zm1830.45 19.95l-1820.47 0 0 1339.48 1820.47 0 0 -1339.48z"/>
   <path class="fil0" d="M773.99 3201.48l1927.88 0 0 1476.75 -1986.54 0 0 -1476.75 58.67 0zm934.61 611.11l630.1 -463.43 -1260.2 0 630.11 463.43zm438.92 -177.51l-438.92 322.82 -868.93 -639.08 -7.01 0 0 1242.1 1751.88 0 0 -1242.1 -7 0 -430.01 316.26z"/>
   <path class="fil1" d="M773.99 3191.51l1937.85 0 0 1496.7 -2006.49 0 0 -1496.7 68.64 0zm1917.9 19.95l-1966.6 0 0 1456.8 1966.6 0 0 -1456.8zm-983.29 588.77l599.74 -441.09 -1199.48 0 599.75 441.09zm635.98 -443.04l-635.98 467.74c-220.32,-161.69 -440.3,-323.86 -660.48,-485.75l1320.93 0 -24.48 18zm-191.18 285.91l-444.81 327.14 -865.97 -636.9 0 1217.59 1731.94 0 0 -1217.58 -421.16 309.75zm-444.81 302.43l865.69 -636.7 20.22 0 0 1262.05 -1771.83 0 0 -1262.05 20.22 0 865.7 636.7z"/>
   <path class="fil5" d="M1259.81 4084.75c-81.65,0 -147.85,59.89 -147.85,133.77 0,73.87 66.2,133.77 147.85,133.77 81.65,0 147.85,-59.89 147.85,-133.77 0,-73.87 -66.2,-133.77 -147.85,-133.77z"/>
   <path class="fil1" d="M1259.81 4094.72c-38.31,0 -72.92,13.98 -97.88,36.56 -24.7,22.35 -39.99,53.2 -39.99,87.23 0,34.03 15.29,64.88 39.99,87.23 24.96,22.58 59.57,36.56 97.88,36.56 38.3,0 72.92,-13.98 97.88,-36.56 24.7,-22.35 39.99,-53.2 39.99,-87.23 0,-34.03 -15.29,-64.88 -39.99,-87.23 -24.96,-22.58 -59.58,-36.56 -97.88,-36.56zm-111.21 21.84c28.53,-25.81 67.87,-41.79 111.21,-41.79 43.34,0 82.67,15.98 111.21,41.79 28.79,26.05 46.62,62.11 46.62,101.95 0,39.84 -17.82,75.9 -46.62,101.95 -28.53,25.81 -67.87,41.79 -111.21,41.79 -43.34,0 -82.67,-15.98 -111.21,-41.79 -28.79,-26.05 -46.62,-62.11 -46.62,-101.95 0,-39.84 17.82,-75.9 46.62,-101.95z"/>
   <path class="fil5" d="M2157.37 4084.75c-81.64,0 -147.84,59.89 -147.84,133.77 0,73.87 66.2,133.77 147.84,133.77 81.66,0 147.85,-59.89 147.85,-133.77 0,-73.87 -66.19,-133.77 -147.85,-133.77z"/>
   <path class="fil1" d="M2157.37 4094.72c-38.3,0 -72.91,13.97 -97.87,36.56 -24.7,22.35 -39.99,53.21 -39.99,87.23 0,34.02 15.29,64.88 39.99,87.23 24.96,22.59 59.57,36.56 97.87,36.56 38.31,0 72.92,-13.97 97.88,-36.56 24.7,-22.35 39.99,-53.2 39.99,-87.23 0,-34.03 -15.29,-64.88 -39.99,-87.23 -24.96,-22.59 -59.57,-36.56 -97.88,-36.56zm-111.2 21.84c28.52,-25.81 67.87,-41.79 111.2,-41.79 43.35,0 82.68,15.98 111.21,41.79 28.79,26.05 46.62,62.11 46.62,101.95 0,39.84 -17.82,75.9 -46.62,101.95 -28.52,25.81 -67.86,41.79 -111.21,41.79 -43.33,0 -82.67,-15.98 -111.2,-41.79 -28.79,-26.05 -46.62,-62.11 -46.62,-101.95 0,-39.83 17.81,-75.89 46.62,-101.95z"/>
   <path class="fil5" d="M1708.6 3421.84c-81.65,0 -147.85,59.89 -147.85,133.77 0,73.87 66.2,133.77 147.85,133.77 81.65,0 147.84,-59.89 147.84,-133.77 0,-73.87 -66.19,-133.77 -147.84,-133.77z"/>
   <path class="fil1" d="M1708.6 3431.82c-38.31,0 -72.92,13.98 -97.88,36.56 -24.7,22.35 -39.99,53.2 -39.99,87.23 0,34.03 15.29,64.88 39.99,87.23 24.96,22.58 59.57,36.56 97.88,36.56 38.3,0 72.91,-13.97 97.87,-36.56 24.7,-22.35 39.99,-53.2 39.99,-87.23 0,-34.03 -15.29,-64.88 -39.99,-87.23 -24.96,-22.59 -59.57,-36.56 -97.87,-36.56zm-111.21 21.84c28.53,-25.81 67.87,-41.79 111.21,-41.79 43.33,0 82.67,15.98 111.2,41.79 28.79,26.05 46.62,62.11 46.62,101.95 0,39.84 -17.82,75.9 -46.62,101.95 -28.52,25.81 -67.87,41.79 -111.2,41.79 -43.34,0 -82.67,-15.98 -111.21,-41.79 -28.79,-26.05 -46.62,-62.11 -46.62,-101.95 0,-39.84 17.82,-75.9 46.62,-101.95z"/>
  </g>
 </g>
</svg>
