<?xml version="1.0" encoding="UTF-8"?>
<!DOCTYPE svg PUBLIC "-//W3C//DTD SVG 1.1//EN" "http://www.w3.org/Graphics/SVG/1.1/DTD/svg11.dtd">
<!-- Creator: CorelDRAW (Versão OEM) -->
<svg xmlns="http://www.w3.org/2000/svg" xml:space="preserve" version="1.1" style="shape-rendering:geometricPrecision; text-rendering:geometricPrecision; image-rendering:optimizeQuality; fill-rule:evenodd; clip-rule:evenodd" viewBox="-306.66 -306.70 15947.88 14939.29" xmlns:xlink="http://www.w3.org/1999/xlink" xmlns:xodm="http://www.corel.com/coreldraw/odm/2003">
 <defs>
  <style type="text/css">
   <![CDATA[
    .str2 {stroke:#D2AE38;stroke-width:74.61;stroke-miterlimit:22.9256}
    .str3 {stroke:#FEFEFE;stroke-width:59.69;stroke-miterlimit:22.9256}
    .str1 {stroke:#373435;stroke-width:59.69;stroke-miterlimit:22.9256}
    .str0 {stroke:#D2AE38;stroke-width:59.69;stroke-miterlimit:22.9256}
    .fil3 {fill:none}
    .fil7 {fill:#FEFEFE}
    .fil1 {fill:#373435}
    .fil4 {fill:#1E2A50}
    .fil8 {fill:#D2AE38}
    .fil0 {fill:#FEFEFE;fill-rule:nonzero}
    .fil2 {fill:#373435;fill-rule:nonzero}
    .fil6 {fill:#373435;fill-rule:nonzero}
    .fil5 {fill:#1E2A50;fill-rule:nonzero}
   ]]>
  </style>
 </defs>
 <g id="Camada_x0020_1">
  <metadata id="CorelCorpID_0Corel-Layer"/>
  <g id="_2637614721824">
   <polygon class="fil0" points="15112.98,1478.28 6459.93,1478.28 6459.93,8535.01 15112.98,8535.01 "/>
   <rect class="fil1 str0" x="9111.35" y="2141.17" width="5155.75" height="2427.58"/>
   <path class="fil2 str1" d="M14891.47 1699.8l-8210.02 0 0 6613.64 8210.02 0 0 -6613.64zm-8431.56 -443.09l8874.62 0 0 7499.81 -9096.14 0 0 -7499.81 221.51 0z"/>
   <polyline class="fil3 str2" points="10492.58,4143.47 11117.16,2649.96 11629.94,3612.15 12315.34,2572.24 12861.16,3304.48 13442.08,2541.74 "/>
   <rect class="fil4 str3" x="7325.81" y="2110.73" width="1372.86" height="5262.56"/>
   <path id="person_add_24dp_E3E3E3_FILL0_wght400_GRAD0_opsz24.svg" class="fil5 str3" d="M5773.19 3338.41c236.17,-236.17 354.24,-520.18 354.24,-851.88 0,-331.88 -118.07,-615.71 -354.24,-852.09 -236.17,-236.17 -520.21,-354.24 -851.88,-354.24 -331.91,0 -615.71,118.07 -852.09,354.24 -236.17,236.38 -354.27,520.21 -354.27,852.09 0,331.7 118.1,615.71 354.27,851.88 236.14,236.17 520.18,354.24 852.09,354.24 331.67,0 615.48,-118.07 851.88,-354.24z"/>
   <path id="person_add_24dp_E3E3E3_FILL0_wght400_GRAD0_opsz24.svg_14" class="fil6" d="M73.72 9381.07c0,-524.89 88.4,-1007.08 264.97,-1446.95 176.81,-439.83 411.54,-775.42 704.48,-1006.72 626.1,-478.34 1262.32,-837.02 1908.84,-1076.35 646.28,-239 1302.64,-358.68 1969.3,-358.68 666.42,0 1322.82,119.68 1969.09,358.68 646.52,239.33 1282.7,598.02 1908.84,1076.35 292.9,231.3 527.64,566.89 704.45,1006.72 176.57,439.86 264.97,922.05 264.97,1446.59 0,1623.9 -0.09,3247.41 -0.09,4871.31l-9694.93 0c0,-1623.78 0.09,-3247.17 0.09,-4870.95z"/>
   <path class="fil0" d="M0.03 9381.07c-0.15,-266.01 22.44,-522.24 67.57,-768.61 45.07,-246.11 112.67,-481.38 202.74,-705.73 90.37,-224.83 196.03,-423.69 316.78,-596.26 121.53,-173.67 258.34,-320.66 410.47,-440.79l0.87 -0.84c315.08,-240.7 633.53,-451.83 955.39,-633.29 321.35,-181.49 645.68,-332.63 972.73,-453.74 326.33,-120.67 656.19,-211.4 989.44,-272.1 333.52,-60.74 668.63,-91.12 1005.26,-91.12 336.57,0 671.65,30.38 1005.14,91.12 333.2,60.71 663.05,151.44 989.32,272.1 327.11,121.11 651.44,272.25 972.79,453.44 321.83,181.76 640.37,392.89 955.45,633.59l0.87 0.84c152.12,120.13 288.94,267.12 410.47,440.79 120.73,172.57 226.38,371.4 316.75,596.26 90.04,224.44 157.67,459.77 202.71,705.91 45.1,246.29 67.69,502.36 67.69,768.11l-0.42 4945.15 -9841.95 0 -0.06 -4944.82zm212.38 -742.08c-43.22,235.87 -64.85,483.2 -64.85,742.08l-0.36 4797.14 9547.76 0 0.09 -4797.47c-0.3,-258.64 -21.91,-505.85 -65.06,-741.57 -43.25,-236.2 -108.16,-462.1 -194.62,-677.61 -86.4,-214.92 -186.65,-403.9 -300.63,-566.86 -113.03,-161.55 -239.75,-297.89 -380.11,-408.88 -311.05,-237.42 -623.77,-444.88 -938.11,-622.13 -314.96,-177.25 -632.13,-325.17 -951.51,-443.39 -319.86,-118.31 -641.47,-206.95 -964.52,-265.81 -322.9,-58.8 -649.32,-88.22 -979.2,-88.22 -329.94,0 -656.45,29.43 -979.32,88.22 -323.11,58.86 -644.7,147.5 -964.64,265.81 -319.32,118.22 -636.49,266.13 -951.33,443.63 -314.45,177.01 -627.15,384.44 -938.11,622.01 -140.42,110.88 -267.15,247.21 -380.17,408.77 -114.01,162.96 -214.26,351.94 -300.66,566.86 -86.49,215.49 -151.38,441.27 -194.62,677.44z"/>
   <path id="person_add_24dp_E3E3E3_FILL0_wght400_GRAD0_opsz24.svg_15" class="fil6" d="M3217.33 4190.29c-472.55,-472.34 -708.71,-1040.42 -708.71,-1703.77 0,-663.59 236.17,-1231.4 708.71,-1703.98 472.55,-472.31 1040.39,-708.71 1703.98,-708.71 663.35,0 1231.19,236.41 1703.77,708.71 472.55,472.58 708.71,1040.39 708.71,1703.98 0,663.35 -236.17,1231.43 -708.71,1703.77 -472.58,472.55 -1040.42,708.71 -1703.77,708.71 -663.59,0 -1231.43,-236.17 -1703.98,-708.71z"/>
   <path class="fil0" d="M3165.37 4242.52c-243.3,-243.21 -425.87,-511.29 -547.67,-804.1 -121.95,-293.2 -182.95,-610.55 -182.95,-951.9 0,-341.4 61,-658.72 182.89,-951.9 121.95,-293.17 304.46,-561.34 547.43,-804.31 243.45,-243 511.52,-425.51 804.34,-547.37 293.17,-121.92 610.49,-182.95 951.87,-182.95 341.28,0 658.6,61.03 951.75,182.95 292.82,121.86 560.83,304.34 803.98,547.37 243.27,242.97 425.78,511.14 547.7,804.31 121.95,293.2 182.95,610.49 182.95,951.9 0,341.28 -61,658.63 -182.98,951.87 -121.74,292.76 -304.31,560.8 -547.52,803.98 -242.85,243.09 -510.96,425.63 -804.13,547.55 -293.14,121.95 -610.46,182.95 -951.75,182.95 -683.79,0 -1268.92,-243.48 -1755.91,-730.35zm-411.48 -860.63c114.37,275 286.19,527.13 515.34,756.2 458.13,458.04 1008.66,687.11 1652.04,687.11 322.09,0 620.52,-57.18 895.22,-171.43 274.67,-114.25 526.83,-286.19 756.35,-515.67 229.45,-229.07 401.27,-481.23 515.67,-756.23 114.25,-274.73 171.43,-573.24 171.43,-895.34 0,-322.15 -57.15,-620.64 -171.4,-895.34 -114.25,-274.7 -286.19,-526.89 -515.7,-756.41 -229.21,-229.36 -481.38,-401.24 -756.35,-515.64 -274.7,-114.28 -573.13,-171.46 -895.22,-171.46 -322.15,0 -620.64,57.18 -895.34,171.46 -274.97,114.4 -527.19,286.31 -756.56,515.49 -229.36,229.66 -401.3,481.86 -515.55,756.56 -114.25,274.73 -171.37,573.21 -171.37,895.34 0,322.12 57.15,620.61 171.43,895.37z"/>
   <polygon class="fil7 str3" points="4921.15,9405.01 5923.55,7827.31 6663.63,5921.22 4978.79,5708 3178.68,5921.22 3861.13,7712.11 "/>
   <polygon class="fil1 str3" points="4915.48,6221.08 5165.05,5932.92 5427.19,5630.26 4902.95,5630.26 4378.68,5630.26 4640.81,5932.92 4890.35,6221.08 4551.55,8814.72 4783.42,9433.87 5022.42,9433.87 5340.25,8745.39 "/>
   <polygon class="fil7 str3" points="2313.75,9927.19 7614.57,9927.19 7614.57,13842.63 2313.75,13842.63 "/>
   <path class="fil5 str3" d="M2229.26 9758.23l5552.72 0 0 4253.39 -5721.67 0 0 -4253.39 168.96 0zm2691.9 1760.12l1814.82 -1334.79 -3629.67 0 1814.85 1334.79zm1264.2 -511.26l-1264.2 929.78 -2502.73 -1840.7 -20.18 0 0 3577.5 5045.82 0 0 -3577.5 -20.18 0 -1238.53 910.92z"/>
   <g>
    <path class="fil4 str3" d="M3628.54 12302.24c-235.18,0 -425.84,172.48 -425.84,385.25 0,212.8 190.65,385.28 425.84,385.28 235.18,0 425.84,-172.48 425.84,-385.28 0,-212.77 -190.65,-385.25 -425.84,-385.25z"/>
    <path class="fil4 str3" d="M6213.74 12302.24c-235.18,0 -425.84,172.48 -425.84,385.25 0,212.8 190.65,385.28 425.84,385.28 235.18,0 425.84,-172.48 425.84,-385.28 0,-212.77 -190.65,-385.25 -425.84,-385.25z"/>
   </g>
   <path class="fil4 str3" d="M4921.15 10392.9c-235.18,0 -425.84,172.51 -425.84,385.28 0,212.8 190.65,385.28 425.84,385.28 235.18,0 425.81,-172.48 425.81,-385.28 0,-212.77 -190.62,-385.28 -425.81,-385.28z"/>
   <rect class="fil1 str3" x="9861.85" y="4989.99" width="4457.54" height="365.4" rx="468.28" ry="468.28"/>
   <rect class="fil4 str3" x="9861.85" y="5926.56" width="4457.54" height="365.4" rx="468.28" ry="468.28"/>
   <rect class="fil8 str3" x="9861.85" y="6863.08" width="4457.54" height="365.4" rx="468.28" ry="468.28"/>
   <circle class="fil1 str3" cx="9280.92" cy="5172.74" r="253.9"/>
   <circle class="fil4 str3" cx="9280.92" cy="6109.3" r="253.9"/>
   <circle class="fil8 str3" cx="9280.92" cy="7045.87" r="253.9"/>
  </g>
 </g>
</svg>