<?xml version="1.0" encoding="UTF-8"?>
<!DOCTYPE svg PUBLIC "-//W3C//DTD SVG 1.1//EN" "http://www.w3.org/Graphics/SVG/1.1/DTD/svg11.dtd">
<!-- Creator: CorelDRAW (Versão OEM) -->
<svg xmlns="http://www.w3.org/2000/svg" xml:space="preserve" version="1.1" style="shape-rendering:geometricPrecision; text-rendering:geometricPrecision; image-rendering:optimizeQuality; fill-rule:evenodd; clip-rule:evenodd" viewBox="567.53 803.90 1048.85 1048.85" xmlns:xlink="http://www.w3.org/1999/xlink" xmlns:xodm="http://www.corel.com/coreldraw/odm/2003" data-name="Camada 1">
 <defs>
  <style type="text/css">
   <![CDATA[
    .str3 {stroke:#222222;stroke-width:15.875;stroke-linecap:round;stroke-linejoin:round;stroke-miterlimit:22.9256}
    .str2 {stroke:#222222;stroke-width:5.292;stroke-linecap:round;stroke-linejoin:round;stroke-miterlimit:22.9256}
    .str0 {stroke:#111111;stroke-width:21.167;stroke-linecap:round;stroke-linejoin:round;stroke-miterlimit:22.9256}
    .str1 {stroke:white;stroke-width:1.984;stroke-linecap:round;stroke-linejoin:round;stroke-miterlimit:22.9256}
    .fil0 {fill:url(#id0)}
    .fil1 {fill:url(#id1)}
    .fil27 {fill:url(#id2)}
    .fil23 {fill:url(#id3)}
    .fil15 {fill:url(#id4)}
    .fil2 {fill:url(#id5)}
    .fil10 {fill:url(#id6)}
    .fil17 {fill:url(#id7)}
    .fil14 {fill:url(#id8)}
    .fil30 {fill:url(#id9)}
    .fil22 {fill:url(#id10)}
    .fil19 {fill:url(#id11)}
    .fil29 {fill:url(#id12)}
    .fil16 {fill:url(#id13)}
    .fil25 {fill:url(#id14)}
    .fil3 {fill:url(#id15)}
    .fil4 {fill:url(#id16)}
    .fil9 {fill:url(#id17)}
    .fil5 {fill:url(#id18)}
    .fil13 {fill:url(#id19)}
    .fil28 {fill:url(#id20)}
    .fil18 {fill:url(#id21)}
    .fil21 {fill:url(#id22)}
    .fil7 {fill:url(#id23)}
    .fil11 {fill:url(#id24)}
    .fil24 {fill:url(#id25)}
    .fil20 {fill:url(#id26)}
    .fil6 {fill:url(#id27)}
    .fil8 {fill:url(#id28)}
    .fil12 {fill:url(#id29)}
    .fil26 {fill:url(#id30)}
   ]]>
  </style>
  <linearGradient id="id0" gradientUnits="userSpaceOnUse" x1="587.703" y1="824.068" x2="1596.211" y2="1832.576">
   <stop offset="0" style="stop-opacity:1; stop-color:#444444"/>
   <stop offset="0.501961" style="stop-opacity:1; stop-color:#1A1A1A"/>
   <stop offset="1" style="stop-opacity:1; stop-color:#050505"/>
  </linearGradient>
  <linearGradient id="id1" gradientUnits="userSpaceOnUse" x1="603.987" y1="840.334" x2="1579.945" y2="1816.31">
   <stop offset="0" style="stop-opacity:1; stop-color:#E0E0E0"/>
   <stop offset="0.301961" style="stop-opacity:1; stop-color:white"/>
   <stop offset="0.701961" style="stop-opacity:1; stop-color:#999999"/>
   <stop offset="1" style="stop-opacity:1; stop-color:#555555"/>
  </linearGradient>
  <linearGradient id="id2" gradientUnits="userSpaceOnUse" xlink:href="#id1" x1="1040.399" y1="1195.873" x2="1403.876" y2="1415.077">
  </linearGradient>
  <linearGradient id="id3" gradientUnits="userSpaceOnUse" xlink:href="#id1" x1="1049.969" y1="1203.303" x2="1413.447" y2="1422.507">
  </linearGradient>
  <linearGradient id="id4" gradientUnits="userSpaceOnUse" xlink:href="#id1" x1="782.744" y1="1192.495" x2="1146.222" y2="1411.699">
  </linearGradient>
  <linearGradient id="id5" gradientUnits="userSpaceOnUse" xlink:href="#id1" x1="877.664" y1="1042.788" x2="1305.861" y2="1631.757">
  </linearGradient>
  <linearGradient id="id6" gradientUnits="userSpaceOnUse" xlink:href="#id1" x1="771.175" y1="1201.145" x2="1134.652" y2="1420.349">
  </linearGradient>
  <linearGradient id="id7" gradientUnits="userSpaceOnUse" xlink:href="#id1" x1="1065.979" y1="1214.819" x2="1429.456" y2="1434.023">
  </linearGradient>
  <linearGradient id="id8" gradientUnits="userSpaceOnUse" xlink:href="#id1" x1="780.108" y1="1194.229" x2="1143.586" y2="1413.433">
  </linearGradient>
  <linearGradient id="id9" gradientUnits="userSpaceOnUse" xlink:href="#id1" x1="1033.128" y1="1190.567" x2="1396.606" y2="1409.771">
  </linearGradient>
  <linearGradient id="id10" gradientUnits="userSpaceOnUse" xlink:href="#id1" x1="1052.729" y1="1205.321" x2="1416.207" y2="1424.524">
  </linearGradient>
  <linearGradient id="id11" gradientUnits="userSpaceOnUse" xlink:href="#id1" x1="1060.495" y1="1211.052" x2="1423.973" y2="1430.256">
  </linearGradient>
  <linearGradient id="id12" gradientUnits="userSpaceOnUse" xlink:href="#id1" x1="1035.693" y1="1192.495" x2="1399.172" y2="1411.699">
  </linearGradient>
  <linearGradient id="id13" gradientUnits="userSpaceOnUse" xlink:href="#id1" x1="785.309" y1="1190.567" x2="1148.787" y2="1409.771">
  </linearGradient>
  <linearGradient id="id14" gradientUnits="userSpaceOnUse" xlink:href="#id1" x1="1044.751" y1="1199.288" x2="1408.228" y2="1418.492">
  </linearGradient>
  <linearGradient id="id15" gradientUnits="userSpaceOnUse" xlink:href="#id1" x1="752.458" y1="1214.819" x2="1115.936" y2="1434.023">
  </linearGradient>
  <linearGradient id="id16" gradientUnits="userSpaceOnUse" xlink:href="#id1" x1="755.183" y1="1213.068" x2="1118.662" y2="1432.272">
  </linearGradient>
  <linearGradient id="id17" gradientUnits="userSpaceOnUse" xlink:href="#id1" x1="768.451" y1="1203.303" x2="1131.929" y2="1422.507">
  </linearGradient>
  <linearGradient id="id18" gradientUnits="userSpaceOnUse" xlink:href="#id1" x1="757.942" y1="1211.052" x2="1121.42" y2="1430.256">
  </linearGradient>
  <linearGradient id="id19" gradientUnits="userSpaceOnUse" xlink:href="#id1" x1="778.038" y1="1195.873" x2="1141.516" y2="1415.077">
  </linearGradient>
  <linearGradient id="id20" gradientUnits="userSpaceOnUse" xlink:href="#id1" x1="1038.329" y1="1194.229" x2="1401.807" y2="1413.433">
  </linearGradient>
  <linearGradient id="id21" gradientUnits="userSpaceOnUse" xlink:href="#id1" x1="1063.254" y1="1213.068" x2="1426.733" y2="1432.272">
  </linearGradient>
  <linearGradient id="id22" gradientUnits="userSpaceOnUse" xlink:href="#id1" x1="1055.472" y1="1207.071" x2="1418.949" y2="1426.275">
  </linearGradient>
  <linearGradient id="id23" gradientUnits="userSpaceOnUse" xlink:href="#id1" x1="762.966" y1="1207.071" x2="1126.443" y2="1426.275">
  </linearGradient>
  <linearGradient id="id24" gradientUnits="userSpaceOnUse" xlink:href="#id1" x1="773.687" y1="1199.288" x2="1137.164" y2="1418.492">
  </linearGradient>
  <linearGradient id="id25" gradientUnits="userSpaceOnUse" xlink:href="#id1" x1="1047.262" y1="1201.145" x2="1410.74" y2="1420.349">
  </linearGradient>
  <linearGradient id="id26" gradientUnits="userSpaceOnUse" xlink:href="#id1" x1="1057.77" y1="1208.876" x2="1421.248" y2="1428.08">
  </linearGradient>
  <linearGradient id="id27" gradientUnits="userSpaceOnUse" xlink:href="#id1" x1="760.667" y1="1208.876" x2="1124.145" y2="1428.08">
  </linearGradient>
  <linearGradient id="id28" gradientUnits="userSpaceOnUse" xlink:href="#id1" x1="765.709" y1="1205.321" x2="1129.187" y2="1424.524">
  </linearGradient>
  <linearGradient id="id29" gradientUnits="userSpaceOnUse" xlink:href="#id1" x1="775.827" y1="1197.801" x2="1139.305" y2="1417.006">
  </linearGradient>
  <linearGradient id="id30" gradientUnits="userSpaceOnUse" xlink:href="#id1" x1="1042.61" y1="1197.801" x2="1406.088" y2="1417.006">
  </linearGradient>
 </defs>
 <g id="Camada_x0020_1">
  <metadata id="CorelCorpID_0Corel-Layer"/>
  <g id="gemini-svg_x0020__x0028_6_x0029_.svg">
   <g filter="url(#drop-shadow)">
    <polygon class="fil0 str0" points="1091.957,824.068 1183.98,984.888 1344.093,891.627 1343.385,1076.911 1528.652,1076.204 1435.409,1236.299 1596.211,1328.322 1435.409,1420.345 1528.652,1580.458 1343.385,1579.75 1344.093,1765.017 1183.98,1671.774 1091.957,1832.576 999.934,1671.774 839.839,1765.017 840.546,1579.75 655.262,1580.458 748.523,1420.345 587.703,1328.322 748.523,1236.299 655.262,1076.204 840.546,1076.911 839.839,891.627 999.934,984.888 "/>
    <path class="fil1 str1" d="M1091.957 840.343l5.059 8.828 -2.264 215.093 -2.778 264.059 -2.777 -264.059 -2.265 -215.093 5.06 -8.828 0 0 -0.035 0zm11.41 19.936l-4.971 204.055 -6.439 264.005 11.994 -263.793 8.562 -188.258 -9.146 -15.991 0 0 0 -0.018zm14.824 25.899l-10.596 178.527 -15.638 263.617 21.193 -263.227 13.249 -164.571 -8.208 -14.346 0 0zm13.338 23.298l-14.736 155.937 -24.837 262.909 30.374 -262.325 16.611 -143.555 -7.43 -12.966 0.001 0 0.017 0zm12.065 21.086l-17.637 135.876 -34 261.883 39.501 -261.104 18.894 -124.838 -6.758 -11.817 0 0zm11.003 19.229l-19.529 117.993 -43.111 260.538 48.594 -259.565 20.238 -108.14 -6.192 -10.826 0 0zm10.102 17.655l-20.557 102 -52.185 258.876 57.617 -257.708 20.838 -93.173 -5.713 -9.995 0 0zm9.322 16.292l-20.892 87.69 -61.189 256.894 66.585 -255.55 20.786 -79.782 -5.308 -9.269 0 0 0.018 0.017zm9.942 10.508l-21.883 79.481 -70.105 254.594 75.465 -253.055 25.757 -86.38 -9.217 5.377 0 0.001 -0.017 -0.018zm15.496 -9.022l-28.552 91.104 -78.951 251.994 84.24 -250.279 33.204 -98.621 -9.942 5.784 0.001 0 0 0.018zm16.735 -9.747l-36.53 103.752 -87.706 249.093 92.926 -247.182 42.084 -111.943 -10.791 6.281 -0.001 -0.001 0.018 0zm18.168 -10.579l-46.065 117.551 -96.34 245.873 101.505 -243.786 52.663 -126.501 -11.764 6.845 0.001 0.001 0 0.017zm19.848 -11.569l-57.387 132.622 -104.866 242.371 109.944 -240.089 65.205 -142.422 -12.914 7.518 0 0 0.018 0zm21.812 -12.701l-70.796 149.144 -113.251 238.55 118.258 -236.108 80.083 -159.9 -14.276 8.314 -0.001 0 -0.017 0zm24.164 -14.082l-86.716 167.312 -121.513 234.464 126.431 -231.845 97.719 -179.2 -15.921 9.269 0 0zm26.977 -15.709l-105.573 187.409 -129.615 230.076 134.444 -227.282 109.519 -185.161 0.036 -10.154 -8.793 5.112 0 0 -0.018 0zm8.704 17.85l-106.335 174.229 -137.575 225.406 142.299 -222.452 101.54 -158.768 0.071 -18.416 0 0.001zm-0.124 29.843l-98.445 149.303 -145.359 220.471 149.958 -217.358 93.757 -135.894 0.071 -16.523 0.001 0.001 0.017 0zm-0.088 26.835l-90.733 127.687 -152.965 215.269 157.459 -211.997 86.168 -116.011 0.053 -14.948 0 0 0.018 0zm-0.107 24.307l-83.213 108.864 -160.378 209.804 164.765 -206.372 78.774 -98.675 0.052 -13.621 0 0zm-0.071 22.148l-75.908 92.43 -167.613 204.072 171.859 -200.499 71.592 -83.532 0.052 -12.489 0.001 0 0.017 0.018zm-0.088 20.343l-68.814 78.066 -174.618 198.093 178.757 -194.378 64.64 -70.282 0.035 -11.516 0 -0.001 0 0.018zm-0.071 18.769l-61.933 65.506 -181.429 191.884 185.427 -188.009 57.882 -58.696 0.035 -10.667 0.001 0 0.017 -0.018zm3.344 14.064l-58.696 57.882 -188.009 185.427 191.884 -181.429 65.506 -61.933 -10.667 0.035 -0.001 0 -0.017 0.018zm17.938 -0.071l-70.265 64.622 -194.378 178.757 198.093 -174.618 78.066 -68.814 -11.516 0.035 0 0 0 0.018zm19.37 -0.071l-83.514 71.592 -200.499 171.876 204.072 -167.595 92.43 -75.908 -12.489 0.053 0 0 0 -0.018zm21.033 -0.071l-98.675 78.774 -206.372 164.765 209.786 -160.378 108.865 -83.213 -13.622 0.052 0.001 0 0.017 0zm22.962 -0.088l-116.011 86.169 -211.998 157.459 215.27 -152.966 127.686 -90.732 -14.948 0.053 0.001 -0.001 0 0.018zm25.244 -0.106l-135.895 93.757 -217.358 149.976 220.471 -145.359 149.303 -98.445 -16.522 0.071 0.001 0zm27.968 -0.106l-158.75 101.54 -222.47 142.299 225.406 -137.575 174.229 -106.335 -18.433 0.071 0 0 0.018 0zm31.223 -0.106l-185.144 109.519 -227.299 134.444 230.076 -129.615 187.426 -105.591 5.112 -8.792 -10.172 0.035 0.001 0zm-1.398 19.795l-179.2 97.719 -231.845 126.431 234.464 -121.513 167.312 -86.716 9.269 -15.921 0 0zm-15.018 25.809l-159.901 80.083 -236.126 118.258 238.55 -113.251 149.144 -70.814 8.314 -14.276 0 0 0.019 0zm-13.498 23.175l-142.422 65.223 -240.107 109.944 242.371 -104.867 132.64 -57.386 7.519 -12.914 -0.001 0zm-12.242 20.998l-126.501 52.663 -243.786 101.505 245.873 -96.34 117.568 -46.065 6.846 -11.764 0 0.001zm-11.144 19.158l-111.961 42.084 -247.182 92.926 249.093 -87.689 103.77 -36.53 6.28 -10.791 0 0zm-10.243 17.566l-98.621 33.204 -250.279 84.24 251.994 -78.951 91.122 -28.552 5.784 -9.942 0 0.001zm-9.446 16.221l-86.381 25.757 -253.073 75.465 254.594 -70.105 79.482 -21.883 5.377 -9.216 0.001 0.001 0 -0.019zm-4.14 13.852l-79.764 20.786 -255.55 66.585 256.894 -61.172 87.69 -20.892 -9.27 -5.307 0 0zm15.567 8.916l-93.173 20.838 -257.708 57.617 258.876 -52.185 102 -20.557 -9.995 -5.713 0 0zm16.824 9.623l-108.121 20.238 -259.566 48.594 260.538 -43.111 117.993 -19.529 -10.827 -6.192 0 0 -0.017 0zm18.238 10.437l-124.838 18.894 -261.105 39.501 261.883 -34 135.877 -17.637 -11.817 -6.758 0 0zm19.937 11.411l-143.555 16.61 -262.325 30.374 262.909 -24.837 155.937 -14.736 -12.966 -7.43 0 0 0 0.019zm21.918 12.542l-164.571 13.249 -263.227 21.193 263.617 -15.638 178.527 -10.596 -14.346 -8.209 0 0.001zm24.271 13.886l-188.258 8.562 -263.811 11.994 263.988 -6.439 204.055 -4.971 -15.992 -9.146 -0.001 0 0.019 0zm27.082 15.497l-215.093 2.264 -264.059 2.778 264.059 2.777 215.111 2.265 8.827 -5.042 -8.827 -5.06 0.001 0 -0.019 0.018zm-11.091 16.469l-204.054 -4.971 -264.006 -6.439 263.794 11.994 188.257 8.562 15.992 -9.146 0 0 0.017 0zm-25.916 14.824l-178.527 -10.596 -263.617 -15.638 263.227 21.193 164.571 13.249 14.346 -8.208 0 0zm-23.28 13.338l-155.956 -14.736 -262.909 -24.837 262.326 30.374 143.554 16.611 12.967 -7.43 0 0.001 0.018 0.017zm-21.104 12.065l-135.876 -17.637 -261.883 -34 261.104 39.501 124.838 18.894 11.817 -6.758 0 0zm-19.229 11.003l-117.993 -19.529 -260.538 -43.111 259.565 48.594 108.14 20.238 10.826 -6.192 0 0zm-17.655 10.102l-102.018 -20.557 -258.875 -52.185 257.708 57.617 93.173 20.838 9.995 -5.713 0 0 0.017 0zm-16.292 9.322l-87.69 -20.892 -256.894 -61.189 255.55 66.585 79.782 20.786 9.269 -5.308 0 0 -0.017 0.018zm-10.508 9.924l-79.481 -21.883 -254.594 -70.105 253.055 75.465 86.38 25.757 -5.377 -9.217 -0.001 0.001 0.018 -0.018zm9.04 15.514l-91.104 -28.552 -251.994 -78.951 250.279 84.24 98.621 33.204 -5.802 -9.942 0 0.001zm9.746 16.735l-103.769 -36.53 -249.094 -87.706 247.183 92.926 111.96 42.084 -6.28 -10.791 0 -0.001 0 0.018zm10.579 18.168l-117.55 -46.065 -245.874 -96.34 243.786 101.505 126.502 52.663 -6.846 -11.764 0 0.001 -0.018 0zm11.552 19.83l-132.622 -57.387 -242.371 -104.866 240.107 109.944 142.422 65.223 -7.519 -12.914 0 0 -0.017 0zm12.701 21.83l-149.144 -70.814 -238.55 -113.251 236.108 118.258 159.9 80.083 -8.314 -14.294 0 0 0 0.018zm14.082 24.164l-167.312 -86.716 -234.464 -121.513 231.845 126.431 179.2 97.719 -9.269 -15.921 0 0zm15.709 26.977l-187.409 -105.591 -230.076 -129.615 227.299 134.444 185.144 109.519 10.172 -0.035 -5.112 -8.792 -0.001 0 -0.017 0.07zm-17.832 8.704l-174.229 -106.335 -225.406 -137.575 222.452 142.299 158.75 101.54 18.434 0.071 -0.001 0zm-29.861 -0.124l-149.321 -98.445 -220.471 -145.359 217.358 149.976 135.894 93.757 16.541 0.071 -0.001 0zm-26.835 -0.088l-127.687 -90.733 -215.269 -152.965 211.997 157.459 116.011 86.168 14.948 0.053 0 0 0 0.018zm-24.289 -0.107l-108.865 -83.213 -209.804 -160.378 206.372 164.765 98.675 78.774 13.622 0.052 0 0zm-22.166 -0.071l-92.43 -75.908 -204.072 -167.595 200.499 171.859 83.532 71.592 12.489 0.052 0 0 -0.018 0zm-20.343 -0.088l-78.066 -68.814 -198.093 -174.618 194.378 178.757 70.282 64.64 11.516 0.035 0 0 -0.017 0zm-18.769 -0.071l-65.506 -61.933 -191.884 -181.429 188.009 185.427 58.696 57.882 10.667 0.035 0 0.001 0.018 0.017zm-14.064 3.344l-57.882 -58.696 -185.427 -188.009 181.429 191.884 61.933 65.506 -0.035 -10.667 0 -0.001 -0.018 -0.017zm0.071 17.938l-64.64 -70.283 -178.757 -194.377 174.618 198.092 68.814 78.066 -0.035 -11.516 0 0 0 0.018zm0.071 19.37l-71.592 -83.514 -171.876 -200.499 167.595 204.072 75.908 92.43 -0.053 -12.489 0 0 0.018 0zm0.088 21.033l-78.774 -98.675 -164.765 -206.372 160.378 209.804 83.214 108.865 -0.053 -13.622 0 0zm0.089 22.962l-86.169 -116.011 -157.459 -211.998 152.966 215.27 90.732 127.686 -0.053 -14.948 0 0.001 -0.017 0zm0.088 25.244l-93.757 -135.895 -149.976 -217.358 145.359 220.471 98.445 149.321 -0.071 -16.54 0 0.001zm0.106 27.968l-101.54 -158.75 -142.299 -222.47 137.575 225.406 106.335 174.229 -0.071 -18.433 0 0 0 0.018zm0.124 31.223l-109.519 -185.144 -134.444 -227.299 129.615 230.076 105.591 187.409 8.793 5.112 -0.036 -10.172 0 0 0 0.018zm-19.813 -1.398l-97.719 -179.2 -126.431 -231.845 121.513 234.464 86.716 167.312 15.921 9.269 0 0zm-25.792 -15.018l-80.083 -159.901 -118.258 -236.108 113.252 238.55 70.813 149.145 14.293 8.314 0.001 0 -0.018 0zm-23.192 -13.516l-65.223 -142.422 -109.944 -240.106 104.867 242.371 57.386 132.622 12.914 7.518 0 -0.001 0 0.018zm-20.998 -12.224l-52.663 -126.501 -101.505 -243.786 96.34 245.873 46.065 117.568 11.764 6.846 -0.001 0zm-19.14 -11.144l-42.085 -111.943 -92.926 -247.182 87.69 249.093 36.529 103.77 10.792 6.28 0 0 0 -0.018zm-17.584 -10.243l-33.204 -98.621 -84.24 -250.279 78.951 251.994 28.552 91.104 9.942 5.802 -0.001 0zm-16.221 -9.446l-25.757 -86.381 -75.465 -253.073 70.105 254.594 21.883 79.482 9.234 5.377 0 0.001zm-13.852 -4.14l-20.786 -79.781 -66.585 -255.55 61.172 256.894 20.892 87.689 5.307 -9.269 0 -0.001 0 0.018zm-8.916 15.567l-20.838 -93.173 -57.617 -257.708 52.185 258.876 20.557 102.018 5.713 -9.995 0 0 0 -0.018zm-9.605 16.824l-20.238 -108.121 -48.594 -259.566 43.111 260.538 19.529 117.993 6.21 -10.844 -0.001 0 -0.017 0zm-10.455 18.238l-18.894 -124.838 -39.501 -261.105 34 261.883 17.637 135.895 6.758 -11.817 0 0 0 -0.018zm-11.411 19.937l-16.628 -143.555 -30.374 -262.325 24.837 262.909 14.736 155.956 7.43 -12.985 -0.001 0zm-12.524 21.918l-13.249 -164.571 -21.193 -263.227 15.638 263.617 10.597 178.527 8.208 -14.346 -0.001 0zm-13.904 24.271l-8.562 -188.258 -11.994 -263.811 6.439 263.988 4.971 204.055 9.146 -15.992 0 -0.001 0 0.019zm-15.497 27.082l-2.264 -215.093 -2.778 -264.059 -2.777 264.059 -2.265 215.093 5.06 8.828 5.059 -8.828 0.001 0 -0.036 0zm-16.469 -11.091l4.971 -204.054 6.439 -264.006 -11.994 263.794 -8.562 188.257 9.146 15.992 0 0 0 0.017zm-14.824 -25.916l10.596 -178.527 15.638 -263.617 -21.193 263.227 -13.249 164.571 8.208 14.346 0 0zm-13.321 -23.298l14.736 -155.937 24.837 -262.909 -30.374 262.325 -16.61 143.555 7.43 12.984 -0.001 0 -0.018 -0.018zm-12.082 -21.086l17.637 -135.876 34 -261.883 -39.501 261.104 -18.894 124.838 6.758 11.817 0 0zm-11.003 -19.229l19.529 -117.993 43.111 -260.538 -48.594 259.565 -20.238 108.122 6.21 10.844 -0.001 0 -0.017 0zm-10.102 -17.655l20.557 -102 52.185 -258.876 -57.617 257.708 -20.838 93.173 5.713 9.995 0 0zm-9.322 -16.292l20.892 -87.69 61.172 -256.894 -66.585 255.55 -20.786 79.764 5.307 9.27 0 0zm-9.924 -10.508l21.883 -79.481 70.105 -254.594 -75.465 253.055 -25.757 86.38 9.234 -5.377 0 -0.001 0 0.018zm-15.514 9.04l28.552 -91.104 78.951 -251.994 -84.24 250.279 -33.204 98.621 9.959 -5.802 -0.001 0 -0.017 0zm-16.735 9.746l36.53 -103.769 87.689 -249.094 -92.926 247.183 -42.084 111.96 10.791 -6.28 0 0zm-18.168 10.579l46.065 -117.55 96.34 -245.874 -101.505 243.786 -52.663 126.502 11.764 -6.864 -0.001 0zm-19.83 11.552l57.387 -132.622 104.866 -242.371 -109.944 240.107 -65.223 142.422 12.932 -7.519 0 0 -0.018 -0.017zm-21.83 12.701l70.814 -149.144 113.251 -238.55 -118.258 236.108 -80.083 159.918 14.294 -8.314 0 0 -0.018 -0.018zm-24.164 14.082l86.716 -167.312 121.513 -234.464 -126.431 231.845 -97.719 179.2 15.921 -9.269 0 0zm-26.977 15.709l105.591 -187.409 129.615 -230.076 -134.444 227.299 -109.519 185.144 -0.036 10.172 8.793 -5.112 0 -0.001 0 -0.017zm-8.704 -17.832l106.334 -174.229 137.575 -225.406 -142.298 222.452 -101.541 158.75 -0.071 18.434 0.001 -0.001zm0.124 -29.861l98.445 -149.303 145.359 -220.471 -149.976 217.358 -93.757 135.894 -0.071 16.541 0 -0.002 0 -0.017zm0.106 -26.835l90.732 -127.687 152.965 -215.269 -157.459 211.997 -86.168 116.011 -0.053 14.948 0.001 0 -0.018 0zm0.089 -24.307l83.213 -108.864 160.378 -209.804 -164.765 206.372 -78.774 98.675 -0.052 13.621 0 0zm0.088 -22.148l75.908 -92.43 167.595 -204.072 -171.859 200.499 -71.591 83.514 -0.053 12.49 0 -0.001zm0.071 -20.343l68.814 -78.066 174.618 -198.093 -178.757 194.378 -64.622 70.265 -0.035 11.516 -0.001 0 -0.017 0zm0.071 -18.769l61.933 -65.506 181.429 -191.884 -185.427 188.009 -57.882 58.696 -0.035 10.685 -0.001 0 -0.017 0zm-3.344 -14.064l58.696 -57.882 188.009 -185.427 -191.884 181.429 -65.506 61.933 10.685 -0.035 0 0 0 -0.018zm-17.938 0.071l70.283 -64.64 194.377 -178.757 -198.092 174.618 -78.066 68.814 11.516 -0.035 0 0 -0.018 0zm-19.37 0.071l83.514 -71.592 200.499 -171.876 -204.072 167.595 -92.43 75.908 12.489 -0.053 0 0 0 0.018zm-21.016 0.071l98.675 -78.774 206.372 -164.765 -209.804 160.378 -108.864 83.213 13.621 -0.052 0 0zm-22.979 0.088l116.011 -86.169 211.998 -157.459 -215.27 152.966 -127.686 90.732 14.948 -0.053 -0.001 0.001 0 -0.018zm-25.244 0.106l135.895 -93.757 217.358 -149.976 -220.471 145.359 -149.321 98.445 16.54 -0.071 -0.001 0zm-27.968 0.106l158.75 -101.54 222.453 -142.299 -225.406 137.575 -174.247 106.335 18.433 -0.071 -0.001 0 0.018 0zm-31.223 0.124l185.144 -109.519 227.299 -134.444 -230.076 129.615 -187.409 105.573 -5.13 8.792 10.172 -0.035 0 0 0 0.018zm1.398 -19.813l179.2 -97.719 231.845 -126.431 -234.464 121.513 -167.312 86.716 -9.269 15.921 0 0zm15.037 -25.809l159.9 -80.083 236.108 -118.258 -238.55 113.251 -149.144 70.796 -8.333 14.293 0 0.001 0.019 0zm13.497 -23.175l142.422 -65.223 240.106 -109.944 -242.371 104.867 -132.622 57.386 -7.518 12.932 0.001 0 -0.018 -0.018zm12.224 -20.998l126.501 -52.663 243.786 -101.505 -245.873 96.34 -117.551 46.065 -6.863 11.764 0 -0.001zm11.162 -19.14l111.942 -42.085 247.182 -92.926 -249.093 87.69 -103.77 36.529 -6.28 10.792 0.001 0 0.018 0zm10.225 -17.584l98.621 -33.204 250.279 -84.24 -251.994 78.951 -91.104 28.552 -5.802 9.959 0 -0.001 0 -0.017zm9.446 -16.221l86.381 -25.757 253.055 -75.465 -254.595 70.105 -79.481 21.883 -5.377 9.234 0 0 0.017 0zm4.14 -13.852l79.781 -20.786 255.55 -66.585 -256.894 61.172 -87.689 20.892 9.269 5.307 0.001 0 -0.018 0zm-15.567 -8.916l93.173 -20.838 257.708 -57.617 -258.876 52.185 -102.018 20.557 9.995 5.713 0 0 0.018 0zm-16.806 -9.605l108.122 -20.238 259.565 -48.594 -260.538 43.111 -118.011 19.529 10.844 6.21 0 -0.001 0.018 -0.017zm-18.256 -10.455l124.838 -18.894 261.105 -39.501 -261.883 34 -135.895 17.637 11.817 6.758 0 0 0.018 0zm-19.937 -11.411l143.555 -16.628 262.325 -30.374 -262.909 24.837 -155.956 14.736 12.985 7.43 0 -0.001zm-21.9 -12.542l164.571 -13.249 263.227 -21.193 -263.616 15.638 -178.528 10.596 14.346 8.209 0 -0.001zm-24.27 -13.886l188.257 -8.562 263.811 -11.994 -263.988 6.439 -204.055 4.971 15.992 9.163 0 0 -0.017 -0.017zm-27.101 -15.497l215.093 -2.264 264.059 -2.778 -264.059 -2.777 -215.093 -2.265 -8.828 5.06 8.828 5.059 0 0.001 0 -0.036zm11.108 -16.469l204.055 4.971 263.988 6.439 -263.794 -11.994 -188.257 -8.562 -15.992 9.163 0 0.001 0 -0.018zm25.917 -14.824l178.528 10.596 263.616 15.638 -263.227 -21.193 -164.553 -13.249 -14.346 8.208 -0.001 0 -0.017 0zm23.28 -13.321l155.937 14.736 262.909 24.837 -262.325 -30.374 -143.555 -16.61 -12.984 7.43 0 -0.001 0.018 -0.018zm21.086 -12.082l135.876 17.637 261.883 34 -261.104 -39.501 -124.838 -18.894 -11.817 6.758 0 0zm19.229 -11.003l117.993 19.529 260.538 43.111 -259.565 -48.594 -108.122 -20.238 -10.844 6.21 0 -0.001 0 -0.017zm17.655 -10.102l102 20.557 258.876 52.185 -257.708 -57.617 -93.173 -20.838 -9.995 5.713 0 0zm16.292 -9.322l87.69 20.892 256.894 61.172 -255.55 -66.585 -79.764 -20.786 -9.27 5.307 0 0zm10.508 -9.924l79.481 21.883 254.594 70.105 -253.055 -75.465 -86.38 -25.757 5.377 9.234 0.001 0 -0.018 0zm-9.022 -15.514l91.104 28.552 251.994 78.951 -250.279 -84.24 -98.621 -33.204 5.802 9.959 0 -0.001 0 -0.017zm-9.747 -16.735l103.77 36.53 249.093 87.689 -247.182 -92.926 -111.961 -42.084 6.281 10.791 -0.001 0zm-10.579 -18.168l117.551 46.065 245.873 96.34 -243.786 -101.505 -126.501 -52.663 6.863 11.764 0 -0.001zm-11.569 -19.83l132.622 57.387 242.371 104.866 -240.107 -109.944 -142.422 -65.223 7.536 12.932 0 0 0 -0.018zm-12.701 -21.83l149.144 70.796 238.55 113.251 -236.108 -118.258 -159.9 -80.083 8.332 14.294 0 0 -0.018 0zm-14.082 -24.164l167.312 86.716 234.464 121.513 -231.845 -126.431 -179.2 -97.719 9.269 15.921 0 0zm-15.709 -26.977l187.409 105.573 230.076 129.615 -227.282 -134.444 -185.143 -109.519 -10.172 -0.036 5.112 8.793 0 0 0 0.018zm17.85 -8.704l174.229 106.334 225.406 137.575 -222.452 -142.298 -158.75 -101.541 -18.434 -0.071 0.001 0.001zm29.86 0.124l149.304 98.445 220.47 145.359 -217.357 -149.976 -135.895 -93.757 -16.54 -0.071 0.001 0 0.017 0zm26.818 0.106l127.687 90.732 215.269 152.965 -211.997 -157.459 -116.011 -86.168 -14.948 -0.053 0 0.001 0 -0.018zm24.307 0.089l108.864 83.213 209.804 160.378 -206.372 -164.765 -98.657 -78.774 -13.621 -0.052 -0.001 0 -0.017 0zm22.148 0.088l92.43 75.908 204.072 167.595 -200.499 -171.859 -83.514 -71.591 -12.49 -0.053 0.001 0zm20.343 0.071l78.066 68.814 198.093 174.618 -194.378 -178.757 -70.265 -64.622 -11.516 -0.035 0 -0.001 0 -0.017zm18.769 0.071l65.506 61.933 191.884 181.429 -188.009 -185.427 -58.696 -57.882 -10.685 -0.035 0 -0.001 0 -0.017zm14.064 -3.344l57.882 58.696 185.427 188.009 -181.429 -191.884 -61.933 -65.506 0.035 10.685 0 0 0.018 0zm-0.053 -17.938l64.621 70.265 178.757 194.378 -174.618 -198.093 -68.814 -78.066 0.036 11.516 0 0 0.018 0zm-0.089 -19.37l71.592 83.514 171.859 200.499 -167.595 -204.072 -75.908 -92.43 0.052 12.489 0 0zm-0.071 -21.016l78.774 98.675 164.765 206.372 -160.378 -209.804 -83.213 -108.864 0.052 13.621 0 0zm-0.088 -22.962l86.169 116.012 157.459 211.997 -152.966 -215.269 -90.732 -127.687 0.053 14.966 -0.001 -0.001 0.018 -0.018zm-0.106 -25.261l93.757 135.895 149.976 217.358 -145.359 -220.471 -98.445 -149.321 0.071 16.54 0 -0.001zm-0.106 -27.95l101.54 158.75 142.299 222.452 -137.575 -225.406 -106.335 -174.229 0.071 18.433 0 0zm-0.106 -31.223l109.519 185.143 134.444 227.299 -129.615 -230.076 -105.573 -187.408 -8.792 -5.112 0.035 10.172 -0.001 0 -0.017 -0.018zm19.795 1.38l97.719 179.2 126.431 231.845 -121.513 -234.464 -86.716 -167.312 -15.939 -9.269 0 0 0.018 0zm25.809 15.018l80.083 159.901 118.258 236.108 -113.251 -238.55 -70.796 -149.145 -14.293 -8.332 -0.001 0.001 0 0.017zm23.175 13.516l65.223 142.422 109.944 240.106 -104.867 -242.371 -57.386 -132.622 -12.932 -7.535 0 0 0.018 0zm20.998 12.224l52.663 126.501 101.505 243.786 -96.34 -245.873 -46.065 -117.551 -11.764 -6.863 0.001 0zm19.158 11.144l42.084 111.961 92.926 247.182 -87.689 -249.093 -36.53 -103.77 -10.791 -6.28 0 0zm17.566 10.243l33.204 98.621 84.24 250.279 -78.951 -251.994 -28.552 -91.104 -9.959 -5.802 0.001 0 0.017 0zm16.221 9.446l25.757 86.381 75.465 253.055 -70.105 -254.595 -21.883 -79.481 -9.234 -5.377 0 0 0 0.017zm13.852 4.14l20.786 79.764 66.585 255.55 -61.172 -256.894 -20.892 -87.69 -5.307 9.27 0 0zm8.916 -15.567l20.838 93.173 57.617 257.708 -52.185 -258.876 -20.557 -102.018 -5.713 9.995 0 0 0 0.018zm9.623 -16.806l20.238 108.122 48.594 259.565 -43.111 -260.538 -19.529 -117.993 -6.21 10.844 0 0 0.018 0zm10.437 -18.256l18.894 124.838 39.501 261.105 -34 -261.883 -17.637 -135.877 -6.776 11.817 0.001 0 0.017 0zm11.411 -19.919l16.61 143.554 30.374 262.325 -24.837 -262.909 -14.736 -155.955 -7.43 12.984 0 0.001 0.019 0zm12.542 -21.918l13.249 164.553 21.193 263.227 -15.638 -263.617 -10.596 -178.527 -8.209 14.364 0.001 0zm13.886 -24.27l8.562 188.257 11.994 263.794 -6.439 -263.989 -4.971 -204.054 -9.163 16.01 0.017 -0.018z"/>
    <path class="fil2 str2" d="M1133.547 1531.616l0 0c0,16.965 -19.07,30.727 -42.598,30.727 -23.528,0 -42.598,-13.763 -42.598,-30.727l0 0c0,0 -266.164,10.702 -266.164,10.702l69.08 -430.115 479.381 0 70.69 433.689 -267.791 -14.276 0 0z"/>
    <g>
     <path class="fil3 str3" d="M868.532 1118.943c18.804,4.369 36.866,11.799 56.396,13.108 27.702,1.858 57.669,-12.029 83.302,-3.714l49.886 16.221 0 373.101 -247.837 12.241 58.253 -410.957z"/>
     <path class="fil4 str3" d="M871.256 1117.192c18.805,4.369 36.866,11.799 56.396,13.108 27.703,1.858 57.669,-12.029 83.302,-3.714l49.886 16.221 0 373.1 -247.837 12.242 58.253 -410.957z"/>
     <path class="fil5 str3" d="M874.016 1115.175c18.804,4.37 36.866,11.8 56.395,13.109 27.703,1.857 57.67,-12.03 83.303,-3.715l49.886 16.222 0 373.1 -247.837 12.241 58.253 -410.957z"/>
     <path class="fil6 str3" d="M876.74 1112.999c18.805,4.369 36.866,11.799 56.396,13.109 27.703,1.857 57.669,-12.03 83.302,-3.715l49.886 16.221 0 373.101 -247.837 12.241 58.253 -410.957z"/>
     <path class="fil7 str3" d="M879.04 1111.194c18.804,4.37 36.866,11.8 56.395,13.109 27.703,1.857 57.67,-12.029 83.302,-3.715l49.887 16.222 0 373.1 -247.837 12.242 58.253 -410.958z"/>
     <path class="fil8 str3" d="M881.782 1109.443c18.805,4.37 36.866,11.8 56.396,13.109 27.703,1.857 57.669,-12.029 83.302,-3.715l49.886 16.222 0 373.1 -247.837 12.241 58.253 -410.957z"/>
     <path class="fil9 str3" d="M884.524 1107.427c18.805,4.369 36.866,11.799 56.396,13.108 27.703,1.858 57.669,-12.029 83.302,-3.714l49.886 16.221 0 373.101 -247.837 12.241 58.253 -410.957z"/>
     <path class="fil10 str3" d="M887.248 1105.269c18.804,4.369 36.866,11.799 56.396,13.108 27.702,1.858 57.669,-12.029 83.302,-3.714l49.886 16.221 0 373.1 -247.837 12.242 58.253 -410.957z"/>
     <path class="fil11 str3" d="M889.76 1103.411c18.804,4.37 36.866,11.8 56.396,13.109 27.702,1.857 57.669,-12.03 83.302,-3.715l49.886 16.222 0 373.1 -247.837 12.241 58.253 -410.957z"/>
     <path class="fil12 str3" d="M891.901 1101.925c18.804,4.369 36.866,11.799 56.395,13.109 27.703,1.857 57.67,-12.03 83.303,-3.715l49.886 16.221 0 373.101 -247.837 12.241 58.253 -410.957z"/>
     <path class="fil13 str3" d="M894.112 1099.997c18.804,4.369 36.866,11.799 56.396,13.108 27.702,1.858 57.669,-12.029 83.302,-3.714l49.886 16.221 0 373.1 -247.837 12.242 58.253 -410.957z"/>
     <path class="fil14 str3" d="M896.182 1098.352c18.804,4.369 36.866,11.799 56.396,13.109 27.702,1.857 57.669,-12.03 83.302,-3.715l49.886 16.221 0 373.101 -247.837 12.241 58.253 -410.957z"/>
     <path class="fil15 str3" d="M898.817 1096.618c18.805,4.37 36.866,11.8 56.396,13.109 27.703,1.857 57.669,-12.03 83.302,-3.715l49.886 16.222 0 373.1 -247.837 12.241 58.253 -410.957z"/>
     <path class="fil16 str3" d="M901.382 1094.69c18.805,4.369 36.866,11.8 56.396,13.109 27.703,1.857 57.669,-12.03 83.302,-3.715l49.886 16.221 0 373.101 -247.837 12.241 58.253 -410.957z"/>
    </g>
    <g>
     <path class="fil17 str3" d="M1313.383 1118.943c-18.804,4.369 -36.866,11.799 -56.396,13.108 -27.702,1.858 -57.669,-12.029 -83.302,-3.714l-49.886 16.221 0 373.101 247.837 12.241 -58.253 -410.957z"/>
     <path class="fil18 str3" d="M1310.658 1117.192c-18.804,4.369 -36.865,11.799 -56.395,13.108 -27.703,1.858 -57.67,-12.029 -83.302,-3.714l-49.887 16.221 0 373.1 247.837 12.242 -58.253 -410.957z"/>
     <path class="fil19 str3" d="M1307.899 1115.175c-18.804,4.37 -36.866,11.8 -56.396,13.109 -27.702,1.857 -57.669,-12.03 -83.302,-3.715l-49.886 16.222 0 373.1 247.837 12.241 -58.253 -410.957z"/>
     <path class="fil20 str3" d="M1305.175 1112.999c-18.805,4.369 -36.866,11.799 -56.396,13.109 -27.703,1.857 -57.669,-12.03 -83.302,-3.715l-49.886 16.221 0 373.101 247.837 12.241 -58.253 -410.957z"/>
     <path class="fil21 str3" d="M1302.875 1111.194c-18.804,4.37 -36.866,11.8 -56.395,13.109 -27.703,1.857 -57.67,-12.029 -83.303,-3.715l-49.886 16.222 0 373.1 247.837 12.242 -58.253 -410.958z"/>
     <path class="fil22 str3" d="M1300.133 1109.443c-18.804,4.37 -36.866,11.8 -56.395,13.109 -27.703,1.857 -57.67,-12.029 -83.302,-3.715l-49.887 16.222 0 373.1 247.837 12.241 -58.253 -410.957z"/>
     <path class="fil23 str3" d="M1297.373 1107.427c-18.804,4.369 -36.866,11.799 -56.395,13.108 -27.703,1.858 -57.67,-12.029 -83.302,-3.714l-49.887 16.221 0 373.101 247.837 12.241 -58.253 -410.957z"/>
     <path class="fil24 str3" d="M1294.667 1105.269c-18.804,4.369 -36.866,11.799 -56.396,13.108 -27.703,1.858 -57.669,-12.029 -83.302,-3.714l-49.886 16.221 0 373.1 247.837 12.242 -58.253 -410.957z"/>
     <path class="fil25 str3" d="M1292.155 1103.411c-18.804,4.37 -36.866,11.8 -56.396,13.109 -27.702,1.857 -57.669,-12.03 -83.302,-3.715l-49.886 16.222 0 373.1 247.837 12.241 -58.253 -410.957z"/>
     <path class="fil26 str3" d="M1290.014 1101.925c-18.804,4.369 -36.866,11.799 -56.396,13.109 -27.702,1.857 -57.669,-12.03 -83.302,-3.715l-49.886 16.221 0 373.101 247.837 12.241 -58.253 -410.957z"/>
     <path class="fil27 str3" d="M1287.803 1099.997c-18.804,4.369 -36.866,11.799 -56.396,13.108 -27.702,1.858 -57.669,-12.029 -83.302,-3.714l-49.886 16.221 0 373.1 247.837 12.242 -58.253 -410.957z"/>
     <path class="fil28 str3" d="M1285.734 1098.352c-18.805,4.369 -36.866,11.799 -56.396,13.109 -27.703,1.857 -57.669,-12.03 -83.302,-3.715l-49.886 16.221 0 373.101 247.837 12.241 -58.253 -410.957z"/>
     <path class="fil29 str3" d="M1283.097 1096.618c-18.804,4.37 -36.865,11.8 -56.395,13.109 -27.703,1.857 -57.67,-12.03 -83.302,-3.715l-49.887 16.222 0 373.1 247.837 12.241 -58.253 -410.957z"/>
     <path class="fil30 str3" d="M1280.533 1094.69c-18.805,4.369 -36.866,11.8 -56.396,13.109 -27.703,1.857 -57.669,-12.03 -83.302,-3.715l-49.886 16.221 0 373.101 247.837 12.241 -58.253 -410.957z"/>
    </g>
   </g>
  </g>
 </g>
</svg>