<?xml version="1.0" encoding="UTF-8"?>
<svg id="Camada_1" data-name="Camada 1" xmlns="http://www.w3.org/2000/svg" viewBox="0 0 586.2 586.2">
  <defs>
    <style>
      .cls-1 {
        stroke-width: 6px;
      }

      .cls-1, .cls-2, .cls-3, .cls-4 {
        fill-rule: evenodd;
      }

      .cls-1, .cls-2, .cls-4 {
        fill: #00a8e8;
        stroke-miterlimit: 22.93;
      }

      .cls-1, .cls-3, .cls-4 {
        stroke: #172b54;
      }

      .cls-2 {
        stroke: #fff;
        stroke-width: .57px;
      }

      .cls-3 {
        fill: #001e30;
        stroke-miterlimit: 10;
        stroke-width: 8px;
      }

      .cls-4 {
        stroke-width: 2px;
      }
    </style>
  </defs>
  <polygon class="cls-3" points="293.1 8.05 345.12 98.96 435.63 46.24 435.23 150.98 539.96 150.58 487.25 241.08 578.15 293.1 487.25 345.12 539.96 435.63 435.23 435.23 435.63 539.96 345.12 487.25 293.1 578.15 241.08 487.25 150.58 539.96 150.98 435.23 46.24 435.63 98.96 345.12 8.05 293.1 98.96 241.08 46.24 150.58 150.98 150.98 150.58 46.24 241.08 98.96 293.1 8.05"/>
  <path class="cls-2" d="M293.1,17.25l2.86,4.99-1.28,121.59-1.57,149.27-1.57-149.27-1.28-121.59,2.86-4.99h0ZM299.55,28.52l-2.81,115.35-3.64,149.24,6.78-149.12,4.84-106.42-5.17-9.04h0ZM307.93,43.16l-5.99,100.92-8.84,149.02,11.98-148.8,7.49-93.03-4.64-8.11h0ZM315.47,56.33l-8.33,88.15-14.04,148.62,17.17-148.29,9.39-81.15-4.2-7.33h0ZM322.29,68.25l-9.97,76.81-19.22,148.04,22.33-147.6,10.68-70.57-3.82-6.68h0ZM328.51,79.12l-11.04,66.7-24.37,147.28,27.47-146.73,11.44-61.13-3.5-6.12h0ZM334.22,89.1l-11.62,57.66-29.5,146.34,32.57-145.68,11.78-52.67-3.23-5.65h0ZM339.49,98.31l-11.81,49.57-34.59,145.22,37.64-144.46,11.75-45.1-3-5.24h0ZM345.11,104.25l-12.37,44.93-39.63,143.92,42.66-143.05,14.56-48.83-5.21,3.04h0ZM353.87,99.15l-16.14,51.5-44.63,142.45,47.62-141.48,18.77-55.75-5.62,3.27h0ZM363.33,93.64l-20.65,58.65-49.58,140.81,52.53-139.73,23.79-63.28-6.1,3.55h0ZM373.6,87.66l-26.04,66.45-54.46,138.99,57.38-137.81,29.77-71.51-6.65,3.87h0ZM384.82,81.12l-32.44,74.97-59.28,137.01,62.15-135.72,36.86-80.51-7.3,4.25h0ZM397.15,73.94l-40.02,84.31-64.02,134.85,66.85-133.47,45.27-90.39-8.07,4.7h0ZM410.81,65.98l-49.02,94.58-68.69,132.54,71.47-131.06,55.24-101.3-9,5.24h0ZM426.06,57.1l-59.68,105.94-73.27,130.06,76-128.48,61.91-104.67.02-5.74-4.97,2.89h0ZM430.98,67.19l-60.11,98.49-77.77,127.42,80.44-125.75,57.4-89.75.04-10.41h0ZM430.91,84.06l-55.65,84.4-82.17,124.63,84.77-122.87,53-76.82.04-9.34h0ZM430.86,99.23l-51.29,72.18-86.47,121.69,89.01-119.84,48.71-65.58.03-8.45h0ZM430.8,112.97l-47.04,61.54-90.66,118.6,93.14-116.66,44.53-55.78.03-7.7h0ZM430.76,125.49l-42.91,52.25-94.75,115.36,97.15-113.34,40.47-47.22.03-7.06h0ZM430.71,136.99l-38.9,44.13-98.71,111.98,101.05-109.88,36.54-39.73.02-6.51h0ZM430.67,147.6l-35.01,37.03-102.56,108.47,104.82-106.28,32.72-33.18.02-6.03h0ZM432.56,155.55l-33.18,32.72-106.28,104.82,108.47-102.56,37.03-35.01-6.03.02h0ZM442.7,155.51l-39.72,36.53-109.88,101.05,111.98-98.71,44.13-38.9-6.51.02h0ZM453.65,155.47l-47.21,40.47-113.34,97.16,115.36-94.74,52.25-42.91-7.06.03h0ZM465.54,155.43l-55.78,44.53-116.66,93.14,118.59-90.66,61.54-47.04-7.7.03h0ZM478.52,155.38l-65.58,48.71-119.84,89.01,121.69-86.47,72.18-51.29-8.45.03h0ZM492.79,155.32l-76.82,53-122.87,84.78,124.63-82.17,84.4-55.65-9.34.04h0ZM508.6,155.26l-89.74,57.4-125.76,80.44,127.42-77.77,98.49-60.11-10.42.04h0ZM526.25,155.2l-104.66,61.91-128.49,76,130.06-73.27,105.95-59.69,2.89-4.97-5.75.02h0ZM525.46,166.39l-101.3,55.24-131.06,71.47,132.54-68.69,94.58-49.02,5.24-9h0ZM516.97,180.98l-90.39,45.27-133.48,66.85,134.85-64.02,84.31-40.03,4.7-8.07h0ZM509.34,194.08l-80.51,36.87-135.73,62.15,137.01-59.28,74.98-32.44,4.25-7.3h0ZM502.42,205.95l-71.51,29.77-137.81,57.38,138.99-54.46,66.46-26.04,3.87-6.65h0ZM496.12,216.78l-63.29,23.79-139.73,52.53,140.81-49.57,58.66-20.65,3.55-6.1h0ZM490.33,226.71l-55.75,18.77-141.48,47.62,142.45-44.63,51.51-16.14,3.27-5.62h0ZM484.99,235.88l-48.83,14.56-143.06,42.66,143.92-39.63,44.93-12.37,3.04-5.21h0ZM482.65,243.71l-45.09,11.75-144.46,37.64,145.22-34.58,49.57-11.81-5.24-3h0ZM491.45,248.75l-52.67,11.78-145.68,32.57,146.34-29.5,57.66-11.62-5.65-3.23h0ZM500.96,254.19l-61.12,11.44-146.73,27.47,147.28-24.37,66.7-11.04-6.12-3.5h0ZM511.27,260.09l-70.57,10.68-147.6,22.33,148.04-19.22,76.81-9.97-6.68-3.82h0ZM522.54,266.54l-81.15,9.39-148.29,17.17,148.62-14.04,88.15-8.33-7.33-4.2h0ZM534.93,273.63l-93.03,7.49-148.8,11.98,149.02-8.84,100.92-5.99-8.11-4.64h0ZM548.65,281.48l-106.42,4.84-149.13,6.78,149.23-3.64,115.35-2.81-9.04-5.17h0ZM563.96,290.24l-121.59,1.28-149.27,1.57,149.27,1.57,121.6,1.28,4.99-2.85-4.99-2.86h0ZM557.69,299.55l-115.35-2.81-149.24-3.64,149.12,6.78,106.42,4.84,9.04-5.17h0ZM543.04,307.93l-100.92-5.99-149.02-8.84,148.8,11.98,93.03,7.49,8.11-4.64h0ZM529.88,315.47l-88.16-8.33-148.62-14.04,148.29,17.17,81.15,9.39,7.33-4.2h0ZM517.95,322.29l-76.81-9.97-148.04-19.22,147.6,22.33,70.57,10.68,6.68-3.82h0ZM507.08,328.51l-66.7-11.04-147.28-24.37,146.73,27.47,61.13,11.44,6.12-3.5h0ZM497.1,334.22l-57.67-11.62-146.34-29.5,145.68,32.57,52.67,11.78,5.65-3.23h0ZM487.89,339.49l-49.57-11.81-145.22-34.59,144.46,37.64,45.1,11.75,5.24-3h0ZM481.95,345.1l-44.93-12.37-143.92-39.63,143.05,42.66,48.83,14.56-3.04-5.21h0ZM487.06,353.87l-51.5-16.14-142.45-44.63,141.48,47.62,55.75,18.77-3.28-5.62h0ZM492.57,363.33l-58.66-20.65-140.81-49.58,139.73,52.53,63.29,23.79-3.55-6.1h0ZM498.55,373.6l-66.45-26.04-138.99-54.46,137.81,57.38,71.51,29.77-3.87-6.65h0ZM505.08,384.81l-74.97-32.44-137.01-59.28,135.73,62.15,80.51,36.87-4.25-7.3h0ZM512.26,397.15l-84.31-40.03-134.85-64.02,133.47,66.85,90.39,45.27-4.7-8.08h0ZM520.22,410.81l-94.58-49.02-132.54-68.69,131.06,71.47,101.3,55.24-5.24-9h0ZM529.1,426.06l-105.94-59.69-130.06-73.27,128.49,76,104.66,61.91,5.75.02-2.89-4.97h0ZM519.02,430.98l-98.49-60.11-127.42-77.77,125.75,80.44,89.74,57.4,10.42.04h0ZM502.14,430.91l-84.41-55.65-124.63-82.17,122.87,84.78,76.82,53,9.35.04h0ZM486.97,430.86l-72.18-51.29-121.69-86.47,119.84,89.01,65.58,48.71,8.45.03h0ZM473.24,430.8l-61.54-47.04-118.6-90.66,116.66,93.14,55.78,44.53,7.7.03h0ZM460.71,430.76l-52.25-42.91-115.36-94.74,113.34,97.15,47.22,40.47,7.06.03h0ZM449.21,430.71l-44.13-38.9-111.98-98.71,109.88,101.05,39.73,36.54,6.51.02h0ZM438.6,430.67l-37.03-35.01-108.47-102.56,106.28,104.82,33.18,32.72,6.03.02h0ZM430.65,432.56l-32.72-33.18-104.82-106.28,102.56,108.47,35.01,37.03-.02-6.03h0ZM430.69,442.7l-36.54-39.73-101.05-109.88,98.71,111.98,38.9,44.13-.02-6.51h0ZM430.73,453.65l-40.47-47.21-97.16-113.34,94.74,115.36,42.91,52.25-.03-7.06h0ZM430.78,465.54l-44.53-55.78-93.14-116.66,90.66,118.6,47.04,61.54-.03-7.7h0ZM430.83,478.52l-48.71-65.58-89.01-119.84,86.47,121.69,51.29,72.18-.03-8.45h0ZM430.88,492.79l-53-76.82-84.78-122.87,82.17,124.63,55.65,84.41-.04-9.35h0ZM430.94,508.6l-57.4-89.74-80.44-125.76,77.77,127.42,60.11,98.49-.04-10.42h0ZM431.01,526.25l-61.91-104.66-76-128.49,73.27,130.06,59.69,105.94,4.97,2.89-.02-5.75h0ZM419.81,525.46l-55.24-101.3-71.47-131.06,68.69,132.54,49.02,94.58,9,5.24h0ZM405.23,516.97l-45.27-90.39-66.85-133.47,64.02,134.85,40.03,84.31,8.08,4.7h0ZM392.12,509.33l-36.87-80.51-62.15-135.73,59.28,137.01,32.44,74.97,7.3,4.25h0ZM380.25,502.42l-29.77-71.51-57.38-137.81,54.46,138.99,26.04,66.46,6.65,3.87h0ZM369.43,496.12l-23.79-63.28-52.53-139.73,49.57,140.81,20.65,58.66,6.1,3.55h0ZM359.49,490.33l-18.77-55.75-47.62-141.48,44.63,142.45,16.14,51.5,5.62,3.28h0ZM350.32,484.99l-14.56-48.83-42.66-143.06,39.63,143.92,12.37,44.93,5.22,3.04h0ZM342.49,482.65l-11.75-45.1-37.64-144.46,34.58,145.22,11.81,49.57,3-5.24h0ZM337.45,491.45l-11.78-52.67-32.57-145.68,29.5,146.34,11.62,57.67,3.23-5.65h0ZM332.02,500.96l-11.44-61.12-27.47-146.73,24.37,147.28,11.04,66.7,3.51-6.13h0ZM326.11,511.27l-10.68-70.57-22.33-147.6,19.22,148.04,9.97,76.82,3.82-6.68h0ZM319.66,522.54l-9.4-81.15-17.17-148.29,14.04,148.62,8.33,88.16,4.2-7.34h0ZM312.58,534.93l-7.49-93.03-11.98-148.8,8.84,149.02,5.99,100.92,4.64-8.11h0ZM304.72,548.65l-4.84-106.42-6.78-149.13,3.64,149.23,2.81,115.35,5.17-9.04h0ZM295.96,563.96l-1.28-121.59-1.57-149.27-1.57,149.27-1.28,121.59,2.86,4.99,2.86-4.99h0ZM286.65,557.69l2.81-115.35,3.64-149.24-6.78,149.12-4.84,106.42,5.17,9.04h0ZM278.27,543.04l5.99-100.92,8.84-149.02-11.98,148.8-7.49,93.03,4.64,8.11h0ZM270.74,529.87l8.33-88.15,14.04-148.62-17.17,148.29-9.39,81.15,4.2,7.34h0ZM263.91,517.95l9.97-76.81,19.22-148.04-22.33,147.6-10.68,70.57,3.82,6.68h0ZM257.69,507.08l11.04-66.7,24.37-147.28-27.47,146.73-11.44,61.12,3.51,6.13h0ZM251.98,497.1l11.62-57.66,29.5-146.34-32.57,145.68-11.78,52.67,3.23,5.65h0ZM246.71,487.89l11.81-49.57,34.58-145.22-37.64,144.46-11.75,45.09,3,5.24h0ZM241.1,481.95l12.37-44.93,39.63-143.92-42.66,143.05-14.56,48.83,5.22-3.04h0ZM232.33,487.06l16.14-51.5,44.63-142.45-47.62,141.48-18.77,55.75,5.63-3.28h0ZM222.87,492.57l20.65-58.66,49.57-140.81-52.53,139.73-23.79,63.29,6.1-3.55h0ZM212.6,498.55l26.04-66.45,54.46-138.99-57.38,137.81-29.77,71.51,6.65-3.88h0ZM201.39,505.08l32.44-74.97,59.28-137.01-62.15,135.73-36.87,80.51,7.31-4.25h0ZM189.05,512.26l40.03-84.31,64.02-134.85-66.85,133.47-45.27,90.4,8.08-4.7h0ZM175.39,520.22l49.02-94.58,68.69-132.54-71.47,131.06-55.24,101.3,9-5.24h0ZM160.14,529.1l59.69-105.94,73.27-130.06-76,128.49-61.91,104.66-.02,5.75,4.97-2.89h0ZM155.22,519.02l60.11-98.49,77.77-127.42-80.44,125.75-57.4,89.74-.04,10.42h0ZM155.29,502.14l55.65-84.4,82.17-124.63-84.78,122.87-53,76.82-.04,9.35h0ZM155.35,486.97l51.29-72.18,86.47-121.69-89.01,119.84-48.71,65.58-.03,8.45h0ZM155.4,473.23l47.04-61.54,90.66-118.6-93.14,116.66-44.53,55.78-.03,7.7h0ZM155.45,460.71l42.91-52.25,94.74-115.36-97.15,113.34-40.47,47.21-.03,7.06h0ZM155.49,449.21l38.9-44.13,98.71-111.98-101.05,109.88-36.53,39.72-.02,6.51h0ZM155.53,438.6l35.01-37.03,102.56-108.47-104.82,106.28-32.72,33.18-.02,6.04h0ZM153.64,430.65l33.18-32.72,106.28-104.82-108.47,102.56-37.03,35.01,6.04-.02h0ZM143.5,430.69l39.73-36.54,109.88-101.05-111.98,98.71-44.13,38.9,6.51-.02h0ZM132.55,430.73l47.21-40.47,113.34-97.16-115.36,94.74-52.25,42.91,7.06-.03h0ZM120.67,430.77l55.78-44.53,116.66-93.14-118.6,90.66-61.54,47.04,7.7-.03h0ZM107.68,430.82l65.58-48.71,119.84-89.01-121.69,86.47-72.18,51.29,8.45-.03h0ZM93.41,430.88l76.82-53,122.87-84.78-124.63,82.17-84.41,55.65,9.35-.04h0ZM77.6,430.94l89.74-57.4,125.75-80.44-127.42,77.77-98.5,60.11,10.42-.04h0ZM59.95,431.01l104.66-61.91,128.49-76-130.06,73.27-105.94,59.68-2.9,4.97,5.75-.02h0ZM60.74,419.81l101.3-55.24,131.06-71.47-132.54,68.69-94.58,49.02-5.24,9h0ZM69.24,405.22l90.39-45.27,133.47-66.85-134.85,64.02-84.31,40.02-4.71,8.08h0ZM76.87,392.12l80.51-36.87,135.73-62.15-137.01,59.28-74.97,32.44-4.25,7.31h0ZM83.78,380.25l71.51-29.77,137.81-57.38-138.99,54.46-66.45,26.04-3.88,6.65h0ZM90.09,369.43l63.28-23.79,139.73-52.53-140.81,49.57-58.66,20.65-3.55,6.1h0ZM95.87,359.49l55.75-18.77,141.48-47.62-142.45,44.63-51.5,16.14-3.28,5.63h0ZM101.21,350.32l48.83-14.56,143.05-42.66-143.92,39.63-44.93,12.37-3.04,5.22h0ZM103.55,342.49l45.1-11.75,144.46-37.64-145.22,34.58-49.57,11.81,5.24,3h0ZM94.75,337.45l52.67-11.78,145.68-32.57-146.34,29.5-57.67,11.62,5.65,3.23h0ZM85.25,332.02l61.12-11.44,146.73-27.47-147.28,24.37-66.71,11.04,6.13,3.51h0ZM74.93,326.11l70.57-10.68,147.6-22.33-148.04,19.22-76.82,9.97,6.68,3.82h0ZM63.66,319.66l81.15-9.4,148.29-17.17-148.62,14.04-88.16,8.33,7.34,4.2h0ZM51.28,312.57l93.03-7.49,148.8-11.98-149.02,8.84-100.92,5.99,8.11,4.64h0ZM37.56,304.72l106.42-4.84,149.13-6.78-149.23,3.64-115.35,2.81,9.04,5.18h0ZM22.24,295.96l121.59-1.28,149.27-1.57-149.27-1.57-121.59-1.28-4.99,2.86,4.99,2.86h0ZM28.52,286.65l115.35,2.81,149.23,3.64-149.12-6.78-106.42-4.84-9.04,5.18h0ZM43.17,278.27l100.92,5.99,149.02,8.84-148.8-11.98-93.02-7.49-8.11,4.64h0ZM56.33,270.74l88.15,8.33,148.62,14.04-148.29-17.17-81.15-9.39-7.34,4.2h0ZM68.25,263.91l76.81,9.97,148.04,19.22-147.6-22.33-70.57-10.68-6.68,3.82h0ZM79.12,257.69l66.7,11.04,147.28,24.37-146.73-27.47-61.12-11.44-6.13,3.51h0ZM89.1,251.98l57.66,11.62,146.34,29.5-145.68-32.57-52.67-11.78-5.65,3.23h0ZM98.31,246.71l49.57,11.81,145.22,34.58-144.46-37.64-45.09-11.75-5.24,3h0ZM104.25,241.1l44.93,12.37,143.92,39.63-143.05-42.66-48.83-14.56,3.04,5.22h0ZM99.15,232.33l51.5,16.14,142.45,44.63-141.48-47.62-55.75-18.77,3.28,5.63h0ZM93.64,222.87l58.66,20.65,140.81,49.57-139.73-52.53-63.29-23.79,3.55,6.1h0ZM87.66,212.6l66.45,26.04,138.99,54.46-137.81-57.38-71.51-29.77,3.88,6.65h0ZM81.12,201.39l74.97,32.44,137.01,59.28-135.73-62.15-80.51-36.87,4.26,7.31h0ZM73.94,189.05l84.31,40.02,134.85,64.02-133.47-66.85-90.39-45.27,4.71,8.08h0ZM65.98,175.39l94.58,49.02,132.54,68.69-131.06-71.47-101.3-55.24,5.24,9h0ZM57.1,160.14l105.94,59.68,130.06,73.27-128.48-76-104.66-61.91-5.75-.02,2.89,4.97h0ZM67.19,155.22l98.49,60.11,127.42,77.77-125.75-80.44-89.74-57.4-10.42-.04h0ZM84.07,155.29l84.4,55.65,124.63,82.17-122.87-84.78-76.82-53-9.35-.04h0ZM99.23,155.35l72.18,51.29,121.69,86.47-119.84-89.01-65.58-48.71-8.45-.03h0ZM112.97,155.4l61.54,47.04,118.6,90.66-116.66-93.14-55.77-44.53-7.7-.03h0ZM125.49,155.45l52.25,42.91,115.36,94.74-113.34-97.15-47.21-40.47-7.06-.03h0ZM136.99,155.49l44.13,38.9,111.98,98.71-109.88-101.05-39.72-36.53-6.51-.02h0ZM147.6,155.53l37.03,35.01,108.47,102.56-106.28-104.82-33.18-32.72-6.04-.02h0ZM155.55,153.64l32.72,33.18,104.82,106.28-102.56-108.47-35.01-37.03.02,6.04h0ZM155.52,143.5l36.53,39.72,101.05,109.88-98.71-111.98-38.9-44.13.02,6.51h0ZM155.47,132.55l40.47,47.21,97.15,113.34-94.74-115.36-42.91-52.25.03,7.06h0ZM155.43,120.67l44.53,55.78,93.14,116.66-90.66-118.6-47.04-61.54.03,7.7h0ZM155.38,107.69l48.71,65.58,89.01,119.84-86.47-121.69-51.29-72.18.03,8.46h0ZM155.32,93.41l53,76.82,84.78,122.87-82.17-124.63-55.65-84.41.04,9.35h0ZM155.26,77.61l57.4,89.74,80.44,125.75-77.77-127.42-60.11-98.49.04,10.42h0ZM155.2,59.96l61.91,104.66,76,128.49-73.27-130.06-59.68-105.94-4.97-2.89.02,5.75h0ZM166.39,60.74l55.24,101.3,71.47,131.06-68.69-132.54-49.02-94.58-9.01-5.24h0ZM180.98,69.23l45.27,90.39,66.85,133.47-64.02-134.85-40.02-84.31-8.08-4.71h0ZM194.08,76.87l36.87,80.51,62.15,135.73-59.28-137.01-32.44-74.97-7.31-4.26h0ZM205.95,83.78l29.77,71.51,57.38,137.81-54.46-138.99-26.04-66.45-6.65-3.88h0ZM216.78,90.08l23.79,63.29,52.53,139.73-49.57-140.81-20.65-58.66-6.1-3.55h0ZM226.71,95.87l18.77,55.75,47.62,141.48-44.63-142.45-16.14-51.5-5.63-3.28h0ZM235.88,101.21l14.56,48.83,42.66,143.05-39.63-143.92-12.37-44.93-5.22-3.04h0ZM243.71,103.55l11.75,45.09,37.64,144.46-34.58-145.22-11.81-49.57-3,5.24h0ZM248.75,94.75l11.78,52.67,32.57,145.68-29.5-146.34-11.62-57.67-3.23,5.65h0ZM254.19,85.25l11.44,61.12,27.47,146.73-24.37-147.28-11.04-66.7-3.51,6.13h0ZM260.09,74.93l10.68,70.57,22.33,147.6-19.22-148.04-9.97-76.81-3.83,6.68h0ZM266.54,63.67l9.39,81.15,17.17,148.29-14.04-148.62-8.33-88.16-4.2,7.34h0ZM273.63,51.28l7.49,93.02,11.98,148.8-8.84-149.02-5.99-100.92-4.64,8.12h0ZM281.48,37.56l4.84,106.42,6.78,149.12-3.64-149.23-2.81-115.35-5.18,9.05Z"/>
  <path class="cls-4" d="M316.61,408.02h0c0,9.59-10.78,17.37-24.08,17.37s-24.08-7.78-24.08-17.37h0s-150.46,6.05-150.46,6.05l39.05-243.14h270.99l39.96,245.16-151.38-8.07Z"/>
  <g>
    <g>
      <path class="cls-1" d="M166.8,174.74c10.63,2.47,20.84,6.67,31.88,7.41,15.66,1.05,32.6-6.8,47.09-2.1l28.2,9.17v210.91l-140.1,6.92,32.93-232.31Z"/>
      <path class="cls-1" d="M168.34,173.75c10.63,2.47,20.84,6.67,31.88,7.41,15.66,1.05,32.6-6.8,47.09-2.1l28.2,9.17v210.91l-140.1,6.92,32.93-232.31Z"/>
      <path class="cls-1" d="M169.9,172.61c10.63,2.47,20.84,6.67,31.88,7.41,15.66,1.05,32.6-6.8,47.09-2.1l28.2,9.17v210.91l-140.1,6.92,32.93-232.31Z"/>
      <path class="cls-1" d="M171.44,171.38c10.63,2.47,20.84,6.67,31.88,7.41,15.66,1.05,32.6-6.8,47.09-2.1l28.2,9.17v210.91l-140.1,6.92,32.93-232.31Z"/>
      <path class="cls-1" d="M172.74,170.36c10.63,2.47,20.84,6.67,31.88,7.41,15.66,1.05,32.6-6.8,47.09-2.1l28.2,9.17v210.91l-140.1,6.92,32.93-232.31Z"/>
      <path class="cls-1" d="M174.29,169.37c10.63,2.47,20.84,6.67,31.88,7.41,15.66,1.05,32.6-6.8,47.09-2.1l28.2,9.17v210.91l-140.1,6.92,32.93-232.31Z"/>
      <path class="cls-1" d="M175.84,168.23c10.63,2.47,20.84,6.67,31.88,7.41,15.66,1.05,32.6-6.8,47.09-2.1l28.2,9.17v210.91l-140.1,6.92,32.93-232.31Z"/>
      <path class="cls-1" d="M177.38,167.01c10.63,2.47,20.84,6.67,31.88,7.41,15.66,1.05,32.6-6.8,47.09-2.1l28.2,9.17v210.91l-140.1,6.92,32.93-232.31Z"/>
      <path class="cls-1" d="M178.8,165.96c10.63,2.47,20.84,6.67,31.88,7.41,15.66,1.05,32.6-6.8,47.09-2.1l28.2,9.17v210.91l-140.1,6.92,32.93-232.31Z"/>
      <path class="cls-1" d="M180.01,165.12c10.63,2.47,20.84,6.67,31.88,7.41,15.66,1.05,32.6-6.8,47.09-2.1l28.2,9.17v210.91l-140.1,6.92,32.93-232.31Z"/>
      <path class="cls-1" d="M181.26,164.03c10.63,2.47,20.84,6.67,31.88,7.41,15.66,1.05,32.6-6.8,47.09-2.1l28.2,9.17v210.91l-140.1,6.92,32.93-232.31Z"/>
      <path class="cls-1" d="M182.43,163.1c10.63,2.47,20.84,6.67,31.88,7.41,15.66,1.05,32.6-6.8,47.09-2.1l28.2,9.17v210.91l-140.1,6.92,32.93-232.31Z"/>
      <path class="cls-1" d="M183.92,162.12c10.63,2.47,20.84,6.67,31.88,7.41,15.66,1.05,32.6-6.8,47.09-2.1l28.2,9.17v210.91l-140.1,6.92,32.93-232.31Z"/>
      <path class="cls-1" d="M185.37,161.03c10.63,2.47,20.84,6.67,31.88,7.41,15.66,1.05,32.6-6.8,47.09-2.1l28.2,9.17v210.91l-140.1,6.92,32.93-232.31Z"/>
    </g>
    <g>
      <path class="cls-1" d="M418.27,174.74c-10.63,2.47-20.84,6.67-31.88,7.41-15.66,1.05-32.6-6.8-47.09-2.1l-28.2,9.17v210.91l140.1,6.92-32.93-232.31Z"/>
      <path class="cls-1" d="M416.73,173.75c-10.63,2.47-20.84,6.67-31.88,7.41-15.66,1.05-32.6-6.8-47.09-2.1l-28.2,9.17v210.91l140.1,6.92-32.93-232.31Z"/>
      <path class="cls-1" d="M415.17,172.61c-10.63,2.47-20.84,6.67-31.88,7.41-15.66,1.05-32.6-6.8-47.09-2.1l-28.2,9.17v210.91l140.1,6.92-32.93-232.31Z"/>
      <path class="cls-1" d="M413.63,171.38c-10.63,2.47-20.84,6.67-31.88,7.41-15.66,1.05-32.6-6.8-47.09-2.1l-28.2,9.17v210.91l140.1,6.92-32.93-232.31Z"/>
      <path class="cls-1" d="M412.33,170.36c-10.63,2.47-20.84,6.67-31.88,7.41-15.66,1.05-32.6-6.8-47.09-2.1l-28.2,9.17v210.91l140.1,6.92-32.93-232.31Z"/>
      <path class="cls-1" d="M410.78,169.37c-10.63,2.47-20.84,6.67-31.88,7.41-15.66,1.05-32.6-6.8-47.09-2.1l-28.2,9.17v210.91l140.1,6.92-32.93-232.31Z"/>
      <path class="cls-1" d="M409.22,168.23c-10.63,2.47-20.84,6.67-31.88,7.41-15.66,1.05-32.6-6.8-47.09-2.1l-28.2,9.17v210.91l140.1,6.92-32.93-232.31Z"/>
      <path class="cls-1" d="M407.69,167.01c-10.63,2.47-20.84,6.67-31.88,7.41-15.66,1.05-32.6-6.8-47.09-2.1l-28.2,9.17v210.91l140.1,6.92-32.93-232.31Z"/>
      <path class="cls-1" d="M406.27,165.96c-10.63,2.47-20.84,6.67-31.88,7.41-15.66,1.05-32.6-6.8-47.09-2.1l-28.2,9.17v210.91l140.1,6.92-32.93-232.31Z"/>
      <path class="cls-1" d="M405.06,165.12c-10.63,2.47-20.84,6.67-31.88,7.41-15.66,1.05-32.6-6.8-47.09-2.1l-28.2,9.17v210.91l140.1,6.92-32.93-232.31Z"/>
      <path class="cls-1" d="M403.81,164.03c-10.63,2.47-20.84,6.67-31.88,7.41-15.66,1.05-32.6-6.8-47.09-2.1l-28.2,9.17v210.91l140.1,6.92-32.93-232.31Z"/>
      <path class="cls-1" d="M402.64,163.1c-10.63,2.47-20.84,6.67-31.88,7.41-15.66,1.05-32.6-6.8-47.09-2.1l-28.2,9.17v210.91l140.1,6.92-32.93-232.31Z"/>
      <path class="cls-1" d="M401.15,162.12c-10.63,2.47-20.84,6.67-31.88,7.41-15.66,1.05-32.6-6.8-47.09-2.1l-28.2,9.17v210.91l140.1,6.92-32.93-232.31Z"/>
      <path class="cls-1" d="M399.7,161.03c-10.63,2.47-20.84,6.67-31.88,7.41-15.66,1.05-32.6-6.8-47.09-2.1l-28.2,9.17v210.91l140.1,6.92-32.93-232.31Z"/>
    </g>
  </g>
</svg>