<?xml version="1.0" encoding="UTF-8"?>
<svg id="Camada_1" xmlns="http://www.w3.org/2000/svg" version="1.1" viewBox="0 0 510.62 511.94">
  <!-- Generator: Adobe Illustrator 30.6.0, SVG Export Plug-In . SVG Version: 2.1.4 Build 109)  -->
  <defs>
    <style>
      .st0 {
        fill: #eef6f7;
      }

      .st1 {
        fill: #cee4eb;
      }

      .st2 {
        fill: #ebf4f7;
      }

      .st3 {
        fill: #219edb;
      }

      .st4 {
        fill: #e1eff4;
      }

      .st5 {
        fill: #dbecf1;
      }

      .st6 {
        fill: #daebf1;
      }

      .st7 {
        fill: #dfeef3;
      }

      .st8 {
        fill: #e2eff3;
      }

      .st9 {
        fill: #daebf0;
      }

      .st10 {
        fill: #e4f0f4;
      }

      .st11 {
        fill: #1d99d1;
      }

      .st12 {
        fill: #ddecf1;
      }

      .st13 {
        fill: #219fda;
      }

      .st14 {
        fill: #deedf2;
      }

      .st15 {
        fill: #e7f2f5;
      }

      .st16 {
        fill: #d9eaf0;
      }
    </style>
  </defs>
  <g id="Objeto_generativo">
    <path class="st11" d="M382.41,477.56l-77.26-45.99c-1.46-.87-3.11-1.89-4.12-.08l-41.27,73.95c-1.64,2.26-1.99,4.75-5.46,6.51l-46.2-82.28-77.51,46.41c-1.82,1.09-3.15,2.13-4.49-.06l.17-92.39-6.56.04c-5.16,1.22-9.76.38-14.92.46l-42.55.65c-9.62.15-19,.93-28.41.06.3-1.2-.43-3.12-.05-3.77l46.22-78.84L1.11,257.36c-1.25-.71-1.1-1.91-1.11-2.77-.02-1.42.96-1.67,2.34-2.45l77.86-44.3-46.61-78.78.25-2.32c.06-.54,1.55-.69,2.59-.69l89.76.14.02-91.09c1.06-1.06,1.88-1.68,2.94-1.41.7.18,1.35,1.01,2.39,1.62l76.53,45.13L253.75.05c2.63-.32,3.47.87,4.4,2.75l43.86,77.65,77.79-46.1c1.06-.63,1.56-.58,2.53-.57.74,0,1.97.17,1.97,1.91l-.25,90.49,92.05-.12c1.66.78.04,4.99-1.15,5.74l-3.18,5.44-40.54,68.78c-.41.69.16,2.48.58,2.74l1.87,1.14,75.44,43.05c.97.55,1.76,1.67,1.43,2.31-.28.55-1.02,1.68-1.81,2.12l-30.37,17.24-39.33,22.57-8.76,5.11,8.41,13.99,38.15,65.51c.81,1.39.32,2.74-1.84,3.37l-24.47-.29-66.46-.83.27,91.66-1.93,1.84ZM153.11,130.73c-.69-.15-1.44-.39-2.08-1.18l-19.8-24.49c-.93,0-1.43,1.28-1.27,2.65.15,1.27.87,1.93,1.91,3.11l18.98,21.3c.08,1.05-.32,2.14-1.18,2.32-1.38.3-2.17-.31-3.05-1.3l-15.23-17.14c-.64-.72-1.8-.11-1.41,1.24.41,1.42,1.29,2.84,2.27,3.89l12.4,13.27c-1,.88-2.4.84-3.42.59l-8.6-8.49c-.73-.72-.95-1-1.77-.9-.6.07-1.17.92-.57,1.6l6.24,7.16c-.99,1.16-2.31,1.73-2.82,1.34l-2.58-2c-2.17-1.68-3.38-4.44-7.08-3.22l5.6,5.74c.44.45-2.04,2.25-2.63,1.74-5.61-4.81-10.96-10.98-11.83-6.52l8.14,6.84c.9.76,2.32,1.06,2.05,2.46-.15.8-.07,1.85-1.13,3.1l-15.15-12.76c-.95-.8-1.83-1.74-3.68-.67-1.17-.44-1.68,1-.34,1.14l17.59,13.98c1.18.94,1.87,1.52,2.15,2.55.17.62-1.37,2.63-1.9,2.22l-24.5-19.21c-1.01-.79-1.75-1.75-3.67-.85-.8-.47-1.57.47-.87,1.01l27.64,21.17c1.11.85,1.23,1.33,1.48,2.32.17.65-.81,2.55-1.6,1.96l-33-24.66c-2.28-1.71-4.5-2.41-7.64-2.33-.46-.1-.83.61-.05.94l41.16,29.32c-.16,1.51-.22,1.96-.53,2.3-.67.72-1.48.43-2.21-.07l-42.28-29.29c-3.13-2.17-6.16-4.18-10.38-2.85l54.44,36.03c.56.4.41,2,.1,2.38-.21.25-.67,1.07-1.39.61l-58.91-37.42c-2.69-1.71-6.11-2.98-9.04-1.37l66.27,40.47c1.42.87,1.98,1.17,2.18,2.35.1.6-.32,2.4-1.09,1.96l-19.72-11.25-55.39-32.68c-1.66-.98-3.13-1.86-5.08-1.45.06.42.8,3.26,1.51,3.66l77.62,43.89c1.1.62,1.84,1.31,1.71,2.13-.07.47-.83,1.17-1.31,1.23s-1.3-.28-2.05-.68l-34.44-18.38-35.43-19.25c.04,2.3,1.46,4,2.5,5.27l34.61,18.11,34.19,17.53c1.98,1.01-.77,5.07-2.52,6.29-10.08,7.05-19.65,13.57-31.35,16.22.55,2.22,1.49,3.24,2.37,3.55,10.67-3.99,20.83-9.5,30-16.86,1.04,2.19.15,3.69-.17,5.52-13.49,10.18-28.62,16.44-45,19.72l-8.7,4.13c3.14,1.06,5.55,0,8.12-.51,15.64-3.13,30.62-8.33,44.06-17.81,1.02,2.34.41,5.2-1.26,6.38-10.81,7.64-22.81,11.32-35.42,13.94l-13.64,2.84-4.64.46c-4.92.49-10.37,1.12-13.57,5.24l30.14-4.42c10.17-1.49,20.26-3.87,29.35-8.66l6.98-3.68c.72,2.15.56,3.58.53,5.87-13.3,6.44-27.61,9.84-42.27,11.62-3.62.44-7.78,1.32-11.57,1.69l-16.92,1.67c-4.28.42-7.85.59-11.18,3.79l10.22-.31c1.55-.05,2.41-.19,3.73-.33l16.35-1.71c16.86-1.76,33.32-3.96,49.52-10.22.94,1.9.66,4.12-.78,5.84-1.04,1.24-3.4,1.48-5,1.84l-11.62,2.63-9.28,1.58-14.39,1.79c-1.68.21-2.88.16-4.6.3l-35.93,2.87c-3.76.3-7.69-.42-10.36,2.84l1.38,1.04c.43.33,1.21-.45,1.49-.66,5.01-1.2,10.56-.56,15.44-.8l14.28-.71,23.72-1.72,16.59-1.64,17.04-2.61c1.68.51.66,3.38.05,4.35-.96,1.51-1.91,1.87-4.12,2.09l-12.84,1.26c-3.9.38-8.4.59-12.52.84l-12.8.79-22.83.64-28.05.65c-2.63.06-5.41-.27-6.94,2.72l9.38.04,56.89-.53c3.9-.04,7.24-.03,11.08-.17l21.42-.76c.65,2.11-.61,5.84-2.59,5.83l-16.61-.13-80.32-1.63c1.65,3.76,5.73,2.13,8.28,2.82,4.42,1.2,7.59.41,11.83.55l40.9,1.35,9.43.58,26.46,2.27c1.27.77.71,4.38-.78,5.66-16.77-2.95-33.62-4.34-50.66-5.11l-28.7-1.3-6.11-.66c3.64,3.96,10.13,3.45,15.15,3.86l36.09,2.93c11.53.94,22.72,2.25,33.9,5.45.16,1.98.1,3.38-.86,5.25-13.32-4.21-26.76-6.17-40.41-7.39l-17.31-1.55-13.46-1.25c2.73,3.78,6.51,3.54,10.28,3.98l25.95,3.03c11.79,1.38,23.11,3.55,34.26,7.78-.14,1.72-.21,2.81-1.08,4.74-11.02-4.57-22.22-6.89-33.74-8.44l-21.55-2.9c4.36,4.55,9.6,4.56,14.87,5.33,12.79,1.87,25.2,4.25,37.16,9.01,1.75.7,2.71,1.21,2.83,2.75.1,1.29-.61,3.37-2.25,2.62-11.2-5.17-22.77-8.04-35.07-9.97-.67.67-.2,1.15.51,1.52l5.45,2.86c8.96,2.03,29.61,7.69,30.55,11.21.24.89-.5,3.1-1.65,2.64l-14.08-5.66c-.04,1.29.14,2.23-.29,3.74,4.26,1.99,9.19,2.56,13.49,5.7,2.02,1.48.62,7.42-1.87,8.41l-26.08,10.39c-1.63.65-2.54,2.28-1.84,4l28.13-11.72c.82.81.69,2.4.3,3.43-.34.88-1.61,1.06-2.85,1.59l-26.49,11.39c-2.85,1.23-5.99,2.59-5.66,6.09l33.24-15.14c.97-.44,1.39,1.98.89,2.69s-1.46,1.57-2.55,2.08l-30.72,14.46c-3.37,1.59-7.92,3.05-7.73,7.51l38.85-19.42c.77.12,1.31.4,1.43.82l-.97,3.15-44.82,23.39-2.5,3.56c-.46.66-1.01.99-.52,1.75.43.67,1.17.78,1.49-.29l42.9-23.57c1.09-.6,2.19-.53,2.93.21.49.49.22,2.33-.81,2.92l-48.61,27.72c-2.3,1.31-4.29,2.46-5.1,5.5,1.86.68,3.48-.11,5.31-1.2l46.6-27.74,1.64.99-.96,3.2-39.21,24.08c1.11,1.08,4.33,1.46,6,.4l32.13-20.26c.46.99.8,3.74-.15,4.38l-23.26,15.65c3.97,1.8,6.48-.26,9.3-2.21l14.87-10.28c1.15.83,1.87,1.59,2.75,3.07l-12.98,9.27c1.82,1.36,4.25.82,6.08-.54l9.17-6.87c1.86.12,3.74.05,5.47.98l-7.92,5.59c5.1,4.54,9.49-8.28,18.86-5.79l-7.58,5.93c1.83,1.6,3.62.66,5.15-.58l6.87-5.58c1.1-.89,2.99-.72,4.75-.2.53.34.43.61.23.74l-1.13.71-5.66,5.2c2.97,1.35,4.13-.68,5.86-2.14l3.67-3.1c2.24-1.88,4.88-3.22,7.58-1.83l-7.17,6.44c-.18.23.06,1.14.34,1.13,5.69-.3,9.49-11.16,14.91-7.47l-9.18,9.08c-.77.76-.99,1.96-.77,3.08.09.47.02,1.36,1.01.92l10.83-11.92c1.68-1.85,2.91-3.15,6.03-2.69,1.1-.59,1.61,1.38,0,1.15l-17.71,19.58c-.76.84-.34,2.3.51,2.55.37.11.9-.1,1.19-.88l17.99-19.93c1.82-2.02,3.82-3.82,7.18-2.84l-25.07,28.69c-1.49,1.71-3.17,3.41-1.41,6.03l29.34-35.05,8.31-.02c14.25,12.44,25.14,26.98,33.16,43.61l4.15,12.36c1.06-.99,2.08-1.12,3.66-1.03-6.51-21.81-20.34-39.24-37.89-55.2,3.04-1.63,5.89-.22,8.24,2.22l9.4,9.76c15.22,15.8,24.22,34.92,28.39,56.14.56,2.86,2.99,5.67,4.64,8.45-2.32-22.56-11.57-47.86-29.4-64.94l-12.38-11.86c3.7-1.78,5.4-.31,7.74,1.65,25.35,21.22,33.46,42.4,38.37,73.45l1.77,11.22,2.74,6.99c.21.55,1.39.8,1.34-.34-4.7-33.72-7.01-63.2-34.13-87.4l-6.41-5.72c-.91-.52.25-1.85,1.25-.82,1.43-.38,3.83-.87,4.96-.04,23.17,16.85,31.59,42.13,35.02,68.65l1.87,14.43,1.48,12.2c.56,4.6-.31,9.87,3.33,14.1.34.39,1.1.09.73-.63l-.53-10.62c-.09-1.85-.25-2.69-.41-4.18l-1.57-15.06c-3.11-29.76-6.71-58.19-31.37-78.93,2.38-1.2,6.71-1.88,8.42-.52,16.01,12.68,22.66,37.19,24.72,56.04l1.55,14.17,1.81,20.08,1.65,22.01c.27,3.62-.65,7.5,2.62,10.99,1.59-1.42.6-3.72.49-5.91l-1.42-27.93-1.22-15.7-.66-11.59c-2.66-21.83-4.28-45.76-18.5-62.51-.55-.65,1.57-1.85,2.1-.99.2.33.67.72,1.22,1.2,2.35,4.52,5.82,8.51,10.62,10.65,2.58,1.15,3.35,2.84,3.78,5.32l2.61,14.78c.78,4.39,1.45,11.55,1.8,16.85l1.51,22.7.22,11.15,1.36,32.39.07,10.48c.06,8.66,2.35,11.3,2.32,8.7l-.61-67.15v-12.44s-1.81-38.84-1.81-38.84l7.98-.1c-.03,4.1-1.14,7.92-.17,11.59.49,1.85-.69,2.96-.71,4.18l-.38,23.62-1.48,79.65c.09,1.09,1.46.62,1.23-.05,1.89-2.49,1.03-4.86,1.15-7.49l2.23-49.14.47-9.4,1.14-20.6c1.52-11.23.98-23.75,5.99-34.33,4.39-4.08,12.1-7.13,13.47-14.38,2.6.2,2.73,1.45,1.96,2.45-5.07,5.57-8.13,11.61-9.94,18.42l-4.56,17.15c-1.08,4.06-1.45,7.98-1.76,12.37-.16,2.16-.93,5.04-1.04,7.17l-.36,7.61c-.23,4.72-1.14,9.02-1.32,13.35l-.62,15.03-1.5,23.61c-.19,2.96.65,5.83-1.2,8.45,4.44-1.5,3.15-5.69,4.2-7.88,1.16-2.44.05-4.04.24-6.32l1.49-17.76.29-4.53,1.63-17.34c2.34-24.95,5.9-52.19,24.99-69.34,2.14-1.92,6.58-.41,9.1-.71-12.01,11.98-21.41,25.58-24.63,41.49l-3.79,18.72c-.46,2.27-.6,4.97-.87,7l-1.5,11.22c-.83,6.24-1.57,12.41-1.9,18.55-.26,4.77-1.55,9.24-.89,13.76,1.29-1.65,2.81-3.57,3.01-5.21l1.21-9.9c3.5-28.77,5.43-59.18,24-81.9,2.75-3.37,5.59-5.85,8.68-8.74,3.56-3.33,7.02-5.97,12.31-3.86l-9.91,8.82c-9.84,8.75-17.2,19.56-20.73,32.07l-4.21,14.92-1.9,9.5-3.06,20.21c-.37,2.42-1.83,4.71-.53,7.77,3.39-3.1,3.97-6.92,4.17-10.94.12-2.29.93-4.51,1.25-6.64l1.27-8.33c3.54-23.19,13.21-44.16,31.14-60.27l7.53-6.77c1.38-.62,3.97-.35,5.9.29l-8.84,7.95c-14.73,13.25-24.7,30.27-29.13,49.11l-4.44,18.85c.47,1.27,2.51.64,1.64-.87,2.33-4.19,4.03-7.89,5.09-12.45,4.52-19.46,13.6-37.3,27.66-51.46l9.15-9.21c1.95-1.96,4.48-3.42,7.61-1.26-16.94,13.89-30.36,32.4-36.4,51.15-.31.96-1.22,2.39-.67,3.47.36.71,1.77,1.35,2.92.9,6.14-21.79,20.37-40.41,37.16-56.06.99-.14,3.52.23,3.74.88.16.49.51,1.09.46,2.5l34.06,44.08c.62-2.04.69-4.12-.21-5.24l-32.71-40.46c.85-.95,1.45-1.23,2.09-1.24.6,0,1.34.3,1.95,1.04l27.87,33.42c.63.75,1.86-.7,1.46-1.58l-1.11-2.43-25.53-29.22c.74-.82,1.93-1.2,3.55-.79.73.19,1.25,1.08,2.14,2.07l20.34,22.63c1.41-2.95-.38-4.59-2.01-6.31l-16.17-17.16c1.25-1.61,3.49-1.38,4.59-.19l11.49,12.43c.65.71,1.32.93,1.84.75.44-.15.93-1.79.4-2.34l-9.94-10.33,3.68-.5,6.51,5.86c1.68,1.51,3.23,3.15,5.81,1.52l-7.85-7c1.63-.4,3.16-.48,4.47-.41l7.16,6.21c1.69,1.47,3.19,3.07,5.98,1.45l-7.7-6.5c1.56-.55,4.1-.9,5.12-.09l5.58,4.41c1.99,1.57,3.63,3.57,6.55,2.41l-6.7-5.88c7.49-3.28,11.06,7.35,18.42,6.64-2.37-3.17-5.17-4.31-7.43-6.31,1.88-2.22,4.06-1.92,5.94-.55l8.68,6.34c1.36.99,3.88.81,6.06.34l-12.09-8.42c-1.09-.76-1.16-1.85-1.27-2.71-.07-.54,1.29-2.13,1.92-1.69l14.86,10.29c2.89,2,5.73,4.15,9.9,2.5l-21.46-14.05c-2.2-1.44-3.83-3.68-1.85-6.14l27.43,17.67c3.12,2.01,6.1,4.52,10.66,2.38l-39.56-24.43c-.44-1.6-.99-2.79-.6-4.64l50.86,29.94c.56.33,1.43-.23,1.7-.28,1.45-.28-.88-3.44-4.77-5.67l-47.15-26.91c-1.71-.97-2.49-2.96-1.52-5.28l46.27,25.2c.53-2.22-1.92-4.12-3.02-5.61l-41.69-21.83c-2.07-1.08-3.85-2.22-2.46-5.29l39.25,19.49c1.35-.59,1.16-2.23-.49-1.64-.69-2.86-2.66-3.56-4.76-4.56l-35.15-16.73c-.36-1.65-.84-2.7.09-3.97l33.66,14.95c-.23-4.2-3.45-4.73-5.95-5.79l-26.03-11.11c-2.3-.98-4.32-2.23-3.17-5.24l29.32,12.07c-.22-2.49-1.4-3.82-2.97-4.45l-26.61-10.62c-1.52-1.12-2.12-5.69-1.53-7.75,3.64-2.74,9.02-4.07,13.59-5.85.16-1.48.49-2.52-.26-3.96l-13.43,5.68c-.76.32-1.48-1.27-1.58-1.91-.12-.73-.09-2.18,1.13-2.63l14.65-5.41c7.62-2.81,15.49-2.86,20.21-8.03-13.06,1.49-24.29,5.31-36.02,9.85-1.04.4-1.27-3.28-.76-4.51,10.17-4.33,21.39-7.36,33.09-8.87,2.63-.34,5.03-1.1,7.6-1.23,4.91-.25,9.7-1.31,13.39-5.15l-21.42,2.93c-3.61.49-7.31,1.17-11.09,2.03l-12.17,2.75-10.88,3.41c-1.1-2.89.08-4.92,2.24-5.61,12.93-4.12,25.83-6.3,39.02-7.72l12.43-1.34c3.69-.4,7.7-.93,11.34-1.37,1.75-.32,3.96-2.08,5.31-3.06l-14.68,1c-6.39.43-12.89.83-19.44,1.82l-23.92,3.62-11.91,2.99c-1.73.43-2.76-.86-2.45-2.59.19-1.05.39-2.54,1.97-2.89,10.58-2.35,20.82-3.92,31.5-4.76l36.13-2.86c2.53-.2,4.04.24,6.76-.57,3.01-.89,7.21.32,8.88-3.19l-34.27,1.9-11.14.5-14.64,1.25-15.16,1.72-4.76.7c-1.89.28-3.29.48-5.25,1.01-1.66.45-2.61-4.26-.91-5.42,2.89-1.98,6.99-1.29,10.28-1.54l10.89-.84,14.94-.78,40.1-1.46c4.74-.17,8.54.88,13.44-.51,2.15-.61,5.92.49,6.99-2.78l-77.4,1.56c-6.99.14-14.05.92-20.84-.11-1.28-.37-.97-4.92.35-5.51l21.94.61,6.88.25,48.28.46c2.88.03,5.59.55,8.67.38l12.42-.7c-1.91-.95-3.71-2.34-5.83-2.39l-50.39-1.25c-5.75-.14-11.45-.64-16.82-.97l-10.86-.67-16.69-1.99c-.57-2.15-1.28-3.74-1.06-6.31,11.52,2.57,22.49,2.94,33.95,4.65l4.18.62,19.28,1.29,4.59.23,28.92,1.2c-1.39-1.17-3.28-2.6-5.03-2.75l-44.78-3.7c-14.48-1.2-29.02-3.29-42.09-7.54-.47-1.9-1.33-5.25.17-5.54,16.45,5.52,32.61,8.22,49.39,9.7l29.34,2.58c-3.37-3.93-8.85-4.42-13.79-3.71-4.74-1.85-9.68-1.21-14.13-1.91l-11.39-1.79c-13.44-2.12-26.5-4.88-39.32-10.16-2.99-1.23-3.75-4.82-1.99-6.96,13.42,7.13,27.05,10.89,41.38,12.93l24.41,3.47c-3.25-4.13-8.73-4.37-13.63-5.14l-5.06-.79c-12.31-1.91-24.16-4.87-35.97-9.61l-13.33-7.16c-.33-2.04-1.01-3.75-.58-6.19,15.09,10.94,33.49,16.02,51.49,19.11-1.88-2.42-4.58-4.01-7.23-4.65-16.36-3.98-31.9-9.5-45.41-19.61-.37-1.98-1.3-3.37-.41-5.74,9.94,7.82,20.62,13.24,32.58,17.1l.14-3.95c-11.09-3-21.27-8.34-30.79-15.45-2.08-1.55-4.16-2.88-3.62-6.57.19-1.28,2.96-1.64,4.49-2.43l63.95-33.13c1.6-1.15,3.56-3.3,3.67-5.78l-72.04,38.66c-.46-.93-.37-2.68-.16-3.62l71.02-39.96c3.79-2.13,7.32-3.49,9.22-7.89-3.67-.06-5.89,1.62-8.75,3.29l-70.04,41.09c-1.14.67-1.83.93-2.39.67-1.03-.49-1.29-1.76-.75-2.56.26-.38.74-.6,1.76-1.06l67.29-40.99c-3.18-.76-6.44-.63-9.14,1.12l-29.55,19.08-30.57,19.12c-1.2-.49-1.05-2.28-.37-3.16.56-.73,1.25-1.06,2.32-1.76l52.1-34.28c-4.24-1.39-7.35.59-10.47,2.71l-44.12,30.12c-.71.49-1.91-2.56-1.11-3.13l1.86-1.33,40.42-28.38c-2.18-.24-4.8-.5-6.36.62l-12.1,8.72-23.95,17.46c-.86-.26-1.32-1.54-.67-2.88.34-.72.69-1.12,1.88-2.02l28.92-21.91c-4.13-1.07-6.76,1.09-9.56,3.3l-21.52,17c-.97-1.01-1.42-2.18-1.26-2.9.1-.46.86-1.05,1.45-1.54l17.34-14.25c.71-.59-.85-2.14-1.85-1.59l-2.1,1.17-15.33,12.92c-1.53-3.01.1-4.92,1.95-6.47l6.36-5.35c.69-.58,1.21-.57,1.21-1.41,0-.73-.91-1.37-1.68-.97-5.95,3.08-12.37,12.6-12.61,5.88-.03-.72,1.17-1.14,1.61-1.55l3.98-3.74c-7.02-1.79-7.72,8.47-12.66,3.58l6.43-6.89c.79-.85-.44-2.32-1.07-2.12-2.32.74-5.47,7.17-10.1,9.97-1.11.67-2.94-.03-2.8-.86s.39-1.18,1.1-1.93l12.77-13.65c.64-.68.55-2.76-.7-3.43l-16.48,18.43c-.73.82-.99,1.08-1.96,1.02-.82-.05-1.29-.3-1.36-1.27-.08-1.08,12.24-15.29,17.5-21.12,2.06-2.28,4.54-4.6,2.59-7.73l-21.77,26.82c-.95-.65-2.01-1.42-2.48-2.55l25.34-32.03c.86-1.64-1.01-2.72-2.02-1.69l-24.92,31.88c-1.39,1.78-3.52,3.49-5.99,2.71l21.18-28.61,11-14.62c.69-.92,1.32-3.02-.55-4.79l-32.04,44.65c-2.44,5.16-6.92,8.49-12.44,7.71-13.27-13.75-23.88-28.74-29.13-46.48-.32-1.08-.24-2.42-1.43-2.89-.54-.22-1.19.36-3.15.44,4.6,16.14,13.69,31.06,25.81,44.08,1.77,1.9,2.99,3.8,5.46,5.17-2.96,2.38-4.85.79-6.88-1.11-5.92-5.55-10.56-11.49-15.12-18.06-6.21-8.93-10.4-18.38-13.41-28.65l-4.02-13.72c-.88-2.99-2.58-6.22-4.83-8.7l4.02,18.98c5.12,20,15.13,37.66,31.39,51.97-3.3,2.51-5.29.56-7.52-1.48-18.91-17.27-25.68-35.47-30.19-59.29l-2.06-10.88c-1.03-5.47-.7-11.11-5.19-15.91l2.17,18.96,1.88,11.21,4.53,18.67c4.42,14.35,11.59,27.26,23.93,37.87-3.65,1.99-7.75.81-10.18-2-6.25-7.21-11.41-14.39-14.75-23.36-4.45-11.98-7.18-24.12-8.85-36.9l-1.59-12.14c-1.42-10.84-.46-21.94-5.44-27.17-1.1,4.05.42,7.74.64,11.6.35,6.11.98,12.27,1.71,18.5l1.45,12.34c2.18,18.48,7.13,44.18,20.49,57.86-2.91,1.39-5.42.8-8.4.8-6.48-9.03-10.2-18.91-12.34-29.95-5.04-26-6.53-52.31-8.05-78.95-.07-1.26-1-3.16-3.09-3.28l1.66,28.24.49,14.61,1.19,13.28c.58,6.45,1.02,12.56,1.86,18.85l1.21,9.01c1.36,10.18,3.97,19.97,8.82,29.31-2.9,1.6-5.26,2.19-8.2,2.96-4.1-12.4-6.02-24.85-7.07-37.89l-1.14-14.18-.49-16.21c-1.14-8.13-.82-15.83-1-23.58l-.66-28.54c-.07-3.14.26-6.42-2.92-8.49l.39,35.79,1.02,45.48.62,22.73.95,16.91.28,12.08-4.56,3.2-4.29-2.45c-1.48-4.35.26-8.61.43-12.94l1.39-34.48c.1-2.36.29-4.38.3-6.93l.43-78.42c-1.93.48-2.36,2.33-2.4,3.96l-.96,34.95-.59,22.65-.83,14.67-.59,12.23-1.05,8.44c-1.18,9.49-4.02,30.21-7.21,30.47-1.59.13-4.85-.91-6-1.95-1.51-1.37.05-3.44.59-4.69,4.83-11.13,6.35-22.77,8.34-34.57l.71-8.39,1.23-12.34,1.45-22.73.68-17.01c.21-5.29-.35-10.16,1.21-15.93-3.44,1.65-3.84,4.79-3.96,7.7l-.5,12.46-.69,11.76-1.75,19.73-1.64,14.76-1.67,11.67c-1.85,13-6,25.36-14.14,36.45-3.79-.83-6.94.17-7.37-1.65.12.49,14.42-17.97,17.84-43.26l3.74-27.66,1.56-16.74.36-11.21c-4.2,2.65-3.06,6.43-3.46,9.78l-3.51,29.48-1.61,9.89-1.74,8.34c-3.4,16.34-10.35,31.65-23.13,43.52-2.46.53-4.72,1.08-7.37-.12,26.79-24.67,28.68-54.68,33.11-87.92-5.52,5-4.47,12.09-5.69,18.25l-3.55,17.92c-3.89,19.61-13.7,36.99-28.83,50.98-2.16,2-4.3,3.49-7.69,1.36,7.07-6.95,14.05-13.11,18.75-21.51l6.22-11.12c5.41-11.85,8.62-24.3,10.75-37.57-4.34,2.98-4.9,7.89-5.81,11.95-4.91,21.81-15.35,40.81-32.07,56.21-2.02,1.86-3.35,3.75-6.71,1.38l6.94-6.99c11.26-12.48,20.47-26.69,24.85-42.33-1.83.09-2.65-.68-3.75-.97l-3.07,9.66c-6.37,14.93-15.7,28.35-27.53,40.04-1.62,1.59-4.94-.77-6.48-1.15-2.84-.7-3.55-3.5-5.11-5.66l-32.45-45.19c-1.38,1.71-1.23,3.84.25,5.83l31.38,42.13c-2.01.29-3.23-.23-4.59-.61l-27.17-34.94c-1.22,1.34-1.08,3.15.35,4.95l23.8,29.88c-.09.79-1.33,1.19-1.84,1.63ZM178.87,121.32l-39.94-71.07c-2.15-3.82-3.7-7.55-7.19-10.33-.76-.6-1.99.32-1.85,1.07.11.57-.03,1.23.51,2.15l47.88,81.43c1.54-.43,1.42-1.77.59-3.24ZM332.62,123.26l47.68-80.82c.83-1.41-.41-2.99-1.27-2.87-.68.09-1.81.26-2.54,1.55l-46,81.65c-.43.76.35,1.8.64,1.73s.89-.25,1.48-1.25ZM328.04,120.47l40.31-74.25c-4.35.68-6.2,3.41-7.91,6.74l-32.52,63.23c-.68,1.33-.8,3.16.13,4.27ZM182.28,116.33l-32.78-63.49c-1.52-2.94-3.46-5.83-7.01-5.74l39.37,73.31c.72-.18,1.38-1.06,1.24-1.92-.09-.55-.34-1.23-.82-2.16ZM335.29,128.9l40.74-63.6c2.67-4.17,5.63-7.4,4.28-12.68-2.27,1.19-2.8,3.42-4.01,5.4l-41.69,67.94c-.36.59.02,2.47.68,2.93ZM173.59,126.97c.68,1.07,1.29,1.16,1.69,1.04.36-.1.84-.9.31-1.77l-44.44-72.67c-2.02,1.77-1.58,4.4,0,6.87l42.44,66.53ZM325.57,113.81l28.92-58.32c.66-.12,1.24-.75.9-1.26-.75-1.13-4.85,1.15-6.45,4.57l-25.79,55.17c-.3.65,1.74,1.21,2.42-.16ZM186.93,113.58l-26.36-56.27c-.74-1.37-3.05-2.74-5.08-2.64l28.81,58.76c.46.93.9,1.36,1.57,1.4.33.02,1.39-.55,1.06-1.25ZM190.51,108.16l-16.22-38.9c-1.36-3.27-2.81-6.19-5.7-7.98-.25.55-.59,1.7-.28,2.39l20.14,44.99c.45,1.65,2.18.86,2.05-.5ZM321.88,108.54l21.24-47.27c-2.81-.17-4.17,1.7-5.15,3.99l-18.32,43.06c-.29,1.66,2.11,2.09,2.23.22ZM170.36,131.66c.52.75,1.57.2,1.71-.38.12-.52-.19-.93-.62-1.6l-5.83-9.15-35.34-53.13c-.77,1.62-.87,4.57.12,6.02l15.83,23.06,24.13,35.19ZM194.07,100.52l-12.25-31.05c-.37-.94-2.9-1.99-3.63-1.75l14.36,36.26c1.27-.5,2.15-1.86,1.53-3.46ZM318.16,102.94l14.21-35.3c-2.01-.43-3.82,1.29-4.56,3.28l-11.61,31.3c-.18.5.61,1.86.92,1.81s.82-.53,1.04-1.1ZM339.89,131.11l37.85-54.25c2.1-3.01,4.38-6.02,2.01-9.45l-41.74,62.99c-.63,1.49.9,2.23,1.87.72ZM314.11,96.29l8.47-21.66c.46-1.19.39-1.52-.49-1.9-.39-.17-1.94.5-2.12.99l-6.81,18.72c-.31.86-.85,1.34-.79,2.14.05.64.63,1.76,1.75,1.71ZM196.78,90.68l-4.66-13.09c-.71-2.01-1.57-4.19-4.34-4.13l8.5,23.5c2.16-1.72,1.3-4.01.49-6.29ZM112.22,186.51c1.15.2,1.96-1.34,1.62-1.51l-59.4-29.24c.28,1.7,1.36,3.51,2.27,4.78l55.52,25.97ZM398.52,186.26l53.12-24.85c2.17-1.01,4.1-3.64,4-5.9l-21.9,10.99-36.99,18.23c-.37,1.25.5,2.13,1.76,1.53ZM105.62,189.69c.83.35,2.22.3,2.67-.2.4-.44-.36-1.36-1.96-2.06l-45.27-20.06c-.21,1.22,1.07,2.82,1.65,3.88l42.92,18.44ZM404.62,189.6l40.68-17.14c2.04-.86,4.08-2.92,3.55-5.08l-45.6,20.41c-.65.29-1.61.41-1.54,1.52.03.47.14.96,1,.92.55-.03.74-.13,1.91-.62ZM98.99,193.13c1,.39,1.99.83,2.85.71.46-.06,1.29-.7,1.23-1.38l-35.2-14.44c-.19,2.71,1.91,3.81,3.78,4.53l27.33,10.58ZM438.3,183.02c2.62-.97,4.28-2.9,5.02-5.08l-34.01,13.58-1.94,1.21c-.33.2.33,1.62,1,1.38l29.94-11.08ZM94.4,197.62c.97.32,2.01-.49,2.17-.92.13-.37-.07-1.02-.76-1.26l-22.82-7.86c.21,3.46,3.52,4.09,5.97,4.9l15.44,5.14ZM434.46,191.19c1.02-.34,2.87-2.03,2.82-3.31l-22.51,7.38c-.81.27-1,1.16-.79,1.49s1.06.85,1.8.61l18.67-6.17ZM88.95,199.6c-3.88-1.72-7.12-2.5-10.77-2.95.43,4.09,8.62,5.72,10.77,2.95ZM432.29,196.14l-10.97,3.37c2.11,2.81,10.34,1.29,10.97-3.37ZM88.88,309.69c-6.74-1.79-12.34,2.53-11,3.85.68.67,7.93-1,11-3.85ZM420.84,310.33l11.95,3.9c-.24-4.27-8.47-6.41-11.95-3.9ZM73.04,323.26l22.05-8.65c.72-.28.83-1.14.69-1.48s-1.01-.94-1.76-.67l-17.68,6.34c-1.99.71-4.16,1.64-3.3,4.46ZM437.43,322.99c.35-3.02-2.1-3.67-3.78-4.27l-14.7-5.24c-.96-.34-1.88-1.17-2.82-1-.82.14-1.94.73-2.28,1.78l23.58,8.73ZM130.83,416.45l33.84-43.94c.31-.41-1.31-.9-1.69-.58l-1.26,1.05-31.5,39.5c-1.08,1.35-.04,3.47.61,3.97ZM130.76,428.66l38.06-52.99c-.33-.13-1.57-.68-2.23-.54l-35.97,48.26c-1,1.47-.9,3.04.14,5.27ZM377.69,420.74l-33.96-45.3c-.69-.67-2.23.5-1.49,1.51l37.92,52.3c1.41-4.05-.53-5.94-2.47-8.52ZM130.44,442.62l40.98-61.41c.53-.79.64-1.34.71-1.77.08-.48-1.29-1.22-1.58-.8l-40.44,58.51c-.17,1.95-.45,3.8.33,5.47ZM379.95,442.7c.69-2.43.95-4.16.33-5.55l-41.13-59-1.28,1.09,12.65,19.32,29.43,44.14ZM131.36,456.29l44.36-71.81c.85-1.37-.98-2.66-1.55-1.76l-42.51,66.52c-1.44,2.26-3.12,5.15-.3,7.04ZM380.42,452.09l-29.87-46.98-14.85-22.67-1.62.88,28.23,46.3,17.71,28.34c.66-1.75.88-3.98.39-5.87ZM137.42,462.69l41.99-74.45c.54-.96-.24-1.88-1.58-1.54l-46.61,79.31c-1.31,2.23-1.63,3.92-.55,5.7,3.54-2.33,4.64-5.28,6.75-9.02ZM378.42,464.89l-45.77-77.76c-.87-.56-2.25.34-1.57,1.54l43.87,77.64c1.37,2.42,2.16,4.75,5.37,5.59.85-2.55-.3-4.31-1.9-7.02ZM162.32,432.84l20.77-40.22c.5-.97-.65-1.98-1.78-1.47l-39.06,72.84c3.62-.13,6.13-3.73,7.8-7.01l12.27-24.14ZM367.61,464.27c.73.47,1.36-.8,1.09-1.09-.32-.35-.79-.62-1.35-.76l-38.13-70.46c-.31-.99-.99-1.01-1.33-.92-.43.11-1.04.79-.54,1.77l35.08,68.1,5.18,3.36ZM161.08,452.13l26.14-55.67c-2.38-.67-3.13,1.43-3.92,3.05l-27.32,55.81c2.63-.03,4.31-1.51,5.1-3.19ZM339.9,425.63l-14.73-29.66c-1.23-.36-1.96.65-1.39,1.85l24.37,51.66c1.46,3.09,2.34,6.43,6.86,6.61l-15.12-30.46ZM172.58,445.07l17.81-42.44c.38-.91-1.53-1.6-1.88-.9l-.81,1.63-20.58,46.14c2.67-.52,4.7-2.61,5.46-4.43ZM343.12,449.08l-21.18-47.32c-.92-.53-2.11.17-2.03.75l16.79,39.45c1.23,2.89,2.23,7.12,6.42,7.11ZM183.48,437.16l10.91-28.76c-.72-1.57-2.21-1.65-2.37-1.14l-14,35.63c3.26-.43,4.42-2.98,5.47-5.74ZM327.99,439.78c.7,1.83,2.47,3.51,4.46,2.47l-14.8-35.95c-1.16.76-1.53,2.45-1.08,3.62l11.43,29.86ZM191.56,434.07l6.11-18.05c.23-.67-.26-1.29-.49-1.55-.29-.33-.92-.54-1.21-.35-.48.31-.59.96-.79,1.55l-7.4,21.44c1.53-.52,3.34-1.75,3.77-3.04ZM318.85,433.88c.69,2,2.14,3.72,4.12,2.78l-8.9-22.98c-2.56,2.27-.62,4.46-.08,6.04l4.86,14.16Z"/>
    <path class="st0" d="M150.84,132.12c.85-.13,1.49-.72,2.26-1.39.51-.44,1.75-.84,1.84-1.63l-23.8-29.88c-1.43-1.8-1.57-3.61-.35-4.95l27.17,34.94c1.36.39,2.58.91,4.59.61l-31.38-42.13c-1.48-1.99-1.64-4.12-.25-5.83l32.45,45.19c1.55,2.16,2.27,4.96,5.11,5.66,1.54.38,4.86,2.75,6.48,1.15,11.84-11.69,21.17-25.11,27.53-40.04l3.07-9.66c1.1.29,1.91,1.06,3.75.97-4.38,15.65-13.59,29.86-24.85,42.33l-6.94,6.99c3.36,2.37,4.68.48,6.71-1.38,16.72-15.4,27.16-34.39,32.07-56.21.91-4.06,1.47-8.97,5.81-11.95-2.14,13.27-5.34,25.72-10.75,37.57l-6.22,11.12c-4.7,8.4-11.68,14.56-18.75,21.51,3.39,2.13,5.53.64,7.69-1.36,15.13-13.99,24.94-31.38,28.83-50.98l3.55-17.92c1.22-6.16.17-13.24,5.69-18.25-4.43,33.24-6.32,63.25-33.11,87.92,2.65,1.2,4.91.65,7.37.12,12.78-11.87,19.72-27.18,23.13-43.52l1.74-8.34,1.61-9.89,3.51-29.48c.4-3.36-.74-7.14,3.46-9.78l-.36,11.21-1.56,16.74-3.74,27.66c-3.42,25.29-17.73,43.74-17.84,43.26.43,1.82,3.58.82,7.37,1.65,8.14-11.09,12.29-23.45,14.14-36.45l1.67-11.67,1.64-14.76,1.75-19.73.69-11.76.5-12.46c.12-2.91.52-6.04,3.96-7.7-1.56,5.77-.99,10.64-1.21,15.93l-.68,17.01-1.45,22.73-1.23,12.34-.71,8.39c-1.99,11.8-3.51,23.44-8.34,34.57-.54,1.25-2.1,3.32-.59,4.69,1.15,1.04,4.41,2.08,6,1.95,3.19-.27,6.04-20.99,7.21-30.47l1.05-8.44.59-12.23.83-14.67.59-22.65.96-34.95c.04-1.63.47-3.48,2.4-3.96l-.43,78.42c-.01,2.55-.21,4.57-.3,6.93l-1.39,34.48c-.17,4.33-1.91,8.59-.43,12.94l4.29,2.45,4.56-3.2-.28-12.08-.95-16.91-.62-22.73-1.02-45.48-.39-35.79c3.18,2.07,2.84,5.35,2.92,8.49l.66,28.54c.18,7.75-.14,15.45,1,23.58l.49,16.21,1.14,14.18c1.05,13.05,2.97,25.49,7.07,37.89,2.94-.77,5.3-1.35,8.2-2.96-4.86-9.35-7.46-19.14-8.82-29.31l-1.21-9.01c-.84-6.29-1.28-12.4-1.86-18.85l-1.19-13.28-.49-14.61-1.66-28.24c2.09.11,3.02,2.01,3.09,3.28,1.52,26.64,3.01,52.95,8.05,78.95,2.14,11.04,5.86,20.92,12.34,29.95,2.98,0,5.49.59,8.4-.8-13.37-13.68-18.31-39.38-20.49-57.86l-1.45-12.34c-.73-6.23-1.36-12.39-1.71-18.5-.22-3.86-1.75-7.55-.64-11.6,4.98,5.23,4.02,16.33,5.44,27.17l1.59,12.14c1.67,12.78,4.4,24.92,8.85,36.9,3.33,8.98,8.5,16.15,14.75,23.36,2.43,2.81,6.54,4,10.18,2-12.34-10.62-19.51-23.53-23.93-37.87l-4.53-18.67-1.88-11.21-2.17-18.96c4.48,4.8,4.15,10.44,5.19,15.91l2.06,10.88c4.51,23.83,11.28,42.02,30.19,59.29,2.23,2.04,4.23,3.99,7.52,1.48-16.25-14.3-26.27-31.97-31.39-51.97l-4.02-18.98c2.25,2.47,3.95,5.71,4.83,8.7l4.02,13.72c3.01,10.27,7.2,19.72,13.41,28.65,4.57,6.57,9.2,12.52,15.12,18.06,2.03,1.9,3.93,3.49,6.88,1.11-2.47-1.38-3.69-3.27-5.46-5.17-12.12-13.02-21.21-27.94-25.81-44.08,1.96-.08,2.61-.65,3.15-.44,1.19.48,1.11,1.81,1.43,2.89,5.25,17.74,15.86,32.73,29.13,46.48,5.52.77,10-2.55,12.44-7.71l32.04-44.65c1.87,1.77,1.25,3.87.55,4.79l-11,14.62-21.18,28.61c2.47.78,4.6-.93,5.99-2.71l24.92-31.88c1.01-1.03,2.88.05,2.02,1.69l-25.34,32.03c.46,1.12,1.53,1.89,2.48,2.55l21.77-26.82c1.95,3.13-.54,5.45-2.59,7.73-5.26,5.83-17.58,20.04-17.5,21.12.07.97.54,1.22,1.36,1.27.96.06,1.23-.2,1.96-1.02l16.48-18.43c1.25.66,1.34,2.74.7,3.43l-12.77,13.65c-.7.75-.96,1.12-1.1,1.93s1.69,1.53,2.8.86c4.62-2.8,7.77-9.23,10.1-9.97.63-.2,1.86,1.27,1.07,2.12l-6.43,6.89c4.94,4.89,5.64-5.37,12.66-3.58l-3.98,3.74c-.44.41-1.63.83-1.61,1.55.24,6.71,6.66-2.8,12.61-5.88.78-.4,1.69.24,1.68.97,0,.84-.53.84-1.21,1.41l-6.36,5.35c-1.85,1.55-3.48,3.46-1.95,6.47l15.33-12.92,2.1-1.17c.99-.55,2.56,1,1.85,1.59l-17.34,14.25c-.59.48-1.35,1.07-1.45,1.54-.16.72.29,1.89,1.26,2.9l21.52-17c2.8-2.21,5.43-4.37,9.56-3.3l-28.92,21.91c-1.19.9-1.54,1.31-1.88,2.02-.64,1.34-.19,2.62.67,2.88l23.95-17.46,12.1-8.72c1.56-1.12,4.18-.87,6.36-.62l-40.42,28.38-1.86,1.33c-.8.57.4,3.62,1.11,3.13l44.12-30.12c3.11-2.13,6.23-4.1,10.47-2.71l-52.1,34.28c-1.07.7-1.76,1.03-2.32,1.76-.68.89-.83,2.68.37,3.16l30.57-19.12,29.55-19.08c2.7-1.75,5.96-1.87,9.14-1.12l-67.29,40.99c-1.02.46-1.5.68-1.76,1.06-.54.8-.28,2.08.75,2.56.56.26,1.25,0,2.39-.67l70.04-41.09c2.86-1.68,5.08-3.35,8.75-3.29-1.89,4.41-5.43,5.76-9.22,7.89l-71.02,39.96c-.21.94-.3,2.69.16,3.62l72.04-38.66c-.11,2.48-2.07,4.63-3.67,5.78l-63.95,33.13c-1.52.79-4.3,1.14-4.49,2.43-.53,3.7,1.54,5.02,3.62,6.57,9.52,7.11,19.7,12.45,30.79,15.45l-.14,3.95c-11.97-3.86-22.64-9.28-32.58-17.1-.89,2.37.05,3.76.41,5.74,13.51,10.11,29.04,15.63,45.41,19.61,2.65.65,5.34,2.23,7.23,4.65-18-3.1-36.4-8.18-51.49-19.11-.43,2.44.25,4.14.58,6.19l13.33,7.16c11.82,4.74,23.67,7.7,35.97,9.61l5.06.79c4.91.76,10.38,1,13.63,5.14l-24.41-3.47c-14.32-2.04-27.95-5.8-41.38-12.93-1.76,2.14-1,5.73,1.99,6.96,12.83,5.28,25.88,8.04,39.32,10.16l11.39,1.79c4.45.7,9.38.06,14.13,1.91,4.94-.71,10.42-.22,13.79,3.71l-29.34-2.58c-16.78-1.47-32.95-4.18-49.39-9.7-1.49.29-.64,3.64-.17,5.54,13.07,4.25,27.61,6.34,42.09,7.54l44.78,3.7c1.75.14,3.64,1.58,5.03,2.75l-28.92-1.2-4.59-.23-19.28-1.29-4.18-.62c-11.46-1.71-22.43-2.08-33.95-4.65-.22,2.57.49,4.16,1.06,6.31l16.69,1.99,10.86.67c5.37.33,11.07.82,16.82.97l50.39,1.25c2.12.05,3.92,1.44,5.83,2.39l-12.42.7c-3.08.17-5.79-.35-8.67-.38l-48.28-.46-6.88-.25-21.94-.61c-1.32.59-1.64,5.14-.35,5.51,6.79,1.03,13.85.25,20.84.11l77.4-1.56c-1.07,3.27-4.84,2.17-6.99,2.78-4.91,1.39-8.7.34-13.44.51l-40.1,1.46-14.94.78-10.89.84c-3.29.25-7.39-.43-10.28,1.54-1.7,1.16-.75,5.88.91,5.42,1.96-.53,3.35-.74,5.25-1.01l4.76-.7,15.16-1.72,14.64-1.25,11.14-.5,34.27-1.9c-1.67,3.51-5.86,2.3-8.88,3.19-2.72.8-4.23.37-6.76.57l-36.13,2.86c-10.68.84-20.92,2.41-31.5,4.76-1.58.35-1.78,1.84-1.97,2.89-.32,1.74.72,3.03,2.45,2.59l11.91-2.99,23.92-3.62c6.55-.99,13.05-1.39,19.44-1.82l14.68-1c-1.36.97-3.57,2.74-5.31,3.06-3.64.44-7.65.98-11.34,1.37l-12.43,1.34c-13.19,1.42-26.09,3.6-39.02,7.72-2.16.69-3.34,2.71-2.24,5.61l10.88-3.41,12.17-2.75c3.78-.86,7.47-1.53,11.09-2.03l21.42-2.93c-3.69,3.84-8.48,4.9-13.39,5.15-2.57.13-4.97.89-7.6,1.23-11.7,1.51-22.93,4.54-33.09,8.87-.5,1.23-.28,4.91.76,4.51,11.73-4.54,22.96-8.36,36.02-9.85-4.72,5.17-12.58,5.22-20.21,8.03l-14.65,5.41c-1.22.45-1.25,1.9-1.13,2.63.11.64.82,2.23,1.58,1.91l13.43-5.68c.74,1.44.41,2.48.26,3.96-4.58,1.78-9.96,3.11-13.59,5.85-.59,2.06,0,6.63,1.53,7.75l26.61,10.62c1.57.63,2.75,1.96,2.97,4.45l-29.32-12.07c-1.15,3.02.86,4.26,3.17,5.24l26.03,11.11c2.5,1.07,5.72,1.59,5.95,5.79l-33.66-14.95c-.93,1.27-.44,2.32-.09,3.97l35.15,16.73c2.09,1,4.07,1.7,4.76,4.56,1.65-.59,1.84,1.06.49,1.64l-39.25-19.49c-1.39,3.07.39,4.21,2.46,5.29l41.69,21.83c1.1,1.49,3.54,3.39,3.02,5.61l-46.27-25.2c-.97,2.32-.18,4.3,1.52,5.28l47.15,26.91c3.9,2.22,6.22,5.39,4.77,5.67-.26.05-1.14.61-1.7.28l-50.86-29.94c-.39,1.84.16,3.04.6,4.64l39.56,24.43c-4.55,2.14-7.54-.37-10.66-2.38l-27.43-17.67c-1.98,2.46-.35,4.7,1.85,6.14l21.46,14.05c-4.18,1.65-7.02-.5-9.9-2.5l-14.86-10.29c-.63-.44-1.99,1.16-1.92,1.69.11.86.18,1.94,1.27,2.71l12.09,8.42c-2.18.47-4.71.65-6.06-.34l-8.68-6.34c-1.88-1.37-4.06-1.67-5.94.55,2.26,2,5.05,3.14,7.43,6.31-7.36.71-10.93-9.92-18.42-6.64l6.7,5.88c-2.92,1.16-4.56-.84-6.55-2.41l-5.58-4.41c-1.02-.81-3.57-.46-5.12.09l7.7,6.5c-2.8,1.62-4.29.02-5.98-1.45l-7.16-6.21c-1.31-.06-2.84.01-4.47.41l7.85,7c-2.58,1.63-4.12,0-5.81-1.52l-6.51-5.86-3.68.5,9.94,10.33c.53.56.04,2.19-.4,2.34-.51.18-1.18-.04-1.84-.75l-11.49-12.43c-1.1-1.19-3.34-1.42-4.59.19l16.17,17.16c1.63,1.73,3.41,3.37,2.01,6.31l-20.34-22.63c-.89-.99-1.41-1.88-2.14-2.07-1.62-.42-2.81-.03-3.55.79l25.53,29.22,1.11,2.43c.4.88-.83,2.33-1.46,1.58l-27.87-33.42c-.61-.74-1.35-1.05-1.95-1.04-.64,0-1.24.28-2.09,1.24l32.71,40.46c.9,1.12.82,3.2.21,5.24l-34.06-44.08c.05-1.4-.29-2.01-.46-2.5-.21-.65-2.75-1.02-3.74-.88-16.79,15.66-31.02,34.27-37.16,56.06-1.15.46-2.56-.19-2.92-.9-.55-1.08.36-2.5.67-3.47,6.04-18.75,19.46-37.26,36.4-51.15-3.12-2.16-5.66-.7-7.61,1.26l-9.15,9.21c-14.06,14.15-23.14,32-27.66,51.46-1.06,4.56-2.76,8.26-5.09,12.45.86,1.52-1.17,2.14-1.64.87l4.44-18.85c4.44-18.83,14.4-35.86,29.13-49.11l8.84-7.95c-1.92-.64-4.52-.91-5.9-.29l-7.53,6.77c-17.93,16.11-27.6,37.08-31.14,60.27l-1.27,8.33c-.33,2.14-1.14,4.35-1.25,6.64-.21,4.02-.79,7.84-4.17,10.94-1.3-3.07.16-5.35.53-7.77l3.06-20.21,1.9-9.5,4.21-14.92c3.53-12.5,10.89-23.31,20.73-32.07l9.91-8.82c-5.29-2.11-8.74.53-12.31,3.86-3.08,2.88-5.92,5.37-8.68,8.74-18.57,22.72-20.49,53.12-24,81.9l-1.21,9.9c-.2,1.64-1.71,3.55-3.01,5.21-.66-4.52.63-8.99.89-13.76.34-6.14,1.07-12.31,1.9-18.55l1.5-11.22c.27-2.03.41-4.73.87-7l3.79-18.72c3.22-15.91,12.62-29.51,24.63-41.49-2.51.29-6.96-1.22-9.1.71-19.09,17.15-22.65,44.39-24.99,69.34l-1.63,17.34-.29,4.53-1.49,17.76c-.19,2.28.92,3.89-.24,6.32-1.04,2.19.24,6.38-4.2,7.88,1.85-2.61,1.01-5.49,1.2-8.45l1.5-23.61.62-15.03c.18-4.33,1.09-8.63,1.32-13.35l.36-7.61c.1-2.13.88-5.01,1.04-7.17.32-4.39.68-8.31,1.76-12.37l4.56-17.15c1.81-6.81,4.87-12.85,9.94-18.42.77-1,.64-2.24-1.96-2.45-1.36,7.25-9.08,10.3-13.47,14.38-5,10.58-4.46,23.1-5.99,34.33l-1.14,20.6-.47,9.4-2.23,49.14c-.12,2.64.74,5-1.15,7.49.24.67-1.14,1.14-1.23.05l1.48-79.65.38-23.62c.02-1.22,1.2-2.33.71-4.18-.97-3.67.14-7.49.17-11.59l-7.98.1,1.8,38.84v12.44s.61,67.15.61,67.15c.02,2.61-2.27-.04-2.32-8.7l-.07-10.48-1.36-32.39-.22-11.15-1.51-22.7c-.35-5.3-1.02-12.46-1.8-16.85l-2.61-14.78c-.44-2.47-1.21-4.17-3.78-5.32-4.81-2.14-8.27-6.13-10.62-10.65-.55-.48-1.01-.86-1.22-1.2-.53-.87-2.65.33-2.1.99,14.21,16.74,15.84,40.68,18.5,62.51l.66,11.59,1.22,15.7,1.42,27.93c.11,2.2,1.1,4.49-.49,5.91-3.27-3.49-2.35-7.37-2.62-10.99l-1.65-22.01-1.81-20.08-1.55-14.17c-2.06-18.85-8.71-43.37-24.72-56.04-1.71-1.36-6.04-.68-8.42.52,24.66,20.74,28.26,49.18,31.37,78.93l1.57,15.06c.16,1.49.32,2.33.41,4.18l.53,10.62c.38.73-.39,1.03-.73.63-3.64-4.23-2.77-9.5-3.33-14.1l-1.48-12.2-1.87-14.43c-3.43-26.52-11.85-51.8-35.02-68.65-1.14-.83-3.54-.34-4.96.04-1-1.03-2.16.3-1.25.82l6.41,5.72c27.12,24.2,29.42,53.68,34.13,87.4.05,1.13-1.13.88-1.34.34l-2.74-6.99-1.77-11.22c-4.91-31.06-13.02-52.24-38.37-73.45-2.35-1.97-4.05-3.43-7.74-1.65l12.38,11.86c17.83,17.08,27.08,42.39,29.4,64.94-1.65-2.78-4.08-5.6-4.64-8.45-4.17-21.22-13.17-40.33-28.39-56.14l-9.4-9.76c-2.35-2.44-5.19-3.84-8.24-2.22,17.55,15.96,31.38,33.39,37.89,55.2-1.58-.09-2.6.04-3.66,1.03l-4.15-12.36c-8.02-16.63-18.92-31.17-33.16-43.61l-8.31.02-29.34,35.05c-1.76-2.62-.08-4.32,1.41-6.03l25.07-28.69c-3.36-.98-5.35.82-7.18,2.84l-17.99,19.93c-.28.78-.82.99-1.19.88-.84-.25-1.27-1.71-.51-2.55l17.71-19.58c1.6.22,1.09-1.74,0-1.15-3.12-.46-4.35.84-6.03,2.69l-10.83,11.92c-.99.44-.92-.45-1.01-.92-.22-1.12,0-2.31.77-3.08l9.18-9.08c-5.42-3.69-9.22,7.17-14.91,7.47-.29.02-.53-.9-.34-1.13l7.17-6.44c-2.7-1.39-5.35-.05-7.58,1.83l-3.67,3.1c-1.73,1.46-2.89,3.49-5.86,2.14l5.66-5.2,1.13-.71c.2-.13.3-.4-.23-.74-1.76-.52-3.65-.7-4.75.2l-6.87,5.58c-1.53,1.24-3.31,2.18-5.15.58l7.58-5.93c-9.37-2.49-13.76,10.33-18.86,5.79l7.92-5.59c-1.73-.93-3.6-.86-5.47-.98l-9.17,6.87c-1.83,1.37-4.25,1.9-6.08.54l12.98-9.27c-.89-1.48-1.6-2.25-2.75-3.07l-14.87,10.28c-2.82,1.95-5.34,4.02-9.3,2.21l23.26-15.65c.95-.64.61-3.4.15-4.38l-32.13,20.26c-1.67,1.06-4.89.68-6-.4l39.21-24.08.96-3.2-1.64-.99-46.6,27.74c-1.83,1.09-3.45,1.88-5.31,1.2.81-3.04,2.79-4.19,5.1-5.5l48.61-27.72c1.03-.59,1.3-2.43.81-2.92-.74-.74-1.84-.8-2.93-.21l-42.9,23.57c-.32,1.07-1.06.95-1.49.29-.49-.77.06-1.1.52-1.75l2.5-3.56,44.82-23.39.97-3.15c-.12-.42-.66-.7-1.43-.82l-38.85,19.42c-.19-4.46,4.36-5.92,7.73-7.51l30.72-14.46c1.09-.51,2.04-1.37,2.55-2.08s.08-3.13-.89-2.69l-33.24,15.14c-.33-3.51,2.81-4.87,5.66-6.09l26.49-11.39c1.24-.53,2.51-.72,2.85-1.59.39-1.03.52-2.62-.3-3.43l-28.13,11.72c-.7-1.73.2-3.35,1.84-4l26.08-10.39c2.5-.99,3.89-6.94,1.87-8.41-4.29-3.14-9.23-3.71-13.49-5.7.42-1.51.25-2.45.29-3.74l14.08,5.66c1.15.46,1.88-1.75,1.65-2.64-.94-3.52-21.6-9.18-30.55-11.21l-5.45-2.86c-.71-.37-1.18-.85-.51-1.52,12.3,1.92,23.88,4.8,35.07,9.97,1.63.75,2.35-1.33,2.25-2.62-.12-1.55-1.07-2.05-2.83-2.75-11.96-4.76-24.37-7.14-37.16-9.01-5.27-.77-10.51-.77-14.87-5.33l21.55,2.9c11.52,1.55,22.71,3.88,33.74,8.44.87-1.93.94-3.03,1.08-4.74-11.15-4.23-22.47-6.4-34.26-7.78l-25.95-3.03c-3.77-.44-7.55-.2-10.28-3.98l13.46,1.25,17.31,1.55c13.65,1.22,27.08,3.18,40.41,7.39.97-1.87,1.02-3.27.86-5.25-11.18-3.21-22.38-4.52-33.9-5.45l-36.09-2.93c-5.02-.41-11.51.1-15.15-3.86l6.11.66,28.7,1.3c17.04.77,33.89,2.16,50.66,5.11,1.49-1.28,2.04-4.89.78-5.66l-26.46-2.27-9.43-.58-40.9-1.35c-4.24-.14-7.41.65-11.83-.55-2.55-.69-6.63.95-8.28-2.82l80.32,1.63,16.61.13c1.98.02,3.24-3.71,2.59-5.83l-21.42.76c-3.83.14-7.17.13-11.08.17l-56.89.53-9.38-.04c1.53-2.99,4.3-2.66,6.94-2.72l28.05-.65,22.83-.64,12.8-.79c4.12-.25,8.62-.46,12.52-.84l12.84-1.26c2.21-.22,3.17-.57,4.12-2.09.61-.97,1.63-3.84-.05-4.35l-17.04,2.61-16.59,1.64-23.72,1.72-14.28.71c-4.88.24-10.43-.4-15.44.8-.28.21-1.06.98-1.49.66l-1.38-1.04c2.67-3.26,6.6-2.54,10.36-2.84l35.93-2.87c1.73-.14,2.92-.09,4.6-.3l14.39-1.79,9.28-1.58,11.62-2.63c1.6-.36,3.96-.6,5-1.84,1.43-1.71,1.71-3.93.78-5.84-16.2,6.26-32.65,8.46-49.52,10.22l-16.35,1.71c-1.31.14-2.17.28-3.73.33l-10.22.31c3.33-3.21,6.9-3.37,11.18-3.79l16.92-1.67c3.79-.37,7.95-1.26,11.57-1.69,14.66-1.77,28.97-5.18,42.27-11.62.03-2.29.19-3.72-.53-5.87l-6.98,3.68c-9.09,4.79-19.18,7.17-29.35,8.66l-30.14,4.42c3.2-4.12,8.65-4.75,13.57-5.24l4.64-.46,13.64-2.84c12.61-2.62,24.61-6.31,35.42-13.94,1.67-1.18,2.28-4.03,1.26-6.38-13.44,9.49-28.42,14.69-44.06,17.81-2.57.51-4.98,1.57-8.12.51l8.7-4.13c16.38-3.29,31.51-9.54,45-19.72.32-1.83,1.21-3.33.17-5.52-9.17,7.36-19.34,12.86-30,16.86-.88-.31-1.82-1.34-2.37-3.55,11.7-2.65,21.27-9.17,31.35-16.22,1.75-1.22,4.5-5.27,2.52-6.29l-34.19-17.53-34.61-18.11c-1.05-1.27-2.47-2.97-2.5-5.27l35.43,19.25,34.44,18.38c.74.4,1.6.73,2.05.68.47-.06,1.23-.76,1.31-1.23.13-.82-.61-1.51-1.71-2.13l-77.62-43.89c-.71-.4-1.44-3.25-1.51-3.66,1.94-.41,3.42.47,5.08,1.45l55.39,32.68,19.72,11.25c.77.44,1.2-1.36,1.09-1.96-.2-1.18-.76-1.48-2.18-2.35l-66.27-40.47c2.92-1.6,6.35-.34,9.04,1.37l58.91,37.42c.72.46,1.18-.36,1.39-.61.31-.38.46-1.98-.1-2.38l-54.44-36.03c4.22-1.33,7.25.68,10.38,2.85l42.28,29.29c.73.5,1.53.8,2.21.07.32-.34.37-.79.53-2.3l-41.16-29.32c-.78-.33-.41-1.04.05-.94,3.14-.07,5.36.62,7.64,2.33l33,24.66c.79.59,1.77-1.31,1.6-1.96-.25-.99-.36-1.47-1.48-2.32l-27.64-21.17c-.7-.54.06-1.48.87-1.01,1.92-.9,2.66.06,3.67.85l24.5,19.21c.53.41,2.07-1.6,1.9-2.22-.28-1.02-.97-1.61-2.15-2.55l-17.59-13.98c-1.34-.14-.82-1.57.34-1.14,1.85-1.07,2.73-.13,3.68.67l15.15,12.76c1.06-1.24.98-2.3,1.13-3.1.27-1.4-1.15-1.7-2.05-2.46l-8.14-6.84c.87-4.47,6.22,1.71,11.83,6.52.6.51,3.08-1.29,2.63-1.74l-5.6-5.74c3.7-1.22,4.92,1.54,7.08,3.22l2.58,2c.51.39,1.83-.17,2.82-1.34l-6.24-7.16c-.6-.69-.03-1.53.57-1.6.82-.1,1.04.17,1.77.9l8.6,8.49c1.02.25,2.42.29,3.42-.59l-12.4-13.27c-.98-1.05-1.86-2.47-2.27-3.89-.39-1.35.77-1.96,1.41-1.24l15.23,17.14c.88.99,1.67,1.6,3.05,1.3.86-.19,1.26-1.28,1.18-2.32ZM215.71,342.67l13.42-.61,24.03-1.84-.04-190.26c-12.26-9.53-27.53-12.73-42.57-11.05l-16.27,1.81c-17.54,1.95-33.41-7.1-36.25-6.13-.55.19-1.9,8.81-2.77,15.03l-9.62,68.99-1.19,7.83-16.98,120.69c4.68-.02,8.7.85,12.47-.16,5.38-1.44,10.91-.8,16.1-1.05l14.09-.68,14.8-.97,14.14-.6c4.9-.21,10.77-.73,16.62-.99ZM381.61,337.79l-.89-6.15c-.92-6.34-1.66-12.72-2.55-18.5l-1.35-8.78-1.93-14.52-8.34-58.99-1.68-11.58-1.6-11.57-1.64-12.37-1.69-12.36-1.64-11.54-1.66-12.31-1.63-10.75-1.64-10.86c-.14-.9-.21-2.57-.88-2.93-.87-.47-2.38-.27-3.23.12-7.34,3.42-22.1,7.02-28.41,6.35l-23.97-2.56c-14.22-1.52-28.44,3.26-39.86,11.35l.03,190.41,24.56,1.71,15.38.6,16.47,1.21,17.23.67,10.36.87,14.25.55,16.06,1.1c3.65.25,7.14.26,11.1.08l-.87-9.26ZM391.41,209.55l-4.71-28.86-1.99-12.79-3.3-22.04c-.39-2.62-1.76-5.21-4.62-5.4l-14.43-.98,8.54,7.36,30.43,214.26-27.84-1.17-27.94-1.47-18.14-1.04-15.84-.72-40.24-2.77c-4.23-3.11-8.87-7.9-13.98-9.83-1.04-.25-3.89-.36-4.96-.12-4.85,2.56-9.79,6.28-13.9,10.19l-9.44.95c-1.9.19-2.96.09-4.64.19l-26.57,1.5-14.29.67-18.4,1.06-28.04,1.45-27.21,1.28c-.73-3.53.02-5.66.42-8.01l.76-4.47c.79-4.66,1.15-8.9,1.85-13.83l11.26-79.32c.82-5.8,1.47-12.08,2.4-17.58l1.17-6.98c1.51-8.99,2.59-19.46,3.92-28.85l7.09-50.31.86-5.44,8.13-6.89-14.03.9c-1.35.09-3.85.62-4.16,2.63l-11.41,73.43-22.99,145.12c-.56,3.56,1.47,6.4,5.02,6.79,4.33.48,8.79.19,13.22-.04l25.96-1.37c2.61-.14,4.67-.17,7.11-.3l17-.94,15.83-.7,17.99-1.13,15.1-.48c4.14-.94,7.7-.62,12.14-.69,2.15-.03,5.3-1.99,7.47.01.79.73,2.48,13.71,21.66,15.25.49.03,1.72,1.24,2.44.63,1.81-1.54,15.09-.33,21.86-14.08.38-.77-.15-2.16.4-2.33.38-.12,1.45-.37,2.08-.33l20.82,1.57,11.33.26,19.25,1.32,15.04.66,20.86,1.08,29.11,1.66,9.72.19c2.9.06,4.91-.26,6.67-2.01s1.99-4.3,1.57-7.01l-4.93-32.06-1.19-6.74c-.35-1.97-.56-4.25-.87-6.22l-7.85-49.8c-.24-1.55-.45-2.73-.67-4.14l-4.45-28.02c-.62-3.88-1-7.51-1.78-11.6l-1.11-5.79-.6-5.73Z"/>
    <path class="st15" d="M378.42,464.89c1.59,2.71,2.75,4.47,1.9,7.02-3.21-.84-4-3.17-5.37-5.59l-43.87-77.64c-.68-1.2.71-2.1,1.57-1.54l45.77,77.76Z"/>
    <path class="st15" d="M178.87,121.32c.82,1.47.95,2.81-.59,3.24l-47.88-81.43c-.54-.92-.4-1.58-.51-2.15-.14-.75,1.1-1.67,1.85-1.07,3.49,2.77,5.04,6.51,7.19,10.33l39.94,71.07Z"/>
    <path class="st15" d="M137.42,462.69c-2.11,3.74-3.2,6.69-6.75,9.02-1.07-1.78-.75-3.47.55-5.7l46.61-79.31c1.34-.34,2.12.58,1.58,1.54l-41.99,74.45Z"/>
    <path class="st15" d="M380.42,452.09c.49,1.89.27,4.12-.39,5.87l-17.71-28.34-28.23-46.3,1.62-.88,14.85,22.67,29.87,46.98Z"/>
    <path class="st15" d="M131.36,456.29c-2.82-1.9-1.14-4.79.3-7.04l42.51-66.52c.57-.9,2.4.39,1.55,1.76l-44.36,71.81Z"/>
    <path class="st15" d="M173.59,126.97l-42.44-66.53c-1.58-2.47-2.02-5.1,0-6.87l44.44,72.67c.53.87.06,1.66-.31,1.77-.4.12-1.01.03-1.69-1.04Z"/>
    <path class="st8" d="M367.61,464.27l-5.18-3.36-35.08-68.1c-.5-.98.11-1.65.54-1.77.34-.09,1.02-.07,1.33.92l38.13,70.46c.56.13,1.03.41,1.35.76.26.29-.36,1.57-1.09,1.09Z"/>
    <path class="st4" d="M182.28,116.33c.48.93.73,1.6.82,2.16.14.86-.52,1.74-1.24,1.92l-39.37-73.31c3.55-.09,5.49,2.8,7.01,5.74l32.78,63.49Z"/>
    <path class="st10" d="M162.32,432.84l-12.27,24.14c-1.67,3.29-4.18,6.88-7.8,7.01l39.06-72.84c1.13-.52,2.29.49,1.78,1.47l-20.77,40.22Z"/>
    <path class="st2" d="M339.89,131.11c-.97,1.51-2.5.78-1.87-.72l41.74-62.99c2.37,3.43.08,6.45-2.01,9.45l-37.85,54.25Z"/>
    <path class="st10" d="M130.44,442.62c-.78-1.67-.5-3.52-.33-5.47l40.44-58.51c.29-.42,1.67.33,1.58.8-.08.43-.19.98-.71,1.77l-40.98,61.41Z"/>
    <path class="st15" d="M170.36,131.66l-24.13-35.19-15.83-23.06c-.99-1.45-.9-4.4-.12-6.02l35.34,53.13,5.83,9.15c.42.66.74,1.08.62,1.6-.14.58-1.19,1.14-1.71.38Z"/>
    <path class="st7" d="M379.95,442.7l-29.43-44.14-12.65-19.32,1.28-1.09,41.13,59c.62,1.39.36,3.12-.33,5.55Z"/>
    <path class="st7" d="M186.93,113.58c.33.71-.74,1.27-1.06,1.25-.67-.04-1.11-.47-1.57-1.4l-28.81-58.76c2.03-.1,4.34,1.27,5.08,2.64l26.36,56.27Z"/>
    <path class="st4" d="M325.57,113.81c-.68,1.37-2.72.81-2.42.16l25.79-55.17c1.6-3.43,5.7-5.71,6.45-4.57.34.51-.24,1.14-.9,1.26l-28.92,58.32Z"/>
    <path class="st10" d="M161.08,452.13c-.79,1.67-2.47,3.16-5.1,3.19l27.32-55.81c.79-1.61,1.54-3.71,3.92-3.05l-26.14,55.67Z"/>
    <path class="st7" d="M398.52,186.26c-1.27.59-2.13-.28-1.76-1.53l36.99-18.23,21.9-10.99c.1,2.26-1.83,4.88-4,5.9l-53.12,24.85Z"/>
    <path class="st14" d="M112.22,186.51l-55.52-25.97c-.9-1.27-1.98-3.08-2.27-4.78l59.4,29.24c.35.17-.46,1.71-1.62,1.51Z"/>
    <path class="st15" d="M339.9,425.63l15.12,30.46c-4.52-.18-5.41-3.53-6.86-6.61l-24.37-51.66c-.57-1.2.16-2.21,1.39-1.85l14.73,29.66Z"/>
    <path class="st7" d="M377.69,420.74c1.93,2.58,3.88,4.46,2.47,8.52l-37.92-52.3c-.74-1.01.8-2.19,1.49-1.51l33.96,45.3Z"/>
    <path class="st7" d="M130.76,428.66c-1.04-2.23-1.14-3.8-.14-5.27l35.97-48.26c.66-.14,1.9.42,2.23.54l-38.06,52.99Z"/>
    <path class="st14" d="M404.62,189.6c-1.17.49-1.37.6-1.91.62-.86.05-.97-.45-1-.92-.07-1.1.89-1.23,1.54-1.52l45.6-20.41c.53,2.16-1.51,4.22-3.55,5.08l-40.68,17.14Z"/>
    <path class="st7" d="M172.58,445.07c-.76,1.82-2.8,3.92-5.46,4.43l20.58-46.14.81-1.63c.35-.7,2.26-.02,1.88.9l-17.81,42.44Z"/>
    <path class="st7" d="M190.51,108.16c.12,1.37-1.6,2.15-2.05.5l-20.14-44.99c-.31-.69.03-1.85.28-2.39,2.89,1.79,4.34,4.71,5.7,7.98l16.22,38.9Z"/>
    <path class="st4" d="M321.88,108.54c-.12,1.87-2.52,1.44-2.23-.22l18.32-43.06c.98-2.29,2.34-4.16,5.15-3.99l-21.24,47.27Z"/>
    <path class="st7" d="M343.12,449.08c-4.19.02-5.19-4.22-6.42-7.11l-16.79-39.45c-.08-.59,1.11-1.28,2.03-.75l21.18,47.32Z"/>
    <path class="st5" d="M130.83,416.45c-.65-.5-1.69-2.62-.61-3.97l31.5-39.5,1.26-1.05c.38-.32,2,.17,1.69.58l-33.84,43.94Z"/>
    <path class="st7" d="M105.62,189.69l-42.92-18.44c-.58-1.06-1.86-2.66-1.65-3.88l45.27,20.06c1.6.71,2.36,1.62,1.96,2.06-.45.5-1.84.55-2.67.2Z"/>
    <path class="st10" d="M327.99,439.78l-11.43-29.86c-.45-1.17-.08-2.86,1.08-3.62l14.8,35.95c-1.99,1.05-3.75-.64-4.46-2.47Z"/>
    <path class="st4" d="M183.48,437.16c-1.05,2.77-2.21,5.31-5.47,5.74l14-35.63c.17-.51,1.65-.43,2.37,1.14l-10.91,28.76Z"/>
    <path class="st15" d="M438.3,183.02l-29.94,11.08c-.67.25-1.32-1.18-1-1.38l1.94-1.21,34.01-13.58c-.74,2.18-2.4,4.11-5.02,5.08Z"/>
    <path class="st15" d="M98.99,193.13l-27.33-10.58c-1.87-.72-3.97-1.83-3.78-4.53l35.2,14.44c.05.68-.77,1.32-1.23,1.38-.86.12-1.84-.32-2.85-.71Z"/>
    <path class="st1" d="M153.11,130.73c-.78.67-1.41,1.26-2.26,1.39l-18.98-21.3c-1.04-1.18-1.76-1.84-1.91-3.11-.16-1.37.34-2.64,1.27-2.65l19.8,24.49c.64.79,1.39,1.03,2.08,1.18Z"/>
    <path class="st16" d="M314.11,96.29c-1.11.05-1.7-1.07-1.75-1.71-.06-.8.48-1.28.79-2.14l6.81-18.72c.18-.49,1.73-1.16,2.12-.99.88.38.96.71.49,1.9l-8.47,21.66Z"/>
    <path class="st7" d="M73.04,323.26c-.86-2.83,1.31-3.75,3.3-4.46l17.68-6.34c.75-.27,1.62.33,1.76.67s.03,1.2-.69,1.48l-22.05,8.65Z"/>
    <path class="st15" d="M94.4,197.62l-15.44-5.14c-2.44-.81-5.76-1.44-5.97-4.9l22.82,7.86c.69.24.89.89.76,1.26-.16.44-1.21,1.25-2.17.92Z"/>
    <path class="st12" d="M437.43,322.99l-23.58-8.73c.34-1.05,1.46-1.64,2.28-1.78.95-.17,1.87.66,2.82,1l14.7,5.24c1.69.6,4.13,1.25,3.78,4.27Z"/>
    <path class="st7" d="M196.78,90.68c.81,2.28,1.67,4.56-.49,6.29l-8.5-23.5c2.77-.06,3.62,2.12,4.34,4.13l4.66,13.09Z"/>
    <path class="st4" d="M434.46,191.19l-18.67,6.17c-.74.24-1.6-.28-1.8-.61s-.03-1.23.79-1.49l22.51-7.38c.05,1.28-1.8,2.98-2.82,3.31Z"/>
    <path class="st6" d="M191.56,434.07c-.44,1.29-2.25,2.52-3.77,3.04l7.4-21.44c.2-.59.31-1.23.79-1.55.29-.19.92.02,1.21.35.22.26.71.88.49,1.55l-6.11,18.05Z"/>
    <path class="st7" d="M318.85,433.88l-4.86-14.16c-.54-1.58-2.48-3.77.08-6.04l8.9,22.98c-1.98.94-3.43-.78-4.12-2.78Z"/>
    <path class="st15" d="M88.88,309.69c-3.07,2.86-10.31,4.53-11,3.85-1.34-1.32,4.25-5.64,11-3.85Z"/>
    <path class="st7" d="M88.95,199.6c-2.15,2.76-10.34,1.14-10.77-2.95,3.65.45,6.89,1.24,10.77,2.95Z"/>
    <path class="st15" d="M420.84,310.33c3.48-2.51,11.71-.37,11.95,3.9l-11.95-3.9Z"/>
    <path class="st9" d="M432.29,196.14c-.62,4.66-8.86,6.17-10.97,3.37l10.97-3.37Z"/>
    <path class="st13" d="M381.61,337.79l.87,9.26c-3.96.18-7.45.17-11.1-.08l-16.06-1.1-14.25-.55-10.36-.87-17.23-.67-16.47-1.21-15.38-.6-24.56-1.71-.03-190.41c11.43-8.09,25.65-12.87,39.86-11.35l23.97,2.56c6.31.67,21.07-2.93,28.41-6.35.84-.39,2.35-.59,3.23-.12.66.35.74,2.03.88,2.93l1.64,10.86,1.63,10.75,1.66,12.31,1.64,11.54,1.69,12.36,1.64,12.37,1.6,11.57,1.68,11.58,8.34,58.99,1.93,14.52,1.35,8.78c.89,5.78,1.63,12.16,2.55,18.5l.89,6.15Z"/>
    <path class="st13" d="M215.71,342.67c-5.85.27-11.72.79-16.62.99l-14.14.6-14.8.97-14.09.68c-5.19.25-10.72-.4-16.1,1.05-3.77,1.01-7.79.15-12.47.16l16.98-120.69,1.19-7.83,9.62-68.99c.87-6.22,2.22-14.84,2.77-15.03,2.84-.97,18.71,8.09,36.25,6.13l16.27-1.81c15.04-1.68,30.31,1.53,42.57,11.05l.04,190.26-24.03,1.84-13.42.61Z"/>
    <path class="st3" d="M391.41,209.55l.6,5.73,1.11,5.79c.78,4.09,1.17,7.73,1.78,11.6l4.45,28.02c.22,1.42.43,2.59.67,4.14l7.85,49.8c.31,1.97.52,4.25.87,6.22l1.19,6.74,4.93,32.06c.42,2.71.14,5.32-1.57,7.01s-3.77,2.07-6.67,2.01l-9.72-.19-29.11-1.66-20.86-1.08-15.04-.66-19.25-1.32-11.33-.26-20.82-1.57c-.63-.05-1.7.21-2.08.33-.54.17-.02,1.57-.4,2.33-6.77,13.75-20.05,12.54-21.86,14.08-.72.61-1.95-.6-2.44-.63-19.18-1.54-20.87-14.52-21.66-15.25-2.17-2-5.32-.05-7.47-.01-4.45.06-8-.25-12.14.69l-15.1.48-17.99,1.13-15.83.7-17,.94c-2.44.14-4.51.17-7.11.3l-25.96,1.37c-4.43.23-8.89.52-13.22.04-3.56-.39-5.59-3.23-5.02-6.79l22.99-145.12,11.41-73.43c.31-2.01,2.82-2.54,4.16-2.63l14.03-.9-8.13,6.89-.86,5.44-7.09,50.31c-1.32,9.38-2.41,19.86-3.92,28.85l-1.17,6.98c-.93,5.5-1.57,11.78-2.4,17.58l-11.26,79.32c-.7,4.93-1.06,9.17-1.85,13.83l-.76,4.47c-.4,2.35-1.15,4.49-.42,8.01l27.21-1.28,28.04-1.45,18.4-1.06,14.29-.67,26.57-1.5c1.68-.09,2.74,0,4.64-.19l9.44-.95c4.11-3.91,9.06-7.62,13.9-10.19,1.07-.23,3.93-.13,4.96.12,5.11,1.94,9.75,6.72,13.98,9.83l40.24,2.77,15.84.72,18.14,1.04,27.94,1.47,27.84,1.17-30.43-214.26-8.54-7.36,14.43.98c2.86.19,4.23,2.78,4.62,5.4l3.3,22.04,1.99,12.79,4.71,28.86Z"/>
  </g>
</svg>