<?xml version="1.0" encoding="UTF-8"?>
<!DOCTYPE svg PUBLIC "-//W3C//DTD SVG 1.1//EN" "http://www.w3.org/Graphics/SVG/1.1/DTD/svg11.dtd">
<!-- Creator: CorelDRAW (Versão OEM) -->
<svg xmlns="http://www.w3.org/2000/svg" xml:space="preserve" width="210mm" height="297mm" version="1.1" style="shape-rendering:geometricPrecision; text-rendering:geometricPrecision; image-rendering:optimizeQuality; fill-rule:evenodd; clip-rule:evenodd"
viewBox="0 0 2100 2970"
 xmlns:xlink="http://www.w3.org/1999/xlink"
 xmlns:xodm="http://www.corel.com/coreldraw/odm/2003">
 <defs>
  <style type="text/css">
   <![CDATA[
    .str0 {stroke:black;stroke-width:15;stroke-miterlimit:22.9256}
    .fil0 {fill:#1E2A50}
    .fil1 {fill:#373435;fill-rule:nonzero}
    .fil3 {fill:url(#id0)}
    .fil2 {fill:url(#id1)}
   ]]>
  </style>
  <linearGradient id="id0" gradientUnits="userSpaceOnUse" x1="685.335" y1="1343.845" x2="1544.308" y2="1839.567">
   <stop offset="0" style="stop-opacity:1; stop-color:#E0E0E0"/>
   <stop offset="0.301961" style="stop-opacity:1; stop-color:white"/>
   <stop offset="0.701961" style="stop-opacity:1; stop-color:#999999"/>
   <stop offset="1" style="stop-opacity:1; stop-color:#555555"/>
  </linearGradient>
  <linearGradient id="id1" gradientUnits="userSpaceOnUse" xlink:href="#id0" x1="628.904" y1="1343.845" x2="1487.878" y2="1839.568">
  </linearGradient>
 </defs>
 <g id="Camada_x0020_1">
  <metadata id="CorelCorpID_0Corel-Layer"/>
  <g id="_2353020753920">
   <path class="fil0 str0" d="M1168.216 1802.311l-49.335 -92.312 -86.625 -163.147 -106.038 -196.52 -37.332 -68.666 -79.1 -143.788c1.278,0.914 2.27,0.746 3.016,0.354l52.03 88.304 91.67 156.717 71.458 125.214 59.924 106.062 141.073 249.82c11.692,20.647 102.811,167.425 109.098,199.609 0.299,1.533 -6.121,-3.676 -11.324,-2.477 -5.721,1.317 -10.308,8.988 -10.701,9.337 -0.431,0.307 -89.22,-167.3 -91.459,-170.577 -13.241,-19.378 -52.822,-91.405 -56.355,-97.93z"/>
   <path class="fil1 str0" d="M1164.724 1804.174l-49.336 -92.313 -0.015 0 -86.625 -163.146 0.006 -0.003 -106.029 -196.502 0.006 -0.003 -37.316 -68.635 -0.007 0.004 -87.528 -159.111 13.803 9.886 2.619 -1.373 53.946 91.556c54.966,93.97 109.213,187.45 163.159,281.977l0 0.016 59.923 106.061 141.067 249.808 0.006 -0.004c2.202,3.888 7.201,12.216 13.911,23.398 29.162,48.585 90.406,150.624 95.637,177.407 0.562,2.869 -0.611,4.41 -3.269,4.936l-0.016 0c-1.54,0.3 -2.763,-0.266 -4.445,-1.043 -1.803,-0.833 -4.716,-2.179 -6.605,-1.744 -3.389,0.781 -6.778,5.573 -7.898,7.157 -0.388,0.548 -0.638,0.902 -1.064,1.28l-0.214 0.189 -0.082 0.059c-2.198,1.599 -4.028,1.239 -5.599,-0.961 -1.293,-1.814 -25.31,-46.876 -48.472,-90.334 -21.371,-40.099 -42.011,-78.825 -42.991,-80.259 -4.67,-6.836 -12.642,-20.259 -21.171,-35.081 -15.752,-27.373 -33.131,-59.012 -35.401,-63.207l0 -0.015zm-42.347 -96.032l49.326 92.294 0.006 -0.004c2.311,4.268 19.837,36.189 35.277,63.021 8.377,14.558 16.224,27.767 20.861,34.553 1.152,1.686 21.921,40.655 43.426,81.004 18.877,35.419 38.323,71.904 45.292,84.71 2.298,-2.518 5.499,-5.233 9.281,-6.105 2.185,-0.503 4.347,-0.286 6.309,0.215 -11.83,-33.334 -65.866,-123.364 -92.64,-167.973 -6.764,-11.27 -11.802,-19.664 -14.004,-23.553l0 -0.015 -141.073 -249.82 -59.917 -106.049 -0.007 0.003 -71.459 -125.214 -47.811 -81.746 24.451 44.975 0.016 0.015 106.038 196.521 0.015 0.015 86.625 163.146 -0.012 0.007z"/>
   <path class="fil2 str0" d="M1212.692 1886.432c34.602,60.203 65.724,123.663 98.04,185.326 4.855,9.273 16.981,19.42 25.394,14.845 4.166,-2.263 6.773,-6.173 7.812,-10.798 2.704,-12.225 -2.694,-21.97 -8.535,-32.245l-46.963 -82.849 -50.524 -87.429c27.515,-11.375 51.279,-39.594 62.558,-67.006 -13.844,9.961 -24.044,20.573 -39.056,28.892 17.56,-29.642 35.427,-58.977 25.733,-94.183 -5.257,-19.114 -11.816,-38.589 -24.412,-53.974l-10.631 -12.957c0.135,-10.319 -4.604,-18.868 -10.283,-27.223l-12.657 -18.612 -15.457 -24.68c-10.487,18.937 -16.377,37.347 -30.026,54.031 8.404,-27.968 16.394,-54.528 21.038,-83.721l-47.843 -110.408c-6.374,-14.706 -12.641,-28.502 -21.796,-42.263 -13.613,26.731 -24.462,52.253 -42.087,76.307 12.413,-32.803 24.51,-65.114 29.692,-99.938l-23.668 -31.642c-9.25,-12.361 -20.194,-22.463 -33.86,-30.495 -8.844,-28.906 -28.039,-52.709 -54.57,-67.036 -3.72,-2.002 -5.388,-5.801 -6.91,-9.709 -17.067,-43.812 -52.152,-84.101 -99.074,-89.067 -11.212,-16.576 -24.608,-30.071 -42.917,-37.397 -2.934,-1.16 -5.874,-2.396 -8.046,-5.06 -11.31,-13.894 -25.653,-25.522 -43.023,-30.272 -18.334,-5.024 -33.476,6.306 -36.957,24.516 -3.099,16.146 -1.429,32.72 4.239,48.306 3.197,8.787 2.754,16.419 1.971,25.21 -1.396,15.562 4.27,30.032 10.289,44.871 -5.686,17.659 -9.339,35.657 -5.873,54.171 5.157,27.585 18.132,52.045 36.619,73.238 2.111,2.419 45.764,19.123 48.016,21.458 -0.133,1.989 -41.68,-10.357 -41.704,-8.391 -0.359,29.425 11.387,56.164 32.675,77.292 3.643,33.136 15.114,63.511 33.134,91.472 5.062,7.847 12.263,14.204 16.673,22.131 0.766,1.378 59.503,14.49 60.075,15.98 1.009,2.625 -56.027,-6.439 -55.004,-3.829 15.35,39.161 32.429,76.723 54.178,112.756 4.551,7.555 8.445,12.521 16.974,15.7 31.343,11.6 63.353,16.569 98.729,21.534 -29.215,8.277 -58.288,7.221 -88.568,5.764l53.693 89.5 53.363 10.328c-14.77,3.798 -28.793,4.193 -43.588,5.272l8.485 11.132c17.999,23.588 44.181,35.761 73.912,34.776l26.442 -0.878c-12.308,9.147 -25.474,13.797 -38.904,20.342 -1.111,1.099 -0.38,2.566 1.255,2.194 22.511,-0.196 44.067,-3.862 65.126,-15.709l-3.621 29.569 17.61 -30.992c1.833,-3.205 1.89,-5.184 2.832,-8.15z"/>
   <path class="fil0" d="M1168.216 1802.311l-49.335 -92.312 -86.625 -163.147 -106.038 -196.52 -37.332 -68.666 -79.1 -143.788c1.278,0.914 2.27,0.746 3.016,0.354l52.03 88.304 91.67 156.717 71.458 125.214 59.924 106.062 141.073 249.82c11.692,20.647 102.811,167.425 109.098,199.609 0.299,1.533 -6.121,-3.676 -11.324,-2.477 -5.721,1.317 -10.308,8.988 -10.701,9.337 -0.431,0.307 -89.22,-167.3 -91.459,-170.577 -13.241,-19.378 -52.822,-91.405 -56.355,-97.93z"/>
   <path class="fil0 str0" d="M1004.996 1802.311l13.92 -26.047 -12.837 -21.398 -61.824 109.482c-11.692,20.648 -102.811,167.426 -109.098,199.61 -0.299,1.533 6.121,-3.676 11.324,-2.477 5.721,1.317 10.308,8.988 10.701,9.337 0.431,0.307 89.22,-167.3 91.459,-170.577 13.241,-19.378 52.822,-91.405 56.355,-97.93zm33.345 -62.394l6.856 -12.828c-7.106,-1.28 -14.105,-2.679 -21.025,-4.261l-9.585 16.973c7.976,0.252 15.886,0.347 23.754,0.116zm131.771 -247.1l76.882 -142.485 37.333 -68.666 79.099 -143.788c-1.278,0.914 -2.27,0.745 -3.016,0.354l-52.031 88.305 -91.669 156.716 -53.473 93.699 6.875 15.865z"/>
   <path class="fil1 str0" d="M1001.509 1800.436l12.857 -24.057 -8.187 -13.646 -58.478 103.556 0 0.015c-2.202,3.889 -7.24,12.283 -14.004,23.553 -26.774,44.609 -80.81,134.639 -92.64,167.973 1.962,-0.501 4.124,-0.718 6.309,-0.215 3.782,0.872 6.983,3.587 9.281,6.105 6.969,-12.806 26.415,-49.291 45.292,-84.71 21.505,-40.349 42.274,-79.318 43.426,-81.004 4.637,-6.786 12.484,-19.995 20.861,-34.553 15.44,-26.832 32.966,-58.753 35.277,-63.021l0.006 0.004zm20.9 -22.309l-13.921 26.047 0 0.015c-2.27,4.195 -19.649,35.834 -35.401,63.207 -8.529,14.822 -16.501,28.245 -21.171,35.081 -0.98,1.434 -21.62,40.16 -42.991,80.259 -23.162,43.458 -47.179,88.52 -48.472,90.334 -1.577,2.208 -3.486,2.498 -5.599,0.961l-0.081 -0.059 -0.215 -0.189c-0.428,-0.379 -0.676,-0.732 -1.064,-1.28 -1.12,-1.584 -4.509,-6.376 -7.898,-7.157 -1.889,-0.435 -4.802,0.911 -6.605,1.744 -1.682,0.777 -2.907,1.342 -4.445,1.043l-0.016 0c-2.663,-0.527 -3.831,-2.067 -3.269,-4.936 5.231,-26.783 66.475,-128.822 95.637,-177.407 6.71,-11.182 11.709,-19.51 13.911,-23.398l0.006 0.004 65.165 -115.397 17.487 29.148 -1.058 1.98zm13.528 -42.11l3.218 -6.021c-1.773,-0.338 -3.544,-0.685 -5.316,-1.043 -2.666,-0.538 -5.226,-1.076 -7.673,-1.614l-4.897 8.673c1.766,0.034 3.517,0.058 5.251,0.07 3.132,0.02 6.27,0.002 9.417,-0.065zm12.753 -7.065l-7.94 14.856 -2.3 0.068c-3.95,0.116 -7.94,0.15 -11.961,0.123 -4.056,-0.027 -8.057,-0.114 -12.027,-0.239l-6.536 -0.207 14.258 -25.248 2.873 0.658c3.625,0.829 7.06,1.567 10.334,2.228 3.454,0.698 6.957,1.363 10.505,2.002l5.357 0.964 -2.563 4.795zm121.807 -245.199l73.004 -135.3 0.016 -0.015 24.451 -44.975 -47.814 81.745 -52.496 91.993 2.839 6.552zm79.984 -131.546l0.006 0.003 -80.759 149.67 -10.91 -25.178c48.224,-84.521 96.994,-168.137 146.146,-252.168l53.947 -91.556 2.619 1.373 13.797 -9.876 -87.523 159.101 -0.007 -0.004 -37.316 68.635z"/>
   <path class="fil3 str0" d="M960.52 1886.432c-34.602,60.203 -65.724,123.662 -98.04,185.326 -4.855,9.273 -16.981,19.42 -25.394,14.845 -4.166,-2.263 -6.772,-6.173 -7.812,-10.798 -2.704,-12.225 2.694,-21.97 8.534,-32.245l46.964 -82.849 50.524 -87.429c-27.515,-11.375 -51.279,-39.594 -62.558,-67.005 13.844,9.96 24.044,20.572 39.056,28.891 -17.56,-29.642 -35.427,-58.977 -25.732,-94.183 5.256,-19.114 11.815,-38.589 24.411,-53.974l10.631 -12.957c-0.135,-10.319 4.603,-18.868 10.283,-27.223l6.736 -9.905c9.408,20.152 19.702,39.857 31.331,59.124 4.552,7.555 8.446,12.521 16.975,15.7 31.343,11.6 63.353,16.569 98.728,21.534 -29.214,8.277 -58.287,7.221 -88.567,5.764l53.693 89.5 36.574 7.079 -16.788 3.249c5.678,1.46 11.245,2.416 16.788,3.103 -8.876,1.099 -17.692,1.505 -26.799,2.169l8.484 11.131c5.408,7.088 11.556,13.142 18.315,18.122 -15.738,11.592 -34.798,17.345 -55.597,16.655l-26.442 -0.878c12.308,9.147 25.474,13.797 38.904,20.342 1.111,1.099 0.38,2.566 -1.255,2.195 -22.511,-0.197 -44.067,-3.863 -65.125,-15.71l3.62 29.569 -17.61 -30.992c-1.833,-3.205 -1.89,-5.184 -2.832,-8.15zm126.337 -534.958c6.286,-6.073 13.284,-11.415 21.194,-16.064 8.844,-28.906 28.039,-52.709 54.57,-67.036 3.72,-2.002 15.208,14.319 23.437,31.25 -7.783,-14.259 -15.025,-44.722 -14.226,-46.589 17.804,-41.582 51.869,-78.684 96.774,-83.437 11.211,-16.576 24.607,-30.071 42.916,-37.397 2.934,-1.16 5.874,-2.396 8.046,-5.06 11.31,-13.894 25.653,-25.522 43.023,-30.272 18.334,-5.024 33.476,6.306 36.957,24.516 3.099,16.146 1.429,32.72 -4.239,48.306 -3.197,8.787 -2.754,16.419 -1.971,25.21 1.053,11.736 -1.911,22.853 -6.013,33.972 -1.337,3.625 -50.595,35.323 -52.074,38.971 22.532,-10.621 50.38,-28.409 51.316,-24.837 3.727,14.228 5.125,36.138 2.355,50.936 -5.746,30.735 -21.197,57.591 -43.166,80.371 2.124,31.762 -9.73,60.687 -32.441,83.226 -3.642,33.137 -15.113,63.511 -33.133,91.472 -5.943,9.212 -14.83,16.368 -18.695,26.424 -8.051,20.947 -16.535,41.44 -25.895,61.49l-5.921 -8.707 -15.457 -24.68c-10.487,18.937 -16.377,37.347 -30.027,54.031 8.404,-27.968 16.395,-54.528 21.039,-83.721l-47.843 -110.408c-6.374,-14.706 -12.641,-28.502 -21.796,-42.263 -13.613,26.731 -24.463,52.253 -42.087,76.307 12.413,-32.803 24.51,-65.114 29.691,-99.938l-23.667 -31.643c-3.896,-5.206 -8.093,-10.012 -12.667,-14.43z"/>
   <path class="fil0" d="M1004.996 1802.311l13.92 -26.047 -12.837 -21.398 -61.824 109.482c-11.692,20.648 -102.811,167.426 -109.098,199.61 -0.299,1.533 6.121,-3.676 11.324,-2.477 5.721,1.317 10.308,8.988 10.701,9.337 0.431,0.307 89.22,-167.3 91.459,-170.577 13.241,-19.378 52.822,-91.405 56.355,-97.93zm33.345 -62.394l6.856 -12.828c-7.106,-1.28 -14.105,-2.679 -21.025,-4.261l-9.585 16.973c7.976,0.252 15.886,0.347 23.754,0.116zm131.771 -247.1l76.882 -142.485 37.333 -68.666 79.099 -143.788c-1.278,0.914 -2.27,0.745 -3.016,0.354l-52.031 88.305 -91.669 156.716 -53.473 93.699 6.875 15.865z"/>
  </g>
 </g>
</svg>
