<?xml version="1.0" encoding="UTF-8"?>
<!DOCTYPE svg PUBLIC "-//W3C//DTD SVG 1.1//EN" "http://www.w3.org/Graphics/SVG/1.1/DTD/svg11.dtd">
<!-- Creator: CorelDRAW (Versão OEM) -->
<svg xmlns="http://www.w3.org/2000/svg" xml:space="preserve" width="30.6934mm" height="48mm" version="1.1" style="shape-rendering:geometricPrecision; text-rendering:geometricPrecision; image-rendering:optimizeQuality; fill-rule:evenodd; clip-rule:evenodd"
viewBox="0 0 3060.31 4785.87"
 xmlns:xlink="http://www.w3.org/1999/xlink"
 xmlns:xodm="http://www.corel.com/coreldraw/odm/2003">
 <defs>
  <style type="text/css">
   <![CDATA[
    .fil0 {fill:#1E2A50}
    .fil2 {fill:#373435;fill-rule:nonzero}
    .fil1 {fill:#1E2A50;fill-rule:nonzero}
    .fil3 {fill:url(#id0)}
    .fil4 {fill:url(#id1)}
   ]]>
  </style>
  <linearGradient id="id0" gradientUnits="userSpaceOnUse" x1="-645.02" y1="1214.99" x2="3437.14" y2="3570.86">
   <stop offset="0" style="stop-opacity:1; stop-color:#E0E0E0"/>
   <stop offset="0.301961" style="stop-opacity:1; stop-color:white"/>
   <stop offset="0.701961" style="stop-opacity:1; stop-color:#999999"/>
   <stop offset="1" style="stop-opacity:1; stop-color:#555555"/>
  </linearGradient>
  <linearGradient id="id1" gradientUnits="userSpaceOnUse" xlink:href="#id0" x1="-376.83" y1="1214.99" x2="3705.33" y2="3570.86">
  </linearGradient>
 </defs>
 <g id="Camada_x0020_1">
  <metadata id="CorelCorpID_0Corel-Layer"/>
  <g id="_2777432520416">
   <path class="fil0" d="M1918 3393.8l-234.46 -438.71 -411.67 -775.33 -503.93 -933.94 -177.42 -326.33 -375.91 -683.33c6.07,4.35 10.79,3.54 14.33,1.69l247.27 419.65 435.65 744.78 339.6 595.06 284.78 504.04 670.43 1187.25c55.57,98.12 488.6,795.66 518.47,948.62 1.43,7.28 -29.08,-17.48 -53.81,-11.78 -27.19,6.26 -49,42.71 -50.86,44.37 -2.04,1.47 -424.01,-795.07 -434.65,-810.64 -62.92,-92.1 -251.03,-434.4 -267.82,-465.41z"/>
   <path class="fil1" d="M1886.67 3410.51l-234.46 -438.71 -0.14 0 -411.67 -775.34 0.05 -0.03 -503.84 -933.77 0.05 -0.02 -177.27 -326.05 -0.06 0.03 -451.13 -820.06 116.74 83.3 17.46 -9.14 264.44 448.82c261.26,446.64 519.12,890.96 775.52,1340.26l0 0.13 284.79 504.05 670.38 1187.14 0.05 -0.03c10.44,18.44 34.13,57.9 65.92,110.86 139.08,231.73 431.19,718.42 456.59,848.47 4.91,25.1 -5.37,38.51 -28.77,43.07 -12.65,2.49 -20.56,-1.16 -31.42,-6.18 -6.59,-3.04 -17.23,-7.95 -20.64,-7.17 -9.85,2.27 -23.18,21.12 -27.59,27.34 -2.41,3.43 -4.07,5.71 -7.54,8.82l-2.64 2.36 -2.78 1.68c-20.34,12.2 -34.43,8.07 -47.41,-10.11l0 -0.14c-7.09,-10.01 -121.21,-224.13 -231.32,-430.72 -101.32,-190.12 -199.23,-373.83 -203.54,-380.13 -22.26,-32.57 -60.41,-96.82 -101.26,-167.81 -75.5,-131.18 -157.8,-281 -168.51,-300.78l0 -0.14zm-171.77 -472.07l234.37 438.54 0.06 -0.03c11.06,20.43 94.65,172.7 167.4,299.12 39.48,68.62 76.51,130.93 98.48,163.09 5.83,8.52 104.91,194.41 207.44,386.8 81.83,153.54 165.9,311.27 204.67,383.2 10.23,-8.17 22.35,-15.19 36.08,-18.35 2.95,-0.68 5.86,-1.15 8.73,-1.45 -69.67,-171.2 -308.53,-569.18 -429.61,-770.93 -32.24,-53.72 -56.27,-93.76 -66.75,-112.26l0 -0.14 -670.43 -1187.24 -224.6 -397.51 22.46 41.63 0.14 0.13 411.67 775.34 -0.11 0.06z"/>
   <path class="fil2" d="M1901.41 3402.66l-234.47 -438.71 -0.07 0 -411.67 -775.33 0.03 -0.02 -503.89 -933.85 0.03 -0.01 -177.34 -326.18 -0.03 0.02 -415.97 -756.16 65.6 46.98 12.44 -6.52 256.37 435.11c261.22,446.58 519.02,890.83 775.39,1340.06l0 0.07 284.78 504.04 670.4 1187.19 0.03 -0.02c10.47,18.48 34.22,58.06 66.11,111.19 138.58,230.9 429.64,715.83 454.5,843.11 2.67,13.63 -2.9,20.96 -15.53,23.46l-0.07 0c-7.32,1.43 -13.14,-1.27 -21.13,-4.96 -8.57,-3.97 -22.41,-10.36 -31.4,-8.29 -16.1,3.7 -32.2,26.48 -37.53,34.01 -1.84,2.6 -3.03,4.29 -5.06,6.08l-1.02 0.9 -0.39 0.28c-10.45,7.6 -19.14,5.88 -26.61,-4.57 -6.14,-8.61 -120.28,-222.77 -230.35,-429.3 -101.57,-190.57 -199.66,-374.6 -204.32,-381.42 -22.19,-32.48 -60.08,-96.28 -100.61,-166.72 -74.86,-130.09 -157.45,-280.44 -168.23,-300.38l0 -0.07zm-201.26 -456.38l234.42 438.62 0.03 -0.01c10.98,20.28 94.27,171.98 167.65,299.5 39.81,69.19 77.1,131.96 99.14,164.21 5.48,8.02 104.18,193.21 206.38,384.96 89.72,168.32 182.12,341.72 215.24,402.57 10.93,-11.96 26.13,-24.87 44.11,-29 10.38,-2.39 20.66,-1.37 29.98,1.02 -56.22,-158.41 -313.02,-586.28 -440.26,-798.27 -32.15,-53.56 -56.08,-93.45 -66.55,-111.93l0 -0.07 -670.43 -1187.25 -284.75 -503.98 -0.03 0.01 -339.6 -595.06 -227.22 -388.48 116.21 213.73 0.07 0.08 503.93 933.93 0.07 0.08 411.67 775.33 -0.06 0.03z"/>
   <path class="fil1" d="M1865.76 3411.29l-220.03 -411.69 -0.28 0c-142.63,-268.68 -285.37,-537.28 -427.95,-805.99l-511.23 -947.46 -152.91 -281.23 -502.13 -912.78 175.4 125.61 22.87 -11.98 273.55 464.27c134.49,229.92 264.9,453.7 389.66,669.16 128.16,221.35 256.65,444.63 386.01,671.31l4.74 8.3 0 0.3 280.04 495.67 649.45 1150.09 0.05 -0.04 20.93 36.98c10.24,18.09 33.13,56.24 63.88,107.47l1.81 3.02c69.81,116.32 178.05,296.64 270.45,461.25 94.75,168.77 175.24,325.34 188.5,393.27 3.27,16.7 0.6,30.84 -7.6,42.78 -8.28,12.08 -20.39,19.35 -36.05,22.45l-3.51 0.7 -0.91 0c-15.86,2.13 -25.56,-2.32 -38.47,-8.28 -3.11,-1.44 -6.99,-3.23 -10.06,-4.38l-3.39 3.7c-4.92,5.2 -9.33,11.45 -11.52,14.55l-0.14 0c-1.72,2.43 -3.16,4.46 -3.72,5.14l-0.07 -0.05c-2.08,2.59 -4.18,4.87 -6.7,7.11 -1.29,1.14 -2.89,2.25 -4.05,3.41 -13.41,9.75 -27.19,13.28 -41.44,10.75 -14.04,-2.49 -25.64,-10.39 -35.02,-23.53 -3.91,-5.48 -34.78,-62.53 -78.58,-144.33 -43.05,-80.42 -99.12,-185.6 -154.15,-288.87 -50.77,-95.28 -100.69,-188.93 -138.49,-259.62 -37.07,-69.32 -62.1,-115.87 -63.86,-118.46 -10.98,-16.06 -25.13,-38.61 -41.15,-65.16 -16.28,-26.98 -37.53,-63.38 -60.86,-103.92 -30.73,-53.4 -58.52,-102.53 -81.74,-143.98 -43.8,-78.21 -80,-144.2 -87.05,-157.25l-4.32 -7.97 0 -0.31zm-1260.55 -2499.72l60.93 112.06 3.29 -1.85 -64.26 -110.32 0.04 0.12zm2078.14 3767.04c0.87,-0.24 1.31,-0.37 0.12,-0.1l-0.12 0.1zm-409.57 -771.39l25.85 48.24c38.14,71.26 88.37,165.51 139.46,261.38 44.86,84.16 90.39,169.6 128.85,241.59 26.05,48.79 48.92,91.5 66.19,123.59 3.81,-2.06 7.8,-3.92 11.93,-5.53 -69.04,-158.04 -250.34,-465.41 -372.29,-669.25z"/>
   <path class="fil3" d="M2129.36 3793.58c164.44,286.11 312.35,587.7 465.92,880.74 23.07,44.06 80.7,92.29 120.68,70.54 19.8,-10.75 32.18,-29.33 37.12,-51.31 12.85,-58.11 -12.8,-104.41 -40.56,-153.25l-223.18 -393.73 -240.11 -415.49c130.76,-54.06 243.7,-188.16 297.29,-318.44 -65.79,47.34 -114.26,97.77 -185.6,137.3 83.45,-140.86 168.36,-280.28 122.29,-447.59 -24.98,-90.84 -56.15,-183.4 -116.02,-256.51l-50.52 -61.58c0.65,-49.04 -21.88,-89.67 -48.87,-129.37l-60.15 -88.45 -73.45 -117.29c-49.84,89.99 -77.83,177.49 -142.7,256.78 39.94,-132.92 77.91,-259.15 99.98,-397.88l-227.37 -524.7c-30.29,-69.89 -60.07,-135.46 -103.58,-200.86 -64.69,127.04 -116.26,248.33 -200.01,362.64 58.99,-155.89 116.48,-309.45 141.1,-474.94l-112.48 -150.38c-43.96,-58.75 -95.97,-106.75 -160.92,-144.92 -42.04,-137.37 -133.26,-250.49 -259.33,-318.58 -17.68,-9.52 -25.6,-27.57 -32.84,-46.14 -81.11,-208.21 -247.85,-399.68 -470.83,-423.28 -53.29,-78.78 -116.95,-142.91 -203.97,-177.73 -13.94,-5.51 -27.91,-11.39 -38.24,-24.05 -53.74,-66.03 -121.91,-121.28 -204.46,-143.87 -87.13,-23.87 -159.09,29.97 -175.63,116.52 -14.73,76.73 -6.79,155.5 20.14,229.56 15.2,41.77 13.09,78.03 9.37,119.82 -6.64,73.95 20.29,142.72 48.9,213.24 -27.02,83.92 -44.39,169.45 -27.91,257.44 24.51,131.09 86.17,247.34 174.02,348.05 10.04,11.5 217.49,90.88 228.2,101.98 -0.64,9.45 -198.09,-49.22 -198.19,-39.87 -1.7,139.84 54.12,266.91 155.28,367.32 17.32,157.48 71.83,301.83 157.47,434.71 24.06,37.3 58.28,67.51 79.24,105.18 3.65,6.55 282.79,68.86 285.51,75.95 4.79,12.47 -266.26,-30.6 -261.41,-18.2 72.95,186.1 154.12,364.61 257.48,535.86 21.63,35.9 40.13,59.5 80.66,74.61 148.96,55.13 301.08,78.74 469.21,102.34 -138.84,39.33 -277.01,34.32 -420.92,27.39l255.18 425.34 253.6 49.08c-70.19,18.06 -136.84,19.93 -207.15,25.06l40.32 52.9c85.54,112.1 209.96,169.95 351.26,165.27l125.66 -4.17c-58.5,43.46 -121.06,65.57 -184.88,96.66 -5.28,5.22 -1.8,12.19 5.96,10.43 106.97,-0.94 209.42,-18.36 309.51,-74.65l-17.21 140.52 83.68 -147.29c8.71,-15.23 8.98,-24.64 13.46,-38.73z"/>
   <path class="fil1" d="M2160.14 3775.89c117.6,204.64 225.69,414.89 333.38,624.36 45.97,89.43 91.9,178.75 133.1,257.36l0.84 1.57c9.26,17.02 24.85,34.59 41.92,45.82 11.59,7.63 22.62,11.94 29.16,8.91l-0.03 -0.05 0.62 -0.33 0.02 0.05c4.69,-2.58 8.61,-6.16 11.72,-10.46 3.58,-4.94 6.1,-10.86 7.57,-17.37 4.85,-21.89 2.32,-41.89 -4.08,-61.16 -7.11,-21.44 -19.66,-43.77 -32.72,-66.74l-223.03 -393.47 -260.43 -450.62 37.57 -15.53c57.65,-23.84 112.01,-65.1 158.68,-115.09 7.93,-8.48 15.61,-17.21 23.06,-26.14 -12.38,8.28 -25.38,16.29 -39.27,23.99l-114.73 63.57 70.72 -119.27c78.33,-132.18 156.13,-263.46 114.78,-413.61 -12.12,-44.09 -25.71,-88.52 -43.4,-130.44 -17.08,-40.51 -38.2,-78.96 -65.93,-112.84l0.08 -0.07 -58.72 -71.56 0.17 -12.91c0.25,-18.93 -4.19,-36.76 -11.42,-53.99 -8.03,-19.1 -19.17,-37.19 -31.32,-55.06l-60.15 -88.45 -41.03 -65.51c-5.35,11.04 -10.68,22.2 -15.97,33.3 -28.68,60.17 -56.39,118.34 -102.21,174.34l-113.21 138.35 51.78 -171.9c38.6,-128.47 75.33,-250.67 97.12,-382.38l-223.23 -515.14c-14.88,-34.33 -29.63,-67.61 -45.99,-100.29 -6.93,-13.84 -14.19,-27.62 -21.92,-41.39l-13.31 27.05c-48.16,98.09 -94.54,192.52 -161.11,283.39l-154.39 210.72 92.44 -244.28c29.12,-76.95 57.89,-153.38 82.76,-232.06 22.88,-72.44 42.02,-145.73 54.18,-221.15l-103.42 -138.28c-20.68,-27.63 -43.17,-52.65 -68,-75.16 -24.8,-22.46 -52.11,-42.58 -82.48,-60.43l-11.94 -7.02 -4.07 -13.31c-19.69,-64.37 -50.98,-123.08 -92.15,-173.66 -40.78,-50.09 -91.36,-92.2 -150.07,-123.89 -14.98,-8.06 -25.48,-19.18 -33.57,-31.93 -6.54,-10.31 -11.19,-21.49 -15.56,-32.74 -41.29,-105.98 -105.65,-207.3 -188.82,-282.07 -71.36,-64.15 -156.52,-108.5 -252.49,-118.65l-16.64 -1.75 -9.25 -13.7c-25.3,-37.39 -52.71,-71.02 -83.62,-98.95 -30.31,-27.4 -64.47,-49.83 -103.87,-65.63l-0.03 0.08c-8.15,-3.22 -16.39,-6.6 -25.08,-11.58 -9.87,-5.65 -19.26,-12.92 -27.65,-23.2 -26.4,-32.42 -56.47,-62.02 -90.16,-85.73 -29.43,-20.71 -61.49,-36.85 -96.06,-46.29 -2.71,-0.75 -6.09,-1.52 -10.07,-2.26 -28.54,-5.46 -54.17,0.11 -74.3,13.77 -20.81,14.12 -36.5,37.07 -44.36,65.76 -0.92,3.34 -1.79,7.18 -2.63,11.54l0 0.13c-6.61,34.49 -8.19,69.63 -5.1,104.64 3.16,36.1 11.22,71.75 23.72,106.14 8.94,24.6 12.8,47.55 13.87,70.48 0.99,21.29 -0.57,42.2 -2.55,64.51 -2.88,32.15 1.72,63.9 10.26,95.66 8.91,33.14 22.38,66.91 36.28,101.15l4.82 11.87 -3.99 12.35c-12.94,40.19 -23.55,80.57 -28.87,120.93 -5.19,39.34 -5.42,79.05 2.07,119.11 11.39,60.88 31.16,118.31 58.09,172.16 28.34,56.68 64.73,109.75 107.73,159.04 0.36,0.42 52.72,21.69 104.73,43.33 56.52,23.53 111.91,46.58 122.34,57.39l10.97 11.36 -1.08 15.65c-1.73,25.41 -16.93,35.82 -42.95,34.11l-0.14 0c-17.13,-1.15 -59.27,-11.65 -101.13,-22.07 -18.73,-4.66 -37.41,-9.32 -52.68,-12.94 3.75,49.5 15.4,96.99 34.3,141.7 24.54,58.05 61.45,111.64 109.26,159.08l8.91 8.85 1.39 12.59c8.33,75.76 25.61,148.4 51.12,218.1 25.64,69.91 59.51,136.92 100.92,201.16 10.01,15.52 22.01,29.79 33.9,43.95 16.78,19.96 33.43,39.78 46.44,63.17 5.76,10.4 53.1,4.03 113.67,18.86 81.75,20 165.99,40.65 174.05,61.68l-0.07 0.03c8.82,23.06 1.04,38.65 -21.73,47.3l-0.03 -0.07c-17.47,6.51 -82.06,-0.93 -146.54,-8.34l-73.71 -8.46c30.44,75.49 62.44,149.6 96.91,222.33 41.72,88.01 87.28,174.37 138.46,259.16 9.53,15.81 18.12,28.68 27.81,38.28 8.84,8.76 19.6,15.76 34.59,21.37l0.03 -0.07c73.05,27.04 146.54,46.27 222.12,61.6 75.87,15.37 155.69,27.14 239.69,38.94l167.13 23.45 -162.39 46.02c-72.26,20.46 -144.22,29.39 -216.77,32.29 -49.66,1.98 -99.24,1.14 -149.26,-0.75l212.97 354.99 393.02 76.07 -152.93 39.33c-51.12,13.14 -99.15,18.12 -147.59,21.66l0.26 0.34c39.13,51.29 87.04,90.15 141.19,115.64l-0.02 0.05c54.47,25.6 115.55,37.81 180.71,35.65l239.19 -7.94 -91.26 67.82c-11.64,8.64 -23.32,16.46 -35.05,23.66 42.76,-10.86 85.05,-27.17 127.06,-50.82l61.32 -34.51 -3.73 30.44c0.75,-2.39 1.35,-4.77 1.96,-7.21 0.88,-3.44 1.77,-7 3.96,-13.89l24.43 -76.87 40.18 69.91zm270.16 656.94c-96.93,-188.58 -194.21,-377.79 -296.63,-559.87l-158.42 278.86 30.85 -252.03c-33.35,13.97 -67.05,24.41 -101.18,32.04 -53.08,11.86 -106.81,16.73 -161.54,17.37 -9.15,1.2 -17.64,-0.46 -24.89,-4.07l-0.03 0.05c-7.76,-3.86 -13.8,-9.79 -17.73,-17.05 -3.79,-6.98 -5.46,-15.08 -4.64,-23.53 0.94,-9.39 5.08,-18.86 12.94,-26.64l4.27 -4.21 5.07 -2.47c16.39,-7.99 34.14,-16.01 51.72,-23.96l1.69 -0.77c-68.08,-0.75 -132.36,-15.24 -190.61,-42.63l-0.14 0c-64.4,-30.31 -121.18,-76.28 -167.37,-136.81l-80.19 -105.22 42.67 -3.1 -43.27 -8.39c-99.23,-165.28 -198.37,-330.63 -297.54,-495.96l66.31 3.19c59.48,2.86 117.95,5.39 175.4,4.57l-4.92 -0.99c-79.72,-16.16 -156.82,-36.3 -232.69,-64.39l-0.14 -0.14c-25.45,-9.48 -44.2,-21.83 -60.1,-37.58 -15.09,-14.94 -26.58,-31.85 -38.67,-51.93 -52.19,-86.45 -98.88,-174.99 -141.81,-265.56 -42.75,-90.2 -81.61,-182.07 -118.31,-275.74 -6.17,-15.74 -4.56,-28.06 4.42,-37.09 -14,-5.56 -23.48,-11.02 -26.43,-16.33 -9.94,-17.89 -24.24,-34.9 -38.65,-52.05 -13.82,-16.44 -27.75,-33.01 -39.47,-51.19 -44.24,-68.63 -80.44,-140.26 -107.83,-215.1l0 -0.14c-26.06,-71.19 -44.16,-145.29 -53.61,-222.45 -49.98,-51.64 -89.04,-109.84 -115.73,-172.96 -27.81,-65.8 -42.05,-136.75 -41.15,-211.01 0.12,-8.96 1.92,-16.15 5.33,-21.68 -13.36,-6.71 -22.9,-12.43 -26.56,-16.62 -46.82,-53.68 -86.58,-111.74 -117.75,-174.08 -29.97,-59.93 -51.92,-123.58 -64.49,-190.83 -8.97,-47.92 -8.75,-94.99 -2.63,-141.38 5.42,-41.07 15.43,-81.33 27.74,-121.01 -13,-32.28 -25.35,-64.43 -34.3,-97.73 -10.41,-38.74 -15.95,-78.36 -12.2,-120.16 1.72,-19.45 3.09,-37.6 2.26,-55.33 -0.75,-16.08 -3.44,-32.16 -9.68,-49.31 -14.76,-40.57 -24.24,-82.31 -27.91,-124.24 -3.62,-41.15 -1.7,-82.83 6.22,-124.12 1.05,-5.35 2.39,-11.03 4.02,-16.97 12.41,-45.29 38.27,-82.25 73.05,-105.85 35.46,-24.07 79.51,-34.08 127.48,-24.92 4.42,0.85 9.53,2.06 15.36,3.66 43.28,11.84 82.71,31.55 118.32,56.6 39.19,27.58 73.97,61.76 104.37,99.09 1.94,2.38 4.71,4.41 7.89,6.22 4.37,2.5 10.09,4.83 15.87,7.11l0.14 0.15c47.52,19 88.68,46.03 125.21,79.06 32.07,28.98 60.22,62.2 85.78,98.37 105.46,14.95 198.42,64.45 276.23,134.4 91.63,82.37 162.33,193.46 207.48,309.36 2.85,7.31 5.79,14.47 9.44,20.2 2.09,3.3 4.42,5.97 7.11,7.43 66.98,36.16 124.79,84.33 171.51,141.72 44.04,54.09 78.16,116.44 100.75,184.67 29.89,18.53 57.21,39.14 82.37,61.94 28.4,25.73 53.91,54.1 77.18,85.2l121.44 162.36 -2.14 14.46c-6.23,41.91 -14.49,82.97 -24.29,123.42 6.07,-12.24 11.62,-23.36 16.23,-32.4l27.62 -54.25 33.78 50.76c22.36,33.63 41.4,67.68 58.84,102.51 16.97,33.89 32.25,68.37 47.66,103.91l231.49 534.21 -1.61 10.12c-6.34,39.88 -13.94,78.61 -22.46,116.67l28.21 -50.95 104.72 167.2 60.15 88.45c14.84,21.84 28.45,43.93 38.28,67.31 9,21.45 15.05,44.14 16.43,68.92l42.72 52.08 0.15 0c32.12,39.23 56.53,83.64 76.23,130.39 19.11,45.34 33.61,92.62 46.45,139.35 34.09,123.78 3.91,230.81 -46.34,332.98 17.15,-13.9 34.92,-27.97 54.68,-42.18l100.87 -72.57 -47.27 114.89c-29.5,71.69 -75.88,144.35 -132.92,205.44 -43.46,46.55 -93.38,86.71 -147.15,115.12 149.36,258.46 296.89,516.36 444.1,776.05 14.7,25.84 28.85,51.1 38.3,79.55 10.14,30.57 14.03,62.75 6.02,98.9l0 0.14c-3.58,15.95 -10.01,30.76 -19.26,43.55 -9.1,12.58 -20.97,23.22 -35.55,31.15 -0.3,0.3 -0.77,0.48 -1.17,0.61 -32.91,17.22 -69.44,8.7 -101.41,-12.34 -26.72,-17.6 -50.99,-44.87 -65.3,-71.17l-1.26 -2.4c-48.28,-92.12 -90.85,-174.94 -133.52,-257.91z"/>
   <path class="fil0" d="M1918 3393.8l-234.46 -438.71 -411.67 -775.33 -503.93 -933.94 -177.42 -326.33 -375.91 -683.33c6.07,4.35 10.79,3.54 14.33,1.69l247.27 419.65 435.65 744.78 339.6 595.06 284.78 504.04 670.43 1187.25c55.57,98.12 488.6,795.66 518.47,948.62 1.43,7.28 -29.08,-17.48 -53.81,-11.78 -27.19,6.26 -49,42.71 -50.86,44.37 -2.04,1.47 -424.01,-795.07 -434.65,-810.64 -62.92,-92.1 -251.03,-434.4 -267.82,-465.41z"/>
   <path class="fil1" d="M1913.82 3396.05l-234.46 -438.72 -411.69 -775.34 -503.91 -933.92 -177.39 -326.29 -385.95 -701.56 16.93 12.08c2.21,1.58 4.05,2.22 5.57,2.29 1.42,0.06 2.71,-0.37 3.83,-0.95l3.99 -2.08 249.54 423.54c261.2,446.53 518.95,890.72 775.29,1339.89l284.78 504.07 670.42 1187.23c10.48,18.47 34.3,58.17 66.28,111.46 138.16,230.19 428.33,713.65 452.73,838.57 0.79,4.04 -0.79,6.19 -4.39,6.89 -2.9,0.57 -6.99,-1.32 -12.59,-3.91 -10.24,-4.73 -26.77,-12.36 -40.43,-9.21 -21.37,4.92 -39.83,31.01 -45.92,39.64 -1.29,1.81 -2.14,3.01 -2.83,3.64l-0.73 0.54c-2.73,1.64 -4.68,1.02 -6.5,-1.55 -5.81,-8.23 -119.54,-221.62 -229.26,-427.49 -101.85,-191.11 -200.26,-375.75 -205.22,-383.01 -22.12,-32.37 -59.79,-95.8 -100.05,-165.77 -74.35,-129.19 -157.18,-280.01 -168.03,-300.06zm-226.09 -443.17l234.44 438.69c10.93,20.16 93.99,171.42 167.88,299.83 40.07,69.63 77.59,132.79 99.69,165.13 5.17,7.57 103.74,192.5 205.75,383.91 100.91,189.33 205.19,385.01 225.34,420.86 8.19,-11.35 26.8,-35.23 49.42,-40.44 16.8,-3.87 35.16,4.61 46.52,9.85l2.29 1.08c-32.18,-132.76 -314.52,-603.2 -450.14,-829.15 -32.05,-53.39 -55.92,-93.18 -66.38,-111.66l-670.44 -1187.25 -284.77 -504.04 -339.61 -595.05 -435.6 -744.73 -245.25 -416.23c-0.81,0.19 -1.66,0.32 -2.53,0.38l370.33 673.17 177.42 326.34 503.95 933.96 411.68 775.36z"/>
   <path class="fil0" d="M1142.32 3393.8l66.15 -123.78 -61.01 -101.69 -293.81 520.3c-55.56,98.12 -488.6,795.66 -518.47,948.62 -1.43,7.28 29.08,-17.48 53.81,-11.78 27.19,6.26 49,42.71 50.86,44.37 2.04,1.47 424.01,-795.07 434.65,-810.64 62.92,-92.1 251.03,-434.4 267.82,-465.41zm158.47 -296.51l32.57 -60.97c-33.77,-6.08 -67.03,-12.73 -99.92,-20.25l-45.56 80.66c37.91,1.2 75.5,1.66 112.9,0.56zm626.22 -1174.32l365.37 -677.14 177.42 -326.33 375.91 -683.33c-6.07,4.35 -10.79,3.54 -14.33,1.69l-247.27 419.65 -435.65 744.78 -254.12 445.29 32.67 75.4z"/>
   <path class="fil1" d="M1111.05 3376.98l56.6 -105.93 -19.29 -32.17 -263.8 467.14 0 0.14c-10.48,18.51 -34.52,58.55 -66.77,112.31 -121.1,201.75 -359.93,599.69 -429.59,770.88 2.87,0.3 5.78,0.77 8.73,1.45 13.73,3.16 25.85,10.18 36.08,18.35 38.77,-71.93 122.84,-229.66 204.67,-383.2 102.53,-192.39 201.6,-378.27 207.44,-386.8 21.97,-32.16 59,-94.47 98.48,-163.09 72.75,-126.42 156.34,-278.69 167.4,-299.12l0.06 0.03zm128.74 -90.25l-66.14 123.78 0 0.14c-10.71,19.78 -93.02,169.6 -168.51,300.78 -40.85,70.99 -79.01,135.24 -101.26,167.81 -4.31,6.3 -102.22,190.01 -203.54,380.13 -110.1,206.59 -224.23,420.71 -231.32,430.72l0 0.14c-12.98,18.18 -27.07,22.31 -47.41,10.11l-2.78 -1.68 -2.64 -2.36c-3.47,-3.11 -5.12,-5.39 -7.54,-8.82 -4.41,-6.22 -17.74,-25.07 -27.59,-27.34 -3.41,-0.78 -14.05,4.13 -20.64,7.17 -10.86,5.03 -18.76,8.67 -31.42,6.2 -23.39,-4.59 -33.67,-18 -28.77,-43.09 25.41,-130.05 317.47,-616.68 456.56,-848.43 31.81,-52.99 55.51,-92.47 65.95,-110.91l0.05 0.03 392.83 -695.61 25.76 5.89c17.98,4.11 34.08,7.59 48.66,10.53 16.11,3.25 32.66,6.39 49.59,9.44l48.05 8.64 -65.3 122.17 -20.63 0.6c-18.83,0.55 -37.99,0.72 -57.36,0.59 -19.67,-0.13 -38.83,-0.54 -57.61,-1.14l-19.92 -0.64 82.42 137.38 -9.49 17.75zm39.47 -224.5l0.03 -0.05 -27.9 -5.75 -3.36 5.95c10.36,0.05 20.77,0.01 31.23,-0.15zm1044.4 -1799.59l0.05 0.02 -400.16 741.59 -68.87 -158.92c230.68,-404.13 463.76,-803.97 698.8,-1205.79l264.41 -448.76 17.46 9.1 116.77 -83.32 -451.13 820.06 -0.06 -0.03 -177.27 326.05z"/>
   <path class="fil2" d="M1125.75 3384.89l61.1 -114.32 -38.91 -64.86 -277.91 492.15 0 0.07c-10.47,18.48 -34.41,58.37 -66.55,111.93 -127.24,211.99 -384.04,639.86 -440.26,798.27 9.32,-2.38 19.6,-3.41 29.98,-1.02 17.98,4.14 33.18,17.04 44.11,29 33.12,-60.85 125.53,-234.25 215.24,-402.57 102.2,-191.75 200.9,-376.95 206.38,-384.96 22.03,-32.24 59.32,-95.02 99.14,-164.21 73.37,-127.51 156.67,-279.22 167.65,-299.5l0.03 0.01zm99.33 -106.02l-66.16 123.78 0 0.07c-10.79,19.94 -93.37,170.3 -168.23,300.38 -40.53,70.44 -78.42,134.23 -100.61,166.72 -4.66,6.82 -102.75,190.86 -204.32,381.42 -110.08,206.53 -224.21,420.69 -230.35,429.3 -7.5,10.49 -16.57,11.86 -26.61,4.57l-0.39 -0.28 -1.02 -0.9c-2.03,-1.8 -3.21,-3.48 -5.06,-6.08 -5.32,-7.53 -21.43,-30.31 -37.53,-34.01 -8.98,-2.07 -22.82,4.32 -31.4,8.29 -7.99,3.69 -13.81,6.37 -21.13,4.96l-0.07 0c-12.65,-2.51 -18.21,-9.82 -15.53,-23.46 24.86,-127.28 315.92,-612.21 454.5,-843.11 31.89,-53.13 55.65,-92.72 66.11,-111.19l0.03 0.02 309.69 -548.41 83.1 138.52 -5.03 9.41zm64.29 -200.12l15.28 -28.62c-8.43,-1.61 -16.84,-3.26 -25.27,-4.96 -12.66,-2.56 -24.84,-5.11 -36.46,-7.68l-23.27 41.22c8.4,0.17 16.72,0.28 24.96,0.33 14.89,0.1 29.8,0.02 44.76,-0.3zm60.6 -33.58l-37.73 70.6 -10.94 0.32c-18.77,0.56 -37.73,0.72 -56.84,0.59 -19.27,-0.13 -38.29,-0.54 -57.15,-1.14l-31.07 -0.98 67.76 -120 13.66 3.13c17.23,3.94 33.55,7.45 49.11,10.59 16.42,3.31 33.06,6.48 49.92,9.51l25.46 4.59 -12.18 22.78zm578.87 -1165.28l346.95 -642.99 0.07 -0.08 116.21 -213.73 -227.23 388.47 -249.48 437.19 13.49 31.14zm380.12 -625.15l0.03 0.01 -383.8 711.29 -51.86 -119.66c229.18,-401.67 460.96,-799.05 694.55,-1198.39l256.37 -435.11 12.44 6.52 65.57 -46.93 -415.94 756.11 -0.03 -0.02 -177.34 326.18z"/>
   <path class="fil1" d="M786.54 3907.22c-121.96,203.85 -303.25,511.21 -372.29,669.25 4.14,1.62 8.13,3.47 11.93,5.53 17.28,-32.09 40.14,-74.8 66.19,-123.59 38.46,-71.99 83.99,-157.43 128.85,-241.59 51.09,-95.87 101.32,-190.12 139.46,-261.38l25.85 -48.24zm469.86 -611.63l-61.85 115.71 0 0.31 -4.32 7.97c-7.05,13.04 -43.25,79.04 -87.05,157.25 -23.22,41.46 -51.01,90.58 -81.74,143.98 -23.33,40.54 -44.58,76.94 -60.86,103.92 -16.02,26.55 -30.17,49.1 -41.15,65.16 -1.76,2.59 -26.79,49.14 -63.86,118.46 -37.8,70.69 -87.72,164.34 -138.49,259.62 -55.04,103.27 -111.1,208.44 -154.15,288.87 -43.8,81.81 -74.67,138.85 -78.58,144.33l-0.35 0.51c-9.4,13.02 -21.22,20.61 -35.12,22.92 -14.04,2.34 -27.6,-1.15 -40.47,-10.34 -0.73,-0.75 -2.75,-2.08 -3.54,-2.68l-1.03 -0.9 0 -0.14c-5.12,-4.53 -7.24,-7.42 -10.23,-11.67l-0.4 -0.54c-2.18,-3.1 -6.6,-9.34 -11.52,-14.55l-3.39 -3.7c-3.07,1.15 -6.95,2.94 -10.02,4.36 -12.98,5.98 -22.69,10.47 -38.67,8.3l-0.74 0 -3.52 -0.7c-15.69,-3.1 -27.79,-10.39 -36.06,-22.45 -8.2,-11.95 -10.86,-26.08 -7.59,-42.78 13.26,-67.93 93.75,-224.5 188.49,-393.27 92.41,-164.6 200.65,-344.93 270.46,-461.25l1.81 -3.02c30.75,-51.23 53.64,-89.39 63.88,-107.47l20.93 -36.98 0.05 0.04 378.82 -670.85 39.42 9.03c7.71,1.75 15.9,3.58 24.62,5.45l23.52 5 24.37 4.72 24.86 4.66 73.49 13.22 -82.62 154.6 -31.56 0.92c-9.14,0.27 -18.85,0.45 -28.98,0.55 -9.59,0.1 -19.26,0.1 -28.97,0.04 -10.18,-0.07 -19.93,-0.2 -29.28,-0.39l-14.29 -0.33 70.16 116.94 -14.51 27.17zm-879.43 1383.03l-0.12 -0.1c-1.19,-0.27 -0.75,-0.14 0.12,0.1zm2013.78 -3656.92l3.43 1.93c20.83,-38.31 41.82,-76.56 62.49,-114.95l-65.92 113.02zm-36.7 224.45l-432.3 801.19 -88.05 -203.18 8.74 -15.3c115.63,-202.67 230.75,-402.25 345.75,-600.36 108.99,-187.76 227.76,-391.06 349.07,-598.45l273.55 -464.27 22.88 11.98 175.31 -125.49 -502.05 912.66 -152.91 281.23z"/>
   <path class="fil4" d="M930.95 3793.58c-164.44,286.11 -312.35,587.69 -465.92,880.74 -23.07,44.06 -80.7,92.29 -120.68,70.54 -19.79,-10.75 -32.18,-29.33 -37.12,-51.31 -12.85,-58.1 12.8,-104.41 40.55,-153.25l223.19 -393.73 240.11 -415.49c-130.76,-54.06 -243.7,-188.16 -297.3,-318.44 65.8,47.34 114.27,97.77 185.61,137.3 -83.45,-140.87 -168.36,-280.28 -122.29,-447.59 24.98,-90.84 56.15,-183.4 116.01,-256.51l50.53 -61.58c-0.65,-49.04 21.88,-89.67 48.87,-129.37l32.01 -47.07c44.72,95.77 93.63,189.41 148.9,280.98 21.64,35.9 40.14,59.5 80.67,74.61 148.95,55.13 301.08,78.74 469.2,102.34 -138.84,39.33 -277,34.32 -420.91,27.39l255.17 425.34 173.82 33.64 -79.78 15.43c26.99,6.94 53.44,11.49 79.78,14.75 -42.18,5.22 -84.08,7.16 -127.35,10.31l40.32 52.9c25.69,33.68 54.92,62.46 87.03,86.13 -74.79,55.09 -165.37,82.43 -264.22,79.15l-125.66 -4.17c58.5,43.46 121.06,65.57 184.88,96.66 5.28,5.22 1.8,12.19 -5.96,10.43 -106.98,-0.93 -209.42,-18.36 -309.5,-74.66l17.2 140.53 -83.68 -147.29c-8.71,-15.23 -8.98,-24.64 -13.46,-38.73zm600.4 -2542.33c29.87,-28.86 63.13,-54.25 100.72,-76.34 42.03,-137.37 133.26,-250.49 259.33,-318.58 17.68,-9.51 72.28,68.05 111.38,148.51 -36.98,-67.77 -71.4,-212.54 -67.6,-221.41 84.61,-197.62 246.49,-373.95 459.9,-396.53 53.28,-78.78 116.94,-142.91 203.96,-177.73 13.94,-5.51 27.91,-11.39 38.24,-24.05 53.74,-66.03 121.91,-121.29 204.46,-143.87 87.13,-23.87 159.09,29.97 175.63,116.52 14.73,76.73 6.79,155.5 -20.14,229.56 -15.2,41.77 -13.09,78.03 -9.37,119.82 5.01,55.77 -9.08,108.6 -28.58,161.44 -6.35,17.23 -240.44,167.86 -247.47,185.2 107.07,-50.47 239.42,-135.01 243.87,-118.03 17.71,67.61 24.36,171.74 11.2,242.07 -27.31,146.07 -100.74,273.69 -205.14,381.95 10.09,150.94 -46.24,288.41 -154.17,395.52 -17.31,157.48 -71.82,301.83 -157.46,434.71 -28.25,43.78 -70.48,77.79 -88.85,125.58 -38.27,99.55 -78.58,196.94 -123.07,292.23l-28.14 -41.38 -73.45 -117.29c-49.84,89.99 -77.83,177.49 -142.71,256.78 39.94,-132.92 77.92,-259.15 99.99,-397.88l-227.37 -524.7c-30.29,-69.89 -60.07,-135.46 -103.58,-200.86 -64.7,127.04 -116.26,248.33 -200.02,362.65 59,-155.9 116.49,-309.46 141.1,-474.95l-112.47 -150.38c-18.52,-24.75 -38.47,-47.59 -60.2,-68.58z"/>
   <path class="fil1" d="M926.63 3872.98c-102.43,182.08 -199.72,371.32 -296.66,559.92 -42.64,82.95 -85.22,165.77 -133.48,257.85l-1.26 2.4c-14.31,26.3 -38.58,53.57 -65.31,71.17 -31.97,21.05 -68.49,29.56 -101.4,12.34 -0.4,-0.13 -0.87,-0.3 -1.17,-0.61 -14.58,-7.92 -26.43,-18.57 -35.55,-31.15 -9.25,-12.79 -15.68,-27.6 -19.26,-43.55l0 -0.14c-8.01,-36.14 -4.12,-68.33 6.02,-98.9 9.43,-28.45 23.6,-53.69 38.29,-79.55 147.21,-259.68 294.75,-517.59 444.11,-776.05 -53.76,-28.41 -103.68,-68.57 -147.14,-115.11 -57.05,-61.1 -103.42,-133.76 -132.93,-205.45l-47.27 -114.89 100.87 72.58c19.75,14.2 37.52,28.28 54.68,42.18 -50.25,-102.17 -80.43,-209.19 -46.35,-332.99 12.85,-46.73 27.35,-94.01 46.46,-139.35 19.7,-46.74 44.12,-91.15 76.23,-130.39l0.15 0 42.72 -52.08c1.39,-24.77 7.43,-47.47 16.43,-68.92 9.82,-23.38 23.44,-45.49 38.28,-67.31l67.16 -98.76 26.39 56.56c21.82,46.72 44.98,93.54 69.79,140.54 24.18,45.79 49.9,91.49 77.43,137.11 9.53,15.81 18.13,28.68 27.82,38.28 8.85,8.75 19.6,15.76 34.59,21.37l0.02 -0.07c73.06,27.04 146.55,46.27 222.13,61.6 75.87,15.37 155.68,27.14 239.68,38.94l167.11 23.45 -162.37 46.02c-72.25,20.46 -144.21,29.39 -216.76,32.29 -49.66,1.98 -99.25,1.14 -149.27,-0.75l212.97 354.99 338.81 65.59 -55.04 10.65 157.73 19.52 -285.66 35.37c-20.8,2.57 -41.94,4.38 -63.34,5.93l0.25 0.33c11.57,15.16 24.18,29.47 37.74,42.88l0 0.14c13.23,13.1 27.29,25.12 42.07,36l38.93 28.69 -38.93 28.68c-40.78,30.03 -85.85,52.49 -134.17,66.96 -41.02,12.28 -84.46,18.79 -129.66,19.27l1.69 0.76c17.58,7.95 35.33,15.97 51.72,23.96l5.07 2.47 4.27 4.21c7.86,7.77 12,17.25 12.94,26.64 0.83,8.46 -0.85,16.55 -4.64,23.53 -3.93,7.26 -9.97,13.19 -17.73,17.05l-0.03 -0.05c-7.25,3.61 -15.73,5.26 -24.89,4.07 -54.73,-0.64 -108.46,-5.5 -161.54,-17.37 -34.12,-7.63 -67.84,-18.07 -101.18,-32.03l30.83 251.96 -158.41 -278.79zm-359.88 527.33c107.69,-209.48 215.79,-419.76 333.42,-624.42l40.14 -69.85 24.47 76.81c2.18,6.87 3.09,10.44 3.96,13.9 0.62,2.46 1.23,4.86 1.98,7.25l-3.73 -30.49 61.31 34.51c42.01,23.64 84.29,39.95 127.05,50.81 -11.73,-7.19 -23.41,-15.01 -35.05,-23.65l-91.26 -67.82 239.19 7.94c45.35,1.51 88.86,-4.02 129.63,-16.23 25.67,-7.69 50.24,-18.06 73.47,-31.01 -3.74,-3.46 -7.44,-7 -11.09,-10.62l-0.07 0.07c-15.37,-15.21 -30.12,-32.03 -44.14,-50.4l-68.3 -89.62 -57.85 -14.89 54.18 -10.48 -8.82 -1.71c-99.23,-165.28 -198.36,-330.63 -297.54,-495.96l66.32 3.19c59.48,2.86 117.94,5.39 175.39,4.57l-4.91 -0.99c-79.73,-16.16 -156.82,-36.3 -232.7,-64.39l-0.14 -0.14c-25.45,-9.48 -44.19,-21.84 -60.08,-37.58 -15.1,-14.94 -26.58,-31.85 -38.69,-51.93 -27.73,-45.94 -54.12,-92.88 -79.39,-140.72 -15.16,-28.71 -29.96,-57.9 -44.43,-87.54 -11.07,16.54 -21.14,33.31 -28.55,50.95 -7.24,17.22 -11.67,35.06 -11.42,53.99l0.17 12.91 -58.72 71.56 0.08 0.07c-27.73,33.88 -48.85,72.33 -65.94,112.84 -17.68,41.93 -31.27,86.36 -43.39,130.44 -41.35,150.15 36.45,281.43 114.78,413.61l70.71 119.27 -114.72 -63.57c-13.9,-7.7 -26.89,-15.71 -39.27,-23.99 7.45,8.93 15.15,17.66 23.07,26.15 46.66,49.98 101.02,91.24 158.67,115.08l37.57 15.53 -260.42 450.63 -223.05 393.46c-13.05,22.97 -25.6,45.31 -32.71,66.74 -6.4,19.27 -8.92,39.27 -4.11,61.16 1.5,6.51 4.03,12.43 7.6,17.37 3.11,4.3 7.03,7.88 11.71,10.46l0.03 -0.05 0.62 0.33 -0.03 0.05c6.54,3.03 17.58,-1.29 29.16,-8.91 17.07,-11.24 32.65,-28.8 41.91,-45.82l0.85 -1.57c41.19,-78.6 87.09,-167.89 133.06,-257.3zm939.95 -3174.68c15.61,-15.08 32.45,-29.52 50.67,-43.35 14.39,-10.92 29.34,-21.21 44.93,-30.87 22.59,-68.25 56.71,-130.59 100.75,-184.68 46.72,-57.39 104.53,-105.56 171.51,-141.72 0.65,-0.4 0.92,-0.54 1.63,-0.82 9.64,-4.69 19.87,-5.1 30.38,-1.89 -4.8,-27.12 -6.41,-47.39 -4.11,-52.78 46.99,-109.74 117.02,-213.4 206.11,-290.2 75.79,-65.35 165.32,-111.37 266.25,-125.69 25.55,-36.17 53.71,-69.39 85.78,-98.37 36.53,-33.02 77.69,-60.05 125.21,-79.06l0.14 -0.15c5.78,-2.28 11.51,-4.61 15.87,-7.11 3.18,-1.81 5.94,-3.84 7.89,-6.22 30.4,-37.33 65.18,-71.51 104.37,-99.09 35.61,-25.06 75.04,-44.77 118.32,-56.6 5.83,-1.6 10.95,-2.81 15.36,-3.66 47.98,-9.16 92.03,0.85 127.48,24.92 34.79,23.6 60.64,60.56 73.05,105.85 1.63,5.94 2.97,11.62 4,16.98 7.95,41.29 9.86,82.97 6.24,124.11 -3.67,41.94 -13.15,83.67 -27.91,124.24 -6.24,17.16 -8.93,33.23 -9.68,49.31 -0.83,17.73 0.54,35.87 2.26,55.33 2.85,31.76 0.38,62.13 -5.51,91.71 -5.75,28.89 -14.69,57.05 -25.01,85.04 -1.97,5.33 -8.51,12.75 -18.35,21.67 7.37,4.68 12.66,12.67 15.71,24.35 9.72,37.12 16.3,84.24 18.48,131.21 2.06,44.52 0.17,89.46 -6.72,126.31 -14.01,74.93 -39.52,145.2 -74.69,210.68 -34.37,63.99 -77.97,123.4 -129.07,178.09 2.85,74.24 -9.41,145.38 -35.23,211.61 -26.67,68.44 -67.71,131.37 -121.37,186.79 -9.44,77.16 -27.54,151.27 -53.6,222.46l0 0.14c-27.39,74.82 -63.59,146.46 -107.83,215.09 -11.73,18.19 -25.65,34.76 -39.47,51.2 -18.62,22.14 -37.03,44.05 -46.16,67.84 -20.42,53.14 -40.29,103.07 -59.48,148.82 -19.8,47.24 -41.18,95.68 -64.56,145.77l-26.41 56.54 -63.27 -93.05 -41.01 -65.5c-5.38,11.08 -10.71,22.23 -15.99,33.31 -28.68,60.17 -56.4,118.33 -102.2,174.32l-113.54 138.77 52.2 -172.74c38.59,-128.31 75.26,-250.4 97.04,-381.96l-223.22 -515.14c-14.89,-34.33 -29.64,-67.61 -46.01,-100.29 -6.92,-13.84 -14.18,-27.62 -21.91,-41.39l-13.29 27c-48.18,98.12 -94.55,192.56 -161.14,283.44l-154.4 210.72 92.46 -244.28c29.11,-76.95 57.88,-153.38 82.75,-232.06 22.88,-72.44 42.03,-145.73 54.18,-221.15l-103.42 -138.28 -0.14 0c-9.16,-12.24 -18.19,-23.46 -27.07,-33.6 -9.21,-10.5 -18.94,-20.73 -29.23,-30.66l-26.52 -25.6 26.52 -25.63zm93.55 13.17c-6,4.57 -11.92,9.29 -17.77,14.2l6.91 7.75c11.15,12.7 21.36,25.3 30.69,37.79l-0.09 0.06 121.4 162.3 -2.14 14.46c-6.24,41.9 -14.5,82.96 -24.29,123.42 6.06,-12.24 11.62,-23.35 16.22,-32.4l27.63 -54.24 33.77 50.75c22.37,33.63 41.41,67.68 58.84,102.51 16.97,33.89 32.26,68.37 47.67,103.91l231.49 534.21 -1.61 10.12c-6.34,39.82 -13.92,78.49 -22.42,116.48l28.14 -50.82 97.59 155.84c12.32,-27.7 24.63,-56.25 36.92,-85.59 21.66,-51.64 41.09,-100.2 58.93,-146.6 13.44,-34.99 35.66,-61.44 58.13,-88.17 11.9,-14.16 23.89,-28.44 33.91,-43.96 41.41,-64.24 75.29,-131.24 100.88,-201.17 25.54,-69.67 42.82,-142.32 51.15,-218.09l1.39 -12.59 8.92 -8.85c51.02,-50.63 89.64,-108.31 114.06,-170.97 23.86,-61.21 34.31,-127.51 29.66,-196.99l-1.05 -15.67 10.93 -11.34c51.28,-53.16 94.73,-111.14 128.37,-173.79 31.79,-59.19 54.83,-122.59 67.45,-190.06 5.86,-31.41 7.43,-70.67 5.6,-110.16 -1.3,-28.1 -4.31,-56.05 -8.68,-81.2 -18.67,9.25 -44.23,23.18 -72.46,38.58 -41.1,22.4 -87.52,47.72 -129.41,67.46l-82.37 38.83 34.19 -84.36c7.39,-18.21 71.21,-62.72 135.37,-107.47 56,-39.05 111.06,-74.91 111.69,-76.61 9.16,-24.85 17.03,-49.53 21.95,-74.19 4.77,-23.98 6.84,-47.93 4.69,-71.94 -1.98,-22.31 -3.54,-43.22 -2.55,-64.51 1.07,-22.93 4.92,-45.88 13.87,-70.48 12.5,-34.39 20.56,-70.03 23.72,-106.14 3.08,-35.01 1.51,-70.15 -5.1,-104.64l0 -0.13c-0.84,-4.36 -1.71,-8.2 -2.63,-11.54 -7.86,-28.69 -23.55,-51.64 -44.36,-65.76 -20.13,-13.66 -45.76,-19.23 -74.3,-13.77 -3.98,0.75 -7.36,1.52 -10.07,2.26 -34.57,9.44 -66.62,25.58 -96.06,46.29 -33.69,23.71 -63.76,53.3 -90.16,85.73 -8.39,10.28 -17.78,17.55 -27.66,23.2 -8.67,4.98 -16.92,8.36 -25.07,11.58l-0.03 -0.08c-39.4,15.79 -73.56,38.23 -103.87,65.63 -30.91,27.93 -58.33,61.56 -83.62,98.95l-9.26 13.7 -16.63 1.75c-92.11,9.74 -174.19,50.9 -243.63,110.77 -80.53,69.44 -144.18,163.91 -187.18,264.31 -0.06,0.16 12.37,41.38 27.61,91.27 8.85,29 19.27,58.72 30.06,82.31 3.11,6.03 6.2,12.19 9.24,18.46l-63.21 32.43 -0.87 -1.61c-2.58,-4.82 -5.15,-9.95 -7.69,-15.34l-6.92 -13.15c-17.36,-32.27 -36.2,-62.01 -52.45,-82.63 -6.48,-8.21 12.34,-24.82 4.11,-21.19l-0.23 0.17c-58.42,31.63 -108.76,73.59 -149.37,123.48 -41.18,50.58 -72.46,109.29 -92.15,173.66l-4.08 13.31 -11.93 7.02c-17.7,10.4 -34.26,21.49 -49.77,33.26z"/>
   <path class="fil0" d="M1142.32 3393.8l66.15 -123.78 -61.01 -101.69 -293.81 520.3c-55.56,98.12 -488.6,795.66 -518.47,948.62 -1.43,7.28 29.08,-17.48 53.81,-11.78 27.19,6.26 49,42.71 50.86,44.37 2.04,1.47 424.01,-795.07 434.65,-810.64 62.92,-92.1 251.03,-434.4 267.82,-465.41zm158.47 -296.51l32.57 -60.97c-33.77,-6.08 -67.03,-12.73 -99.92,-20.25l-45.56 80.66c37.91,1.2 75.5,1.66 112.9,0.56zm626.22 -1174.32l365.37 -677.14 177.42 -326.33 375.91 -683.33c-6.07,4.35 -10.79,3.54 -14.33,1.69l-247.27 419.65 -435.65 744.78 -254.12 445.29 32.67 75.4z"/>
   <path class="fil1" d="M1138.14 3391.56l64.88 -121.4 -55.44 -92.43 -289.81 513.22c-10.46,18.5 -34.35,58.3 -66.41,111.72 -135.62,225.96 -417.95,696.36 -450.11,829.11l2.29 -1.08c11.37,-5.24 29.72,-13.72 46.51,-9.85 22.63,5.21 41.25,29.09 49.43,40.44 20.15,-35.84 124.43,-231.53 225.34,-420.86 102.01,-191.41 200.57,-376.34 205.75,-383.91 22.09,-32.34 59.61,-95.5 99.69,-165.13 73.89,-128.41 156.96,-279.67 167.87,-299.83zm74.5 -119.31l-66.14 123.78c-10.86,20.06 -93.68,170.89 -168.03,300.07 -40.26,69.97 -77.93,133.4 -100.05,165.77 -4.97,7.26 -103.37,191.9 -205.22,383.01 -109.73,205.87 -223.45,419.26 -229.26,427.47 -1.82,2.58 -3.77,3.2 -6.5,1.57l-0.73 -0.54c-0.69,-0.63 -1.55,-1.82 -2.83,-3.64 -6.09,-8.63 -24.56,-34.73 -45.92,-39.64 -13.66,-3.15 -30.19,4.49 -40.43,9.21 -5.6,2.59 -9.69,4.48 -12.59,3.91 -3.6,-0.7 -5.17,-2.85 -4.39,-6.89 24.41,-124.92 314.53,-608.32 452.7,-838.53 32,-53.31 55.84,-93.04 66.3,-111.51l297.81 -527.37 66.56 110.96 -1.27 2.37zm85.27 -179.63l28.23 -52.8c-14.83,-2.7 -29.49,-5.51 -43.98,-8.45 -15.73,-3.17 -31.19,-6.47 -46.33,-9.89l-39.95 70.75c16.32,0.48 32.57,0.8 48.69,0.9 17.8,0.12 35.58,-0.02 53.35,-0.51zm39.64 -54.07l-33.88 63.38 -2.76 0.08c-18.7,0.55 -37.52,0.71 -56.39,0.59 -18.91,-0.13 -37.84,-0.54 -56.76,-1.14l-7.82 -0.25 51.14 -90.56 3.43 0.79c16.64,3.81 33.13,7.35 49.49,10.65 16.71,3.37 33.44,6.55 50.21,9.57l6.4 1.15 -3.06 5.74zm589.92 -1126.43l360.74 -668.56 177.44 -326.34 370.33 -673.19c-0.88,-0.06 -1.72,-0.2 -2.52,-0.39l-245.26 416.25 -435.61 744.72 -252.96 443.24 27.86 64.26zm369.08 -664.06l-370.01 685.75c-12.49,-28.85 -24.95,-57.72 -37.5,-86.53 228.46,-399.35 458.59,-794.85 690.98,-1192.17l249.55 -423.53 3.99 2.07c1.12,0.58 2.41,1.01 3.83,0.95 1.52,-0.07 3.35,-0.72 5.57,-2.29l16.93 -12.08 -385.94 701.56 -177.41 326.29z"/>
  </g>
 </g>
</svg>
