<?xml version="1.0" encoding="UTF-8"?>
<svg id="Camada_1" xmlns="http://www.w3.org/2000/svg" version="1.1" viewBox="-7.86 -7.85 408.45 507.31">
  <!-- Generator: Adobe Illustrator 30.6.0, SVG Export Plug-In . SVG Version: 2.1.4 Build 109)  -->
  <defs>
    <style>
      .st0 {
        fill: #2c9eda;
      }

      .st1 {
        fill: #19183b;
      }
    </style>
  </defs>
  <path class="st0" d="M297.1,392.07l-30.6-41.01-33.89-45.71-59.59-80.83-72.69-97.23-25.55-33.95L20.78,22.32c.76.39,1.28.22,1.65-.05l35.02,43.34,61.79,76.97,48.41,61.64,40.68,52.26,95.78,123.1c1.1,1.41,3.18,3.14,2.38,4.7-1.76,3.41-5.66,4.99-7.9,7.66-.55.53-.27.76-.37.97-.25.53.15.8.68,1.53l65.72,90.16c3.35,4.6,10.68,9.09,14.84,5.96,2.06-1.55,3.15-3.86,3.34-6.43.48-6.79-3.2-11.6-7.16-16.66l-31.86-40.81-34.14-42.99c13.89-8.31,24.42-25.38,28.3-41.02-6.65,6.46-11.29,12.98-18.7,18.65,7.08-17.34,14.35-34.54,6.33-52.7-4.35-9.86-9.43-19.81-17.43-27.08l-6.75-6.12c-.75-5.56-3.98-9.78-7.7-13.82l-8.29-9-10.28-12.04c-4.13,11.02-5.83,21.39-11.84,31.45,2.29-15.71,4.47-30.63,4.64-46.7l-34.53-55.56c-4.6-7.4-9.07-14.32-15.09-20.99-5.19,15.46-8.99,30.05-16.55,44.39,4.06-18.63,7.99-36.97,8-56.11l-15.25-15.13c-5.96-5.91-12.65-10.47-20.64-13.7-7.06-14.84-19.28-26.11-34.69-31.7-2.16-.78-3.36-2.69-4.49-4.67-12.67-22.2-34.75-41.07-60.38-40-7.35-8.02-15.63-14.21-26.06-16.69-1.67-.39-3.35-.82-4.73-2.08C36.32,6.48,27.68,1.37,17.96.2,7.7-1.04.46,6.26.04,16.33c-.38,8.93,1.84,17.71,6.13,25.64,2.42,4.47,2.79,8.61,3.07,13.4.49,8.48,4.69,15.81,9.11,23.31-1.65,9.95-2.18,19.92,1.16,29.6,5.54,16.07,15.99,29.28,29.62,39.78,1.39,17.25,10.07,31.86,24.08,42.17,4.6,17.53,13.19,32.95,25.11,46.55,3.93,4.48,9.28,7.62,12.16,12.72,12.03,21.3,24.85,41.48,40.39,60.3,3.05,3.7,5.54,6.06,10.38,7.09,17.78,3.74,35.39,3.86,54.81,3.71-15.05,6.78-30.77,8.53-47.17,10.16l36.01,43.85,29.52,1.3c-7.64,3.22-15.15,4.55-23.02,6.31l5.45,5.31c11.56,11.25,26.61,15.71,42.52,12.81l14.15-2.58c-5.89,5.9-12.6,9.45-19.3,14.04-.51.68,0,1.41.85,1.08,12.09-1.9,23.39-5.59,33.77-13.64l.41,16.19,7-18.07c.73-1.87.58-3.62.85-5.29h0Z"/>
  <path class="st0" d="M367.35,26.09c.4-2.06,2.41-3.06,4.37-3.28l-38.74,51.99-82.1,110,22.47,36.94c1.4,2.3,1.74,4.7,1.41,7.44l.25,2.16c.07.6,2.23.19,2.61.66l9.38,11.7c2.95-1.55,4.45-4.23,6.6-6.48,12.6-13.25,21.47-28.85,25.88-46.5l8.19-7.61c9.98-9.26,14.8-21.82,15.92-35.42,9.84-6.91,17.33-15.67,23.45-25.79,8.05-13.31,10.97-28.45,7.41-43.73,6.65-9.79,9.97-20.39,10.26-32.06,5.69-10.03,9.35-21.36,7.58-32.66-1.33-8.55-7.85-14.02-16.41-13.4-9.03.66-16.66,4.75-23.39,10.65l-4.57,4c-9.11,1.53-16.94,5.34-23.48,11.6l-5.77,5.52c-27.68-1.04-49.03,20.22-62.87,43.77-15.96,5.73-28.94,16.53-36.49,32.25-6.16,3.36-12.33,6.25-17.78,11.24l13.44,13.66c2.06,2.1,1.64,5.41,1.49,8.38l5.27.25c9.24,11.6,16.98,23.72,24.99,36.44l91.08-114.55,29.55-37.17Z"/>
  <path class="st0" d="M57.2,416.4l-41.63,52.97c-3.7,4.71-6.14,9.51-5.32,15.74.47,3.55,3.69,6.7,7.67,5.93,3.72-.71,7.57-2.93,9.98-6.24l43.29-59.54,24.13-32.4-10.02-8.71,38.86-49.38,18.17-23.02c.32-1.84-2.03-4.26-3.13-5.71-12.2-16.12-23.16-32.44-32.88-50.32l-11.05,11.11-4.16,9.12c-3.39,4.31-8.42,7-11.6,11.72-5.41,8.02-10.73,15.72-13.95,24.99-5.08,14.61,1.93,33,7.9,48.17l-18.99-18.98c4.4,15.98,13.08,29.52,25.4,39.83,1.14-.23,3.76,1.71,2.98,2.68l-25.64,32.03h-.01Z"/>
  <path class="st0" d="M149.5,401.16c8.66-1.05,16.56-4.68,22.8-10.51l9.08-8.48c-8.16-2.18-15.36-2.99-22.97-6.5,10.01-.7,19.41.57,28.81-1.24,1.63-.68,3.37-3.24,4.29-4.89l-30.08-37.34c-1.2-1.49-1.52-2.64-1.4-4.34s1.7-2.12,3.42-3.31c-4.95-1.19-8.54-2.09-12.24-4.53-1.66.11-2.84,2.49-3.77,3.72l-49.17,65.27c-1.26,1.67-2.32,3.14-1.88,4.89,1.83,7.21,3.51,14.03,7.01,20.69,1.28-5.11-.02-9.17.27-13.69-.63-.4-.48-.81-.24-.93.36-.19,1.4-.31,1.82,0,9.87,7.28,21.22,12.13,34.14,12.73l-20.17-15.31c10.26,2.16,19.92,5,30.27,3.75v.02h.01Z"/>
  <path class="st1" d="M297.1,392.07c.55-.13,1.33.06,1.48-.12,2.24-2.67,6.14-4.25,7.9-7.66.8-1.56-1.28-3.29-2.38-4.7l-95.78-123.1-40.68-52.26-48.41-61.64-61.79-76.97L22.42,22.28c-.37.27-.89.44-1.65.05l54,71.02,25.55,33.95,72.69,97.23,59.59,80.83,33.89,45.71,30.6,41.01h0Z"/>
</svg>