<?xml version="1.0" encoding="UTF-8"?>
<svg id="Camada_1" xmlns="http://www.w3.org/2000/svg" version="1.1" xmlns:xlink="http://www.w3.org/1999/xlink" viewBox="0 0 419 419">
  <!-- Generator: Adobe Illustrator 30.6.0, SVG Export Plug-In . SVG Version: 2.1.4 Build 109)  -->
  <defs>
    <style>
      .st0 {
        fill: #ac8634;
      }

      .st1 {
        fill: #a62120;
      }

      .st2 {
        fill: url(#Gradiente_sem_nome_5);
      }

      .st3 {
        fill: #e0b34b;
      }

      .st4 {
        fill: #e0b64c;
      }

      .st5 {
        fill: #ddb34b;
      }

      .st6 {
        fill: #fff;
      }

      .st7 {
        fill: #e0b44d;
      }

      .st8 {
        fill: #96191d;
      }

      .st9 {
        fill: #865936;
      }

      .st10 {
        fill: #fcfdfc;
      }

      .st11 {
        font-family: MyriadPro-Bold, 'Myriad Pro';
        font-size: 97.9px;
        font-weight: 700;
      }

      .st12 {
        fill: #e0b44e;
      }

      .st13 {
        fill: #a42120;
      }

      .st14 {
        fill: #fffffe;
      }

      .st15 {
        fill: #010101;
      }

      .st16 {
        fill: #b0b0ae;
      }

      .st17 {
        fill: #cfcfcf;
      }

      .st18 {
        fill: #e0b24c;
      }
    </style>
    <linearGradient id="Gradiente_sem_nome_5" data-name="Gradiente sem nome 5" x1="209.4" y1="87.1" x2="209.6" y2="130" gradientUnits="userSpaceOnUse">
      <stop offset="0" stop-color="#e22624"/>
      <stop offset="1" stop-color="#b62224"/>
    </linearGradient>
  </defs>
  <g id="Objeto_generativo">
    <g>
      <path class="st6" d="M0,418.8V0h419v419H0v-.2ZM130.6,83c0,.2,0,.5-.2.7l-26.5.2c-7.2,0-12.7,6-14.2,12.9v35c-.1,0-.2,6.3-.2,6.3v197.7c1.6,8,7.7,14.6,16.1,14.6h209c8.2,0,14.8-8.4,14.8-16v-91.7s0-104.4,0-104.4v-19.2s0-19.2,0-19.2c0-8.5-6.2-16-14.8-16h-21.7s-4.5,0-4.5,0v-9c0-3.3-2.2-5.8-5.1-6.2s-6.6,1.6-6.7,5v9.7c-.1,0-134.2.2-134.2.2v-9.8c-.1-3.2-3.5-5.4-6.3-5.1s-5.5,2.7-5.5,5.9v8.6Z"/>
      <path class="st2" d="M130.8,99.5l-.7-.2v-6.2c-2.5,2.1-3,5.5-2,8.8,1.7,5.5,9.1,7.7,13.6,4.3s4.5-7.7,2.3-11.8-.5-1.7-1.6-1.6v-9.4s134.1-.2,134.1-.2v9.8c-.5,0-1.2.4-1.6,1.1-2.8,4.5-1,11,4,12.9s8.5.3,10.8-3,2.2-8.1-.9-11.3v-8.6s4,0,4,0c.1-.1.1-.4,0-.5h21.7c8.6,0,14.9,7.6,14.8,16v19.2c-.5,0-.6.4-.5.8v13.9c0,0-239,0-239,0,0-.8.1-1.4,0-1.7s-.2-.3-.5-.3v-35c1.7-6.9,7.2-12.8,14.4-12.9l26.5-.2c.1-.1.1-.5.2-.7v10.3c0,2.6-.2,5,.2,6.2Z"/>
      <path class="st9" d="M94.4,138.5c-.1,0-.4.2-.4.7v47.1s0,127.2,0,127.2v5.7c-.1,10,7.2,17.6,17.3,17.6h110s26.2-.4,26.2-.4c8.4-.5,15.6-5.1,20.5-11.7l1.5-2.9.6-1.2c6.6-4.9,12.6-10.3,18.7-16l6.8-6.4,13.2-13.2,4.5-5c3.8-4.2,7.4-8.4,10.2-13.1s1.4-2.4,1.4-4.2v-123.4c0-.6-.4-.6-.5-.7l4.9-.3v104.4s0,91.7,0,91.7c0,7.7-6.6,15.9-14.8,15.9H105.7c-8.4,0-14.5-6.5-16.1-14.5v-197.7c1.4,1.2,3.1,0,4.8.4Z"/>
      <path class="st8" d="M329.5,138.2l-4.9.3H94.4c-1.7-.5-3.5.8-4.9-.4v-6.3c.3,0,.5,0,.5.3,0,.3,0,.9,0,1.7h238.9s0-13.9,0-13.9c-.1-.4,0-.8.4-.8v19.2Z"/>
      <path class="st15" d="M288.5,83.8v15c-.1,1.6-1.1,3.5-2.4,4.3-1.9,1.2-3.8,1.4-5.8.7-4.6-1.7-3.7-6.1-3.7-10.6v-9.8s0-9.7,0-9.7c0-3.4,3.6-5.5,6.7-5s5.2,3,5.1,6.2v9Z"/>
      <path class="st15" d="M142.4,83.5v9.4c0,2.2.3,4.8-.3,6.9-.9,3.2-3.6,4.6-6.7,4.2s-4.2-2.2-4.6-4.5c-.4-1.2-.2-3.6-.2-6.2v-10.3s0-8.6,0-8.6c0-3.2,2.5-5.7,5.5-5.9s6.2,1.9,6.3,5.1v9.8Z"/>
      <path class="st1" d="M293,83.8c0,.1,0,.3,0,.5h-4s0,8.6,0,8.6c3.1,3.1,3.3,7.7.9,11.3s-6.6,4.7-10.8,3-6.8-8.4-4-12.9,1.1-1,1.6-1.1c0,4.5-.9,9,3.7,10.6s3.9.5,5.8-.7,2.2-2.6,2.2-4.3v-15c.1,0,4.7,0,4.7,0Z"/>
      <path class="st13" d="M130.8,99.5c.4,2.3,2.1,4.2,4.6,4.5s5.9-1,6.7-4.2.3-4.7.3-6.9c1.1-.2,1.2.7,1.6,1.6,2.2,4.1,1.6,8.9-2.3,11.8s-11.9,1.2-13.6-4.3-.5-6.7,1.9-8.8v6.2c0,0,.8.2.8.2Z"/>
      <path class="st10" d="M324.5,138.5c.1.1.5.2.5.7v123.4c0,1.7-.7,3-1.4,4.2-.7-.1-1.1.3-1.7.7-4.3,2.4-9.1,3-14.2,3-1.3.3-2.2,1.6-2.2,3.1-2.7.6-2.7,4.5-6.5,6.8s-1.4,1.7-2.8,2.1c.6.9-.6,1.1-.5.2-1.8.7-2.7,2.4-4.1,3.8l-3.3,3.5c-1,1-1.4,2.5-2.4,3.4s-2.6.7-3.1,1.6c-1.1,1.7.1,1.9-2.9,3.3s-1.1,1.8-1.5,2.3l-3.8,1.1v-12.6c-.1-9.5,4.5-15.6,12.9-19.2-4.7,0-9.1.9-12.7,3.5s-5.9,6.2-6.6,10.4c-2,11.2,2.9,21.9-4.1,37.7-.3.6,0,1.2-1,1.6-4.7,1.7-9.7,3.1-15,3.1H109.7c-4.7,0-9.1-2.7-11.9-5.9s-2.5-5.7-3.8-6.7v-127.2s0-47.1,0-47.1c0-.4.3-.6.4-.7h230.1ZM230.7,199.6l5.5,9.4,5.2,5.9c.4.4,1,.2,1.1,0s.2-.7,0-1.1l-8.3-17.6,13.1-13.2c-2.1-1.9-4.8-1.9-7.1-.7s-4.9.3-7.4-.1l-3.7,3.5-13.1-27c1.2-3.1.4-6.2-2.2-8.3s-5.8-2.2-8.4-.2-3.8,5.1-2.4,8.4l-13.1,27-3.5-3.3c-2.2,0-4.6,1-6.7.2s-5.6-1.7-8.1.6l13.2,13.2-8.4,17.6c-.2.5-.2,1,.2,1.3s.8.2,1.2-.2l3.6-4.2c2.8-3.2,4.5-7.1,6.8-11l21.1,21.1,21.2-21.1Z"/>
      <path class="st17" d="M323.6,266.8c-2.8,4.7-6.3,8.9-10.2,13.1l-4.5,5-13.2,13.2-6.8,6.4c-6.1,5.7-12.1,11.1-18.7,16l-.6,1.2c-.2,0-.8.2-1.1.5-6,6.3-13.9,9-22.6,9.1l-38.1.2h-96.8c-7.4,0-13.4-4.3-16.1-10.9l-.3-1.1c0-.2-.4-.3-.6-.3v-5.7c1.3,1,1.5,4,3.9,6.7s7.2,5.9,11.9,5.9h138.3c5.3,0,10.3-1.4,15-3.1s.8-1,1-1.6c7-15.8,2.1-26.6,4.1-37.7s3.3-8,6.6-10.4,8-3.5,12.7-3.5c-8.4,3.6-13,9.7-13,19.2v12.6c0,0,3.9-1.1,3.9-1.1.4-.6.6-1.9,1.5-2.3,3-1.5,1.8-1.7,2.9-3.3s2.2-.8,3.1-1.6,1.5-2.4,2.4-3.4l3.3-3.5c1.4-1.4,2.2-3.1,4.1-3.8-.1.9,1,.7.5-.2,1.4-.3,1.9-1.5,2.8-2.1,3.7-2.3,3.7-6.1,6.5-6.8,0-1.5.9-2.8,2.2-3.1,5.1,0,9.9-.5,14.2-3s1.1-.8,1.7-.7Z"/>
      <path class="st16" d="M269.6,321.6l-1.5,2.9c-4.9,6.6-12.1,11.2-20.5,11.7l-26.2.3h-110c-10.1,0-17.5-7.6-17.4-17.6.2,0,.6,0,.6.3l.3,1.1c2.7,6.6,8.7,10.8,16.1,10.8h96.8c0,0,38.1-.1,38.1-.1,8.7,0,16.6-2.8,22.6-9.1.3-.3.9-.4,1.1-.5Z"/>
      <path class="st0" d="M230.7,199.6l-21.2,21.1-21.1-21.1c-2.3,3.9-4,7.8-6.8,11l-3.6,4.2c-.4.4-.9.4-1.2.2-.4-.3-.5-.8-.2-1.3l8.4-17.6-13.2-13.2c2.4-2.3,5.4-1.6,8.1-.6s4.6-.1,6.7-.2l3.5,3.3,13.1-27c-1.4-3.4-.2-6.5,2.4-8.4s6-1.8,8.4.2,3.4,5.2,2.2,8.3l13.1,27,3.7-3.5c2.5.5,5.2,1.3,7.4.1s5-1.2,7.1.7l-13.1,13.2,8.3,17.6c.2.4.2.9,0,1.1s-.8.5-1.1,0l-5.2-5.9-5.5-9.4ZM208.4,150.4c-3,.5-4.7,3.6-4.1,6.5s3.7,4.7,6.6,3.9,4.6-3.6,3.9-6.6-3.3-4.4-6.4-3.9ZM196.7,181.5c1.6-2.8,4.7-3.5,6.5-5.2,2.6-2.9,3.4-7.1,5.5-10.3l-2-3.6-2.7-2.2-13.4,27.8-9.2,19.4h.5s4.3-7.4,4.3-7.4l10.6-18.5ZM223.5,183.3l14,24.6.3-.3-8.5-17.9-14.3-29.6c-1.9,1.9-3.7,2.6-6.1,2.8l6.7,13.7c3.5,1.2,6,3.6,7.8,6.8ZM225,189.6l-2.7-4.9c-1.8-3.2-4.2-5.9-7.9-6.8l-4.4-9.1c0-.2-.7-.3-.8-.2l-4.6,9.3c-2.9.9-5.3,2.4-6.8,5l-3.6,6.5,15.5,15.5c4.9-5.3,9.9-10.3,15.4-15.3ZM189.2,187.2l-3.8-3.6c-5.7,2.4-8.2-1.8-11-.1l5.7,5.5,5.7,5.4,3.5-7.2ZM233.4,194.4l3.7-3.4,7.7-7.5c-1.1-.9-2.3-.7-3.4-.1-5.2,2.7-8-1.6-10.2,2.5s-1.4.9-1.1,1.6l3.3,7ZM225.8,191.1l-15.2,15.1c-.1.3-1.1,1.1-1.4.7l-16-15.9-4.1,6.9,20.4,20.4,20.3-20.4-4-6.9Z"/>
      <path class="st14" d="M225,189.6c-5.5,5-10.5,10-15.4,15.3l-15.5-15.5,3.6-6.5c1.5-2.6,3.9-4.1,6.8-5l4.6-9.3c0-.1.7,0,.8.2l4.4,9.1c3.7.9,6.2,3.6,7.9,6.8l2.7,4.9Z"/>
      <path class="st12" d="M225.8,191.1l4,6.9-20.3,20.4-20.4-20.4,4.1-6.9,16,15.9c.4.4,1.3-.4,1.4-.7l15.2-15.1Z"/>
      <path class="st3" d="M223.5,183.3c-1.8-3.2-4.3-5.6-7.8-6.8l-6.7-13.7c2.4-.1,4.2-.8,6.1-2.8l14.3,29.6,8.5,17.9-.3.3-14-24.6Z"/>
      <path class="st7" d="M196.7,181.5l-10.6,18.5-4.3,7.4h-.5s9.2-19.4,9.2-19.4l13.4-27.8,2.7,2.2,2,3.6c-2.1,3.2-2.9,7.4-5.5,10.3-1.7,1.8-4.8,2.4-6.5,5.2Z"/>
      <path class="st4" d="M208.4,150.4c3.1-.5,5.6,1.2,6.4,3.9s-1.1,5.8-3.9,6.6-6-1.1-6.6-3.9,1.1-6,4.1-6.5Z"/>
      <path class="st5" d="M233.4,194.4l-3.3-7c-.3-.6.9-1.2,1.1-1.6,2.2-4,5,.2,10.2-2.5s2.3-.8,3.4.1l-7.7,7.5-3.7,3.4Z"/>
      <path class="st18" d="M189.2,187.2l-3.5,7.2-5.7-5.4-5.7-5.5c2.8-1.6,5.3,2.5,11,.1l3.8,3.6Z"/>
    </g>
    <text class="st11" transform="translate(153.5 301.6)"><tspan x="0" y="0">12</tspan></text>
  </g>
</svg>