<?xml version="1.0" encoding="UTF-8"?>
<!DOCTYPE svg PUBLIC "-//W3C//DTD SVG 1.1//EN" "http://www.w3.org/Graphics/SVG/1.1/DTD/svg11.dtd">
<!-- Creator: CorelDRAW (Versão OEM) -->
<svg xmlns="http://www.w3.org/2000/svg" xml:space="preserve" width="210mm" height="297mm" version="1.1" style="shape-rendering:geometricPrecision; text-rendering:geometricPrecision; image-rendering:optimizeQuality; fill-rule:evenodd; clip-rule:evenodd"
viewBox="0 0 210000 297000"
 xmlns:xlink="http://www.w3.org/1999/xlink"
 xmlns:xodm="http://www.corel.com/coreldraw/odm/2003">
 <defs>
  <style type="text/css">
   <![CDATA[
    .fil15 {fill:#373435;fill-rule:nonzero}
    .fil16 {fill:#009EE1;fill-rule:nonzero}
    .fil4 {fill:#0D3D75;fill-rule:nonzero}
    .fil14 {fill:#1E2A50;fill-rule:nonzero}
    .fil5 {fill:#406B9C;fill-rule:nonzero}
    .fil11 {fill:#9E7523;fill-rule:nonzero}
    .fil0 {fill:#AF7104;fill-rule:nonzero}
    .fil3 {fill:#FAF08B;fill-rule:nonzero}
    .fil1 {fill:url(#id0);fill-rule:nonzero}
    .fil8 {fill:url(#id1);fill-rule:nonzero}
    .fil2 {fill:url(#id2);fill-rule:nonzero}
    .fil10 {fill:url(#id3);fill-rule:nonzero}
    .fil12 {fill:url(#id4);fill-rule:nonzero}
    .fil6 {fill:url(#id5);fill-rule:nonzero}
    .fil13 {fill:url(#id6);fill-rule:nonzero}
    .fil7 {fill:url(#id7);fill-rule:nonzero}
    .fil9 {fill:url(#id8);fill-rule:nonzero}
   ]]>
  </style>
  <linearGradient id="id0" gradientUnits="userSpaceOnUse" x1="72169.5" y1="137601.8" x2="149840.4" y2="137601.8">
   <stop offset="0" style="stop-opacity:1; stop-color:#D9AE21"/>
   <stop offset="0.360784" style="stop-opacity:1; stop-color:#EED688"/>
   <stop offset="0.6" style="stop-opacity:1; stop-color:#C3922E"/>
   <stop offset="0.870588" style="stop-opacity:1; stop-color:#EED688"/>
   <stop offset="1" style="stop-opacity:1; stop-color:#C3922E"/>
  </linearGradient>
  <linearGradient id="id1" gradientUnits="userSpaceOnUse" x1="179718.3" y1="85849.9" x2="177873.3" y2="85849.9">
   <stop offset="0" style="stop-opacity:1; stop-color:#536F5F"/>
   <stop offset="0.0784314" style="stop-opacity:1; stop-color:#2E7E6B"/>
   <stop offset="0.380392" style="stop-opacity:1; stop-color:#928556"/>
   <stop offset="0.560784" style="stop-opacity:1; stop-color:#A2B47C"/>
   <stop offset="0.658824" style="stop-opacity:1; stop-color:#D7B189"/>
   <stop offset="0.85098" style="stop-opacity:1; stop-color:#7B8B7C"/>
   <stop offset="0.960784" style="stop-opacity:1; stop-color:#497775"/>
   <stop offset="1" style="stop-opacity:1; stop-color:#497775"/>
  </linearGradient>
  <linearGradient id="id2" gradientUnits="userSpaceOnUse" x1="82170" y1="104766.8" x2="133172.7" y2="139185.2">
   <stop offset="0" style="stop-opacity:1; stop-color:#FBC926"/>
   <stop offset="0.360784" style="stop-opacity:1; stop-color:#EED688"/>
   <stop offset="0.6" style="stop-opacity:1; stop-color:#C3922E"/>
   <stop offset="0.870588" style="stop-opacity:1; stop-color:#EED688"/>
   <stop offset="1" style="stop-opacity:1; stop-color:#C3922E"/>
  </linearGradient>
  <linearGradient id="id3" gradientUnits="userSpaceOnUse" x1="4473506.3" y1="-1088445.8" x2="6164680.7" y2="-122045.1">
   <stop offset="0" style="stop-opacity:1; stop-color:#FBC926"/>
   <stop offset="0.25098" style="stop-opacity:1; stop-color:#FFFBCC"/>
   <stop offset="0.301961" style="stop-opacity:1; stop-color:#F8EFBA"/>
   <stop offset="0.411765" style="stop-opacity:1; stop-color:#E7D18D"/>
   <stop offset="0.54902" style="stop-opacity:1; stop-color:#CCA246"/>
   <stop offset="0.6" style="stop-opacity:1; stop-color:#C3922E"/>
   <stop offset="0.870588" style="stop-opacity:1; stop-color:#EED688"/>
   <stop offset="1" style="stop-opacity:1; stop-color:#FFFBCC"/>
  </linearGradient>
  <linearGradient id="id4" gradientUnits="userSpaceOnUse" xlink:href="#id3" x1="2086324.9" y1="-338249.5" x2="2380297.8" y2="-72247">
  </linearGradient>
  <linearGradient id="id5" gradientUnits="userSpaceOnUse" xlink:href="#id2" x1="53104041.6" y1="-30856560.7" x2="16631488.6" y2="-6685214.6">
  </linearGradient>
  <linearGradient id="id6" gradientUnits="userSpaceOnUse" xlink:href="#id3" x1="6688024.7" y1="-12618861.3" x2="10660654.7" y2="-7843583.8">
  </linearGradient>
  <linearGradient id="id7" gradientUnits="userSpaceOnUse" xlink:href="#id3" x1="107504.8" y1="80432.1" x2="145923.5" y2="139518.6">
  </linearGradient>
  <linearGradient id="id8" gradientUnits="userSpaceOnUse" xlink:href="#id3" x1="-837793.1" y1="-56132307.5" x2="23415501.4" y2="-9782714.4">
  </linearGradient>
 </defs>
 <g id="Camada_x0020_1">
  <metadata id="CorelCorpID_0Corel-Layer"/>
  <g id="Square_And_Compasses.svg">
   <path class="fil0" d="M118194.5 128065.5c0,950.1 135,1655.1 650.8,1899.3 81.7,108.4 81.7,325.8 -26.6,407.5 -299.2,0 -787.6,108.4 -1303.4,216.7 -1681.8,406.7 -3717.8,733.4 -5263.7,733.4 -3256.8,0 -6322,-868.4 -8356.3,-2984.4 -1600.9,-1655.1 -2388.5,-3934.4 -2388.5,-6213.6 0,-2279.3 787.6,-4611.9 2496.8,-6375.4 1926,-2035.9 4883.7,-3201.8 8654.7,-3201.8 1275.1,0 2658.5,217.5 3608.5,406.7 623.4,135 1411,244.2 1736.8,244.2 27.5,814.2 216.7,2197.6 352.5,4314.4 -135.8,270.8 -732.5,298.3 -867.5,54.1 -597.6,-2631.8 -2523.5,-3934.4 -5210.3,-3934.4 -4775.3,0 -7081.2,3446.1 -7081.2,8058.8 0,2170.2 488.3,4504.4 1952.6,6240.4 1465.1,1736.7 3636,2305.9 5236.9,2305.9 1301.8,0 2089.3,-215.8 2415.2,-623.4 163.3,-244.1 244.1,-732.5 244.1,-1709.2l0 -976.7c0,-1926 -26.7,-2089.3 -1845.1,-2387.7l-976.7 -162.5c-190,-190 -190,-650 27.5,-786.7 1058.4,55 2360.1,81.7 4231.9,81.7 1221.7,0 2143.4,-26.7 3311,-81.7 270.8,136.7 298.3,596.7 54.2,786.7l-488.4 81.7c-1004.2,162.5 -1166.7,379.2 -1166.7,2034.3l0 1574.3 0.9 -2.6z"/>
   <polygon class="fil1" points="110771.5,157519.6 72184.4,119254.2 72184.4,118666.7 110433.2,141516.2 149918.7,117778.3 149902.9,118362.5 "/>
   <path class="fil2" d="M110771.5 156930.4l-38602.1 -38270.4 6462.9 -30.8c0,0 2279.3,-1601.8 3896,-1708.5 1037.6,-69.2 1929.3,689.2 1929.3,689.2l1996.8 -1172.6 23977.9 24097.2 25750.6 -24755.5 1815.1 649.2c0,0 805.1,-245.9 2179.3,-76.7 1374.3,170 3183.5,1741.8 4647.8,1665.9 904.2,93.4 5125.3,-265.8 5125.3,-265.8l-39178.9 39179.7 0 -0.9z"/>
   <polygon class="fil3" points="110839.1,147679.1 80477.4,117560.8 80845.7,117394.9 110838.2,147124.9 141270.7,116695.7 141644.9,116861.6 110839.1,147679.1 "/>
   <g>
    <rect class="fil3" transform="matrix(0.222878 -0.222568 0.222568 0.222878 77800.7 124050)" width="18184.8" height="1928.8"/>
    <polygon class="fil3" points="91156.3,137410.2 90727.1,136980.2 94775.7,132930.8 95206.5,133360 "/>
    <polygon class="fil3" points="84694.3,130947.3 84263.4,130517.3 88312.8,126467.1 88742.8,126897.1 "/>
    <rect class="fil3" transform="matrix(0.222723 -0.222723 0.222723 0.222723 97190.2 143443)" width="18182.2" height="1931.5"/>
    <rect class="fil3" transform="matrix(0.222801 -0.222645 0.222645 0.222801 103654 149903)" width="18465.3" height="1931.5"/>
    <rect class="fil3" transform="matrix(0.222723 -0.222723 0.222723 0.222723 81031.5 127285)" width="9093.7" height="1931.5"/>
    <rect class="fil3" transform="matrix(0.222373 -0.223073 0.223073 0.222373 87497.4 133748)" width="9091.1" height="1928.8"/>
    <polygon class="fil3" points="94388.2,140642 93958.1,140212 95983.2,138186.9 96413.3,138616.9 "/>
    <polygon class="fil3" points="100851.9,147104.9 100421,146675.7 102446.1,144649.8 102876.1,145080.6 "/>
    <polygon class="fil3" points="107314.7,153568.6 106884.7,153138.5 108909.8,151112.6 109339,151543.5 "/>
   </g>
   <g>
    <polygon class="fil3" points="143262.5,124484.5 143692.5,124054.5 139643.1,120004.2 139213.1,120434.3 "/>
    <polygon class="fil3" points="130336.8,137410.2 130766,136980.2 126717.4,132930.8 126287.4,133360 "/>
    <polygon class="fil3" points="136798.8,130947.3 137229.7,130517.3 133179.5,126467.1 132750.3,126897.1 "/>
    <rect class="fil3" transform="matrix(0.222645 -0.222801 0.222801 0.222645 119822 139828)" width="1931.5" height="18182.2"/>
    <rect class="fil3" transform="matrix(0.222645 -0.222801 0.222801 0.222645 113296 146226)" width="1931.5" height="18465.3"/>
    <polygon class="fil3" points="140030.7,127716.3 140461.5,127285.5 138436.4,125259.5 138006.4,125690.4 "/>
    <rect class="fil3" transform="matrix(0.222878 -0.222568 0.222568 0.222878 131544 132147)" width="1928.8" height="9091.1"/>
    <rect class="fil3" transform="matrix(0.222723 -0.222723 0.222723 0.222723 125080 138617)" width="1931.5" height="9093.7"/>
    <polygon class="fil3" points="120642.1,147104.9 121072.1,146675.7 119047,144649.8 118617,145080.6 "/>
    <rect class="fil3" transform="matrix(0.222723 -0.222723 0.222723 0.222723 112154 151543)" width="1931.5" height="9093.7"/>
   </g>
   <path class="fil4" d="M84431.8 117599.1l26181.4 26318.1 27814.9 -27531.5c-253.4,37.5 -394.2,77.5 -394.2,77.5l-1815.1 -648.4 -25749.8 24754.7 -23979.6 -24096.3 -1996.8 1172.6c0,0 -25,-19.2 -60.8,-46.7l0 0z"/>
   <path class="fil5" d="M93599.8 124932c356.6,-49.2 724.2,-198.4 1032.5,62.5 -69.1,-57.5 -93.3,-221.7 -100.8,-420l-317.5 -319.2c1.6,32.5 4.1,57.5 8.3,61.6 -79.2,-67.5 -132.5,-152.5 -185.8,-240l-418.4 -420c-120,-75.9 -246.7,-147.5 -371.6,-210 -435.9,-220.9 -778.4,-220.9 -1237.6,-337.6 235.8,-115.8 528.4,-231.6 790.9,-275.8l-250.1 -251.7c-490,210 -985.9,433.4 -1510.9,87.5 -399.2,-261.7 -32.5,-1135 315,-1288.4l-370.8 -372.5c-275,162.5 -609.2,246.7 -911.7,139.2 -123.4,-44.2 -536.7,-308.4 -367.6,-476.7 120,-119.2 646.8,335 930.1,242.5 64.2,-20.8 118.3,-51.7 168.4,-86.7l-968.4 -973.4c-40,14.2 -80,26.7 -120,34.2 11.6,-38.3 25.8,-77.5 38.3,-116.7l-255.9 -257.5c-56.6,155 -123.3,304.2 -187.5,437.5 -105,215 -287.5,392.6 -390.8,600.9 -69.2,138.3 -49.2,375 -178.4,479.2 -245,197.5 -190.8,0 -390.8,-141.7 -304.2,-216.7 -549.2,-313.3 -878.4,-216.7l1412.6 1420.1c87.5,-261.7 211.6,-507.5 523.3,-685.8 286.7,370.8 840.9,785.8 653.4,1332.5 -51.7,150.9 -130.8,245.9 -225.8,308.4l669.2 672.5c53.3,-110 103.3,-224.1 140,-347.5 18.3,157.5 -4.2,301.7 -48.4,440l1480.9 1488.5c102.5,-827.6 -1007.5,-1008.4 -864.2,-1722.6 275.9,49.2 721.7,39.2 946.8,234.2 234.1,202.5 358.3,701.7 508.3,975.9 341.7,38.3 597.6,189.1 934.2,142.5l-0.8 0.8zm-1646 -2829.3c32.6,-2.5 62.5,-13.4 94.2,-24.2l-411.6 -412.5c-37.6,221.7 -140.1,469.2 317.5,437.5l-0.1 -0.8zm7476.3 7395.4c-157.5,242.5 -439.2,200.8 -615,429.2 -175,-254.2 99.2,-541.7 199.2,-846.7l-617.6 -620.9c-160,51.7 -310,158.3 -401.7,293.3 -15,-226.6 56.7,-399.2 175,-520.8l-260.8 -260.8c-5.8,6.6 -14.2,12.5 -20.8,19.1 -468.4,515.9 -242.5,1240.1 -935.1,1638.5 -287.5,-370.9 -844.2,-785.1 -657.5,-1331.8 210,-615.8 861.7,-310 1322.6,-619.2l-230.9 -231.6c-60.8,62.5 -129.2,115.8 -212.5,149.1 -120.8,47.5 -429.2,107.5 -523.4,-15.8 -22.5,-30 -33.3,-58.3 -34.2,-84.2 -7.5,-135 218.4,-233.3 295.1,-310 44.1,-44.2 72.5,-85 91.6,-125l-615.9 -619.2c-239.2,391.6 -535.8,745.8 -676.7,1224.2 -63.3,-541.7 345.1,-931.7 458.4,-1443.4l-243.4 -245c-49.1,343.3 -183.3,716.7 -399.2,874.2l-25 62.5c-25,-193.4 51.7,-494.2 -4.1,-665.1 -67.5,-206.7 -325.1,-290 -370.1,-527.5 -32.5,-173.3 40.9,-299.2 113.4,-431.7l-390.9 -392.5c-250.8,239.2 -516.7,482.5 -571.7,790.9 -155.8,875 1008.4,1044.2 863.4,1773.4 -276.7,-48.4 -722.5,-37.5 -948.4,-232.5 -233.3,-202.5 -359.2,-701.7 -510.9,-975.1 -294.1,-33.3 -529.1,-142.5 -804.2,-142.5l2100.2 2110.2c110.8,27.5 223.3,72.5 336.6,146.6 120.9,79.2 170.9,213.4 174.2,367.6l1871.8 1881.7c29.1,-45 57.5,-89.1 80,-135.8 68.3,-137.5 47.5,-375 176.7,-480 245,-198.4 191.6,0 392.5,142.5 367.5,260.8 647.5,350 1094.2,130.8 229.2,-113.3 433.4,-296.7 587.5,-511.7l-264.1 -265.8 1.7 0.8zm2114.3 3292.7c-226.7,-293.4 -758.4,-739.2 -1.7,-807.6 210.1,-19.1 408.4,64.2 560.9,201.7l-1141.8 -1147.5c69.2,170 120.9,345.8 177.6,473.3l16.6 44.2c-32.5,-37.5 -558.3,-454.2 -689.2,-451.7 -380.8,5.8 -369.2,570.9 -260,811.7 -252.5,-300.8 -498.4,-1237.6 -10,-1385.1 86.7,-25.8 163.3,-33.3 232.5,-28.3l-393.3 -395.1c-854.3,253.4 -67.5,2016.8 250,2638.5 197.5,386.7 1120.9,2108.5 1435.1,790.1 60.8,-260.9 -24.2,-544.2 -176.7,-744.2zm-12584.9 -13288.3c51.7,-220 -4.1,-454.2 -114.2,-642.5l-1453.4 -1460.1c-28.3,170 0,365.9 53.4,483.4 -119.2,-143.4 -235,-429.2 -274.2,-705.1l-272.6 -274.2c66.7,628.4 433.4,1431 625.9,1809.3 198.4,387.5 1121.7,2108.5 1434.3,790.1l0.8 -0.9zm-3235.2 -1684.2c-62.4,-29.2 -125.8,-50.9 -189.1,-60 -190.1,-29.2 -488.4,-10.9 -575.9,201.7 -29.2,69.1 -28.4,125 -13.3,175.8l1438.4 1446.8c28.3,-170.9 -1.7,-369.2 -55,-488.4 120.8,144.2 239.2,433.3 278.3,711.7l267.5 268.3c-3.3,-817.5 -550.8,-1967.6 -1150,-2255.1l-0.9 -0.8zm12068.2 13230.7l765.1 769.2c-220.1,-354.2 -515.9,-740.8 -765.1,-769.2zm35006.9 -10218.1c-156.6,-372.5 -323.3,-866.7 -252.5,-1278.4 19.2,-112.5 66.7,-220 132.5,-317.5l-544.2 523.4c45.9,333.3 188.4,675 262.5,990 -288.3,-70.8 -540.8,-330 -835,-440l-630 606.7c27.5,334.2 158.3,678.4 491.6,808.4 278.4,107.5 828.4,-318.3 941.8,-192.5 159.1,176.7 -267.6,418.4 -392.6,456.7 -449.2,133.3 -947.5,-141.7 -1221.7,-467.5 -75.9,-89.2 -142.5,-166.7 -208.4,-231.7l-1275.9 1227.6c92.5,16.6 188.4,34.1 290.1,70.8 165,61.7 310,232.5 486.7,253.3 710.8,86.7 90.8,-577.5 464.1,-710 380.9,-132.5 902.6,1043.4 418.4,1325.1 -800.9,468.3 -1471.7,-293.4 -2190.1,-430.1l-1382.6 1328.5c0,405.8 26.7,1105.8 -139.2,1231.7 322.5,-244.2 680.9,-75.9 1034.2,-8.4 333.4,65 596.7,-71.6 940.1,-93.3 164.2,-265 315.8,-757.6 559.2,-947.5 153.3,-120.1 395,-145.1 622.5,-159.2l2820.2 -2791.8c-8.4,-48.4 -17.5,-95 -35,-133.4 -90.9,-213.3 -264.2,-400 -358.4,-621.7l1.7 0.8zm-4118.5 3282.7c-195,86.7 -408.4,184.2 -573.4,304.2 -202.5,147.5 -266.7,375.8 -446.7,513.3 25,-20 25,-572.5 50.9,-647.5 100,-297.5 287.5,-520.8 566.7,-667.5 280.8,-148.4 560.8,-160.9 866.7,-94.2 263.3,56.7 556.7,190 790.1,321.7 -465.1,90.8 -805.9,74.2 -1254.3,270.8l0 -0.8zm-2032.6 919.2l-170.1 163.4c-3.3,142.5 -9.1,286.7 24.2,430 55,237.6 239.2,400.1 176.7,659.2 -57.5,235.1 -320.1,304.2 -397.6,506.8 -64.1,167.5 -4.1,471.6 -39.2,663.3l-22.4 -62.5c-300.9,-245.8 -408.4,-940.8 -344.2,-1319.2 35,-203.4 133.3,-372.5 245.8,-535l-402.5 385.8c-59.2,160.8 -102.5,325.9 -120.8,496.7 -70.9,676.7 504.2,1135.1 395,1775.1 -160.8,-669.2 -630,-1118.4 -823.4,-1744.3l-355.8 342.5c13.3,127.5 20.8,253.4 -29.2,375.1 -74.2,181.6 -127.5,304.1 33.3,483.3 72.5,80 293.4,191.7 278.4,325 -2.5,26.7 -15,53.4 -38.4,82.5 -100.8,117.6 -405.8,41.7 -523.3,-12.5 -204.2,-94.1 -332.6,-293.3 -375.1,-507.5 -8.3,-41.7 -5,-74.2 -7.4,-109.2l-369.2 355c64.1,95 148.3,192.6 271.6,296.7 443.4,372.6 1140.1,71.7 1321.8,712.6 75,265 -19.2,491.7 -170,694.2l1491.7 -1475.9c-43.4,3.3 -88.4,4.1 -125.8,9.1 -105.9,-735.9 1065.8,-843.4 956.7,-1725.1 -60.9,-491.7 -654.2,-846.7 -881.8,-1264.2l1 -0.9zm-2845.2 3371.9c-108.4,-132.5 -232.5,-225 -365.8,-284.2l-308.4 295.9c320,66.6 578.3,321.7 528.4,744.2 -194.2,-320.1 -701.7,-530.1 -966.8,-176.7 -340,455 365.9,943.4 85.9,1305.1 -193.4,-278.4 -549.2,-189.2 -653.4,-617.6 -19.2,-77.5 -26.7,-169.1 -25.8,-263.3l-352.5 339.2c125,364.2 395,690.8 721.7,874.2 435.8,242.5 719.2,168.4 1100.8,-72.5 208.4,-131.7 165.1,-333.4 398.4,-121.7 54.2,49.2 75.8,123.4 90.8,200.8l566.7 -560.8c-629.2,-436.7 -385.8,-1132.6 -820,-1663.4l0 0.8zm11158.1 -11364l-428.3 411.7c90.8,-20.8 196.6,-14.1 318.3,30.9 480.8,172.5 185,1095 -82.5,1382.5 120.8,-235 162.5,-798.3 -215.8,-824.2 -131.7,-9.1 -679.3,378.4 -713.4,414.2l19.2 -43.3c74.2,-144.2 144.1,-355 241.7,-543.4l-1144.3 1100.1c141.7,-85.9 305.9,-130.9 475.1,-106.7 752.5,110 197.5,525 -43.4,806.7 -163.3,191.7 -263.3,470.1 -215.8,733.4 242.5,1333.4 1255.9,-335.9 1473.4,-712.6 360.8,-621.7 1288.4,-2430.9 315.8,-2648.5l0 -0.8zm-27635.7 20512c-3.3,-47.5 -10.8,-95 -21.6,-143.4l-1020.9 -1025c-820.9,-100 -1610.1,891.7 -2482.6,318.3 -468.4,-306.7 115,-1454.2 488.3,-1301.7 367.5,151.6 -286.7,782.5 426.7,734.2 177.6,-11.7 330.9,-175 499.2,-227.5 182.5,-56.7 345.1,-52.5 501.7,-93.3l-1322.5 -1330.1c-100.8,71.6 -198.4,170.8 -314.2,295 -292.5,310.8 -803.4,559.2 -1245.9,400.8 -123.4,-44.1 -535.9,-308.3 -367.5,-475 120,-120.8 647.5,333.3 930,240.8 385.1,-126.7 524.2,-543.3 546.8,-913.3l-528.4 -530.1c-333.4,68.4 -621.7,358.4 -939.3,418.4 96.7,-329.2 270.9,-685.9 324.2,-1037.6l-680.8 -684.2c146.6,137.5 248.3,325.8 271.6,520.8 49.2,415.1 -144.1,899.3 -320.8,1263.5 -104.2,215.8 -287.5,393.3 -389.2,601.7 -40,79.1 -52.5,190.8 -79.2,291.6l562.5 565.1c0,0 2.5,-1.7 4.2,-3.4 10,13.4 22.5,27.5 34.2,40.8l2170.1 2181.8c205.8,25.9 415,68.4 547.5,184.2 188.4,164.2 305.9,517.5 423.4,792.6l204.2 205c283.3,54.1 520,162.5 815.9,120.8 355.8,-49.2 723.3,-198.3 1032.5,63.3 -197.5,-166.6 -49.2,-1217.5 -68.3,-1474.2l-1.8 0.1zm-760.8 260c-158.4,-127.5 -365.9,-236.7 -556.7,-333.3 -435.9,-220.9 -778.4,-221.7 -1236.8,-337.6 239.2,-119.2 539.3,-236.7 805.9,-280 308.4,-50 586.7,-22.5 860.1,140 270.8,160.8 446.7,395 530.8,696.7 20.8,76.7 -9.1,627.5 15,650.1 -171.6,-147.5 -223.3,-378.4 -418.3,-537.6l0 1.7zm14532.4 -7442.9l-804.2 774.2c-80,198.4 -163.3,394.2 -310,531.7 -150.9,141.7 -343.4,211.7 -535.9,280.8l-795.9 766.8c-71.6,445 158.4,928.3 260,1360 -362.5,-87.5 -665.8,-478.3 -1068.4,-490.8 -38.3,-1.7 -64.1,0 -95.8,0l-325 311.6c9.1,57.5 16.6,120.9 16.6,197.6 0,375 115.9,807.5 498.4,956.7 278.3,107.5 829.2,-319.2 941.7,-191.7 159.2,175.9 -266.7,417.5 -392.5,455 -449.2,134.2 -946.7,-140 -1222.6,-466.7 -155,-183.3 -275.8,-322.5 -425,-391.7l-1355.1 1303.5c181.7,85 372.6,76.6 586.7,155.8 165.1,60.8 310.1,231.7 486.7,253.3 710.9,87.5 90.9,-578.3 465.1,-710 380.8,-133.3 901.7,1043.4 418.3,1325.9 -940.8,548.4 -1700.9,-596.7 -2571.8,-433.4l-952.5 915.1c-19.2,60.8 -34.2,120.8 -41.7,180 -32.5,254.2 60,1312.6 -145.8,1468.4 321.7,-244.1 680,-75.8 1033.3,-8.3 333.4,65 598.4,-72.5 940.9,-93.4 165,-265 315.9,-756.7 560.1,-946.7 156.6,-123.3 405.8,-147.5 638.3,-160.8l2806 -2776.8c-8.3,-53.4 -18.3,-104.2 -37.5,-145.9 -90.9,-213.3 -264.2,-400 -358.4,-621.7 -156.6,-371.6 -323.3,-866.7 -252.5,-1278.4 68.4,-397.5 464.2,-750 885.1,-689.2 750.8,109.2 196.6,525.1 -45,806.8 -164.2,191.6 -263.4,470 -215.9,733.3 241.7,1332.6 1255.9,-336.7 1474.3,-712.5 397.5,-686.7 1480.9,-2816.8 -60.9,-2656l0.9 -2.5zm-5903.6 7080.4c-195.9,86.7 -407.6,183.3 -572.6,303.3 -204.1,147.5 -267.5,375.9 -447.5,513.4 25.8,-20.8 25,-572.5 50.8,-648.4 100,-297.5 287.6,-520.8 566.7,-667.5 282.6,-147.5 562.6,-160.8 866.8,-94.2 263.3,56.7 556.7,190 790,321.7 -464.2,90.8 -805.8,73.3 -1253.4,271.7l-0.8 0zm6087.8 -5249.5c121.7,-234.2 162.5,-798.3 -215.9,-824.2 -131.6,-9.1 -678.3,378.4 -713.3,414.2l19.2 -43.3c186.6,-366.7 351.6,-1161.7 993.3,-929.2 480.1,172.5 184.2,1095 -83.3,1382.5zm-8280.5 5952l-595.8 573.4c-103.4,174.2 -198.4,352.5 -266.7,544.2 -49.2,140 -91.7,285.8 -106.7,433.3 -8.4,73.3 25.8,235 -20,295.9 -111.7,150.8 -305,17.5 -378.4,-111.7 -51.6,-93.3 -80,-206.7 -98.3,-325l-304.2 292.5c4.2,191.7 92.5,475 -34.2,585.9 -16.6,14.9 -34.9,25 -51.6,34.1 -135,60.9 -281.7,-55 -264.2,-205.8 5.8,-47.5 25,-87.5 52.5,-126.7l-465 446.7 -896.7 -900.9c-22.5,152.6 -64.2,300.9 -136.7,415.1 -79.2,125 -280,248.3 -384.2,92.5 -41.6,-63.4 0,-223.4 -3.3,-296.7 -7.5,-148.4 -41.7,-296.7 -83.3,-439.2 -72.6,-245 -184.2,-472.5 -310.1,-693.4l-488.4 -490.8c-81.6,400 -565.8,702.5 -804.2,994.2 -163.3,199.2 -327.5,490 -177.5,745.9 143.4,245.8 530.9,295.8 785.9,324.1 353.3,40.9 705.9,100 1044.2,210.1 588.4,193.3 1141.7,820.8 1753.4,582.5 73.4,-29.2 149.2,-70 224.2,-126.7 0,-54.2 -17.5,-110.8 -40.8,-167.5 359.2,-127.5 718.3,-385 1080.9,-483.4 343.3,-92.5 699.2,-131.6 1055,-153.3 255.9,-15.9 645.9,-45 801.7,-283.4 162.5,-246.7 14.2,-545.8 -139.2,-753.3 -217.5,-299.2 -670.8,-620.1 -746.7,-1013.4l-1.6 0.8zm-4479.4 1642.6c-51.6,20.8 -114.1,34.2 -176.6,35.9 -115.9,2.5 -235,-32.5 -305.1,-124.2 -145.8,-193.3 90.1,-402.5 150.1,-608.4 59.2,-205.8 34.1,-419.2 60.8,-625 128.3,306.7 841.7,1096.7 271.7,1321.7l-0.9 0zm1522.6 920.9c-47.5,20 -100.8,26.7 -152.5,0 -17.5,-9.2 -33.3,-20.8 -50,-35.9 -141.7,-136.6 20.8,-489.1 -4.2,-672.5 50.9,170 238.4,281.7 303.4,428.4 -61.7,90 -105,181.7 -110,270.8 4.1,3.4 9.1,5.9 13.3,9.2l0 0zm3002.7 -1150.1c-75,87.5 -195,115.9 -310.9,107.5 -63.3,-5.8 -125,-20.8 -175.8,-45 -555.9,-255.8 197.5,-1006.7 342.5,-1305.9 15,207.5 -20.8,419.2 27.5,627.6 48.3,208.3 273.3,430 116.7,615.8l0 0z"/>
   <polygon class="fil6" points="110851.6,147919.1 80305.7,117653.3 80674.1,117474.1 110849.9,147364.1 141449.1,116769 141816.6,116946.6 110851.6,147919.1 "/>
   <path class="fil0" d="M107590.6 82492.2l10409.7 27314c0,0 6680.4,1703.4 10408.9,9263.8l14665 30012.5 -26793.2 -68403.8c0,0 -1241.7,5539.5 -8690.5,1814.3l0.1 -0.8z"/>
   <path class="fil7" d="M107843.1 82240.5l10409.7 27313.1c0,0 6680.4,1703.5 10409.7,9263.9l14420 30273.3 -26549 -68664.6c0,0 -1240.9,5538.7 -8690.5,1814.3l0.1 0z"/>
   <path class="fil4" d="M109849 83291.4l9931.4 25116.3c0,0 6016.2,2291.8 7831.3,5443.7l-12224.9 -31419.3c0,0 -1240.9,2291.8 -5537.8,859.3z"/>
   <g>
    <path class="fil5" d="M113903.4 92522.7c0,0 -0.8,-4.1 -0.8,-6.7 0,1.7 -0.8,2.5 -1.7,4.2 0,31.6 1.7,32.5 2.5,2.5l0 0zm-1459.3 -3511c120.9,650 750.9,1254.2 1417.6,927.5 540.1,-265 590.9,-918.4 1274.3,-1017.5 111.6,389.1 425.8,899.2 101.6,1279.2 -373.3,438.4 -812.5,-50.8 -1293.3,81.7 -1334.3,367.5 -16.7,1462.6 -42.5,2233.4 312.5,-880.8 1106.7,-991.7 1604.2,-1621.7 -145.8,540 -762.5,693.3 -950.9,1249.2 -204.1,599.2 -27.5,1283.4 92.5,1850.1 55.9,-622.5 1066.8,-553.3 1376.8,-1054.2 403.3,-651.7 -476.7,-1160.1 -126.7,-1699.3 206.7,127.5 568.4,260 686.7,489.2 123.3,236.7 64.2,677.6 98.3,945.1 261.7,140 420.1,342.5 705.1,411.6 301.7,73.4 644.2,70.1 808.4,377.6 -105.9,-196.7 347.5,-993.4 413.3,-1205.1 104.2,-332.5 4.2,-800 -227.5,-1075 -598.4,-711.7 -1745.9,111.6 -2336,-727.6 -278.3,-395 555.1,-1131.7 805.9,-890 246.7,237.5 -480,537.5 110,725 145.9,47.5 321.7,-35 473.4,-23.3 268.3,20.8 443.3,155 721.7,49.1 27.5,-414.2 -9.2,-920.8 -325,-1226.7 -367.6,-355 -570.1,-270 -951.7,-90.9 -333.4,157.6 -822.6,194.2 -1128.4,-72.5 -85.1,-74.1 -332.6,-418.3 -145.1,-500 135.9,-58.3 414.2,474.2 671.7,490.1 354.2,20.8 600.1,-277.6 735.9,-572.6 149.2,-327.5 371.7,-332.5 -134.2,-545 -320.8,-135 -700,61.7 -1015.9,0 281.7,-360.9 736.7,-711.7 726.7,-1200.1 -9.1,-506.7 -534.2,-664.2 -703.3,-1075.9 -176.7,-434.2 157.5,-1043.4 -291.7,-1358.4 -1277.6,-895 -1185.1,1291.7 -1116.7,1996 36.6,375 231.6,2050.1 901.7,1090 131.7,-189.1 153.3,-444.1 93.3,-653.3 -88.3,-308.4 -374.2,-835.1 255.9,-650.1 351.7,104.2 535,523.4 446.7,860.1 -92.5,348.3 -401.7,676.7 -658.4,913.3 -153.3,140.9 -356.7,225.1 -505,360.1 -98.4,89.1 -159.2,285 -295.9,328.3 -259.2,80.9 -153.3,-60.8 -268.3,-239.2 -212.6,-327.5 -408.4,-488.3 -837.6,-455 -631.7,50.9 -1295.9,606.7 -1169.2,1295.9l1.6 0.9zm3113.6 -3571.9l0 41.7c-13.4,-40 -305.1,-541.7 -410.9,-581.7 -306.7,-115.8 -477.5,342.5 -466.7,570 -107.5,-321.6 -7.5,-1152.5 432.5,-1115.9 586.7,48.4 430.9,731.7 445.1,1086.8l0 -0.9zm1130.9 5677c230.8,-19.2 508.3,-18.3 735,30.8 263.4,58.4 479.2,168.4 647.5,386.7 166.7,215.9 234.2,458.4 205,728.4 -6.6,68.4 -206.6,501.7 -193.3,526.7 -91.6,-172.5 -60,-375 -166.7,-563.3 -86.7,-153.4 -218.3,-306.7 -340.8,-445.1 -280.8,-315.8 -556.7,-425.8 -886.7,-664.2l0 0zm-1255.1 447.5c-42.5,163.4 -199.2,380.9 -209.2,535.9 -11.7,187.5 168.4,336.7 128.3,540.8 -44.1,225.9 -247.5,287.6 -376.6,454.2 -114.2,146.7 -162.5,325.1 -248.4,482.6 -7.5,-361.7 -177.5,-701.7 -82.5,-1060.1 86.7,-320 422.5,-827.5 746.7,-910.9l40.9 -41.7 0.8 -0.8zm-710.1 -823.4c-37.5,110.1 -249.1,118.4 -335,155 -191.6,83.4 -194.1,199.2 -200.8,367.6 -10,215.8 -194.2,373.3 -245.8,575.8 39.2,-446.7 -430.1,-650.8 -111.7,-1092.5 111.7,-154.2 284.2,-262.5 477.5,-262.5 112.6,-0.9 378.4,50 414.2,178.3 8.4,31.7 8.4,57.5 0.9,79.2l0.7 -0.9zm-1722.6 -2403.4c236.7,-298.3 483.4,-100 735.9,-248.4 89.2,385.1 -641.7,513.4 -539.2,993.4 80,372.5 553.4,391.7 822.5,210.9 -220,676.7 -1117.5,446.7 -1235.9,-169.2 -47.5,-247.5 66.7,-598.4 216.7,-786.7l0 0z"/>
    <path class="fil5" d="M119703.7 107847.7l0 -7.5c0,0 -2.5,3.4 -2.5,5.1 0,31.6 1.7,32.5 2.5,2.4zm-1458.4 -3510.2c120,650.1 750.9,1254.3 1416.8,926.8 540.8,-265.1 590.8,-919.3 1274.2,-1016.8 111.7,389.2 426.7,899.3 102.5,1278.4 -374.2,437.6 -812.6,-51.6 -1294.3,81.7 -1333.4,366.7 -15.8,1462.6 -41.6,2232.6 312.5,-880.8 1106.7,-990.8 1603.4,-1621.7 -145,541.7 -761.7,693.3 -950.9,1250.1 -119.2,350 -144.2,683.3 213.3,889.2 40,24.1 168.4,112.5 211.7,123.3 106.7,25 51.7,4.2 144.2,-22.5 473.3,-140 1151.7,-70.8 980,-766.7 -50.8,-205.8 -170,-385.8 -237.5,-585 -13.3,-39.2 -55.8,-593.4 30.8,-540 206.7,126.6 568.4,260 685.9,488.3 123.4,237.5 65.8,678.4 100,945.9 261.7,140 419.2,342.5 704.2,410.9 302.5,74.1 644.2,70.8 809.2,378.3 -105.8,-196.7 347.5,-994.2 413.4,-1205.9 104.1,-332.5 4.1,-800 -227.5,-1074.2 -598.4,-711.7 -1746,110.8 -2335.2,-727.5 -278.3,-395.9 554.2,-1132.6 805.1,-890.1 246.7,236.7 -480,537.5 110,724.2 146.7,47.5 321.7,-35 473.4,-24.2 268.3,20.8 444.1,155.9 721.7,49.2 27.5,-414.2 -9.2,-920.1 -325.1,-1225.9 -367.5,-355 -570,-270 -950.8,-90.8 -333.4,157.5 -822.6,194.1 -1127.6,-72.5 -85,-74.2 -333.3,-417.6 -145,-499.3 135,-58.3 414.2,474.2 671.7,489.2 354.2,20.9 600.8,-277.5 735,-571.7 149.2,-327.5 371.7,-333.3 -133.3,-545.8 -320.9,-135 -700.1,62.5 -1015.9,1.7 281.7,-360.9 735,-712.6 725.8,-1200.9 -9.1,-506.7 -534.2,-663.4 -702.5,-1075.1 -177.5,-434.2 157.5,-1043.4 -292.5,-1359.2 -1276.7,-895.1 -1184.2,1291.7 -1116.7,1996.7 35.8,374.2 231.6,2050.2 902.5,1090.1 131.7,-190 153.3,-444.2 93.3,-653.3 -88.3,-308.4 -375,-834.3 255,-649.2 351.7,103.3 535.9,523.3 446.7,860 -92.5,349.2 -401.6,676.7 -658.3,913.4 -153.4,140 -356.7,225 -505.1,360 -99.1,89.2 -158.3,285 -295,328.4 -260,81.6 -153.3,-60.9 -269.1,-239.2 -212.6,-326.7 -407.6,-488.4 -837.6,-454.2 -632.5,50.8 -1296.7,606.7 -1169.2,1295.9l0.9 -2.6zm3113.5 -3571.8l0 41.7c-14.2,-40 -305,-541.7 -411.7,-581.7 -306.7,-115.9 -477.5,342.5 -466.7,569.1 -106.7,-321.6 -6.7,-1152.5 432.6,-1115 587.5,48.3 430.8,731.7 445.8,1086.7l0 -0.8zm1129.2 5677c230.9,-19.2 508.4,-18.4 736.7,30.8 263.4,57.5 479.2,168.3 647.6,385.8 166.7,215.9 234.2,458.4 205.8,728.4 -7.5,68.4 -206.7,501.7 -193.3,526.7 -92.5,-172.5 -60.9,-375 -167.5,-564.2 -85.9,-153.3 -218.4,-306.7 -340.9,-445 -280.8,-316.7 -555.8,-425.8 -888.4,-664.2l0 1.7zm-1253.4 447.5c-42.4,164.1 -199.2,380.8 -209.1,535.8 -10.9,173.4 181.6,343.4 132.5,512.6 -42.5,148.3 -238.4,218.3 -371.7,201.7 -753.4,-95 -4.2,-1102.6 407.5,-1208.5l40.8 -41.6zm-710 -824.2c-37.5,110 -249.2,117.5 -335.9,155 -191.6,83.3 -193.3,198.3 -200,368.3 -10,215.9 -193.3,372.6 -245.8,575.1 40,-446.7 -428.4,-650.9 -111.7,-1092.6 111.7,-154.2 284.2,-263.4 478.4,-263.4 111.6,0 377.5,50.9 414.2,180.1 8.3,30.8 8.3,56.6 0.8,78.3l0 -0.8zm-1723.4 -2402.7c236.6,-299.2 484.1,-100 736.7,-249.2 89.1,385.1 -641.7,514.2 -538.4,994.3 79.2,372.5 553.3,391.6 822.5,210 -220,677.5 -1117.5,446.7 -1235.9,-168.4 -48.3,-247.5 65.8,-598.3 215.9,-786.7l-0.8 0z"/>
    <path class="fil5" d="M119817.1 94322.8c0,0 0,3.3 0,3.3 0,0 1.6,0 1.6,-1.6 0,-30.9 -1.6,-32.5 -2.5,-2.5l0.9 0.8zm1467.5 3506.1c-121.6,-649.2 -754.2,-1252.6 -1420,-923.4 -540.1,265.8 -589.2,919.2 -1271.8,1020 -113.3,-389.2 -428.3,-899.2 -105.8,-1278.4 373.3,-439.2 812.5,49.2 1293.4,-85 1332.6,-370 13.3,-1462.6 37.5,-2234.3 -310.8,882.6 -1105.1,994.2 -1600.1,1626.8 145,-541.7 760.1,-695 949.2,-1251.7 202.5,-600.9 24.2,-1284.3 -97.5,-1850.2 -55,622.6 -1065.1,555.1 -1374.2,1057.6 -402.5,652.6 479.2,1158.4 130.8,1698.4 -206.7,-126.6 -569.2,-259.2 -687.5,-488.3 -123.4,-236.7 -65.9,-677.6 -100.9,-945.1 -262.5,-139.2 -420,-341.7 -705.8,-410 -301.7,-72.5 -644.2,-69.2 -810.1,-375.9 105.9,195 -345,995 -410,1206.7 -104.2,331.7 -1.7,800.1 229.2,1074.3 600,710 1745.9,-115 2337.6,722.5 279.2,394.2 -551.7,1133.4 -803.4,892.6 -246.7,-237.6 479.2,-539.3 -111.6,-724.2 -146.7,-47.5 -321.7,35.8 -474.2,24.1 -268.4,-19.2 -444.2,-152.5 -721.7,-45.8 -26.7,414.2 10.8,920.9 329.1,1225.9 368.4,354.2 570.1,268.3 950.9,88.3 333.4,-159.2 822.6,-196.6 1128.4,69.2 85,74.2 334.2,417.5 146.7,500 -135,58.4 -415,-473.3 -673.3,-488.3 -354.2,-20 -600.1,279.2 -734.3,573.3 -148.3,328.4 -370.8,334.2 135.9,545.1 321.7,134.1 699.2,-64.2 1016.7,-4.2 -281.7,361.7 -734.2,715 -724.2,1202.5 10,506.8 535.9,662.6 705.1,1074.3 178.3,433.3 -155.9,1044.2 295,1358.4 1280,891.7 1182.5,-1295.1 1111.7,-1998.5 -36.7,-375 -236.7,-2050.1 -904.2,-1088.4 -131.7,190.1 -152.5,445.1 -91.7,653.4 87.5,308.4 375.9,833.4 -254.2,650 -352.5,-102.4 -536.7,-521.6 -448.3,-858.3 90.8,-350.1 399.2,-679.2 655.8,-915.1 153.4,-141.6 355.9,-226.7 504.2,-361.7 99.2,-89.1 158.4,-285.8 295,-329.1 259.2,-82.5 153.4,60 269.2,238.3 212.5,326.7 408.4,486.7 838.4,452.5 630.9,-52.5 1295.1,-610 1165.9,-1299.2l-0.9 0.9zm-3106 3579.3l0 -41.7c14.2,40 306.7,541.7 412.6,580.9 306.7,115.8 476.6,-342.5 465,-570.9 108.3,322.5 10,1153.4 -428.4,1116.7 -587.5,-46.6 -432.5,-730 -449.2,-1085l0 0zm-1143.4 -5674.5c-230,20 -508.3,20 -735.9,-30 -263.3,-56.7 -478.3,-166.7 -647.5,-384.2 -167.5,-215 -235,-458.3 -206.7,-728.4 7.5,-68.3 205,-500.8 191.7,-527.5 92.5,172.5 60.8,375 168.3,564.2 86.7,153.3 218.4,305.8 341.7,444.2 280.9,315.8 556.7,424.2 888.4,661.7l0 0zm1253.5 -450c41.6,-163.3 197.5,-380.8 207.5,-535.9 10.8,-187.5 -169.2,-335.8 -130.1,-540 44.2,-225.8 246.7,-288.4 375.9,-455 113.3,-146.7 160.8,-325.9 247.5,-483.4 7.5,361.7 178.4,701.7 84.2,1060.1 -85,320.8 -420.1,828.4 -745.1,912.5l-40 41.7 0.1 0zm712.5 821.7c36.6,-110 248.3,-117.5 335,-155.8 191.6,-82.5 193.3,-198.4 200,-368.4 7.5,-215.8 192.5,-375 243.3,-575.9 -37.5,446.7 430.1,650.9 114.2,1092.6 -110,154.2 -283.3,264.2 -477.5,265 -111.7,0 -377.6,-50 -415,-179.2 -8.4,-30 -8.4,-56.6 0,-78.3l0 0zm1727.6 2400.2c-235,299.2 -483.4,100.8 -735,250 -90.1,-385 640,-515.9 536.6,-994.2 -80,-373.4 -555,-390.9 -822.5,-209.2 218.4,-677.6 1116.7,-449.2 1235.9,165.8 49.2,247.5 -65,599.2 -214.2,787.6l-0.8 0z"/>
    <path class="fil5" d="M125688.2 109670.3c0,0 0,3.4 1.7,5.9 0,-1.7 1.6,-2.5 1.6,-3.4 -0.8,-31.6 -2.4,-32.5 -3.3,-2.5zm571.7 1851.8c97.5,-249.2 -139.2,-686.7 -243.3,-903.4 -139.2,-289.2 -337.6,-608.4 -326.7,-942.5 -74.2,209.1 -206.7,490 -393.4,625.8 -104.1,75.9 -304.1,110.9 -337.5,-48.3 -13.3,-64.2 71.7,-178.4 91.7,-239.2 40.8,-120.9 60.8,-251.7 71.6,-378.4 42.5,-485 -80,-965 -180.8,-1435.9 -43.4,495 -698.4,580 -1045.9,774.2 -195,108.4 -418.3,290 -380,542.5 37.5,244.2 332.5,406.7 528.4,510.9 270.8,144.2 536.7,303.4 772.5,500 411.7,342.5 656.7,1021.8 1224.2,1024.2 68.4,0 141.7,-9.1 220,-30l-0.8 0.1zm-1959.3 -1980.1c-55,-201.7 200.9,-295 313.4,-440.9 113.3,-147.5 161.7,-325.8 247.5,-483.3 5.8,287.5 327.5,1148.4 -201.7,1149.2 -47.5,0 -102.5,-9.2 -153.3,-28.4 -93.4,-34.1 -178.4,-100 -205.9,-195.8l0 -0.8zm1140.1 1353.4c-70,-154.2 170.8,-386.7 210,-541.7 -15.8,181.7 151.7,357.5 100,519.2 -40.8,125.8 -197.5,163.4 -280.8,67.5 -10.8,-13.3 -20.8,-27.5 -28.4,-45l-0.8 0z"/>
    <path class="fil5" d="M112189.1 86034.9c178.4,434.2 -155,1044.2 295,1358.4 1257.6,876.7 1496.8,-1808.5 832.6,-2523.5 -40,-43.4 -85,-80.8 -133.3,-108.4 -142.5,-83.3 -388.4,-164.1 -525.9,-21.6 -137.5,142.5 -34.2,268.3 15,434.2 69.2,237.5 66.7,596.7 -297.5,443.3 -370.9,-155 -15.9,-502.5 -217.6,-708.4 -187.5,-190.8 -450,-40 -667.5,0 -87.5,485.1 537.6,731.7 699.2,1125.1l0 0.9zm332.6 83.3l0 -41.7c15,40 306.7,541.7 413.3,580.9 306.7,115.8 475.9,-342.5 465,-570.9 108.4,322.5 10.1,1153.4 -430,1117.6 -587.5,-46.7 -432.5,-730.1 -448.4,-1085.9l0.1 0z"/>
   </g>
   <path class="fil8" d="M112236.6 86034.9c177.6,434.2 -155.8,1044.2 295,1358.4 1256.8,876.7 1496.8,-1808.5 831.7,-2523.5 -40.8,-43.4 -85,-80.8 -132.5,-108.4 -143.3,-83.3 -388.3,-164.1 -526.7,-21.6 -137.5,142.5 -34.2,268.3 14.2,434.2 69.2,237.5 66.7,596.7 -297.5,443.3 -371.7,-155 -15,-502.5 -217.6,-708.4 -187.5,-190.8 -450,-40 -666.7,0 -87.5,485.1 537.6,731.7 699.3,1125.1l0.8 0.9zm330.9 83.3l0 -41.7c13.3,40 305.8,541.7 412.5,580.9 307.5,115.8 475.9,-342.5 465,-570.9 108.4,322.5 10.1,1153.4 -429.1,1117.6 -587.6,-46.7 -432.6,-730.1 -448.4,-1085.9z"/>
   <path class="fil0" d="M116896.1 82492.2l-10409.8 27314c0,0 -6680.3,1703.4 -10409.7,9263.8l-14664.1 30012.5 26793.1 -68403.8c0,0 1240.9,5539.5 8690.5,1814.3l0 -0.8z"/>
   <path class="fil9" d="M116643.6 82240.5l-10409.8 27313.1c0,0 -6680.4,1703.5 -10409.7,9263.9l-14420.8 30273.3 26548.9 -68664.6c0,0 1241.8,5538.7 8691.4,1814.3l0 0z"/>
   <path class="fil4" d="M114637.6 83291.4l-9932.2 25116.3c0,0 -6016.2,2291.8 -7830.4,5443.7l12224 -31419.2c0,0 1241.7,2291.7 5538.6,859.2l0 0z"/>
   <g>
    <path class="fil5" d="M110585.7 92520.2c0,0 -1.7,-2.5 -1.7,-4.1l0 6.6c0,30.1 1.7,29.2 1.7,-2.4l0 -0.1zm286.7 -4804.4c-430,-33.3 -625,127.5 -837.6,455 -115.8,178.4 -9.1,320 -269.1,239.2 -136.7,-43.3 -196.7,-239.2 -295,-328.4 -148.4,-135 -351.7,-219.1 -505.9,-360 -256.7,-236.6 -565.9,-565 -657.5,-913.3 -88.4,-336.7 95,-755.9 446.7,-860.1 630,-184.2 343.3,341.7 255,650.1 -59.2,209.1 -37.6,464.1 93.3,653.3 670.9,960.1 866.7,-715 902.5,-1090.1 68.4,-704.2 160,-2891 -1117.5,-1995.9 -449.2,315 -114.2,925 -291.7,1358.4 -168.4,411.7 -693.4,569.2 -702.5,1075.9 -10.1,488.4 445,839.2 725.8,1200.1 -315.8,60.8 -695,-135.9 -1015.9,0 -505.8,211.6 -282.5,217.5 -134.2,545 135,295 380.9,593.4 735.9,572.5 257.6,-15.8 535.9,-547.5 671.7,-490 187.5,81.7 -60.8,425 -145.8,500 -305,266.7 -794.2,230 -1127.6,72.5 -381.7,-179.2 -583.3,-264.1 -950.9,90.9 -316.6,305.8 -352.5,812.5 -325,1226.7 277.5,105.8 453.4,-28.3 721.7,-49.2 151.7,-11.6 327.5,70.9 473.4,23.4 590,-186.7 -136.7,-486.7 110,-725.1 250.8,-240.8 1084.2,495.9 805.9,890.1 -590.9,839.2 -1737.6,16.7 -2336,727.5 -230.9,275 -331.7,742.6 -227.5,1075.1 65.8,211.7 518.3,1009.2 413.3,1205.1 164.2,-307.6 507.6,-304.2 809.2,-377.6 285.9,-69.1 443.4,-271.6 705.1,-411.6 34.2,-267.6 -24.2,-708.4 100,-945.1 117.5,-229.2 479.2,-361.7 685.9,-489.2 349.1,539.2 -530.9,1047.6 -127.5,1699.3 310.8,501.7 1321.7,431.7 1377.5,1054.2 120,-565.9 295.9,-1250.1 92.5,-1850.1 -189.1,-556.7 -805.8,-709.2 -950.8,-1249.2 496.7,630 1290.9,740.8 1603.4,1621.7 -25.8,-770.9 1291.7,-1865.9 -41.7,-2233.4 -481.7,-132.5 -920.9,356.6 -1294.2,-81.7 -324.2,-379.2 -10,-890.1 102.5,-1279.3 683.3,98.4 733.3,752.6 1274.2,1017.6 666.7,326.7 1297.6,-277.5 1416.7,-927.5 127.6,-689.2 -537.5,-1245.1 -1169.2,-1296l0.9 -0.8zm-1498.4 -3362.7c439.2,-36.7 539.2,794.2 432.5,1115.9 10.9,-227.5 -160,-685.9 -466.7,-570 -106.7,40 -397.5,541.6 -411.7,581.7l0 -41.7c15,-355 -140.8,-1038.4 445.9,-1086.8l0 0.9zm-2463.5 7428.7c-121.7,138.4 -254.2,290.9 -341.7,445.1 -106.7,189.2 -74.2,390.8 -165.8,563.4 13.3,-25.1 -185.8,-458.4 -194.2,-526.8 -28.3,-269.1 39.2,-512.5 205.8,-728.3 168.4,-218.4 384.2,-328.4 647.6,-386.7 227.5,-49.2 505,-50.1 735.9,-30.9 -331.7,238.4 -606.8,348.4 -886.8,664.2l-0.8 0zm2182.6 -176.6c325,83.3 660.9,590.8 746.7,910.9 95.9,358.3 -74.1,699.2 -81.6,1060 -86.7,-157.5 -135,-335 -248.4,-482.5 -129.2,-166.7 -332.5,-228.4 -376.7,-454.2 -40,-205 140,-353.3 127.5,-540.8 -10,-155 -166.7,-371.7 -208.3,-535.9l40.8 41.7 0 0.8zm670.9 -943.4c36.7,-128.4 301.7,-179.2 414.2,-178.4 194.2,0 367.5,108.4 478.3,262.5 316.7,440.9 -150.8,645.9 -111.6,1092.6 -51.7,-201.7 -235.9,-359.2 -245.9,-575.9 -6.6,-169.1 -8.3,-285 -200,-367.5 -85.8,-36.6 -298.3,-45 -335.8,-155 -7.5,-21.6 -7.5,-47.5 0.8,-79.2l0 0.9zm1937.6 -1538.4c-118.3,615.8 -1015.9,846.7 -1235.9,169.1 269.2,180.9 742.5,162.5 822.5,-210.8 103.4,-480 -627.5,-608.4 -538.3,-993.4 252.5,148.4 500,-50 736.7,248.4 150,188.3 265,539.2 215.8,786.7l-0.8 0z"/>
    <path class="fil5" d="M104785.4 107846.1c0,0 -1.7,-3.4 -1.7,-5l0 7.5c0,30 1.7,29.1 1.7,-2.5zm287.5 -4804.5c-430.9,-34.2 -625.9,127.5 -837.6,454.2 -115,178.4 -9.1,320 -269.1,239.2 -136.7,-43.3 -196.7,-239.2 -295.9,-328.4 -148.3,-135 -351.7,-220 -504.2,-360 -257.5,-236.6 -566.7,-564.2 -658.3,-913.3 -89.2,-336.7 95,-756.8 446.7,-860.1 629.2,-185 343.3,340.8 255.8,649.2 -60,209.2 -38.3,464.2 94.2,653.4 670,960 865.9,-715.9 901.7,-1090.1 68.4,-705.1 160.8,-2891.8 -1115.9,-1996.8 -450,315.9 -115,925.1 -292.5,1359.3 -168.4,411.7 -693.4,568.4 -702.5,1075 -10.1,488.4 445,840.1 725.8,1200.9 -315.8,60.8 -695.9,-136.7 -1015.9,-1.7 -505.8,212.6 -283.3,218.4 -134.2,545.9 135,294.2 381.7,592.5 735.1,571.7 257.5,-15 536.7,-547.5 671.7,-489.2 187.5,81.7 -60,425 -144.2,499.2 -305.8,267.5 -795,230 -1128.4,72.5 -382.5,-179.2 -584.2,-264.2 -950.9,90.8 -316.7,306.7 -353.3,812.6 -325,1225.9 276.7,105.9 453.3,-28.3 721.7,-49.1 151.7,-10.9 327.5,70.8 474.2,24.1 589.2,-186.7 -136.7,-486.7 110,-724.2 250.9,-242.5 1084.2,495.1 805.1,890.1 -590.9,838.4 -1736.8,15.8 -2335.2,727.5 -231.6,275 -331.6,742.6 -227.5,1074.3 65.9,211.6 519.2,1009.2 413.4,1205.9 164.1,-307.6 506.7,-304.2 809.2,-378.4 285,-68.3 443.4,-271.7 705,-410.8 34.2,-267.6 -25,-708.4 99.2,-945.9 118.4,-228.4 480.1,-361.7 686.7,-488.4 86.7,-53.3 43.4,501.7 30.1,540 -66.7,199.2 -185.9,379.2 -236.7,585.1 -171.7,696.7 506.7,627.5 980,766.7 93.4,27.5 38.4,47.5 144.2,22.5 43.3,-10.9 170.8,-98.4 211.7,-123.4 358.3,-205.8 331.6,-539.2 212.5,-889.2 -189.2,-556.7 -805.1,-708.4 -950.9,-1250.1 496.7,630.9 1291.7,741.7 1603.4,1621.8 -25.8,-770.1 1291.7,-1865.9 -41.6,-2232.6 -482.6,-132.5 -920.1,355.8 -1294.3,-81.7 -324.2,-379.2 -10,-890.1 101.7,-1278.4 684.2,98.3 733.3,751.7 1275,1016.7 666.8,327.5 1297.6,-277.5 1417.6,-926.7 126.7,-689.2 -537.5,-1245.1 -1168.4,-1295.9l-2.5 2.5zm-1499.2 -3362.7c440,-37.5 539.2,793.4 431.6,1115.1 10.9,-227.5 -159.1,-685 -466.7,-569.2 -105.8,40 -396.6,541.7 -411.6,581.7l0 -41.7c15.8,-355 -140,-1038.4 446.7,-1086.7l0 0.8zm-2463.5 7428.8c-122.5,137.5 -254.2,290.9 -340.8,445 -106.7,189.2 -75,391.7 -167.5,564.2 13.3,-25 -185.9,-458.3 -193.4,-526.7 -28.3,-270 38.4,-513.3 205,-728.4 168.4,-217.5 384.2,-328.3 646.8,-385.8 227.5,-50 505.8,-50.9 736.7,-30.9 -331.7,238.4 -606.8,348.4 -887.6,664.2l0.8 -1.6zm2182.6 -176.7c412.5,105.8 1160.1,1114.2 406.7,1208.4 -133.3,17.5 -329.2,-53.3 -371.7,-201.7 -49.1,-170 143.4,-339.2 132.5,-512.5 -10,-155 -167.5,-371.7 -209.1,-535.9l41.6 41.7 0 0zm670.1 -942.5c36.6,-129.2 302.5,-180.1 414.2,-180.1 195,0 367.5,109.2 478.3,263.4 317.5,441.7 -150.8,645.9 -111.6,1092.6 -51.7,-202.5 -236.7,-360.1 -245.9,-575.1 -6.7,-170 -9.2,-285.8 -200.8,-368.3 -86.7,-37.5 -298.4,-45 -335.9,-155 -7.5,-21.7 -7.5,-47.5 0,-78.4l1.7 0.9zm1938.4 -1538.5c-118.3,615.1 -1016.7,845.9 -1236.7,168.4 269.1,181.7 742.5,162.5 822.5,-210 103.3,-480.1 -627.5,-608.4 -539.2,-994.3 252.5,149.2 500,-50 736.7,249.2 150,188.4 264.2,539.2 216.7,786.7l0 0z"/>
    <path class="fil5" d="M104666.2 94324.5c0,0 1.7,2.5 1.7,2.5 0,-0.9 0,-3.4 0,-3.4 0,-31.6 -1.7,-30.8 -2.5,0l0.8 0.9zm-298.3 4803.6c430,34.2 625.8,-126.7 838.4,-452.5 116.6,-177.6 10,-320.9 269.1,-238.4 136.7,42.5 195.9,240 294.2,329.2 148.4,135 352.6,220 504.2,361.7 257.5,235.8 565.1,565 655.9,915 87.5,336.7 -96.7,755.1 -448.4,858.4 -630,183.3 -343.3,-341.7 -254.2,-650.1 60,-208.3 38.4,-463.3 -93.3,-653.3 -667.5,-961.7 -867.5,713.4 -904.2,1088.4 -70,704.2 -166.7,2890.2 1112.6,1998.4 450,-314.2 116.6,-925.8 295,-1358.4 169.2,-412.5 695,-567.5 705,-1074.2 10,-487.5 -442.5,-840.9 -723.4,-1202.6 316.7,-59.1 694.3,138.4 1015.9,4.2 505.9,-210.8 283.4,-216.7 135,-545 -134.1,-294.2 -380,-593.4 -734.2,-573.4 -257.5,15 -537.5,545.9 -672.5,488.4 -187.5,-81.7 60.8,-425 145.8,-500 305.9,-265.9 795.9,-228.4 1129.3,-69.2 380.8,180 582.5,265.8 950.8,-88.4 316.7,-305 355,-811.7 328.4,-1225.9 -278.3,-106.6 -453.3,26.7 -721.7,45.9 -151.7,11.6 -326.7,-70.9 -473.4,-24.2 -590,185 135.9,486.7 -111.6,724.2 -251.7,240.8 -1082.6,-498.3 -802.5,-892.5 591.6,-837.6 1736.7,-12.5 2336.7,-722.6 231.7,-274.2 334.2,-741.7 230.9,-1074.2 -65.8,-211.7 -516.7,-1010.9 -410.9,-1206.7 -165,306.6 -508.3,302.5 -810,375.8 -285.9,68.4 -443.4,270.9 -705.9,410.1 -35,267.5 21.7,708.3 -100.8,945 -119.2,229.2 -480.9,360.9 -688.4,488.4 -347.5,-540 533.4,-1045.9 131.7,-1698.4 -309.2,-502.6 -1320.9,-435.1 -1375.1,-1057.6 -120.8,565.9 -299.2,1249.2 -97.5,1850.1 188.3,556.7 804.2,710.1 948.4,1251.7 -495.9,-632.5 -1289.3,-744.2 -1600.1,-1626.7 24.1,771.7 -1295.9,1864.2 36.6,2234.3 481.7,134.1 920.9,-354.2 1294.3,85 323.3,379.2 7.5,889.2 -105.8,1278.4 -682.6,-100.8 -731.7,-754.2 -1272.6,-1020.1 -665.1,-329.2 -1297.6,274.2 -1419.3,923.4 -129.1,689.2 534.2,1246.8 1165.9,1299.3l1.7 -0.9zm1490.9 3366c-439.2,35.8 -537.5,-794.2 -429.2,-1116.7 -11.6,228.3 158.4,686.7 465,570.8 105.9,-39.1 398.4,-540.8 412.6,-580.8l0 41.7c-16.7,355 138.3,1038.3 -448.4,1085l0 0zm2481 -7422.1c122.5,-138.3 255,-290.8 341.6,-444.2 107.5,-188.3 75.9,-391.6 168.4,-564.2 -13.3,26.7 184.2,460.1 191.7,527.6 28.3,270 -39.2,513.3 -206.7,728.4 -169.2,217.5 -384.2,327.5 -647.6,384.1 -228.3,50.1 -505.8,50.1 -735.8,30.1 331.6,-237.6 607.5,-346.7 888.4,-661.8l0 0zm-2183.5 170c-325,-84.1 -659.2,-592.5 -744.2,-912.5 -95,-358.4 75.8,-698.4 84.2,-1060.1 85.8,157.5 133.3,336.7 247.5,483.4 129.1,166.7 331.6,229.2 375.8,455 40,205 -141.6,353.4 -130,540 10,155 166.7,372.6 207.5,535.9l-40 -41.7 -0.8 0zm-671.7 941.8c-37.5,129.1 -303.3,179.2 -415,179.2 -195,0 -367.5,-110.9 -477.5,-265.1 -315.9,-441.7 152.5,-645.8 114.1,-1092.5 50.9,201.6 235,360 243.4,575.8 7.5,170.1 8.3,285.9 200,368.4 86.7,37.5 298.3,45 335,155.9 7.5,21.6 7.5,47.5 0,78.3l0 0zm-1941.8 1534.2c120.9,-615 1018.4,-843.4 1236.8,-165.8 -267.5,-181.7 -741.7,-164.2 -823.4,209.2 -103.4,479.2 626.7,609.2 536.7,994.2 -251.7,-150 -499.2,49.2 -735.1,-250 -149.1,-188.4 -263.3,-540.1 -215,-787.6z"/>
    <path class="fil5" d="M98795.1 109672.8c0,0 1.6,1.7 1.6,3.4 0,-2.5 0,-4.2 0,-5.9 0,-30 -1.6,-29.1 -2.4,2.5l0.8 0zm-347.5 1879.3c566.7,-2.5 812.5,-682.5 1223.4,-1024.2 236.6,-196.7 501.7,-355.9 773.3,-500 195,-104.2 490.9,-266.7 528.4,-510.9 38.3,-252.5 -185,-434.2 -380.8,-542.5 -348.4,-194.2 -1003.4,-279.2 -1046.8,-774.2 -100.8,470.8 -223.3,950.9 -181.6,1435.9 11.6,126.7 31.6,257.5 72.5,378.3 20,60.9 104.1,175.9 90.8,239.2 -34.2,159.2 -233.3,123.4 -337.5,48.4 -186.7,-135.9 -320,-416.7 -393.4,-625.9 10,333.4 -187.5,653.4 -327.5,942.6 -104.2,216.6 -340.8,654.2 -243.3,903.3 79.1,21.7 151.6,30.1 220.8,30.1l1.7 -0.1zm1532.5 -1814.3c-51.6,19.2 -105.8,28.4 -153.3,28.4 -529.2,-0.8 -207.5,-861.7 -200.8,-1149.3 85.8,157.6 133.3,335.9 247.5,483.4 113.3,145.8 368.3,239.2 313.3,440.9 -27.5,95.8 -112.5,161.6 -205.8,195.8l-0.9 0.8zm-964.2 1202.6c-83.3,95.8 -240,58.3 -280.8,-67.5 -52.5,-161.7 115,-337.5 99.2,-519.2 39.1,155 280.8,387.5 210.8,541.7 -8.3,17.5 -17.5,32.5 -29.2,45l0 0z"/>
    <path class="fil5" d="M112995.9 84909.8c-217.6,-40 -480.9,-190.9 -667.6,0 -202.5,205.8 154.2,553.3 -217.5,708.4 -364.2,153.3 -366.7,-205.9 -297.5,-443.4 48.3,-165.8 151.6,-291.7 14.1,-434.2 -138.3,-142.5 -383.3,-62.5 -526.7,21.7 -48.3,27.5 -92.5,65 -132.5,108.3 -665,715.1 -425,3399.4 831.7,2523.5 450.1,-314.2 117.5,-924.2 295,-1358.4 162.5,-393.3 787.6,-640 700.1,-1125.1l0.9 -0.8zm-1479.3 2294.3c-439.2,35.8 -537.5,-795.1 -429.2,-1117.6 -11.6,228.4 157.5,686.7 464.2,570.9 107.5,-39.2 399.2,-540.1 413.3,-580.9l0 41.7c-15.8,355.9 139.2,1039.2 -448.3,1085.9l0 0z"/>
   </g>
   <path class="fil0" d="M117980.3 79771.2c0,2971 -2408.5,5378.6 -5378.6,5378.6 -2970.2,0 -5379.5,-2407.6 -5379.5,-5378.6 0,-2971 2407.6,-5379.5 5378.6,-5379.5 2971,0 5378.6,2407.7 5378.6,5379.5l0.9 0z"/>
   <path class="fil10" d="M117980.3 79561.2c0,2970.2 -2408.5,5378.6 -5378.6,5378.6 -2970.2,0 -5379.5,-2408.5 -5379.5,-5378.6 0,-2970.2 2407.6,-5379.5 5378.6,-5379.5 2971,0 5378.6,2408.5 5378.6,5379.5l0.9 0z"/>
   <path class="fil3" d="M112615.8 82119.6c-1470.1,0 -2665.9,-1196.7 -2665.9,-2666.8 0,-1470.1 1195.9,-2666.8 2665.9,-2666.8 1470.1,0 2666.9,1196.7 2666.9,2666.8 0,1470.1 -1196.8,2666.8 -2666.9,2666.8l0 0z"/>
   <path class="fil11" d="M112600.8 82227.2c-1470.1,0 -2666.8,-1196.8 -2666.8,-2666.9 0,-1470.1 1196.7,-2666.8 2666.8,-2666.8 1470.1,0 2666.8,1196.7 2666.8,2666.8 0,1470.1 -1195.9,2666.9 -2666.8,2666.9l0 0z"/>
   <path class="fil12" d="M112600.8 77379.4c-1202.5,0 -2181.8,979.2 -2181.8,2181.8 0,1202.5 979.3,2181.8 2181.8,2181.8 1202.6,0 2181.8,-979.3 2181.8,-2181.8 0,-1202.6 -979.2,-2181.8 -2181.8,-2181.8l0 0z"/>
   <rect class="fil11" transform="matrix(0.222529 -0.222917 0.222917 0.222529 110724 78071.6)" width="1733" height="15105.1"/>
   <path class="fil13" d="M118247 127739.7c0,949.2 135,1655.1 650.9,1899.3 81.6,108.3 81.6,325.8 -26.7,407.5 -298.4,0 -787.6,108.3 -1302.6,216.6 -1682.6,406.7 -3717.7,733.4 -5263.6,733.4 -3256,0 -6322,-869.2 -8356.3,-2985.2 -1600.9,-1655 -2388.5,-3933.5 -2388.5,-6212.8 0,-2279.3 787.5,-4611.9 2496,-6375.4 1926.8,-2035.9 4884.4,-3202.6 8655.5,-3202.6 1275,0 2658.4,217.5 3608.5,407.5 623.4,135 1410.1,244.2 1735.9,244.2 27.5,813.3 216.7,2197.6 352.6,4314.4 -135.9,270.8 -732.6,298.3 -867.6,54.2 -597.5,-2631.8 -2523.5,-3934.4 -5209.4,-3934.4 -4776.1,0 -7081.2,3446 -7081.2,8058.7 0,2171 488.3,4503.6 1953.4,6241.2 1465.1,1735.9 3635.2,2306 5236.9,2306 1302.6,0 2089.3,-217.6 2415.2,-624.2 163.3,-244.2 244.1,-732.6 244.1,-1709.3l0 -976.7c0,-1925.9 -26.6,-2089.3 -1845.1,-2386.8l-976.7 -163.4c-189.2,-190 -189.2,-650.8 27.5,-786.7 1058.4,54.2 2360.1,81.7 4231.9,81.7 1221.7,0 2144.3,-27.5 3311,-81.7 270.9,135 298.4,596.7 54.2,786.7l-488.4 81.7c-1004.2,162.5 -1166.7,380 -1166.7,2035.1l0 1573.4 -0.8 -2.4z"/>
  </g>
  <path class="fil14" d="M121222.7 214704.8c0,845.5 120.2,1473 579.3,1690.3 72.7,96.4 72.7,290 -23.8,362.7 -266.2,0 -700.8,96.4 -1159.9,192.8 -1496.8,362 -3308.7,652.7 -4684.5,652.7 -2898.5,0 -5626.4,-772.9 -7436.8,-2656 -1424.8,-1472.9 -2125.7,-3501.4 -2125.7,-5529.9 0,-2028.5 700.9,-4104.4 2222.1,-5673.8 1714,-1812 4346.2,-2849.6 7702.3,-2849.6 1134.8,0 2366,193.6 3211.5,362 554.8,120.1 1255.7,217.3 1545.7,217.3 24.4,724.6 192.8,1955.8 313.7,3839.7 -120.9,241 -651.9,265.5 -772.1,48.2 -531.8,-2342.2 -2245.8,-3501.5 -4637,-3501.5 -4249.8,0 -6302,3066.8 -6302,7172 0,1931.4 434.6,4008.8 1737.8,5553.7 1303.8,1545.7 3235.9,2052.2 4660.7,2052.2 1158.5,0 1859.3,-192.1 2149.3,-554.7 145.4,-217.3 217.3,-652 217.3,-1521.2l0 -869.3c0,-1714 -23.7,-1859.4 -1642,-2124.9l-869.3 -144.6c-169.1,-169.1 -169.1,-578.5 24.5,-700.1 941.9,48.9 2100.4,72.6 3766.2,72.6 1087.3,0 1907.6,-23.7 2946.7,-72.6 241.1,121.6 265.5,531 48.2,700.1l-434.6 72.7c-893.7,144.6 -1038.4,337.5 -1038.4,1810.4l0 1401.1 0.8 -2.3z"/>
  <path class="fil15" d="M121322.7 214704.8c0,413.9 29.1,773.2 113.2,1052.2 79.1,262.5 207.8,452.8 408.7,547.9l16.3 7.8c7.7,7.6 14.3,13.7 20.9,22.3 50,66.4 75.1,163.3 71.4,254.2 -4.1,97.4 -40.8,192.4 -114.7,248.3l-26.9 20.3 -33.3 0c-236.1,0 -619.4,80.8 -1032.5,167.9l-107.2 22.6c-791.9,191.2 -1671.4,362.9 -2527.8,482.2 -770.9,107.4 -1523.5,172.8 -2177,172.8 -1523.9,0 -3002,-212.5 -4327.2,-685.8 -1216.7,-434.5 -2304.8,-1089.1 -3181.5,-2001.1 -704.5,-728.3 -1234.6,-1591 -1592.5,-2522.2 -375.2,-976.2 -561.3,-2027 -561.3,-3076.8 0,-1059.4 189.2,-2132.1 584.2,-3140.6 370,-944.9 921.1,-1833.8 1666.4,-2602.7 879.1,-928.7 1995.7,-1656.4 3323.6,-2147.7 1290.9,-477.6 2782.5,-732.4 4450.2,-732.4 496.6,0 1012.8,37.1 1507.7,92.8 641.2,72.3 1244.5,175.9 1723.3,271.2l1.6 0.3c274.6,59.4 583,113 858,151.6 278.2,39.1 523.9,63.4 666.6,63.4l96.3 0 3.3 96.9c11.2,334.4 53.8,780.9 108.2,1351.8 62.7,658.8 141.2,1482.4 205.5,2484.7l1.7 26.5 -12.2 24.3c-36.3,72.3 -97.2,129.3 -171.5,170.2 -90,49.7 -202.7,77.4 -313.2,81.5 -111.1,4.1 -223,-15.6 -311,-59.7 -65.4,-32.7 -118.9,-79.5 -152.6,-140.3l-7.3 -13 -2.9 -13.1c-255.5,-1125.5 -788.9,-1971.3 -1541.5,-2539.5 -781.5,-590.2 -1802.9,-883.9 -2998.2,-883.9 -2007.5,0 -3515.3,692.9 -4539.6,1858.5 -1114.9,1268.8 -1662.4,3101 -1662.4,5213.5 0,1028.6 124.1,2098.3 438.8,3104.1 270.3,863.7 681.4,1681.1 1275.2,2385.1 573.2,679.7 1271,1155 1992.2,1472.6 890.5,392 1817.5,544.1 2592.3,544.1 566,0 1019.3,-46 1365.1,-135.1 336.8,-87 569.4,-213.5 702.5,-376.8 63.8,-96.2 112.4,-245.8 146.1,-473.4 35.2,-239 52.9,-560.3 52.9,-990.6l0 -869.3c0,-835.8 -5.4,-1288.8 -194.6,-1546.6 -187,-255 -581.8,-351.8 -1363.4,-479.9l-901.7 -149.9 -22.3 -22.4c-22.5,-22.5 -43.1,-48.7 -61.1,-77.6 -65.2,-104.2 -96.3,-243.4 -91.2,-374.9 5.3,-136.9 49.6,-270.1 134.9,-355.4 17.6,-17.6 37.6,-33.8 59.9,-47.7l26.2 -16.4 31.6 1.6c472.3,24.4 996.6,42.7 1608.1,54.6 602.2,11.8 1307.8,17.6 2153,17.6 552.8,0 1028.9,-5.8 1489.1,-17.6 466.9,-11.8 931.6,-30.2 1452.9,-54.6l26.2 -1.2 23.4 11.7c56.8,28.6 104.8,69.8 142.8,118.6 63,80.5 99.1,183.1 107.4,287.8 8.1,103.3 -10.6,211.1 -57.1,303.4 -30.5,60.5 -73.4,115 -128.5,157.9l-20.3 15.8 -459.2 76.8c-416.7,67.3 -656.9,142.9 -784.8,359.5 -136.5,231.1 -170,634.3 -170,1352.5l0 810.3 0.8 -2.3 0 590.8zm-78.2 1109.2c-51,-169.1 -83.2,-362.6 -101.6,-576.5l-21 60.5 0 -1992c0,-754.5 39,-1184.6 198.2,-1454.1 167.7,-283.9 447,-377.4 923.8,-454.6l407.5 -68.3c22.4,-21.3 40.8,-47 55.1,-75.3 29.7,-58.9 41.5,-129.4 36.1,-198 -5.3,-67.2 -27.5,-131.8 -65.6,-180.8 -15.2,-20 -33.6,-37.4 -54.6,-51.1 -506,23.6 -963,41.4 -1428.7,53.2 -481.2,12.3 -959.2,18.4 -1493.7,18.4 -820.5,0 -1527.4,-6.1 -2156.6,-18.4 -602.9,-11.7 -1117.8,-29.4 -1577.9,-52.7l-2.9 2.8c-48.2,48.2 -73.7,131.7 -77.1,221 -3.6,94.5 17.2,192.1 61.2,262.1l14.1 20.1 834.2 138.8c836.3,137.1 1262.8,246.3 1492,558.7 227.1,309.4 233.6,786.5 233.6,1664.6l0 869.3c0,438.9 -18.5,769.8 -55.3,1019.6 -38.4,259.7 -98.3,436.1 -179.2,557.1l-5.1 6.6c-160.2,200.2 -428.9,351.5 -811.9,450.4 -364.2,93.9 -834,142.2 -1415.1,142.2 -798.3,0 -1754,-156.9 -2672.7,-561.3 -746.8,-328.9 -1469.6,-821.4 -2064.2,-1526.4 -612.3,-725.9 -1035.6,-1566.9 -1313.4,-2454.7 -321.4,-1027.2 -448.2,-2117.2 -448.2,-3163.5 0,-2159.6 564,-4037.7 1712.4,-5344.7 1062.2,-1208.8 2620.3,-1927.3 4689.6,-1927.3 1238.9,0 2301.1,307.2 3118.6,924.5 786.5,593.8 1344,1472.8 1612,2639.2 13.6,18.7 34.8,34.8 60.9,47.9 57.7,28.9 135.3,41.7 215,38.7 80.3,-3 161.1,-22.4 224.2,-57.3 32,-17.6 58.7,-39.1 76.8,-63.9 -64.4,-994.9 -141.1,-1801.5 -202.7,-2448 -49.8,-522.7 -89.7,-942 -105.2,-1270.1 -151.7,-7.5 -364.1,-30.3 -598.2,-63.2 -283.1,-39.7 -597.1,-94.1 -872.8,-153.8 -475.7,-94.7 -1073.2,-197.4 -1704.5,-268.5 -486.4,-54.8 -994.8,-91.2 -1485.9,-91.2 -1644,0 -3112.3,250.5 -4381.4,720 -1299.9,480.9 -2391.3,1191.7 -3248.6,2098l-0.8 1.1c-725.7,748.7 -1262.6,1614.9 -1623.4,2536.3 -385.5,984.3 -570.2,2032.3 -570.2,3068 0,1027.3 181.4,2054 547.3,3005.8 348.3,906.2 864.3,1745.9 1550.3,2455 853.8,888.1 1915.8,1526.5 3104.9,1951.1 1302.4,465.1 2757.7,674 4260,674 646.5,0 1389.4,-64.5 2149.6,-170.4 851.6,-118.6 1725.5,-289.2 2511.5,-479.2l110.3 -23.4c400.9,-84.5 774.8,-163.3 1029.6,-171.7 11.6,-19.8 17.9,-47.7 19.2,-77.6 1.6,-39.6 -5.8,-79.4 -21.1,-108.8 -242.5,-125.3 -396.2,-352.5 -488.4,-658.2z"/>
  <polygon class="fil14" points="114616.6,240917.9 80275.4,206863 80275.4,206340.2 114315.5,226675.5 149456.2,205549.5 149442.1,206069.4 "/>
  <path class="fil15" d="M114546.3 240988.6l-34370.9 -34084.3 0 -739.9 34139.9 20394.9 35245.4 -21188.9 -20.1 741.5c-11645.1,11645.1 -23278.6,23301.6 -34923.7,34946.7l-70.6 -70zm-34170.9 -34166.8l34240.9 33955.4 34727.3 -34750.3 8.1 -298.3 -35036.1 21063 -33940.2 -20275.6 0 305.8z"/>
  <path class="fil14" d="M114616.6 240393.6l-34354.5 -34059.4 5751.7 -27.4c0,0 2028.5,-1425.5 3467.3,-1520.5 923.4,-61.5 1717,613.4 1717,613.4l1777.1 -1043.6 21339.5 21445.7 22917.1 -22031.6 1615.4 577.8c0,0 716.5,-218.8 1939.5,-68.2 1223,151.3 2833.2,1550.1 4136.3,1482.6 804.8,83 4561.4,-236.6 4561.4,-236.6l-34867.8 34868.5 0 -0.7z"/>
  <path class="fil16" d="M114516.6 240434.9l-34495.4 -34199.1 5960.8 -28.5c238,-163.7 2118.4,-1429.8 3492.5,-1520.6 818.2,-54.5 1533.4,440.3 1732.4,592.4l1784.6 -1048 21324.7 21430.9 22891.1 -22006.6 1643.8 587.9c151.7,-39.7 851.4,-197.7 1947.7,-62.7 561.4,69.4 1190.4,388 1834.8,714.3 782,395.9 1587.9,804 2284.3,767.9l15.3 0.4c793.9,81.8 4532.3,-236.2 4543,-237l271.8 -22.6 -35231.4 35232.1 0 -200.8zm-34013.6 -34002.2l34113.4 33820.4 34604.6 -34605.3c-874.7,71 -3604.3,282.7 -4300.3,214.5 -747.6,35.7 -1574.6,-382.9 -2376.9,-789.2 -628.5,-318.3 -1241.9,-629 -1769.2,-694.1 -1202.4,-148 -1898.1,64.6 -1900.1,65.1l-30.8 8.8 -1587.5 -567.8 -22943.1 22056.5 -21354.1 -21460.5 -1770.8 1040 -53.8 -44.4c-2.1,-1.7 -764,-649.5 -1646.7,-590.8 -1410.5,93.1 -3411.1,1498.9 -3416.9,1502.9l-25.1 17.5 -5542.7 26.4z"/>
  <polygon class="fil14" points="114676.7,232160.2 87655.9,205356 87983.7,205208.3 114675.9,231667 141759.8,204586.1 142092.8,204733.7 114676.7,232160.2 "/>
  <path class="fil15" d="M114606.4 232230.9l-27123.7 -26906.3 522.5 -235.4 26670.2 26436.9 27062.1 -27059.1 528.6 234.4c-9198,9198 -18384.7,18408 -27589.2,27599.5l-70.5 -70zm-26777.3 -26843.5l26847.3 26632.1 27243.1 -27253.4 -137.4 -60.9 -27105.7 27102.6 -26714.1 -26480.4 -133.2 60z"/>
  <rect class="fil16" transform="matrix(0.198354 -0.198077 0.198077 0.198354 85273.7 211131)" width="18184.8" height="1928.8"/>
  <path class="fil15" d="M85655.8 211373.1l3466 -3461.1 -241.2 -241.5 -3465.9 3461.1 241.1 241.5zm3677.3 -3390.3l-3677.5 3672.4 -522.8 -523.8c1248.4,-1248.4 2497.8,-2496.1 3748,-3742.8l523.1 523.6 -70.8 70.6z"/>
  <polygon class="fil16" points="97159.7,223021.2 96777.8,222638.5 100380.8,219034.7 100764.3,219416.7 "/>
  <path class="fil15" d="M97089 223091.5l-452.1 -453.1c1248,-1248 2494.9,-2497.3 3743.8,-3744.5l525 522.9c-1249.4,1247.7 -2497.2,2497 -3745.8,3745.6l-70.9 -70.9zm-170.3 -452.9l240.9 241.3 3463.4 -3463.3 -242.1 -241 -3462.2 3463z"/>
  <polygon class="fil16" points="91408.8,217269.5 91025.3,216886.8 94629.1,213282.3 95011.8,213665 "/>
  <path class="fil15" d="M91338.5 217340.2l-454.4 -453.5c1247.6,-1249.3 2496.5,-2497.3 3745,-3745.8l523.9 523.9 -3744.1 3745.7 -70.4 -70.3zm-171.9 -453.3l242.1 241.7 3461.9 -3463.4 -241.5 -241.5 -3462.5 3463.2z"/>
  <rect class="fil16" transform="matrix(0.198216 -0.198216 0.198216 0.198216 102530 228390)" width="18182.2" height="1931.5"/>
  <path class="fil15" d="M102912.5 228631.8l3462.6 -3462.6 -241.4 -241.4 -3462.6 3462.6 241.4 241.4zm3674.7 -3391.9l-3674.7 3674.7 -524.2 -524.2 3745.4 -3745.4 524.2 524.2 -70.7 70.7z"/>
  <rect class="fil16" transform="matrix(0.198285 -0.198147 0.198147 0.198285 108282 234140)" width="18465.3" height="1931.5"/>
  <path class="fil15" d="M108665 234381.6l3520.3 -3517.9 -241.7 -241.9 -3520.4 3517.9 241.8 241.9zm3731.6 -3447.2l-3731.7 3729.2 -523.6 -524.1 3802.4 -3799.7 523.7 523.9 -70.8 70.7z"/>
  <rect class="fil16" transform="matrix(0.198216 -0.198216 0.198216 0.198216 88149 214010)" width="9093.7" height="1931.5"/>
  <path class="fil15" d="M88531.8 214251.7l1661.4 -1661.3 -241.5 -241.4 -1661.3 1661.3 241.4 241.4zm1873.3 -1590.4l-1873.3 1873.2 -524.2 -524.2 1943.7 -1943.6 524.4 524.1 -70.6 70.5z"/>
  <rect class="fil16" transform="matrix(0.197904 -0.198527 0.198527 0.197904 93903.4 219762)" width="9091.1" height="1928.8"/>
  <path class="fil15" d="M94286.1 220003.2l1658.4 -1663.7 -241.7 -240.9 -1658.4 1663.7 241.7 240.9zm1870.1 -1593.6l-1869.6 1875.7 -524.1 -522.5c645.8,-649.5 1293.1,-1297.6 1939.9,-1946.2l524.1 522.5 -70.3 70.5z"/>
  <polygon class="fil16" points="100036,225897.5 99653.3,225514.8 101455.5,223712.5 101838.2,224095.2 "/>
  <path class="fil15" d="M99965.3 225968.2l-453.3 -453.4 1943.5 -1943.8 524.1 524.1 -1943.5 1943.8 -70.8 -70.7zm-170.6 -453.4l241.3 241.3 1660.8 -1660.9 -241.3 -241.3 -1660.8 1660.9z"/>
  <polygon class="fil16" points="105788.4,231649.2 105405,231267.2 107207.2,229464.2 107589.9,229847.7 "/>
  <path class="fil15" d="M105718.1 231719.9l-454.2 -452.6 1943.4 -1944.2 523.8 524.8 -1942.3 1942.3 -70.7 -70.3zm-172 -452.8l242 241 1660.7 -1660.7 -241.7 -242.1 -1661 1661.8z"/>
  <polygon class="fil16" points="111540.1,237401.6 111157.4,237018.9 112959.7,235215.9 113341.7,235599.4 "/>
  <path class="fil15" d="M111469.4 237472.3l-453.1 -453.2 1943.5 -1944.4 522.7 524.8 -1942.5 1943.3 -70.6 -70.5zm-170.8 -453.6l241.7 241.7 1660.5 -1661.1 -241.2 -242.2 -1661 1661.6z"/>
  <polygon class="fil16" points="143532.4,211517.8 143915.1,211135.1 140311.3,207530.5 139928.6,207913.3 "/>
  <path class="fil15" d="M143532.4 211376.4l241.5 -241.5 -3462.6 -3463.4 -241.5 241.6 3462.6 3463.3zm453.4 -170.6l-453.5 453.5c-1246.6,-1250.1 -2495.7,-2498.2 -3744.9,-3745.7l523.8 -524.1c1249.3,1247.5 2498.4,2495.7 3745,3745.9l-70.4 70.4z"/>
  <polygon class="fil16" points="132029,223021.2 132411,222638.5 128807.9,219034.7 128425.2,219416.7 "/>
  <path class="fil15" d="M132029.1 222879.9l240.8 -241.1 -3462.3 -3463 -241.1 240.8 3462.6 3463.3zm452.6 -171.1l-452.9 453.6c-1248.4,-1248.4 -2495.6,-2498 -3744.9,-3745.5l524.2 -523.3c1249,1247.2 2495.9,2496.5 3744,3744.6l-70.4 70.6z"/>
  <polygon class="fil16" points="137780,217269.5 138163.4,216886.8 134558.8,213282.3 134176.9,213665 "/>
  <path class="fil15" d="M137780.1 217128.6l242 -241.7 -3463.4 -3463.3 -240.9 241.3 3462.3 3463.7zm453.6 -171.1l-453.8 453c-1247.3,-1249.1 -2494.9,-2498.1 -3744,-3745.4l523 -524c1249.4,1247.6 2498.1,2496.2 3745.7,3745.6l-70.9 70.8z"/>
  <rect class="fil16" transform="matrix(0.198147 -0.198285 0.198285 0.198147 122671 225173)" width="1931.5" height="18182.2"/>
  <path class="fil15" d="M126276.6 228634.4l241.8 -241.9 -3464.1 -3461.9 -241.8 241.9 3464.1 3461.9zm453.5 -171.7l-453.4 453.7 -3746.2 -3743.8 523.6 -524.1 3746.2 3743.8 -70.2 70.4z"/>
  <rect class="fil16" transform="matrix(0.198147 -0.198285 0.198285 0.198147 116863 230867)" width="1931.5" height="18465.3"/>
  <path class="fil15" d="M120524.6 234385.1l241.8 -241.9 -3520.3 -3517.9 -241.8 241.9 3520.3 3517.9zm453.5 -171.7l-453.4 453.7 -3802.4 -3799.8 523.6 -524.1 3802.4 3799.8 -70.2 70.4z"/>
  <polygon class="fil16" points="140656.2,214394 141039.6,214010.6 139237.3,212207.6 138854.7,212591 "/>
  <path class="fil15" d="M140656 214252.8l242.4 -242.4 -1661 -1661.7 -241.8 242.3 1660.4 1661.8zm454.3 -171.5l-454 454 -1942.5 -1944.2 523.4 -524.5c648.4,647.5 1296.5,1295.5 1943.5,1944.3l-70.4 70.4z"/>
  <rect class="fil16" transform="matrix(0.198354 -0.198077 0.198077 0.198354 133103 218338)" width="1928.8" height="9091.1"/>
  <path class="fil15" d="M134904.3 219999.8l241.5 -241.1 -1659.9 -1662.2 -241.5 241.2 1659.9 1662.1zm452.8 -170.3l-453.1 452.3 -1941.6 -1944.2 523.6 -523.1 1941.8 1944.5 -70.7 70.5z"/>
  <rect class="fil16" transform="matrix(0.198216 -0.198216 0.198216 0.198216 127350 224095)" width="1931.5" height="9093.7"/>
  <path class="fil15" d="M129153.2 225756.5l241.4 -241.5 -1661.5 -1661.5 -241.4 241.5 1661.5 1661.5zm453.3 -171.4l-453.7 453.8 -1943.5 -1943.5 524.1 -524.4 1943.5 1943.5 -70.4 70.6z"/>
  <polygon class="fil16" points="123401,231649.2 123783.7,231267.2 121981.5,229464.2 121598.8,229847.7 "/>
  <path class="fil15" d="M123401.1 231508.3l241.6 -241.2 -1661.1 -1661.8 -241.9 242.3 1661.4 1660.7zm452.9 -170.4l-453.1 452.2 -1943.1 -1942.4 523.6 -524.6 1943.3 1944.1 -70.7 70.7z"/>
  <rect class="fil16" transform="matrix(0.198216 -0.198216 0.198216 0.198216 115847 235599)" width="1931.5" height="9093.7"/>
  <path class="fil15" d="M117649.7 237260.2l241.5 -241.4 -1661.5 -1661.5 -241.5 241.4 1661.5 1661.5zm453 -170.9l-453.5 453.2 -1943.5 -1943.5 524.4 -524.1 1943.5 1943.5 -70.9 70.9z"/>
  <path class="fil14" d="M91175.1 205390.1l23300.6 23422.2 24754.2 -24502.1c-225.4,33.4 -350.8,69 -350.8,69l-1615.4 -577.1 -22916.4 22030.8 -21341 -21444.9 -1777 1043.6c0,0 -22.3,-17.1 -54.2,-41.6l0 0.1z"/>
  <path class="fil16" d="M91382.4 205457.2l23093.8 23214.3 24450.6 -24201.5 -52.9 13.5 -1585.8 -566.6 -22942.4 22055.8 -21355.6 -21459.7 -1607.7 944.2zm23022.6 23425.4l-23329.9 -23451.6 0 -243.4 161.8 124.1 1785.7 -1048.7 21326.2 21430.1 22890.4 -22005.8 1644.6 587.5c50,-12.5 163.8,-38.5 331.6,-63.4l301.1 -44.6c-8347,8262.1 -16689.7,16528.9 -25041.4,24786.3l-70.1 -70.5z"/>
  <polygon class="fil16" points="114687.8,232373.8 87503.1,205438.3 87830.9,205278.8 114686.3,231879.8 141918.5,204651.3 142245.6,204809.3 114687.8,232373.8 "/>
  <path class="fil15" d="M114617.5 232444.5l-27284.6 -27034.4 517.8 -252 26835.1 26580.8 27212 -27208.3 517.5 250c-9243.4,9243.4 -18477.2,18497 -27727.2,27733.8l-70.6 -69.9zm-26944.2 -26977.9l27014.2 26766.5 27388.4 -27395 -136.7 -66.1 -27252.4 27248.6 -26875.7 -26621.1 -137.8 67.1z"/>
  <path class="fil0" d="M111785.6 174146.1l9264.3 24308.5c0,0 5945.3,1516 9263.6,8244.5l13051.3 26710.1 -23845 -60877c0,0 -1105.1,4930 -7734.2,1614.7l0 -0.8z"/>
  <path class="fil15" d="M111969.1 174347.1l9156.1 24024.5c575.4,161.7 6110.8,1861.6 9277.8,8283.4l11972 24501 -22843.7 -58320.8c-356.1,999.3 -1976.9,4198.3 -7562.2,1511.9zm8987.4 24143l-9250.2 -24271.5 -20.7 -10.3 0 -605.1 179.8 471.8c6484,3223.2 7554.2,-1552.6 7557.5,-1566.2l74.6 -307.2 23960.3 61171.3 -182.8 80.1 -13051.3 -26710.1c-3297.7,-6686.8 -9182.6,-8187.3 -9199.6,-8191.8l-49.4 -13.2 -18.2 -47.8z"/>
  <path class="fil14" d="M112010.4 173922.1l9264.3 24307.8c0,0 5945.2,1516 9264.3,8244.5l12833.2 26942.2 -23627.6 -61109.1c0,0 -1104.4,4929.2 -7734.3,1614.7l0.1 -0.1z"/>
  <path class="fil15" d="M112193.6 174122.2l9156.4 24024.7c575.4,161.7 6110.7,1861.7 9278.5,8283.4l11698.8 24560.2 -22571.8 -58378.3c-357.2,1000.9 -1978.8,4194.6 -7561.9,1510zm8987.7 24143.2l-9250.5 -24271.6 -89 -44.4 207.1 -207.1 41.1 107.9c6484.8,3222.6 7554.4,-1552.5 7557.7,-1566.1l75.1 -309.3 23742.4 61405.9 -183.2 78.9 -12833.2 -26942.2c-3298.7,-6686.3 -9182.9,-8186.5 -9199.9,-8191l-49.4 -13.2 -18.2 -47.8z"/>
  <path class="fil16" d="M113795.6 174857.4l8838.5 22352.7c0,0 5354.2,2039.6 6969.6,4844.6l-10879.7 -27962c0,0 -1104.3,2039.6 -4928.4,764.7z"/>
  <path class="fil15" d="M113966.1 175016.7l8744.9 22116.1c455.6,178.3 4595.4,1843.1 6497,4179.9l-10508.8 -27008.8c-359.5,458.5 -1649.2,1671.8 -4733.1,712.8zm8575 22230.1l-8917.2 -22551.5 203 67.6c3745.6,1248.7 4807.3,-713.9 4810.4,-719.4l103.6 -182.1c3813.7,9792.3 7621.9,19586.9 11431.7,29380.8l-655.2 -1137.9c-1597.2,-2773.5 -6903.6,-4795 -6918.8,-4800.8l-41.4 -15.8 -16.1 -40.9z"/>
  <path class="fil14" d="M115920.5 177299c158,386.4 -138.7,929.3 262.5,1208.9 1118.5,780.3 1332.1,-1609.4 740.2,-2245.8 -36.3,-38.6 -75.7,-71.9 -117.9,-96.4 -127.6,-74.2 -345.7,-146.1 -468.8,-19.3 -122.4,126.8 -30.4,238.8 12.6,386.4 61.6,211.4 59.4,531.1 -264.8,394.6 -330.7,-137.9 -13.3,-447.2 -193.5,-630.4 -166.9,-169.9 -400.6,-35.6 -593.4,0 -77.9,431.6 478.4,651.1 622.3,1001.2l0.8 0.8zm294.4 74.2l0 -37.1c11.9,35.6 272.2,482.1 367.2,516.9 273.6,103.1 423.5,-304.8 413.8,-508 96.4,287 8.9,1026.4 -381.9,994.6 -522.9,-41.6 -385,-649.8 -399.1,-966.4z"/>
  <path class="fil15" d="M116012.7 177261.5c70.8,173.2 61.8,361.2 52.8,547.3 -11.5,241.2 -22.9,479.5 174.5,617.1 190.4,133.2 344.8,161.7 465.7,117.8 97.9,-35.5 180.4,-120.2 246.3,-236.1 26.5,-46.5 50.2,-97.8 71.2,-152.8 -60.4,127 -148.6,226.4 -268.6,266.7 -46.2,15.5 -95.7,21.9 -148.4,17.7 -523.4,-41.6 -506.6,-509.6 -493.4,-874.1 2.5,-69 4.9,-133.9 2.5,-187.6 -9.1,-98.1 -0.4,-231.6 -0.4,-333.5 -22,-6.1 -45.1,-14.2 -69.3,-24.4 -258.6,-108.1 -232.7,-279.3 -206.6,-451.4 11.8,-78.4 23.8,-157.5 -19.3,-201.3 -86.2,-87.8 -224.1,-47.9 -354.1,-10.2l-75.6 21.3c2,181.4 153.8,330.2 304.4,478 121.5,119.1 242.8,238.1 309,384.6l9.3 20.9zm-146.4 537.9c7.5,-156.9 15.1,-315.2 -30.7,-443.8l-8.1 -19.5c-48.3,-117.7 -160.5,-227.7 -272.9,-337.9 -205.2,-201.3 -412,-404 -355.2,-718.8l12.2 -67.9 67.8 -12.5c40.1,-7.4 85.1,-20.5 130.8,-33.7 185.6,-53.8 382.3,-110.6 551.7,61.8 113.4,115.3 93.9,243.5 74.7,370.7 -14.1,92.9 -27.9,185.3 78.3,234l0 -113 43 129.5c27.1,8.9 49.1,12.7 66.5,12.2 15.6,-0.4 26.2,-5.7 32.4,-13.7 12,-15.7 19.1,-41.7 22.1,-72.5 6.5,-65.9 -5.7,-145.9 -25.5,-213.8 -8,-27.6 -19.5,-57.2 -30.3,-85.3 -52.6,-136.4 -97.8,-253.6 41.5,-397.9 75.5,-77.8 172.1,-103.5 270.9,-99.5 116.2,4.7 235.8,52.8 319.8,101.6 24.9,14.4 49.1,31.6 72.4,50.5 24.4,20 47.2,41.5 68.2,63.8 307,330.3 414.2,1087.2 307.3,1684.3 -35.6,198.8 -94.7,381.9 -177.8,528 -88.8,156.2 -205.9,272.4 -351.7,325.3 -180.7,65.6 -397.1,32.9 -647.5,-141.7 -288.1,-200.3 -274.1,-493.5 -259.9,-790.2zm1264.1 -118.9c55.5,-511.4 -39.9,-1091.6 -279.9,-1350 -16.2,-17.3 -32.7,-33 -49,-46.3 -14.8,-12 -30.3,-23 -46.2,-32.2 -62.3,-36.2 -148.7,-71.8 -227.6,-75 -46.2,-1.9 -89.5,8.1 -119.3,38.5 -51.3,53.1 -27.2,115.5 0.7,187.9 12,31.3 24.8,64.2 35.7,101.7 25.9,88.9 41.7,196.2 32.5,288.8 -6.5,65.8 -25.7,126.8 -61.9,173.9 -42.1,54.8 -102.5,89.4 -185.6,91.9l-1.7 0 81.3 245.1c6.2,18.8 106.2,190 203.3,326.8 48.6,68.3 90.7,122.8 103.8,127.6 21.2,8.1 39.7,11.1 56,10.4 34.9,-1.6 67.7,-22.1 96.3,-52.8 36,-38.6 65.3,-92.2 86.8,-149.3 29.4,-78 43.4,-159.3 40.7,-217.8l-34.2 -714.6 228.3 678.3c31.5,93.6 45.8,227.1 40,367.1zm-780.3 66.7l-41.4 -60.3c-4.2,255.6 24.3,530.1 313.1,553.1 26,2.1 49.3,-0.7 69.6,-7.5 65.3,-21.9 117.3,-87.2 156.2,-172.6 27.3,-60 47.7,-129.1 61.6,-201.2 -61.3,63.5 -137.3,105.8 -227.3,110.1 -42.8,2 -87.9,-4.7 -134.2,-22.1 -56.4,-20.6 -128.6,-102.5 -197.6,-199.5z"/>
  <path class="fil0" d="M120067.2 174146.1l-9264.3 24308.5c0,0 -5945.3,1516 -9264.3,8244.5l-13050.6 26710.1 23845 -60877c0,0 1104.3,4930 7734.2,1614.7l0 -0.8z"/>
  <path class="fil15" d="M120146.5 174218.6l-9268.4 24319.3 -49.4 13.2c-17,4.5 -5901.9,1505.1 -9200.4,8191.7l-13050.5 26710.2 -182.8 -80.1 23960.3 -61171.3 74.6 307.2c3.3,13.6 1072.7,4789.5 7557.5,1566.2l179.8 -471.8 0 605.1 -20.7 10.3zm-9418.9 24153l9156.1 -24024.5c-5585.9,2686.4 -7206.2,-512.5 -7562.2,-1511.8l-22843.5 58320.1 11970.8 -24500.1c3168,-6422 8703.4,-8122 9278.8,-8283.7z"/>
  <path class="fil14" d="M119842.5 173922.1l-9264.3 24307.8c0,0 -5945.3,1516 -9264.3,8244.5l-12834 26942.2 23627.6 -61109.1c0,0 1105.1,4929.2 7735,1614.7l0 -0.1z"/>
  <path class="fil15" d="M119922.1 173993.8l-9268.7 24319.4 -49.4 13.2c-17,4.5 -5901.4,1504.9 -9200,8190.9l-12833.9 26942.3 -183.2 -78.9 23742.4 -61405.9 75.1 309.3c3.3,13.6 1073.5,4788.8 7558.6,1566.1l179.5 -471 0 604.4 -20.4 10.2zm-9419.2 24153.1l9156.4 -24024.7c-5583.3,2684.7 -7205.4,-509.2 -7562.7,-1510.1l-22572.1 58379.2 11699.9 -24561c3167.7,-6421.7 8703.1,-8121.7 9278.5,-8283.4z"/>
  <path class="fil16" d="M118057.3 174857.4l-8839.3 22352.7c0,0 -5354.2,2039.6 -6968.9,4844.6l10879 -27962c0,0 1105.1,2039.6 4929.2,764.7l0 0z"/>
  <path class="fil15" d="M118150.3 174894.1l-8855.4 22393.6 -41.4 15.8c-15.2,5.8 -5321.6,2027.4 -6918.1,4800.8l-655.7 1139.3c3809.6,-9794.4 7621.9,-19587.8 11431.4,-29382.2l103.7 182.1c3.1,5.5 1065.6,1968.1 4811.2,719.4l202.9 -67.6 -78.6 198.8zm-9009.2 22238.7l8745.7 -22116c-3084,958.9 -4374.2,-254.5 -4733.9,-712.9l-10508 27008.5c1901.2,-2336.7 6040.6,-4001.3 6496.2,-4179.6z"/>
  <path class="fil14" d="M121032.1 171724.5c0,2644.1 -2143.4,4786.8 -4786.8,4786.8 -2643.3,0 -4787.5,-2142.7 -4787.5,-4786.8 0,-2644 2142.7,-4787.5 4786.8,-4787.5 2644.1,0 4786.8,2142.7 4786.8,4787.6l0.7 -0.1z"/>
  <path class="fil15" d="M121132.1 171724.5c0,1349.6 -547.1,2571.3 -1431.3,3455.5 -884.2,884.3 -2106.2,1431.3 -3455.5,1431.3 -1349.3,0 -2571.5,-547.1 -3456,-1431.5 -884.3,-884.6 -1431.5,-2106.2 -1431.5,-3455.3 0,-1349.6 547,-2571.6 1431.3,-3456.1 884.2,-884.3 2105.9,-1431.4 3455.5,-1431.4 1349.3,0 2571.1,547.1 3455.5,1431.6 859.2,858.8 1399.8,2036.9 1429.9,3341.1l2.1 -0.3 0 115.1zm-1572.7 3314.1c831.1,-831.1 1351.6,-1973.2 1372,-3236.9l0 -77.1c0,-1294.8 -524.5,-2466.8 -1372.5,-3314.8 -847.7,-848.3 -2019.6,-1372.8 -3314.3,-1372.8 -1294.3,0 -2466.1,524.7 -3314.1,1372.8 -848.1,848.2 -1372.7,2020.2 -1372.7,3314.7 0,1294.5 524.6,2466.2 1372.5,3313.9 848.7,848.2 2020.8,1372.9 3315,1372.9 1294.2,0 2466.1,-524.6 3314.1,-1372.7z"/>
  <path class="fil14" d="M121032.1 171537.6c0,2643.4 -2143.4,4786.8 -4786.8,4786.8 -2643.3,0 -4787.5,-2143.4 -4787.5,-4786.8 0,-2643.3 2142.7,-4787.5 4786.8,-4787.5 2644.1,0 4786.8,2143.5 4786.8,4787.5l0.7 0z"/>
  <path class="fil15" d="M121132.1 171537.6c0,1349.1 -547.1,2571.1 -1431.4,3455.4 -884.3,884.2 -2106.1,1431.4 -3455.4,1431.4 -1349,0 -2570.9,-547.2 -3455.4,-1431.5 -884.9,-884.3 -1432.1,-2106.1 -1432.1,-3455.3 0,-1349.3 547.1,-2571.5 1431.5,-3456 884.6,-884.3 2106.2,-1431.5 3455.3,-1431.5 1349.6,0 2571.3,547.1 3455.5,1431.4 862.4,862.6 1403.9,2046.2 1430.2,3356.1l1.8 0 0 100zm-1572.8 3314c831.2,-831.2 1351.7,-1973.3 1372.1,-3236.8l0 -77.2c0,-1294.5 -524.6,-2466.5 -1372.7,-3314.7 -848,-848.1 -2019.8,-1372.8 -3314.1,-1372.8 -1294.5,0 -2466.2,524.6 -3313.9,1372.5 -848.2,848.7 -1372.9,2020.8 -1372.9,3315 0,1294 524.9,2465.8 1373.1,3313.9 848.1,848.2 2020.2,1372.9 3314.4,1372.9 1294,0 2465.9,-524.8 3314,-1372.8z"/>
  <path class="fil14" d="M116257.9 173814.6c-1308.3,0 -2372.6,-1065 -2372.6,-2373.4 0,-1308.3 1064.3,-2373.4 2372.6,-2373.4 1308.4,0 2373.4,1065.1 2373.4,2373.4 0,1308.4 -1065,2373.4 -2373.4,2373.4l0 0z"/>
  <path class="fil16" d="M116257.9 173914.6c-681.4,0 -1299.6,-277.6 -1747.5,-725.7 -447.7,-447.8 -725.1,-1066.2 -725.1,-1747.7 0,-681.5 277.4,-1299.9 725.1,-1747.7 447.9,-448.1 1066.1,-725.7 1747.5,-725.7 681.8,0 1300.2,277.6 1748,725.4 447.8,447.8 725.4,1066.2 725.4,1748 0,681.8 -277.5,1300.2 -725.3,1748 -447.8,447.8 -1066.3,725.4 -1748.1,725.4zm-1606.1 -866.3c411.2,411.4 979.4,666.3 1606.1,666.3 626.6,0 1195.1,-255.2 1606.7,-666.8 411.6,-411.6 666.7,-980 666.7,-1606.6 0,-626.5 -255.2,-1195 -666.8,-1606.6 -411.6,-411.6 -980.1,-666.8 -1606.6,-666.8 -626.7,0 -1194.9,254.9 -1606.1,666.3 -411.5,411.6 -666.5,980.3 -666.5,1607.1 0,626.8 255,1195.5 666.5,1607.1z"/>
  <path class="fil14" d="M116244.6 173910.3c-1308.4,0 -2373.4,-1065.1 -2373.4,-2373.4 0,-1308.3 1065,-2373.4 2373.4,-2373.4 1308.3,0 2373.4,1065.1 2373.4,2373.4 0,1308.3 -1064.4,2373.4 -2373.4,2373.4l0 0z"/>
  <path class="fil16" d="M116244.6 174010.3c-681.8,0 -1300.2,-277.6 -1748,-725.4 -447.8,-447.8 -725.4,-1066.2 -725.4,-1748 0,-681.8 277.6,-1300.2 725.4,-1748 447.8,-447.8 1066.2,-725.4 1748,-725.4 681.8,0 1300.2,277.6 1748,725.4 447.8,447.8 725.4,1066.2 725.4,1748 0,681.7 -277.5,1300.4 -725.3,1748.2 -447.7,447.7 -1066.1,725.2 -1748.1,725.2zm-1606.6 -866.8c411.6,411.6 980.1,666.8 1606.6,666.8 626.7,0 1195.1,-255 1606.7,-666.6 411.6,-411.6 666.7,-980.2 666.7,-1606.8 0,-626.5 -255.2,-1195 -666.8,-1606.6 -411.6,-411.6 -980.1,-666.8 -1606.6,-666.8 -626.5,0 -1195,255.2 -1606.6,666.8 -411.6,411.6 -666.8,980.1 -666.8,1606.6 0,626.5 255.2,1195 666.8,1606.6z"/>
  <path class="fil14" d="M116244.6 169595.9c-1070.3,0 -1941.7,871.5 -1941.7,1941.7 0,1070.3 871.4,1941.8 1941.7,1941.8 1070.2,0 1941.7,-871.5 1941.7,-1941.8 0,-1070.2 -871.5,-1941.7 -1941.7,-1941.7l0 0z"/>
  <path class="fil16" d="M116244.6 169695.9c-507.5,0 -968.1,206.8 -1301.5,540.2 -333.5,333.3 -540.2,793.9 -540.2,1301.5 0,507.7 206.7,968.3 540,1301.8 333.6,333.2 794.2,540 1301.7,540 507.6,0 968.2,-206.7 1301.7,-540 333.3,-333.5 540,-794.2 540,-1301.8 0,-507.6 -206.7,-968.2 -540,-1301.7 -333.5,-333.3 -794.1,-540 -1301.7,-540zm-1442.9 399c369.6,-369.8 880.3,-599 1442.9,-599 562.4,0 1072.8,229.2 1442.5,598.8 370,370.1 599.2,880.5 599.2,1442.9 0,562.4 -229.2,1072.9 -598.8,1442.6 -370.1,370 -880.5,599.2 -1442.9,599.2 -562.6,0 -1073.3,-229.2 -1442.9,-598.8 -369.6,-370.1 -598.8,-880.6 -598.8,-1443 0,-562.4 229.2,-1072.8 598.8,-1442.7z"/>
  <rect class="fil14" transform="matrix(0.198043 -0.198389 0.198389 0.198043 114574 170212)" width="1733" height="15105.1"/>
  <path class="fil16" d="M117571 173062.4l202.3 -202.7 -2855.6 -2850.6 -202.3 202.7 2855.6 2850.6zm414 -132.5l-413.8 414.6c-1045,-1045 -2091.3,-2088.9 -3137.8,-3132.4l484 -485c1046.5,1043.5 2092.8,2087.4 3137.8,3132.4l-70.2 70.4z"/>
  <path class="fil14" d="M121269.5 214414.8c0,844.8 120.1,1473 579.2,1690.3 72.7,96.4 72.7,290 -23.7,362.7 -265.5,0 -700.9,96.4 -1159.3,192.8 -1497.4,362 -3308.6,652.7 -4684.4,652.7 -2897.7,0 -5626.4,-773.6 -7436.8,-2656.7 -1424.8,-1473 -2125.7,-3500.7 -2125.7,-5529.2 0,-2028.5 700.9,-4104.5 2221.4,-5673.9 1714.7,-1811.9 4346.9,-2850.2 7703,-2850.2 1134.8,0 2366,193.6 3211.5,362.7 554.8,120.1 1254.9,217.3 1544.9,217.3 24.5,723.8 192.9,1955.8 313.8,3839.6 -120.9,241.1 -652,265.6 -772.1,48.3 -531.8,-2342.3 -2245.8,-3501.5 -4636.3,-3501.5 -4250.5,0 -6302,3066.8 -6302,7172 0,1932.1 434.7,4008 1738.5,5554.4 1303.9,1545 3235.2,2052.2 4660.7,2052.2 1159.2,0 1859.4,-193.5 2149.4,-555.5 145.4,-217.3 217.3,-651.9 217.3,-1521.1l0 -869.3c0,-1714 -23.8,-1859.4 -1642.1,-2124.2l-869.2 -145.3c-168.4,-169.2 -168.4,-579.3 24.4,-700.2 942,48.2 2100.5,72.7 3766.3,72.7 1087.3,0 1908.3,-24.5 2946.6,-72.7 241.1,120.2 265.6,531 48.3,700.2l-434.7 72.7c-893.7,144.6 -1038.3,338.2 -1038.3,1811.1l0 1400.3 -0.7 -2.2z"/>
  <path class="fil15" d="M121370.2 214523c4.8,368.2 35.7,689.3 112.4,943.8 79.3,262.6 207.8,453 408.7,548.1l22.5 10.7 14.6 19.3c51.9,68.9 77.1,170.6 71,264.4 -6,93.5 -42.8,184.4 -114.2,238.2l-27 20.3 -33.2 0c-236.4,0 -622.6,81.5 -1037.3,169.1l-101.7 21.4c-792.4,191.4 -1672,363 -2528.3,482.3 -770.7,107.3 -1523.1,172.7 -2176.4,172.7 -1523.2,0 -3001.5,-212.7 -4326.8,-686.1 -1216.7,-434.6 -2305.2,-1089.5 -3181.9,-2001.5 -704.5,-728.4 -1234.6,-1591 -1592.5,-2522.1 -375.2,-975.9 -561.3,-2026.4 -561.3,-3076.2 0,-1059.3 189.2,-2132 584.1,-3140.5 369.8,-944.9 920.8,-1833.9 1665.8,-2602.9 879.5,-928.8 1996.5,-1656.7 3324.7,-2148.1 1291,-477.7 2782.3,-732.6 4449.8,-732.6 497.2,0 1014,37.2 1509.4,93 640.6,72.4 1243.1,176.1 1721.6,271.7l1.6 0.3c274.7,59.4 583.1,113 857.9,151.7 277.9,39 523.2,63.3 665.9,63.3l96.3 0 3.3 96.9c11.2,333.7 53.8,779.7 108.1,1349.7 62.7,659.1 141.4,1483.4 205.7,2486.7l1.6 26.5 -12.1 24.3c-36.3,72.3 -97.3,129.4 -171.7,170.4 -90.1,49.8 -202.7,77.3 -313.1,81.4 -111.1,4.1 -222.9,-15.6 -310.9,-59.7 -65.4,-32.7 -118.9,-79.5 -152.6,-140.3l-7.3 -13 -2.9 -13.1c-255.5,-1125.5 -788.9,-1971.2 -1541.3,-2539.5 -781.6,-590.3 -1802.7,-883.9 -2997.7,-883.9 -2007.8,0 -3515.6,692.8 -4539.7,1858.3 -1114.9,1268.9 -1662.3,3101.1 -1662.3,5213.7 0,1028.9 124.1,2098.1 438.8,3103.7 270.4,863.7 681.7,1681.4 1275.9,2386.2 573.5,679.7 1271.3,1155 1992.6,1472.6 890.2,391.9 1816.9,544.1 2591.9,544.1 565.6,0 1018.5,-46.2 1364.2,-135.5 338.4,-87.4 571.6,-215 705,-379.4 63,-96.3 111.2,-245.2 144.6,-471.2 35.2,-239 52.9,-560.2 52.9,-990.5l0 -869.3c0,-835.8 -5.5,-1288.9 -194.7,-1546.6 -187,-254.9 -581.8,-351.4 -1363.4,-479.2l-901.3 -150.5 -22.6 -22.9c-22.9,-23 -43.2,-48.9 -60.6,-76.7 -65,-104.6 -96.3,-244.1 -91.2,-375.9 5.3,-136.9 49.8,-270.5 135.4,-355.7 18,-17.8 37.7,-33.9 58.8,-47l26.2 -16.4 31.6 1.6c472.1,24.1 996.6,42.4 1608.6,54.4 602,11.9 1307.4,17.9 2152.6,17.9 552.7,0 1028.8,-6 1489.4,-17.9 467.5,-12 932.3,-30.3 1452.9,-54.4l26 -1.2 22.8 11.3c57.1,28.4 105,69.6 143.4,118.8 62.6,80.3 98.7,182.6 107.2,286.9 8.2,103.2 -10.1,210.5 -55.9,302.6 -30.5,61.3 -73.6,116.3 -129.6,159.9l-20.3 15.8 -459.3 76.8c-416.8,67.3 -656.9,143 -784.8,359.8 -136.4,231.3 -169.9,634.6 -169.9,1352.9l0 1506.3zm-79 1000.8c-90.5,-300.4 -121.7,-677.9 -121.7,-1109l0 -642.6 0.7 2.2 0 -757.7c0,-754.5 39,-1184.8 198.1,-1454.5 167.6,-284 446.9,-377.7 923.8,-454.9l407.6 -68.3c22.5,-21.5 41,-47.6 55.4,-76.5 29.5,-59.2 41.2,-129.6 35.7,-198 -5.4,-67.3 -27.4,-131.7 -65,-179.9 -15.4,-19.7 -33.9,-37.2 -55.3,-51 -506,23.4 -962.9,41.2 -1428.2,53.1 -481.2,12.4 -959.5,18.7 -1494,18.7 -820.6,0 -1527.7,-6.3 -2156.6,-18.7 -603.1,-11.8 -1118,-29.5 -1578.4,-52.6l-2.2 2.2c-48,47.8 -73.4,131.5 -76.8,221.3 -3.6,95.2 17.2,193.3 61.2,263.5l13.6 19.3 834.1 139.4c836.2,136.8 1262.8,245.6 1492,558 227.2,309.4 233.7,786.5 233.7,1664.6l0 869.3c0,438.9 -18.5,769.7 -55.3,1019.5 -38.4,259.7 -98.3,436 -179.2,557.1l-5.1 7c-160,199.8 -429.1,351.3 -812.9,450.5 -363.5,93.9 -833.1,142.5 -1414.2,142.5 -798.6,0 -1753.9,-157 -2672.3,-561.3 -746.9,-328.9 -1469.8,-821.6 -2064.6,-1526.4 -612.6,-726.6 -1036.2,-1567.9 -1314.1,-2455.8 -321.4,-1027 -448.2,-2116.5 -448.2,-3163.1 0,-2159.8 563.8,-4037.8 1712.3,-5344.9 1062.1,-1208.7 2620.2,-1927.1 4689.7,-1927.1 1238.6,0 2300.7,307.2 3118.1,924.5 786.2,593.8 1343.8,1472.8 1611.8,2639.2 13.6,18.7 34.8,34.8 60.9,47.9 57.7,28.9 135.2,41.7 214.9,38.7 80.2,-3 161,-22.3 224.1,-57.2 32.2,-17.7 58.9,-39.3 77,-64.1 -64.4,-995.9 -141.3,-1803.3 -202.9,-2450 -49.7,-521.9 -89.6,-940.5 -105.1,-1268 -151.5,-7.5 -363.7,-30.3 -597.5,-63.1 -283,-39.8 -596.9,-94.2 -872.7,-153.9 -475.3,-95 -1072.1,-197.8 -1702.8,-269 -486.9,-54.9 -995.9,-91.4 -1487.6,-91.4 -1643.7,0 -3111.9,250.6 -4381,720.2 -1300.2,481 -2392,1192 -3249.7,2098.4l-0.8 1.1c-725.4,748.8 -1262.2,1615.1 -1622.8,2536.5 -385.4,984.3 -570.1,2032.3 -570.1,3067.9 0,1027.3 181.5,2053.7 547.3,3005.2 348.2,906.1 864.3,1745.6 1550.3,2454.9 853.8,888.1 1916.1,1526.7 3105.3,1951.5 1302.5,465.3 2757.9,674.3 4259.6,674.3 646.4,0 1389.1,-64.5 2149,-170.3 851.4,-118.6 1725.5,-289.2 2512,-479.3l104.8 -22.2c402.5,-84.9 778.9,-164.4 1034.4,-172.9 10.8,-18.5 17,-44.2 18.7,-71.9 2.7,-41.3 -4.6,-83.7 -20.7,-114.6 -242.4,-125.2 -396,-352.6 -488.3,-658.3z"/>
 </g>
</svg>
