<?xml version="1.0" encoding="UTF-8"?>
<svg id="Camada_1" data-name="Camada 1" xmlns="http://www.w3.org/2000/svg" viewBox="-5.28 -6.52 494.81 494.81">
  <defs>
    <style>
      .cls-1, .cls-2 {
        fill-rule: evenodd;
      }

      .cls-1, .cls-2, .cls-3 {
        stroke: #001e30;
        stroke-miterlimit: 22.93;
        stroke-width: 6px;
      }

      .cls-1, .cls-3 {
        fill: #35a6de;
      }

      .cls-2 {
        fill: #172b54;
      }
    </style>
  </defs>
  <rect class="cls-3" x="136.88" y="76.25" width="44.83" height="137.34" transform="translate(-55.74 156.53) rotate(-45.39)"/>
  <path class="cls-1" d="M393.04,375.54c-11.62,11.77-11.49,30.73.29,42.35,11.77,11.62,30.73,11.49,42.35-.29,11.62-11.77,11.49-30.73-.29-42.35-11.77-11.62-30.73-11.49-42.35.29Z"/>
  <path class="cls-1" d="M92,78.53c-10.21,10.35-10.24,26.86-.07,36.89,10.17,10.03,26.68,9.78,36.89-.57,10.21-10.35,10.24-26.86.07-36.89-10.17-10.03-26.68-9.78-36.89.57Z"/>
  <path class="cls-1" d="M116.14,90.49c-2.28-2.25-4.25-4.71-5.89-7.33-1.66,2.78-3.67,5.4-6.04,7.8-2.25,2.28-4.71,4.25-7.33,5.89,2.78,1.66,5.4,3.67,7.8,6.04,17,16.78,16.38,44.98-1.39,62.99-17.77,18.01-45.97,19.02-62.97,2.24-17-16.77-16.38-44.98,1.39-62.99,3.04-3.08,6.38-5.66,9.92-7.74-3.71-2.07-7.23-4.68-10.42-7.83-18.01-17.77-19.02-45.97-2.24-62.97,16.77-17,44.98-16.38,62.99,1.39,3.08,3.04,5.66,6.38,7.74,9.92,2.07-3.71,4.68-7.23,7.83-10.42,17.77-18.01,45.97-19.02,62.97-2.24,17,16.77,16.38,44.98-1.39,62.99-17.77,18.01-45.97,19.02-62.97,2.24Z"/>
  <path class="cls-1" d="M95.58,97.07c.09,13.7-17.49,24.92-39.26,25.07-21.78.15-39.51-10.84-39.6-24.54-.09-13.7,17.49-24.92,39.26-25.07,21.78-.15,39.51,10.84,39.6,24.54Z"/>
  <path class="cls-1" d="M110.79,111.52c13.7-.09,24.92,17.49,25.07,39.26.15,21.78-10.84,39.51-24.54,39.6-13.7.09-24.92-17.49-25.07-39.26-.15-21.78,10.84-39.51,24.54-39.6Z"/>
  <path class="cls-1" d="M125.24,96.31c-.09-13.7,17.49-24.92,39.26-25.07,21.78-.15,39.51,10.84,39.6,24.54.09,13.7-17.49,24.92-39.26,25.07-21.78.15-39.51-10.84-39.6-24.54Z"/>
  <path class="cls-1" d="M110.03,81.86c-13.7.09-24.92-17.49-25.07-39.26-.15-21.78,10.84-39.51,24.54-39.6,13.7-.09,24.92,17.49,25.07,39.26.15,21.78-10.84,39.51-24.54,39.6Z"/>
  <path class="cls-2" d="M87.62,74.2c12.42-12.59,32.69-12.73,45.28-.3,12.59,12.42,12.73,32.69.31,45.28-12.42,12.59-32.69,12.73-45.28.3-12.59-12.42-12.73-32.69-.3-45.28Z"/>
  <rect class="cls-3" x="230.95" y="174.25" width="44.83" height="126.96" transform="translate(-93.81 251.12) rotate(-45.39)"/>
  <rect class="cls-3" x="326.16" y="261.4" width="44.83" height="140.55" transform="translate(-132.34 346.86) rotate(-45.39)"/>
  <polygon class="cls-1" points="332.83 347.63 324.65 355.92 314.14 345.55 302.04 357.8 312.56 368.18 288.39 392.68 277.87 382.3 265.78 394.56 276.3 404.93 272.62 408.66 267.66 413.68 257.15 403.31 245.06 415.56 255.57 425.94 264.97 435.21 282.01 417.93 306.75 442.34 289.7 459.61 298.62 468.41 299.1 468.89 309.13 478.78 321.22 466.53 311.19 456.63 316.15 451.61 316.15 451.61 319.83 447.88 329.86 457.78 341.95 445.52 331.92 435.63 356.09 411.13 366.12 421.02 378.21 408.77 368.18 398.87 376.37 390.58 332.83 347.63"/>
  <rect class="cls-3" x="269.44" y="125.15" width="137.34" height="44.83" transform="translate(-4.4 284.61) rotate(-45.39)"/>
  <path class="cls-1" d="M107.49,381.31c-11.77-11.62-30.73-11.49-42.35.29-11.62,11.77-11.49,30.73.29,42.35,11.77,11.62,30.73,11.49,42.35-.29,11.62-11.77,11.49-30.73-.29-42.35Z"/>
  <path class="cls-1" d="M404.5,80.27c-10.34-10.21-26.86-10.24-36.89-.07-10.03,10.17-9.78,26.68.57,36.89,10.34,10.21,26.86,10.24,36.89.07,10.03-10.17,9.78-26.68-.57-36.89Z"/>
  <path class="cls-1" d="M392.54,104.41c2.25-2.28,4.71-4.25,7.33-5.89-2.78-1.66-5.4-3.67-7.8-6.04-2.28-2.25-4.25-4.71-5.89-7.33-1.66,2.78-3.67,5.4-6.04,7.8-16.78,17-44.98,16.38-62.99-1.39s-19.02-45.97-2.24-62.97c16.77-17,44.98-16.38,62.99,1.39,3.08,3.04,5.66,6.38,7.74,9.92,2.07-3.71,4.68-7.23,7.83-10.42,17.77-18.01,45.97-19.02,62.97-2.24,17,16.77,16.38,44.98-1.39,62.99-3.04,3.08-6.38,5.66-9.92,7.74,3.71,2.07,7.23,4.68,10.42,7.83,18.01,17.77,19.02,45.97,2.24,62.97-16.77,17-44.98,16.38-62.99-1.39-18.01-17.77-19.02-45.97-2.24-62.97Z"/>
  <path class="cls-1" d="M385.96,83.85c-13.7.09-24.92-17.49-25.07-39.26-.15-21.78,10.84-39.51,24.54-39.6,13.7-.09,24.92,17.49,25.07,39.26.15,21.78-10.84,39.51-24.54,39.6Z"/>
  <path class="cls-1" d="M371.51,99.06c.09,13.7-17.49,24.92-39.26,25.07-21.78.15-39.51-10.84-39.6-24.54-.09-13.7,17.49-24.92,39.26-25.07,21.78-.15,39.51,10.84,39.6,24.54Z"/>
  <path class="cls-1" d="M386.71,113.51c13.7-.09,24.92,17.49,25.07,39.26.15,21.78-10.84,39.51-24.54,39.6-13.7.09-24.92-17.49-25.07-39.26-.15-21.78,10.84-39.51,24.54-39.6Z"/>
  <path class="cls-1" d="M401.16,98.3c-.09-13.7,17.49-24.92,39.26-25.07,21.78-.15,39.51,10.84,39.6,24.54.09,13.7-17.49,24.92-39.26,25.07-21.78.15-39.51-10.84-39.6-24.54Z"/>
  <path class="cls-2" d="M408.82,75.89c12.59,12.42,12.73,32.69.3,45.28-12.42,12.59-32.69,12.73-45.28.31-12.59-12.42-12.73-32.69-.3-45.28,12.42-12.59,32.69-12.73,45.28-.31Z"/>
  <rect class="cls-3" x="181.81" y="219.22" width="126.96" height="44.83" transform="translate(-98.99 246.54) rotate(-45.39)"/>
  <rect class="cls-3" x="81.08" y="314.43" width="140.55" height="44.83" transform="translate(-194.73 208.01) rotate(-45.39)"/>
  <polygon class="cls-1" points="135.4 321.1 127.1 312.92 137.48 302.4 125.22 290.31 114.85 300.83 90.35 276.66 100.72 266.14 88.47 254.05 78.09 264.56 74.36 260.89 69.34 255.93 79.72 245.42 67.46 233.32 57.09 243.84 47.81 253.24 65.09 270.28 40.69 295.02 23.41 277.97 14.62 286.89 14.14 287.37 4.24 297.4 16.5 309.49 26.39 299.46 31.42 304.42 31.41 304.42 35.14 308.1 25.25 318.12 37.5 330.22 47.4 320.19 71.9 344.36 62 354.39 74.26 366.48 84.15 356.45 92.45 364.64 135.4 321.1"/>
</svg>