<?xml version="1.0" encoding="UTF-8"?>
<svg id="Camada_1" xmlns="http://www.w3.org/2000/svg" version="1.1" viewBox="0 0 484.34 519.1">
  <!-- Generator: Adobe Illustrator 30.6.0, SVG Export Plug-In . SVG Version: 2.1.4 Build 109)  -->
  <defs>
    <style>
      .st0 {
        fill: none;
      }

      .st1 {
        fill: none;
        stroke: #00B0FF;
        stroke-linecap: round;
        stroke-linejoin: round;
        stroke-width: 12px;
      }
    </style>
  </defs>
  <g id="Objeto_generativo">
    <g>
      <path class="st0" d="M464.08,115.06c-.22.18-.55.26-.53.98-6.75,2.26-13.94,6.27-21.7,6.24l-17.87-.08c-3.83-.02-7.39-2.03-10.24-3.39l-2.37-.67-6.72,8.18c-.54.65-1.04,1.72-1.94,2.33l1.63,1.97c7.22,11.37,10,25.55,7.67,39.42l-3.21,9.25c-1.14,8.31-7.22,16.78-15.7,18.73-6.53,1.5-11.98-.62-16.58-4.47-9.83-8.22-12.94-19.36-14.66-30.91-1.92.19-1.46,2.09-2.54,3.39l-80.8,95.94,1.93,1.9,119.77,144.16c.18.22.28.56.52.63.51.16,1.25.11.98.99,13.44,1.69,23.88,11.21,26.85,24.39,2.8,12.4-2.17,26.15-13.54,32.87-5.86,3.46-11.6,4.25-18.17,4.04-17.45-.57-29.62-15.38-29.12-32.4-.79.22-.89-.33-.81-.93-3.01-1.31-4.43-4.27-6.45-6.68-.6.38-1.45.59-1.91,1.25-1.31,1.89-5.99,3.24-5.84,6.34l6.23,11.38c-3.43,3.9-7.75,7.48-12.01,10.32-5.8-2.97-7.81-12.26-12.89-7.77l-8.97,7.94c-4.74,4.19-10.24,7.24-14.3,12.43l7.54,10.8c-3.27,4.34-8.19,8.72-13.04,10.85l-8.09-8.53c-3.4-1.39-7.78,3.55-9.5,5.91l6.54,10.36c.74,2.87-9.03,10.83-11.13,10.88-1.32.03-3.27-1.32-4.5-2.78l-11.4-13.64c-.9-1.08-2.06-2.57-1.87-3.57.58-3.14,11.53-8.49,17.39-16.25l-20.7-25.79c-.85-1.05-3.2-.46-4.03.26l-12.24,10.59c-8,6.92-10.25-7.54-23.77-17.49l15.21-13.54c2.66,4.82,4.22,8.88,8.49,12.28,3.38-1.66,7.14-4.28,9.09-7.95l-7.74-10.67c2.95-4.93,7.85-8.65,12.76-11.55l8.88,11.56,28.07-23.63c-1.94-4.1-7.63-6-8.22-10.57-.36-2.83,9.53-10.82,11.74-10.68,3.77.23,6.69,9.06,10.97,8.51l6.68-4.01c.69-.41,1.2-1.27,1.8-1.9l-69.46-82.51-1.95-1.92.59-.6-.59.6-119.58,141.94c-.18,16.29-10.74,28.92-26.24,31.02-15.38,2.08-29.38-5.86-33.8-20.83-4.75-16.06,2.84-33.24,19.04-38.49,2.87-.93,5.85-.85,7.88-2.76l.34-1.23c.74-2.69,3.53-4.26,5.31-6.4l41.04-49.4.54-.63,76.14-90.74c-.84-.43-1.93-.65-2.49-1.31l-78.82-92.22c-.7-.82-2.02-1.11-3.14-1.66l.92-2.72-.92,2.72c-.85,10.18-4.78,19.69-12.43,27.31-8.47,8.43-22.06,8.15-29-2.08-2.04-3-4.52-6.32-5.6-9.43l-1.87.48c-15.56,5.6-33.13,3.26-46.06-8.61-15.34-14.08-17.84-37.34-7.52-54.44l1.25-1.5-7.38-6.34c-7.64-6.56-10.26-17-4.13-25,4.38-5.73,10.1-8.1,16.04-10.3l-1.37-1.91c-5.53-12.36-4.52-26.81,2.47-38.71,12.2-20.75,38.57-26.83,58.97-15.53l2.28,1c3.01-1.92,4.88-4.98,7.06-7.91,8.67-8.3,21.69-8.45,28.55,1.09,2.92,4.05,5.11,7,5.1,11.65l2.85-.78c21.34-9.75,47.71.3,56.55,22.64,5.32,13.45,3.73,27.43-2.67,39.54l-.92,2.38-.66-.88.66.88c5.95,3.62,12.2,8.7,13.81,15.85,2.07,9.18-1.63,16.09-9.28,20.74-9.72,5.9-20.33,7.36-31,6.82.72,1.34,1.44,2.43,2.51,3.7l73.95,87.32c.43.51,1.48.48,2.28.72l73.54-87.27c.86-1.03,2.43-3.03,1.25-4.21-3.44-.22-6.39,1.55-10.18.19-6.57-2.34-13.68-3.36-19.4-7.84-4.96-3.89-8.89-8.13-8.81-14.41.13-10.41,4.68-14.51,13.85-20.28l-.65-2.93c-6.57-12.6-8.16-27.52-2.18-40.92,7.4-16.59,23.2-26.26,41-25.07,5.4.36,10.6.43,14.98,3.23.65.41,1.61.3,2.52.51,1.4-9.72,8.33-17.54,18.09-18.61s17.32,5.53,21.69,14.24l2.1-.96c12.81-7.88,29.32-8.68,41.87-2.48,14.83,7.33,24.19,21.58,24.35,36.93.08,7.22-.29,13.17-2.46,19.39-.2.56-.86,1-1.32,1.33,5.34,2.13,10.79,3.95,14.82,8.85,6.92,8.42,5.48,19.93-3.57,26.25l-6.34,5.3Z"/>
      <path class="st0" d="M142.82,351.06l-.54.63-41.04,49.4c-.96-.32-1.39-1.29-2.11-1.91l-4.89-4.26c-4.34-3.78-6.03,5.25-12.47,8.32l-13.49-10.25,6.85-7.5c1.99-2.18,2.04-5.37-.48-7.3-8.03-6.15-15.58-12.11-22.53-19.29-.72-.74-1.96-.11-2.27.31l-.55.74.55-.74-.55.74c-2.28,3.06-4.21,6.63-8.02,9.07-5.01-2.33-8.81-6.37-12.76-10.05,1.6-5.81,8.04-8.87,7.18-12.3-.69-2.76-6.25-6.46-8-6.18-3.81.59-6.99,9.18-10.16,8.21-4.27-1.31-7.51-5.36-10.97-8.16s8.7-15.04,16.56-22.9l17.34,13.96c2.29,1.84,4.98-2.39,6.4-4.03l18.32-21.2-16.41-13.98c-1.76-1.5-1.69-4.03-.28-5.69l15.49-18.33c8.35,5.49,15.31,9.93,11.26,14.28l-6.9,7.42c2.36,3.16,5.73,6.26,9.58,7.63l9.84-9.27c4.68,2.34,9.64,6.21,12.91,10.42l-9.91,11.47,28.8,22.58,9.15-11.45,13.86,11.73-7.27,8.16c-.86.97-2.3,3.02-1.01,4.1l5.66,4.73,2.32,1.51.54-.63Z"/>
      <path class="st0" d="M408.8,179.29l3.21-9.25c2.34-13.87-.44-28.05-7.67-39.42l-1.63-1.97c.9-.61,1.4-1.68,1.94-2.33l6.72-8.18,2.37.67c2.85,1.36,6.41,3.37,10.24,3.39l17.87.08c7.76.03,14.94-3.98,21.7-6.24-.02-.71.31-.79.53-.98-.22.18-.55.26-.53.98.56.31,1.33.83,1.65,1.54,3.27,7.26,6.12,14.75,5.95,23.05-.27,12.96-5.13,24.06-15.23,32.86-12.11,10.54-30.04,12.88-44.57,7.17l-2.55-1.36Z"/>
    </g>
    <g>
      <line class="st1" x1="189.65" y1="298.35" x2="222.38" y2="324.89"/>
      <path class="st1" d="M97.87,19.06c-20.41-11.3-46.78-5.22-58.97,15.53-7,11.9-8.01,26.35-2.47,38.71"/>
      <path class="st1" d="M398.45,70.84c4.03-10.5,5.09-22.25,3.15-33.67-1.12-6.57-4.36-11.51-6.97-16.72-4.37-8.71-11.52-15.35-21.69-14.24s-16.69,8.89-18.09,18.61l-2.65,6.64c-3.51,14.73-.35,30.25,7.67,42.49"/>
      <path class="st1" d="M322.48,136.55l-73.54,87.27-29.98,36.49-76.14,90.74-.54.63-41.04,49.4c-1.78,2.14-4.57,3.72-5.31,6.4l-.32,1.26"/>
      <path class="st1" d="M97.62,70.84c-6.79-17.83-4.71-33.34,2.53-50.78,3.01-1.92,4.88-4.98,7.06-7.91,8.67-8.3,21.69-8.45,28.55,1.09,2.92,4.05,5.11,7,5.1,11.65-.01,2.96,3.04,5.66,3.56,8.88,2.3,14.17-.08,28.97-8.31,40.1"/>
      <path class="st1" d="M359.31,166.02l-80.8,95.94-29.61,35.27-.59.6-119.58,141.94c-.18,16.29-10.74,28.92-26.24,31.02-15.38,2.08-29.38-5.86-33.8-20.83-4.75-16.06,2.84-33.24,19.04-38.49,2.87-.93,5.85-.85,7.88-2.76"/>
      <path class="st1" d="M197.59,86.3c6.41-12.11,7.99-26.09,2.67-39.54-8.84-22.35-35.21-32.39-56.55-22.64"/>
      <path class="st1" d="M352.33,24.31c-4.37-2.8-9.58-2.87-14.98-3.23-17.79-1.19-33.6,8.48-41,25.07-5.98,13.4-4.38,28.33,2.18,40.92"/>
      <path class="st1" d="M460.49,73.33c2.17-6.22,2.53-12.17,2.46-19.39-.16-15.35-9.53-29.61-24.35-36.93-12.55-6.2-29.06-5.4-41.87,2.48"/>
      <path class="st1" d="M250.26,299.76l69.46,82.51,40.76,48.67c2.02,2.41,3.44,5.37,6.45,6.68"/>
      <path class="st1" d="M86.38,79.66c-15.15-8.18-32.41-10.42-48.58-4.44-5.94,2.2-11.66,4.57-16.04,10.3-6.12,8.01-3.51,18.44,4.13,25l7.38,6.34c2.01,1.73,4.55,1.64,7.07,2.66,13.33,5.34,31.07,5.43,43.61-.15"/>
      <path class="st1" d="M409.8,79.9c14.85-9.21,33.13-11.71,49.36-5.24,5.34,2.13,10.79,3.95,14.82,8.85,6.92,8.42,5.48,19.93-3.57,26.25l-6.34,5.3c-.22.18-.55.26-.53.98-6.75,2.26-13.94,6.27-21.7,6.24l-17.87-.08c-3.83-.02-7.39-2.03-10.24-3.39"/>
      <path class="st1" d="M146.13,85.33c16.18-6.77,34.27-4.97,49.88,2.47l.66.88c5.95,3.62,12.2,8.7,13.81,15.85,2.07,9.18-1.63,16.09-9.28,20.74-9.72,5.9-20.33,7.36-31,6.82-3.32-.17-6.37.36-10.21-1.19-5.73-2.31-12.17-2.6-17.04-6.02"/>
      <path class="st1" d="M404.66,126.32l6.72-8.18c2.82-6.62,4.63-14.47,3.08-21.35-2.47-10.93-7.99-19.64-18.33-24.6-16.98-8.14-38.15.25-44.88,16.81-6.1,15.02-1.46,30.46,10.93,40.1,11.47,8.91,27.75,8.24,40.53-.44.9-.61,1.4-1.68,1.94-2.33Z"/>
      <path class="st1" d="M147.34,99.27c.75,11.32-2.5,20.35-10.62,27.85-12.66,11.68-32.44,10.99-44.65-.45-12.27-11.49-14.53-31.22-3.38-44.86,8.69-10.63,22.16-14.8,34.66-11.42,12.83,3.46,23.08,15.09,23.99,28.88Z"/>
      <path class="st1" d="M350.01,84.93c-1.97.13-3.91-.73-6.1-1.36-15.52-4.42-31.6-1.83-44.72,6.42-9.17,5.77-13.72,9.87-13.85,20.28-.08,6.29,3.85,10.52,8.81,14.41,5.72,4.49,12.83,5.5,19.4,7.84,3.8,1.36,6.74-.41,10.18-.19,10.56.67,21.46-1.95,30.09-8.47"/>
      <path class="st1" d="M465.2,117.57c3.27,7.26,6.12,14.75,5.95,23.05-.27,12.96-5.13,24.06-15.23,32.86-12.11,10.54-30.04,12.88-44.57,7.17"/>
      <path class="st1" d="M32.02,118.35c-10.33,17.1-7.82,40.36,7.52,54.44,12.93,11.86,30.5,14.2,46.06,8.61"/>
      <line class="st1" x1="172.71" y1="135.78" x2="246.66" y2="223.1"/>
      <path class="st1" d="M93.19,130.83c-10.25,12.36-11.01,34.9-5.72,50.09,1.08,3.1,3.56,6.43,5.6,9.43,6.94,10.23,20.53,10.51,29,2.08,7.65-7.62,11.59-17.12,12.43-27.31l.92-2.72c1.48-4.36.16-9.1-.42-14.05-.61-5.22-.53-10.38-3.15-14.53"/>
      <path class="st1" d="M404.35,130.62c7.22,11.37,10,25.55,7.67,39.42l-3.21,9.25c-1.14,8.31-7.22,16.78-15.7,18.73-6.53,1.5-11.98-.62-16.58-4.47-9.83-8.22-12.94-19.36-14.66-30.91-1.43-9.61-1.36-19.71,3.15-28.83"/>
      <line class="st1" x1="137.65" y1="166.78" x2="216.47" y2="259"/>
      <line class="st1" x1="222.39" y1="198.02" x2="189.64" y2="223.69"/>
      <line class="st1" x1="274.52" y1="197.98" x2="306.4" y2="224.55"/>
      <polyline class="st1" points="280.44 263.86 400.21 408.01 400.73 408.65"/>
      <line class="st1" x1="306.4" y1="298.34" x2="274.52" y2="324.9"/>
      <path class="st1" d="M139.97,350.18l-5.66-4.73c-1.29-1.08.15-3.13,1.01-4.1l7.27-8.16-13.86-11.73-9.15,11.45-28.8-22.58,9.91-11.47c-3.27-4.22-8.23-8.08-12.91-10.42l-9.84,9.27c-3.85-1.36-7.21-4.47-9.58-7.63l6.9-7.42c4.05-4.35-2.91-8.79-11.26-14.28l-15.49,18.33c-1.41,1.66-1.48,4.19.28,5.69l16.41,13.98-18.32,21.2c-1.42,1.64-4.11,5.87-6.4,4.03l-17.34-13.96c-7.86,7.86-19.92,20.17-16.56,22.9s6.71,6.86,10.97,8.16c3.17.97,6.35-7.62,10.16-8.21,1.75-.27,7.31,3.43,8,6.18.86,3.42-5.57,6.49-7.18,12.3,3.95,3.68,7.75,7.72,12.76,10.05,3.81-2.44,5.74-6.01,8.02-9.07l.55-.74c.31-.42,1.56-1.05,2.27-.31,6.95,7.17,14.5,13.14,22.53,19.29,2.52,1.93,2.46,5.12.48,7.3l-6.85,7.5,13.49,10.25c6.44-3.07,8.13-12.1,12.47-8.32l4.89,4.26"/>
      <path class="st1" d="M366.91,437.63l.83.91c-.5,17.02,11.67,31.83,29.12,32.4,6.57.21,12.31-.58,18.17-4.04,11.36-6.72,16.33-20.47,13.54-32.87-2.98-13.19-13.42-22.7-26.85-24.39l-.98-.99"/>
      <line class="st1" x1="400.73" y1="408.65" x2="366.91" y2="437.63"/>
      <line class="st1" x1="95.62" y1="408.75" x2="128.52" y2="436.7"/>
      <path class="st1" d="M317.92,384.17l-6.68,4.01c-4.28.56-7.2-8.28-10.97-8.51-2.21-.13-12.1,7.85-11.74,10.68.59,4.58,6.28,6.47,8.22,10.57l-28.07,23.63-8.88-11.56c-4.92,2.9-9.81,6.62-12.76,11.55l7.74,10.67c-1.95,3.67-5.71,6.3-9.09,7.95-4.26-3.4-5.83-7.45-8.49-12.28l-15.21,13.54c13.52,9.94,15.77,24.41,23.77,17.49l12.24-10.59c.83-.71,3.18-1.31,4.03-.26l20.7,25.79c-5.85,7.76-16.81,13.11-17.39,16.25-.18,1,.97,2.49,1.87,3.57l11.4,13.64c1.22,1.47,3.18,2.82,4.5,2.78,2.1-.05,11.88-8.02,11.13-10.88l-6.54-10.36c1.72-2.36,6.1-7.29,9.5-5.91l8.09,8.53c4.85-2.13,9.77-6.51,13.04-10.85l-7.54-10.8c4.05-5.2,9.56-8.24,14.3-12.43l8.97-7.94c5.08-4.49,7.09,4.81,12.89,7.77,4.26-2.84,8.58-6.42,12.01-10.32l-6.23-11.38c-.15-3.1,4.53-4.45,5.84-6.34"/>
    </g>
  </g>
</svg>