<?xml version="1.0" encoding="UTF-8"?>
<!DOCTYPE svg PUBLIC "-//W3C//DTD SVG 1.1//EN" "http://www.w3.org/Graphics/SVG/1.1/DTD/svg11.dtd">
<!-- Creator: CorelDRAW (Versão OEM) -->
<svg xmlns="http://www.w3.org/2000/svg" xml:space="preserve" width="210mm" height="297mm" version="1.1" style="shape-rendering:geometricPrecision; text-rendering:geometricPrecision; image-rendering:optimizeQuality; fill-rule:evenodd; clip-rule:evenodd"
viewBox="0 0 210000 297000"
 xmlns:xlink="http://www.w3.org/1999/xlink"
 xmlns:xodm="http://www.corel.com/coreldraw/odm/2003">
 <defs>
  <style type="text/css">
   <![CDATA[
    .str0 {stroke:#1E2A50;stroke-width:1000;stroke-miterlimit:22.9256}
    .str1 {stroke:#183044;stroke-width:250;stroke-miterlimit:22.9256}
    .fil4 {fill:none}
    .fil2 {fill:url(#id0)}
    .fil7 {fill:url(#id1)}
    .fil0 {fill:url(#id2)}
    .fil5 {fill:url(#id3)}
    .fil6 {fill:url(#id4)}
    .fil1 {fill:url(#id5)}
    .fil8 {fill:url(#id6)}
    .fil3 {fill:url(#id7)}
   ]]>
  </style>
  <linearGradient id="id0" gradientUnits="userSpaceOnUse" x1="120853.6" y1="110554.5" x2="145189" y2="129800.9">
   <stop offset="0" style="stop-opacity:1; stop-color:#373435"/>
   <stop offset="0.156863" style="stop-opacity:1; stop-color:#9A9999"/>
   <stop offset="0.470588" style="stop-opacity:1; stop-color:#FEFEFE"/>
   <stop offset="1" style="stop-opacity:1; stop-color:#665A5A"/>
  </linearGradient>
  <linearGradient id="id1" gradientUnits="userSpaceOnUse" xlink:href="#id0" x1="66953.9" y1="131566.2" x2="87447.6" y2="108271.5">
  </linearGradient>
  <linearGradient id="id2" gradientUnits="userSpaceOnUse" x1="80819.6" y1="143356.7" x2="116273.7" y2="173994.1">
   <stop offset="0" style="stop-opacity:1; stop-color:#BDBFC1"/>
   <stop offset="0.137255" style="stop-opacity:1; stop-color:#BDBFC1"/>
   <stop offset="0.419608" style="stop-opacity:1; stop-color:#BDBFC1"/>
   <stop offset="0.458824" style="stop-opacity:0.54902; stop-color:#54585E"/>
   <stop offset="0.54902" style="stop-opacity:1; stop-color:#FEFEFE"/>
   <stop offset="1" style="stop-opacity:1; stop-color:#665A5A"/>
  </linearGradient>
  <linearGradient id="id3" gradientUnits="userSpaceOnUse" x1="100533.1" y1="172238.5" x2="130050.2" y2="139409.7">
   <stop offset="0" style="stop-opacity:1; stop-color:#BDBFC1"/>
   <stop offset="0.105882" style="stop-opacity:1; stop-color:#BDBFC1"/>
   <stop offset="0.321569" style="stop-opacity:1; stop-color:#BDBFC1"/>
   <stop offset="0.419608" style="stop-opacity:1; stop-color:#848688"/>
   <stop offset="0.509804" style="stop-opacity:1; stop-color:#FEFEFE"/>
   <stop offset="1" style="stop-opacity:1; stop-color:#665A5A"/>
  </linearGradient>
  <radialGradient id="id4" gradientUnits="userSpaceOnUse" gradientTransform="matrix(-1.16601 -2.44534 2.31355 -0.761613 -110556 384040)" cx="73232.7" cy="116348.8" r="8983.6" fx="73232.7" fy="116348.8">
   <stop offset="0" style="stop-opacity:1; stop-color:#665A5A"/>
   <stop offset="0.701961" style="stop-opacity:1; stop-color:#FEFEFE"/>
   <stop offset="0.901961" style="stop-opacity:1; stop-color:#9A9999"/>
   <stop offset="1" style="stop-opacity:1; stop-color:#373435"/>
  </radialGradient>
  <radialGradient id="id5" gradientUnits="userSpaceOnUse" gradientTransform="matrix(2.37175 -1.28739 0.878245 2.26176 -289208 31086)" xlink:href="#id4" cx="137066.5" cy="115214" r="8662.9" fx="137066.5" fy="115214">
  </radialGradient>
  <radialGradient id="id6" gradientUnits="userSpaceOnUse" gradientTransform="matrix(1.35877 -0.866506 1.00323 1.32687 -145236 26376)" cx="74940.7" cy="117969.2" r="6954.8" fx="74940.7" fy="117969.2">
   <stop offset="0" style="stop-opacity:1; stop-color:#BDBFC1"/>
   <stop offset="0.529412" style="stop-opacity:1; stop-color:#FEFEFE"/>
   <stop offset="0.843137" style="stop-opacity:1; stop-color:#9A9999"/>
   <stop offset="1" style="stop-opacity:1; stop-color:#373435"/>
  </radialGradient>
  <radialGradient id="id7" gradientUnits="userSpaceOnUse" gradientTransform="matrix(0.936391 1.31151 -1.27252 1.07127 158476 -185233)" xlink:href="#id6" cx="134834.9" cy="117797.2" r="6955" fx="134834.9" fy="117797.2">
  </radialGradient>
 </defs>
 <g id="Camada_x0020_1">
  <metadata id="CorelCorpID_0Corel-Layer"/>
  <g id="_2397785905216">
   <path class="fil0 str0" d="M74902.5 182682.3c-1763.5,72.9 -3491.3,859.1 -4715.3,2317.8 -2309,2751.7 -1950.1,6854.1 801.7,9163.2 2751.7,2309 6854.2,1950 9163.1,-801.7 1224,-1458.7 1698.2,-3296.8 1463.8,-5046.2l373.1 313.1 19622 -23384.7 17724.7 -21123.5 14872.3 -17724.2c321.3,2402.9 1542.6,4740.9 3601.2,6468.3 4210.6,3533.1 10327.4,3175.3 13661.9,-798.7 3334.7,-3974.1 2624.9,-10060.2 -1585.6,-13593.2 -746,-626 -1552.4,-1129.4 -2392.1,-1512.6 729.7,-512.4 1408.2,-1129.6 2012,-1849.2 3532.9,-4210.5 3175.3,-10327.2 -798.7,-13661.8 -3974.2,-3334.8 -10060.1,-2624.9 -13593.1,1585.6 -626.1,746.1 -1129.5,1552.4 -1512.6,2392.1 -512.4,-729.7 -1129.7,-1408.3 -1849.2,-2012 -4210.5,-3533.1 -10327.3,-3175.3 -13661.7,798.6 -3334.8,3974.3 -2625.1,10060.2 1585.4,13593.3 2058.6,1727.4 4573,2524 6995.1,2423.3l-14794.3 17631.3 -17724.7 21123.5 -9811.1 11692.4 -1938.6 -1626.8 2062.5 -2458 -2864.4 -2403.5 -2062.5 2458.1 -5726.9 -4805.5 2062.5 -2458 -2864.3 -2403.5 -2062.6 2458 -871.3 -731.1 -1173.6 -984.8 2062.5 -2458 -2864.3 -2403.5 -2062.5 2458 -1843.1 2196.5 4037.9 3388.3 -4850.9 5781.2 -4038 -3388.3 -1747.9 2083.1 -95.2 113.4 -1967.3 2344.6 2864.3 2403.5 1967.4 -2344.6 1173.6 984.8 -0.6 0.7 871.3 731.1 -1966.7 2343.9 2864.3 2403.4 1966.7 -2343.8 5727 4805.5 -1966.7 2343.8 2864.3 2403.5 1966.7 -2343.8 1938.7 1626.7 -1273.2 1517.4 373 313z"/>
   <path class="fil1" d="M148615.8 101622.9c3503.4,2939.7 3776.1,8382.4 609,12156.8 -3167.1,3774.4 -8574.4,4451 -12077.8,1511.3 -3503.4,-2939.7 -3776.1,-8382.4 -609,-12156.8 3167.1,-3774.4 8574.4,-4451 12077.8,-1511.3z"/>
   <path class="fil2 str0" d="M138862.4 113216.5c-323.2,-271.2 -667.2,-500.6 -1025.2,-689.8 1259.7,-1662.9 1948.5,-4307.8 1694.4,-7212.4 -412.2,-4712 -3149.2,-8321.7 -6113.2,-8062.4 -2964,259.4 -5032.5,4289.5 -4620.3,9001.5 253.1,2893 1382.5,5370 2902.7,6791.7 -297.1,233 -574.5,499.8 -826.6,800.2 -272.4,324.7 -501,671.8 -686.8,1034.2 -1666.6,-1225.2 -4277.3,-1890.4 -7139.8,-1640 -4712,412.2 -8321.7,3149.2 -8062.4,6113.2 259.4,2964.1 4289.4,5032.5 9001.4,4620.4 2935.6,-256.9 5443.1,-1415.8 6853.9,-2970 235.2,292.9 502.4,567.5 801.5,818.4 323.1,271.2 667.1,500.7 1025.1,689.8 -1259.8,1662.9 -1948.5,4307.7 -1694.4,7212.3 412.3,4712.1 3149.2,8321.7 6113.2,8062.3 2964.1,-259.2 5032.6,-4289.3 4620.3,-9001.4 -253.1,-2893 -1382.6,-5370 -2902.8,-6791.6 297.3,-233.2 574.7,-500 826.8,-800.4 272.4,-324.7 500.9,-671.7 686.7,-1034 1666.6,1225.1 4277.3,1890.3 7139.8,1639.9 4712.1,-412.3 8321.8,-3149.1 8062.5,-6113.2 -259.4,-2964.1 -4289.5,-5032.6 -9001.5,-4620.4 -2935.6,256.9 -5443,1415.9 -6853.9,2970.1 -235.1,-292.9 -502.3,-567.5 -801.4,-818.4z"/>
   <path class="fil3 str0" d="M139722.5 112191.4c2942.4,2468.9 3326.2,6855.5 857.3,9797.9 -2469,2942.4 -6855.6,3326.2 -9798,857.2 -2942.4,-2468.9 -3326.1,-6855.5 -857.2,-9797.9 2469,-2942.4 6855.6,-3326.2 9797.9,-857.2z"/>
   <rect class="fil4 str1" transform="matrix(1.22732 1.02985 1.05389 -1.25598 94304.3 158802)" width="6077.8" height="18618.7"/>
   <path class="fil5 str0" d="M136577.8 181229.5c-19.4,1764.9 675.2,3531.5 2067.9,4830.2 2627.1,2449.8 6742.7,2306.1 9192.6,-321.1 2449.8,-2627.1 2306.1,-6742.7 -321.1,-9192.6 -1392.6,-1298.6 -3203.4,-1868.3 -4962.6,-1725.8l332.1 -356.3 -22325.5 -20819 -20167 -18806 -16921.4 -15779.5c2416.4,-195.2 4815,-1292.4 6647.9,-3257.8 3748.5,-4019.9 3711.4,-10147.1 -82.6,-13685 -3794.2,-3538.2 -9909,-3147.8 -13657.6,872 -664.1,712.3 -1209.1,1491.1 -1635.7,2309.7 -473.5,-755.5 -1054.4,-1465.4 -1741.4,-2106.1 -4019.7,-3748.4 -10146.8,-3711.4 -13684.8,82.6 -3538.2,3794.3 -3147.7,9909 872,13657.5 712.3,664.3 1491.2,1209.2 2309.7,1635.8 -755.5,473.4 -1465.5,1054.4 -2106.1,1741.4 -3748.5,4019.8 -3711.3,10146.9 82.6,13684.8 3794.3,3538.2 9909,3147.9 13657.6,-871.9 1832.7,-1965.4 2759.9,-4434.6 2786,-6858.7l16832.8 15696.9 20166.9 18806 11162.9 10409.5 -1726 1850.9 -2346.7 -2188.3 -2550.1 2734.6 2346.7 2188.3 -5098.6 5467.7 -2346.7 -2188.4 -2550.1 2734.7 2346.7 2188.3 -775.7 831.8 -1044.8 1120.5 -2346.7 -2188.3 -2550.1 2734.6 2346.7 2188.4 2097 1955.5 3595 -3855.1 5519.3 5146.8 -3595 3855.2 1988.8 1854.5 108.3 101 2238.4 2087.3 2550.1 -2734.6 -2238.4 -2087.3 1044.9 -1120.5 0.7 0.6 775.7 -831.8 2237.7 2086.7 2550 -2734.7 -2237.7 -2086.6 5098.6 -5467.7 2237.7 2086.7 2550.1 -2734.6 -2237.7 -2086.7 1726 -1850.9 1448.6 1350.9 332.1 -356.1z"/>
   <path class="fil6" d="M59612.9 103758.9c3247,-3482 8920.2,-3468.9 12671.5,29.3 3751.4,3498.2 4160.2,9156.6 913.2,12638.7 -3247.1,3482 -8920.2,3468.9 -12671.6,-29.3 -3751.4,-3498.2 -4160.2,-9156.6 -913.1,-12638.7z"/>
   <path class="fil7 str0" d="M70554.8 113721.4c-287.7,308.6 -534.8,640.1 -742.5,987.8 -1594.6,-1345 -4199.8,-2171.3 -7113.7,-2069.6 -4727.1,165 -8475.2,2709.3 -8371.3,5682.8 103.9,2973.6 4020.2,5250.2 8747.3,5085.2 2902.3,-101.3 5435,-1099.6 6934.3,-2543.4 217.1,309 469,599.9 755.9,867.4 309.9,289.1 644.5,535.5 996.7,740 -1310.7,1600.2 -2111.6,4172.5 -2011.3,7044.3 165,4727.1 2709.3,8475 5682.9,8371.2 2973.5,-103.8 5250,-4020.1 5085,-8747.3 -102.8,-2944.9 -1129,-5509.7 -2607.2,-7000 304.8,-219.5 593,-471.9 859.3,-757.4 287.6,-308.5 534.9,-640.1 742.5,-987.6 1594.6,1345 4199.8,2171.2 7113.7,2069.4 4727.1,-165 8475,-2709.3 8371.2,-5682.8 -103.8,-2973.7 -4020.1,-5250.2 -8747.3,-5085.1 -2902.3,101.3 -5434.9,1099.7 -6934.2,2543.3 -217.3,-309 -469.2,-600 -756,-867.4 -310,-289.1 -644.6,-535.5 -996.7,-740 1310.7,-1600.2 2111.6,-4172.5 2011.3,-7044.2 -165,-4727.2 -2709.2,-8475.2 -5682.7,-8371.3 -2973.7,103.8 -5250.3,4020.1 -5085.2,8747.3 102.8,2945 1129.1,5509.7 2607.3,6999.9 -304.8,219.6 -593,472 -859.3,757.5z"/>
   <path class="fil8 str0" d="M69576.2 112808.8c2619.5,-2809.1 7020.2,-2962.8 9829.3,-343.2 2809.2,2619.5 2962.8,7020.2 343.3,9829.4 -2619.6,2809.1 -7020.3,2962.8 -9829.4,343.2 -2809.1,-2619.6 -2962.8,-7020.2 -343.2,-9829.4z"/>
   <rect class="fil4 str1" transform="matrix(1.09267 -1.17175 -1.1991 -1.11818 113746 160604)" width="6077.8" height="18618.7"/>
   <rect class="fil4 str1" transform="matrix(1.09267 -1.17175 -1.1991 -1.11818 136072 181424)" width="6077.8" height="18618.7"/>
   <rect class="fil4 str1" transform="matrix(1.22732 1.02985 1.05389 -1.25598 74682.3 182187)" width="6077.8" height="18618.7"/>
  </g>
 </g>
</svg>
